<svg xmlns="http://www.w3.org/2000/svg" viewBox="1938 -270 36 36"><defs><style>.a{opacity:0.7;}.b{fill:#fff;}</style></defs><g class="a" transform="translate(1938 -270)"><path class="b" d="M18,0A18,18,0,1,0,36,18,18.053,18.053,0,0,0,18,0Zm6,14,1,1-1,1-1-1Zm-1-2,1-1,1,1-1,1Zm1,7-1-1,1-1,1,1Zm1,2-1,1-1-1,1-1Zm-1.5-4.5-1,1-1-1,1-1ZM22,18l-1,1-1-1,1-1Zm.5.5,1,1-1,1-1-1ZM24,23l1,1-1,1-1-1Zm.5-.5,1-1,1,1-1,1Zm1-8-1-1,1-1,1,1Zm-1-4,1-1,1,1-1,1ZM24,8l1,1-1,1L23,9ZM22.5,9.5l1,1-1,1-1-1ZM21,11l1,1-1,1-1-1Zm-.5,2.5-1,1-1-1,1-1ZM18,16l-1-1,1-1,1,1Zm1,5-1,1-1-1,1-1ZM18,11l1,1-1,1-1-1Zm-.5,2.5-1,1-1-1,1-1ZM12,17l1,1-1,1-1-1Zm-1-2,1-1,1,1-1,1Zm1.5,1.5,1-1,1,1-1,1ZM12,13l-1-1,1-1,1,1Zm-.5.5-1,1-1-1,1-1Zm-1,8,1,1-1,1-1-1ZM12,23l1,1-1,1-1-1Zm0-1-1-1,1-1,1,1Zm.5-2.5,1-1,1,1-1,1ZM14,18l1-1,1,1-1,1Zm2-6-1,1-1-1,1-1Zm-1.5-1.5-1,1-1-1,1-1ZM12,8l1,1-1,1L11,9Zm-.5,2.5-1,1-1-1,1-1ZM9,8l1,1L9,10,8,9Zm0,3,1,1L9,13,8,12ZM9,23l1,1L9,25,8,24Zm0,5L8,27l1-1,1,1Zm.5-2.5,1-1,1,1-1,1ZM12,28l-1-1,1-1,1,1Zm1.5-1.5-1-1,1-1,1,1ZM15,25l-1-1,1-1,1,1Zm.5-2.5,1-1,1,1-1,1ZM18,25l-1-1,1-1,1,1Zm.5-2.5,1-1,1,1-1,1ZM20,24l1-1,1,1-1,1Zm1.5,1.5,1-1,1,1-1,1ZM24,28l-1-1,1-1,1,1Zm.5-2.5,1-1,1,1-1,1ZM27,28l-1-1,1-1,1,1Zm0-3-1-1,1-1,1,1Zm0-12-1-1,1-1,1,1Zm0-3L26,9l1-1,1,1Z"/></g></svg>