<svg xmlns="http://www.w3.org/2000/svg" viewBox="12584 10013 32 32"><defs><style>.a{opacity:0.5;}.b{fill:#fff;}</style></defs><g class="a" transform="translate(12584 10013)"><path class="b" d="M91.678,44.195a3.722,3.722,0,1,0,3.628,3.72,3.679,3.679,0,0,0-3.628-3.72Z" transform="translate(-75.627 -37.959)"/><path class="b" d="M16,0A16,16,0,1,0,32,16,16.005,16.005,0,0,0,16,0Zm4.79,9.956a4.8,4.8,0,0,1-4.183,4.8v3.312a4.739,4.739,0,1,1-1.11,0V14.752a4.836,4.836,0,0,1,.555-9.626,4.657,4.657,0,0,1,2.894,1.01L21.6,3.477l.785.785L19.732,6.919A4.865,4.865,0,0,1,20.79,9.956Z"/><path class="b" d="M88.05,139.371a3.63,3.63,0,1,0,3.628-3.72A3.679,3.679,0,0,0,88.05,139.371Z" transform="translate(-75.627 -116.512)"/></g></svg>