<?xml version="1.0" encoding="utf-8"?>
<!-- Generator: Adobe Illustrator 21.1.0, SVG Export Plug-In . SVG Version: 6.00 Build 0)  -->
<svg version="1.1" id="Слой_1" xmlns="http://www.w3.org/2000/svg" xmlns:xlink="http://www.w3.org/1999/xlink" x="0px" y="0px"
	 viewBox="0 0 36 36" style="enable-background:new 0 0 36 36;" xml:space="preserve">
<style type="text/css">
	.st0{fill:#FFFFFF;}
</style>
<g>
	<g>
		<polygon class="st0" points="16.2,14 19.8,14 20.4,12.9 15.6,12.9 		"/>
	</g>
	<g>
		<polygon class="st0" points="14.2,12.4 11.5,7.7 5.9,17.5 11.2,17.5 		"/>
	</g>
	<g>
		<polygon class="st0" points="5.9,18.5 11.5,28.3 14.2,23.6 11.2,18.5 		"/>
	</g>
	<g>
		<polygon class="st0" points="12.4,17.5 13.6,17.5 15.4,14.5 14.7,13.4 		"/>
	</g>
	<g>
		<polygon class="st0" points="21,11.9 23.6,7.2 12.4,7.2 15,11.9 		"/>
	</g>
	<g>
		<polygon class="st0" points="19.8,21 21.5,18 19.8,15 16.2,15 14.5,18 16.2,21 		"/>
	</g>
	<g>
		<polygon class="st0" points="20.6,21.5 21.3,22.6 23.6,18.5 22.4,18.5 		"/>
	</g>
	<g>
		<polygon class="st0" points="24.5,7.7 21.8,12.4 24.8,17.5 30.1,17.5 		"/>
	</g>
	<g>
		<path class="st0" d="M18,0C8.1,0,0,8.1,0,18c0,9.9,8.1,18,18,18s18-8.1,18-18C36,8.1,27.9,0,18,0z M24.8,29.8H11.2L4.4,18
			l6.8-11.8h13.6L31.6,18L24.8,29.8z"/>
	</g>
	<g>
		<polygon class="st0" points="12.4,18.5 14.7,22.6 15.4,21.5 13.6,18.5 		"/>
	</g>
	<g>
		<polygon class="st0" points="20.6,14.5 22.4,17.5 23.6,17.5 21.3,13.4 		"/>
	</g>
	<g>
		<polygon class="st0" points="16.2,22 15.6,23.1 20.4,23.1 19.8,22 		"/>
	</g>
</g>
</svg>
