<svg xmlns="http://www.w3.org/2000/svg" viewBox="2168 -270 36 36"><defs><style>.a{opacity:0.7;}.b{fill:#fff;}</style></defs><g class="a" transform="translate(2168 -270)"><path class="b" d="M16.7,24.8h2.5L21.5,18,18,12.4l-3.6,5.7Z"/><path class="b" d="M13,17.9l-.8-2.4-1.6,6.2Z"/><path class="b" d="M17.4,11.1V7.5l-4.6,5.9,1.1,3.1Z"/><path class="b" d="M25.3,21.6l-1.6-6.1-.8,2.3Z"/><path class="b" d="M23.1,13.4,18.6,7.5v3.6l3.5,5.4Z"/><path class="b" d="M13.6,19.4l-3.4,5.4h5.2Z"/><path class="b" d="M20.6,24.8h5.2l-3.4-5.4Z"/><path class="b" d="M11.5,26l5.4,3-1.1-3Z"/><path class="b" d="M18,0A18,18,0,1,0,36,18,18.053,18.053,0,0,0,18,0Zm9.3,26-9,5a.637.637,0,0,1-.6,0l-9-5a.517.517,0,0,1-.3-.7l3.1-12.1a.349.349,0,0,1,.1-.2l5.9-7.7.1-.1a.633.633,0,0,1,.9.1L24.3,13c.1.1.1.1.1.2l3.2,12.1C27.7,25.5,27.5,25.8,27.3,26Z"/><path class="b" d="M18,28.4l.8-2.4H17.2Z"/><path class="b" d="M19.1,29l5.4-3H20.1Z"/></g></svg>