<svg xmlns="http://www.w3.org/2000/svg" viewBox="2214 -270 36 36"><defs><style>.a{opacity:0.3;}.b{fill:#fff;}</style></defs><g class="a" transform="translate(2214 -270)"><path class="b" d="M28.8,11.8,18.5,5.9V17.7l10.3,5.9Zm-5.9,5.7c-.3.6-1.3.6-2.1.1s-1.3-1.3-.9-1.9c.3-.6,1.3-.6,2.1-.1S23.2,17,22.9,17.5Zm4.9-3.4c-.3.6-1.3.6-2.1.1s-1.3-1.3-.9-1.9,1.3-.6,2.1-.1S28.1,13.5,27.8,14.1Z"/><path class="b" d="M17.5,5.9,7.2,11.8V23.6l10.3-5.9ZM10.2,21.3c-.8.5-1.8.4-2.1-.1-.3-.6.1-1.4.9-1.9s1.8-.4,2.1.1S11,20.8,10.2,21.3ZM13,15.8c-.8.5-1.8.4-2.1-.1s.1-1.4.9-1.9,1.8-.4,2.1.1S13.8,15.3,13,15.8Zm3-5.6c-.8.5-1.8.4-2.1-.1s.1-1.4.9-1.9,1.8-.4,2.1.1S16.8,9.7,16,10.2Z"/><path class="b" d="M7.7,24.5,18,30.4l10.3-5.9L18,18.6Zm12.1.2c0,.7-.8,1.2-1.8,1.2s-1.8-.5-1.8-1.2.8-1.2,1.8-1.2S19.8,24,19.8,24.7Z"/><path class="b" d="M18,0A18,18,0,1,0,36,18,18.053,18.053,0,0,0,18,0ZM29.8,24.8,18,31.6,6.2,24.8V11.2L18,4.4l11.8,6.8Z"/></g></svg>