<svg xmlns="http://www.w3.org/2000/svg" viewBox="12689 10051 50 19.645"><defs><style>.a{opacity:0.7;}.b{fill:#fff;}</style></defs><g class="a" transform="translate(12688 9982.086)"><path class="b" d="M88.8,91.134l-.723.723a3.529,3.529,0,0,1,.361,3.121,3.568,3.568,0,0,1-4.55,2.152,3.305,3.305,0,0,1-.723-.361l-2.316,2.316-2.02-2.037a3.689,3.689,0,0,1-3.269.411,3.638,3.638,0,0,1-2.2-4.665,3.38,3.38,0,0,1,.411-.8l-.871-.871-.164.279a9.511,9.511,0,0,0,8.1,14.471h.017a9.506,9.506,0,0,0,8.132-14.437Z" transform="translate(-54.829 -17.308)"/><path class="b" d="M20,75.747a1.967,1.967,0,0,0-.394,1.183,1.942,1.942,0,0,0,1.938,1.938,1.881,1.881,0,0,0,1.183-.411Zm9.511,2.546a1.879,1.879,0,0,0,1.084.328,1.942,1.942,0,0,0,1.938-1.938,1.918,1.918,0,0,0-.328-1.084l-2.694,2.694ZM26.049,80.33,18.2,72.446l.312-.328a10.137,10.137,0,0,1,7.424-3.2h.017a10.193,10.193,0,0,1,7.556,3.367l.3.328Zm-6.57-7.884,6.57,6.587,6.488-6.455a9.317,9.317,0,0,0-6.57-2.743h-.017A9.2,9.2,0,0,0,19.479,72.446Zm-2.086,12.96-.92-.066c-3.909-.246-9.3-1.216-12.779-4.353A7.9,7.9,0,0,1,1.115,77.16L1,76.6H15.225l-.082.526a10.688,10.688,0,0,0-.1,1.446,10.858,10.858,0,0,0,1.823,6.061l.526.772Zm17.214,0,.509-.772a10.792,10.792,0,0,0,1.823-6.028,11,11,0,0,0-.1-1.478l-.066-.526H51l-.115.558a7.93,7.93,0,0,1-2.562,3.827c-3.482,3.137-8.886,4.106-12.8,4.353Z"/></g></svg>