<svg xmlns="http://www.w3.org/2000/svg" viewBox="2306 -270 36 36"><defs><style>.a{opacity:0.3;}.b{fill:#fff;}</style></defs><g class="a" transform="translate(2306 -270)"><path class="b" d="M18,30.3l3.1-3.1a16.181,16.181,0,0,1-5.1,1Z"/><path class="b" d="M25.9,19A19.149,19.149,0,0,0,13,17.7a23.1,23.1,0,0,1,8.2,2.8A13.6,13.6,0,0,0,25.9,19Z"/><path class="b" d="M5.7,18c5.4,5,16.9,7.2,24.6,0L18,5.7Zm21.4.5.6.3-.5.5c-2,1.8-5.8,2.2-6,2.2H21l-.2-.1a20.6,20.6,0,0,0-10.3-3l-2.1-.1,1.9-.8A19.507,19.507,0,0,1,27.1,18.5Z"/><path class="b" d="M18,0A18,18,0,1,0,36,18,18.053,18.053,0,0,0,18,0Zm0,31.7-4.4-4.4h1.2a18.646,18.646,0,0,0,8.1-1.9l2.5-1.2Zm.4-8.1A20.459,20.459,0,0,1,4.6,18.4L4.3,18,18,4.3,31.7,18l-.4.4A17.965,17.965,0,0,1,18.4,23.6Z"/></g></svg>