<svg xmlns="http://www.w3.org/2000/svg" viewBox="11580 9959 32 25.685"><defs><style>.a{fill:#fff;opacity:0.3;}</style></defs><path class="a" d="M8.571,36.738H23.122L15.9,26.133Zm7.3,14.207L23.2,37.726H8.468ZM15.306,25.26H9.232c0,.015,0,.03,0,.046L8.3,35.4Zm1.2,0,6.889,10.12L22.483,25.3c0-.015,0-.029,0-.044H16.5Zm7.871,12.409-7.2,12.988L31.593,36.124ZM7.189,36.631,8.245,25.26H7.629L-.1,35.044ZM.2,36.12,14.578,50.652,7.305,37.667Zm24.3.512L31.9,35.047,24.056,25.26h-.585Z" transform="translate(11580.096 9933.74)"/></svg>