<svg xmlns="http://www.w3.org/2000/svg" viewBox="12383 10109 24 24"><defs><style>.a{fill:#fff;}</style></defs><path class="a" d="M4.953.807,6.447,2.3,4.953,3.794,3.46,2.3Zm8.88.887L12.34.2,6.85,5.69,8.344,7.184ZM11.61,10.449l8.955-8.955L19.072,0,10.115,8.956ZM23.5,4.647,22.007,6.14,20.513,4.647l1.494-1.494Zm-6.378,3.39,5.49,5.49,1.494-1.493-5.49-5.49ZM15.351,9.808,13.858,11.3l8.955,8.955,1.494-1.493Zm4.31,13.383L18.167,21.7,19.66,20.2,21.154,21.7Zm-8.88-.886L12.274,23.8l5.49-5.49L16.27,16.817ZM13,13.551,4.049,22.506,5.542,24,14.5,15.044Zm-11.89,5.8,1.493-1.494L4.1,19.353,2.608,20.847Zm6.377-3.39L2,10.474.507,11.967,6,17.458ZM10.756,12.7,1.8,3.742.307,5.235l8.956,8.956Z" transform="translate(12382.693 10109)"/></svg>