<svg xmlns="http://www.w3.org/2000/svg" viewBox="2444 -270 36 36"><defs><style>.a{opacity:0.5;}.b{fill:#fff;}</style></defs><g class="a" transform="translate(2444 -270)"><path class="b" d="M18,0A18,18,0,1,0,36,18,18.053,18.053,0,0,0,18,0Zm6.5,14.2a.876.876,0,0,1,1,.5.791.791,0,0,1-1.5.5A.825.825,0,0,1,24.5,14.2Zm-2.3.6a1,1,0,0,1,1.1.5,1,1,0,0,1-.5,1.1,1,1,0,0,1-1.1-.5A1,1,0,0,1,22.2,14.8Zm-2.4.9a.949.949,0,1,1-.6,1.2A.931.931,0,0,1,19.8,15.7ZM17,7.6a.7.7,0,1,1-.7.7A.684.684,0,0,1,17,7.6Zm-.2,2.1a.8.8,0,0,1,0,1.6.736.736,0,0,1-.8-.8C16.1,10,16.4,9.7,16.8,9.7Zm0,2.2a.9.9,0,0,1,0,1.8.817.817,0,0,1-.8-.9A.817.817,0,0,1,16.8,11.9ZM14,17.6a.949.949,0,1,1,.6,1.2A.931.931,0,0,1,14,17.6ZM11.5,17a.854.854,0,1,1,.5,1.1A1,1,0,0,1,11.5,17ZM4.4,12.7a.55.55,0,0,1-.5.3.55.55,0,0,1-.3-.5.55.55,0,0,1,.5-.3A.382.382,0,0,1,4.4,12.7Zm1.1,1.2a.446.446,0,0,1-.6.3.474.474,0,0,1,.3-.9C5.5,13.3,5.6,13.6,5.5,13.9Zm1.5,1a.57.57,0,1,1-.4-.7A.569.569,0,0,1,7,14.9ZM8.5,29.7c-.1.2-.4.2-.6.1s-.2-.4-.1-.6a.616.616,0,0,1,.7-.1A.452.452,0,0,1,8.5,29.7Zm.3-13.8c-.1.4-.5.5-.9.4s-.5-.5-.4-.9a.6.6,0,0,1,.8-.4A.76.76,0,0,1,8.8,15.9ZM10,29.1a.5.5,0,1,1-.1-.7A.467.467,0,0,1,10,29.1ZM9.9,17.2a.791.791,0,1,1,1-.5C10.7,17.2,10.3,17.4,9.9,17.2Zm1.6,10.9a.57.57,0,1,1-.1-.8A.619.619,0,0,1,11.5,28.1ZM13,26.9a.564.564,0,0,1-.9.1.64.64,0,1,1,.8-1A.744.744,0,0,1,13,26.9Zm1.4-1.6a.885.885,0,0,1-1.1.2.791.791,0,0,1,.9-1.3A.731.731,0,0,1,14.4,25.3Zm1.5-1.8a.86.86,0,1,1-.2-1.2A.83.83,0,0,1,15.9,23.5Zm1.5-2.2a.93.93,0,1,1-.2-1.3A.948.948,0,0,1,17.4,21.3Zm-.4-5a.9.9,0,1,1,.9-.9A.9.9,0,0,1,17,16.3ZM17.4,7a.645.645,0,0,1-.6-.6.6.6,0,0,1,1.2,0C17.9,6.7,17.7,7,17.4,7Zm.5-1.7a.472.472,0,0,1-.5-.5.5.5,0,0,1,1,0A.536.536,0,0,1,17.9,5.3Zm.7-1.5a.43.43,0,0,1-.4-.4.4.4,0,1,1,.8,0A.43.43,0,0,1,18.6,3.8Zm.5,16.7a.93.93,0,1,1,1.3.2A.948.948,0,0,1,19.1,20.5Zm1.7,1.9a.86.86,0,1,1,1.2.2A.83.83,0,0,1,20.8,22.4Zm1.5,1.9a.791.791,0,1,1,1.1.2A.8.8,0,0,1,22.3,24.3Zm1.2,1.8a.652.652,0,1,1,.9.2A.631.631,0,0,1,23.5,26.1Zm.9,1.7a.57.57,0,1,1,.8.1A.619.619,0,0,1,24.4,27.8Zm.7.9a.5.5,0,1,1-.1.7A.467.467,0,0,1,25.1,28.7Zm.7,2.2a.43.43,0,1,1,.1-.6C26,30.5,26,30.8,25.8,30.9Zm1.3-15.8a.632.632,0,0,1-.8-.4.68.68,0,0,1,.4-.8.632.632,0,0,1,.8.4A.68.68,0,0,1,27.1,15.1Zm1.8-.4a.57.57,0,1,1,.4-.7A.569.569,0,0,1,28.9,14.7Zm1.7,0a.474.474,0,1,1,.3-.6A.446.446,0,0,1,30.6,14.7Zm1.5.2c-.2.1-.4,0-.5-.3-.1-.2,0-.4.3-.5.2-.1.4,0,.5.3A.55.55,0,0,1,32.1,14.9Z"/></g></svg>