<svg xmlns="http://www.w3.org/2000/svg" viewBox="12857 10109 36 36"><defs><style>.a{fill:#fff;opacity:0.8;}</style></defs><path class="a" d="M28.633,8.111a20.585,20.585,0,0,1,3.3,1.618,16.659,16.659,0,0,1,1.4.955,7.611,7.611,0,0,0-2.086-5.193,7.641,7.641,0,0,0-5.19-2.081,16.771,16.771,0,0,1,.952,1.4A20.567,20.567,0,0,1,28.633,8.111Zm-4.964-5.7a7.607,7.607,0,0,0-5.144-2.2,7.607,7.607,0,0,0-5.145,2.2A19.052,19.052,0,0,1,18.525,3.92a19.057,19.057,0,0,1,5.144-1.505ZM8.417,8.111a20.6,20.6,0,0,1,1.618-3.3q.441-.722.952-1.4A7.64,7.64,0,0,0,5.8,5.491a7.608,7.608,0,0,0-2.086,5.193,16.8,16.8,0,0,1,1.4-.955,20.58,20.58,0,0,1,3.3-1.618ZM27.769,27.462a24.108,24.108,0,0,0,.766-2.56q-.768.892-1.6,1.725t-1.727,1.6a24.053,24.053,0,0,0,2.561-.766ZM16.2,30.025a24.709,24.709,0,0,0,2.32,1.25,24.908,24.908,0,0,0,2.32-1.25q-1.147.085-2.32.086t-2.32-.086Zm-2.824,4a7.608,7.608,0,0,0,5.145,2.2,7.608,7.608,0,0,0,5.145-2.2,19.049,19.049,0,0,1-5.145-1.506A19.047,19.047,0,0,1,13.38,34.024Zm15.252-5.7a20.583,20.583,0,0,1-1.618,3.3,16.657,16.657,0,0,1-.952,1.4,7.639,7.639,0,0,0,5.19-2.081,7.61,7.61,0,0,0,2.086-5.193,16.761,16.761,0,0,1-1.4.955,20.6,20.6,0,0,1-3.3,1.617ZM3.039,14.739a16.8,16.8,0,0,1-.316-1.667,7.611,7.611,0,0,0-2.2,5.147,7.611,7.611,0,0,0,2.2,5.147A16.821,16.821,0,0,1,3.039,21.7a20.588,20.588,0,0,1,1.192-3.48,20.565,20.565,0,0,1-1.192-3.479Zm31.289-1.667a16.894,16.894,0,0,1-.316,1.667,20.637,20.637,0,0,1-1.192,3.48,20.63,20.63,0,0,1,1.192,3.48,16.814,16.814,0,0,1,.316,1.667,7.611,7.611,0,0,0,2.2-5.147,7.612,7.612,0,0,0-2.2-5.147ZM9.281,27.462a23.961,23.961,0,0,0,2.561.766A31.337,31.337,0,0,1,8.516,24.9a24.027,24.027,0,0,0,.766,2.56Zm-.864.864a20.606,20.606,0,0,1-3.3-1.617,16.841,16.841,0,0,1-1.4-.955A7.611,7.611,0,0,0,5.8,30.947a7.637,7.637,0,0,0,5.189,2.081,16.811,16.811,0,0,1-.952-1.4,20.61,20.61,0,0,1-1.618-3.3ZM5.452,18.219a24.108,24.108,0,0,0,1.269,2.352q-.088-1.174-.088-2.352t.088-2.351a24.124,24.124,0,0,0-1.269,2.351Zm27.862-6.126a14.992,14.992,0,0,0-1.959-1.415,18.972,18.972,0,0,0-2.23-1.159,27.038,27.038,0,0,1,.92,3.928,26.919,26.919,0,0,1,2.127,3.428,18.871,18.871,0,0,0,.757-2.4A14.994,14.994,0,0,0,33.315,12.093ZM29.126,26.919a18.9,18.9,0,0,0,2.23-1.159,15.007,15.007,0,0,0,1.959-1.415,14.958,14.958,0,0,0-.385-2.385,18.885,18.885,0,0,0-.757-2.4,26.958,26.958,0,0,1-2.127,3.428A27.068,27.068,0,0,1,29.126,26.919Zm2.471-8.7a24.075,24.075,0,0,0-1.269-2.352q.088,1.162.088,2.352t-.088,2.352A24.116,24.116,0,0,0,31.6,18.219ZM23.3,6.7a26.987,26.987,0,0,1,3.925.92,18.914,18.914,0,0,0-1.159-2.23,15.01,15.01,0,0,0-1.412-1.956,16.648,16.648,0,0,0-4.765,1.144A27.119,27.119,0,0,1,23.3,6.7ZM13.75,29.74a27,27,0,0,1-3.925-.92,18.892,18.892,0,0,0,1.159,2.23A14.964,14.964,0,0,0,12.4,33.006a16.657,16.657,0,0,0,4.765-1.144A27.064,27.064,0,0,1,13.75,29.74ZM9.825,7.618A27.014,27.014,0,0,1,13.75,6.7a27.065,27.065,0,0,1,3.411-2.122A16.642,16.642,0,0,0,12.4,3.432a14.98,14.98,0,0,0-1.412,1.956,18.9,18.9,0,0,0-1.159,2.23Zm2.017.592a24.132,24.132,0,0,0-2.561.766,24.064,24.064,0,0,0-.766,2.56q.767-.892,1.6-1.725t1.726-1.6ZM7.924,9.519a18.908,18.908,0,0,0-2.23,1.159,14.97,14.97,0,0,0-1.959,1.415,14.986,14.986,0,0,0,.384,2.385,18.931,18.931,0,0,0,.757,2.4A26.977,26.977,0,0,1,7,13.446,26.983,26.983,0,0,1,7.924,9.519ZM3.735,24.345A15,15,0,0,0,5.694,25.76a18.861,18.861,0,0,0,2.23,1.159A26.989,26.989,0,0,1,7,22.991a26.957,26.957,0,0,1-2.127-3.428,18.945,18.945,0,0,0-.757,2.4,14.983,14.983,0,0,0-.385,2.385Zm24.8-12.81a24.1,24.1,0,0,0-.766-2.56,24.168,24.168,0,0,0-2.561-.766q.893.768,1.727,1.6t1.6,1.725ZM18.525,5.163A24.738,24.738,0,0,0,16.2,6.413a31.411,31.411,0,0,1,4.641,0,24.832,24.832,0,0,0-2.32-1.25Zm8.7,23.658a27.074,27.074,0,0,1-3.925.919,27.071,27.071,0,0,1-3.411,2.122,16.648,16.648,0,0,0,4.765,1.144,15.029,15.029,0,0,0,1.412-1.956,18.92,18.92,0,0,0,1.16-2.23Zm-3.138-8.17A3.876,3.876,0,0,0,22.94,17.9,3.59,3.59,0,0,0,20.2,11.987H14.006a1.205,1.205,0,0,0-1.205,1.2V23.343a1.205,1.205,0,0,0,1.205,1.205H20.2a1.234,1.234,0,0,0,.16-.012,3.894,3.894,0,0,0,3.73-3.885ZM15.211,14.4H20.2a1.182,1.182,0,1,1,0,2.364H15.211ZM20.2,22.13a1.232,1.232,0,0,0-.133.008H15.211V19.172H20.2a1.479,1.479,0,0,1,0,2.959Z" transform="translate(12856.475 10108.781)"/></svg>