<svg xmlns="http://www.w3.org/2000/svg" viewBox="7375 3165 64 64"><defs><style>.a{opacity:0.4;}.b{fill:#fff;}</style></defs><g class="a" transform="translate(7375 3165)"><path class="b" d="M78.49,56.1V50.04L70.749,60.12l1.834,5.317ZM71.109,67.766,69.7,63.678,67.008,74.244l4.1-6.478Zm6.315,11.707h4.25L85.6,67.954l-6.032-9.528-6.086,9.615Zm14.639-5.331L89.334,63.667l-1.366,4.008ZM88.269,60.118,80.644,50.07V56.1l5.845,9.234ZM72.007,70.37l-5.763,9.1h8.9Zm7.555,15.3,1.381-4.053h-2.78ZM68.45,81.618,77.637,86.7l-1.752-5.079ZM81.484,86.7l9.2-5.087H83.217Zm2.464-7.231H92.89L87.078,70.29Z" transform="translate(-47.567 -35.932)"/><path class="b" d="M32,0A32,32,0,1,0,64,32,32,32,0,0,0,32,0ZM47.8,45.552,32.523,54a1.083,1.083,0,0,1-1.046,0L16.2,45.552a1.071,1.071,0,0,1-.521-1.2L20.93,23.731a1.068,1.068,0,0,1,.188-.388L31.144,10.288a1.08,1.08,0,0,1,1.715,0l9.9,13.053a1.069,1.069,0,0,1,.183.377l5.37,20.621a1.071,1.071,0,0,1-.519,1.207Z"/></g></svg>