<svg xmlns="http://www.w3.org/2000/svg" viewBox="2582 -270 36 36"><defs><style>.a{opacity:0.5;}.b{fill:#fff;}</style></defs><g class="a" transform="translate(2582 -270)"><path class="b" d="M24.7,12.7c-2,0-5.4,3-7.4,5.3,2,2.3,5.4,5.3,7.4,5.3a5.3,5.3,0,0,0,0-10.6Z"/><path class="b" d="M18,0A18,18,0,1,0,36,18,18.053,18.053,0,0,0,18,0ZM11.3,25.3a7.3,7.3,0,1,1,0-14.6,7.1,7.1,0,0,1,5.2,2.2l-1.4,1.4a5.464,5.464,0,0,0-3.8-1.6,5.3,5.3,0,1,0,3.8,9l1.4,1.4A7.262,7.262,0,0,1,11.3,25.3Zm13.4,0c-3.8,0-8.9-5.9-9.5-6.6l-.5-.7.5-.6c.6-.7,5.7-6.6,9.5-6.6a7.25,7.25,0,1,1,0,14.5Z"/></g></svg>