<svg width="24" height="24" viewBox="0 0 24 24" fill="none" xmlns="http://www.w3.org/2000/svg">
<path d="M18 8C18 9.65685 16.6569 11 15 11C13.3431 11 12 9.65685 12 8C12 6.34315 13.3431 5 15 5C16.6569 5 18 6.34315 18 8Z" fill="#081E39"/>
<path d="M7 9C7 8.44772 6.55228 8 6 8C5.44772 8 5 8.44772 5 9V11H3C2.44772 11 2 11.4477 2 12C2 12.5523 2.44772 13 3 13H5V15C5 15.5523 5.44772 16 6 16C6.55228 16 7 15.5523 7 15V13H9C9.55228 13 10 12.5523 10 12C10 11.4477 9.55228 11 9 11H7V9Z" fill="#081E39"/>
<path d="M9 17.6667C9 14.75 11.6863 13 15 13C18.3137 13 21 14.75 21 17.6667V18C21 19.1046 20.1046 20 19 20H11C9.89545 20 9.00003 19.1046 9.00001 18L9 17.6667Z" fill="#081E39"/>
</svg>
