<svg width="24" height="24" viewBox="0 0 24 24" fill="none" xmlns="http://www.w3.org/2000/svg">
<path fill-rule="evenodd" clip-rule="evenodd" d="M8.92242 1.95808C8.49506 1.62156 8.42892 0.999036 8.77602 0.580226C9.11106 0.175969 9.70734 0.112615 10.1199 0.437445L14.4419 3.84084L10.9292 8.07918C10.5954 8.48191 10.0014 8.54502 9.59047 8.22142C9.16253 7.88444 9.09853 7.26011 9.44919 6.84331L10.9769 5.02747C10.041 5.11274 9.13241 5.39521 8.31318 5.85811C7.31864 6.42007 6.4908 7.22817 5.91036 8.20157C5.32997 9.17489 5.0167 10.2803 5.00065 11.4087C4.9846 12.5371 5.26631 13.6507 5.81872 14.6396C6.37117 15.6287 7.1756 16.4594 8.15363 17.0487C8.62668 17.3338 8.77908 17.9483 8.49404 18.4214C8.20899 18.8944 7.59444 19.0468 7.1214 18.7618C5.84698 17.9938 4.79577 16.9095 4.07265 15.615C3.34949 14.3203 2.9798 12.8607 3.00085 11.3803C3.02191 9.89986 3.43296 8.45115 4.19257 7.17726C4.95215 5.90344 6.03366 4.84895 7.32929 4.11686C8.26749 3.58673 9.29475 3.23876 10.3562 3.08708L8.92242 1.95808Z" fill="#003DC6"/>
<path fill-rule="evenodd" clip-rule="evenodd" d="M15.5195 21.9473C15.9468 22.2838 16.013 22.9064 15.6659 23.3252C15.3308 23.7294 14.7345 23.7928 14.322 23.468L10 20.0646L13.5127 15.8262C13.8465 15.4235 14.4405 15.3604 14.8514 15.684C15.2794 16.021 15.3434 16.6453 14.9927 17.0621L13.465 18.8779C14.4009 18.7927 15.3095 18.5102 16.1287 18.0473C17.1233 17.4853 17.9511 16.6772 18.5315 15.7038C19.1119 14.7305 19.4252 13.6251 19.4412 12.4967C19.4573 11.3683 19.1756 10.2547 18.6232 9.26575C18.0707 8.27671 17.2663 7.44601 16.2883 6.85667C15.8152 6.57163 15.6628 5.95708 15.9479 5.48404C16.2329 5.011 16.8475 4.85859 17.3205 5.14363C18.5949 5.91157 19.6461 6.99586 20.3692 8.29043C21.0924 9.58508 21.4621 11.0447 21.441 12.5251C21.42 14.0055 21.0089 15.4543 20.2493 16.7281C19.4897 18.002 18.4082 19.0564 17.1126 19.7885C16.1744 20.3187 15.1471 20.6666 14.0857 20.8183L15.5195 21.9473Z" fill="#003DC6"/>
</svg>
