<svg width="48" height="48" viewBox="0 0 48 48" fill="none" xmlns="http://www.w3.org/2000/svg">
<path fill-rule="evenodd" clip-rule="evenodd" d="M48 24C48 37.2548 37.2548 48 24 48C10.7452 48 0 37.2548 0 24C0 10.7452 10.7452 0 24 0C37.2548 0 48 10.7452 48 24ZM31 15C31 18.866 27.866 22 24 22C20.134 22 17 18.866 17 15C17 11.134 20.134 8 24 8C27.866 8 31 11.134 31 15ZM11.7549 31.4717C9.21151 33.6175 9.4743 37.5254 12.2284 39.393C15.586 41.6699 19.6377 43 24 43C28.3624 43 32.4141 41.6699 35.7716 39.393C38.5258 37.5254 38.7886 33.6176 36.2452 31.4717C32.9383 28.6816 28.6655 27 24 27C19.3346 27 15.0618 28.6816 11.7549 31.4717Z" fill="#003DC6"/>
</svg>
