<svg width="48" height="48" viewBox="0 0 48 48" fill="none" xmlns="http://www.w3.org/2000/svg">
<path fill-rule="evenodd" clip-rule="evenodd" d="M24 48C37.2548 48 48 37.2548 48 24C48 10.7452 37.2548 0 24 0C10.7452 0 0 10.7452 0 24C0 37.2548 10.7452 48 24 48ZM24 11.5C25.3807 11.5 26.5 12.6193 26.5 14V26C26.5 27.3807 25.3807 28.5 24 28.5C22.6193 28.5 21.5 27.3807 21.5 26V14C21.5 12.6193 22.6193 11.5 24 11.5ZM27 35C27 36.6569 25.6569 38 24 38C22.3431 38 21 36.6569 21 35C21 33.3431 22.3431 32 24 32C25.6569 32 27 33.3431 27 35Z" fill="#081E39" fill-opacity="0.6"/>
</svg>
