<svg width="48" height="48" viewBox="0 0 48 48" xmlns="http://www.w3.org/2000/svg">
<path d="M24 48C37.2548 48 48 37.2548 48 24C48 10.7452 37.2548 0 24 0C10.7452 0 0 10.7452 0 24C0 37.2548 10.7452 48 24 48ZM26 13C26 11.8954 25.1046 11 24 11C22.8954 11 22 11.8954 22 13V21.1716L20.4142 19.5858C19.6332 18.8047 18.3668 18.8047 17.5858 19.5858C16.8047 20.3668 16.8047 21.6332 17.5858 22.4142L24 28.8284L30.4142 22.4142C31.1953 21.6332 31.1953 20.3668 30.4142 19.5858C29.6332 18.8047 28.3668 18.8047 27.5858 19.5858L26 21.1716V13ZM18 32C16.8954 32 16 32.8954 16 34C16 35.1046 16.8954 36 18 36H30C31.1046 36 32 35.1046 32 34C32 32.8954 31.1046 32 30 32H18Z"/>
</svg>
