<svg width="48" height="48" viewBox="0 0 48 48" fill="none" xmlns="http://www.w3.org/2000/svg">
<path d="M19 19V31C19 32.1046 19.8954 33 21 33H27C28.1046 33 29 32.1046 29 31V19H19Z"/>
<path fill-rule="evenodd" clip-rule="evenodd" d="M24 48C37.2548 48 48 37.2548 48 24C48 10.7452 37.2548 0 24 0C10.7452 0 0 10.7452 0 24C0 37.2548 10.7452 48 24 48ZM32 15H27C27 13.3431 25.6569 12 24 12C22.3431 12 21 13.3431 21 15H16C14.8954 15 14 15.8954 14 17C14 17.7403 14.4022 18.3866 15 18.7324V31C15 34.3137 17.6863 37 21 37H27C30.3137 37 33 34.3137 33 31V18.7324C33.5978 18.3866 34 17.7403 34 17C34 15.8954 33.1046 15 32 15Z"/>
</svg>
