<svg width="16" height="16" viewBox="0 0 16 16" fill="none" xmlns="http://www.w3.org/2000/svg">
<path d="M8.00001 1.33264C4.32401 1.33264 1.33334 4.32397 1.33334 7.99931C1.33334 11.676 4.32401 14.666 8.00001 14.666C11.676 14.666 14.6667 11.676 14.6667 7.99931C14.6667 4.32397 11.676 1.33264 8.00001 1.33264ZM8.00001 4.49997C8.46001 4.49997 8.83334 4.87331 8.83334 5.33331C8.83334 5.79397 8.46001 6.16664 8.00001 6.16664C7.54001 6.16664 7.16668 5.79331 7.16668 5.33264C7.16668 4.87264 7.54001 4.49997 8.00001 4.49997ZM10 11.3326H6.00001V9.99931H7.33334V7.99931H6.66668V6.66597H8.00001C8.36868 6.66597 8.66668 6.96464 8.66668 7.33264V9.99931H10V11.3326Z" fill="white"/>
</svg>
