<svg width="24" height="24" viewBox="0 0 24 24" fill="none" xmlns="http://www.w3.org/2000/svg">
<path fill-rule="evenodd" clip-rule="evenodd" d="M7 3C4.79086 3 3 4.79086 3 7V17C3 19.2091 4.79086 21 7 21H17C19.2091 21 21 19.2091 21 17V7C21 4.79086 19.2091 3 17 3H7ZM11 8C11 7.44772 11.4477 7 12 7C12.5523 7 13 7.44772 13 8V13.5858L14.2929 12.2929C14.6834 11.9024 15.3166 11.9024 15.7071 12.2929C16.0976 12.6834 16.0976 13.3166 15.7071 13.7071L12.7071 16.7071C12.3166 17.0976 11.6834 17.0976 11.2929 16.7071L8.29289 13.7071C7.90237 13.3166 7.90237 12.6834 8.29289 12.2929C8.68342 11.9024 9.31658 11.9024 9.70711 12.2929L11 13.5858V8Z"/>
</svg>
