<svg width="48" height="48" viewBox="0 0 48 48" fill="none" xmlns="http://www.w3.org/2000/svg">
<path d="M18.5 25C16.567 25 15 26.567 15 28.5C15 30.433 16.567 32 18.5 32C20.433 32 22 30.433 22 28.5C22 26.567 20.433 25 18.5 25Z"/>
<path fill-rule="evenodd" clip-rule="evenodd" d="M24 48C37.2548 48 48 37.2548 48 24C48 10.7452 37.2548 0 24 0C10.7452 0 0 10.7452 0 24C0 37.2548 10.7452 48 24 48ZM36.4142 16.5858L33.4142 13.5858C32.6332 12.8047 31.3668 12.8047 30.5858 13.5858L22.198 21.9736C21.1067 21.3539 19.8447 21 18.5 21C14.3579 21 11 24.3579 11 28.5C11 32.6421 14.3579 36 18.5 36C22.6421 36 26 32.6421 26 28.5C26 27.1553 25.6461 25.8933 25.0264 24.802L28 21.8284L28.5858 22.4142C29.3668 23.1953 30.6332 23.1953 31.4142 22.4142C32.1953 21.6332 32.1953 20.3668 31.4142 19.5858L30.8284 19L32 17.8284L33.5858 19.4142C34.3668 20.1953 35.6332 20.1953 36.4142 19.4142C37.1953 18.6332 37.1953 17.3668 36.4142 16.5858Z"/>
</svg>
