<svg width="24" height="24" viewBox="0 0 24 24" fill="none" xmlns="http://www.w3.org/2000/svg">
<path fill-rule="evenodd" clip-rule="evenodd" d="M3.28864 11.5C3.11 11.8094 3.11001 12.1906 3.28864 12.5L7.21129 19.2943C7.38992 19.6037 7.72005 19.7943 8.07731 19.7943L15.9226 19.7943C16.2799 19.7943 16.61 19.6037 16.7886 19.2943L20.7113 12.5C20.8899 12.1906 20.8899 11.8094 20.7113 11.5L16.7886 4.70581C16.61 4.39641 16.2799 4.20581 15.9226 4.20581L8.07731 4.20581C7.72005 4.20581 7.38992 4.39641 7.21129 4.70581L3.28864 11.5ZM12 15C13.6568 15 15 13.6569 15 12C15 10.3432 13.6568 9.00004 12 9.00004C10.3431 9.00004 8.99996 10.3432 8.99996 12C8.99996 13.6569 10.3431 15 12 15Z" fill="#081E39"/>
</svg>
