<svg width="24" height="24" viewBox="0 0 24 24" xmlns="http://www.w3.org/2000/svg">
<path d="M7 10C7 8.34315 8.34315 7 10 7H11C11.5523 7 12 6.55228 12 6C12 5.44772 11.5523 5 11 5H10C7.23858 5 5 7.23858 5 10V14C5 16.7614 7.23858 19 10 19H14C16.7614 19 19 16.7614 19 14V13C19 12.4477 18.5523 12 18 12C17.4477 12 17 12.4477 17 13V14C17 15.6569 15.6569 17 14 17H10C8.34315 17 7 15.6569 7 14V10Z" />
<path d="M14 6C14 5.44772 14.4477 5 15 5H18C18.5523 5 19 5.44772 19 6V9C19 9.55228 18.5523 10 18 10C17.4477 10 17 9.55228 17 9V8.41421L13.7071 11.7071C13.3166 12.0976 12.6834 12.0976 12.2929 11.7071C11.9024 11.3166 11.9024 10.6834 12.2929 10.2929L15.5858 7H15C14.4477 7 14 6.55228 14 6Z" />
</svg>
