<svg width="24" height="24" viewBox="0 0 24 24" fill="none" xmlns="http://www.w3.org/2000/svg">
<path fill-rule="evenodd" clip-rule="evenodd" d="M14.4812 8.12341C14.8462 8.32375 15.0488 8.72927 14.9899 9.14143L14.5081 12.514L16.2191 10.3753C16.448 10.0893 16.8149 9.95122 17.1756 10.0155C17.5362 10.0799 17.8328 10.3362 17.9487 10.6838L18.584 12.5899L21.5528 11.1056C22.0467 10.8586 22.6474 11.0588 22.8944 11.5528C23.1414 12.0468 22.9412 12.6474 22.4472 12.8944L18.4472 14.8944C18.1879 15.0241 17.8851 15.0348 17.6173 14.9239C17.3495 14.813 17.143 14.5913 17.0513 14.3162L16.6326 13.0601L13.7808 16.6247C13.4992 16.9768 13.0167 17.0968 12.6029 16.9178C12.1891 16.7388 11.9463 16.3049 12.01 15.8586L12.6345 11.4875L7.65077 15.7593C7.38762 15.9848 7.02646 16.058 6.69625 15.9528C6.36605 15.8475 6.11389 15.5788 6.02983 15.2425L5.33218 12.4519L2.44719 13.8944C1.95321 14.1414 1.35254 13.9412 1.10555 13.4472C0.858558 12.9532 1.05878 12.3526 1.55276 12.1056L5.55276 10.1056C5.82406 9.96993 6.14226 9.96475 6.41783 10.0915C6.6934 10.2182 6.89655 10.4632 6.97012 10.7575L7.57769 13.1878L13.3492 8.24075C13.6653 7.9698 14.1162 7.92306 14.4812 8.12341Z"/>
</svg>
