<svg width="24" height="24" viewBox="0 0 24 24" fill="none" xmlns="http://www.w3.org/2000/svg">
<path d="M12 6C10.8954 6 10 6.89543 10 8C10 8.55228 9.55228 9 9 9C8.44772 9 8 8.55228 8 8C8 5.79086 9.79086 4 12 4C14.2091 4 16 5.79086 16 8C16 9.59799 15.0583 10.6074 14.3707 11.3446C14.3241 11.3945 14.2787 11.4432 14.2348 11.4908C13.5045 12.2819 13 12.909 13 14C13 14.5523 12.5523 15 12 15C11.4477 15 11 14.5523 11 14C11 12.091 11.9955 10.9681 12.7652 10.1342C13.5736 9.25842 14 8.7937 14 8C14 6.89543 13.1046 6 12 6Z"/>
<path d="M12 20C12.8284 20 13.5 19.3284 13.5 18.5C13.5 17.6716 12.8284 17 12 17C11.1716 17 10.5 17.6716 10.5 18.5C10.5 19.3284 11.1716 20 12 20Z"/>
</svg>
