<svg width="48" height="48" viewBox="0 0 48 48" fill="none" xmlns="http://www.w3.org/2000/svg">
<path fill-rule="evenodd" clip-rule="evenodd" d="M24 48C37.2548 48 48 37.2548 48 24C48 10.7452 37.2548 0 24 0C10.7452 0 0 10.7452 0 24C0 37.2548 10.7452 48 24 48ZM34.4142 19.4142C35.1953 18.6332 35.1953 17.3668 34.4142 16.5858C33.6332 15.8047 32.3668 15.8047 31.5858 16.5858L20.8773 27.2943L16.2804 23.4636C15.4318 22.7564 14.1707 22.8711 13.4635 23.7196C12.7564 24.5682 12.8711 25.8293 13.7196 26.5364L21.1227 32.7057L34.4142 19.4142Z"/>
</svg>
