<svg width="24" height="24" viewBox="0 0 24 24" fill="none" xmlns="http://www.w3.org/2000/svg">
<path fill-rule="evenodd" clip-rule="evenodd" d="M12 22C17.5228 22 22 17.5228 22 12C22 6.47715 17.5228 2 12 2C6.47715 2 2 6.47715 2 12C2 17.5228 6.47715 22 12 22ZM12 5.5C12.2761 5.5 12.5 5.72386 12.5 6V7.0334C13.6001 7.18495 14.2344 7.81984 14.6809 8.26671L14.7071 8.29289C15.0976 8.68342 15.0976 9.31658 14.7071 9.70711C14.3166 10.0976 13.6834 10.0976 13.2929 9.70711C12.8034 9.21761 12.5603 9 12 9C11.8252 9 11.5668 9.09745 11.3321 9.33211C11.0975 9.56676 11 9.82523 11 10C11 10.1049 11.03 10.2233 11.2652 10.4193C11.5333 10.6427 11.9189 10.8414 12.4472 11.1056L12.4956 11.1298C12.9603 11.3619 13.5497 11.6563 14.0152 12.0443C14.53 12.4733 15 13.1049 15 14C15 14.8252 14.5975 15.5668 14.0821 16.0821C13.6733 16.4909 13.1223 16.8287 12.5 16.9509V18C12.5 18.2761 12.2761 18.5 12 18.5C11.7239 18.5 11.5 18.2761 11.5 18V16.9666C10.3999 16.815 9.76556 16.1802 9.31906 15.7333L9.29289 15.7071C8.90237 15.3166 8.90237 14.6834 9.29289 14.2929C9.68342 13.9024 10.3166 13.9024 10.7071 14.2929C11.1966 14.7824 11.4397 15 12 15C12.1748 15 12.4332 14.9025 12.6679 14.6679C12.9025 14.4332 13 14.1748 13 14C13 13.8951 12.97 13.7767 12.7348 13.5807C12.4667 13.3573 12.0811 13.1586 11.5528 12.8944L11.5044 12.8702C11.0397 12.6381 10.4503 12.3437 9.98482 11.9557C9.47005 11.5267 9 10.8951 9 10C9 9.17477 9.40255 8.43324 9.91789 7.91789C10.3267 7.50913 10.8777 7.17133 11.5 7.04909V6C11.5 5.72386 11.7239 5.5 12 5.5Z"/>
</svg>
