<svg width="48" height="48" viewBox="0 0 48 48" fill="none" xmlns="http://www.w3.org/2000/svg">
<path d="M27 22H31V32H19V16H25V20C25 21.1046 25.8954 22 27 22Z" fill="#003DC6"/>
<path fill-rule="evenodd" clip-rule="evenodd" d="M24 48C37.2548 48 48 37.2548 48 24C48 10.7452 37.2548 0 24 0C10.7452 0 0 10.7452 0 24C0 37.2548 10.7452 48 24 48ZM15 16C15 13.7909 16.7909 12 19 12H26.5858C27.3814 12 28.1445 12.3161 28.7071 12.8787L34.1213 18.2929C34.6839 18.8555 35 19.6186 35 20.4142V32C35 34.2091 33.2091 36 31 36H19C16.7909 36 15 34.2091 15 32V16Z" fill="#003DC6"/>
</svg>
