<svg width="24" height="24" viewBox="0 0 24 24" fill="none" xmlns="http://www.w3.org/2000/svg">
<path fill-rule="evenodd" clip-rule="evenodd" d="M11.9634 24C18.5706 24 23.9268 18.6274 23.9268 12C23.9268 5.37258 18.5706 0 11.9634 0C5.3562 0 0 5.37258 0 12C0 18.6274 5.3562 24 11.9634 24ZM12.9603 16C12.9603 16.5523 12.514 17 11.9634 17H7.9756C7.425 17 6.97865 16.5523 6.97865 16L6.97865 12C6.97865 11.4477 7.425 11 7.9756 11C8.5262 11 8.97255 11.4477 8.97255 12V13.5858L15.2463 7.29289C15.6356 6.90237 16.2668 6.90237 16.6562 7.29289C17.0455 7.68342 17.0455 8.31658 16.6562 8.70711L10.3824 15H11.9634C12.514 15 12.9603 15.4477 12.9603 16Z" fill="white"/>
</svg>
