<svg xmlns="http://www.w3.org/2000/svg" xmlns:xlink="http://www.w3.org/1999/xlink" viewBox="374 7066 94 94"><defs><style>.a,.b{fill:#fff;}.a{opacity:0;}.c{filter:url(#a);}</style><filter id="a" x="374" y="7066" width="94" height="94" filterUnits="userSpaceOnUse"><feOffset dy="5" input="SourceAlpha"/><feGaussianBlur stdDeviation="5" result="b"/><feFlood flood-opacity="0.129"/><feComposite operator="in" in2="b"/><feComposite in="SourceGraphic"/></filter></defs><g transform="translate(-187)"><g class="c" transform="matrix(1, 0, 0, 1, 187, 0)"><rect class="a" width="64" height="64" rx="32" transform="translate(389 7076)"/></g><g transform="translate(599.518 7094.037)"><path class="b" d="M12.148,3V6.111H8V26.852h4.148v3.111h2.074V26.852H16.3v3.111H18.37V26.852h1.556a5.711,5.711,0,0,0,2.722-10.727A5.718,5.718,0,0,0,18.889,6.111H18.37V3H16.3V6.111H14.222V3ZM10.074,8.185h8.815a3.63,3.63,0,0,1,0,7.259H10.074Zm0,9.333h9.852a3.63,3.63,0,0,1,0,7.259H10.074Z" transform="translate(-8 -3)"/></g></g></svg>