<svg xmlns="http://www.w3.org/2000/svg" xmlns:xlink="http://www.w3.org/1999/xlink" viewBox="8299 7105 94 94"><defs><style>.a,.b{fill:#fff;}.a{opacity:0;}.c{filter:url(#a);}</style><filter id="a" x="8299" y="7105" width="94" height="94" filterUnits="userSpaceOnUse"><feOffset dy="5" input="SourceAlpha"/><feGaussianBlur stdDeviation="5" result="b"/><feFlood flood-opacity="0.129"/><feComposite operator="in" in2="b"/><feComposite in="SourceGraphic"/></filter></defs><g transform="translate(7068)"><g class="c" transform="matrix(1, 0, 0, 1, -7068, 0)"><rect class="a" width="64" height="64" rx="32" transform="translate(8314 7115)"/></g><path class="b" d="M5.056,23.993a.326.326,0,0,1-.168-.043c-.141-.083-.117-.3-.117-.3.047-.32,1.31-4.668,1.323-4.712C2.278,17.045,0,13.8,0,10.25,0,4.6,5.832,0,13,0S26,4.6,26,10.25,20.168,20.5,13,20.5a16.516,16.516,0,0,1-2.309-.161c-1.19.838-5.1,3.575-5.493,3.63A.444.444,0,0,1,5.056,23.993ZM3.893,7.187a.734.734,0,1,0,0,1.469h1.17v4.456a.751.751,0,0,0,1.5,0V8.656h1.17a.734.734,0,1,0,0-1.469Zm14.524,0a.751.751,0,0,0-.75.75v5.131a.75.75,0,1,0,1.5,0V11.432l.26-.26,1.759,2.33a.75.75,0,0,0,1.2-.9l-1.846-2.445,1.709-1.709a.584.584,0,0,0,.166-.456.759.759,0,0,0-.736-.7.583.583,0,0,0-.417.167L19.166,9.55V7.937A.751.751,0,0,0,18.417,7.187Zm-9.31,5.326h2.286l.372.973a.615.615,0,0,0,.625.331,1.152,1.152,0,0,0,.476-.1c.207-.1.406-.358.177-1.067L11.25,7.929a1.133,1.133,0,0,0-1-.742,1.133,1.133,0,0,0-1,.741L7.457,12.65c-.228.708-.029.97.178,1.066a1.152,1.152,0,0,0,.476.1.613.613,0,0,0,.624-.331l.372-.973ZM14.3,7.187a.758.758,0,0,0-.765.75v5.094a.7.7,0,0,0,.718.688h2.407a.688.688,0,1,0,0-1.375H15.062V7.937A.759.759,0,0,0,14.3,7.187Zm-3.3,4H9.5l.749-2.128L11,11.185Z" transform="translate(1265 7135)"/></g></svg>