<svg xmlns="http://www.w3.org/2000/svg" xmlns:xlink="http://www.w3.org/1999/xlink" viewBox="824 7066 94 94"><defs><style>.a,.b{fill:#fff;}.a{opacity:0;}.c{filter:url(#a);}</style><filter id="a" x="824" y="7066" width="94" height="94" filterUnits="userSpaceOnUse"><feOffset dy="5" input="SourceAlpha"/><feGaussianBlur stdDeviation="5" result="b"/><feFlood flood-opacity="0.129"/><feComposite operator="in" in2="b"/><feComposite in="SourceGraphic"/></filter></defs><g transform="translate(-187)"><g class="c" transform="matrix(1, 0, 0, 1, 187, 0)"><rect class="a" width="64" height="64" rx="32" transform="translate(839 7076)"/></g><g transform="translate(1044.554 7094)"><path class="b" d="M18.2,3a2.35,2.35,0,0,0-.907.13A2.215,2.215,0,0,0,15.9,5.949l.94,2.755-5.315,1.782-.875-2.657A2.239,2.239,0,0,0,6.4,9.255l.875,2.625-2.755.94a2.25,2.25,0,0,0-1.394,2.852,2.215,2.215,0,0,0,2.819,1.393L8.7,16.158l1.782,5.282-2.657.875A2.239,2.239,0,0,0,9.254,26.56l2.625-.875.94,2.755a2.25,2.25,0,0,0,2.852,1.393,2.215,2.215,0,0,0,1.393-2.819l-.907-2.755,5.282-1.782.875,2.657a2.239,2.239,0,0,0,4.245-1.426l-.875-2.625,2.755-.94a2.25,2.25,0,0,0,1.393-2.852A2.215,2.215,0,0,0,27.013,15.9l-2.755.907-1.782-5.282,2.657-.875A2.239,2.239,0,0,0,23.708,6.4l-2.625.875-.94-2.755A2.235,2.235,0,0,0,18.2,3Zm.032,9.949,1.782,5.282-5.282,1.782-1.782-5.282Z" transform="translate(-3.011 -2.995)"/></g></g></svg>