<svg xmlns="http://www.w3.org/2000/svg" xmlns:xlink="http://www.w3.org/1999/xlink" viewBox="74 7066 94 94"><defs><style>.a,.b{fill:#fff;}.a{opacity:0;}.c{filter:url(#a);}</style><filter id="a" x="74" y="7066" width="94" height="94" filterUnits="userSpaceOnUse"><feOffset dy="5" input="SourceAlpha"/><feGaussianBlur stdDeviation="5" result="b"/><feFlood flood-opacity="0.129"/><feComposite operator="in" in2="b"/><feComposite in="SourceGraphic"/></filter></defs><g transform="translate(-187)"><g class="c" transform="matrix(1, 0, 0, 1, 187, 0)"><rect class="a" width="64" height="64" rx="32" transform="translate(89 7076)"/></g><g transform="translate(296 7098.185)"><path class="b" d="M28.889,8.644a10.176,10.176,0,0,1-2.933.8A5.123,5.123,0,0,0,28.2,6.623a10.288,10.288,0,0,1-3.241,1.24,5.107,5.107,0,0,0-8.835,3.492,4.993,4.993,0,0,0,.134,1.163A14.474,14.474,0,0,1,5.734,7.182,5.109,5.109,0,0,0,7.314,14,5.077,5.077,0,0,1,5,13.36v.065a5.1,5.1,0,0,0,4.1,5.007,5.083,5.083,0,0,1-1.345.182,4.978,4.978,0,0,1-.96-.093,5.115,5.115,0,0,0,4.768,3.549,10.241,10.241,0,0,1-6.34,2.183A10.124,10.124,0,0,1,4,24.18,14.52,14.52,0,0,0,26.357,11.946c0-.219-.008-.442-.016-.66A10.46,10.46,0,0,0,28.889,8.644Z" transform="translate(-4 -6.246)"/></g></g></svg>