<svg xmlns="http://www.w3.org/2000/svg" xmlns:xlink="http://www.w3.org/1999/xlink" viewBox="524 7066 94 94"><defs><style>.a,.b{fill:#fff;}.a{opacity:0;}.c{filter:url(#a);}</style><filter id="a" x="524" y="7066" width="94" height="94" filterUnits="userSpaceOnUse"><feOffset dy="5" input="SourceAlpha"/><feGaussianBlur stdDeviation="5" result="b"/><feFlood flood-opacity="0.129"/><feComposite operator="in" in2="b"/><feComposite in="SourceGraphic"/></filter></defs><g transform="translate(-187)"><g class="c" transform="matrix(1, 0, 0, 1, 187, 0)"><rect class="a" width="64" height="64" rx="32" transform="translate(539 7076)"/></g><g transform="translate(744.333 7097.148)"><path class="b" d="M16.481,6a66.653,66.653,0,0,0-9.463.713,4.109,4.109,0,0,0-3.468,3.306A35.312,35.312,0,0,0,3,16.37a35.312,35.312,0,0,0,.551,6.352,4.1,4.1,0,0,0,3.468,3.306,67.012,67.012,0,0,0,9.463.713,67.013,67.013,0,0,0,9.463-.713,4.1,4.1,0,0,0,3.468-3.306,35.427,35.427,0,0,0,.551-6.352,35.053,35.053,0,0,0-.551-6.352,4.109,4.109,0,0,0-3.468-3.306A66.653,66.653,0,0,0,16.481,6Zm0,2.074a65.459,65.459,0,0,1,9.171.681,2.039,2.039,0,0,1,1.718,1.653,33.1,33.1,0,0,1,.519,5.963,33.14,33.14,0,0,1-.519,5.963,2.03,2.03,0,0,1-1.718,1.653,65.89,65.89,0,0,1-9.171.681,65.835,65.835,0,0,1-9.171-.681,2.035,2.035,0,0,1-1.718-1.653,33.066,33.066,0,0,1-.519-5.963,33.028,33.028,0,0,1,.519-5.963A2.035,2.035,0,0,1,7.31,8.755,65.405,65.405,0,0,1,16.481,8.074ZM13.37,10.44V22.3l1.556-.875,7.259-4.148,1.556-.907-1.556-.907-7.259-4.148ZM15.444,14,19.56,16.37l-4.116,2.366Z" transform="translate(-3 -6)"/></g></g></svg>