<svg width="112" height="112" viewBox="0 0 112 112" fill="none" xmlns="http://www.w3.org/2000/svg">
<circle cx="56" cy="56" r="56" fill="#003DC6" fill-opacity="0.1"/>
<rect x="16" y="39" width="92" height="28" rx="4" fill="white"/>
<path d="M9 86.4588V83C9 81.3431 10.3431 80 12 80H71C72.6569 80 74 81.3431 74 83V98C74 99.6569 72.6569 101 71 101H22.6624C17.288 97.0119 12.6528 92.0838 9 86.4588Z" fill="white"/>
<path d="M4.07068 35C6.12687 29.9203 8.90675 25.2111 12.2825 21H47.0001C48.1046 21 49.0001 21.8954 49.0001 23V33C49.0001 34.1046 48.1046 35 47.0001 35H4.07068Z" fill="white"/>
<path d="M109.373 73C107.527 78.8004 104.762 84.1908 101.249 89H86C84.8954 89 84 88.1046 84 87V75C84 73.8954 84.8954 73 86 73H109.373Z" fill="white" fill-opacity="0.4"/>
<rect x="56" y="13" width="28" height="9" rx="2" fill="white" fill-opacity="0.6"/>
<path d="M28.3545 52.9155H30.7666V54.3247H28.3545V57.0732H26.8564V54.3247H24.4316V52.9155H26.8564V50.3447H28.3545V52.9155Z" fill="#003DC6" fill-opacity="0.2"/>
<path d="M38.1748 58H31.9604V56.9399L35.039 53.582C35.4834 53.0869 35.7986 52.6743 35.9848 52.3442C36.1753 52.0099 36.2705 51.6756 36.2705 51.3413C36.2705 50.9012 36.1456 50.5457 35.896 50.2749C35.6505 50.0041 35.3183 49.8687 34.8994 49.8687C34.4 49.8687 34.0128 50.021 33.7378 50.3257C33.4627 50.6304 33.3252 51.0472 33.3252 51.5762H31.7827C31.7827 51.0133 31.9096 50.5076 32.1635 50.0591C32.4217 49.6063 32.7877 49.255 33.2617 49.0054C33.7399 48.7557 34.29 48.6309 34.9121 48.6309C35.8092 48.6309 36.5159 48.8573 37.0322 49.3101C37.5527 49.7586 37.813 50.3807 37.813 51.1763C37.813 51.6375 37.6818 52.1221 37.4194 52.6299C37.1613 53.1335 36.736 53.7069 36.1435 54.3501L33.8838 56.7686H38.1748V58Z" fill="#003DC6" fill-opacity="0.2"/>
<path d="M40.4286 56.375C40.7164 56.375 40.9386 56.4575 41.0952 56.6226C41.2517 56.7834 41.33 56.9865 41.33 57.2319C41.33 57.4731 41.2517 57.6742 41.0952 57.835C40.9386 57.9915 40.7164 58.0698 40.4286 58.0698C40.1536 58.0698 39.9356 57.9915 39.7748 57.835C39.614 57.6784 39.5336 57.4774 39.5336 57.2319C39.5336 56.9865 39.6119 56.7834 39.7685 56.6226C39.9251 56.4575 40.1451 56.375 40.4286 56.375Z" fill="#003DC6" fill-opacity="0.2"/>
<path d="M49.0429 54.1089C49.0429 55.4377 48.7932 56.4406 48.2939 57.1177C47.7987 57.7905 47.0434 58.127 46.0277 58.127C45.029 58.127 44.2758 57.799 43.768 57.1431C43.2644 56.4829 43.0063 55.5075 42.9936 54.2168V52.6172C42.9936 51.2884 43.2411 50.2918 43.7362 49.6274C44.2356 48.9631 44.9952 48.6309 46.015 48.6309C47.0264 48.6309 47.7797 48.9546 48.2748 49.6021C48.7742 50.2495 49.0302 51.2186 49.0429 52.5093V54.1089ZM47.5004 52.3823C47.5004 51.5148 47.3819 50.88 47.1449 50.478C46.9079 50.0718 46.5313 49.8687 46.015 49.8687C45.5115 49.8687 45.1412 50.0612 44.9042 50.4463C44.6672 50.8271 44.5424 51.4238 44.5297 52.2363V54.3311C44.5297 55.1943 44.6503 55.8376 44.8915 56.2607C45.1327 56.6839 45.5115 56.8955 46.0277 56.8955C46.5229 56.8955 46.8889 56.7008 47.1259 56.3115C47.3629 55.918 47.4877 55.3044 47.5004 54.4707V52.3823Z" fill="#003DC6" fill-opacity="0.2"/>
<path d="M56.6415 58H50.4271V56.9399L53.5057 53.582C53.9501 53.0869 54.2653 52.6743 54.4515 52.3442C54.642 52.0099 54.7372 51.6756 54.7372 51.3413C54.7372 50.9012 54.6123 50.5457 54.3627 50.2749C54.1172 50.0041 53.785 49.8687 53.3661 49.8687C52.8667 49.8687 52.4795 50.021 52.2045 50.3257C51.9294 50.6304 51.7919 51.0472 51.7919 51.5762H50.2494C50.2494 51.0133 50.3763 50.5076 50.6302 50.0591C50.8884 49.6063 51.2544 49.255 51.7284 49.0054C52.2066 48.7557 52.7567 48.6309 53.3788 48.6309C54.2759 48.6309 54.9826 48.8573 55.4989 49.3101C56.0194 49.7586 56.2797 50.3807 56.2797 51.1763C56.2797 51.6375 56.1485 52.1221 55.8861 52.6299C55.628 53.1335 55.2027 53.7069 54.6102 54.3501L52.3505 56.7686H56.6415V58Z" fill="#003DC6" fill-opacity="0.2"/>
<path d="M62.2088 54.1343C61.6926 54.6802 61.0895 54.9531 60.3997 54.9531C59.5872 54.9531 58.9398 54.6696 58.4574 54.1025C57.9749 53.5312 57.7337 52.7822 57.7337 51.8555C57.7337 51.2461 57.8565 50.6938 58.1019 50.1987C58.3473 49.7036 58.6965 49.3185 59.1493 49.0435C59.6021 48.7684 60.1268 48.6309 60.7235 48.6309C61.6545 48.6309 62.3929 48.9779 62.9388 49.6719C63.4847 50.3659 63.7577 51.2948 63.7577 52.4585V52.8901C63.7577 54.5575 63.381 55.8291 62.6278 56.7051C61.8745 57.5811 60.751 58.0254 59.2572 58.0381H59.0731V56.7622H59.2953C60.2051 56.7495 60.9033 56.5316 61.39 56.1084C61.8766 55.681 62.1496 55.0229 62.2088 54.1343ZM60.7235 53.7471C61.0324 53.7471 61.3223 53.6582 61.5931 53.4805C61.8639 53.3027 62.0734 53.0573 62.2215 52.7441V52.1411C62.2215 51.4598 62.0819 50.9118 61.8026 50.4971C61.5233 50.0824 61.1615 49.875 60.7171 49.875C60.2728 49.875 59.9173 50.0591 59.6507 50.4272C59.3884 50.7912 59.2572 51.2524 59.2572 51.811C59.2572 52.3908 59.3905 52.8584 59.6571 53.2139C59.9237 53.5693 60.2791 53.7471 60.7235 53.7471Z" fill="#003DC6" fill-opacity="0.2"/>
<path d="M71.4578 58H65.2435V56.9399L68.3221 53.582C68.7664 53.0869 69.0817 52.6743 69.2679 52.3442C69.4583 52.0099 69.5535 51.6756 69.5535 51.3413C69.5535 50.9012 69.4287 50.5457 69.179 50.2749C68.9336 50.0041 68.6014 49.8687 68.1824 49.8687C67.6831 49.8687 67.2959 50.021 67.0208 50.3257C66.7457 50.6304 66.6082 51.0472 66.6082 51.5762H65.0657C65.0657 51.0133 65.1927 50.5076 65.4466 50.0591C65.7047 49.6063 66.0708 49.255 66.5447 49.0054C67.0229 48.7557 67.5731 48.6309 68.1951 48.6309C69.0923 48.6309 69.799 48.8573 70.3152 49.3101C70.8358 49.7586 71.096 50.3807 71.096 51.1763C71.096 51.6375 70.9648 52.1221 70.7024 52.6299C70.4443 53.1335 70.019 53.7069 69.4266 54.3501L67.1668 56.7686H71.4578V58Z" fill="#003DC6" fill-opacity="0.2"/>
<path d="M79.9392 48.7578H81.5388V55.2388C81.5388 56.1232 81.2616 56.8257 80.7073 57.3462C80.1571 57.8667 79.4293 58.127 78.5237 58.127C77.5588 58.127 76.814 57.8836 76.2893 57.397C75.7646 56.9103 75.5022 56.2332 75.5022 55.3657H77.1018C77.1018 55.8566 77.2224 56.2269 77.4636 56.4766C77.7091 56.722 78.0624 56.8447 78.5237 56.8447C78.9553 56.8447 79.2981 56.703 79.552 56.4194C79.8101 56.1317 79.9392 55.736 79.9392 55.2324V48.7578Z" fill="#003DC6" fill-opacity="0.2"/>
<path d="M90.7307 58H89.1247L85.0051 51.4429V58H83.3991V48.7578H85.0051L89.1374 55.3403V48.7578H90.7307V58Z" fill="#003DC6" fill-opacity="0.2"/>
<path d="M99.1354 50.0527H96.2536V58H94.6603V50.0527H91.8039V48.7578H99.1354V50.0527Z" fill="#003DC6" fill-opacity="0.2"/>
<path d="M18.3496 90.0889H20.2051V91.1729H18.3496V93.2871H17.1973V91.1729H15.332V90.0889H17.1973V88.1113H18.3496V90.0889Z" fill="#003DC6" fill-opacity="0.2"/>
<path d="M25.9037 94H21.1234V93.1846L23.4916 90.6016C23.8334 90.2207 24.0759 89.9033 24.2191 89.6494C24.3656 89.3923 24.4388 89.1351 24.4388 88.8779C24.4388 88.5394 24.3428 88.266 24.1507 88.0576C23.9619 87.8493 23.7064 87.7451 23.3841 87.7451C23 87.7451 22.7022 87.8623 22.4906 88.0967C22.279 88.3311 22.1732 88.6517 22.1732 89.0586H20.9867C20.9867 88.6257 21.0843 88.2367 21.2796 87.8916C21.4782 87.5433 21.7598 87.2731 22.1244 87.0811C22.4922 86.889 22.9154 86.793 23.3939 86.793C24.084 86.793 24.6276 86.9671 25.0248 87.3154C25.4252 87.6605 25.6254 88.139 25.6254 88.751C25.6254 89.1058 25.5244 89.4785 25.3226 89.8691C25.124 90.2565 24.7969 90.6976 24.3412 91.1924L22.6029 93.0527H25.9037V94Z" fill="#003DC6" fill-opacity="0.2"/>
<path d="M31.5534 87.5498L28.7116 94H27.4665L30.3034 87.8428H26.6267V86.8906H31.5534V87.5498Z" fill="#003DC6" fill-opacity="0.2"/>
<path d="M33.336 92.75C33.5574 92.75 33.7283 92.8135 33.8487 92.9404C33.9692 93.0641 34.0294 93.2204 34.0294 93.4092C34.0294 93.5947 33.9692 93.7493 33.8487 93.873C33.7283 93.9935 33.5574 94.0537 33.336 94.0537C33.1244 94.0537 32.9568 93.9935 32.8331 93.873C32.7094 93.7526 32.6475 93.598 32.6475 93.4092C32.6475 93.2204 32.7078 93.0641 32.8282 92.9404C32.9486 92.8135 33.1179 92.75 33.336 92.75Z" fill="#003DC6" fill-opacity="0.2"/>
<path d="M39.9623 91.0068C39.9623 92.029 39.7703 92.8005 39.3862 93.3213C39.0053 93.8389 38.4243 94.0977 37.643 94.0977C36.8748 94.0977 36.2954 93.8454 35.9047 93.3408C35.5174 92.833 35.3188 92.0827 35.309 91.0898V89.8594C35.309 88.8372 35.4995 88.0706 35.8803 87.5596C36.2644 87.0485 36.8487 86.793 37.6332 86.793C38.4112 86.793 38.9907 87.042 39.3715 87.54C39.7556 88.0381 39.9526 88.7835 39.9623 89.7764V91.0068ZM38.7758 89.6787C38.7758 89.0114 38.6847 88.5231 38.5024 88.2139C38.3201 87.9014 38.0304 87.7451 37.6332 87.7451C37.2459 87.7451 36.961 87.8932 36.7787 88.1895C36.5965 88.4824 36.5004 88.9414 36.4907 89.5664V91.1777C36.4907 91.8418 36.5834 92.3366 36.769 92.6621C36.9545 92.9876 37.2459 93.1504 37.643 93.1504C38.0239 93.1504 38.3054 93.0007 38.4877 92.7012C38.67 92.3984 38.7661 91.9264 38.7758 91.2852V89.6787Z" fill="#003DC6" fill-opacity="0.2"/>
<path d="M45.0408 91.4658H45.9246V92.418H45.0408V94H43.8543V92.418H40.783L40.7488 91.6953L43.8152 86.8906H45.0408V91.4658ZM41.9939 91.4658H43.8543V88.4971L43.7664 88.6533L41.9939 91.4658Z" fill="#003DC6" fill-opacity="0.2"/>
<path d="M53.5767 90.8262H50.6568V93.0137H54.0698V94H49.4214V86.8906H54.0357V87.8867H50.6568V89.8496H53.5767V90.8262Z" fill="#003DC6" fill-opacity="0.2"/>
<path d="M60.3251 87.8867H58.1083V94H56.8827V87.8867H54.6854V86.8906H60.3251V87.8867Z" fill="#003DC6" fill-opacity="0.2"/>
<path d="M66.9221 94H65.6916V90.8408H62.5129V94H61.2776V86.8906H62.5129V89.8496H65.6916V86.8906H66.9221V94Z" fill="#003DC6" fill-opacity="0.2"/>
<path d="M7.57837 27.8508C7.88519 27.3242 8.20035 26.803 8.52368 26.2874V31H7.57837V27.8508Z" fill="#003DC6" fill-opacity="0.2"/>
<path fill-rule="evenodd" clip-rule="evenodd" d="M25.5834 28.6055C25.5834 29.4232 25.4298 30.0404 25.1225 30.457C24.8178 30.8711 24.3529 31.0781 23.7279 31.0781C23.1133 31.0781 22.6498 30.8763 22.3373 30.4727C22.0274 30.0664 21.8686 29.4661 21.8607 28.6719V27.6875C21.8607 26.8698 22.0131 26.2565 22.3178 25.8477C22.6251 25.4388 23.0925 25.2344 23.7201 25.2344C24.3425 25.2344 24.8061 25.4336 25.1107 25.832C25.418 26.2305 25.5756 26.8268 25.5834 27.6211V28.6055ZM24.6342 27.543C24.6342 27.0091 24.5613 26.6185 24.4154 26.3711C24.2696 26.1211 24.0378 25.9961 23.7201 25.9961C23.4102 25.9961 23.1824 26.1146 23.0365 26.3516C22.8907 26.5859 22.8139 26.9531 22.8061 27.4531V28.7422C22.8061 29.2734 22.8803 29.6693 23.0287 29.9297C23.1771 30.1901 23.4102 30.3203 23.7279 30.3203C24.0326 30.3203 24.2579 30.2005 24.4037 29.9609C24.5495 29.7188 24.6264 29.3411 24.6342 28.8281V27.543Z" fill="#003DC6" fill-opacity="0.2"/>
<path d="M11.0747 25.3125L10.7662 28.1797L11.524 28.3672C11.6646 28.2344 11.7948 28.1458 11.9146 28.1016C12.0344 28.0547 12.1802 28.0312 12.3521 28.0312C12.6672 28.0312 12.9146 28.1328 13.0943 28.3359C13.274 28.5365 13.3638 28.8099 13.3638 29.1562C13.3638 29.5156 13.2818 29.7995 13.1177 30.0078C12.9563 30.2161 12.7297 30.3203 12.438 30.3203C12.1776 30.3203 11.9667 30.2474 11.8052 30.1016C11.6438 29.9531 11.5448 29.7409 11.5083 29.4648H10.5904C10.619 29.9492 10.8039 30.3398 11.1451 30.6367C11.4888 30.931 11.9211 31.0781 12.4419 31.0781C13.0227 31.0781 13.4797 30.9076 13.813 30.5664C14.1464 30.2227 14.313 29.7617 14.313 29.1836C14.313 28.5977 14.162 28.1315 13.8599 27.7852C13.5604 27.4388 13.1398 27.2656 12.5982 27.2656C12.2675 27.2656 11.9706 27.3411 11.7076 27.4922L11.8638 26.1328H14.1294V25.3125H11.0747Z" fill="#003DC6" fill-opacity="0.2"/>
<path d="M15.7235 30C15.9005 30 16.0373 30.0508 16.1336 30.1523C16.23 30.2513 16.2782 30.3763 16.2782 30.5273C16.2782 30.6758 16.23 30.7995 16.1336 30.8984C16.0373 30.9948 15.9005 31.043 15.7235 31.043C15.5542 31.043 15.4201 30.9948 15.3211 30.8984C15.2222 30.8021 15.1727 30.6784 15.1727 30.5273C15.1727 30.3763 15.2209 30.2513 15.3172 30.1523C15.4136 30.0508 15.549 30 15.7235 30Z" fill="#003DC6" fill-opacity="0.2"/>
<path d="M18.9425 31H19.8878V25.293H19.7667L17.548 26.1094V26.9102L18.9425 26.4336V31Z" fill="#003DC6" fill-opacity="0.2"/>
<path d="M29.5801 28.4609H31.916V27.6797H29.5801V26.1094H32.2832V25.3125H28.5918V31H32.3105V30.2109H29.5801V28.4609Z" fill="#003DC6" fill-opacity="0.2"/>
<path fill-rule="evenodd" clip-rule="evenodd" d="M37.6663 28.3047C37.6663 28.862 37.5699 29.3516 37.3772 29.7734C37.1845 30.1927 36.9085 30.5156 36.5491 30.7422C36.1923 30.9661 35.7809 31.0781 35.3147 31.0781C34.8538 31.0781 34.4423 30.9661 34.0803 30.7422C33.721 30.5156 33.4423 30.194 33.2444 29.7773C33.0491 29.3607 32.9501 28.8802 32.9475 28.3359V28.0156C32.9475 27.4609 33.0452 26.9714 33.2405 26.5469C33.4384 26.1224 33.7158 25.7982 34.0725 25.5742C34.4319 25.3477 34.8434 25.2344 35.3069 25.2344C35.7704 25.2344 36.1806 25.3464 36.5374 25.5703C36.8967 25.7917 37.1741 26.112 37.3694 26.5312C37.5647 26.9479 37.6637 27.4336 37.6663 27.9883V28.3047ZM36.678 28.0078C36.678 27.3776 36.5582 26.8945 36.3186 26.5586C36.0816 26.2227 35.7444 26.0547 35.3069 26.0547C34.8798 26.0547 34.5452 26.2227 34.303 26.5586C34.0634 26.8919 33.941 27.3646 33.9358 27.9766V28.3047C33.9358 28.9297 34.0569 29.4128 34.2991 29.7539C34.5439 30.0951 34.8824 30.2656 35.3147 30.2656C35.7522 30.2656 36.0882 30.099 36.3225 29.7656C36.5595 29.4323 36.678 28.9453 36.678 28.3047V28.0078Z" fill="#003DC6" fill-opacity="0.2"/>
<path d="M41.3697 28.957C41.5468 29.0924 41.6353 29.2852 41.6353 29.5352C41.6353 29.7643 41.5481 29.9492 41.3736 30.0898C41.2017 30.2279 40.9439 30.2969 40.6002 30.2969C40.2017 30.2969 39.8957 30.2083 39.6822 30.0312C39.4686 29.8542 39.3619 29.6042 39.3619 29.2812H38.3736C38.3736 29.638 38.4686 29.9505 38.6587 30.2188C38.8515 30.487 39.1197 30.6979 39.4634 30.8516C39.8098 31.0026 40.1887 31.0781 40.6002 31.0781C41.2225 31.0781 41.7147 30.9388 42.0767 30.6602C42.4413 30.3789 42.6236 30.0013 42.6236 29.5273C42.6236 29.2357 42.5611 28.9818 42.4361 28.7656C42.3111 28.5469 42.1145 28.3542 41.8462 28.1875C41.578 28.0182 41.2225 27.8685 40.7798 27.7383C40.3371 27.6055 40.0194 27.4701 39.8267 27.332C39.634 27.1914 39.5377 27.0169 39.5377 26.8086C39.5377 26.5612 39.6262 26.3685 39.8033 26.2305C39.983 26.0924 40.2343 26.0234 40.5572 26.0234C40.9035 26.0234 41.1692 26.1081 41.3541 26.2773C41.5416 26.444 41.6353 26.6758 41.6353 26.9727H42.6197C42.6197 26.6445 42.5311 26.3464 42.3541 26.0781C42.177 25.8073 41.9335 25.599 41.6236 25.4531C41.3137 25.3073 40.9608 25.2344 40.565 25.2344C39.9686 25.2344 39.483 25.3828 39.108 25.6797C38.7356 25.9766 38.5494 26.3542 38.5494 26.8125C38.5494 27.3359 38.8085 27.7604 39.3267 28.0859C39.5975 28.2552 39.9621 28.4089 40.4205 28.5469C40.8788 28.6849 41.1952 28.8216 41.3697 28.957Z" fill="#003DC6" fill-opacity="0.2"/>
</svg>
