<svg width="112" height="112" viewBox="0 0 112 112" fill="none" xmlns="http://www.w3.org/2000/svg">
<circle cx="56" cy="56" r="56" fill="#003DC6" fill-opacity="0.1"/>
<circle cx="87.3796" cy="65.6553" r="2.41379" fill="white" fill-opacity="0.5"/>
<path d="M0 56.0001C5.45332e-07 52.7317 0.279997 49.5287 0.817312 46.4138C3.09425 46.8021 4.82754 48.7849 4.82754 51.1725C4.82754 53.8387 2.66618 56.0001 0 56.0001Z" fill="white"/>
<path d="M56.8839 0.00683651C55.7363 2.83394 52.963 4.82758 49.724 4.82758C47.0652 4.82758 44.7201 3.4842 43.3306 1.43916C47.4016 0.497632 51.6426 0 55.9998 0C56.295 0 56.5897 0.00228441 56.8839 0.00683651Z" fill="white" fill-opacity="0.3"/>
<circle cx="17.6207" cy="77.9654" r="3.62069" fill="white" fill-opacity="0.2"/>
<path d="M18.3452 97.4509C18.3808 94.8153 20.5283 92.6897 23.1724 92.6897C25.8386 92.6897 27.9999 94.8511 27.9999 97.5173C27.9999 99.779 26.4446 101.677 24.3451 102.201C22.2366 100.754 20.2321 99.166 18.3452 97.4509Z" fill="white" fill-opacity="0.3"/>
<circle cx="62.7588" cy="32.3447" r="6.27586" fill="white" fill-opacity="0.4"/>
<path fill-rule="evenodd" clip-rule="evenodd" d="M111.159 65.7215C110.469 65.3704 109.689 65.1724 108.862 65.1724C106.062 65.1724 103.793 67.4418 103.793 70.2413C103.793 72.9476 105.914 75.1586 108.584 75.3028C108.9 74.442 109.196 73.5714 109.47 72.6913L109.09 72.9026L109.343 72.1422H109.638C109.669 72.0409 109.699 71.9395 109.729 71.8379H109.47L109.926 70.4693L110.057 70.6766C110.095 70.5346 110.133 70.3923 110.171 70.2498L110.053 70.0639L110.256 69.4809L110.313 69.6971C110.641 68.3895 110.924 67.0638 111.159 65.7215ZM108.659 68.3658V67.4534L107.493 68.9487L107.772 69.7344L108.659 68.3658ZM109.115 71.838H108.482L107.899 70.1399L108.811 68.6953L109.698 70.1146L109.115 71.838ZM107.544 70.0892L107.341 69.4809L106.936 71.0523L107.544 70.0892ZM108.963 67.4534L110.104 68.9487L109.85 69.7344L108.963 68.3658V67.4534ZM106.834 71.8379L107.696 70.4693L108.152 71.8379H106.834ZM108.532 72.9026L107.164 72.1422H108.254L108.532 72.9026ZM109.014 72.1422L108.811 72.7505L108.609 72.1422H109.014Z" fill="white"/>
<path d="M38.4248 68.7465L36.6768 69.9939C37.0311 70.5016 37.5026 70.9166 38.0512 71.2036C38.5999 71.4905 39.2096 71.6411 39.8287 71.6425C40.2467 71.642 40.662 71.5759 41.0594 71.4465C41.8556 71.2022 42.5514 70.7068 43.0428 70.0343C43.5341 69.3619 43.7947 68.5484 43.7855 67.7156V66.1942C43.9703 66.2861 44.1617 66.3642 44.358 66.4279C44.7552 66.5561 45.1699 66.6218 45.5873 66.6226C46.2072 66.6219 46.8177 66.4717 47.3671 66.1847C47.9165 65.8976 48.3885 65.4823 48.7431 64.9739L46.9906 63.7238C46.7733 64.0293 46.4645 64.2577 46.1089 64.376C45.7532 64.4944 45.3691 64.4966 45.0121 64.3823C44.6552 64.2679 44.3438 64.043 44.123 63.7401C43.9023 63.4371 43.7836 63.0718 43.7842 62.697V58.3456H41.6306V67.7117C41.6318 68.0869 41.5136 68.4528 41.2931 68.7564C41.0726 69.06 40.7612 69.2856 40.404 69.4005C40.0468 69.5154 39.6623 69.5137 39.3062 69.3956C38.9511 69.2779 38.6425 69.0506 38.4248 68.7465Z" fill="white"/>
<path fill-rule="evenodd" clip-rule="evenodd" d="M42.9653 86.4139C54.9633 86.4139 64.6895 76.6876 64.6895 64.6897C64.6895 52.6918 54.9633 42.9656 42.9653 42.9656C30.9674 42.9656 21.2412 52.6918 21.2412 64.6897C21.2412 76.6876 30.9674 86.4139 42.9653 86.4139ZM40.3805 78.1333C41.0893 78.5413 41.8928 78.7562 42.7106 78.7564C43.5309 78.7551 44.3363 78.538 45.046 78.1268L52.9349 73.5742C53.6406 73.1631 54.2262 72.5743 54.6335 71.8664C55.0407 71.1585 55.2553 70.3562 55.256 69.5395V60.4382C55.2537 59.62 55.0368 58.8167 54.6267 58.1087C54.2166 57.4006 53.6279 56.8127 52.9193 56.4036L45.0356 51.86C44.3275 51.4507 43.524 51.2352 42.7061 51.2352C41.8882 51.2352 41.0847 51.4507 40.3766 51.86L32.4877 56.4152C31.7828 56.8249 31.1973 57.4119 30.7895 58.1179C30.3816 58.8238 30.1655 59.6242 30.1627 60.4395V69.5395C30.1632 70.3579 30.3786 71.1617 30.7873 71.8707C31.196 72.5796 31.7837 73.1688 32.4916 73.5794L40.3805 78.1333Z" fill="white"/>
<path fill-rule="evenodd" clip-rule="evenodd" d="M92.2413 13.3069C100.565 20.38 106.794 29.8443 109.867 40.6381C106.689 45.2515 101.37 48.2758 95.3448 48.2758C85.6132 48.2758 77.7241 40.3868 77.7241 30.6551C77.7241 21.9824 83.9897 14.7731 92.2413 13.3069ZM89.1779 32.4879L95.2973 36.6771L101.512 32.4879L95.2973 41.2268L89.1779 32.4879ZM89.488 30.1308L95.2973 20.0828L101.2 30.1308L95.2973 34.1901L89.488 30.1308Z" fill="white"/>
<path fill-rule="evenodd" clip-rule="evenodd" d="M68.9872 110.486C68.4671 104.837 63.7156 100.414 57.9309 100.414C51.887 100.414 46.9709 105.243 46.8306 111.253C49.4609 111.686 52.153 111.936 54.8933 111.989C55.2626 111.903 55.68 111.858 56.142 111.858C56.6763 111.862 57.2096 111.901 57.7388 111.974C61.5993 111.856 65.3615 111.347 68.9872 110.486ZM56.245 110.906H56.2121C55.8747 110.906 55.5379 110.936 55.2057 110.995C55.3314 109.741 55.9169 108.579 56.8492 107.731C57.7815 106.884 58.9945 106.412 60.2542 106.407C61.953 106.407 62.9274 107.277 62.9274 108.792C62.9274 110.307 61.7582 111.176 59.7196 111.176C59.1383 111.172 58.5579 111.127 57.9828 111.041C57.4075 110.955 56.8267 110.91 56.245 110.906Z" fill="white"/>
<path fill-rule="evenodd" clip-rule="evenodd" d="M8.95361 25.6129C11.6924 29.1225 15.962 31.3792 20.7588 31.3792C29.024 31.3792 35.7243 24.6789 35.7243 16.4137C35.7243 12.2387 34.0147 8.46305 31.2574 5.74854C28.1641 7.27452 25.2321 9.07771 22.4937 11.1257C22.2891 11.5288 21.909 11.8278 21.454 11.9223C20.6651 12.5415 19.8932 13.1814 19.1392 13.8412C19.4822 13.9802 19.9009 14.0198 20.4079 13.8793C20.4526 13.8576 20.5003 13.8425 20.5493 13.8344H20.5568C20.7168 13.7998 20.883 13.8074 21.0391 13.8565C21.1952 13.9056 21.3359 13.9945 21.4472 14.1145C21.5585 14.2345 21.6367 14.3813 21.6741 14.5407C21.7114 14.7 21.7067 14.8663 21.6603 15.0233C21.6139 15.1802 21.5274 15.3224 21.4094 15.4358C21.2913 15.5492 21.1458 15.6299 20.9872 15.67C20.8285 15.7101 20.6621 15.7082 20.5044 15.6645C20.3467 15.6208 20.203 15.5368 20.0876 15.4207C20.02 15.352 19.9623 15.2742 19.9163 15.1895V15.1865C19.9163 15.1865 19.5814 14.4827 18.5886 14.3294C17.4428 15.3587 16.3398 16.4346 15.2824 17.5541C15.4354 17.5352 15.5903 17.5318 15.7449 17.5442C16.0954 17.5724 16.4347 17.6813 16.7361 17.8623C16.7361 17.8623 18.829 19.091 19.8714 17.2517C19.8863 17.206 19.9091 17.1632 19.9387 17.1253V17.1178C20.0278 16.9803 20.151 16.8682 20.2964 16.7927C20.4418 16.7171 20.6043 16.6806 20.7681 16.6867C20.9318 16.6929 21.0912 16.7414 21.2305 16.8277C21.3698 16.9139 21.4843 17.0349 21.5628 17.1787C21.6413 17.3225 21.6811 17.4843 21.6783 17.6481C21.6755 17.8119 21.6302 17.9722 21.5468 18.1133C21.4634 18.2543 21.3448 18.3713 21.2026 18.4527C21.0604 18.5341 20.8995 18.5772 20.7356 18.5777C20.6396 18.578 20.5441 18.5628 20.4528 18.5328C20.4528 18.5328 18.8365 17.9641 17.7523 20.4589C17.7099 20.5975 17.6551 20.732 17.5884 20.8607V20.8682C17.3975 21.2392 17.1079 21.5504 16.7513 21.7672C16.3948 21.984 15.9853 22.0981 15.568 22.0968C15.2164 22.0978 14.8693 22.0173 14.5539 21.8618C14.2385 21.7063 13.9634 21.48 13.75 21.2005C13.5366 20.921 13.3907 20.596 13.3238 20.2508C13.2941 20.0978 13.2803 19.9427 13.2823 19.7878C11.7184 21.6308 10.2717 23.5763 8.95361 25.6129ZM25.1072 19.4015C26.8388 19.4015 28.2425 17.9978 28.2425 16.2662C28.2425 14.5346 26.8388 13.1309 25.1072 13.1309C23.3757 13.1309 21.972 14.5346 21.972 16.2662C21.972 17.9978 23.3757 19.4015 25.1072 19.4015ZM21.1451 23.6082C21.9799 23.6082 22.6566 22.9315 22.6566 22.0967C22.6566 21.2619 21.9799 20.5852 21.1451 20.5852C20.3103 20.5852 19.6336 21.2619 19.6336 22.0967C19.6336 22.9315 20.3103 23.6082 21.1451 23.6082Z" fill="white"/>
<path fill-rule="evenodd" clip-rule="evenodd" d="M82.3105 94.6207C88.8427 94.6207 94.1381 89.3254 94.1381 82.7932C94.1381 76.261 88.8427 70.9656 82.3105 70.9656C75.7783 70.9656 70.4829 76.261 70.4829 82.7932C70.4829 89.3254 75.7783 94.6207 82.3105 94.6207ZM82.173 88.7069L82.186 88.6939L82.199 88.7069L86.1808 84.7251L84.7331 83.2768L82.186 85.8239L79.639 83.2768L78.1913 84.7251L82.173 88.7069ZM86.8065 81.2023L85.3588 82.6506L86.8065 84.0988L88.2547 82.6506L86.8065 81.2023ZM82.1985 81.2023L80.7508 82.6506L82.1985 84.0988L83.6467 82.6506L82.1985 81.2023ZM77.591 81.2023L76.1433 82.6506L77.591 84.0988L79.0393 82.6506L77.591 81.2023ZM79.639 82.0509L82.186 79.5038L84.7355 82.0509L86.1832 80.6026L82.2014 76.6208L82.1884 76.6339L82.1754 76.6208L78.1913 80.6026L79.639 82.0509Z" fill="white"/>
<path fill-rule="evenodd" clip-rule="evenodd" d="M50.2068 25.5862C52.3398 25.5862 54.0689 23.8571 54.0689 21.7241C54.0689 19.5912 52.3398 17.8621 50.2068 17.8621C48.0738 17.8621 46.3447 19.5912 46.3447 21.7241C46.3447 23.8571 48.0738 25.5862 50.2068 25.5862ZM51.2731 19.9009C50.9494 19.7031 50.5772 19.599 50.1979 19.6001C49.8918 19.6003 49.5892 19.6651 49.3097 19.7901C49.0303 19.9151 48.7804 20.0976 48.5762 20.3257L49.0698 20.9275C49.2045 20.7252 49.3941 20.5656 49.6163 20.4673L49.9689 20.8037L50.5505 20.3966L51.2731 19.9009ZM48.3823 20.6444C48.1852 20.97 48.0815 21.3436 48.0827 21.7242C48.0827 22.0311 48.1472 22.3346 48.2718 22.6151C48.3964 22.8956 48.5785 23.1469 48.8062 23.3526L49.4048 22.8569C49.2031 22.7213 49.0441 22.5309 48.9466 22.3081L49.2814 21.9542L48.8759 21.37L48.3823 20.6444ZM49.1227 23.5475C49.4464 23.7453 49.8186 23.8494 50.1979 23.8483C50.504 23.8481 50.8067 23.7834 51.0862 23.6584C51.3656 23.5334 51.6156 23.3509 51.8198 23.1228L51.3262 22.5209C51.1915 22.7232 51.0019 22.8828 50.7797 22.9811L50.4271 22.6447L49.8455 23.0518L49.1227 23.5475ZM51.5199 22.0782L52.0131 22.804C52.2103 22.471 52.3201 22.0933 52.3309 21.7064C52.3315 21.4002 52.2655 21.0976 52.1375 20.8194C52.0095 20.5413 51.8226 20.2943 51.5896 20.0956L50.991 20.5913C51.1928 20.727 51.3517 20.9173 51.4492 21.1401L51.1144 21.494L51.5199 22.0782Z" fill="white"/>
</svg>
