<svg width="112" height="112" viewBox="0 0 112 112" fill="none" xmlns="http://www.w3.org/2000/svg">
<circle cx="56" cy="56" r="56" fill="#003DC6" fill-opacity="0.1"/>
<path d="M55.1233 11.556C55.4684 10.8078 56.5317 10.8078 56.8768 11.556L59.315 16.8419C59.4556 17.1469 59.7446 17.3568 60.0781 17.3963L65.8588 18.0817C66.677 18.1788 67.0055 19.19 66.4006 19.7494L62.1268 23.7017C61.8803 23.9297 61.7699 24.2694 61.8353 24.5988L62.9698 30.3084C63.1304 31.1165 62.2702 31.7415 61.5512 31.339L56.4717 28.4957C56.1787 28.3317 55.8215 28.3317 55.5285 28.4957L50.4489 31.339C49.73 31.7415 48.8697 31.1165 49.0303 30.3084L50.1648 24.5988C50.2302 24.2694 50.1198 23.9297 49.8733 23.7017L45.5995 19.7494C44.9946 19.19 45.3232 18.1788 46.1413 18.0817L51.9221 17.3963C52.2555 17.3568 52.5445 17.1469 52.6851 16.8419L55.1233 11.556Z" fill="white"/>
<path d="M88.9949 101.252C79.7413 108.011 68.3364 112 55.9999 112C43.6633 112 32.2585 108.011 23.0049 101.252C26.5571 96.3497 31.2007 92.2717 36.5847 89.3651C38.333 88.4212 40.4284 88.6323 42.2126 89.5064C46.3741 91.5451 51.0533 92.6897 55.9999 92.6897C60.9464 92.6897 65.6256 91.5451 69.7871 89.5064C71.5713 88.6323 73.6667 88.4212 75.4151 89.3651C80.7991 92.2717 85.4426 96.3497 88.9949 101.252Z" fill="white"/>
<path d="M72.3557 88.7712C71.6492 97.1849 64.5964 103.793 56.0001 103.793C47.4039 103.793 40.3511 97.1849 39.6445 88.7712C40.5237 88.8479 41.4006 89.1084 42.2129 89.5064C46.3744 91.5451 51.0536 92.6897 56.0001 92.6897C60.9467 92.6897 65.6259 91.5451 69.7874 89.5064C70.5997 89.1084 71.4765 88.8479 72.3557 88.7712Z" fill="#003DC6" fill-opacity="0.05"/>
<circle cx="56" cy="61.3103" r="19.3103" fill="white"/>
</svg>
