<svg xmlns="http://www.w3.org/2000/svg" id="icon-copy" viewBox="0 0 24 24">
    <defs>
        <style>
            .cls-1{fill:none}.cls-2{fill:#00c1ff}
        </style>
    </defs>
    <g id="Frame_-_24px">
        <path id="Rectangle_9701" d="M0 0h24v24H0z" class="cls-1" data-name="Rectangle 9701"/>
    </g>
    <g id="Line_Icons">
        <g id="Group_6809" data-name="Group 6809">
            <path id="Path_16439" d="M13 8V6a1 1 0 0 0-1-1h-1V4h3v4h2V4a2 2 0 0 0-2-2h-3V1a1 1 0 0 0-1-1H6a1 1 0 0 0-1 1v1H2a2 2 0 0 0-2 2v14a2 2 0 0 0 2 2h8v-2H2V4h3v1H4a1 1 0 0 0-1 1v10a1 1 0 0 0 1 1h6v-2H5V7h6v1zM9 5H7V2h2z" class="cls-2" data-name="Path 16439"/>
            <path id="Path_16440" d="M23 10H13a1 1 0 0 0-1 1v12a1 1 0 0 0 1 1h10a1 1 0 0 0 1-1V11a1 1 0 0 0-1-1zm-1 12h-8V12h8z" class="cls-2" data-name="Path 16440"/>
            <path id="Rectangle_9702" d="M0 0h6v2H0z" class="cls-2" data-name="Rectangle 9702" transform="translate(15 16)"/>
            <path id="Rectangle_9703" d="M0 0h4v2H0z" class="cls-2" data-name="Rectangle 9703" transform="translate(17 13)"/>
            <path id="Rectangle_9704" d="M0 0h6v2H0z" class="cls-2" data-name="Rectangle 9704" transform="translate(15 19)"/>
        </g>
    </g>
</svg>
