<svg xmlns="http://www.w3.org/2000/svg" viewBox="-6635 -7374 24 24"><defs><style>.a{fill:none;}.b{fill:#3d4f6c;}</style></defs><g transform="translate(-7226 -7745)"><g transform="translate(591 371)"><rect class="a" width="24" height="24"/></g><path class="b" d="M7238,7765h0l-10,0a2,2,0,0,1-2-2v-16a2,2,0,0,1,2-2h16a2,2,0,0,1,2,2v10h-2v-10h-16v16h10v2l0,0Zm0-5h-4l.62-4.35a3,3,0,1,1,2.758,0L7238,7760Z" transform="translate(-6635 -7374)"/><g transform="translate(-10925 2015)"><rect class="b" width="2" height="10" transform="translate(11540 -1626) rotate(90)"/><rect class="b" width="2" height="10" transform="translate(11534 -1630)"/></g></g></svg>