<svg xmlns="http://www.w3.org/2000/svg" viewBox="-6625 -10624 26 26"><defs><style>.a{fill:none;}.b{fill:#fff;}</style></defs><g transform="translate(-7226 -11056)"><g transform="translate(601 432)"><rect class="a" width="24" height="24"/></g><path class="b" d="M7244,11076h-4v-2h4v-4h2v4A2,2,0,0,1,7244,11076Zm-6,0h-10a2,2,0,0,1-2-2v-16a2,2,0,0,1,2-2h16a2,2,0,0,1,2,2v10h-2v-10h-16v16h10v2Zm0-5h-4l.623-4.35a3,3,0,1,1,2.754,0L7238,11071Z" transform="translate(-6623 -10622)"/><g transform="translate(-10913 2078)"><rect class="b" width="2" height="10" transform="translate(11540 -1626) rotate(90)"/><rect class="b" width="2" height="10" transform="translate(11534 -1630)"/></g></g></svg>