<svg xmlns="http://www.w3.org/2000/svg" viewBox="-1110 -5173 24 24"><defs><style>.a{fill:none;}.b{fill:#0050db;}</style></defs><g transform="translate(-1110 -5173)"><rect class="a" width="24" height="24"/><path class="b" d="M3.514,16.227l1.414-1.414-.707-.707a1,1,0,0,1,0-1.415l8.486-8.485a1,1,0,0,1,1.415,0l.707.707L16.242,3.5l-.706-.707a3.071,3.071,0,0,0-4.243,0L2.808,11.277a3,3,0,0,0,0,4.243Z"/><path class="b" d="M21.192,8.451l-.708-.707L19.07,9.158l.708.707a1,1,0,0,1,0,1.413l-8.485,8.486a1.027,1.027,0,0,1-1.415,0l-.707-.707L7.757,20.47l.707.707a3,3,0,0,0,4.243,0l8.485-8.485a3,3,0,0,0,0-4.241Z"/><rect class="b" width="2" height="10" transform="translate(19.777 2.793) rotate(45)"/><rect class="b" width="1.999" height="10.001" transform="matrix(0.707, 0.707, -0.707, 0.707, 9.878, 12.691)"/></g></svg>