<svg xmlns="http://www.w3.org/2000/svg" viewBox="-6495 -9107 24 24"><defs><style>.a{fill:none;}.b{fill:#fff;}</style></defs><g transform="translate(-6495 -9107)"><rect class="a" width="24" height="24"/><rect class="b" width="5" height="2" transform="translate(13 7)"/><rect class="b" width="5" height="2" transform="translate(13 11)"/><rect class="b" width="3" height="2" transform="translate(13 15)"/><rect class="b" width="3" height="2" transform="translate(8 7)"/><rect class="b" width="5" height="2" transform="translate(6 11)"/><rect class="b" width="5" height="2" transform="translate(6 15)"/><path class="b" d="M20,2H4A2,2,0,0,0,2,4V20a2,2,0,0,0,2,2H20a2,2,0,0,0,2-2V4A2,2,0,0,0,20,2Zm0,18H4V4H20Z"/></g></svg>