<svg xmlns="http://www.w3.org/2000/svg" viewBox="-10078 6805 24 24"><defs><style>.a{fill:none;}.b{fill:#fff;}</style></defs><g transform="translate(-10078 6805)"><rect class="a" width="24" height="24"/><path class="b" d="M12.042,23c-9.886,0-10-16.306-10-17a1,1,0,0,1,.514-.874l9-5a1,1,0,0,1,.972,0l9,5A1,1,0,0,1,22.042,6C22.042,6.694,21.928,23,12.042,23ZM4.057,6.58C4.167,9.341,5.045,21,12.042,21S19.917,9.341,20.026,6.58L12.042,2.143Z"/><g transform="translate(125 33.001)"><path class="b" d="M11,17.414,7.293,13.707l1.414-1.414L11,14.586l4.293-4.293,1.414,1.414Z" transform="translate(-125 -35)"/></g></g></svg>