<svg xmlns="http://www.w3.org/2000/svg" viewBox="-6461 -9107 24.42 24"><defs><style>.a{fill:none;}.b{fill:#fff;}</style></defs><g transform="translate(-7062 -9543)"><g transform="translate(601 436)"><rect class="a" width="24" height="24"/></g><path class="b" d="M7233,10086h-5a2,2,0,0,1-2-2v-16a2,2,0,0,1,2-2h16a2,2,0,0,1,2,2v10h-2v-10h-16v16h5Z" transform="translate(-6623 -9628)"/><g transform="translate(612 353.275)"><path class="b" d="M6.71,98.725a8.372,8.372,0,0,0-6.6,3.682.531.531,0,0,0,0,.634,8.368,8.368,0,0,0,6.605,3.684,8.372,8.372,0,0,0,6.6-3.682.531.531,0,0,0,0-.634A8.368,8.368,0,0,0,6.71,98.725Zm.184,6.817a2.823,2.823,0,1,1,2.633-2.633,2.823,2.823,0,0,1-2.633,2.633Zm-.085-1.3a1.52,1.52,0,1,1,1.419-1.419,1.52,1.52,0,0,1-1.419,1.419Z"/></g><path class="b" d="M7067.857,9552.016h-3.715l.48-3.35A3,3,0,0,1,7066,9543a3,3,0,0,1,1.377,5.666l.48,3.349Z" transform="translate(-6453 -9100.015)"/></g></svg>