<svg xmlns="http://www.w3.org/2000/svg" viewBox="1666 -6844 24 24"><defs><style>.a{fill:#fff;opacity:0;}.b{fill:#3d4f6c;}.c{fill:none;}</style></defs><rect class="a" width="24" height="24" transform="translate(1666 -6844)"/><g transform="translate(1670 -6840)"><path class="b" d="M15.667,6.667h-1.9a8.559,8.559,0,0,0-.519-1.555L14.6,3.757a.334.334,0,0,0,0-.471L12.713,1.4a.332.332,0,0,0-.471,0L10.887,2.755a8.51,8.51,0,0,0-1.553-.518V.333A.333.333,0,0,0,9,0H7a.333.333,0,0,0-.333.333v1.9a8.483,8.483,0,0,0-1.554.518L3.757,1.4a.332.332,0,0,0-.471,0L1.4,3.286a.334.334,0,0,0,0,.471L2.755,5.113a8.551,8.551,0,0,0-.519,1.554H.333A.333.333,0,0,0,0,7V9a.333.333,0,0,0,.333.333h1.9a8.6,8.6,0,0,0,.519,1.554L1.4,12.243a.334.334,0,0,0,0,.471L3.286,14.6a.342.342,0,0,0,.471,0l1.355-1.355a8.593,8.593,0,0,0,1.555.519v1.9A.333.333,0,0,0,7,16H9a.333.333,0,0,0,.333-.333v-1.9a8.673,8.673,0,0,0,1.554-.519L12.244,14.6a.334.334,0,0,0,.471,0L14.6,12.715a.334.334,0,0,0,0-.471l-1.355-1.355a8.551,8.551,0,0,0,.519-1.554h1.9A.333.333,0,0,0,16,9V7A.334.334,0,0,0,15.667,6.667ZM8,10.667A2.667,2.667,0,1,1,10.667,8,2.67,2.67,0,0,1,8,10.667Z"/><rect class="c" width="16" height="16"/></g></svg>