<svg width="32" height="32" viewBox="0 0 32 32" fill="none" xmlns="http://www.w3.org/2000/svg">
<circle cx="16" cy="16" r="16" fill="black"/>
<path fill-rule="evenodd" clip-rule="evenodd" d="M8.22727 11.4894V20.5106L16 25L23.7727 20.5106V11.4894L16 7L8.22727 11.4894ZM8.97345 19.6466V12.3542L13.6723 15.073L12.0907 17.8425L8.97345 19.6466ZM9.34736 20.2938L12.3452 18.5593L15.649 20.4517V23.9339L9.34736 20.2938ZM23.0265 12.3795V19.6205L19.9502 17.8409L18.3695 15.0738L23.0265 12.3795ZM22.6747 11.7185L17.9988 14.4242L16.3952 11.617V8.09145L22.6747 11.7185ZM17.7272 15.4453L18.6705 17.1005L16.7683 16L17.7272 15.4453ZM17.3565 14.7956L16.3952 15.352V13.1102L17.3565 14.7956ZM13.3769 17.0988L14.3186 15.4461L15.2759 16L13.3777 17.0988H13.3769ZM13.0938 18.1265L15.649 16.648V19.5894L13.0938 18.1265ZM9.34654 11.7062L15.649 8.06609V11.6121L14.0437 14.4234L9.34654 11.7062ZM22.6747 20.2815L16.3952 23.9085V20.4755L19.7006 18.5609L22.6747 20.2815ZM18.9536 18.1281L16.3952 19.6115V16.648L18.9536 18.1281ZM14.6893 14.7973L15.649 13.1143V15.352L14.6893 14.7973Z" fill="white"/>
</svg>
