<svg width="32" height="32" viewBox="0 0 32 32" fill="none" xmlns="http://www.w3.org/2000/svg">
<circle cx="16" cy="16" r="16" fill="#72B2F3"/>
<path fill-rule="evenodd" clip-rule="evenodd" d="M25 17.1562V9H20.9355V11.9995C20.473 11.8776 19.9863 11.8125 19.4839 11.8125C18.1626 11.8125 16.9499 12.2625 16 13.013C15.0501 12.2625 13.8374 11.8125 12.5161 11.8125C9.46966 11.8125 7 14.205 7 17.1562C7 20.1075 9.46966 22.5 12.5161 22.5C13.8374 22.5 15.0501 22.05 16 21.2995C16.9499 22.05 18.1626 22.5 19.4839 22.5C22.5303 22.5 25 20.1075 25 17.1562ZM12.5161 15.75C11.7144 15.75 11.0645 16.3796 11.0645 17.1562C11.0645 17.9329 11.7144 18.5625 12.5161 18.5625C13.3178 18.5625 13.9677 17.9329 13.9677 17.1562C13.9677 16.3796 13.3178 15.75 12.5161 15.75ZM19.4839 18.5625C18.6822 18.5625 18.0323 17.9329 18.0323 17.1562C18.0323 16.3796 18.6822 15.75 19.4839 15.75C20.2856 15.75 20.9355 16.3796 20.9355 17.1562C20.9355 17.9329 20.2856 18.5625 19.4839 18.5625Z" fill="white"/>
</svg>
