<svg width="32" height="32" viewBox="0 0 32 32" fill="none" xmlns="http://www.w3.org/2000/svg">
<circle cx="16" cy="16" r="16" fill="#3850A1"/>
<path fill-rule="evenodd" clip-rule="evenodd" d="M23.4019 11.1076L16.5354 7.1436C16.3724 7.04953 16.1876 7 15.9994 7C15.8113 7 15.6265 7.04953 15.4635 7.1436L8.59745 11.1076C8.43485 11.2016 8.29978 11.3366 8.20578 11.4992C8.11177 11.6617 8.06214 11.8462 8.06184 12.034V19.9644C8.06185 20.1525 8.11136 20.3372 8.20537 20.5001C8.29939 20.663 8.43461 20.7983 8.59745 20.8924L15.464 24.8564C15.627 24.9505 15.8118 25 16 25C16.1881 25 16.3729 24.9505 16.5359 24.8564L23.4026 20.892C23.5654 20.7979 23.7006 20.6626 23.7946 20.4997C23.8886 20.3368 23.9382 20.1521 23.9382 19.964V12.034C23.9378 11.8461 23.8881 11.6616 23.794 11.4991C23.6999 11.3365 23.5647 11.2015 23.4019 11.1076ZM11.0441 11.5445C11.2092 11.3805 11.3738 11.2163 11.5378 11.0519C11.7029 11.2165 11.8676 11.3812 12.032 11.5461C11.868 11.7107 11.7036 11.8751 11.5388 12.0393C11.3738 11.8747 11.2089 11.7098 11.0441 11.5445ZM13.0242 11.0519C12.8595 11.2161 12.6951 11.3805 12.531 11.5451C12.6949 11.7095 12.8591 11.8737 13.0236 12.0377C13.1884 11.8735 13.3528 11.7091 13.5168 11.5445C13.353 11.3801 13.1888 11.2159 13.0242 11.0519ZM18.4836 11.5435C18.6476 11.3789 18.8118 11.2147 18.9762 11.0509C19.1413 11.2155 19.306 11.3802 19.4704 11.5451C19.3063 11.7097 19.1421 11.8741 18.9778 12.0383C18.8132 11.8731 18.6485 11.7082 18.4836 11.5435ZM20.4626 11.0513C20.297 11.2164 20.1319 11.3815 19.9673 11.5466C20.1315 11.711 20.2959 11.8754 20.4605 12.0398L20.9558 11.5445C20.7916 11.3797 20.6272 11.2153 20.4626 11.0513ZM11.7879 12.2878C11.9524 12.1237 12.1168 11.9595 12.2811 11.7952C12.4456 11.9592 12.6098 12.1234 12.7737 12.2878C12.6096 12.4523 12.4452 12.6167 12.2805 12.781C12.1159 12.6169 11.9517 12.4525 11.7879 12.2878ZM13.7674 11.7985C13.6053 11.9624 13.4425 12.1258 13.2791 12.2888C13.4417 12.4516 13.6045 12.6143 13.7674 12.7768C13.93 12.614 14.0928 12.4514 14.2558 12.289C14.0926 12.126 13.9298 11.9625 13.7674 11.7985ZM17.8804 12.15L17.881 12.1494C17.9988 12.0314 18.1167 11.9134 18.2341 11.7945C18.3971 11.9584 18.5604 12.1223 18.7241 12.2862C18.5604 12.4491 18.3971 12.6123 18.2341 12.7758C18.1279 12.6681 18.0209 12.5611 17.9137 12.4542C17.8575 12.398 17.8013 12.3419 17.7451 12.2856C17.7902 12.2403 17.8353 12.1952 17.8804 12.15ZM19.7193 11.7941C19.555 11.9579 19.3908 12.1221 19.2267 12.2867C19.294 12.3541 19.3614 12.4215 19.4289 12.4889L19.4289 12.4889L19.429 12.489L19.4303 12.4903C19.5269 12.5868 19.6236 12.6834 19.7199 12.7805C19.8843 12.6162 20.0485 12.4518 20.2125 12.2873C20.0483 12.1225 19.8839 11.9581 19.7193 11.7941ZM11.0441 13.0314L11.5388 12.5367C11.7034 12.7013 11.8676 12.8657 12.0314 13.0299C11.8668 13.195 11.7021 13.3598 11.5372 13.5241C11.3727 13.36 11.2083 13.1958 11.0441 13.0314ZM13.0242 12.5383C12.8597 12.7027 12.6951 12.8669 12.5305 13.0309C12.6948 13.1956 12.8591 13.36 13.0236 13.5241C13.1884 13.3599 13.3528 13.1955 13.5168 13.0309C13.353 12.8666 13.1888 12.7024 13.0242 12.5383ZM14.0191 13.0282C14.1815 12.8653 14.3441 12.7025 14.507 12.5399C14.671 12.7039 14.8348 12.8679 14.9984 13.0319C14.836 13.1944 14.6734 13.3568 14.5106 13.5193C14.3466 13.3558 14.1827 13.1921 14.0191 13.0282ZM17.4909 12.5399C17.3284 12.7025 17.166 12.8653 17.0036 13.0282C17.0676 13.0925 17.1318 13.1565 17.196 13.2206C17.2948 13.3191 17.3936 13.4176 17.4914 13.5167C17.5732 13.4357 17.6546 13.3543 17.7359 13.273L17.7361 13.2728C17.8174 13.1915 17.8987 13.1102 17.9804 13.0293C17.8176 12.866 17.6544 12.7028 17.4909 12.5399ZM18.4836 13.0298C18.6481 12.8647 18.8129 12.7 18.9778 12.5356C19.1423 12.6997 19.3067 12.8641 19.471 13.0288C19.3064 13.1939 19.1417 13.3588 18.9768 13.5235C18.8861 13.4323 18.7951 13.3414 18.7041 13.2505L18.704 13.2504C18.6304 13.1769 18.5569 13.1034 18.4836 13.0298ZM20.4623 12.5372C20.2979 12.7011 20.1337 12.8653 19.9697 13.0298C20.0286 13.0888 20.0876 13.1477 20.1465 13.2066L20.1472 13.2073L20.1479 13.208C20.2531 13.3131 20.3583 13.4181 20.4629 13.5236C20.6273 13.3594 20.7915 13.195 20.9555 13.0304C20.7913 12.8657 20.6269 12.7013 20.4623 12.5372ZM15.5044 13.0803L15.9918 12.593C16.1631 12.7516 16.331 12.9136 16.4946 13.0803C16.3305 13.2465 16.1629 13.4087 15.9918 13.5671C15.8293 13.4046 15.6669 13.2424 15.5044 13.0803ZM12.2821 13.2851C12.1177 13.4485 11.9535 13.6117 11.7895 13.7746C11.9532 13.938 12.117 14.1011 12.281 14.2641C12.444 14.1009 12.607 13.9376 12.7699 13.7741C12.6071 13.6116 12.4445 13.4486 12.2821 13.2851ZM14.7628 13.7715C14.8475 13.6864 14.9322 13.6017 15.017 13.517L15.0176 13.5164C15.0951 13.4389 15.1726 13.3614 15.2501 13.2836C15.4125 13.4461 15.5748 13.6085 15.7369 13.771C15.6598 13.8483 15.5824 13.9257 15.5051 14.0031C15.42 14.0881 15.3349 14.1732 15.2501 14.2583C15.0877 14.0962 14.9253 13.9339 14.7628 13.7715ZM16.5088 13.5227L16.5087 13.5228C16.4259 13.6055 16.3431 13.6881 16.2609 13.7715C16.329 13.84 16.3973 13.9082 16.4656 13.9765L16.4658 13.9766C16.56 14.0709 16.6543 14.1651 16.7482 14.2599C16.823 14.1855 16.8976 14.1109 16.9722 14.0362L16.9724 14.036C17.0607 13.9476 17.149 13.8592 17.2376 13.7715C17.1704 13.7053 17.104 13.6384 17.0377 13.5716C16.9417 13.4748 16.8457 13.3781 16.7472 13.2836C16.6682 13.3637 16.5886 13.4431 16.5091 13.5224L16.5088 13.5227ZM19.2342 13.772C19.3152 13.6902 19.3963 13.6087 19.4774 13.5272C19.5584 13.4457 19.6395 13.3643 19.7204 13.2825C19.885 13.4455 20.049 13.6086 20.2125 13.772C20.048 13.935 19.8838 14.0981 19.7199 14.2615C19.6364 14.1766 19.5525 14.0923 19.4685 14.008L19.467 14.0066C19.3893 13.9285 19.3115 13.8504 19.2342 13.772ZM13.0216 14.0263C12.8581 14.1889 12.6951 14.3517 12.5327 14.5147C12.6963 14.6787 12.8602 14.8424 13.0242 15.0057C13.1871 14.8435 13.3497 14.6808 13.5121 14.5179C13.3481 14.3542 13.1846 14.1903 13.0216 14.0263ZM15.5054 14.5136C15.6673 14.3511 15.8294 14.1891 15.9917 14.0273C16.1626 14.1855 16.3302 14.3477 16.4945 14.5141C16.331 14.6808 16.1636 14.8429 15.9923 15.0003C15.8298 14.838 15.6675 14.6757 15.5054 14.5136ZM18.9773 14.0289C18.815 14.1903 18.6529 14.3522 18.491 14.5147C18.555 14.5787 18.6192 14.6425 18.6834 14.7064L18.6838 14.7068C18.7818 14.8043 18.8798 14.9018 18.9773 14.9999C19.0382 14.9394 19.0991 14.8786 19.1601 14.8179L19.1636 14.8144C19.2639 14.7144 19.3644 14.6142 19.4651 14.5147C19.3023 14.3533 19.1397 14.1913 18.9773 14.0289ZM13.2764 15.2578C13.4389 15.0949 13.6015 14.9324 13.7643 14.7705C13.9262 14.9324 14.0881 15.0944 14.25 15.2567C14.0882 15.4191 13.9259 15.5818 13.7633 15.7446C13.6013 15.5822 13.4391 15.4199 13.2764 15.2578ZM18.2341 14.7705C18.0713 14.933 17.9087 15.0954 17.7462 15.2578C17.8098 15.3214 17.8735 15.3849 17.9372 15.4484C18.0364 15.5472 18.1355 15.646 18.2341 15.7452C18.3964 15.5827 18.5585 15.4203 18.7203 15.2578C18.5586 15.0948 18.3965 14.9324 18.2341 14.7705ZM12.534 16C12.6964 15.837 12.859 15.6746 13.0218 15.5126C13.1837 15.6751 13.3458 15.8375 13.5081 16C13.3462 16.1624 13.1841 16.3249 13.0218 16.4874C12.8587 16.3249 12.696 16.1624 12.534 16ZM14.5065 15.5133C14.344 15.6753 14.1815 15.8376 14.0191 16C14.1815 16.1621 14.344 16.3243 14.5067 16.4867C14.6693 16.3247 14.8312 16.1624 14.9924 16C14.8303 15.8379 14.6683 15.6757 14.5065 15.5133ZM17.2511 15.7518L17.2513 15.7516C17.3316 15.6716 17.412 15.5915 17.4919 15.511C17.5771 15.5959 17.6622 15.6812 17.7472 15.7666L17.7478 15.7671C17.8252 15.8449 17.9027 15.9226 17.9803 16C17.8173 16.1624 17.6546 16.3254 17.4919 16.489C17.4055 16.4018 17.3184 16.315 17.2313 16.2282C17.1551 16.1523 17.0788 16.0763 17.003 16C17.0854 15.917 17.1683 15.8344 17.2511 15.7518ZM18.6306 15.8165C18.5702 15.8787 18.5098 15.9409 18.4469 16C18.5111 16.0594 18.572 16.1226 18.6329 16.1858C18.7315 16.2882 18.8301 16.3905 18.9427 16.4762C19.0239 16.3904 19.1086 16.3085 19.1934 16.2266C19.2706 16.152 19.3477 16.0774 19.4221 16C19.3491 15.9235 19.2728 15.8502 19.1965 15.7769L19.1958 15.7762C19.1093 15.693 19.0228 15.6099 18.9411 15.5222C18.8298 15.6115 18.7302 15.714 18.6306 15.8165ZM13.2764 16.7422L13.7632 16.2554C13.8304 16.3229 13.8976 16.3901 13.9648 16.4573C14.0599 16.5526 14.155 16.6477 14.2499 16.7433C14.0881 16.9057 13.9261 17.0678 13.7642 17.2295C13.6018 17.067 13.4392 16.9046 13.2764 16.7422ZM17.9599 16.5292C17.8887 16.6002 17.8176 16.6711 17.7467 16.7422C17.8277 16.8234 17.9088 16.9044 17.9899 16.9853L17.9904 16.9858C18.0713 17.0666 18.1522 17.1474 18.233 17.2284C18.3361 17.1283 18.4376 17.0263 18.5391 16.9242C18.5995 16.8634 18.66 16.8026 18.7209 16.7422C18.5588 16.5797 18.3965 16.4172 18.2341 16.2548C18.1434 16.3461 18.0522 16.4371 17.961 16.528L17.9599 16.5292ZM12.5327 17.4853C12.6961 17.3213 12.86 17.1576 13.0242 16.9943C13.1872 17.1567 13.3498 17.3193 13.5121 17.4821C13.3486 17.6461 13.1851 17.81 13.0216 17.9737C12.8581 17.8113 12.6951 17.6485 12.5327 17.4853ZM15.9923 16.9981C15.8293 17.1607 15.6663 17.3235 15.5033 17.4864C15.6659 17.6494 15.8287 17.8124 15.9917 17.9754C16.1643 17.8167 16.3325 17.6534 16.4966 17.4854C16.3329 17.3187 16.1649 17.1563 15.9923 16.9981ZM18.7339 17.2432L18.7344 17.2427L18.7362 17.2409C18.8167 17.1606 18.8972 17.0804 18.9773 17.0001C19.1402 17.162 19.303 17.3237 19.4656 17.4853C19.3032 17.6472 19.1404 17.8091 18.9773 17.9711C18.8153 17.8091 18.6532 17.6474 18.491 17.4858C18.5718 17.4048 18.6529 17.324 18.7339 17.2432ZM12.2811 17.7359C12.117 17.8993 11.953 18.0624 11.789 18.2254C11.8808 18.3161 11.9725 18.4074 12.0642 18.4987C12.1368 18.571 12.2094 18.6433 12.2821 18.7154C12.4444 18.5515 12.607 18.3883 12.77 18.2259C12.607 18.0622 12.444 17.8989 12.2811 17.7359ZM14.7602 18.2285C14.9236 18.065 15.087 17.9019 15.2501 17.739C15.4136 17.902 15.5771 18.0652 15.7406 18.2285C15.5777 18.392 15.4145 18.5555 15.2511 18.719C15.0871 18.556 14.9234 18.3925 14.7602 18.2285ZM16.4761 18.0102C16.4032 18.0829 16.3304 18.1556 16.2577 18.2285C16.4212 18.3924 16.5847 18.5561 16.7483 18.7195C16.912 18.5551 17.0758 18.3909 17.2399 18.2269C17.1288 18.1169 17.0179 18.0062 16.9071 17.8955C16.8543 17.8428 16.8015 17.79 16.7488 17.7374C16.6582 17.8286 16.5672 17.9194 16.4761 18.0102ZM19.2337 18.228C19.3105 18.1501 19.3879 18.0723 19.4653 17.9945L19.4658 17.994L19.4661 17.9937L19.4665 17.9932C19.5512 17.9081 19.6359 17.823 19.7199 17.7375C19.884 17.901 20.0484 18.0645 20.2131 18.228C20.0491 18.3915 19.8849 18.5548 19.7205 18.718C19.6461 18.6428 19.5714 18.5678 19.4967 18.4928L19.4964 18.4925C19.4087 18.4044 19.321 18.3163 19.2337 18.228ZM15.9917 18.4297C15.8282 18.5934 15.6647 18.7567 15.5012 18.9197C15.6646 19.0834 15.8283 19.2472 15.9923 19.4113C16.1648 19.2515 16.3336 19.0874 16.4987 18.9192C16.333 18.7521 16.1648 18.5884 15.9917 18.4297ZM11.0441 18.9691L11.5373 18.4759C11.7024 18.6404 11.8671 18.8052 12.0315 18.9701C11.8675 19.1346 11.7033 19.299 11.5389 19.4633C11.3738 19.2982 11.2089 19.1335 11.0441 18.9691ZM13.0237 18.476C12.8595 18.6403 12.6951 18.8045 12.5305 18.9686C12.6951 19.1333 12.8597 19.2977 13.0243 19.4618C13.1887 19.2979 13.3529 19.1337 13.5169 18.9692C13.3527 18.8044 13.1883 18.64 13.0237 18.476ZM14.0159 18.9712C14.1009 18.8867 14.1858 18.8019 14.2707 18.7172C14.3506 18.6374 14.4305 18.5575 14.5106 18.478C14.6741 18.6415 14.8378 18.805 15.0017 18.9685C14.8371 19.1341 14.6725 19.2992 14.508 19.4638C14.3439 19.2998 14.1799 19.1356 14.0159 18.9712ZM17.1951 18.7766C17.13 18.8416 17.0648 18.9066 16.9998 18.9718C17.1635 19.1358 17.3274 19.2999 17.4913 19.464C17.6556 19.2994 17.82 19.1348 17.9845 18.9703C17.8202 18.8069 17.656 18.6432 17.4919 18.4792C17.3936 18.5785 17.2945 18.6774 17.1953 18.7764L17.1953 18.7764L17.1951 18.7766ZM18.4836 18.9702C18.5656 18.8879 18.6479 18.8056 18.7302 18.7233C18.8125 18.641 18.8948 18.5587 18.9768 18.4765C19.1413 18.6416 19.3061 18.8065 19.471 18.9712L18.9778 19.4644C18.8129 19.2998 18.6481 19.1351 18.4836 18.9702ZM20.2163 18.7233C20.134 18.8056 20.0517 18.8879 19.9697 18.9702C20.1337 19.1345 20.2979 19.2988 20.4623 19.4629C20.6271 19.2986 20.7915 19.1342 20.9555 18.9697C20.7911 18.8054 20.6269 18.641 20.4629 18.4765C20.3813 18.5583 20.2995 18.6401 20.2176 18.722L20.2163 18.7233ZM11.7874 19.7117C11.9519 19.5477 12.1163 19.3835 12.2806 19.2191C12.4451 19.3832 12.6095 19.5476 12.7738 19.7123C12.6097 19.8769 12.4455 20.0411 12.2812 20.2049C12.1165 20.0409 11.9519 19.8765 11.7874 19.7117ZM13.7669 19.2201C13.6023 19.3836 13.4383 19.5477 13.2748 19.7122C13.3363 19.7738 13.3978 19.8354 13.4593 19.8971C13.5619 20 13.6646 20.1029 13.7674 20.2054C13.8494 20.1234 13.9314 20.0411 14.0135 19.9588L14.0141 19.9582L14.0147 19.9576C14.0963 19.8757 14.1779 19.7938 14.2595 19.7122C14.0957 19.5477 13.9315 19.3836 13.7669 19.2201ZM17.7409 19.7133C17.9049 19.5488 18.0695 19.3842 18.2346 19.2196C18.3992 19.3847 18.5639 19.5493 18.7288 19.7133C18.5637 19.8779 18.399 20.0428 18.2346 20.208C18.0695 20.0435 17.9049 19.8786 17.7409 19.7133ZM19.4732 19.4667C19.3909 19.5489 19.3087 19.6311 19.2267 19.7133C19.3906 19.8776 19.5548 20.0418 19.7193 20.206C19.8841 20.0418 20.0485 19.8774 20.2125 19.7128C20.0482 19.5486 19.884 19.3842 19.7199 19.2196C19.6379 19.302 19.5555 19.3843 19.4732 19.4667ZM11.0457 20.4534C11.2097 20.2888 11.3741 20.1244 11.5389 19.9602L12.0321 20.4534L11.5389 20.9466C11.3743 20.7829 11.2099 20.6185 11.0457 20.4534ZM13.0237 19.9623C12.8595 20.1267 12.6951 20.2909 12.5305 20.4549C12.6951 20.6197 12.8597 20.7841 13.0243 20.9481C13.1887 20.7843 13.3529 20.6201 13.5169 20.4555C13.3527 20.2907 13.1883 20.1263 13.0237 19.9623ZM18.4836 20.4565C18.6481 20.2914 18.8129 20.1265 18.9778 19.9618C19.1418 20.1264 19.306 20.2908 19.4704 20.455C19.3058 20.6201 19.1411 20.7848 18.9762 20.9492C18.8116 20.7852 18.6474 20.6209 18.4836 20.4565ZM20.4605 19.9602C20.2957 20.1244 20.1313 20.2888 19.9673 20.4534C20.1319 20.6188 20.297 20.7839 20.4626 20.9487C20.6274 20.7845 20.7918 20.6201 20.9558 20.4555L20.4605 19.9602Z" fill="white"/>
</svg>
