<svg width="32" height="32" viewBox="0 0 32 32" fill="none" xmlns="http://www.w3.org/2000/svg">
<circle cx="16" cy="16" r="16" fill="#C15072"/>
<path d="M11.6262 11.7698H10.8866C9.88346 11.8632 8.94488 12.3057 8.23459 13.0203C7.5243 13.7348 7.08737 14.676 7 15.6797V16.345C7.09461 17.3486 7.53838 18.2871 8.25397 18.9971C8.96956 19.7071 9.91159 20.1434 10.9159 20.2301H11.5752C12.358 20.1105 13.1087 19.8347 13.7827 19.419C14.4568 19.0034 15.0403 18.4564 15.4986 17.8106C15.2608 17.4505 15.0215 17.092 14.7748 16.7395C14.1938 17.7436 13.3038 18.5329 12.2374 18.9896C11.6691 19.1814 11.058 19.2076 10.4753 19.065C9.89269 18.9225 9.36265 18.6171 8.94713 18.1845C8.53162 17.7519 8.24777 17.21 8.12876 16.6221C8.00975 16.0342 8.06049 15.4246 8.27505 14.8644C8.57445 14.1095 9.15091 13.4974 9.88659 13.1533C10.6223 12.8093 11.4616 12.7592 12.2329 13.0134C12.6562 13.1726 13.0241 13.4119 13.3549 13.6989C13.9218 14.1906 14.38 14.8222 14.8214 15.4307C14.8771 15.5074 14.9325 15.5838 14.9878 15.6595C15.761 16.8958 16.6707 18.0413 17.6999 19.0743C18.4806 19.7471 19.4563 20.1522 20.484 20.2301H21.0938C21.9215 20.1527 22.7095 19.8391 23.3641 19.3266C24.0187 18.8142 24.5123 18.1244 24.7861 17.3395C24.4081 17.3373 24.0256 17.3373 23.6506 17.3448C23.4626 17.7302 23.1985 18.0735 22.8743 18.354C22.5501 18.6346 22.1724 18.8466 21.764 18.9772C21.3556 19.1078 20.925 19.1544 20.4981 19.1141C20.0712 19.0739 19.6569 18.9476 19.2802 18.7428C17.9922 17.951 17.1538 16.7214 16.3144 15.4905C15.7934 14.7265 15.2721 13.962 14.6428 13.3014C13.853 12.4462 12.7826 11.9028 11.6262 11.7698Z" fill="white"/>
<path d="M20.9618 11.7698H20.3333C19.5279 11.8984 18.7571 12.1896 18.0679 12.6257C17.3787 13.0618 16.7855 13.6336 16.3244 14.3064C16.5547 14.6589 16.7924 15.007 17.0324 15.352C17.6164 14.3741 18.4923 13.604 19.5368 13.1499C20.2157 12.8954 20.96 12.8739 21.6525 13.0888C22.345 13.3038 22.9465 13.7429 23.362 14.3372C23.6583 14.8179 23.8452 15.3579 23.9095 15.919C23.0021 15.9225 22.095 15.9213 21.1874 15.9202C20.7334 15.9196 20.2792 15.919 19.8248 15.919V16.852C20.3894 16.8513 20.9539 16.852 21.5185 16.8527C22.679 16.8542 23.8395 16.8556 25 16.8445V15.7787C24.8979 14.7453 24.4389 13.7797 23.7019 13.048C22.9649 12.3164 21.996 11.8644 20.9618 11.7698Z" fill="white"/>
</svg>
