<svg width="32" height="32" viewBox="0 0 32 32" fill="none" xmlns="http://www.w3.org/2000/svg">
<circle cx="16" cy="16" r="16" fill="#1D0D4B"/>
<path d="M16.8468 7.39634C17.297 7.84609 17.7473 8.35205 18.085 8.85802C19.4357 11.163 18.2538 13.1868 17.9724 13.749C17.8598 13.9739 17.8598 14.1988 18.0287 14.4236C18.1975 14.7047 18.6478 14.7609 18.8729 14.5923C19.9422 13.6928 19.9985 11.7814 20.0548 11.3878C20.0548 10.9943 19.9985 10.6008 19.8859 10.2073C19.7734 9.81373 19.6045 9.47642 19.4357 9.13911C19.2669 8.8018 19.0417 8.52071 18.7603 8.23962C18.3101 7.73365 17.691 7.34012 17.0719 7.05903C16.9593 7.00281 16.8468 7.00281 16.7905 7.05903C16.7342 7.17147 16.7342 7.2839 16.8468 7.39634Z" fill="white"/>
<path d="M15.2215 24.6306C14.7712 24.1809 14.321 23.6749 13.9833 23.169C12.6326 20.864 13.8145 18.8402 14.0959 18.278C14.2647 18.0531 14.2647 17.8282 14.0959 17.6034C13.927 17.3223 13.4768 17.2661 13.2517 17.4347C12.1823 18.3342 12.1261 20.2456 12.0698 20.6392C12.0698 21.0327 12.126 21.4262 12.2386 21.8197C12.3512 22.2133 12.52 22.5506 12.6889 22.8879C12.8577 23.2252 13.0828 23.5063 13.3642 23.7874C13.8145 24.2933 14.4336 24.6869 15.0526 24.9679C15.1089 25.0242 15.2215 24.9679 15.2778 24.9117C15.3341 24.8555 15.3341 24.7431 15.2215 24.6306Z" fill="white"/>
<path d="M20.0802 19.9915C20.0239 18.9796 19.5737 17.8552 18.8983 17.0681C18.1666 16.2811 17.3224 15.7189 16.5345 15.2692C15.7466 14.7632 14.9586 14.3135 14.3958 13.7513C13.833 13.1891 13.4953 12.5707 13.3265 11.7836C13.2139 10.9966 13.2702 10.2095 13.6079 9.47868C13.9456 8.69162 14.5084 8.017 15.1837 7.3986C15.24 7.34238 15.2963 7.22994 15.24 7.11751C15.1838 7.00507 15.0149 6.94885 14.9023 7.06129C14.0581 7.45482 13.2702 8.07322 12.7074 8.97271C12.0883 9.81599 11.8632 10.9404 11.9195 12.0085C11.9757 12.5707 12.0883 13.0766 12.3134 13.5826C12.5386 14.0886 12.8762 14.5383 13.2139 14.9319C13.9456 15.7189 14.8461 16.2249 15.634 16.6746C16.4219 17.1244 17.1536 17.5741 17.7727 18.1363C18.3355 18.6423 18.7294 19.3731 18.842 20.1602C19.0108 20.9472 18.8983 21.7905 18.5606 22.5775C18.2229 23.3646 17.6038 24.0392 16.9285 24.6014C16.8159 24.6576 16.8159 24.8263 16.8722 24.8825C16.9285 24.9949 17.0973 25.0511 17.2099 24.9387C17.9978 24.4327 18.7857 23.8143 19.3485 22.9711C19.9113 22.1278 20.1365 21.0596 20.0802 19.9915Z" fill="white"/>
</svg>
