<svg width="32" height="32" viewBox="0 0 32 32" fill="none" xmlns="http://www.w3.org/2000/svg">
<circle cx="16" cy="16" r="16" fill="black"/>
<path d="M15.3456 10.681C15.3456 10.3079 15.648 10.0054 16.0211 10.0054C16.3968 10.0054 16.7004 10.312 16.6966 10.6877L16.6652 13.861C16.6611 14.2773 16.3225 14.6126 15.9061 14.6126H15.3456V10.681Z" fill="white"/>
<path d="M10.673 15.2932H14.665V16.6283H10.673C10.3043 16.6283 10.0054 16.3294 10.0054 15.9607C10.0054 15.5921 10.3043 15.2932 10.673 15.2932Z" fill="white"/>
<path d="M15.3456 21.2878V17.3089H16.7068V21.2878C16.7068 21.6637 16.4021 21.9684 16.0262 21.9684C15.6503 21.9684 15.3456 21.6637 15.3456 21.2878Z" fill="white"/>
<path d="M21.327 16.6283H17.3874V16.0524C17.3874 15.6331 17.7273 15.2932 18.1465 15.2932H21.327C21.6957 15.2932 21.9946 15.5921 21.9946 15.9607C21.9946 16.3294 21.6957 16.6283 21.327 16.6283Z" fill="white"/>
<path fill-rule="evenodd" clip-rule="evenodd" d="M16.5235 7.14028C16.1996 6.95324 15.8004 6.95324 15.4765 7.14028L8.58903 11.1167C8.26507 11.3038 8.06549 11.6495 8.06549 12.0235V19.9765C8.06549 20.3505 8.26507 20.6962 8.58903 20.8833L15.4765 24.8597C15.8004 25.0468 16.1996 25.0468 16.5235 24.8597L23.411 20.8833C23.7349 20.6962 23.9345 20.3505 23.9345 19.9765V12.0235C23.9345 11.6495 23.7349 11.3038 23.411 11.1167L16.5235 7.14028ZM15.9061 15.2932H15.3456V16.6283H16.7068V16.0524C16.7068 15.2572 17.3514 14.6126 18.1465 14.6126H21.327C22.0716 14.6126 22.6752 15.2162 22.6752 15.9607C22.6752 16.7053 22.0716 17.3089 21.327 17.3089H17.3874V21.2878C17.3874 22.0395 16.778 22.649 16.0262 22.649C15.2744 22.649 14.665 22.0395 14.665 21.2878V17.3089H10.673C9.92842 17.3089 9.32484 16.7053 9.32484 15.9607C9.32484 15.2162 9.92842 14.6126 10.673 14.6126H14.665V10.681C14.665 9.93201 15.2721 9.32484 16.0211 9.32484C16.7754 9.32484 17.3847 9.94022 17.3772 10.6944L17.3458 13.8677C17.338 14.6573 16.6957 15.2932 15.9061 15.2932Z" fill="white"/>
</svg>
