<svg width="32" height="32" viewBox="0 0 32 32" fill="none" xmlns="http://www.w3.org/2000/svg">
<circle cx="16" cy="16" r="16" fill="#3C3DE8"/>
<path d="M10.2395 23.0603L10.936 22.2233C12.2768 23.3176 13.9566 23.9157 15.69 23.9161C16.8847 23.9205 18.0628 23.6373 19.124 23.0906L19.6275 24.0511C18.136 24.8151 16.4528 25.1283 14.7849 24.9523C13.1171 24.7763 11.5372 24.1187 10.2395 23.0603ZM21.2645 21.7513C22.0917 21.0592 22.757 20.1953 23.2137 19.2201C23.6705 18.2449 23.9076 17.182 23.9084 16.1059H25C24.9997 17.3401 24.7282 18.5593 24.2047 19.6778C23.6811 20.7964 22.9181 21.7873 21.9692 22.5809L21.2645 21.7513ZM10.1064 15.6969C10.1002 14.5973 10.4219 13.5207 11.0307 12.6034C11.6394 11.6862 12.5079 10.9696 13.5259 10.5446C14.544 10.1195 15.6658 10.0051 16.7492 10.2158C17.8326 10.4266 18.8288 10.9529 19.6115 11.7283C20.3943 12.5036 20.9283 13.493 21.1459 14.571C21.3636 15.649 21.255 16.767 20.834 17.7835C20.413 18.8 19.6986 19.6691 18.7812 20.2806C17.8638 20.8922 16.7848 21.2186 15.6809 21.2186C14.2075 21.2213 12.7932 20.6417 11.7481 19.607C10.7031 18.5723 10.1127 17.167 10.1064 15.6993V15.6969ZM11.198 15.6969C11.1933 16.581 11.4522 17.4467 11.9419 18.1842C12.4316 18.9217 13.1301 19.4977 13.9488 19.8393C14.7675 20.181 15.6696 20.2728 16.5408 20.1032C17.412 19.9336 18.213 19.5102 18.8423 18.8866C19.4717 18.263 19.901 17.4674 20.0759 16.6005C20.2508 15.7337 20.1634 14.8346 19.8249 14.0172C19.4863 13.1999 18.9117 12.501 18.174 12.0093C17.4362 11.5176 16.5686 11.2551 15.6809 11.255C14.4951 11.2531 13.3569 11.72 12.5164 12.5533C11.6758 13.3866 11.2017 14.5181 11.198 15.6993V15.6969ZM7.00003 15.6625C6.99693 14.5347 7.22427 13.4181 7.66822 12.3806C8.11217 11.3431 8.76343 10.4065 9.58237 9.62772L10.2132 10.2822C8.94913 11.4921 8.15083 13.105 7.95709 14.8405C7.76336 16.576 8.18646 18.3242 9.1528 19.7811L8.39387 20.2786C7.48251 18.9104 6.99757 17.3044 7.00003 15.6625ZM22.3199 10.9212L23.0205 10.3428C23.7875 11.252 24.3499 12.3144 24.6698 13.4584L23.7951 13.7038C23.5106 12.6812 23.0074 11.7319 22.3199 10.9212ZM15.7885 8.08057C14.521 8.0793 13.274 8.39913 12.1647 9.01L11.6341 8.06421C12.9607 7.33594 14.4568 6.96952 15.9712 7.00198C17.4855 7.03445 18.9644 7.46466 20.2583 8.24911L19.6899 9.172C18.5151 8.45753 17.165 8.07986 15.7885 8.08057Z" fill="white"/>
</svg>
