<svg width="32" height="32" viewBox="0 0 32 32" fill="none" xmlns="http://www.w3.org/2000/svg">
<circle cx="16" cy="16" r="16" fill="#3A5598"/>
<path d="M25 16.0123L24.9992 16.0008V15.982C24.9992 15.9763 24.9992 15.9697 24.9975 15.964V15.9632C24.9932 15.9097 24.9788 15.8575 24.955 15.8094L24.9525 15.8053L24.9476 15.7955C24.8339 15.5868 22.0922 10.6818 16 10.6818C9.90782 10.6818 7.16609 15.586 7.05155 15.7955C7.04988 15.7987 7.04824 15.802 7.04664 15.8053L7.045 15.8086C7.02058 15.8568 7.00558 15.9093 7.00082 15.9632L7 15.982V16.0188C7.00287 16.0842 7.02079 16.148 7.05236 16.2054C7.16609 16.414 9.90945 21.3182 16.0008 21.3182C22.0922 21.3182 24.8347 16.414 24.9485 16.2054C24.9797 16.148 24.9973 16.0841 25 16.0188V16.0123ZM24.0918 16C23.6353 16.7102 21.9277 19.0657 18.8366 20.0418L18.9086 19.9886C18.9407 19.965 18.966 19.9333 18.9819 19.8968C18.9979 19.8603 19.004 19.8202 18.9996 19.7806C18.9952 19.741 18.9805 19.7032 18.9569 19.6711C18.9333 19.639 18.9017 19.6136 18.8653 19.5976C18.829 19.582 18.7892 19.5765 18.7501 19.5815C18.711 19.5865 18.6739 19.602 18.6427 19.6262C18.0995 20.0353 17.4711 20.3135 16.8059 20.4378C16.2701 20.4818 15.7316 20.4818 15.1957 20.4378C13.4088 20.1081 12.0032 18.7033 11.6514 16.8951C11.7398 16.8319 11.8048 16.7411 11.8361 16.6371C11.8675 16.533 11.8635 16.4215 11.8248 16.3199C11.7446 16.1105 11.5344 15.9828 11.3143 16.0115C11.0942 16.0401 10.9232 16.2176 10.8978 16.441C10.8725 16.6644 11.0017 16.8755 11.2095 16.9532C11.4401 18.1914 12.1349 19.2948 13.1519 20.0377C10.0682 19.06 8.36391 16.7094 7.90818 16C8.36882 15.2849 10.0968 12.9016 13.2305 11.9386C13.2104 11.9526 13.1905 11.9667 13.1707 11.9811C13.1323 12.0093 13.1037 12.0489 13.0891 12.0943C13.0744 12.1397 13.0743 12.1885 13.0889 12.2339C13.0995 12.2673 13.1178 12.2976 13.1423 12.3226C13.1668 12.3475 13.1969 12.3663 13.23 12.3775C13.2632 12.3887 13.2985 12.3918 13.3331 12.3868C13.3677 12.3818 13.4007 12.3686 13.4293 12.3485C14.0164 11.9238 14.6994 11.6509 15.4175 11.554C15.4313 11.5523 15.445 11.5493 15.4584 11.545C15.8194 11.5243 16.1814 11.5243 16.5425 11.545C16.5558 11.5493 16.5695 11.5523 16.5834 11.554C18.4259 11.7995 19.9215 13.2035 20.3257 15.0223C20.2464 15.0964 20.1938 15.1947 20.1762 15.3019C20.1585 15.409 20.1769 15.519 20.2284 15.6146C20.2785 15.7114 20.3602 15.7882 20.4599 15.8322C20.5596 15.8762 20.6714 15.8848 20.7767 15.8565C20.8819 15.8282 20.9744 15.7648 21.0386 15.6767C21.1029 15.5887 21.1351 15.4813 21.13 15.3725C21.1287 15.2641 21.0912 15.1594 21.0234 15.0749C20.9556 14.9903 20.8615 14.9309 20.7561 14.9061C20.4835 13.7028 19.7727 12.6441 18.7622 11.9361C21.9007 12.8966 23.632 15.2849 24.0926 16H24.0918ZM19.9436 16.0139C19.9436 13.8065 18.1747 12.0122 16 12.0122C13.8253 12.0122 12.0564 13.8073 12.0564 16.0139C12.0564 18.2206 13.8261 20.0173 16 20.0173C18.1739 20.0173 19.9436 18.2206 19.9436 16.0139ZM19.4985 16.0139C19.4985 17.9718 17.9293 19.5648 16 19.5648C14.0707 19.5648 12.5006 17.9718 12.5006 16.0139C12.5006 14.056 14.0715 12.4638 16 12.4638C17.9285 12.4638 19.4985 14.056 19.4985 16.0139ZM17.2895 14.9151C17.2895 14.3056 16.8648 13.7811 16.2749 13.6633C15.6858 13.5446 15.0967 13.8654 14.8676 14.4291C14.6385 14.9928 14.8349 15.6425 15.3365 15.9787L14.9863 18.1281C14.9783 18.1662 14.9792 18.2057 14.9887 18.2435C14.9982 18.2813 15.0161 18.3164 15.0412 18.3462C15.0662 18.3761 15.0977 18.3999 15.1332 18.4158C15.1688 18.4317 15.2075 18.4394 15.2465 18.4382H16.8174C16.9884 18.4382 17.1037 18.2991 17.0759 18.1281L16.7249 15.9796C17.0775 15.7431 17.2895 15.3438 17.2895 14.9159V14.9151ZM20.8461 16.5866C20.8499 16.5553 20.847 16.5234 20.8377 16.4932C20.8284 16.463 20.8128 16.4351 20.7919 16.4113C20.7711 16.3875 20.7454 16.3684 20.7167 16.3552C20.688 16.342 20.6568 16.335 20.6252 16.3346C20.5703 16.3351 20.5175 16.3557 20.4768 16.3925C20.4361 16.4293 20.4103 16.4797 20.4043 16.5343C20.3001 17.4656 19.9074 18.341 19.2809 19.0379C19.2423 19.0295 19.2022 19.0314 19.1645 19.0433C19.1268 19.0553 19.093 19.0769 19.0663 19.1061C19.0396 19.1352 19.021 19.1708 19.0124 19.2094C19.0038 19.248 19.0055 19.2881 19.0173 19.3259C19.0291 19.3636 19.0505 19.3975 19.0795 19.4244C19.1086 19.4512 19.1441 19.4699 19.1826 19.4787C19.2212 19.4875 19.2613 19.486 19.2991 19.4744C19.3369 19.4628 19.3709 19.4415 19.3979 19.4126C19.4364 19.4209 19.4765 19.4188 19.5139 19.4064C19.5513 19.3941 19.5847 19.3719 19.6106 19.3423C20.2999 18.5751 20.7318 17.6116 20.8461 16.5866ZM12.7706 12.6037C12.7495 12.5834 12.7245 12.5675 12.6971 12.5569C12.6698 12.5464 12.6406 12.5413 12.6112 12.5422C12.5819 12.543 12.5531 12.5497 12.5263 12.5618C12.4996 12.5739 12.4756 12.5912 12.4556 12.6127C11.7648 13.3515 11.3173 14.2845 11.1735 15.2857C11.1687 15.3177 11.1709 15.3503 11.1797 15.3813C11.1886 15.4123 11.204 15.4411 11.2249 15.4657C11.2459 15.4903 11.2718 15.5101 11.3011 15.5238C11.3303 15.5375 11.3622 15.5448 11.3945 15.5451C11.5049 15.5451 11.5982 15.4633 11.6145 15.352C11.7451 14.4425 12.1515 13.595 12.7788 12.9236C12.8196 12.88 12.8416 12.8221 12.8401 12.7624C12.8386 12.7027 12.8136 12.646 12.7706 12.6046V12.6037Z" fill="white"/>
</svg>
