<svg width="32" height="32" viewBox="0 0 32 32" fill="none" xmlns="http://www.w3.org/2000/svg">
<circle cx="16" cy="16" r="16" fill="#5FD3E0"/>
<path fill-rule="evenodd" clip-rule="evenodd" d="M24.8151 12.551L25 12.6806L24.9591 12.9074C24.9378 13.0832 24.793 13.7134 24.6146 14.3168C24.2889 15.4208 23.8591 16.492 23.3309 17.5163C22.5896 18.9468 21.6896 20.1942 20.6571 21.2213C19.3832 22.4865 17.9088 23.4196 16.2659 24.0012L16.1743 24.0336L15.9992 24.1L15.8274 24.0393L15.7308 24.0069C14.075 23.4182 12.5744 22.4678 11.3405 21.2261C10.303 20.1885 9.40382 18.9444 8.66664 17.5212C7.97949 16.1841 7.46018 14.7688 7.12027 13.3068C7.07936 13.1253 7.03436 12.8985 7.04255 12.9309L7 12.6977L7.09818 12.6167L7.17018 12.5559C8.67891 11.2988 10.4634 10.2207 12.3902 9.31428C13.6739 8.71002 14.848 8.26209 15.7341 7.98102L15.9943 7.90002L16.1718 7.95267L16.2602 7.98102C17.4018 8.35384 18.5179 8.79919 19.6016 9.31428C21.526 10.2182 23.308 11.2955 24.8151 12.551ZM8.22645 14.4157C8.53875 15.4087 8.94017 16.3722 9.42591 17.2944C9.421 17.2118 9.41773 17.1267 9.41773 17.0376C9.41773 14.1889 11.6612 11.8731 14.4675 11.7743C14.5346 11.7743 14.6066 11.7743 14.6737 11.7799L14.0045 11.1214C14.0045 11.1214 16.6987 10.6767 20.158 12.7349C20.158 12.7349 20.2087 12.8386 20.158 13.1464C20.158 13.1464 21.7878 13.8381 21.9277 15.1827C22.0668 16.5273 21.202 17.296 20.5041 17.4054C20.5041 17.4054 20.8665 16.8513 20.3094 16.5549C20.1878 16.4898 20.0505 16.4595 19.9125 16.4674C18.8473 16.4674 18.7245 17.6638 18.7245 17.6638C18.7131 17.7237 18.7131 17.7845 18.7131 17.8452C18.7131 17.8452 18.5585 19.3664 21.1038 19.5462C21.6855 18.8026 22.195 18.0064 22.6256 17.168C23.3058 15.8474 23.8151 14.4473 24.1417 13.0006C22.6592 11.7961 20.9099 10.765 19.0281 9.90072C18.3236 9.57672 17.6405 9.29565 16.9941 9.05427C16.5932 8.90523 16.2675 8.79345 15.9959 8.70597C15.7325 8.79021 15.397 8.90523 14.9961 9.05427C14.3505 9.29484 13.6665 9.57672 12.9621 9.90072C11.0819 10.7642 9.33264 11.7961 7.85009 13.0014C7.95228 13.4786 8.07788 13.9506 8.22645 14.4157ZM18.7687 13.2784L18.7802 13.2671C18.8252 13.2452 18.97 13.1739 19.1377 13.0038C19.4724 13.0476 19.8013 13.1521 19.8013 13.1521C19.1934 12.79 18.3621 12.5753 17.4408 12.5818C17.4408 12.5818 17.7926 13.0751 18.7687 13.2784Z" fill="white"/>
</svg>
