<svg width="32" height="32" viewBox="0 0 32 32" fill="none" xmlns="http://www.w3.org/2000/svg">
<circle cx="16" cy="16" r="16" fill="#5AA5A0"/>
<path fill-rule="evenodd" clip-rule="evenodd" d="M15.9933 7.427C17.5958 7.427 19.1755 7.80649 20.6031 8.53439C21.9372 9.23626 23.054 10.2896 23.8326 11.5805C24.615 12.9027 25.0186 14.4146 24.9993 15.9507C25.0193 17.5016 24.6159 19.0285 23.8326 20.3671C23.0587 21.6719 21.9417 22.7394 20.6031 23.4534C19.1778 24.189 17.5972 24.5729 15.9933 24.5729C14.3894 24.5729 12.8088 24.189 11.3835 23.4534C10.0507 22.7365 8.939 21.6694 8.16822 20.3671C7.38486 19.0297 6.9812 17.5039 7.0007 15.9541C6.98088 14.4177 7.38484 12.9056 8.16822 11.5838C8.94284 10.294 10.0545 9.23969 11.3835 8.53439C12.8111 7.80649 14.3908 7.427 15.9933 7.427ZM20.1167 16.0517L20.1166 16.0517C19.4123 15.2943 18.7598 14.5927 18.4808 13.9549C17.8057 12.4524 19.1022 10.8292 20.7597 9.77813C21.6613 10.3707 22.4181 11.1584 22.9741 12.083C23.1415 12.3669 23.2882 12.6625 23.413 12.9675C21.9364 14.2681 22.4683 15.4223 22.9339 16.4164L22.9358 16.4203C23.4008 17.4131 23.8446 18.3606 22.7614 19.8118C22.7578 19.8171 22.7531 19.8217 22.7476 19.8252C22.7421 19.8286 22.736 19.8309 22.7296 19.8319C22.7231 19.8331 22.7165 19.833 22.7101 19.8316C22.7037 19.8302 22.6976 19.8276 22.6923 19.8239C22.6869 19.8201 22.6823 19.8154 22.6788 19.8098C22.6753 19.8043 22.6729 19.7981 22.6718 19.7917C22.409 18.5127 21.2394 17.2572 20.2256 16.1689L20.2237 16.1668C20.1879 16.1284 20.1523 16.0901 20.1168 16.0519L20.1167 16.0517ZM8.13053 16.6727C8.26035 17.022 9.34076 19.5203 14.067 19.5923C15.8258 19.6191 17.3266 20.321 17.9816 21.4249C18.2515 21.8648 18.3693 22.3813 18.3166 22.8947C18.3172 22.9038 18.3209 22.9123 18.327 22.919C18.333 22.9257 18.3412 22.9301 18.3501 22.9316C18.4047 22.9298 18.4576 22.9123 18.5025 22.8813C19.0386 22.5463 19.4439 21.7925 19.0888 20.826C18.7538 19.7783 17.7019 18.831 16.1491 18.099H16.129C15.727 17.893 15.2914 17.697 14.845 17.5203C14.7371 17.4788 14.6373 17.4311 14.5414 17.3853C14.5309 17.3803 14.5204 17.3753 14.51 17.3704H14.4765C13.0334 16.5663 12.1951 15.4516 11.9832 14.0454V14.0253C11.8266 12.5386 12.4019 10.7354 13.5293 9.18934C13.6717 9.00006 13.8249 8.81999 13.9782 8.65081C13.2379 8.80654 12.5234 9.06624 11.8559 9.42218C10.7131 10.0302 9.75259 10.9312 9.07275 12.0328C8.4076 13.1849 8.06289 14.494 8.07441 15.8243C8.07844 15.8915 8.08228 15.9601 8.08614 16.0292L8.08614 16.0292C8.09834 16.2473 8.11081 16.4704 8.13053 16.6727ZM15.4749 8.53774C15.6813 8.50146 15.8901 8.48019 16.0997 8.47409C16.2574 8.46137 16.4158 8.45997 16.5737 8.4699H16.9087C17.9024 8.55036 18.874 8.80554 19.7789 9.22368C17.258 10.9657 16.9757 13.0185 17.567 14.3485C17.9297 15.1501 18.6885 15.965 19.4933 16.8293C21.3091 18.795 22.4121 20.1786 21.1558 21.4257C20.865 21.6721 20.5547 21.8945 20.2279 22.0907C20.2221 22.0948 20.2155 22.0976 20.2086 22.0989C20.2016 22.1002 20.1945 22.1 20.1877 22.0982C20.1813 22.0967 20.1753 22.0939 20.1701 22.09C20.1648 22.0861 20.1604 22.0812 20.1571 22.0756C20.1537 22.07 20.1515 22.0638 20.1506 22.0573C20.1497 22.0509 20.15 22.0443 20.1516 22.0379C20.1919 21.8184 20.2052 21.5948 20.191 21.3721C20.1408 20.3009 19.4054 18.2489 15.2052 16.5889C13.8752 16.0605 13.1231 15.1827 12.9673 13.9817C12.7177 12.0554 14.0511 9.64831 15.4749 8.53774Z" fill="white"/>
</svg>
