<svg width="32" height="32" viewBox="0 0 32 32" fill="none" xmlns="http://www.w3.org/2000/svg">
<circle cx="16" cy="16" r="16" fill="#FE7271"/>
<path d="M23.7718 22.3838L21.7988 17.0748H22.9768C23.1999 17.0751 23.4142 16.9876 23.5732 16.8311C23.7323 16.6747 23.8234 16.4619 23.8268 16.2388C23.8268 16.0288 23.7408 15.8258 23.5898 15.6778C23.4388 15.5299 23.2318 15.4449 23.0168 15.4449H21.1768L20.8818 14.6189H22.9768C23.1951 14.6208 23.4056 14.5377 23.5635 14.387C23.7215 14.2363 23.8145 14.03 23.8228 13.8119C23.8238 13.5899 23.7348 13.3779 23.5748 13.2219C23.4148 13.0659 23.1988 12.9779 22.9728 12.9789H20.2528L18.7799 9.01094C18.5581 8.44164 18.1942 7.93866 17.7229 7.54995C17.2528 7.17271 16.6622 6.97809 16.0599 7.00196C15.4558 6.98245 14.8641 7.17648 14.3889 7.54995C13.9177 7.93902 13.553 8.44138 13.3289 9.00993L11.786 13.0139H9.08199C8.86819 13.012 8.66232 13.0947 8.50927 13.244C8.35623 13.3933 8.26842 13.5971 8.265 13.8109C8.265 14.2689 8.64399 14.6399 9.11199 14.6399H11.165L10.849 15.4439H9.00899C8.90275 15.4427 8.79731 15.4624 8.69871 15.502C8.6001 15.5415 8.51025 15.6001 8.43429 15.6744C8.35834 15.7487 8.29775 15.8372 8.25601 15.9349C8.21426 16.0326 8.19217 16.1376 8.191 16.2438C8.191 16.6978 8.56499 17.0648 9.02699 17.0668H10.208L8.202 22.3828C8.079 22.6828 8.011 23.0008 8 23.3237C8.02 23.7767 8.222 24.2037 8.55999 24.5137C8.93411 24.8305 9.40979 25.002 9.89997 24.9967C10.3095 25.0214 10.7151 24.9055 11.0497 24.6682C11.3844 24.4309 11.6279 24.0864 11.74 23.6917L12.5159 21.4228H19.6598L20.4368 23.7457C20.5629 24.127 20.812 24.4557 21.145 24.6801C21.478 24.9045 21.8761 25.012 22.2768 24.9857C22.5868 24.9927 22.8918 24.9157 23.1608 24.7657C23.3938 24.5957 23.6008 24.3957 23.7748 24.1677C23.9266 23.9127 24.0045 23.6205 23.9998 23.3237C23.9511 23.0087 23.8748 22.6985 23.7718 22.3968V22.3838ZM13.6599 17.8868L16.0449 10.7749L18.4749 17.8868H13.6599Z" fill="white"/>
</svg>
