<svg width="32" height="32" viewBox="0 0 32 32" fill="none" xmlns="http://www.w3.org/2000/svg">
<circle cx="16" cy="16" r="16" fill="#6F0AEF"/>
<path d="M18.2737 7C17.3668 7 16.6316 7.7352 16.6316 8.64211V19.0632C17.5385 19.0632 18.2737 18.328 18.2737 17.4211V7Z" fill="white"/>
<path d="M10.8211 11.2316C10.8211 10.3247 11.5562 9.58947 12.4632 9.58947V20.4526C12.4632 21.3595 11.728 22.0947 10.8211 22.0947V11.2316Z" fill="white"/>
<path d="M15.3684 11.1053C14.4615 11.1053 13.7263 11.8405 13.7263 12.7474V19.0632C14.6332 19.0632 15.3684 18.328 15.3684 17.4211V11.1053Z" fill="white"/>
<path d="M21.1789 12.1158C20.272 12.1158 19.5368 12.851 19.5368 13.7579V21.9684C20.4437 21.9684 21.1789 21.2332 21.1789 20.3263V12.1158Z" fill="white"/>
<path d="M9.55789 15.6526C8.65098 15.6526 7.91579 16.3878 7.91579 17.2947V24.8737C8.82269 24.8737 9.55789 24.1385 9.55789 23.2316V15.6526Z" fill="white"/>
<path d="M22.4421 17.4842C22.4421 16.5773 23.1773 15.8421 24.0842 15.8421V23.3579C24.0842 24.2648 23.349 25 22.4421 25V17.4842Z" fill="white"/>
</svg>
