<svg width="32" height="32" viewBox="0 0 32 32" fill="none" xmlns="http://www.w3.org/2000/svg">
<circle cx="16" cy="16" r="16" fill="#4481B5"/>
<path d="M12.1836 14.8418C12.3187 15.0048 12.3899 15.2112 12.3841 15.4228C12.3783 15.6344 12.2959 15.8367 12.1521 15.992L15.6387 22.202C15.76 22.1456 15.8924 22.1168 16.0262 22.1176C16.16 22.1183 16.292 22.1487 16.4127 22.2065L19.7985 16.0973C19.693 16.0168 19.6071 15.9134 19.5473 15.795C19.4875 15.6765 19.4553 15.546 19.4531 15.4134C19.4509 15.2807 19.4789 15.1492 19.5348 15.0289C19.5907 14.9085 19.6732 14.8024 19.776 14.7185L16.1094 8.0585C16.059 8.0369 16.0446 8.045 16.0374 8.0576L12.1836 14.8418ZM11.8146 16.2224C11.6726 16.2775 11.5192 16.2961 11.3682 16.2764L9.12538 20.2247C9.33958 20.6774 9.59338 21.1103 9.88498 21.5189C10.5717 21.6809 12.3267 22.0985 15.1509 22.7753C15.1825 22.6584 15.2379 22.5493 15.3138 22.4549L11.8146 16.2224ZM11.3295 14.5277C11.5079 14.4971 11.6914 14.52 11.8569 14.5934L15.6027 8C12.7947 8.045 10.4448 8.5715 8.55118 9.5786L11.3295 14.5277ZM10.9515 14.6861L8.20108 9.7847C8.10099 9.86477 8.02161 9.96772 7.96961 10.0849C7.91761 10.202 7.89452 10.33 7.90228 10.4579L8.31808 17.1017C8.37542 18.0143 8.57933 18.9117 8.92198 19.7594L10.983 16.1324C10.8643 16.0539 10.7665 15.9478 10.6978 15.8232C10.6292 15.6986 10.5918 15.5593 10.5889 15.417C10.586 15.2748 10.6176 15.134 10.6811 15.0067C10.7445 14.8794 10.8379 14.7694 10.9533 14.6861H10.9515ZM16.8915 22.7843L22.1916 21.41C22.4364 21.0527 22.6542 20.6783 22.8432 20.2895L20.6166 16.2449C20.4719 16.289 20.3185 16.2964 20.1702 16.2665L16.734 22.4648C16.806 22.5584 16.8609 22.6664 16.8915 22.7843ZM16.2246 23.8643V25.9892C16.3022 25.9672 16.3762 25.9338 16.4442 25.8902L19.7049 23.8085C20.5035 23.2996 21.2137 22.6636 21.8073 21.9257L16.8969 23.1992C16.8584 23.362 16.775 23.5107 16.6561 23.6285C16.5373 23.7462 16.3877 23.8273 16.2246 23.8643ZM15.816 23.8643C15.6508 23.827 15.4996 23.7435 15.3801 23.6235C15.2605 23.5035 15.1776 23.352 15.141 23.1866C13.5187 22.7978 11.896 22.4108 10.2729 22.0256C10.8499 22.7213 11.5319 23.3228 12.2943 23.8085L15.555 25.8911C15.636 25.9433 15.7251 25.9793 15.816 26V23.8643ZM20.649 14.5637L23.421 9.5642C21.5652 8.5832 19.2729 8.063 16.5441 8.0027L20.1414 14.5385C20.3096 14.4988 20.4856 14.5075 20.649 14.5637ZM20.9937 14.7806C21.077 14.8639 21.1426 14.9632 21.1867 15.0725C21.2307 15.1818 21.2523 15.2989 21.25 15.4167C21.2477 15.5345 21.2217 15.6506 21.1735 15.7581C21.1253 15.8657 21.0558 15.9623 20.9694 16.0424L23.0511 19.8251C23.4095 18.9585 23.6224 18.0386 23.6811 17.1026L24.0978 10.4579C24.1057 10.3247 24.0802 10.1916 24.0236 10.0707C23.9671 9.94985 23.8812 9.84504 23.7738 9.7658L20.9937 14.7806ZM15.9996 12.2615C16.1268 12.2635 16.2484 12.3145 16.3391 12.4038C16.4298 12.4932 16.4826 12.614 16.4865 12.7412V14.4998L19.0839 16.1L18.7662 16.7399L16.4865 15.9389V17.6984L17.1363 18.1781V18.6578L15.9996 18.3383L14.8629 18.6578V18.1781L15.5127 17.6984V15.9398L13.1934 16.6994L12.9144 16.0991L15.5127 14.4998V12.7412C15.5166 12.614 15.5694 12.4932 15.66 12.4038C15.7507 12.3145 15.8723 12.2635 15.9996 12.2615Z" fill="white"/>
</svg>
