<svg width="32" height="32" viewBox="0 0 32 32" fill="none" xmlns="http://www.w3.org/2000/svg">
<circle cx="16" cy="16" r="16" fill="#C19B4F"/>
<path d="M7.00806 23.0358H12.0838C12.0838 22.8295 12.0015 22.6232 11.7124 22.6232C10.5982 22.6232 9.73161 21.8391 9.73161 20.5186C9.73161 19.8914 9.86916 13.5997 9.93794 10.5323C11.5473 13.4621 14.8651 19.4952 15.2612 20.1885C16.623 20.106 17.1595 20.7662 17.4483 21.0963C17.7372 21.4265 17.9435 21.0963 17.861 20.9725C17.795 20.8735 16.8981 19.2531 16.458 18.4553L20.5845 10.1196C20.6396 13.3108 20.7496 19.9491 20.7496 20.9725C20.7496 22.2518 19.5529 22.4994 19.0164 22.5819C18.5873 22.6479 18.5625 22.8845 18.6038 22.9946H25C25 22.7882 24.9186 22.6335 24.6286 22.6232C23.4732 22.5819 22.6891 21.9217 22.6891 20.9725C22.6891 20.271 22.524 11.6464 22.524 10.7386C22.524 9.83074 23.7208 9.50061 24.2572 9.45935C24.6864 9.42634 24.7386 9.11547 24.7111 8.96416H20.6671L16.2516 18.0427L11.1347 8.96416H7.37945C7.33819 9.10171 7.45373 9.37682 7.75085 9.37682C8.78249 9.37682 9.52528 10.1196 9.52528 10.9037C9.52528 11.6877 9.36022 18.7442 9.27769 20.5186C9.19515 22.293 7.75085 22.5406 7.33819 22.6232C7.00806 22.6892 6.98055 22.9258 7.00806 23.0358Z" fill="white"/>
</svg>
