<svg width="32" height="32" viewBox="0 0 32 32" fill="none" xmlns="http://www.w3.org/2000/svg">
<circle cx="16" cy="16" r="16" fill="#3B73F6"/>
<path fill-rule="evenodd" clip-rule="evenodd" d="M16.009 7L25 16.1269L24.6625 16.4329C24.5122 16.5769 24.352 16.7119 24.1837 16.8469C23.8903 17.0818 23.5798 17.3158 23.2693 17.5228C22.0101 18.3754 20.6096 18.9976 19.1329 19.3606C18.1107 19.6121 17.0617 19.7391 16.009 19.7386C14.6779 19.7386 13.3549 19.5397 12.0859 19.1347C10.7877 18.7272 9.56254 18.116 8.4562 17.3239C8.07314 17.0434 7.70286 16.7458 7.3465 16.432L7 16.126L16.009 7ZM9.9466 16.162L10.3462 15.991C12.0877 15.217 13.966 14.8111 15.8677 14.8021C18.105 14.8007 20.302 15.398 22.2307 16.5319L22.3558 16.6039L22.2307 16.6849C20.9554 17.503 19.5361 18.0628 18.0511 18.3328L18.0151 18.3418L17.9881 18.3238C15.7147 16.9099 13.1011 16.162 10.4353 16.162H9.9466Z" fill="white"/>
<path d="M19.2841 20.6395C19.7809 20.3956 21.0949 19.5676 21.0949 19.5676C20.694 20.113 20.2666 20.6392 19.816 21.1444L16.009 25L13.3288 22.2883L13.8967 22.2523C15.7924 22.135 17.6358 21.5832 19.2841 20.6395Z" fill="white"/>
</svg>
