<svg width="32" height="32" viewBox="0 0 32 32" fill="none" xmlns="http://www.w3.org/2000/svg">
<circle cx="16" cy="16" r="16" fill="black"/>
<path d="M11.0068 7.55638C10.7002 7.33345 10.2658 7.50308 10.1915 7.87475L7.01363 23.7641C6.89292 24.3676 7.60108 24.785 8.07062 24.3871L8.98513 23.612C10.9793 22.0207 16.5181 18.2572 21.0391 15.9585C21.3816 15.7844 21.4313 15.3122 21.1292 15.0748L20.3475 14.4606C20.1133 14.2766 19.7945 14.2416 19.5276 14.3738C16.5204 15.8629 13.6484 17.6437 11.2219 19.321C10.8355 19.5881 10.3137 19.2523 10.4026 18.7911L11.672 12.2094C11.7814 11.6418 12.4489 11.3866 12.9091 11.7363L16.4936 14.4606C16.6667 14.5922 16.9035 14.602 17.087 14.4853L18.2814 13.7252C18.5906 13.5284 18.6045 13.082 18.3081 12.8664L11.0068 7.55638Z" fill="white"/>
<path d="M23.2967 16.6258C23.0084 16.4207 22.6316 16.3876 22.3142 16.5462C21.3865 17.0098 19.2574 18.1102 17.2013 19.432C16.9263 19.6087 16.656 19.7842 16.3921 19.9568C16.0939 20.1518 16.0835 20.4976 16.2185 20.7528C16.3533 21.0078 16.6468 21.199 16.98 21.0783C18.8776 20.3914 20.638 19.7978 21.4138 19.5485C22.2302 19.286 23.3356 19.1066 24.3246 18.9924C24.6618 18.9534 24.8926 18.7079 24.9706 18.4271C25.0486 18.146 24.9759 17.8206 24.6981 17.623L23.2967 16.6258Z" fill="white"/>
</svg>
