<svg width="32" height="32" viewBox="0 0 32 32" fill="none" xmlns="http://www.w3.org/2000/svg">
<circle cx="16" cy="16" r="16" fill="#2262DC"/>
<path d="M21.9586 11.5746C22.1459 11.9622 21.673 12.2586 21.3433 11.9819C19.9772 10.8353 18.3885 9.90697 16.6117 9.26992C14.9884 8.68794 13.332 8.3935 11.6982 8.36032C11.268 8.35157 11.1068 7.81706 11.5027 7.64843C13.3121 6.87788 15.4051 6.76093 17.4022 7.47696C19.4813 8.22237 21.0675 9.73109 21.9586 11.5746Z" fill="white"/>
<path d="M22.1062 19.4821C21.8047 19.7893 21.3663 19.444 21.5154 19.0401C22.1335 17.3667 22.471 15.5573 22.471 13.669C22.471 11.9439 22.1893 10.2846 21.6693 8.73473C21.5324 8.32662 21.981 7.9945 22.2732 8.31048C23.6087 9.7545 24.4249 11.6862 24.4249 13.8086C24.4249 16.0182 23.5403 18.021 22.1062 19.4821Z" fill="white"/>
<path d="M14.268 9.97736C14.6259 9.73836 14.4741 9.20119 14.0497 9.2724C12.031 9.61112 10.1387 10.7113 8.84051 12.4989C7.59352 14.216 7.11886 16.2587 7.35087 18.2122C7.40164 18.6397 7.95969 18.6348 8.0887 18.2241C8.57866 16.6645 9.32561 15.1564 10.3392 13.7608C11.4486 12.2331 12.7848 10.9678 14.268 9.97736Z" fill="white"/>
<path d="M9.72304 15.8105C9.7894 15.3851 10.3468 15.4105 10.4606 15.8257C10.932 17.5463 11.7106 19.214 12.8096 20.7492C13.8136 22.1517 15.0083 23.3366 16.3331 24.2938C16.6819 24.5459 16.5105 25.0772 16.089 24.9905C14.1628 24.5944 12.375 23.4993 11.1398 21.7737C9.85389 19.9774 9.40739 17.8338 9.72304 15.8105Z" fill="white"/>
<path d="M14.7361 21.4778C14.3068 21.4493 14.1001 21.9678 14.4801 22.1699C16.2874 23.1312 18.4581 23.4115 20.5759 22.7847C22.6103 22.1826 24.2303 20.8515 25.2355 19.1607C25.4554 18.7908 25.0098 18.4546 24.6575 18.7018C23.3194 19.6403 21.809 20.3813 20.1555 20.8707C18.3455 21.4064 16.5155 21.5959 14.7361 21.4778Z" fill="white"/>
</svg>
