<svg width="32" height="32" viewBox="0 0 32 32" fill="none" xmlns="http://www.w3.org/2000/svg">
<circle cx="16" cy="16" r="16" fill="#3B424C"/>
<path d="M22.1597 12.692C22.4117 12.944 22.4117 13.3526 22.1597 13.6045L21.1901 14.5741C20.9381 14.8261 20.5296 14.8261 20.2776 14.5741L16.4562 10.7528C16.2043 10.5008 15.7957 10.5008 15.5437 10.7528L14.5171 11.7794C14.2651 12.0314 14.2651 12.44 14.5171 12.692L15.6007 13.7757C15.8527 14.0276 15.8527 14.4362 15.6007 14.6882L14.6312 15.6578C14.3792 15.9098 13.9706 15.9098 13.7186 15.6578L12.635 14.5741C12.383 14.3221 11.9744 14.3221 11.7224 14.5741L8.87066 17.4259C8.61868 17.6778 8.21011 17.6778 7.95811 17.4259L7.33074 16.7985C6.88975 16.3575 6.88975 15.6425 7.33074 15.2015L15.2015 7.33074C15.6425 6.88975 16.3575 6.88975 16.7985 7.33074L22.1597 12.692Z" fill="white"/>
<path d="M9.84026 19.308C9.58826 19.056 9.58826 18.6474 9.84026 18.3955L10.8098 17.4259C11.0618 17.1739 11.4704 17.1739 11.7224 17.4259L15.5437 21.2472C15.7957 21.4992 16.2043 21.4992 16.4562 21.2472L17.4829 20.2206C17.7349 19.9686 17.7349 19.56 17.4829 19.308L16.3992 18.2243C16.1472 17.9724 16.1472 17.5638 16.3992 17.3118L17.3688 16.3422C17.6208 16.0902 18.0294 16.0902 18.2814 16.3422L19.365 17.4259C19.617 17.6779 20.0256 17.6779 20.2776 17.4259L23.1293 14.5741C23.3813 14.3222 23.7899 14.3222 24.0419 14.5741L24.6692 15.2015C25.1102 15.6425 25.1102 16.3575 24.6692 16.7985L16.7985 24.6693C16.3575 25.1102 15.6425 25.1102 15.2015 24.6693L9.84026 19.308Z" fill="white"/>
</svg>
