<svg width="32" height="32" viewBox="0 0 32 32" fill="none" xmlns="http://www.w3.org/2000/svg">
<circle cx="16" cy="16" r="16" fill="#1D9AD7"/>
<path fill-rule="evenodd" clip-rule="evenodd" d="M9.74276 22.4688H9.86819C10.3407 20.6913 11.0185 18.7377 11.7751 16.7516C12.4686 14.942 13.2567 13.4367 14.092 12.1874C14.596 12.1874 15.1158 12.2195 15.6518 12.2516C16.3139 12.2999 17.0074 12.3798 17.7162 12.476C19.8914 12.7797 21.0574 13.2764 21.625 13.8693C21.1047 12.0277 19.2293 10.4583 15.5258 10.4741H15.4471C17.1019 8.64819 18.8041 7.91187 20.0652 8.42431C20.1221 8.44118 20.1755 8.46824 20.2227 8.50419C19.9021 8.07837 19.5235 7.75044 19.0876 7.54344C22.5374 8.80344 25 12.1143 25 16.0001C25 20.9709 20.9708 25.0001 16 25.0001C13.6642 25.0032 11.4194 24.095 9.74276 22.4688ZM9.72701 22.4536C8.86286 21.6158 8.17611 20.6127 7.70762 19.504C7.23913 18.3953 6.99849 17.2037 7.00001 16.0001C7.00001 15.4111 7.05626 14.8357 7.16426 14.2788C8.07382 13.2641 9.83276 12.5553 12.2324 12.2999C11.6648 13.4204 11.1608 14.7018 10.735 16.1587C10.0904 18.3952 9.77538 20.5518 9.72701 22.4531V22.4536ZM7.21657 14.0296C8.11488 10.0066 11.7064 7.00006 16 7.00006C16.8393 7.00006 17.6521 7.11481 18.4227 7.32969C16.7656 7.02031 14.8311 8.19931 13.1779 10.6664C10.1646 11.1502 8.10138 12.4507 7.21657 14.0296ZM16.9917 16.2712C15.9831 16.2712 15.1636 17.1037 15.1636 18.1612C15.1636 19.2018 15.9831 20.0506 16.9917 20.0506C18.0003 20.0506 18.8198 19.2018 18.8198 18.1606C18.8198 17.12 18.0003 16.2712 16.9917 16.2712Z" fill="white"/>
</svg>
