<svg width="32" height="32" viewBox="0 0 32 32" fill="none" xmlns="http://www.w3.org/2000/svg">
<circle cx="16" cy="16" r="16" fill="#368CCB"/>
<path d="M24.5788 10.6H18.7333L16.9999 14.947H11.5333V12.7087H16.9999L17.8 10.6H9.5218C9.41932 10.5995 9.32083 10.6397 9.24794 10.7117C9.17505 10.7838 9.13371 10.8818 9.133 10.9843V14.9461H7.801L7 17.0539H9.133V21.0112C9.133 21.2254 9.3094 21.4 9.5272 21.4H13.5331L14.3332 19.2931H11.5333V17.053H16.0666L14.3332 21.4H16.9999L18.8665 17.053H24.6085C24.8245 17.053 25 16.8802 25 16.6669V11.0149C24.999 10.904 24.9542 10.7981 24.8752 10.7203C24.7962 10.6425 24.6896 10.5993 24.5788 10.6ZM22.7338 14.614C22.7338 14.7976 22.5835 14.947 22.3972 14.947H19.6666L20.5999 12.7096H22.3954C22.4843 12.7086 22.5699 12.743 22.6335 12.805C22.6971 12.8671 22.7335 12.9519 22.7347 13.0408L22.7338 14.614Z" fill="white"/>
</svg>
