<svg width="32" height="32" viewBox="0 0 32 32" fill="none" xmlns="http://www.w3.org/2000/svg">
<circle cx="16" cy="16" r="16" fill="#D72966"/>
<path fill-rule="evenodd" clip-rule="evenodd" d="M20.912 17.6735C21.1237 17.052 21.2144 16.3993 21.183 15.7503C21.1648 15.3741 21.1056 14.9991 21.0052 14.6321L17.3792 17.3644L15.0838 14.3184L19.0002 11.3667L15.7249 7.0196C15.8196 7.0166 15.9143 7.01511 16.009 7.01511C16.3462 7.01513 16.6824 7.03399 17.016 7.07135C17.9897 7.1804 18.9416 7.44706 19.8337 7.86294C21.4702 8.63341 22.8366 9.87911 23.7546 11.4376C24.6727 12.9961 25.0998 14.7951 24.9803 16.5999C24.8609 18.4048 24.2003 20.1318 23.0848 21.5556C21.9694 22.9795 20.4507 24.0343 18.7269 24.5823L16.1618 21.1775C16.5467 21.1677 16.927 21.1147 17.2959 21.0209C17.9559 20.8531 18.5797 20.5546 19.1288 20.139C19.9564 19.514 20.5775 18.6551 20.912 17.6735ZM21.5807 12.9464L17.576 15.964L16.4842 14.5151L20.4006 11.5635L17.8961 8.23947C18.4153 8.36467 18.9224 8.54157 19.4094 8.76846C20.8633 9.45338 22.0773 10.5604 22.893 11.9452C23.709 13.3305 24.0887 14.9296 23.9825 16.5339C23.8763 18.1382 23.2892 19.6733 22.2976 20.9389C21.4502 22.0207 20.3409 22.8628 19.0798 23.3888L17.9392 21.8748C18.5808 21.6648 19.1871 21.349 19.7319 20.9367C20.7188 20.1911 21.4596 19.1668 21.8585 17.996C22.2575 16.8251 22.2962 15.5614 21.9697 14.3682L21.5807 12.9464Z" fill="white"/>
<path d="M8.24538 20.5701C9.16344 22.1286 10.5298 23.3743 12.1663 24.1448C13.3641 24.7031 14.6695 24.9925 15.991 24.9926C16.0857 24.9926 16.1804 24.9911 16.2751 24.9881L12.9998 20.641L16.9162 17.6893L14.6208 14.6433L10.9948 17.3756C10.7211 16.3753 10.7536 15.3159 11.088 14.3342C11.4225 13.3526 12.0436 12.4937 12.8712 11.8687C13.7272 11.2207 14.7649 10.8575 15.8382 10.8302L13.2731 7.42542C11.5493 7.97345 10.0306 9.02817 8.91516 10.4521C7.79968 11.8759 7.13913 13.6029 7.01966 15.4078C6.90018 17.2126 7.32732 19.0116 8.24538 20.5701Z" fill="white"/>
</svg>
