<svg xmlns="http://www.w3.org/2000/svg" viewBox="6180 -1921 24 24"><defs><style>.a{fill:none;}.b{fill:#15c;}</style></defs><g transform="translate(6180 -1921.006)"><rect class="a" width="24" height="24" transform="translate(0 0.006)"/><path class="b" d="M8,8h7.586l-2.293,2.293,1.414,1.414,4-4a1,1,0,0,0,0-1.414l-4-4L13.293,3.708,15.586,6H8a6.006,6.006,0,0,0-6,6H4A4.005,4.005,0,0,1,8,8Z"/><path class="b" d="M20,12a4.005,4.005,0,0,1-4,4H8.414l2.293-2.293L9.293,12.294l-4,4a1,1,0,0,0,0,1.414l4,4,1.414-1.414L8.414,18H16a6.006,6.006,0,0,0,6-6H20Z"/></g></svg>