<svg xmlns="http://www.w3.org/2000/svg" viewBox="2652 -831 13 8">
  <defs>
    <style>
      .cls-1 {
        opacity: 0.3;
      }

      .cls-2 {
        fill: #3d4f6c;
      }
    </style>
  </defs>
  <g id="eye" class="cls-1" transform="translate(2652 -929.725)">
    <path id="Path_6967" data-name="Path 6967" class="cls-2" d="M6.5,98.725a8.051,8.051,0,0,0-6.4,3.682.545.545,0,0,0,0,.634,8.047,8.047,0,0,0,6.4,3.684,8.051,8.051,0,0,0,6.4-3.682.545.545,0,0,0,0-.634A8.047,8.047,0,0,0,6.5,98.725Zm.178,6.817a2.824,2.824,0,0,1-.356-5.633,2.824,2.824,0,0,1,.356,5.633Zm-.082-1.3a1.521,1.521,0,1,1,1.375-1.419A1.494,1.494,0,0,1,6.6,104.24Z" transform="translate(0 0)"/>
  </g>
</svg>
