<svg xmlns="http://www.w3.org/2000/svg" viewBox="3348.998 3946.999 12.002 12.001"><defs><style>.a{fill:#15c;}</style></defs><path class="a" d="M24,19V17H22.9a4.963,4.963,0,0,0-.733-1.753l.784-.784-1.414-1.414-.785.784A4.937,4.937,0,0,0,19,13.1V12H17v1.1a4.94,4.94,0,0,0-1.753.73l-.783-.783-1.414,1.415.783.783A4.957,4.957,0,0,0,13.1,17H12v2h1.1a4.966,4.966,0,0,0,.732,1.754l-.784.784,1.415,1.414.783-.785A4.951,4.951,0,0,0,17,22.9V24h2V22.9a4.945,4.945,0,0,0,1.753-.733l.784.784,1.413-1.415-.784-.783A4.955,4.955,0,0,0,22.9,19H24Zm-6,1a2,2,0,1,1,2-2A2,2,0,0,1,18,20Z" transform="translate(3337 3935)"/></svg>