<svg xmlns="http://www.w3.org/2000/svg" viewBox="6953 -1890 24.002 24"><defs><style>.a{fill:none;}.b{fill:#fff;}</style></defs><g transform="translate(6953 -1890)"><rect class="a" width="24" height="24"/><path class="b" d="M8,8h4V9.994h2V8h3.737A8,8,0,0,1,18,9.994h2A10,10,0,1,0,10,20V18a7.959,7.959,0,0,1-2-.264V14h2V12H8Zm6-4.918A8.051,8.051,0,0,1,16.918,6H14ZM8,2.264a7.708,7.708,0,0,1,4,0V6H8ZM6,16.918A8.041,8.041,0,0,1,3.083,14H6ZM6,12H2.264a7.708,7.708,0,0,1,0-4H6ZM6,6H3.083A8.041,8.041,0,0,1,6,3.082Z"/><path class="b" d="M24,18.994v-2H22.9a4.968,4.968,0,0,0-.733-1.754l.784-.784-1.414-1.414-.784.785A4.936,4.936,0,0,0,19,13.1v-1.1H17v1.1a4.96,4.96,0,0,0-1.753.731l-.783-.783-1.414,1.414.783.783a4.949,4.949,0,0,0-.731,1.753H12v2h1.1a4.954,4.954,0,0,0,.732,1.753l-.784.785,1.415,1.413.783-.784A4.943,4.943,0,0,0,17,22.893v1.1h2v-1.1a4.974,4.974,0,0,0,1.753-.733l.784.783,1.413-1.415-.783-.782a4.955,4.955,0,0,0,.731-1.752Zm-6,1a2,2,0,1,1,2-2A2,2,0,0,1,18,19.994Z"/></g></svg>