<svg xmlns="http://www.w3.org/2000/svg" viewBox="10654 1468 24 24"><defs><style>.a{fill:none;}.b{fill:#fff;}</style></defs><g transform="translate(10654 1468)"><rect class="a" width="24" height="24"/><rect class="b" width="4" height="4" transform="translate(2 3)"/><rect class="b" width="4" height="4" transform="translate(8 3)"/><rect class="b" width="4" height="4" transform="translate(2 9)"/><rect class="b" width="4" height="4" transform="translate(8 9)"/><rect class="b" width="4" height="4" transform="translate(2 15)"/><rect class="b" width="4" height="4" transform="translate(8 15)"/><rect class="b" width="4" height="4" transform="translate(14 3)"/><path class="b" d="M22,21H16a1,1,0,0,1-.929-.629l-2-5A1,1,0,0,1,14,14h1V10a1,1,0,0,1,1-1h3a1,1,0,0,1,1,1v3.279l2.316.772A1,1,0,0,1,23,15v5A1,1,0,0,1,22,21Zm-5.323-2H21V15.72l-2.316-.772A1,1,0,0,1,18,14V11H17v4a1,1,0,0,1-1,1h-.523Z"/></g></svg>