<svg xmlns="http://www.w3.org/2000/svg" viewBox="9215 1413 24 24"><defs><style>.a{fill:none;}.b{fill:#fff;}</style></defs><g transform="translate(9215 1413)"><rect class="a" width="24" height="24"/><path class="b" d="M3,10H9a1,1,0,0,0,1-1V3A1,1,0,0,0,9,2H3A1,1,0,0,0,2,3V9A1,1,0,0,0,3,10ZM4,4H8V8H4Z"/><path class="b" d="M21,2H17a1,1,0,0,0-1,1V7a1,1,0,0,0,1,1h4a1,1,0,0,0,1-1V3A1,1,0,0,0,21,2ZM20,6H18V4h2Z"/><path class="b" d="M7,16H3a1,1,0,0,0-1,1v4a1,1,0,0,0,1,1H7a1,1,0,0,0,1-1V17A1,1,0,0,0,7,16ZM6,20H4V18H6Z"/><rect class="b" width="4" height="2" transform="translate(11 2)"/><path class="b" d="M12,9h3V7H13V5H11V8A1,1,0,0,0,12,9Z"/><path class="b" d="M16,10v4a1,1,0,0,0,1,1h3v1h2V14a1,1,0,0,0-1-1H18V11h4V9H17A1,1,0,0,0,16,10Z"/><path class="b" d="M10,15V12a1,1,0,0,0-1-1H2v2H4v2H6V13H8v2Z"/><rect class="b" width="4" height="2" transform="translate(11 13)"/><rect class="b" width="3" height="2" transform="translate(12 10)"/><path class="b" d="M15,18v2H11V19H9v2a1,1,0,0,0,1,1h6a1,1,0,0,0,1-1V19h5V17H16A1,1,0,0,0,15,18Z"/><rect class="b" width="2" height="3" transform="translate(12 16)"/><rect class="b" width="2" height="2" transform="translate(9 16)"/><rect class="b" width="4" height="2" transform="translate(18 20)"/></g></svg>