<svg xmlns="http://www.w3.org/2000/svg" viewBox="6362 2382 24 24"><defs><style>.a{fill:none;}.b{fill:#fff;}</style></defs><g transform="translate(6362 2382)"><rect class="a" width="24" height="24"/><rect class="b" width="6" height="2" transform="translate(0 6)"/><rect class="b" width="5" height="2" transform="translate(1 10)"/><rect class="b" width="4" height="2" transform="translate(2 14)"/><path class="b" d="M23,6H9A1,1,0,0,0,8,7V17a1,1,0,0,0,1,1H23a1,1,0,0,0,1-1V7A1,1,0,0,0,23,6Zm-1,4.586L19.414,8H22ZM10,13.414,12.586,16H10ZM15.414,16,10,10.586V8h6.586L22,13.414V16Z"/><circle class="b" cx="2" cy="2" r="2" transform="translate(14 10)"/></g></svg>