<svg xmlns="http://www.w3.org/2000/svg" viewBox="8918 -95 16 16"><defs><style>.a{fill:none;}.b{fill:#15c;}</style></defs><rect class="a" width="16" height="16" transform="translate(8918 -95)"/><g transform="translate(8908.002 -93)"><path class="b" d="M18,10a3.948,3.948,0,0,1-2.811-1.189L17,7H12v5l1.762-1.762A5.939,5.939,0,0,0,18,12a6.006,6.006,0,0,0,6-6H22A4.005,4.005,0,0,1,18,10Z"/><path class="b" d="M22.238,1.761A5.941,5.941,0,0,0,18,0a6.006,6.006,0,0,0-6,6h2a4.005,4.005,0,0,1,4-4,3.949,3.949,0,0,1,2.811,1.188L19,5h5V0Z"/></g></svg>