<?xml version="1.0" encoding="utf-8"?>
<!-- Generator: Adobe Illustrator 21.1.0, SVG Export Plug-In . SVG Version: 6.00 Build 0)  -->
<svg version="1.1" id="Слой_1" xmlns="http://www.w3.org/2000/svg" xmlns:xlink="http://www.w3.org/1999/xlink" x="0px" y="0px"
	 viewBox="0 0 36 36" style="enable-background:new 0 0 36 36;" xml:space="preserve">
<style type="text/css">
	.st0{fill:#FFFFFF;}
</style>
<g>
	<g>
		<path class="st0" d="M18,30.3l3.1-3.1c-2,0.7-3.8,1-5.1,1L18,30.3z"/>
	</g>
	<g>
		<path class="st0" d="M25.9,19c-5.2-2.5-10.1-2-12.9-1.3c4.6,0.7,7.5,2.4,8.2,2.8C21.9,20.4,24.3,20,25.9,19z"/>
	</g>
	<g>
		<path class="st0" d="M5.7,18c5.4,5,16.9,7.2,24.6,0L18,5.7L5.7,18z M27.1,18.5l0.6,0.3l-0.5,0.5c-2,1.8-5.8,2.2-6,2.2l-0.2,0
			l-0.2-0.1c0,0-3.8-2.7-10.3-3l-2.1-0.1l1.9-0.8C10.7,17.3,18.6,13.8,27.1,18.5z"/>
	</g>
	<g>
		<path class="st0" d="M18,0C8.1,0,0,8.1,0,18c0,9.9,8.1,18,18,18s18-8.1,18-18C36,8.1,27.9,0,18,0z M18,31.7l-4.4-4.4h1.2
			c1.5,0,4.6-0.2,8.1-1.9l2.5-1.2L18,31.7z M18.4,23.6c-5.5,0-10.7-2.2-13.8-5.2L4.3,18L18,4.3L31.7,18l-0.4,0.4
			C27.6,22.1,22.9,23.6,18.4,23.6z"/>
	</g>
</g>
</svg>
