<?xml version="1.0" encoding="utf-8"?>
<!-- Generator: Adobe Illustrator 21.1.0, SVG Export Plug-In . SVG Version: 6.00 Build 0)  -->
<svg version="1.1" id="Слой_1" xmlns="http://www.w3.org/2000/svg" xmlns:xlink="http://www.w3.org/1999/xlink" x="0px" y="0px"
	 viewBox="0 0 36 36" style="enable-background:new 0 0 36 36;" xml:space="preserve">
<style type="text/css">
	.st0{fill:#0050db;}
</style>
<g>
	<path class="st0" d="M18,0C8.1,0,0,8.1,0,18c0,9.9,8.1,18,18,18s18-8.1,18-18C36,8.1,27.9,0,18,0z M18,6c0,0,1.7,2.2,3.6,5.1
		c-1.6,1.3-3,2.1-3.6,2.4c-0.6-0.3-2-1.2-3.6-2.4C16.3,8.2,18,6,18,6z M18,30c-4.6,0-8.4-3.8-8.4-8.4c0-2.3,2-6,4-9.3
		c2.2,1.8,4,2.6,4.1,2.7l0.3,0.2l0.3-0.2c0.1,0,1.8-0.9,4-2.6c2,3.3,4,7,4,9.2C26.4,26.2,22.6,30,18,30z"/>
</g>
</svg>
