<svg xmlns="http://www.w3.org/2000/svg" viewBox="8991 2226 36 36"><defs><style>.a,.b{fill:#0050db;}.a{opacity:0;}</style></defs><g transform="translate(8421 1498)"><rect class="a" width="36" height="36" transform="translate(570 728)"/><path class="b" d="M-4151.5,1468a6.743,6.743,0,0,1-3.382-.909l-9.727-5.617a6.787,6.787,0,0,1-3.393-5.866v-11.216a6.81,6.81,0,0,1,3.393-5.866l9.727-5.617a6.814,6.814,0,0,1,3.4-.91,6.662,6.662,0,0,1,3.367.91l9.728,5.617a6.787,6.787,0,0,1,3.391,5.866v11.216a6.813,6.813,0,0,1-3.391,5.866l-9.728,5.617A6.742,6.742,0,0,1-4151.5,1468Zm-5.595-11.572-1.8,1.8a4.974,4.974,0,0,0,3.586,1.48,5.09,5.09,0,0,0,5.087-5.081v-1.534a5.051,5.051,0,0,0,2.534.678,4.928,4.928,0,0,0,3.605-1.463l-1.8-1.8a2.536,2.536,0,0,1-1.8.749,2.536,2.536,0,0,1-2.534-2.532v-8.452h-2.533v14.371a2.537,2.537,0,0,1-2.535,2.532A2.533,2.533,0,0,1-4157.095,1456.428Z" transform="translate(4739.501 -704)"/></g></svg>