<svg width="32" height="32" viewBox="0 0 32 32" fill="none" xmlns="http://www.w3.org/2000/svg">
<circle cx="16" cy="16" r="16" fill="#63315C"/>
<path fill-rule="evenodd" clip-rule="evenodd" d="M15.1465 9.11824C13.5024 9.11824 12.1695 10.4511 12.1695 12.0952C12.1695 13.174 12.7426 14.1198 13.606 14.6433L14.2954 15.0614L13.3377 18.4484L15.6203 19.0584L15.0735 21.1048L12.7613 20.4869L12.2441 22.3163L10.2057 21.7399L11.8373 15.9696C10.7455 15.0361 10.0513 13.6471 10.0513 12.0952C10.0513 9.28121 12.3325 7 15.1465 7C17.9605 7 20.2417 9.28121 20.2417 12.0952C20.2417 13.6528 19.5424 15.0462 18.4437 15.9798L19.237 19.0107L21.3977 18.4291L21.9483 20.4746L19.7733 21.0599L20.1214 22.3897L18.0721 22.926L16.0115 15.0529L16.687 14.6433C17.5504 14.1198 18.1235 13.174 18.1235 12.0952C18.1235 10.4511 16.7907 9.11824 15.1465 9.11824ZM11.9499 24.4376L12.4938 22.4625L14.536 23.0249L13.9921 25L11.9499 24.4376Z" fill="white"/>
</svg>
