<svg width="32" height="32" viewBox="0 0 32 32" fill="none" xmlns="http://www.w3.org/2000/svg">
<circle cx="16" cy="16" r="16" fill="#553580"/>
<path fill-rule="evenodd" clip-rule="evenodd" d="M19.2906 16.2563C19.0936 15.6927 18.7536 15.19 18.3038 14.7974L18.1328 14.655L18.123 14.6452C18.0683 14.6009 18.0112 14.5597 17.952 14.5216L17.9455 14.5126C17.8882 14.475 17.8317 14.4365 17.7654 14.3989C17.7556 14.3989 17.7556 14.3891 17.7466 14.3891C17.6886 14.3538 17.6285 14.3221 17.5666 14.2942C17.5568 14.2942 17.5568 14.2844 17.5478 14.2844C17.4905 14.2557 17.4242 14.2279 17.358 14.2025C17.3482 14.2025 17.3482 14.1927 17.3391 14.1927C17.2819 14.1739 17.2254 14.1453 17.1681 14.1264C17.0143 14.0679 16.8555 14.0236 16.6936 13.9939C16.568 14.2275 16.4046 14.4388 16.21 14.619C16.497 14.6402 16.7788 14.7074 17.0446 14.8178C17.1956 14.8822 17.3415 14.9583 17.4807 15.0453C17.4879 15.0464 17.4945 15.0499 17.4995 15.0551C17.5366 15.0773 17.5717 15.1028 17.6043 15.1312C17.6223 15.1407 17.6384 15.1535 17.6517 15.1689C17.6856 15.1913 17.7174 15.2167 17.7466 15.245C17.7654 15.2638 17.7843 15.2736 17.8039 15.2924C17.8235 15.3112 17.8612 15.3399 17.8857 15.3685L17.943 15.425L18.0191 15.5011L18.0764 15.5575C18.096 15.5849 18.1182 15.6104 18.1426 15.6336C18.1615 15.6524 18.1803 15.6811 18.1999 15.6999L18.2572 15.7817C18.2764 15.8048 18.2924 15.8304 18.3047 15.8578L18.3619 15.9396C18.3756 15.9663 18.3914 15.9918 18.4094 16.0157C18.4282 16.0444 18.438 16.0722 18.4568 16.0976C18.4757 16.1229 18.4855 16.154 18.5043 16.1794C18.5231 16.2047 18.5329 16.2358 18.5419 16.2612C18.556 16.2966 18.5718 16.3313 18.5894 16.3651C18.6694 16.5595 18.7244 16.7632 18.753 16.9714L18.8349 17.3028C19.0024 18.0126 19.4201 18.6383 20.0115 19.0653C20.9222 19.539 22.1266 20.129 22.6012 20.354L16.3499 24.1006V21.5429C16.3499 21.1337 17.1559 20.6616 17.5265 20.5004L17.5453 20.4906C17.6214 20.453 17.6967 20.4145 17.7728 20.3671L17.8014 20.3482C17.9628 20.2518 18.1151 20.1409 18.2564 20.0169C18.2662 20.007 18.285 19.998 18.294 19.9792C18.303 19.9604 18.3227 19.9506 18.3415 19.9416C18.3889 19.9039 18.4233 19.8598 18.474 19.818L18.4929 19.7992C18.5419 19.7533 18.5863 19.7026 18.6254 19.6478C18.6352 19.629 18.654 19.6192 18.663 19.6004C18.7002 19.558 18.7352 19.5138 18.7678 19.4678C18.7776 19.458 18.7866 19.4392 18.7964 19.4302L18.9101 19.26C18.9101 19.2502 18.92 19.2502 18.92 19.2412C18.9674 19.1651 19.0149 19.0775 19.0623 19.0047C18.8871 18.789 18.7375 18.5537 18.6164 18.3035C18.568 18.4447 18.5078 18.5815 18.4364 18.7126C18.4078 18.7691 18.3701 18.8263 18.3415 18.8828C18.3317 18.8926 18.3317 18.9016 18.3227 18.9016C18.2933 18.9474 18.2616 18.9916 18.2277 19.0342C18.2179 19.044 18.2089 19.0628 18.1991 19.0718C18.1694 19.1172 18.1343 19.1587 18.0944 19.1954C18.0846 19.2052 18.0846 19.2142 18.0756 19.2142C17.8465 19.4742 17.5685 19.6866 17.2573 19.8393L17.2001 19.8679C17.0364 19.9342 15.6454 20.5692 15.6454 21.5257V24.0834L9.38762 20.3581C10.192 19.8537 11.0471 19.4352 11.9389 19.1094C12.3185 18.9859 13.1245 19.4981 13.5802 19.8671L13.6089 19.8958C13.6676 19.9554 13.7311 20.0101 13.7987 20.0594L13.8175 20.0782C13.961 20.1985 14.1168 20.3033 14.2823 20.3908L14.396 20.4472C14.4032 20.4483 14.4098 20.4518 14.4148 20.4571C14.5195 20.5132 14.6271 20.5637 14.7372 20.6084C14.756 20.6183 14.7658 20.6183 14.7846 20.6273C14.8035 20.6363 14.8035 20.6371 14.8223 20.6371C14.9808 20.6932 15.1422 20.7407 15.3059 20.7794C15.4342 20.5456 15.6 20.3344 15.7968 20.1543C15.5303 20.1371 15.268 20.0797 15.0187 19.9841C15.0088 19.9743 14.99 19.9743 14.981 19.9653C14.9522 19.9565 14.9247 19.9438 14.8992 19.9277C14.8894 19.9179 14.8706 19.9179 14.8616 19.9089C14.8353 19.8982 14.8098 19.8857 14.7855 19.8712C14.5994 19.7811 14.4242 19.6699 14.2634 19.5398L14.018 19.3124C13.7905 19.1119 13.5438 18.9343 13.2816 18.7822C13.0611 18.6256 12.8116 18.5148 12.5477 18.4562C12.2838 18.3976 12.0109 18.3924 11.7449 18.441C10.9328 18.7296 10.1512 19.0977 9.41135 19.5398L15.6544 8.31621V13.2338C15.6544 13.4039 15.3983 13.8589 14.5351 14.2475L14.4778 14.2762C14.396 14.3138 14.3142 14.358 14.2323 14.4087L14.2135 14.4185C14.0505 14.5172 13.8952 14.628 13.7488 14.7499C13.6567 14.8244 13.571 14.9065 13.4927 14.9954L13.4828 15.0052C13.3994 15.0867 13.3233 15.1754 13.2554 15.2703L13.2456 15.2801C13.2079 15.3276 13.1793 15.3751 13.1408 15.4225C13.1408 15.4323 13.131 15.4323 13.131 15.4413C13.1024 15.4888 13.0737 15.5232 13.0492 15.5739C13.0492 15.5837 13.0394 15.5837 13.0394 15.5927L12.9575 15.7351C12.9477 15.7449 12.9477 15.7539 12.9387 15.7727C12.9101 15.8202 12.8913 15.8676 12.8724 15.9053C12.8714 15.9125 12.8679 15.9191 12.8626 15.9241C12.8438 15.9715 12.825 16.0059 12.8054 16.0566C12.7955 16.0755 12.7955 16.0853 12.7865 16.1041L12.7293 16.2465C12.7194 16.2653 12.7194 16.2751 12.7104 16.2939C12.7021 16.3299 12.6895 16.3648 12.6728 16.3978C12.663 16.4167 12.663 16.4355 12.654 16.4543C12.6442 16.5018 12.6253 16.5492 12.6163 16.5869C12.6065 16.6057 12.6065 16.6343 12.5975 16.6531C12.5885 16.6719 12.5877 16.7194 12.5787 16.748C12.5697 16.7767 12.5689 16.8045 12.5599 16.8299C12.5509 16.8552 12.5501 16.906 12.5411 16.9436C12.5321 16.9812 12.5312 16.9911 12.5312 17.0197C12.5312 17.0483 12.5214 17.086 12.5214 17.1236C12.5229 17.1585 12.5195 17.1935 12.5116 17.2275V17.3699C12.5082 17.5413 12.5195 17.7126 12.5452 17.8821C12.8145 17.9512 13.0755 18.0497 13.3233 18.1758C13.2484 17.9266 13.2068 17.6685 13.1997 17.4083V17.3609C13.1983 17.2975 13.2015 17.234 13.2096 17.1711V17.1236C13.211 17.0686 13.2173 17.0138 13.2284 16.96V16.9411C13.2382 16.8847 13.2472 16.8274 13.257 16.7611C13.257 16.7423 13.2668 16.7325 13.2668 16.7137C13.2767 16.6662 13.2955 16.6188 13.3045 16.5713C13.3045 16.5615 13.3143 16.5525 13.3143 16.5427L13.3716 16.3725C13.3814 16.3627 13.3814 16.3438 13.3904 16.3348C13.4092 16.2874 13.428 16.2399 13.4477 16.2023C13.4575 16.1925 13.4575 16.1835 13.4665 16.1646C13.4881 16.1113 13.5156 16.0606 13.5483 16.0133C13.5581 16.0035 13.5581 15.9945 13.5671 15.9846C13.5958 15.9372 13.6146 15.9028 13.6432 15.8521C13.653 15.8423 13.653 15.8333 13.662 15.8234C13.6938 15.7738 13.7288 15.7262 13.7668 15.6811C13.7666 15.6798 13.7668 15.6784 13.7673 15.6772C13.7677 15.6759 13.7684 15.6748 13.7694 15.6738C13.7703 15.6729 13.7714 15.6722 13.7727 15.6717C13.7739 15.6713 13.7753 15.6711 13.7766 15.6713C13.8142 15.6238 13.8429 15.5894 13.8813 15.5387C13.8911 15.5289 13.8911 15.5199 13.9001 15.5101C14.0706 15.3217 14.2651 15.1567 14.4786 15.0191L14.7724 14.8768C14.936 14.8105 16.3188 14.1567 16.3188 13.2002V8.31621L22.6274 19.6282C22.0677 19.3533 21.0727 18.8607 20.3036 18.463C19.8904 18.1234 19.6003 17.6574 19.478 17.1367L19.3962 16.7955C19.3889 16.6112 19.3536 16.4291 19.2914 16.2555L19.2906 16.2563ZM23.5593 19.8188L16.606 7.3597C16.5464 7.25081 16.4586 7.15996 16.3517 7.09668C16.2449 7.03339 16.123 7 15.9989 7C15.8747 7 15.7529 7.03339 15.6461 7.09668C15.5392 7.15996 15.4514 7.25081 15.3918 7.3597L8.43847 19.818C8.35044 19.9743 8.32683 20.1588 8.37267 20.3322C8.41851 20.5056 8.53018 20.6543 8.68394 20.7467L15.6462 24.9058C15.7563 24.9676 15.8804 25 16.0067 25C16.1329 25 16.257 24.9676 16.3671 24.9058L23.322 20.7557C23.4747 20.6601 23.5846 20.5092 23.6288 20.3345C23.673 20.1598 23.6481 19.9748 23.5593 19.818V19.8188Z" fill="white"/>
</svg>
