<svg width="32" height="32" viewBox="0 0 32 32" fill="none" xmlns="http://www.w3.org/2000/svg">
<circle cx="16" cy="16" r="16" fill="#58E1A5"/>
<path d="M9.41907 7C8.34795 7 7.47949 7.86838 7.47949 8.93958V22.9046C7.47949 23.9758 8.34795 24.8442 9.41907 24.8442C10.4902 24.8442 11.3587 23.9758 11.3587 22.9046V10.4912H20.5327L15.3539 15.6699L15.3227 15.702C15.3054 15.718 15.2884 15.7344 15.2715 15.7512C14.5646 16.458 14.5646 17.6041 15.2715 18.311L21.4305 24.4699C22.1374 25.1767 23.2835 25.1767 23.9902 24.4699C24.6971 23.763 24.6971 22.6169 23.9902 21.91L19.1119 17.0316L23.5975 12.5459C24.2685 11.8749 24.1599 10.5111 24.1599 9.71541V7.77583C24.1599 7.34736 23.8125 7 23.3841 7C18.7291 7 14.0741 7 9.41907 7Z" fill="white"/>
</svg>
