<svg width="32" height="32" viewBox="0 0 32 32" fill="none" xmlns="http://www.w3.org/2000/svg">
<circle cx="16" cy="16" r="16" fill="#33356B"/>
<path d="M22.4287 13.1714L20.8858 14.7143L14.7143 8.54279L16.2572 7L22.4287 13.1714Z" fill="white"/>
<path d="M13.6858 9.57135L12.1429 11.1142L13.6858 12.6571L15.2286 11.1142L13.6858 9.57135Z" fill="white"/>
<path d="M14.7144 13.6857L16.2573 12.1428L22.4287 18.3143L20.8859 19.8571L14.7144 13.6857Z" fill="white"/>
<path d="M17.2858 18.3143L15.7429 19.8572L9.57144 13.6857L11.1143 12.1429L17.2858 18.3143Z" fill="white"/>
<path d="M8.54288 14.7142L7 16.2571L8.54288 17.8L10.0857 16.2571L8.54288 14.7142Z" fill="white"/>
<path d="M11.1144 17.2857L9.57149 18.8286L15.743 25L17.2859 23.4572L11.1144 17.2857Z" fill="white"/>
<path d="M18.3144 22.4286L19.8573 20.8858L18.3144 19.3429L16.7715 20.8858L18.3144 22.4286Z" fill="white"/>
<path d="M23.4573 17.2858L25.0002 15.7429L23.4573 14.2L21.9145 15.7429L23.4573 17.2858Z" fill="white"/>
</svg>
