<svg width="32" height="32" viewBox="0 0 32 32" fill="none" xmlns="http://www.w3.org/2000/svg">
<circle cx="16" cy="16" r="16" fill="#CC1F47"/>
<path d="M15.0868 7.04636C16.6685 6.88519 18.2647 7.14595 19.7129 7.80211C21.1612 8.45827 22.4098 9.48642 23.3318 10.782C24.2539 12.0775 24.8164 13.5942 24.9621 15.1778C25.1078 16.7614 24.8316 18.3553 24.1616 19.7974C23.1573 21.9546 21.3401 23.6264 19.1071 24.4473C16.8741 25.2682 14.4071 25.1715 12.2452 24.1784C10.8571 23.5416 9.65393 22.5619 8.74907 21.3314C7.84421 20.101 7.26744 18.6604 7.07312 17.1454C6.8788 15.6303 7.07332 14.0907 7.63835 12.6717C8.20338 11.2526 9.12032 10.0008 10.3028 9.03424C11.6686 7.91761 13.332 7.22642 15.0868 7.04636ZM13.6466 12.2015C13.4531 11.934 13.2033 11.7121 12.9149 11.5514C12.6264 11.3907 12.3063 11.2952 11.9769 11.2715C11.6314 11.2598 11.2877 11.3259 10.9711 11.4649C10.6545 11.6039 10.3732 11.8122 10.1479 12.0746C9.81215 12.4789 9.63095 12.9895 9.63669 13.5151C9.63369 14.506 9.63369 15.4991 9.63669 16.4942C9.63473 16.524 9.63949 16.5539 9.65062 16.5817C9.66174 16.6094 9.67895 16.6343 9.70098 16.6546C9.723 16.6748 9.74928 16.6898 9.77788 16.6985C9.80647 16.7072 9.83666 16.7094 9.86621 16.7049C12.6727 16.7112 15.4828 16.695 18.2893 16.7148C18.2794 17.3297 18.2893 17.9419 18.3316 18.5541C17.5287 19.146 16.5968 19.5389 15.6124 19.7002C15.4864 19.729 15.2695 19.6939 15.2398 19.8722C15.2272 20.2026 15.2398 20.533 15.2335 20.8625C15.229 20.8909 15.2306 20.92 15.2383 20.9477C15.2459 20.9754 15.2594 21.0012 15.2778 21.0232C15.2962 21.0453 15.3191 21.0632 15.345 21.0757C15.3709 21.0882 15.3992 21.095 15.4279 21.0957C16.6196 21.0009 17.7595 20.5684 18.7142 19.8488C19.058 20.3215 19.5704 20.6439 20.1453 20.7491C20.5551 20.8085 20.9733 20.7556 21.3553 20.5959C21.7374 20.4362 22.0689 20.1758 22.3146 19.8425C22.6062 19.4128 22.7525 18.901 22.7322 18.3822C22.7322 17.4395 22.7421 16.4978 22.7259 15.5552C22.7261 15.5228 22.719 15.4907 22.7052 15.4614C22.6913 15.4321 22.6711 15.4063 22.646 15.3858C22.6209 15.3654 22.5915 15.3508 22.56 15.3432C22.5285 15.3356 22.4957 15.3351 22.464 15.3418C19.6638 15.3355 16.8672 15.3418 14.0697 15.3418C14.0535 14.7881 14.0958 14.2308 14.0337 13.6771C14.0274 13.5997 14.0076 13.4971 14.0922 13.4503C14.9466 12.8464 15.9352 12.4595 16.9725 12.3231C17.0859 12.3231 17.1372 12.1934 17.1282 12.0962C17.1282 11.782 17.1345 11.466 17.1282 11.1509C17.1274 11.1213 17.1199 11.0924 17.1064 11.0661C17.0928 11.0399 17.0735 11.017 17.0499 10.9993C17.0263 10.9815 16.9989 10.9693 16.9699 10.9636C16.941 10.9579 16.9111 10.9588 16.8825 10.9663C15.7097 11.0638 14.5884 11.4914 13.6484 12.1997L13.6466 12.2015Z" fill="white"/>
<path d="M10.9499 13.7249C10.9629 13.4609 11.0772 13.2122 11.269 13.0306C11.4609 12.8489 11.7154 12.7483 11.9796 12.7498C12.2503 12.7545 12.5091 12.8617 12.7037 13.0499C12.8984 13.2381 13.0143 13.4932 13.0282 13.7636C13.0408 14.3299 13.0282 14.8971 13.0282 15.4634C12.3351 15.4796 11.643 15.4697 10.9463 15.4697L10.9499 13.7249Z" fill="white"/>
<path d="M19.5801 16.7364C20.2732 16.7364 20.9654 16.7364 21.6585 16.7364C21.6648 17.2901 21.6585 17.8438 21.6585 18.4011C21.6635 18.6242 21.5964 18.843 21.4672 19.025C21.338 19.207 21.1535 19.3424 20.9412 19.4111C20.7289 19.4799 20.5002 19.4783 20.2888 19.4067C20.0775 19.335 19.8949 19.197 19.7682 19.0133C19.6398 18.833 19.5729 18.6161 19.5774 18.3948C19.5774 17.8411 19.5774 17.2874 19.5774 16.7337" fill="white"/>
</svg>
