<svg width="32" height="32" viewBox="0 0 32 32" fill="none" xmlns="http://www.w3.org/2000/svg">
<circle cx="16" cy="16" r="16" fill="#B1424C"/>
<path d="M8.16165 7L10.9126 10.5012H15.6642C16.1018 10.5012 16.8833 11.0482 16.8833 12.5956C16.8833 14.018 16.1643 14.7526 15.6642 14.7526H9.08591L18.6652 24.7559H23.9169L17.1647 17.2534C19.9763 17.2534 21.166 14.6262 21.166 12.2518C21.166 9.90785 19.7139 7 17.0397 7H8.16165Z" fill="white"/>
<path fill-rule="evenodd" clip-rule="evenodd" d="M12.0536 21.4392L10.0853 20.294L8.0835 21.4379V23.8204L10.0853 25L12.0536 23.819V21.4392ZM9.58459 22.6302L8.58366 22.0261V23.2344L9.58459 22.6302ZM9.83408 24.2714L8.82179 23.6749L9.83408 23.0639V24.2714ZM10.3342 24.2674V23.0827L11.3185 23.6768L10.3342 24.2674ZM11.5534 22.0261V23.2344L10.5525 22.6302L11.5534 22.0261ZM11.313 21.587L10.3342 22.1777V21.0175L11.313 21.587ZM9.83408 22.1966V21.0136L8.82731 21.5889L9.83408 22.1966Z" fill="white"/>
</svg>
