<svg width="32" height="32" viewBox="0 0 32 32" fill="none" xmlns="http://www.w3.org/2000/svg">
<circle cx="16" cy="16" r="16" fill="#FAD602"/>
<path fill-rule="evenodd" clip-rule="evenodd" d="M23.0588 13.4522C21.7252 13.5921 20.7139 14.8079 20.8056 16.1636C20.8056 16.5375 20.6673 16.8648 20.3457 17.0522C20.1944 17.1471 20.0187 17.1957 19.8401 17.1921C19.656 17.1921 19.5177 17.1455 19.3337 17.0522C18.9197 16.8182 18.4598 16.6783 18 16.6783H17.7243C16.3907 16.8182 15.4252 18.034 15.516 19.3897C15.516 19.7636 15.3786 20.0909 15.0562 20.2783C14.9049 20.3732 14.7291 20.4218 14.5506 20.4182C14.3863 20.4219 14.2251 20.3729 14.0907 20.2783C13.6767 20.0443 13.2169 19.9035 12.7571 19.9035H12.4806C11.2394 20.0443 10.3189 21.1194 10.2731 22.4285C10.2731 23.8308 11.3777 25 12.7571 25H12.9862C14.1824 24.8601 15.1487 23.9249 15.2403 22.7091V22.2885C15.2403 21.9146 15.3786 21.5874 15.7001 21.4C15.8517 21.3049 16.0277 21.2563 16.2066 21.2601C16.3907 21.2601 16.5281 21.3067 16.7122 21.4C17.1262 21.634 17.586 21.7739 18.0458 21.7739H18.3216C18.897 21.7042 19.4308 21.4384 19.833 21.0211C20.2352 20.6038 20.4814 20.0606 20.5298 19.483V19.0625C20.5298 18.6885 20.6673 18.3613 20.9897 18.1739C21.141 18.079 21.3167 18.0304 21.4953 18.034C21.6794 18.034 21.8177 18.0806 21.9551 18.1739C22.3691 18.4079 22.8289 18.5478 23.2887 18.5478H23.5653C24.8073 18.3155 25.7727 17.2862 25.7727 15.9771C25.7727 14.5739 24.6682 13.4055 23.2887 13.4055C23.1971 13.4055 23.1047 13.4055 23.0588 13.4522ZM17.7709 10.2261C16.4373 10.366 15.4252 11.5818 15.5168 12.9375C15.5168 13.3115 15.3794 13.6387 15.057 13.8261C14.9057 13.921 14.73 13.9696 14.5514 13.966C14.3871 13.9697 14.2259 13.9207 14.0916 13.8261C13.6776 13.5921 13.2177 13.4522 12.7579 13.4522H12.4814C11.2402 13.6387 10.3197 14.668 10.3197 15.9296C10.3197 17.3328 11.4243 18.5012 12.8037 18.5012H13.0337C14.2298 18.3605 15.1953 17.4253 15.2869 16.2103V15.7897C15.2869 15.4158 15.426 15.0885 15.7476 14.9012C15.8989 14.8063 16.0746 14.7576 16.2532 14.7613C16.4175 14.7576 16.5786 14.8066 16.713 14.9012C17.127 15.1352 17.5868 15.2751 18.0467 15.2751H18.3224C19.5644 15.1352 20.4848 14.0601 20.5307 12.751C20.5307 11.3478 19.4261 10.1795 18.0467 10.1795C17.9092 10.1795 17.8626 10.1795 17.7709 10.2261ZM12.7113 7C11.3392 7 10.2273 8.13073 10.2273 9.52491C10.2273 10.9191 11.34 12.049 12.7113 12.049C14.0826 12.049 15.1937 10.9191 15.1937 9.52491C15.1937 8.13073 14.0817 7 12.7113 7Z" fill="white"/>
</svg>
