<svg width="32" height="32" viewBox="0 0 32 32" fill="none" xmlns="http://www.w3.org/2000/svg">
<circle cx="16" cy="16" r="16" fill="#013CE9"/>
<path d="M10.1759 11.8992C10.1208 12.1745 7.12643 23.7557 7.03836 24.0639C6.92827 24.4492 7.03836 24.8346 7.5888 24.8346H10.8914C11.743 24.8346 11.8741 24.3714 11.9814 23.9924C11.985 23.9795 11.9887 23.9666 11.9923 23.9539C12.1024 23.5685 15.8454 7.49573 15.8454 7.38564C15.8454 7.22051 15.7903 7.22051 15.6802 7.22051C15.657 7.22051 15.5702 7.21806 15.4331 7.2142C14.9201 7.19974 13.7039 7.16547 12.4877 7.16547C10.9465 7.16547 9.07498 8.7067 8.96489 8.98191C8.88368 9.18493 8.59282 10.1068 8.4237 10.6428C8.36355 10.8334 8.3188 10.9752 8.30436 11.0185C8.24932 11.1837 8.24932 11.4038 8.57958 11.4038H9.90064C10.1208 11.4038 10.2309 11.624 10.1759 11.8992Z" fill="white"/>
<path d="M18.2673 7.16547H19.9186C21.5149 7.16547 26.323 7.58166 24.6524 14.046C23.4706 18.6188 21.9052 19.067 20.9858 19.3303C20.9202 19.3491 20.8579 19.3669 20.7993 19.3852C20.2679 19.5513 19.256 19.6475 18.5297 19.7166C18.3208 19.7365 18.1355 19.7541 17.9921 19.7705C18.359 19.899 19.3131 20.1448 20.1938 20.1008C20.5518 20.6121 21.1591 21.4678 21.7289 22.2707C22.386 23.1965 22.9933 24.0522 23.1112 24.2291C23.3313 24.5593 23.3313 24.8346 22.5057 24.8346H18.6526C18.2123 24.8346 17.827 24.7795 17.3316 23.9539C17.1034 23.5735 16.665 22.913 16.2369 22.268C15.7357 21.5126 15.2486 20.7787 15.1298 20.5411C14.9096 20.1008 14.6895 19.6054 14.8546 18.9449L14.8547 18.9446C15.0198 18.284 15.35 16.9632 15.4601 16.633C15.5702 16.3028 15.8454 15.9725 16.3958 15.9725H18.1022C18.4324 15.9725 19.8085 15.6422 20.2489 14.101C20.6892 12.5598 20.5241 11.3488 18.9278 11.3488H17.7169C17.6894 11.3488 17.6617 11.3491 17.6339 11.3494C17.2716 11.353 16.8991 11.3568 17.0013 10.7433C17.1114 10.0828 17.6068 7.82599 17.7169 7.55077C17.827 7.27555 18.0471 7.16547 18.2673 7.16547Z" fill="white"/>
</svg>
