<svg width="32" height="32" viewBox="0 0 32 32" fill="none" xmlns="http://www.w3.org/2000/svg">
<circle cx="16" cy="16" r="16" fill="#02C8CA"/>
<path d="M10.347 11.4832C10.1061 11.6223 9.80766 11.6152 9.57356 11.4649L8.59052 10.8338L15.2309 7L15.2859 8.16689C15.2991 8.44478 15.1559 8.70674 14.915 8.84584L10.347 11.4832Z" fill="white"/>
<path d="M9.26188 18.6373C9.26188 18.9155 9.10657 19.1705 8.85937 19.298L7.82129 19.8338V12.1662L8.85937 12.7019C9.10657 12.8295 9.26188 13.0845 9.26188 13.3627V18.6373Z" fill="white"/>
<path d="M22.7384 13.3627C22.7384 13.0845 22.8937 12.8295 23.1409 12.7019L24.179 12.1662V19.8338L23.1409 19.298C22.8937 19.1705 22.7384 18.9155 22.7384 18.6373V13.3627Z" fill="white"/>
<path d="M22.4267 20.5351C22.1926 20.3848 21.8942 20.3777 21.6532 20.5168L17.0852 23.1542C16.8443 23.2933 16.7012 23.5552 16.7143 23.8331L16.7693 25L23.4097 21.1662L22.4267 20.5351Z" fill="white"/>
<path d="M16.7143 8.16689C16.7012 8.44478 16.8443 8.70674 17.0853 8.84584L21.6533 11.4832C21.8942 11.6223 22.1926 11.6152 22.4267 11.4649L23.4097 10.8338L16.7694 7L16.7143 8.16689Z" fill="white"/>
<path d="M14.915 23.1542C15.1559 23.2933 15.299 23.5552 15.2859 23.8331L15.2309 25L8.59051 21.1662L9.57355 20.5351C9.80765 20.3848 10.1061 20.3777 10.347 20.5168L14.915 23.1542Z" fill="white"/>
<path d="M16.8428 11.9434C16.6223 12.151 16.4042 12.3969 16.3857 12.6991L16.2864 14.3214C16.7251 14.3862 17.1067 14.6262 17.3579 14.9679L18.7357 14.0559C18.9882 13.8887 19.0921 13.5769 19.1616 13.2822C19.2326 12.9813 19.4227 12.7093 19.7115 12.5426C20.2672 12.2217 20.9777 12.4121 21.2985 12.9678C21.6194 13.5235 21.429 14.234 20.8733 14.5548C20.5845 14.7215 20.2539 14.7502 19.9578 14.6612C19.6678 14.574 19.3458 14.5082 19.0748 14.6433L17.5805 15.3882C17.6405 15.5577 17.6731 15.7402 17.6731 15.9303C17.6731 16.1647 17.6235 16.3875 17.5343 16.5888L19.0748 17.3567C19.3458 17.4918 19.6678 17.4259 19.9578 17.3388C20.2539 17.2498 20.5845 17.2785 20.8733 17.4452C21.429 17.766 21.6194 18.4765 21.2985 19.0322C20.9777 19.5879 20.2672 19.7783 19.7115 19.4574C19.4227 19.2907 19.2326 19.0187 19.1616 18.7178C19.0921 18.4231 18.9882 18.1113 18.7357 17.9441L17.2855 16.9842C16.9872 17.3345 16.5428 17.5568 16.0466 17.5568C15.5504 17.5568 15.106 17.3345 14.8077 16.9842L13.3575 17.9441C13.105 18.1113 13.0011 18.4231 12.9316 18.7178C12.8606 19.0187 12.6705 19.2907 12.3817 19.4574C11.826 19.7783 11.1155 19.5879 10.7947 19.0322C10.4738 18.4765 10.6642 17.766 11.2199 17.4452C11.5087 17.2785 11.8393 17.2498 12.1354 17.3388C12.4254 17.4259 12.7474 17.4918 13.0184 17.3567L14.5589 16.5888C14.4697 16.3875 14.4201 16.1647 14.4201 15.9303C14.4201 15.7402 14.4527 15.5577 14.5127 15.3882L13.0184 14.6433C12.7474 14.5082 12.4254 14.574 12.1354 14.6612C11.8393 14.7502 11.5087 14.7215 11.2199 14.5548C10.6642 14.234 10.4738 13.5235 10.7947 12.9678C11.1155 12.4121 11.826 12.2217 12.3817 12.5426C12.6705 12.7093 12.8606 12.9813 12.9316 13.2822C13.0011 13.5769 13.105 13.8887 13.3575 14.0559L14.7353 14.9679C14.9865 14.6262 15.3681 14.3862 15.8068 14.3214L15.7075 12.6991C15.689 12.3969 15.4709 12.151 15.2504 11.9434C15.0253 11.7315 14.8848 11.4308 14.8848 11.0973C14.8848 10.4557 15.405 9.93558 16.0466 9.93558C16.6882 9.93558 17.2084 10.4557 17.2084 11.0973C17.2084 11.4308 17.0679 11.7315 16.8428 11.9434Z" fill="white"/>
<path d="M16.0466 17.5568H16.279L16.3857 19.3009C16.4042 19.6031 16.6223 19.849 16.8428 20.0566C17.0679 20.2685 17.2084 20.5692 17.2084 20.9027C17.2084 21.5443 16.6882 22.0644 16.0466 22.0644C15.405 22.0644 14.8848 21.5443 14.8848 20.9027C14.8848 20.5692 15.0253 20.2685 15.2504 20.0566C15.4709 19.849 15.689 19.6031 15.7075 19.3009L15.8142 17.5568H16.0466Z" fill="white"/>
</svg>
