<svg xmlns="http://www.w3.org/2000/svg" viewBox="0 0 92.064 92.025"><defs><style>.a,.b{fill:none;stroke:#fff;stroke-linecap:round;stroke-linejoin:round;stroke-width:2px;}.b{opacity:0.3;}</style></defs><g transform="translate(0.268 0.273)"><path class="a" d="M18.374,20.25a1.5,1.5,0,1,0,1.5,1.5,1.5,1.5,0,0,0-1.5-1.5h0" transform="translate(48.365 58.502)"/><line class="a" y1="12" transform="translate(66.739 57.752)"/><path class="a" d="M58.471,48.983a7.1,7.1,0,0,1-6.344,10.268H18.341A7.092,7.092,0,0,1,12,48.983L28.89,15.175a7.089,7.089,0,0,1,12.688,0Z" transform="translate(31.505 31.501)"/><path class="b" d="M89.04,49.192a19.476,19.476,0,0,0-28.854-23.98,29.982,29.982,0,1,0-29.425,35.54h8.994" transform="translate(0 0)"/></g></svg>