
<svg width="92" height="93" viewBox="0 0 92 93" fill="none" xmlns="http://www.w3.org/2000/svg">
<g opacity="0.3">
<path d="M91 57.781V7.46C90.9947 5.74832 90.3124 4.10826 89.1021 2.89792C87.8917 1.68757 86.2517 1.00527 84.54 1H7.428C5.72481 1.00527 4.09289 1.6842 2.88854 2.88854C1.6842 4.09289 1.00527 5.72481 1 7.428V72.54C1.00527 74.2517 1.68757 75.8917 2.89792 77.1021C4.10826 78.3124 5.74832 78.9947 7.46 79H31" stroke="white" stroke-width="2" stroke-linecap="round" stroke-linejoin="round"/>
<path d="M1 19H91" stroke="white" stroke-width="2" stroke-linecap="round" stroke-linejoin="round"/>
</g>
<path d="M66.999 79.002C66.7024 79.002 66.4123 79.09 66.1657 79.2548C65.919 79.4196 65.7267 79.6539 65.6132 79.928C65.4997 80.2021 65.47 80.5037 65.5278 80.7946C65.5857 81.0856 65.7286 81.3529 65.9384 81.5627C66.1481 81.7724 66.4154 81.9153 66.7064 81.9732C66.9974 82.0311 67.299 82.0014 67.573 81.8878C67.8471 81.7743 68.0814 81.582 68.2462 81.3354C68.4111 81.0887 68.499 80.7987 68.499 80.502C68.499 80.1042 68.341 79.7227 68.0597 79.4414C67.7784 79.16 67.3968 79.002 66.999 79.002Z" stroke="white" stroke-width="2" stroke-linecap="round" stroke-linejoin="round"/>
<path d="M66.999 70.002V58.002" stroke="white" stroke-width="2" stroke-linecap="round" stroke-linejoin="round"/>
<path d="M90.236 80.734C90.7753 81.8157 91.0296 83.0172 90.9746 84.2247C90.9197 85.4321 90.5574 86.6056 89.9221 87.6339C89.2868 88.6621 88.3995 89.5112 87.3442 90.1006C86.289 90.69 85.1007 91.0003 83.892 91.002H50.106C48.8967 91.002 47.7075 90.6928 46.6514 90.1037C45.5953 89.5146 44.7074 88.6653 44.072 87.6364C43.4366 86.6075 43.0748 85.4332 43.0211 84.2251C42.9674 83.017 43.2235 81.8153 43.765 80.734L60.655 46.926C61.2431 45.7467 62.1482 44.7546 63.2689 44.0612C64.3895 43.3678 65.6812 43.0005 66.999 43.0005C68.3168 43.0005 69.6085 43.3678 70.7292 44.0612C71.8498 44.7546 72.7549 45.7467 73.343 46.926L90.236 80.734Z" stroke="white" stroke-width="2" stroke-linecap="round" stroke-linejoin="round"/>
</svg>
