<?xml version="1.0" encoding="utf-8"?>
<!-- Generator: Adobe Illustrator 21.1.0, SVG Export Plug-In . SVG Version: 6.00 Build 0)  -->
<svg version="1.1" id="Слой_1" xmlns="http://www.w3.org/2000/svg" xmlns:xlink="http://www.w3.org/1999/xlink" x="0px" y="0px"
	 viewBox="0 0 36 36" style="enable-background:new 0 0 36 36;" xml:space="preserve">
<style type="text/css">
	.st0{fill:#3d4f6c;}
</style>
<g>
	<path class="st0" d="M18,0C8.1,0,0,8.1,0,18c0,9.9,8.1,18,18,18s18-8.1,18-18C36,8.1,27.9,0,18,0z M24.5,14.2
		c0.4-0.1,0.8,0.1,1,0.5c0.1,0.4-0.1,0.8-0.5,1c-0.4,0.1-0.8-0.1-1-0.5C23.9,14.8,24.1,14.3,24.5,14.2z M22.2,14.8
		c0.4-0.1,0.9,0.1,1.1,0.5c0.1,0.4-0.1,0.9-0.5,1.1c-0.4,0.1-0.9-0.1-1.1-0.5C21.6,15.5,21.8,15,22.2,14.8z M19.8,15.7
		c0.5-0.2,1,0.1,1.2,0.6c0.2,0.5-0.1,1-0.6,1.2c-0.5,0.2-1-0.1-1.2-0.6C19,16.4,19.3,15.9,19.8,15.7z M17,7.6c0.4,0,0.7,0.3,0.7,0.7
		S17.4,9,17,9s-0.7-0.3-0.7-0.7S16.6,7.6,17,7.6z M16.8,9.7c0.4,0,0.8,0.3,0.8,0.8c0,0.4-0.3,0.8-0.8,0.8s-0.8-0.3-0.8-0.8
		C16.1,10,16.4,9.7,16.8,9.7z M16.8,11.9c0.5,0,0.9,0.4,0.9,0.9c0,0.5-0.4,0.9-0.9,0.9S16,13.3,16,12.8C16,12.3,16.3,11.9,16.8,11.9
		z M14,17.6c0.2-0.5,0.7-0.8,1.2-0.6c0.5,0.2,0.8,0.7,0.6,1.2c-0.2,0.5-0.7,0.8-1.2,0.6S13.8,18.1,14,17.6z M11.5,17
		c0.1-0.4,0.6-0.7,1.1-0.5c0.4,0.1,0.7,0.6,0.5,1.1c-0.1,0.4-0.6,0.7-1.1,0.5C11.6,17.9,11.4,17.4,11.5,17z M4.4,12.7
		c-0.1,0.2-0.3,0.3-0.5,0.3c-0.2-0.1-0.3-0.3-0.3-0.5c0.1-0.2,0.3-0.3,0.5-0.3S4.5,12.5,4.4,12.7z M5.5,13.9
		c-0.1,0.3-0.4,0.4-0.6,0.3c-0.3-0.1-0.4-0.4-0.3-0.6c0.1-0.3,0.4-0.4,0.6-0.3C5.5,13.3,5.6,13.6,5.5,13.9z M7,14.9
		c-0.1,0.3-0.4,0.5-0.7,0.4c-0.3-0.1-0.5-0.4-0.4-0.7c0.1-0.3,0.4-0.5,0.7-0.4C6.9,14.3,7.1,14.6,7,14.9z M8.5,29.7
		c-0.1,0.2-0.4,0.2-0.6,0.1c-0.2-0.1-0.2-0.4-0.1-0.6C8,29,8.3,29,8.5,29.1C8.6,29.2,8.7,29.5,8.5,29.7z M8.8,15.9
		c-0.1,0.4-0.5,0.5-0.9,0.4c-0.4-0.1-0.5-0.5-0.4-0.9S8,14.9,8.3,15C8.7,15.2,8.9,15.5,8.8,15.9z M10,29.1c-0.2,0.2-0.5,0.3-0.7,0.1
		S9,28.7,9.2,28.5s0.5-0.3,0.7-0.1C10.1,28.5,10.2,28.8,10,29.1z M9.9,17.2c-0.4-0.1-0.6-0.6-0.5-1c0.1-0.4,0.6-0.6,1-0.5
		c0.4,0.1,0.6,0.6,0.5,1C10.7,17.2,10.3,17.4,9.9,17.2z M11.5,28.1c-0.2,0.3-0.6,0.3-0.8,0.1c-0.3-0.2-0.3-0.6-0.1-0.8
		c0.2-0.3,0.6-0.3,0.8-0.1C11.6,27.5,11.7,27.9,11.5,28.1z M13,26.9c-0.2,0.3-0.6,0.4-0.9,0.1c-0.3-0.2-0.4-0.6-0.1-0.9
		c0.2-0.3,0.6-0.4,0.9-0.1C13.1,26.2,13.2,26.6,13,26.9z M14.4,25.3c-0.2,0.3-0.7,0.4-1.1,0.2c-0.3-0.2-0.4-0.7-0.2-1.1
		c0.2-0.3,0.7-0.4,1.1-0.2C14.6,24.5,14.7,25,14.4,25.3z M15.9,23.5c-0.3,0.4-0.8,0.5-1.2,0.2c-0.4-0.3-0.5-0.8-0.2-1.2
		c0.3-0.4,0.8-0.5,1.2-0.2S16.2,23.1,15.9,23.5z M17.4,21.3c-0.3,0.4-0.9,0.5-1.3,0.2c-0.4-0.3-0.5-0.9-0.2-1.3
		c0.3-0.4,0.9-0.5,1.3-0.2C17.6,20.3,17.7,20.9,17.4,21.3z M17,16.3c-0.5,0-0.9-0.4-0.9-0.9c0-0.5,0.4-0.9,0.9-0.9s0.9,0.4,0.9,0.9
		C17.9,15.9,17.5,16.3,17,16.3z M17.4,7c-0.3,0-0.6-0.3-0.6-0.6c0-0.3,0.3-0.6,0.6-0.6c0.3,0,0.6,0.3,0.6,0.6
		C17.9,6.7,17.7,7,17.4,7z M17.9,5.3c-0.3,0-0.5-0.2-0.5-0.5c0-0.3,0.2-0.5,0.5-0.5s0.5,0.2,0.5,0.5C18.4,5,18.2,5.3,17.9,5.3z
		 M18.6,3.8c-0.2,0-0.4-0.2-0.4-0.4S18.4,3,18.6,3S19,3.2,19,3.4S18.8,3.8,18.6,3.8z M19.1,20.5c-0.3-0.4-0.2-1,0.2-1.3
		s1-0.2,1.3,0.2c0.3,0.4,0.2,1-0.2,1.3S19.4,20.9,19.1,20.5z M20.8,22.4c-0.3-0.4-0.2-0.9,0.2-1.2c0.4-0.3,0.9-0.2,1.2,0.2
		c0.3,0.4,0.2,0.9-0.2,1.2S21.1,22.8,20.8,22.4z M22.3,24.3c-0.2-0.3-0.2-0.8,0.2-1.1c0.3-0.2,0.8-0.2,1.1,0.2
		c0.2,0.3,0.2,0.8-0.2,1.1C23,24.7,22.6,24.7,22.3,24.3z M23.5,26.1c-0.2-0.3-0.2-0.7,0.2-0.9c0.3-0.2,0.7-0.2,0.9,0.2
		c0.2,0.3,0.2,0.7-0.2,0.9S23.7,26.4,23.5,26.1z M24.4,27.8c-0.2-0.3-0.1-0.6,0.1-0.8c0.3-0.2,0.6-0.1,0.8,0.1
		c0.2,0.3,0.1,0.6-0.1,0.8S24.6,28,24.4,27.8z M25.1,28.7c0.2-0.2,0.5-0.1,0.7,0.1c0.2,0.2,0.1,0.5-0.1,0.7
		c-0.2,0.2-0.5,0.1-0.7-0.1C24.8,29.1,24.9,28.8,25.1,28.7z M25.8,30.9c-0.2,0.1-0.4,0.1-0.6-0.1c-0.1-0.2-0.1-0.4,0.1-0.6
		c0.2-0.1,0.4-0.1,0.6,0.1C26,30.5,26,30.8,25.8,30.9z M27.1,15.1c-0.4,0.1-0.7-0.1-0.8-0.4s0.1-0.7,0.4-0.8
		c0.4-0.1,0.7,0.1,0.8,0.4C27.6,14.6,27.4,15,27.1,15.1z M28.9,14.7c-0.3,0.1-0.6-0.1-0.7-0.4c-0.1-0.3,0.1-0.6,0.4-0.7
		c0.3-0.1,0.6,0.1,0.7,0.4C29.4,14.3,29.2,14.6,28.9,14.7z M30.6,14.7c-0.3,0.1-0.5-0.1-0.6-0.3c-0.1-0.3,0.1-0.5,0.3-0.6
		c0.3-0.1,0.5,0.1,0.6,0.3S30.9,14.6,30.6,14.7z M32.1,14.9c-0.2,0.1-0.4,0-0.5-0.3c-0.1-0.2,0-0.4,0.3-0.5c0.2-0.1,0.4,0,0.5,0.3
		C32.4,14.6,32.3,14.8,32.1,14.9z"/>
</g>
</svg>
