<svg xmlns="http://www.w3.org/2000/svg" viewBox="5907 -1552.001 36 36.001"><defs><style>.a{fill:#3d4f6c;}</style></defs><path class="a" d="M-5726,1974a18.021,18.021,0,0,1-18-18,18.021,18.021,0,0,1,18-18,18.021,18.021,0,0,1,18,18A18.021,18.021,0,0,1-5726,1974Zm-5.475-15a9.015,9.015,0,0,0,8.475,6v-2a7.042,7.042,0,0,1-6.315-4H-5723v-2h-6.919a6.912,6.912,0,0,1-.081-1,6.864,6.864,0,0,1,.081-1H-5723v-2h-6.315a7.043,7.043,0,0,1,6.315-4v-2a9.02,9.02,0,0,0-8.475,6H-5734v2h2.06a8.826,8.826,0,0,0-.059,1,8.808,8.808,0,0,0,.059,1H-5734v2Z" transform="translate(11651 -3490)"/></svg>