<?xml version="1.0" encoding="utf-8"?>
<!-- Generator: Adobe Illustrator 21.1.0, SVG Export Plug-In . SVG Version: 6.00 Build 0)  -->
<svg version="1.1" id="Слой_1" xmlns="http://www.w3.org/2000/svg" xmlns:xlink="http://www.w3.org/1999/xlink" x="0px" y="0px"
	 viewBox="0 0 36 36" style="enable-background:new 0 0 36 36;" xml:space="preserve">
<style type="text/css">
	.st0{fill:#3d4f6c;}
</style>
<g>
	<g>
		<path class="st0" d="M16.8,14.8c0-1.2,1.2-1.3,1.5-1.3c0.3,0,1.3-0.1,2.4,1l1.6-1.7c-1.3-1.3-2.2-1.6-3.1-1.7V9h-2.1v2.2
			c-1.4,0.3-3.2,1.2-3.2,3.6c0,4,5.6,3.7,5.6,6.1c0,1.6-1.5,1.5-1.8,1.5s-2.1-0.5-2.9-1.3l-1.4,2c0,0,1.1,1.3,3.8,1.6V27h2.1v-2.3
			c2.4-0.5,3.3-2.5,3.3-4C22.6,16.8,16.8,16.9,16.8,14.8z"/>
	</g>
	<g>
		<path class="st0" d="M18,0C8.1,0,0,8.1,0,18s8.1,18,18,18s18-8.1,18-18S27.9,0,18,0z M24.8,29.8H11.2L4.4,18l6.8-11.8h13.6
			L31.6,18L24.8,29.8z"/>
	</g>
</g>
</svg>
