<?xml version="1.0" encoding="utf-8"?>
<!-- Generator: Adobe Illustrator 21.1.0, SVG Export Plug-In . SVG Version: 6.00 Build 0)  -->
<svg version="1.1" id="Слой_1" xmlns="http://www.w3.org/2000/svg" xmlns:xlink="http://www.w3.org/1999/xlink" x="0px" y="0px"
	 viewBox="0 0 36 36" style="enable-background:new 0 0 36 36;" xml:space="preserve">
<style type="text/css">
	.st0{fill:#3d4f6c;}
</style>
<g>
	<g>
		<rect x="12" y="20" class="st0" width="3" height="1"/>
	</g>
	<g>
		<rect x="14" y="25" class="st0" width="3" height="1"/>
	</g>
	<g>
		<rect x="15" y="22" class="st0" width="3" height="1"/>
	</g>
	<g>
		<rect x="17" y="16" class="st0" width="1" height="3"/>
	</g>
	<g>
		<rect x="21" y="23" class="st0" width="3" height="1"/>
	</g>
	<g>
		<rect x="12" y="12" class="st0" width="3" height="1"/>
	</g>
	<g>
		<rect x="15" y="9" class="st0" width="3" height="1"/>
	</g>
	<g>
		<rect x="10" y="14" class="st0" width="1" height="3"/>
	</g>
	<g>
		<rect x="14" y="15" class="st0" width="1" height="3"/>
	</g>
	<g>
		<rect x="9" y="19" class="st0" width="1" height="3"/>
	</g>
	<g>
		<rect x="18" y="11" class="st0" width="1" height="3"/>
	</g>
	<g>
		<rect x="19" y="25" class="st0" width="1" height="3"/>
	</g>
	<g>
		<rect x="20" y="20" class="st0" width="3" height="1"/>
	</g>
	<g>
		<path class="st0" d="M18,0C8.1,0,0,8.1,0,18c0,9.9,8.1,18,18,18s18-8.1,18-18C36,8.1,27.9,0,18,0z M30,23.1l-12,8.2L6,23.1V12.9
			l12-8.2l12,8.2V23.1z"/>
	</g>
	<g>
		<rect x="20" y="10" class="st0" width="3" height="1"/>
	</g>
	<g>
		<rect x="21" y="13" class="st0" width="3" height="1"/>
	</g>
	<g>
		<rect x="24" y="17" class="st0" width="3" height="1"/>
	</g>
	<g>
		<rect x="25" y="21" class="st0" width="1" height="3"/>
	</g>
	<g>
		<rect x="20" y="15" class="st0" width="1" height="3"/>
	</g>
</g>
</svg>
