<?xml version="1.0" encoding="utf-8"?>
<!-- Generator: Adobe Illustrator 21.1.0, SVG Export Plug-In . SVG Version: 6.00 Build 0)  -->
<svg version="1.1" id="Слой_1" xmlns="http://www.w3.org/2000/svg" xmlns:xlink="http://www.w3.org/1999/xlink" x="0px" y="0px"
	 viewBox="0 0 36 36" style="enable-background:new 0 0 36 36;" xml:space="preserve">
<style type="text/css">
	.st0{fill:#3d4f6c;}
</style>
<g>
	<g>
		<path class="st0" d="M30.8,18.1c0,0-5.4-3.5-10.6-4.3L21,15l-0.7,1.4l-1.7-2.8c-0.2,0-0.4,0-0.6,0c-0.2,0-0.4,0-0.7,0l-1.6,2.7
			L15,14.9l0.7-1.2c-5.2,0.9-10.5,4.3-10.5,4.3s5.6,3.6,10.9,4.4l-2.7-4.9l0.8-1.3l3.5,6.4c0.1,0,0.2,0,0.3,0c0.1,0,0.2,0,0.3,0
			l2.8-5l0.7-1.4l0.8,1.3l-2.7,4.9C25.3,21.7,30.8,18.1,30.8,18.1z"/>
	</g>
	<g>
		<path class="st0" d="M18,0C8.1,0,0,8.1,0,18c0,9.9,8.1,18,18,18s18-8.1,18-18C36,8.1,27.9,0,18,0z M19.2,23.9L18,26l-1.2-2.1
			c-2.4-0.3-8.1-1.4-12.8-5.8c4.5-4.2,9.9-5.4,12.5-5.7l1.4-2.4l1.5,2.4c2.5,0.3,8.1,1.5,12.6,5.7C27.3,22.5,21.6,23.6,19.2,23.9z"
			/>
	</g>
</g>
</svg>
