<?xml version="1.0" encoding="utf-8"?>
<!-- Generator: Adobe Illustrator 21.1.0, SVG Export Plug-In . SVG Version: 6.00 Build 0)  -->
<svg version="1.1" id="Слой_1" xmlns="http://www.w3.org/2000/svg" xmlns:xlink="http://www.w3.org/1999/xlink" x="0px" y="0px"
	 viewBox="0 0 36 36" style="enable-background:new 0 0 36 36;" xml:space="preserve">
<style type="text/css">
	.st0{fill:#3d4f6c;}
</style>
<g>
	<g>
		<path class="st0" d="M18,0C8.1,0,0,8.1,0,18c0,9.9,8.1,18,18,18s18-8.1,18-18C36,8.1,27.9,0,18,0z M8.3,4.8l9.7,10l9.7-10v6.5
			l-7,7.2h-5.4L14.8,18l-6.5-6.7V4.8z M27.7,31.2l-9.7-10l-9.7,10v-6.5L13,20h10l4.7,4.7V31.2z"/>
	</g>
	<g>
		<polygon class="st0" points="17.3,15.5 17.3,15.5 9.3,7.2 9.3,10.9 15.5,17.3 		"/>
	</g>
	<g>
		<polygon class="st0" points="20.3,17.5 26.7,10.9 26.7,7.2 18.7,15.5 16.7,17.5 		"/>
	</g>
</g>
</svg>
