<svg width="32" height="32" viewBox="0 0 32 32" fill="none" xmlns="http://www.w3.org/2000/svg">
<circle cx="16" cy="16" r="16" fill="#648495"/>
<path fill-rule="evenodd" clip-rule="evenodd" d="M15.7328 7.06655C15.8268 6.99142 15.9607 6.97651 16.0719 7.03927L23.7198 11.3566C23.7906 11.3966 23.8424 11.4633 23.8636 11.5418C23.8848 11.6204 23.8737 11.7041 23.8326 11.7743L16.1847 24.8497C16.123 24.9551 16.0041 25.0134 15.8829 24.9974C15.7618 24.9814 15.662 24.8944 15.6297 24.7765L15.6191 24.7376L8.16577 11.7006C8.12569 11.6305 8.11519 11.5474 8.13658 11.4695C8.15798 11.3916 8.20951 11.3255 8.27978 11.2857L15.7328 7.06655ZM15.6191 7.72765L8.84427 11.664L15.6191 23.5884C14.4305 20.1285 13.3578 16.6418 12.429 13.1036C12.4234 13.0833 12.42 13.0627 12.4187 13.042C12.403 12.9695 12.4144 12.8934 12.4511 12.8285L15.6191 7.72765Z" fill="white"/>
</svg>
