<svg width="32" height="32" viewBox="0 0 32 32" fill="none" xmlns="http://www.w3.org/2000/svg">
<circle cx="16" cy="16" r="16" fill="#4EB4DB"/>
<path d="M15.5844 20.7401C16.2038 20.7401 16.7056 20.227 16.7056 19.5917C16.7056 18.9574 16.2038 18.4433 15.5844 18.4433C14.965 18.4433 14.4631 18.9564 14.4631 19.5917C14.4631 20.227 14.965 20.7401 15.5844 20.7401Z" fill="white"/>
<path fill-rule="evenodd" clip-rule="evenodd" d="M23.794 11.5001V20.4999L15.9998 25L8.20557 20.4999V11.5001L15.9998 7L23.794 11.5001ZM18.3172 11.2074C18.221 11.3036 18.0905 11.3577 17.9544 11.3577H16.0975V12.5061H17.4657C17.6018 12.5061 17.7323 12.5601 17.8286 12.6563C17.9248 12.7526 17.9788 12.8831 17.9788 13.0192C17.9788 13.1552 17.9248 13.2857 17.8286 13.382C17.7323 13.4782 17.6018 13.5323 17.4657 13.5323H16.0975V17.583C16.969 17.8159 17.6123 18.6273 17.6123 19.5927C17.6123 20.7396 16.7044 21.6695 15.5844 21.6695C14.4644 21.6695 13.5564 20.7396 13.5564 19.5927C13.5564 18.6354 14.1878 17.8306 15.0469 17.5892V10.9118C15.0469 10.7579 15.108 10.6103 15.2168 10.5015C15.3256 10.3926 15.4732 10.3315 15.6271 10.3315H17.9544C18.0905 10.3315 18.221 10.3855 18.3172 10.4818C18.4135 10.578 18.4675 10.7085 18.4675 10.8446C18.4675 10.9807 18.4135 11.1112 18.3172 11.2074Z" fill="white"/>
</svg>
