<svg width="32" height="32" viewBox="0 0 32 32" fill="none" xmlns="http://www.w3.org/2000/svg">
<circle cx="16" cy="16" r="16" fill="#34373C"/>
<path fill-rule="evenodd" clip-rule="evenodd" d="M23.6865 11.3158C22.1058 8.72761 19.2547 7 16 7C11.0294 7 7 11.0294 7 16C7 20.9706 11.0294 25 16 25C20.9706 25 25 20.9706 25 16C25 14.3539 24.5581 12.811 23.7864 11.4836C23.7756 11.4561 23.7626 11.4291 23.7475 11.4028C23.7294 11.3716 23.7089 11.3425 23.6865 11.3158ZM15.325 23.6206V18.3773L13.2948 19.5226C13.0062 19.6854 12.6402 19.5834 12.4774 19.2948C12.3146 19.0062 12.4166 18.6402 12.7052 18.4774L15.621 16.8326C15.7101 16.7801 15.814 16.75 15.925 16.75C16.036 16.75 16.14 16.7802 16.2292 16.8327L19.1448 18.4774C19.4334 18.6402 19.5354 19.0062 19.3726 19.2948C19.2098 19.5834 18.8438 19.6854 18.5552 19.5226L16.525 18.3773V23.6323C20.5051 23.3625 23.65 20.0485 23.65 16C23.65 14.7821 23.3654 13.6307 22.8591 12.6086L18.5719 15.0838L20.5788 16.2694C20.8641 16.4379 20.9588 16.8058 20.7902 17.0911C20.6217 17.3764 20.2537 17.4711 19.9684 17.3026L17.0861 15.5998C16.9961 15.5489 16.918 15.4739 16.8626 15.3778C16.807 15.2817 16.7812 15.1766 16.7821 15.073L16.7486 11.7257C16.7453 11.3944 17.0113 11.1231 17.3426 11.1197C17.674 11.1164 17.9453 11.3824 17.9486 11.7137L17.9719 14.0445L22.2435 11.5783C20.8575 9.62481 18.5776 8.35 16 8.35C13.4332 8.35 11.1617 9.61414 9.77402 11.5538L14.0881 14.0445L14.1114 11.7137C14.1147 11.3824 14.386 11.1164 14.7174 11.1197C15.0487 11.123 15.3147 11.3943 15.3114 11.7257L15.2779 15.0732C15.2788 15.1767 15.2529 15.2817 15.1974 15.3778C15.1419 15.474 15.0638 15.549 14.9737 15.5999L12.0916 17.3025C11.8063 17.4711 11.4383 17.3764 11.2698 17.0911C11.1013 16.8058 11.1959 16.4379 11.4812 16.2694L13.4881 15.0838L9.15434 12.5817C8.63963 13.6104 8.35 14.7714 8.35 16C8.35 19.9975 11.4162 23.2789 15.325 23.6206Z" fill="white"/>
</svg>
