<svg width="32" height="32" viewBox="0 0 32 32" fill="none" xmlns="http://www.w3.org/2000/svg">
<circle cx="16" cy="16" r="16" fill="#6843DF"/>
<path d="M18.9537 14.4228C18.9537 14.7254 18.7091 14.9709 18.4072 14.9709H17.8968C17.3481 14.9709 16.9035 15.4169 16.9035 15.9669H16.9016C16.9016 16.5171 17.4116 16.963 17.9603 16.963H18.4114C18.7108 16.963 18.9537 17.2065 18.9537 17.5066V19.0069H17.4438C17.1442 19.0069 16.9016 18.7633 16.9016 18.463V17.9608C16.9016 17.4109 16.4386 16.9465 15.8899 16.9465V16.9445C15.3412 16.9445 14.9147 17.4312 14.9147 18.0108V18.4675C14.9147 18.7653 14.674 19.0069 14.3769 19.0069H13.0361V12.9393H14.3878C14.6787 12.9393 14.9147 13.1757 14.9147 13.4676V13.9749C14.9147 14.5249 15.3871 14.9986 15.9358 14.9986C16.4844 14.9986 16.9016 14.5249 16.9016 13.9749V13.4872C16.9016 13.1845 17.1462 12.9393 17.4481 12.9393H18.9537V14.4228ZM24.7768 14.5174C24.483 13.5617 24.0091 12.7378 22.4763 11.2169L20.7321 9.48638C19.1993 7.96553 18.3717 7.49816 17.4136 7.21191C16.4556 6.92562 15.477 6.92943 14.5212 7.22322C13.5654 7.51701 12.7415 7.99083 11.2207 9.52367L9.4864 11.2716C7.96554 12.8044 7.49816 13.632 7.21187 14.5901C6.92563 15.5481 6.92944 16.5268 7.22323 17.4825C7.51702 18.4383 7.99088 19.2622 9.52372 20.783L11.2679 22.5135C12.8007 24.0344 13.6283 24.5018 14.5864 24.7881C15.5444 25.0744 16.5231 25.0705 17.4788 24.7768C18.4346 24.483 19.2585 24.0091 20.7793 22.4763L22.5136 20.7284C24.0345 19.1955 24.5018 18.3679 24.7881 17.4099C25.0744 16.4518 25.0705 15.4732 24.7768 14.5174Z" fill="white"/>
</svg>
