<svg width="32" height="32" viewBox="0 0 32 32" fill="none" xmlns="http://www.w3.org/2000/svg">
<circle cx="16" cy="16" r="16" fill="#31CB9E"/>
<path d="M17.0407 7.10456L21.6162 10.4793V10.4817C21.6636 10.5152 21.7016 10.5604 21.7265 10.6129C21.7514 10.6654 21.7624 10.7234 21.7584 10.7814C21.7543 10.8394 21.7355 10.8954 21.7036 10.9439C21.6716 10.9924 21.6278 11.0319 21.5762 11.0585L14.7966 14.8169L16.4695 7.30091C16.4849 7.24315 16.5143 7.19009 16.555 7.14639C16.5958 7.10269 16.6466 7.0697 16.703 7.0503C16.7594 7.03091 16.8197 7.02571 16.8786 7.03518C16.9375 7.04464 16.9932 7.06846 17.0407 7.10456Z" fill="white"/>
<path d="M21.7559 19.8728L15.0645 16.0277L21.7559 12.1809C21.8094 12.1478 21.8707 12.1297 21.9335 12.1285C21.9964 12.1273 22.0584 12.143 22.1131 12.174C22.1678 12.205 22.2132 12.2502 22.2445 12.3048C22.2759 12.3594 22.292 12.4215 22.2912 12.4845V19.5668C22.2916 19.6297 22.2753 19.6916 22.244 19.7461C22.2126 19.8006 22.1674 19.8458 22.1129 19.8769C22.0584 19.9081 21.9966 19.9241 21.9338 19.9234C21.8711 19.9227 21.8097 19.9052 21.7559 19.8728Z" fill="white"/>
<path d="M17.035 24.9475L21.6162 21.5728C21.6636 21.5389 21.7016 21.4933 21.7266 21.4405C21.7516 21.3877 21.7627 21.3294 21.7589 21.2711C21.7552 21.2128 21.7367 21.1564 21.7051 21.1073C21.6736 21.0582 21.63 21.0179 21.5787 20.9903L14.7966 17.2328L16.4679 24.7496C16.4814 24.8086 16.5095 24.8632 16.5496 24.9086C16.5897 24.9539 16.6404 24.9884 16.6972 25.009C16.7541 25.0296 16.8151 25.0356 16.8748 25.0264C16.9345 25.0172 16.991 24.9932 17.0391 24.9565L17.035 24.9475Z" fill="white"/>
<path d="M15.0637 7.72644L13.3231 15.8895L15.0425 24.0526C15.0559 24.1203 15.0488 24.1904 15.0222 24.254C14.9956 24.3175 14.9507 24.3717 14.8931 24.4095C14.8356 24.4473 14.7681 24.467 14.6994 24.4661C14.6306 24.4652 14.5637 24.4437 14.5072 24.4044L10.0704 20.9905C9.95565 20.9022 9.86316 20.7883 9.80037 20.6577C9.73759 20.5271 9.70625 20.3836 9.70889 20.2386V11.5388C9.70866 11.3965 9.74116 11.256 9.80385 11.1283C9.86655 11.0006 9.95776 10.8892 10.0704 10.8025L14.5284 7.37465C14.5849 7.33535 14.6518 7.31386 14.7206 7.31296C14.7894 7.31205 14.8568 7.33176 14.9144 7.36956C14.9719 7.40736 15.0168 7.46153 15.0434 7.52512C15.07 7.5887 15.0771 7.65881 15.0637 7.72644Z" fill="white"/>
</svg>
