<svg width="32" height="32" viewBox="0 0 32 32" fill="none" xmlns="http://www.w3.org/2000/svg">
<circle cx="16" cy="16" r="16" fill="#1D2227"/>
<path d="M15.9624 7.00003C17.5696 6.99548 19.1465 7.43674 20.518 8.27476L17.4564 10.375L14.992 12.0997L13.498 10.6745C12.5565 11.0909 11.7532 11.7673 11.1826 12.6242L9.09131 10.0748C9.95633 9.10831 11.0153 8.335 12.1992 7.80523C13.3831 7.27545 14.6653 7.00109 15.9624 7.00003ZM7.00004 16C6.99511 14.3872 7.43444 12.8043 8.26985 11.4247L10.3611 14.4995L12.0793 16.9745L10.6606 18.4742C11.0737 19.418 11.7472 20.2245 12.6021 20.7994L10.0658 22.8997C9.10091 22.0278 8.32957 20.9633 7.80152 19.7748C7.27347 18.5864 7.00044 17.3005 7.00004 16ZM15.9624 25C14.3552 25.0045 12.7782 24.5633 11.4068 23.7252L14.4692 21.625L16.9335 19.9003L18.4275 21.3255C19.3691 20.9091 20.1723 20.2327 20.743 19.3758L22.8343 21.9261C21.9691 22.8925 20.9099 23.6657 19.7259 24.1953C18.5418 24.725 17.2595 24.9991 15.9624 25ZM23.6532 20.5753L21.5636 17.4997L19.8454 15.0247L21.2642 13.525C20.851 12.5812 20.1776 11.7747 19.3226 11.1997L21.859 9.09948C22.846 9.94144 23.6381 10.9879 24.1805 12.1665C24.7229 13.345 25.0025 14.6274 25 15.9247C24.9541 17.5639 24.4915 19.1644 23.6557 20.5753H23.6532Z" fill="white"/>
</svg>
