<svg width="32" height="32" viewBox="0 0 32 32" fill="none" xmlns="http://www.w3.org/2000/svg">
<circle cx="16" cy="16" r="16" fill="#166FB8"/>
<path d="M15.0303 8.08271C15.3293 8.08271 15.5716 7.84033 15.5716 7.54135C15.5716 7.24237 15.3293 7 15.0303 7C14.7313 7 14.4889 7.24237 14.4889 7.54135C14.4889 7.68128 14.542 7.80881 14.6292 7.9049L12.1872 11.0059C12.1622 10.9913 12.1361 10.9782 12.1092 10.9669L12.7157 8.68495C12.7321 8.68645 12.7488 8.68722 12.7656 8.68722C13.0646 8.68722 13.307 8.44485 13.307 8.14586C13.307 7.84688 13.0646 7.60451 12.7656 7.60451C12.4666 7.60451 12.2243 7.84688 12.2243 8.14586C12.2243 8.36482 12.3543 8.55342 12.5413 8.63869L11.9348 10.9206C11.9084 10.9174 11.8816 10.9158 11.8543 10.9158C11.8155 10.9158 11.7774 10.9192 11.7404 10.9256L11.1112 8.96935C11.2847 8.87915 11.4032 8.69777 11.4032 8.48872C11.4032 8.18974 11.1608 7.94737 10.8619 7.94737C10.5629 7.94737 10.3205 8.18974 10.3205 8.48872C10.3205 8.7877 10.5629 9.03008 10.8619 9.03008C10.8882 9.03008 10.9141 9.02819 10.9394 9.02456L11.5686 10.9808C11.519 11.0047 11.4729 11.0347 11.4311 11.0698L9.36937 9.20408C9.42317 9.11998 9.45435 9.02002 9.45435 8.91278C9.45435 8.6138 9.21198 8.37143 8.913 8.37143C8.61401 8.37143 8.37164 8.6138 8.37164 8.91278C8.37164 9.21176 8.61401 9.45414 8.913 9.45414C9.03961 9.45414 9.15606 9.41067 9.24826 9.33785L11.31 11.2035C11.2685 11.2643 11.2369 11.3324 11.2176 11.4055L10.1124 11.2701C10.0996 10.9826 9.86237 10.7534 9.57164 10.7534C9.27266 10.7534 9.03029 10.9958 9.03029 11.2947C9.03029 11.5937 9.27266 11.8361 9.57164 11.8361C9.81694 11.8361 10.0241 11.6729 10.0906 11.4492L11.1958 11.5846C11.1976 11.7015 11.2298 11.811 11.2849 11.9056L9.93639 12.9609C9.84017 12.8731 9.71216 12.8195 9.57164 12.8195C9.27266 12.8195 9.03029 13.0619 9.03029 13.3609C9.03029 13.6599 9.27266 13.9023 9.57164 13.9023C9.87062 13.9023 10.113 13.6599 10.113 13.3609C10.113 13.2675 10.0893 13.1796 10.0477 13.1029L11.3962 12.0476C11.5147 12.1624 11.6763 12.2331 11.8543 12.2331C11.9355 12.2331 12.0131 12.2184 12.0849 12.1916L15.2812 15.9334C15.1974 16.0577 15.1461 16.2056 15.1393 16.3651L11.5715 17.1959L13.0419 15.9889C13.137 16.0717 13.2612 16.1218 13.3972 16.1218C13.6962 16.1218 13.9386 15.8794 13.9386 15.5805C13.9386 15.2815 13.6962 15.0391 13.3972 15.0391C13.0982 15.0391 12.8559 15.2815 12.8559 15.5805C12.8559 15.6784 12.8818 15.7702 12.9273 15.8495L11.4262 17.0817C11.3575 17.0182 11.2753 16.9692 11.1844 16.9394L11.6764 14.227C11.6786 14.2271 11.6808 14.2271 11.6829 14.2271C11.9819 14.2271 12.2243 13.9847 12.2243 13.6857C12.2243 13.3867 11.9819 13.1444 11.6829 13.1444C11.3839 13.1444 11.1416 13.3867 11.1416 13.6857C11.1416 13.9201 11.2905 14.1196 11.4988 14.195L11.0068 16.9073C10.9977 16.907 10.9884 16.9068 10.9792 16.9068C10.8602 16.9068 10.7486 16.9383 10.6523 16.9935L9.61708 15.6504C9.70648 15.5539 9.76112 15.4247 9.76112 15.2827C9.76112 14.9837 9.51874 14.7414 9.21976 14.7414C8.92078 14.7414 8.67841 14.9837 8.67841 15.2827C8.67841 15.5817 8.92078 15.8241 9.21976 15.8241C9.31174 15.8241 9.39837 15.8011 9.47422 15.7606L10.5094 17.1037C10.4125 17.2024 10.3463 17.3314 10.3266 17.4752H8.67092C8.62797 17.2192 8.4053 17.0241 8.13706 17.0241C7.83808 17.0241 7.5957 17.2664 7.5957 17.5654C7.5957 17.8644 7.83808 18.1068 8.13706 18.1068C8.4053 18.1068 8.62797 17.9117 8.67092 17.6556H10.3266C10.3527 17.8458 10.4599 18.0101 10.6123 18.1125L9.93189 19.5091C9.88346 19.4948 9.8322 19.4872 9.77916 19.4872C9.48018 19.4872 9.23781 19.7296 9.23781 20.0286C9.23781 20.3276 9.48018 20.5699 9.77916 20.5699C10.0781 20.5699 10.3205 20.3276 10.3205 20.0286C10.3205 19.8471 10.2312 19.6864 10.0941 19.5882L10.7744 18.1916C10.8389 18.2127 10.9077 18.2241 10.9792 18.2241C10.9844 18.2241 10.9897 18.224 10.995 18.2239L11.5081 21.3747C11.2949 21.4474 11.1416 21.6494 11.1416 21.8872C11.1416 22.1862 11.3839 22.4286 11.6829 22.4286C11.9819 22.4286 12.2243 22.1862 12.2243 21.8872C12.2243 21.5893 11.9837 21.3476 11.6862 21.3459L11.1731 18.195C11.2864 18.1602 11.3867 18.0956 11.4648 18.0103L13.0239 19.0867C12.9913 19.1563 12.9731 19.2339 12.9731 19.3158C12.9731 19.6148 13.2155 19.8571 13.5145 19.8571C13.8135 19.8571 14.0559 19.6148 14.0559 19.3158C14.0559 19.0168 13.8135 18.7744 13.5145 18.7744C13.3623 18.7744 13.2248 18.8372 13.1265 18.9383L11.5675 17.8619C11.6011 17.7952 11.6238 17.7221 11.6331 17.6447L15.2415 16.8045C15.3496 17.0016 15.5345 17.1505 15.756 17.211L15.7755 21.2439L14.6205 18.5614C14.7694 18.465 14.8679 18.2974 14.8679 18.1068C14.8679 17.8078 14.6255 17.5654 14.3265 17.5654C14.0275 17.5654 13.7852 17.8078 13.7852 18.1068C13.7852 18.4057 14.0275 18.6481 14.3265 18.6481C14.3707 18.6481 14.4137 18.6428 14.4548 18.6328L15.6638 21.4408C15.5565 21.5059 15.4693 21.6006 15.4136 21.7137L13.8421 21.1934C13.8462 21.1666 13.8483 21.1392 13.8483 21.1113C13.8483 20.8123 13.606 20.5699 13.307 20.5699C13.008 20.5699 12.7656 20.8123 12.7656 21.1113C12.7656 21.4103 13.008 21.6526 13.307 21.6526C13.5144 21.6526 13.6945 21.536 13.7855 21.3647L15.3569 21.8851C15.3498 21.9238 15.3461 21.9637 15.3461 22.0045C15.3461 22.0876 15.3615 22.1671 15.3895 22.2403L13.9386 23.0394C13.8394 22.9146 13.6863 22.8346 13.5145 22.8346C13.2155 22.8346 12.9731 23.077 12.9731 23.3759C12.9731 23.6749 13.2155 23.9173 13.5145 23.9173C13.8135 23.9173 14.0559 23.6749 14.0559 23.3759C14.0559 23.3134 14.0452 23.2533 14.0257 23.1974L15.4767 22.3983C15.5803 22.5369 15.7371 22.6334 15.9169 22.6574L15.9216 23.9251C15.6665 23.9689 15.4724 24.1911 15.4724 24.4586C15.4724 24.7576 15.7148 25 16.0137 25C16.3127 25 16.5551 24.7576 16.5551 24.4586C16.5551 24.1897 16.359 23.9666 16.102 23.9245L16.0973 22.6567C16.2748 22.6317 16.4295 22.5361 16.5321 22.3991L17.975 23.1966C17.9553 23.2527 17.9446 23.3131 17.9446 23.3759C17.9446 23.6749 18.1869 23.9173 18.4859 23.9173C18.7849 23.9173 19.0273 23.6749 19.0273 23.3759C19.0273 23.077 18.7849 22.8346 18.4859 22.8346C18.3144 22.8346 18.1616 22.9143 18.0624 23.0387L16.6195 22.2412C16.6479 22.1678 16.6634 22.088 16.6634 22.0045C16.6634 21.9578 16.6585 21.9123 16.6493 21.8684L18.0142 21.377C18.107 21.5415 18.2835 21.6526 18.4859 21.6526C18.7849 21.6526 19.0273 21.4103 19.0273 21.1113C19.0273 20.8123 18.7849 20.5699 18.4859 20.5699C18.1869 20.5699 17.9446 20.8123 17.9446 21.1113C17.9446 21.144 17.9475 21.1761 17.953 21.2072L16.5882 21.6986C16.5701 21.6641 16.549 21.6315 16.5253 21.601L18.448 19.6343C18.5355 19.6951 18.6419 19.7308 18.7566 19.7308C19.0556 19.7308 19.298 19.4885 19.298 19.1895C19.298 18.8905 19.0556 18.6481 18.7566 18.6481C18.4576 18.6481 18.2153 18.8905 18.2153 19.1895C18.2153 19.3086 18.2537 19.4187 18.3189 19.5081L16.3963 21.4749C16.3452 21.437 16.2883 21.4063 16.2273 21.3844L16.2071 17.2088C16.424 17.1473 16.6051 17.0008 16.7122 16.8075L20.1861 17.6313L17.9582 18.1355C17.8772 17.9386 17.6835 17.8 17.4574 17.8C17.1584 17.8 16.916 18.0424 16.916 18.3414C16.916 18.6403 17.1584 18.8827 17.4574 18.8827C17.7563 18.8827 17.9987 18.6403 17.9987 18.3414C17.9987 18.3313 17.9984 18.3214 17.9979 18.3115L20.2693 17.7975C20.3435 17.9946 20.5096 18.1467 20.7153 18.2017L20.3214 21.3464C20.0332 21.3585 19.8032 21.596 19.8032 21.8872C19.8032 22.1862 20.0456 22.4286 20.3446 22.4286C20.6436 22.4286 20.8859 22.1862 20.8859 21.8872C20.8859 21.6424 20.7235 21.4356 20.5005 21.3686L20.8944 18.224C20.9669 18.2231 21.0366 18.2105 21.1016 18.1879L21.8175 19.5938C21.6847 19.6925 21.5987 19.8505 21.5987 20.0286C21.5987 20.3276 21.8411 20.5699 22.1401 20.5699C22.439 20.5699 22.6814 20.3276 22.6814 20.0286C22.6814 19.7296 22.439 19.4872 22.1401 19.4872C22.0837 19.4872 22.0293 19.4958 21.9782 19.5118L21.2624 18.1059C21.4096 18.0032 21.5129 17.8418 21.5384 17.6556H23.3295C23.3725 17.9117 23.5951 18.1068 23.8634 18.1068C24.1624 18.1068 24.4047 17.8644 24.4047 17.5654C24.4047 17.2664 24.1624 17.0241 23.8634 17.0241C23.5951 17.0241 23.3725 17.2192 23.3295 17.4752H21.5384C21.5231 17.3634 21.4798 17.2606 21.4157 17.174L22.904 15.7203C22.9934 15.7855 23.1036 15.8241 23.2228 15.8241C23.5218 15.8241 23.7641 15.5817 23.7641 15.2827C23.7641 14.9837 23.5218 14.7414 23.2228 14.7414C22.9238 14.7414 22.6814 14.9837 22.6814 15.2827C22.6814 15.3973 22.7171 15.5037 22.7778 15.5912L21.2896 17.0449C21.1781 16.9583 21.038 16.9068 20.8859 16.9068C20.656 16.9068 20.4536 17.0246 20.3358 17.2031L16.8161 16.3685C16.8099 16.2081 16.7587 16.0592 16.6747 15.9342L19.6788 12.425L18.5972 15.1769C18.5613 15.1694 18.5241 15.1654 18.4859 15.1654C18.1869 15.1654 17.9446 15.4078 17.9446 15.7068C17.9446 16.0057 18.1869 16.2481 18.4859 16.2481C18.7849 16.2481 19.0273 16.0057 19.0273 15.7068C19.0273 15.5099 18.9222 15.3377 18.7652 15.2429L19.9553 12.2148C20.0019 12.226 20.0506 12.2323 20.1005 12.233L20.379 14.4842C20.1556 14.5509 19.9927 14.7579 19.9927 15.003C19.9927 15.302 20.2351 15.5444 20.534 15.5444C20.833 15.5444 21.0754 15.302 21.0754 15.003C21.0754 14.7121 20.8459 14.4747 20.5581 14.4622L20.2796 12.211C20.4023 12.1784 20.5108 12.1113 20.5943 12.0208L22.1915 13.1304C22.1585 13.2003 22.1401 13.2785 22.1401 13.3609C22.1401 13.6599 22.3824 13.9023 22.6814 13.9023C22.9804 13.9023 23.2228 13.6599 23.2228 13.3609C23.2228 13.0619 22.9804 12.8195 22.6814 12.8195C22.5298 12.8195 22.3928 12.8819 22.2945 12.9822L20.6974 11.8727C20.7402 11.7885 20.7655 11.6938 20.7684 11.5936L22.1604 11.4422C22.2246 11.6695 22.4335 11.8361 22.6814 11.8361C22.9804 11.8361 23.2228 11.5937 23.2228 11.2947C23.2228 10.9958 22.9804 10.7534 22.6814 10.7534C22.3932 10.7534 22.1575 10.9787 22.141 11.2628L20.749 11.4142C20.7323 11.3473 20.7054 11.2846 20.67 11.2276L22.9686 9.32284C23.0634 9.40466 23.1869 9.45414 23.322 9.45414C23.621 9.45414 23.8634 9.21176 23.8634 8.91278C23.8634 8.6138 23.621 8.37143 23.322 8.37143C23.023 8.37143 22.7807 8.6138 22.7807 8.91278C22.7807 9.01159 22.8071 9.10421 22.8534 9.18395L20.5548 11.0887C20.5192 11.056 20.48 11.0273 20.4378 11.0031L21.239 9.01759C21.2764 9.02577 21.3152 9.03008 21.3551 9.03008C21.6541 9.03008 21.8965 8.7877 21.8965 8.48872C21.8965 8.18974 21.6541 7.94737 21.3551 7.94737C21.0561 7.94737 20.8137 8.18974 20.8137 8.48872C20.8137 8.68379 20.9169 8.85475 21.0717 8.95003L20.2705 10.9355C20.2191 10.9226 20.1654 10.9158 20.11 10.9158C20.0984 10.9158 20.0869 10.9161 20.0755 10.9167L19.6407 8.65319C19.8463 8.57642 19.9927 8.37824 19.9927 8.14586C19.9927 7.84688 19.7503 7.60451 19.4513 7.60451C19.1524 7.60451 18.91 7.84688 18.91 8.14586C18.91 8.44485 19.1524 8.68722 19.4513 8.68722C19.4554 8.68722 19.4594 8.68717 19.4634 8.68709L19.8983 10.9506C19.8667 10.9613 19.8362 10.9743 19.807 10.9895L17.6407 7.92513C17.7392 7.82709 17.8002 7.69135 17.8002 7.54135C17.8002 7.24237 17.5578 7 17.2589 7C16.9599 7 16.7175 7.24237 16.7175 7.54135C16.7175 7.84033 16.9599 8.08271 17.2589 8.08271C17.3429 8.08271 17.4224 8.06357 17.4934 8.02941L19.6597 11.0938C19.622 11.1291 19.5884 11.1689 19.5598 11.2122L16.1827 9.60243C16.1961 9.5553 16.2032 9.50556 16.2032 9.45414C16.2032 9.15515 15.9608 8.91278 15.6619 8.91278C15.3629 8.91278 15.1205 9.15515 15.1205 9.45414C15.1205 9.75312 15.3629 9.99549 15.6619 9.99549C15.845 9.99549 16.007 9.90451 16.1049 9.76528L19.4821 11.3751C19.4621 11.438 19.4513 11.5049 19.4513 11.5744C19.4513 11.5896 19.4519 11.6047 19.4529 11.6196L17.4202 12.0445C17.3412 11.8433 17.1453 11.7008 16.916 11.7008C16.617 11.7008 16.3746 11.9431 16.3746 12.2421C16.3746 12.5411 16.617 12.7835 16.916 12.7835C17.215 12.7835 17.4574 12.5411 17.4574 12.2421C17.4574 12.2351 17.4572 12.2281 17.457 12.2212L19.4896 11.7963C19.5023 11.8317 19.5179 11.8656 19.5361 11.8979L16.332 15.6407C16.2244 15.5905 16.1043 15.5624 15.9777 15.5624C15.8513 15.5624 15.7315 15.5903 15.6241 15.6403L12.5639 12.0578L15.8616 13.8284C15.8432 13.8828 15.8333 13.941 15.8333 14.0015C15.8333 14.3005 16.0757 14.5429 16.3746 14.5429C16.6736 14.5429 16.916 14.3005 16.916 14.0015C16.916 13.7025 16.6736 13.4602 16.3746 13.4602C16.2008 13.4602 16.0461 13.5421 15.947 13.6695L12.472 11.8037C12.4933 11.7464 12.5068 11.6854 12.5113 11.6219L14.5034 11.4918C14.5598 11.7306 14.7743 11.9083 15.0303 11.9083C15.3293 11.9083 15.5716 11.6659 15.5716 11.3669C15.5716 11.0679 15.3293 10.8256 15.0303 10.8256C14.75 10.8256 14.5194 11.0387 14.4917 11.3117L12.4996 11.4419C12.4742 11.3174 12.4137 11.2058 12.3289 11.1177L14.7709 8.01662C14.8479 8.05875 14.9363 8.08271 15.0303 8.08271Z" fill="white"/>
</svg>
