<svg width="32" height="32" viewBox="0 0 32 32" fill="none" xmlns="http://www.w3.org/2000/svg">
<circle cx="16" cy="16" r="16" fill="#64CDDD"/>
<path d="M24.9312 15.7555C24.886 15.6658 24.8265 15.5842 24.7549 15.5139C23.1991 13.7826 20.0313 10.3702 20.0313 10.3702L16.0046 14.6948L11.9313 10.4107C11.9313 10.4107 8.72825 13.8524 7.15747 15.6032C7.06037 15.7064 7.00458 15.8416 7.0007 15.9832C6.99683 16.1249 7.04515 16.263 7.13647 16.3713C7.95186 17.282 11.9598 21.6223 11.9598 21.6223L16.0046 17.2715L20.0185 21.6298L24.8561 16.3653C24.9071 16.3146 24.949 16.2555 24.9799 16.1905C25.0197 16.0444 25.0014 15.8885 24.9289 15.7555H24.9312ZM9.38912 16.237C9.33307 16.1574 9.306 16.0609 9.31241 15.9638C9.31883 15.8666 9.35834 15.7745 9.42438 15.7029C9.93672 15.1298 11.9868 12.968 11.9868 12.968L14.8426 15.9482L11.9823 19.0238C11.9823 19.0238 10.2285 17.186 9.38912 16.237ZM22.473 16.3391C22.4124 16.4407 22.3421 16.5362 22.2629 16.6241L20.0448 18.9923L17.1823 16L20.0005 12.965C20.0005 12.965 21.6238 14.6153 22.3679 15.5057C22.4391 15.5777 22.4966 15.6621 22.5375 15.7547C22.5663 15.8515 22.5755 15.953 22.5644 16.0534C22.5533 16.1538 22.5222 16.2509 22.473 16.3391Z" fill="white"/>
</svg>
