<svg width="32" height="32" viewBox="0 0 32 32" fill="none" xmlns="http://www.w3.org/2000/svg">
<circle cx="16" cy="16" r="16" fill="#F0D859"/>
<path fill-rule="evenodd" clip-rule="evenodd" d="M16.4245 7.00018L19.535 8.11802L22.0847 10.1866L24.3958 14.9975V20.9224L23.563 23.5248L19.3185 24.7093L14.7888 24.2609L12.7557 25.0002L10.0755 24.2061L8.43734 23.0798L7.604 21.1006L7.79801 19.2091L7.79821 19.2071L8.01572 17.1626L7.77184 15.7481L11.4365 8.98247L13.4769 7.63884L16.4245 7.00018ZM9.05132 17.4105L9.01505 17.7514L9.74079 16.9762L9.71767 16.8421L9.05132 17.4105ZM10.6258 15.8939L10.645 16.0054L13.4048 13.0386L13.59 11.3717L13.085 10.5913C13.0825 10.5939 13.0799 10.5964 13.0773 10.599C12.8743 10.8033 12.6432 11.0231 12.4654 11.188L10.6258 15.8939ZM12.4179 9.76344C12.4924 9.68667 12.5566 9.61789 12.6058 9.56142C12.6272 9.53689 12.6434 9.51739 12.6551 9.50263C12.6618 9.48068 12.6696 9.45607 12.6782 9.42923L12.4001 9.61235L12.4179 9.76344ZM11.0429 11.9264L8.87468 15.9293L8.91133 16.1419L9.63696 15.523L11.0429 11.9264ZM14.0846 8.58767C14.0157 8.78331 13.937 9.00819 13.8652 9.21564C13.811 9.37237 13.7612 9.51794 13.7227 9.63299L14.1223 10.2505L15.2963 8.32516L14.0846 8.58767ZM16.615 8.19079L15.7042 9.68457L17.8633 10.1087L18.5194 8.87516L16.615 8.19079ZM19.4371 9.39847L21.2354 10.8574L23.2127 14.9735L20.7503 17.0033L19.5939 14.1846L18.7083 10.7687L19.4371 9.39847ZM17.7179 11.1563L15.7405 10.7679L14.6339 11.5392L14.4881 12.8517L18.3673 13.6612L17.7179 11.1563ZM18.7096 14.8114L14.094 13.8482L11.0635 17.1059L15.6376 21.0985L19.8949 17.7005L18.7096 14.8114ZM21.3446 17.882L23.3398 19.6615V16.2373L21.3446 17.882ZM23.2604 21.0057L20.5147 18.5569L16.0488 22.1214L15.5139 23.2715L19.2255 23.639L22.7307 22.6607L23.2604 21.0057ZM14.3349 23.3022L14.9764 21.9231L10.8338 18.3071V23.3293L12.7219 23.8888L14.3349 23.3022ZM9.77774 22.7198V18.4819L8.83035 19.4939L8.68206 20.9397L9.29054 22.3849L9.77774 22.7198ZM12.6798 9.46869C12.68 9.46857 12.6782 9.47166 12.6735 9.4783C12.6772 9.47213 12.6795 9.46881 12.6798 9.46869Z" fill="white"/>
</svg>
