<svg width="32" height="32" viewBox="0 0 32 32" fill="none" xmlns="http://www.w3.org/2000/svg">
<circle cx="16" cy="16" r="16" fill="#187EF7"/>
<path fill-rule="evenodd" clip-rule="evenodd" d="M9.06435 24.0291V20.3768H9.14375C9.60029 20.8334 10.2553 21.0319 11.1883 21.0517C13.0938 21.0517 14.7016 19.4042 14.7016 16.6054V16.2481C14.7016 13.5684 13.3122 11.5636 11.2081 11.5636C10.7119 11.5636 9.79878 11.5835 9.10405 12.2584H9.02465V11.6827H7V24.0291H9.06435ZM12.7762 16.129V16.7444C12.7762 18.5507 12.0021 19.3645 10.9699 19.3447C9.63999 19.3447 8.9651 18.2132 8.9651 16.7245V16.129C8.9651 14.5609 9.63999 13.2111 10.9302 13.2111C12.1212 13.2111 12.7762 14.3823 12.7762 16.129Z" fill="white"/>
<path d="M17.7797 7.97087H15.7153V20.9128H17.7797V7.97087Z" fill="white"/>
<path d="M21.4166 15.7122C21.4166 14.5411 22.548 13.628 23.7192 13.628H23.9574V11.5438H23.8581C22.9252 11.5239 21.7938 11.7423 21.3372 12.2385H21.2578V11.6629H19.3523V20.9326H21.4166V15.7122Z" fill="white"/>
<path d="M25 18.7027H22.9356V20.9258H25V18.7027Z" fill="white"/>
</svg>
