<svg width="32" height="32" viewBox="0 0 32 32" fill="none" xmlns="http://www.w3.org/2000/svg">
<circle cx="16" cy="16" r="16" fill="#49BA75"/>
<path fill-rule="evenodd" clip-rule="evenodd" d="M23.8822 8.55882C23.1587 7.84609 22.1833 7.44763 21.1678 7.45002C20.1373 7.45002 19.1779 7.84602 18.4534 8.55882L9.58299 17.2942C9.53826 17.3391 9.50351 17.3929 9.48102 17.4522C9.45853 17.5114 9.44881 17.5747 9.45249 17.638V22.1344L7 24.55H8.3527L10.1689 22.7617H14.7085C14.7722 22.7623 14.8354 22.7497 14.8939 22.7246C14.9525 22.6995 15.0052 22.6625 15.0487 22.6159L23.8741 13.9237L23.8831 13.9147C24.2362 13.5668 24.5167 13.1523 24.7085 12.6951C24.9002 12.238 24.9993 11.7473 25 11.2516C25.0024 10.7512 24.9048 10.2554 24.7128 9.79323C24.5209 9.3311 24.2384 8.91202 23.8822 8.56062V8.55882ZM18.7234 9.57402L19.0987 9.20502C19.6499 8.66177 20.3938 8.3589 21.1678 8.36262C21.9445 8.36262 22.678 8.66322 23.2369 9.20502C23.2459 9.21402 23.2549 9.23022 23.272 9.23922C23.8039 9.78102 24.0919 10.4857 24.0919 11.2426C24.0919 12.0076 23.7859 12.7294 23.2369 13.2802L22.8526 13.6582H19.4218L21.6745 11.4397C21.7606 11.3556 21.8105 11.2413 21.8137 11.121C21.8169 11.0007 21.7731 10.8838 21.6916 10.7953C21.6826 10.7863 21.6826 10.7773 21.6736 10.7692C21.5833 10.6826 21.463 10.6343 21.3379 10.6343C21.2128 10.6343 21.0925 10.6826 21.0022 10.7692L18.7324 13.0048V9.57312L18.7234 9.57402ZM11.095 21.8509L12.9454 20.0275H16.3762L14.5258 21.8509H11.095ZM16.4806 16.5373L18.6721 14.3791H22.1029L19.9114 16.5373H16.4806ZM19.1608 17.2771L17.1178 19.2886H13.687L15.73 17.2771H19.1608ZM15.7831 12.4711L17.9827 10.3039V13.7257L15.7831 15.901V12.4711ZM12.9895 15.2215L15.0325 13.21V16.6318L12.9895 18.6433V15.2215ZM10.3705 17.8009L12.247 15.9613V19.3831L10.3705 21.2227V17.8009Z" fill="white"/>
</svg>
