<svg width="32" height="32" viewBox="0 0 32 32" fill="none" xmlns="http://www.w3.org/2000/svg">
<circle cx="16" cy="16" r="16" fill="#233066"/>
<path d="M25 11.4897L24.9632 10.8762L24.7855 11.3877L23.7828 12.2727L22.6337 12.4527L22.2902 12.1174L23.293 10.7097L24.325 10.3984L23.212 10.4232L21.5897 11.6134L20.0568 11.4664L17.9298 10.3984L16.6675 10.6519L12.7315 13.9647L10.8385 14.5827L10.0578 15.3897L8.65825 15.4062L7.9705 16.7082L7 16.9909L7.918 17.1222L8.7715 15.9552L10.0862 16.2334L10.066 17.4777L9.40675 19.2777L9.03175 20.9389L8.6275 21.6019L9.655 21.3724L9.538 20.6929L10.408 18.8682L12.0948 18.1849L12.7457 17.0922L13.8438 16.2747L16.024 16.6017L18.2282 15.6267L17.8532 17.1694L16.8745 17.2594L16.5955 18.5344L17.437 17.9659L18.82 17.3562L19.9075 15.6319L19.975 14.8137L20.5615 15.4272L22.2565 16.4989L23.215 16.0407L23.1558 13.7622L22.8805 12.8824L24.1383 12.5629L25 11.4897Z" fill="white"/>
</svg>
