<svg width="32" height="32" viewBox="0 0 32 32" fill="none" xmlns="http://www.w3.org/2000/svg">
<circle cx="16" cy="16" r="16" fill="#296A6F"/>
<path fill-rule="evenodd" clip-rule="evenodd" d="M15.8788 24.9259L14.0918 23.139L11.5875 23.8139L11.55 23.8214H11.4898C11.474 23.8134 11.4603 23.8017 11.4499 23.7873C11.4394 23.7729 11.4325 23.7563 11.4297 23.7388L11.418 23.6948C11.4167 23.6907 11.4156 23.6866 11.4147 23.6824L10.7584 21.2216L8.28058 20.5596C8.26459 20.5553 8.24966 20.5478 8.23673 20.5374C8.22379 20.5271 8.21314 20.5142 8.20543 20.4995C8.19455 20.4678 8.19455 20.4335 8.20543 20.4018L8.86827 17.9154L7.04071 16.0878C7.02792 16.0765 7.01767 16.0627 7.01065 16.0471C7.00363 16.0316 7 16.0147 7 15.9976C7 15.9806 7.00363 15.9637 7.01065 15.9482C7.01767 15.9326 7.02792 15.9187 7.04071 15.9074L8.8567 14.0915L8.19046 11.5935C8.18779 11.5649 8.19541 11.5363 8.21195 11.5129C8.22849 11.4895 8.25285 11.4727 8.28065 11.4657L10.7672 10.792L11.4372 8.27905C11.4476 8.2471 11.4695 8.22016 11.4987 8.20349C11.5278 8.18682 11.5622 8.18161 11.595 8.18886L14.086 8.86218L15.9092 7.03897C15.9205 7.02618 15.9343 7.01593 15.9499 7.00891C15.9654 7.00189 15.9823 6.99826 15.9994 6.99826C16.0164 6.99826 16.0333 7.00189 16.0488 7.00891C16.0644 7.01593 16.0783 7.02618 16.0896 7.03897L17.9092 8.85708L20.4034 8.18135C20.4351 8.17047 20.4694 8.17047 20.5011 8.18135C20.5269 8.19951 20.5455 8.22609 20.5537 8.2565L21.2346 10.7945L23.6528 11.4481C23.6644 11.4464 23.6763 11.4462 23.6882 11.4477C23.7172 11.4514 23.744 11.465 23.7642 11.486C23.7652 11.487 23.7661 11.488 23.767 11.489C23.7783 11.498 23.7879 11.5089 23.7953 11.5213C23.8038 11.5354 23.8093 11.5511 23.8114 11.5674C23.8136 11.5836 23.8124 11.6002 23.8079 11.616L23.1446 14.0881L24.9656 15.9074C24.9877 15.9322 25 15.9644 25 15.9976C25 16.0309 24.9877 16.063 24.9656 16.0878L23.1448 17.9147L23.808 20.3868C23.8153 20.4196 23.81 20.4539 23.7934 20.4831C23.7797 20.5071 23.759 20.5262 23.7344 20.538C23.7129 20.5522 23.6876 20.5598 23.6619 20.5597L21.2324 21.2144L20.5612 23.7162C20.5541 23.744 20.5374 23.7684 20.5139 23.7849C20.4905 23.8014 20.4619 23.8091 20.4334 23.8064L20.4011 23.7978L20.396 23.7989H20.3359L20.2763 23.7644L17.9376 23.1396L16.0896 24.9939C16.0605 25.0048 16.0284 25.0048 15.9994 24.9939C15.975 24.9953 15.9505 24.9897 15.9292 24.9777C15.9079 24.9657 15.8903 24.9475 15.8788 24.9259ZM23.3536 11.6102L21.3054 11.0585L21.7073 12.5564L23.3536 11.6102ZM21.4235 12.7195L20.5238 11.8222V13.2366L21.4235 12.7195ZM20.6517 13.4535L21.5449 12.9611L21.8501 14.1047L21.8304 14.1335L20.6517 13.4535ZM21.6905 14.3383L20.5238 13.6649V15.8699H20.6435L21.6905 14.3383ZM20.5238 16.3962L20.7136 16.1192L22.3289 16.1147L22.2087 16.567L20.5238 17.0224V16.3962ZM20.8843 15.8699L21.8647 14.4388L21.9529 14.4897L22.3213 15.8699H20.8843ZM22.1145 14.0742L22.1853 14.3383L22.7193 14.6463L22.8526 14.1449L22.3853 13.6788L22.1145 14.0742ZM22.3822 13.3263L21.8489 12.7935L23.2893 11.9993L22.3822 13.3263ZM22.5274 13.4714L23.3513 12.2686L22.9258 13.8694L22.5274 13.4714ZM22.2401 13.5341L22.0458 13.8184L21.8707 13.1657L22.2401 13.5341ZM16.0694 24.623L17.6296 23.0573L16.0934 22.6469L16.0694 24.623ZM15.8564 22.3202V21.3358L14.7391 21.9783L14.7625 22.0267L15.8564 22.3202ZM14.6304 21.7537L15.7186 21.1282L13.7975 20.017L13.7935 20.024L14.6304 21.7537ZM13.6433 20.287L14.4109 21.8799L14.3487 21.9156L12.9306 21.5351L13.6433 20.287ZM13.4033 19.789L13.5122 20.015L12.7148 21.3973L12.3929 21.0743L12.8318 19.4584L13.4033 19.789ZM14.5865 22.2443L14.7994 22.686L14.1683 22.8558L13.8203 22.5066L14.3748 22.1878L14.5865 22.2443ZM15.0491 22.6189L14.9096 22.3306L15.5172 22.493L15.0491 22.6189ZM14.9112 22.9181L14.3745 23.0628L15.5488 24.2411L14.9112 22.9181ZM15.1613 22.8507L15.8564 22.6634V24.2874L15.1613 22.8507ZM16.0971 22.337L17.2652 22.0228L16.1091 21.3541L16.0971 22.337ZM23.467 20.1622L22.9258 18.1345L21.8528 19.2111L23.467 20.1622ZM21.5528 19.0344L21.8584 17.8848L20.7163 18.5415L21.5528 19.0344ZM20.5238 18.7214L21.4226 19.2513L20.6045 20.0722L20.5238 20.0662V18.7214ZM20.2683 20.0473V18.7991L18.3746 19.8879L18.3863 19.9082L20.2683 20.0473ZM17.9482 20.1331L18.2349 20.1545L19.0548 21.5414L18.6281 21.6562L17.4072 20.4442L17.9482 20.1331ZM17.8381 19.9098L17.2243 20.2627L14.8491 17.9049L14.8051 17.7888L16.4953 18.114L16.4502 18.1697C16.4343 18.1915 16.4258 18.2178 16.4258 18.2448C16.4258 18.2718 16.4343 18.2981 16.4502 18.32C16.4631 18.3381 16.4799 18.3529 16.4995 18.3633C16.5191 18.3738 16.5408 18.3795 16.563 18.3801H16.593L17.1035 18.2409L18.0263 19.8016L17.8913 19.8793C17.8754 19.8838 17.8605 19.8915 17.8475 19.9017C17.8442 19.9043 17.8411 19.907 17.8381 19.9098ZM18.5415 20.1774L20.2683 20.3064V20.4096L19.2594 21.4219L18.5415 20.1774ZM20.7271 20.3407L20.5238 20.5446V21.1462L21.0275 21.0108L21.1963 20.3757L20.7271 20.3407ZM21.5208 20.1399L21.7132 19.4226L23.132 20.259L21.5208 20.1399ZM21.4524 20.3948L22.9119 20.5039L21.3073 20.9355L21.4524 20.3948ZM21.264 20.1209L20.9679 20.099L21.3796 19.6859L21.264 20.1209ZM11.9141 23.3152L13.4088 22.4559L12.7697 21.8168L11.9141 23.3152ZM13.9293 19.7863L15.9868 20.974L16.9618 20.4135L14.7938 18.2723L13.9293 19.7863ZM14.6179 18.0985L13.7154 19.6628L12.9036 19.1942L13.7577 16.0498L13.8706 15.9147L14.4437 17.492L14.3613 17.4782C14.3344 17.4831 14.3095 17.4957 14.2895 17.5143C14.2695 17.533 14.2553 17.557 14.2486 17.5835C14.2327 17.6053 14.2241 17.6316 14.2241 17.6586C14.2241 17.6856 14.2327 17.7119 14.2486 17.7338L14.6179 18.0985ZM14.7094 17.5363L16.6952 17.8672L17.9789 16.2824L17.2736 14.4606L15.3504 14.1426L14.025 15.7297L14.7094 17.5363ZM13.914 15.4366L15.0453 14.0922L14.9171 14.071L11.7002 14.9256V15.8699H13.4805L13.6166 15.3588C13.6153 15.3284 13.6247 15.2985 13.6434 15.2745C13.662 15.2504 13.6886 15.2338 13.7183 15.2275C13.7481 15.2212 13.7791 15.2256 13.8059 15.24C13.8327 15.2544 13.8535 15.2779 13.8646 15.3062L13.914 15.4366ZM13.4164 16.1104H11.7002V18.4994L12.6361 19.0398L13.4164 16.1104ZM12.5656 19.3045L11.7002 18.8039V20.3792L12.1572 20.8378L12.5656 19.3045ZM12.0801 21.1272L11.7002 20.7473V21.2049L12.0354 21.2949L12.0801 21.1272ZM12.245 21.6188L12.5413 21.6979L11.9406 22.7392L12.245 21.6188ZM11.9688 21.545L11.7002 22.5535V21.4732L11.9688 21.545ZM12.3127 21.3693L12.3147 21.3618L12.3256 21.3727L12.3127 21.3693ZM20.9533 21.2897L20.5238 22.9055V21.4054L20.9533 21.2897ZM20.2683 21.215V20.801L19.7046 21.3666L20.2683 21.215ZM21.9482 17.5472L20.5238 18.366V17.3081L22.128 16.8706L21.9482 17.5472ZM22.4193 16.7911L22.5571 16.7535L22.6598 17.1381L22.2654 17.3648L22.4193 16.7911ZM22.8145 16.6833L24.0255 16.3531L22.8995 17.0003L22.8145 16.6833ZM24.3441 15.8699L22.8915 15.0315L22.6665 15.8699H24.3441ZM22.6617 16.1138L23.8982 16.1104L22.7444 16.4222L22.6617 16.1138ZM20.2683 15.8699V13.5174L19.3154 12.9674L18.5528 15.8699H20.2683ZM18.2781 15.913L19.0821 12.8328L18.25 12.3525L17.3754 13.8985L17.7429 14.2615C17.7571 14.2826 17.7647 14.3075 17.7647 14.3329C17.7647 14.3583 17.7571 14.3832 17.7429 14.4043C17.742 14.4302 17.7338 14.4552 17.7191 14.4765C17.7045 14.4978 17.684 14.5145 17.6602 14.5246L17.5548 14.5071L18.1494 16.0719L18.2765 15.915L18.2781 15.913ZM20.2683 13.2323L19.3804 12.7201L19.8047 11.105L20.2683 11.5674V13.2323ZM19.1467 12.5853L19.5892 10.89L19.2621 10.5638L18.4806 11.945L18.6522 12.2999L19.1467 12.5853ZM19.0424 10.449L18.3473 11.6692L17.6136 10.1513L17.7164 10.0919L19.0424 10.449ZM17.3787 10.2871L18.1839 11.956L18.1523 12.0115L16.2718 10.9267L17.3787 10.2871ZM17.268 10.0576L17.2201 9.95822L16.1344 9.66583V10.712L17.268 10.0576ZM17.6636 9.82923L17.427 9.76529L17.2045 9.3048L17.8307 9.13613L18.2096 9.51404L17.6636 9.82923ZM17.082 9.67202L16.9393 9.37621L16.4626 9.5046L17.082 9.67202ZM17.6275 8.93341L17.0947 9.07775L16.4641 7.77303L17.6275 8.93341ZM16.1344 9.33791L16.8299 9.14949L16.1344 7.70786V9.33791ZM19.9153 10.6841L19.8784 10.8246L20.2683 11.2141V10.7792L19.9153 10.6841ZM20.2683 9.34056L19.9757 10.4542L20.2683 10.5333V9.34056ZM18.6216 9.56885L19.9965 8.77431L19.2093 10.1561L18.6216 9.56885ZM20.0274 9.21099L19.4105 10.3014L19.7209 10.3853L20.0274 9.21099ZM16.0259 11.0688L18.0302 12.2257L17.1846 13.7101L15.0697 11.6214L16.0259 11.0688ZM14.8392 11.7546L17.0794 13.9618C17.0817 13.9693 17.0848 13.9766 17.0888 13.9834L17.1501 14.1418L15.5672 13.883L15.5711 13.8782C15.586 13.856 15.5939 13.8298 15.5939 13.8031C15.5939 13.7763 15.586 13.7502 15.5711 13.7279C15.5572 13.7036 15.5357 13.6846 15.5099 13.6737C15.4841 13.6629 15.4554 13.6608 15.4283 13.6678L14.9802 13.787L14.8944 13.773L13.9971 12.2412L14.8392 11.7546ZM17.0033 17.9186L18.0905 16.5705L18.1335 16.6815C18.1442 16.7049 18.1611 16.7249 18.1822 16.7394C18.2034 16.754 18.2281 16.7625 18.2537 16.7642L18.2312 16.7342C18.2582 16.7303 18.2837 16.7192 18.3049 16.702C18.3261 16.6848 18.3422 16.6621 18.3514 16.6365L18.4857 16.1253L20.2683 16.1204V17.0914L17.1299 17.9397L17.0033 17.9186ZM20.2683 17.3778L17.3809 18.1652L18.2505 19.6728L20.2683 18.5129V17.3778ZM22.1747 17.7029L21.8832 18.789L22.8433 17.8256L22.7259 17.386L22.1747 17.7029ZM22.9659 17.248L23.062 17.6062L24.027 16.6379L22.9659 17.248ZM24.2279 15.5167L23.0709 14.3627L22.9579 14.784L24.2279 15.5167ZM22.276 14.6762L22.6534 14.8941L22.4947 15.4913L22.276 14.6762ZM15.8789 10.7L14.6521 9.99222L15.8789 9.66181V10.7ZM15.8789 7.42969V9.34682L14.3666 8.93804L15.8789 7.42969ZM14.3541 9.82026L15.5275 9.50236L14.168 9.1362L13.8016 9.50156L14.3541 9.82026ZM13.6216 9.68115L14.0196 9.91087L13.4846 10.0558L13.3647 9.93739L13.6216 9.68115ZM13.1809 10.1207L13.1948 10.1343L13.1569 10.1446L13.1809 10.1207ZM13.3968 9.55139L13.1866 9.76153L12.3792 8.9641L13.3968 9.55139ZM11.7002 10.5393V8.779L12.5783 10.3014L11.7002 10.5393ZM12.1737 9.12831L12.7818 10.1664L13.0029 9.94526L12.1737 9.12831ZM13.3944 10.331L12.9485 10.451L13.7799 11.8703L14.088 11.8933L14.6505 11.5686L13.3944 10.331ZM11.7002 11.5976L12.7322 10.5682L13.47 11.8472L11.7002 11.715V11.5976ZM11.7002 11.9669L13.6241 12.1144L13.6443 12.1495L11.7002 13.2718V11.9669ZM11.4371 11.9467L11.3564 11.9405L10.5621 12.7327L11.4371 13.2461V11.9467ZM11.4371 11.511L11.2657 11.6825L10.804 11.648L10.9821 10.9806L11.4371 10.8581V11.511ZM8.88959 11.7513L10.479 11.8732L10.2921 12.5743L8.88959 11.7513ZM8.53164 11.8345L10.1564 12.7918L9.07359 13.8746L8.53164 11.8345ZM10.6964 11.0576L10.5442 11.6286L9.00363 11.5135L10.6964 11.0576ZM10.7386 11.8931L11.0325 11.9156L10.6234 12.3248L10.7386 11.8931ZM10.1284 14.1791L10.4522 12.9661L11.3318 13.4844L10.1284 14.1791ZM11.7002 13.5685L13.7722 12.3712L14.641 13.8773L11.7002 14.6597V13.5685ZM11.4371 13.7205V14.7297L9.87017 15.1466L10.0345 14.5311L11.4371 13.7205ZM11.4371 14.9955L9.794 15.432L9.67711 15.8699H11.2455L11.4371 15.5847V14.9955ZM9.66754 16.1104H11.0839L10.0995 17.5754L10.049 17.5462L9.66754 16.1104ZM10.3062 17.6947L11.3624 16.1104H11.4371V18.3476L10.3062 17.6947ZM11.3115 18.5791L10.1604 17.9133L10.1505 17.9283L10.4528 19.0661L11.3115 18.5791ZM10.1074 18.7809L9.95729 18.218L9.79263 18.465L10.1074 18.7809ZM9.82414 17.7188L9.87502 17.9096L9.61891 18.2907L9.15516 17.8254L9.26927 17.3979L9.82414 17.7188ZM10.176 19.2231L9.64274 18.6899L8.74695 20.0335L10.176 19.2231ZM8.64345 19.7425L9.46808 18.5152L9.07575 18.1229L8.64345 19.7425ZM8.64338 20.3846L10.2863 19.4518L10.681 20.9314L8.64338 20.3846ZM11.4371 20.1152L10.599 19.2742L11.4371 18.7984V20.1152ZM9.72239 14.7114L9.58623 15.2222L9.44179 15.2606L9.35266 14.9251L9.72239 14.7114ZM9.5102 15.5074L9.50754 15.5081L9.50877 15.5127L9.5102 15.5074ZM9.11557 15.0621L9.18663 15.3285L8.20053 15.5908L9.11557 15.0621ZM9.11102 17.0048L7.56171 16.1104H9.34945L9.11102 17.0048ZM8.14566 15.8699H9.33102L9.25259 15.5758L8.14566 15.8699ZM17.1453 20.5947L18.3073 21.7424L17.6324 21.924L16.2357 21.1177L17.1453 20.5947ZM18.5145 21.947L17.9403 22.1017L18.3476 22.3369L18.6262 22.0573L18.5145 21.947ZM19.4213 21.7026L20.2683 21.4743V23.1709L19.4213 21.7026ZM19.2319 21.8409L19.8252 22.8444L19.0242 22.0493L19.2319 21.8409ZM19.6993 23.1172L18.8227 22.2515L18.5951 22.4798L19.6993 23.1172ZM15.771 10.9218L14.8814 11.4353L13.6842 10.2529L14.3169 10.0825L15.771 10.9218ZM13.5765 9.37167L13.8875 9.06067L12.2931 8.63125L13.5765 9.37167ZM11.4371 9.27609L11.0532 10.7145L11.4371 10.6105V9.27609ZM11.7002 11.248V10.7873L12.3307 10.6174L11.7002 11.248ZM11.4371 20.4842L10.6097 19.6568L10.9688 21.0086L11.4371 21.1343V20.4842ZM11.4371 21.4029V22.7716L11.0458 21.2984L11.4371 21.4029ZM12.3731 23.3387L13.8849 22.932L13.5912 22.6383L12.3731 23.3387ZM13.6383 22.324L13.186 21.8702L14.0338 22.0967L13.6383 22.324ZM21.3733 12.3182L20.5238 11.4695V10.848L21.0162 10.9806L21.3733 12.3182ZM20.9457 10.7164L20.5238 10.6023V9.13573L20.9457 10.7164ZM18.1125 9.06023L19.7682 8.61431L18.436 9.38338L18.1125 9.06023ZM18.3955 9.69947L18.0093 9.92267L18.8461 10.1489L18.3955 9.69947ZM10.1368 13.1569L9.81626 14.3593L9.28399 14.6666L9.14558 14.1455L10.1368 13.1569ZM8.92879 14.3618L9.04663 14.8036L7.71528 15.5721L8.92879 14.3618ZM8.94775 17.6172L7.99413 16.6603L9.04137 17.266L8.94775 17.6172ZM9.33905 17.1364L9.72883 17.3614L9.504 16.5184L9.33905 17.1364ZM16.4944 22.4914L17.5729 22.2008L18.1504 22.5348L17.8351 22.8512L16.4944 22.4914ZM18.1427 22.9338L18.3978 22.6779L19.4439 23.2829L18.1427 22.9338Z" fill="white"/>
</svg>
