<svg width="32" height="32" viewBox="0 0 32 32" fill="none" xmlns="http://www.w3.org/2000/svg">
<circle cx="16" cy="16" r="16" fill="#428588"/>
<path fill-rule="evenodd" clip-rule="evenodd" d="M22.5789 7.9396C22.4736 7.83101 22.3476 7.74468 22.2083 7.68572C22.069 7.62677 21.9193 7.59639 21.7681 7.59639C21.6168 7.59639 21.4671 7.62677 21.3278 7.68572C21.1885 7.74468 21.0625 7.83101 20.9572 7.9396L18.8631 10.0868L16.1786 7.33934C16.1242 7.2832 16.0638 7.23311 15.9986 7.18995C15.7973 7.04733 15.5516 6.98153 15.3059 7.00448C15.0603 7.02742 14.8309 7.1376 14.6595 7.31504L14.637 7.33844H14.6361L14.6352 7.34024L7.77417 14.3768C7.77021 14.3815 7.766 14.386 7.76157 14.3903L7.74717 14.4038C7.3512 14.8088 7.3512 15.4666 7.74717 15.8725L9.82241 17.9909C10.2184 18.3896 10.8537 18.3869 11.2461 17.9846C11.435 17.7894 11.5412 17.5286 11.5424 17.2569C11.5436 16.9852 11.4397 16.7236 11.2524 16.5267L9.9475 15.1921L15.3516 9.64856L18.1576 12.5238C18.5013 12.8748 19.0305 12.9531 19.4552 12.7128C19.5695 12.6553 19.6735 12.5793 19.763 12.4878L22.5798 9.60086C22.7948 9.3778 22.9149 9.08005 22.9149 8.77023C22.9149 8.46041 22.7939 8.16266 22.5789 7.9396ZM24.251 16.1307L24.2258 16.1047L24.2231 16.1028L24.2213 16.1011L22.1757 14.0087C22.0827 13.9142 21.9716 13.8392 21.8492 13.7882C21.7267 13.7372 21.5952 13.7112 21.4626 13.7118C21.3299 13.7124 21.1987 13.7395 21.0767 13.7916C20.9546 13.8437 20.8443 13.9196 20.752 14.015C20.5631 14.2103 20.4569 14.471 20.4558 14.7427C20.4546 15.0144 20.5585 15.276 20.7457 15.4729L22.0506 16.8075L16.6565 22.3367L13.8433 19.4587C13.7154 19.326 13.5554 19.2285 13.3789 19.1755C13.2024 19.1226 13.0152 19.116 12.8354 19.1563C12.6113 19.2013 12.4052 19.3147 12.245 19.4821L9.42824 22.3691C9.13666 22.6651 9.02237 23.098 9.12766 23.5048C9.23385 23.9115 9.54343 24.2292 9.9412 24.3372C10.339 24.4452 10.761 24.3282 11.0508 24.0294L13.1323 21.8894L15.7574 24.5748C15.8462 24.6967 15.9605 24.7977 16.0924 24.8708C16.2244 24.9438 16.3707 24.987 16.5211 24.9975C16.6715 25.008 16.8224 24.9854 16.9632 24.9313C17.1039 24.8773 17.2312 24.793 17.3359 24.6846L24.224 17.6219C24.2282 17.6172 24.2327 17.6127 24.2375 17.6084L24.2519 17.5949C24.4428 17.399 24.5495 17.1362 24.5494 16.8627C24.5492 16.5891 24.4421 16.3264 24.251 16.1307Z" fill="white"/>
</svg>
