<svg width="32" height="32" viewBox="0 0 32 32" fill="none" xmlns="http://www.w3.org/2000/svg">
<circle cx="16" cy="16" r="16" fill="#2C3F5A"/>
<path d="M14.5116 25.0002V21.1104H14.5058V19.0935H14.5107V13.818H14.5058V11.8011H17.8521C18.6006 11.7919 19.3222 12.0795 19.8591 12.6011C20.396 13.1227 20.7045 13.8357 20.717 14.5841V18.3102C20.7075 19.0608 20.4004 19.777 19.8633 20.3015C19.3261 20.8259 18.6027 21.1157 17.8521 21.1072H16.7388V25.0002H14.5116ZM17.8521 19.0935C17.9555 19.0957 18.0584 19.0773 18.1547 19.0394C18.251 19.0015 18.3389 18.9448 18.4131 18.8727C18.4874 18.8006 18.5465 18.7145 18.5872 18.6193C18.6279 18.5241 18.6493 18.4219 18.6502 18.3184V14.5923C18.6489 14.4892 18.6273 14.3873 18.5866 14.2925C18.5459 14.1977 18.4869 14.1118 18.413 14.0398C18.3391 13.9678 18.2518 13.9111 18.1559 13.8729C18.0601 13.8347 17.9577 13.8157 17.8545 13.8171H16.7388V19.0927L17.8521 19.0935ZM11.2832 21.1153V13.9719C11.2908 13.3881 11.5295 12.8312 11.947 12.4232C12.3645 12.0152 12.9267 11.7894 13.5105 11.7953V21.1153H11.2832ZM13.8289 8.77815C13.8431 8.30177 14.0424 7.84968 14.3844 7.51776C14.7264 7.18583 15.1842 7.00018 15.6608 7.00018C16.1374 7.00018 16.5952 7.18583 16.9372 7.51776C17.2792 7.84968 17.4785 8.30177 17.4927 8.77815C17.4785 9.25452 17.2792 9.70661 16.9372 10.0385C16.5952 10.3705 16.1374 10.5561 15.6608 10.5561C15.1842 10.5561 14.7264 10.3705 14.3844 10.0385C14.0424 9.70661 13.8431 9.25452 13.8289 8.77815Z" fill="white"/>
</svg>
