<svg width="32" height="32" viewBox="0 0 32 32" fill="none" xmlns="http://www.w3.org/2000/svg">
<circle cx="16" cy="16" r="16" fill="#2D8EFF"/>
<path d="M13.4658 18.0776H15.1486C15.6294 18.0791 16.1045 17.9736 16.5395 17.7687C16.9507 17.5651 17.3177 17.2833 17.6196 16.9383C17.9194 16.5813 18.1511 16.1732 18.3055 15.7339C18.4719 15.2888 18.5561 14.8172 18.5542 14.342C18.5569 13.8783 18.4647 13.419 18.2835 12.9922C18.1095 12.5598 17.8641 12.1597 17.5574 11.8088C17.2483 11.4573 16.8745 11.1686 16.4563 10.9584C16.0274 10.7367 15.5511 10.6225 15.0683 10.6255H10.6458V21.3589H13.4698L13.4658 18.0776ZM13.4658 13.2178H14.8969C15.0958 13.2309 15.2819 13.3203 15.4163 13.4675C15.5828 13.633 15.6871 13.9248 15.6871 14.3811C15.6871 14.8374 15.5838 15.1082 15.4364 15.2556C15.313 15.401 15.1466 15.5043 14.96 15.5043H13.4658V13.2178ZM7.00049 8.03512V23.9673C7.00049 24.5389 7.4628 25.0002 8.03342 25.0002H23.9666C24.5372 25.0002 24.9995 24.5389 24.9995 23.9673V8.03411C24.9996 7.89838 24.973 7.76396 24.9212 7.63852C24.8693 7.51308 24.7932 7.3991 24.6973 7.30307C24.6014 7.20705 24.4875 7.13088 24.3621 7.07891C24.2367 7.02693 24.1023 7.00018 23.9666 7.00018H8.03342C7.89777 7.00018 7.76345 7.0269 7.63813 7.07881C7.51281 7.13072 7.39894 7.2068 7.30303 7.30272C7.20711 7.39864 7.13102 7.51251 7.07912 7.63783C7.02721 7.76315 7.00049 7.89746 7.00049 8.03311V8.03512ZM21.8456 22.8802H10.1324C9.99663 22.8803 9.86221 22.8537 9.73677 22.8018C9.61133 22.75 9.49735 22.6739 9.40132 22.578C9.3053 22.4821 9.22913 22.3682 9.17716 22.2428C9.12518 22.1174 9.09843 21.983 9.09843 21.8473V10.1341C9.0983 9.99825 9.12495 9.86374 9.17687 9.73824C9.22878 9.61274 9.30493 9.4987 9.40097 9.40267C9.497 9.30663 9.61104 9.23048 9.73654 9.17857C9.86204 9.12665 9.99655 9.1 10.1324 9.10013H21.8456C22.4172 9.10013 22.8785 9.56244 22.8785 10.1331V21.8462C22.8785 22.4179 22.4172 22.8802 21.8456 22.8802ZM14.7324 19.3452V21.3809H21.3582V19.3452H14.7324Z" fill="white"/>
</svg>
