<svg width="32" height="32" viewBox="0 0 32 32" fill="none" xmlns="http://www.w3.org/2000/svg">
<circle cx="16" cy="16" r="16" fill="#0099FF"/>
<path d="M15.4743 11.2112C14.4664 11.2664 13.4867 11.5642 12.6185 12.0792C11.7504 12.5943 11.0194 13.3114 10.4879 14.1696H10.4642C10.3543 14.1696 10.2466 14.1993 10.1521 14.2553C10.0577 14.3114 9.98011 14.3919 9.92748 14.4882C9.87485 14.5846 9.84913 14.6934 9.85301 14.8032C9.8569 14.9129 9.89025 15.0196 9.94957 15.112C9.63979 15.7531 9.46307 16.4502 9.43006 17.1614L8.61195 16.3572C8.53483 16.2861 8.48042 16.1939 8.45554 16.092C8.43065 15.9901 8.43639 15.8831 8.47205 15.7845C9.03812 14.0142 10.1584 12.4728 11.6676 11.388C11.7559 11.4293 11.8529 11.449 11.9504 11.4452C12.0479 11.4415 12.143 11.4144 12.2279 11.3664C12.3128 11.3183 12.385 11.2507 12.4384 11.169C12.4918 11.0874 12.5248 10.9941 12.5348 10.8971C13.6348 10.3802 14.8344 10.11 16.0497 10.1053C17.2651 10.1007 18.4667 10.3617 19.5706 10.8701C19.571 10.9756 19.5986 11.0792 19.6508 11.1709C19.703 11.2627 19.7779 11.3393 19.8685 11.3936C19.959 11.4478 20.062 11.4777 20.1674 11.4805C20.2729 11.4832 20.3773 11.4587 20.4705 11.4092C20.8456 11.6729 21.1938 11.9726 21.5104 12.3042L20.7119 13.1027C19.61 11.9837 18.1418 11.2991 16.5763 11.1744C16.5229 11.0726 16.4418 10.9879 16.3424 10.93C16.2431 10.8721 16.1294 10.8434 16.0144 10.8471C15.8995 10.8509 15.7879 10.887 15.6925 10.9512C15.5971 11.0155 15.5218 11.1053 15.4751 11.2104L15.4743 11.2112ZM21.0375 20.4281C21.0018 20.4665 20.9781 20.5145 20.9693 20.5661C20.9605 20.6178 20.967 20.6709 20.9879 20.7189C21.0088 20.767 21.0433 20.8079 21.0872 20.8366C21.131 20.8653 21.1823 20.8806 21.2347 20.8806H23.4779V21.2561C23.4779 21.7848 23.268 22.2919 22.8943 22.6659C22.5206 23.0399 22.0137 23.2502 21.485 23.2506H10.5828C10.3208 23.2506 10.0614 23.199 9.81931 23.0987C9.57727 22.9984 9.35735 22.8515 9.17213 22.6662C8.9869 22.4809 8.84 22.2609 8.73981 22.0188C8.63962 21.7767 8.58811 21.5173 8.58822 21.2553V20.8781H10.7677C10.8248 20.8786 10.8807 20.8622 10.9284 20.8308C10.9762 20.7995 11.0135 20.7546 11.0357 20.702C11.0578 20.6494 11.0639 20.5914 11.053 20.5354C11.0422 20.4793 11.0149 20.4278 10.9747 20.3872L7.41913 16.8636C7.23537 16.6819 7.10501 16.4532 7.04225 16.2025C6.9795 15.9517 6.98676 15.6886 7.06325 15.4417C7.59428 13.6829 8.62666 12.1171 10.034 10.936C11.4413 9.75498 13.1624 9.00992 14.9867 8.79207C14.9867 8.79207 19.0552 8.27912 21.8998 10.8071C23.4339 12.0762 24.515 13.8087 24.9808 15.7444C25.0151 15.9428 25.0034 16.1464 24.9466 16.3396C24.8899 16.5327 24.7896 16.7103 24.6536 16.8587L21.0375 20.4281ZM9.21981 21.3542C9.21981 21.5307 9.25455 21.7053 9.32206 21.8683C9.38957 22.0313 9.48852 22.1794 9.61326 22.3041C9.738 22.4289 9.88609 22.5278 10.0491 22.5953C10.2121 22.6628 10.3867 22.6976 10.5632 22.6976H21.4646C21.8208 22.6976 22.1625 22.5561 22.4144 22.3041C22.6664 22.0522 22.8079 21.7105 22.8079 21.3542H9.21981ZM24.0212 16.6632C24.1373 16.548 24.2202 16.4035 24.2611 16.2452C24.302 16.0868 24.2993 15.9203 24.2535 15.7632C23.6887 13.7801 22.4689 12.0467 20.7929 10.8455C20.7899 10.7404 20.7597 10.6378 20.7054 10.5477C20.6511 10.4576 20.5743 10.3831 20.4827 10.3314C20.3911 10.2797 20.2877 10.2526 20.1825 10.2527C20.0773 10.2527 19.9739 10.28 19.8823 10.3318C18.7031 9.74446 17.4036 9.43878 16.0863 9.43878C14.7689 9.43878 13.4694 9.74446 12.2902 10.3318C12.1993 10.2641 12.0913 10.223 11.9784 10.2132C11.8654 10.2034 11.752 10.2251 11.6507 10.276C11.5495 10.327 11.4643 10.4051 11.4049 10.5016C11.3455 10.5981 11.3141 10.7093 11.3142 10.8226C11.3143 10.8605 11.3178 10.8983 11.3248 10.9355L11.3142 10.9216C9.63703 12.0875 8.40582 13.7886 7.82246 15.7461C7.77568 15.884 7.76859 16.0323 7.802 16.174C7.83542 16.3158 7.90799 16.4453 8.01145 16.5478L12.1258 20.7022C12.1549 20.7339 12.1902 20.7595 12.2294 20.7772C12.2687 20.7949 12.3112 20.8045 12.3543 20.8054C12.3973 20.8063 12.4402 20.7984 12.4801 20.7823C12.5201 20.7662 12.5564 20.7421 12.5868 20.7116C12.6172 20.6811 12.6411 20.6447 12.6571 20.6047C12.6731 20.5647 12.6808 20.5218 12.6797 20.4787C12.6787 20.4357 12.6689 20.3932 12.6511 20.354C12.6332 20.3148 12.6076 20.2796 12.5757 20.2506L12.3221 19.88C11.9946 19.2997 11.8101 18.6496 11.7841 17.9837C11.758 17.3178 11.8912 16.6554 12.1724 16.0512L13.4536 16.8227C13.257 17.3082 13.2003 17.8391 13.2899 18.3552C13.3796 18.8713 13.612 19.352 13.9608 19.7428C14.3096 20.1336 14.7609 20.4189 15.2635 20.5663C15.7661 20.7138 16.3 20.7176 16.8047 20.5772C17.3093 20.4368 17.7646 20.1579 18.1189 19.772C18.4731 19.3862 18.7123 18.9088 18.8092 18.394C18.906 17.8793 18.8568 17.3476 18.6671 16.8594C18.4773 16.3711 18.1547 15.9458 17.7356 15.6315L18.458 14.3864C19.3677 15.0459 19.9847 16.0338 20.1782 17.1407C20.3717 18.2475 20.1265 19.3862 19.4945 20.3152C19.4526 20.3817 19.437 20.4613 19.4507 20.5387C19.4644 20.616 19.5064 20.6855 19.5685 20.7335C19.6307 20.7816 19.7085 20.8047 19.7868 20.7985C19.865 20.7922 19.9382 20.757 19.9919 20.6998L24.0212 16.6632ZM21.8941 12.7166L20.9017 13.7343C20.8741 13.7629 20.8409 13.7856 20.8042 13.8008C20.7674 13.816 20.728 13.8235 20.6882 13.8228C20.6484 13.8221 20.6092 13.8133 20.5731 13.7968C20.5369 13.7803 20.5045 13.7565 20.4779 13.727C19.444 12.6161 18.0244 11.9429 16.51 11.8453C16.4524 11.9169 16.3793 11.9746 16.2962 12.0141C16.2131 12.0536 16.1222 12.0739 16.0303 12.0734C15.9383 12.073 15.8476 12.0518 15.7649 12.0114C15.6823 11.9711 15.6098 11.9126 15.5528 11.8404C14.736 11.8997 13.9399 12.1257 13.2138 12.5047L13.7342 13.4864C13.7377 13.4936 13.7428 13.4999 13.7489 13.505C13.7551 13.5101 13.7623 13.5139 13.77 13.516C13.7777 13.5182 13.7858 13.5187 13.7937 13.5176C13.8016 13.5164 13.8092 13.5136 13.816 13.5093C14.581 13.1227 15.433 12.9403 16.2893 12.9797C17.1455 13.0192 17.9771 13.2791 18.7034 13.7343C19.5652 14.2826 20.2293 15.0918 20.5988 16.044C20.9683 16.9961 21.024 18.0415 20.7577 19.0275L22.0356 17.7504C22.0923 16.9352 21.9305 16.1196 21.5668 15.3877C21.4327 15.3806 21.3046 15.3296 21.2022 15.2426C21.0999 15.1557 21.0289 15.0375 21.0001 14.9063C20.9714 14.7751 20.9865 14.6381 21.0431 14.5163C21.0998 14.3945 21.1948 14.2946 21.3137 14.2321C21.4325 14.1695 21.5686 14.1477 21.7011 14.1699C21.8335 14.1921 21.9551 14.2572 22.047 14.3552C22.1389 14.4531 22.1961 14.5785 22.2099 14.7122C22.2236 14.8458 22.1931 14.9802 22.1231 15.0948C22.4094 15.7321 22.5939 16.4104 22.6696 17.105L23.5327 16.2427C23.5825 16.1844 23.6148 16.1133 23.6261 16.0375C23.6374 15.9617 23.6271 15.8842 23.5966 15.814C23.2316 14.681 22.6506 13.6295 21.8859 12.7174L21.8941 12.7166ZM13.8373 14.1982C13.7621 14.2381 13.6744 14.2472 13.5927 14.2235C13.511 14.1998 13.4417 14.1453 13.3996 14.0714L12.7074 12.8008C12.027 13.2511 11.4529 13.8444 11.0254 14.5393C11.0619 14.625 11.0783 14.718 11.0734 14.811C11.0685 14.904 11.0424 14.9946 10.9971 15.076C10.9518 15.1574 10.8884 15.2274 10.812 15.2805C10.7355 15.3337 10.6479 15.3687 10.5558 15.3828C10.2074 16.1104 10.0138 16.9024 9.9872 17.7087L11.2586 18.9596C11.0758 18.1644 11.0949 17.3362 11.3141 16.5503C11.5333 15.7644 11.9456 15.0458 12.5135 14.46C12.5212 14.4519 12.5304 14.4455 12.5406 14.4412C12.5508 14.4368 12.5618 14.4345 12.5729 14.4345C12.584 14.4345 12.5949 14.4368 12.6051 14.4412C12.6153 14.4455 12.6245 14.4519 12.6322 14.46L12.9823 14.8101C12.9913 14.8178 12.9985 14.8274 13.0035 14.8381C13.0084 14.8488 13.011 14.8605 13.011 14.8723C13.011 14.8841 13.0084 14.8958 13.0035 14.9065C12.9985 14.9173 12.9913 14.9268 12.9823 14.9345C12.7748 15.1203 12.5929 15.333 12.4415 15.5669L13.7129 16.3351C14.0855 15.7702 14.6499 15.3591 15.3018 15.1777C15.9538 14.9962 16.6493 15.0565 17.2603 15.3476L17.9916 14.0804C17.3435 13.7547 16.6246 13.5951 15.8995 13.6158C15.1744 13.6365 14.4658 13.8369 13.8373 14.199V14.1982ZM10.483 14.4436C10.4126 14.4436 10.3438 14.4645 10.2853 14.5036C10.2267 14.5427 10.1811 14.5983 10.1542 14.6633C10.1273 14.7283 10.1202 14.7999 10.1339 14.8689C10.1477 14.938 10.1816 15.0014 10.2313 15.0511C10.2811 15.1009 10.3445 15.1348 10.4135 15.1485C10.4826 15.1623 10.5541 15.1552 10.6192 15.1283C10.6842 15.1014 10.7398 15.0557 10.7789 14.9972C10.818 14.9387 10.8389 14.8699 10.8389 14.7995C10.8391 14.7527 10.8301 14.7063 10.8123 14.663C10.7946 14.6197 10.7685 14.5803 10.7355 14.5471C10.7025 14.5139 10.6633 14.4875 10.6201 14.4695C10.5769 14.4514 10.5306 14.4421 10.4838 14.442L10.483 14.4436ZM11.945 10.488C11.8746 10.488 11.8058 10.5089 11.7472 10.548C11.6887 10.5871 11.6431 10.6427 11.6162 10.7077C11.5892 10.7727 11.5822 10.8443 11.5959 10.9133C11.6096 10.9824 11.6435 11.0458 11.6933 11.0956C11.7431 11.1453 11.8065 11.1792 11.8755 11.193C11.9446 11.2067 12.0161 11.1996 12.0811 11.1727C12.1462 11.1458 12.2017 11.1002 12.2409 11.0416C12.28 10.9831 12.3008 10.9143 12.3008 10.8439C12.3008 10.7495 12.2633 10.659 12.1966 10.5923C12.1299 10.5255 12.0393 10.488 11.945 10.488ZM16.0527 11.1204C15.9823 11.1204 15.9135 11.1413 15.855 11.1804C15.7965 11.2195 15.7509 11.2751 15.7239 11.3401C15.697 11.4052 15.6899 11.4767 15.7037 11.5457C15.7174 11.6148 15.7513 11.6782 15.8011 11.728C15.8508 11.7777 15.9142 11.8116 15.9833 11.8254C16.0523 11.8391 16.1239 11.832 16.1889 11.8051C16.2539 11.7782 16.3095 11.7326 16.3486 11.674C16.3877 11.6155 16.4086 11.5467 16.4086 11.4763C16.4077 11.3826 16.37 11.2931 16.3035 11.2271C16.237 11.1611 16.1472 11.1239 16.0535 11.1237L16.0527 11.1204ZM20.2006 10.488C20.1302 10.488 20.0614 10.5089 20.0028 10.548C19.9443 10.5871 19.8987 10.6427 19.8718 10.7077C19.8448 10.7727 19.8378 10.8443 19.8515 10.9133C19.8653 10.9824 19.8991 11.0458 19.9489 11.0956C19.9987 11.1453 20.0621 11.1792 20.1311 11.193C20.2002 11.2067 20.2717 11.1996 20.3368 11.1727C20.4018 11.1458 20.4574 11.1002 20.4965 11.0416C20.5356 10.9831 20.5564 10.9143 20.5564 10.8439C20.5564 10.7495 20.5189 10.659 20.4522 10.5923C20.3855 10.5255 20.2949 10.488 20.2006 10.488ZM21.6224 14.4379C21.5521 14.4379 21.4833 14.4588 21.4247 14.4979C21.3662 14.537 21.3206 14.5926 21.2937 14.6576C21.2667 14.7226 21.2597 14.7942 21.2734 14.8632C21.2871 14.9322 21.321 14.9957 21.3708 15.0454C21.4206 15.0952 21.484 15.1291 21.553 15.1428C21.6221 15.1565 21.6936 15.1495 21.7586 15.1226C21.8237 15.0956 21.8792 15.05 21.9184 14.9915C21.9575 14.933 21.9783 14.8642 21.9783 14.7938C21.9773 14.7002 21.9394 14.6109 21.8729 14.5451C21.8065 14.4792 21.7168 14.4422 21.6233 14.442L21.6224 14.4379Z" fill="white"/>
</svg>
