<svg width="32" height="32" viewBox="0 0 32 32" fill="none" xmlns="http://www.w3.org/2000/svg">
<circle cx="16" cy="16" r="16" fill="#38A6FB"/>
<path fill-rule="evenodd" clip-rule="evenodd" d="M19.1419 8.56173L17.8488 7.68775C16.7318 6.93282 15.268 6.93282 14.1511 7.68775L8.55935 11.467C7.65084 12.081 7.10645 13.106 7.10645 14.2026V21.6984C7.10645 23.5219 8.5847 25.0002 10.4082 25.0002H21.5917C23.4152 25.0002 24.8934 23.5219 24.8934 21.6984V14.2026C24.8934 13.106 24.349 12.081 23.4405 11.467L21.4851 10.1454V7.53273C21.4851 7.23861 21.2467 7.00018 20.9526 7.00018H19.6745C19.3804 7.00018 19.1419 7.23861 19.1419 7.53273V8.56173ZM19.1419 11.3899V12.7845C19.1419 13.9033 18.4425 14.9028 17.3914 15.2861L12.3839 17.1121C11.0296 17.6059 9.97166 18.6513 9.44964 19.9588V14.2026C9.44964 13.8842 9.60769 13.5866 9.87145 13.4084L15.4632 9.62913C15.7875 9.40995 16.2124 9.40995 16.5367 9.62913L19.1419 11.3899ZM21.4817 12.9712C21.4065 14.9985 20.1116 16.7883 18.1941 17.4875L13.1866 19.3135C12.2814 19.6436 11.6251 20.4369 11.4705 21.388L11.2643 22.657H21.5917C22.1211 22.657 22.5502 22.2278 22.5502 21.6984V14.2026C22.5502 13.8842 22.3922 13.5866 22.1284 13.4084L21.4817 12.9712Z" fill="white"/>
</svg>
