<svg width="32" height="32" viewBox="0 0 32 32" fill="none" xmlns="http://www.w3.org/2000/svg">
<circle cx="16" cy="16" r="16" fill="#CE4D34"/>
<path d="M17.5946 8.51168C17.6112 8.43041 17.6198 8.34632 17.6198 8.26018C17.6198 7.56431 17.0557 7.00018 16.3598 7.00018C15.6638 7.00018 15.0998 7.56431 15.0998 8.26018C15.0998 8.26482 15.0998 8.26946 15.0998 8.27409L10.2224 11.1742C10.0216 11.039 9.77992 10.9602 9.51977 10.9602C8.82385 10.9602 8.25977 11.5243 8.25977 12.2202C8.25977 12.7228 8.55402 13.1567 8.97977 13.3589V19.0014C8.55402 19.2036 8.25977 19.6376 8.25977 20.1402C8.25977 20.8361 8.82385 21.4002 9.51977 21.4002C10.2157 21.4002 10.7798 20.8361 10.7798 20.1402C10.7798 19.6376 10.4855 19.2036 10.0598 19.0014V13.3589C10.4855 13.1567 10.7798 12.7228 10.7798 12.2202C10.7798 12.1805 10.7778 12.1412 10.7743 12.1025L15.5765 9.24715C15.7915 9.41808 16.0637 9.52018 16.3598 9.52018C16.57 9.52018 16.7683 9.46866 16.9427 9.37756L21.2284 12.0715C21.2226 12.1203 21.2198 12.1699 21.2198 12.2202C21.2198 12.7228 21.514 13.1567 21.9398 13.3589V19.0014C21.5214 19.2001 21.23 19.6226 21.2199 20.1142L16.8822 22.8408C16.6549 22.6178 16.3434 22.4802 15.9998 22.4802C15.7433 22.4802 15.5046 22.5568 15.3056 22.6884L13.9495 21.7843C13.9586 21.7602 13.9669 21.7357 13.9742 21.7108C13.9839 21.6786 13.9922 21.6458 13.9988 21.6125C14.0126 21.5439 14.0198 21.4728 14.0198 21.4002C14.0198 21.0004 13.8025 20.6514 13.4798 20.4647V15.1357C13.8025 14.9489 14.0198 14.5999 14.0198 14.2002L14.0194 14.1732L15.5208 13.2558C15.703 13.3965 15.9317 13.4802 16.1798 13.4802C16.4051 13.4802 16.6141 13.4112 16.7873 13.2932L17.9831 14.1153C17.981 14.1433 17.9798 14.1716 17.9798 14.2002C17.9798 14.5999 18.197 14.9489 18.5198 15.1357V16.8647C18.2464 17.0228 18.0488 17.2972 17.9947 17.6202L16.7741 18.3382C16.6036 18.2257 16.3993 18.1602 16.1798 18.1602C15.9034 18.1602 15.6515 18.2639 15.4605 18.4346L14.3798 17.8002V19.2402L15.1848 19.661C15.3488 20.0484 15.7326 20.3202 16.1798 20.3202C16.7539 20.3202 17.2234 19.8722 17.2578 19.3067L18.3851 18.6436C18.57 18.7916 18.8045 18.8802 19.0598 18.8802C19.6562 18.8802 20.1398 18.3967 20.1398 17.8002C20.1398 17.4004 19.9225 17.0514 19.5998 16.8647V15.1357C19.9225 14.9489 20.1398 14.5999 20.1398 14.2002C20.1398 13.6037 19.6562 13.1202 19.0598 13.1202C18.8933 13.1202 18.7354 13.1579 18.5946 13.2252L17.2555 12.3045C17.2072 11.7529 16.744 11.3202 16.1798 11.3202C15.6377 11.3202 15.1889 11.7195 15.1115 12.2401L13.4564 13.2516C13.3029 13.1678 13.127 13.1202 12.9398 13.1202C12.3433 13.1202 11.8598 13.6037 11.8598 14.2002C11.8598 14.5999 12.077 14.9489 12.3998 15.1357V20.4647C12.077 20.6514 11.8598 21.0004 11.8598 21.4002C11.8598 21.9967 12.3433 22.4802 12.9398 22.4802C12.9733 22.4802 13.0066 22.4786 13.0394 22.4756L14.7461 23.6134C14.7433 23.6406 14.7415 23.6681 14.7405 23.6958L14.7398 23.7205V23.7402C14.7398 24.4361 15.3038 25.0002 15.9998 25.0002C16.647 25.0002 17.1801 24.5123 17.2517 23.8843L21.671 21.1064C21.8898 21.2898 22.172 21.4002 22.4798 21.4002C23.1757 21.4002 23.7398 20.8361 23.7398 20.1402C23.7398 19.6376 23.4455 19.2036 23.0198 19.0014V13.3589C23.4455 13.1567 23.7398 12.7228 23.7398 12.2202C23.7398 11.5243 23.1757 10.9602 22.4798 10.9602C22.2307 10.9602 21.9987 11.0324 21.8032 11.1571L17.5946 8.51168Z" fill="white"/>
</svg>
