<svg xmlns="http://www.w3.org/2000/svg" viewBox="6600 5797 96 96"><defs><style>.a{fill:#fff;}.b{fill:#cce7ff;}.c{fill:#43a047;opacity:0.2;}.d,.e,.f{fill:none;}.d{stroke:#15c;}.d,.e{stroke-linecap:round;stroke-linejoin:round;stroke-miterlimit:10;stroke-width:2px;}.e{stroke:#43a047;}</style></defs><g transform="translate(6600 5797)"><g transform="translate(2 6)"><path class="a" d="M80.5,55.9V1.5H.5v56H61.7l-5.2,3.2v18l16,8.8,16-8.8v-18Z" transform="translate(-0.5 -1.5)"/><rect class="b" width="48" height="8" transform="translate(0 48)"/><path class="c" d="M46.5,16.3v18l-16,8.8-16-8.8Z" transform="translate(41.5 42.9)"/><path class="d" d="M80.5,1.5l-40,38L.5,1.5" transform="translate(-0.5 -1.5)"/><line class="d" y1="28" x2="29.6" transform="translate(0 28)"/><line class="d" x2="14.8" y2="14" transform="translate(50.4 28)"/><path class="d" d="M80.5,45.5V1.5H.5v56h48" transform="translate(-0.5 -1.5)"/><path class="e" d="M16.5,23l6,6,10-12" transform="translate(47.5 45)"/><path class="e" d="M46.5,41.2,30.5,50l-16-8.8v-18l16-9.2,16,9.2Z" transform="translate(41.5 36)"/></g><rect class="f" width="96" height="96"/></g></svg>