<svg xmlns="http://www.w3.org/2000/svg" viewBox="6080 6169 96 96"><defs><style>.a{fill:#fff;}.b,.c,.e{fill:none;}.b{stroke:#43a047;}.b,.e{stroke-linecap:round;stroke-linejoin:round;stroke-width:2px;}.d{fill:#cce7ff;}.e{stroke:#15c;}</style></defs><g transform="translate(5339 4860)"><g transform="translate(741 1309)"><g transform="translate(2 6)"><path class="a" d="M64.5,41.5l-2.668,1.068L72.5,33.5V17.152L36.5,1.5.5,17.152v31.3l24,9.392V73.5l8-6,8-6.8V73.5l28,16v-12l20-6V51.1Z" transform="translate(-0.5 -1.5)"/><path class="b" d="M6,9l6,6H28l6-6" transform="translate(16 21)"/><line class="b" y2="3.512" transform="translate(28 16)"/><line class="b" y2="3.512" transform="translate(44 16)"/><path class="b" d="M72.5,33.5V17.152L36.5,1.5.5,17.152v31.3l24,9.392V73.5l8-6" transform="translate(-0.5 -1.5)"/></g><rect class="c" width="96" height="96"/></g><g transform="translate(784 1350)"><g transform="translate(1 3)"><path class="a" d="M12.5,42.5l4-3V25.056L24.5,20V11l-12-6.5L.5,11v9l8,5.056V29.5l-3,3,3,3-3,3Z" transform="translate(-0.5 1.5)"/><path class="d" d="M8.5,26.082l2.36,1.71,8.294-2.4,3.5,2.736-.156,4.95,5-2,1,5,8-2.282V29.082L24.084,19.094l.332-8.628L17.328,4.918l-6.48,2.6" transform="translate(7.5 1.918)"/><path class="d" d="M6.5,4.5v6l4,2v6h-4v24l4-3V25.056L18.5,20V11Z" transform="translate(5.5 1.5)"/><path class="e" d="M8.5,26.082l2.36,1.71,8.294-2.4,3.5,2.736-.156,4.95,5-2,1,5,8-2.282V29.082L24.084,19.094l.332-8.628L17.328,4.918l-6.48,2.6" transform="translate(7.5 1.918)"/><line class="e" x1="15" y1="11.718" transform="translate(29 24)"/><line class="e" y1="18" transform="translate(12 26)"/><path class="e" d="M4.5,9.5l4-2,4,2v6h-8Z" transform="translate(3.5 4.5)"/><path class="e" d="M12.5,42.5l4-3V25.056L24.5,20V11l-12-6.5L.5,11v9l8,5.056V29.5l-3,3,3,3-3,3Z" transform="translate(-0.5 1.5)"/><path class="e" d="M6.5,17.5V3.5l5-2,5,2v6" transform="translate(5.5 -1.5)"/></g><rect class="c" width="48" height="48"/></g></g></svg>