<svg xmlns="http://www.w3.org/2000/svg" viewBox="6080 5797 96 96"><defs><style>.a{fill:#fff;}.b{fill:#cce7ff;}.c,.d{fill:none;}.c{stroke:#15c;stroke-linecap:round;stroke-linejoin:round;stroke-miterlimit:10;stroke-width:2px;}</style></defs><g transform="translate(6080 5797)"><g transform="translate(2 2)"><path class="a" d="M82.5,27,69.7,22.2,68.5,17,45.7,37.8,20.5,17l-1.6,5.2L6.5,27,.5,43h88Z" transform="translate(-0.5 49)"/><path class="a" d="M14.5,32.5h0v4h-8v10l8,4v8l24,10,24-10v-8l8-4v-10h-8v-4h0l2-4h10l-14-8-6-20-16,6-16-6-6,20-14,8h10Z" transform="translate(5.5 -0.5)"/><path class="b" d="M15.7,17.5,10.1,30.7l7.2,5.2,4.4-4Z" transform="translate(28.3 50.5)"/><path class="b" d="M21.6,7.5,6.8,22.3l.8,1.2h10l8-8,8,8h10l8-16Z" transform="translate(18.4 20.5)"/><path class="b" d="M16.5,16.6l-14,8h72l-14-8L56.1,1.8,38.5,8.6,20.9,1.8Z" transform="translate(5.5 3.4)"/><path class="c" d="M53.5,8.5v26l-24,10-24-10V8.5" transform="translate(14.5 23.5)"/><path class="c" d="M18.9,18.3,6.5,23.1l-6,16" transform="translate(-0.5 52.9)"/><path class="c" d="M36.6,39.1l-6-16L17.8,18.3" transform="translate(51.4 52.9)"/><path class="c" d="M17.5,9.5h8v10l-8,4" transform="translate(50.5 26.5)"/><path class="c" d="M11.5,9.5h-8v10l8,4" transform="translate(8.5 26.5)"/><path class="c" d="M22,16l-6-2-6,2" transform="translate(28 40)"/><line class="c" x2="44" transform="translate(22 20)"/><path class="c" d="M40.5,43,8.5,17l-4,14h10l-2,12" transform="translate(11.5 49)"/><path class="c" d="M11.8,37.8,34.6,17l4,16h-8l2,10" transform="translate(33.4 49)"/><path class="c" d="M60.5,20.5l-6-20-16,6-16-6-6,20-14,8h72Z" transform="translate(5.5 -0.5)"/><path class="c" d="M57,7.5l-8,16H39l-8-8-8,8H13L5,7.5Z" transform="translate(13 20.5)"/><path class="c" d="M10.2,30.7l5.2-13.2,6,14.4" transform="translate(28.6 50.5)"/></g><rect class="d" width="96" height="96"/></g></svg>