<svg xmlns="http://www.w3.org/2000/svg" viewBox="-1189 5385 96 96"><defs><style>.a{fill:#fff;}.b{fill:#cce7ff;}.c,.d{fill:none;}.c{stroke:#15c;stroke-linecap:round;stroke-linejoin:round;stroke-width:2px;}</style></defs><g transform="translate(-1189 5385)"><g transform="translate(2 2)"><path class="a" d="M60.5,12.5l4,16v28l-20-20v-20l8-16h-36l8,16v20l-24,24,17,32h34l13-24.472V84.5l12,8,12-8v-56l4-16Z" transform="translate(-0.5 -0.5)"/><path class="b" d="M19.5,3.5v80l12-8v-56l4-16Z" transform="translate(56.5 8.5)"/><path class="b" d="M46.718,92.5l17-32-24-24v-20l8-16h-18v72H2.094l10.624,20Z" transform="translate(4.282 -0.5)"/><path class="c" d="M44.5,36.5l24,24-17,32h-34l-17-32,24-24v-20l-8-16h36l-8,16Z" transform="translate(-0.5 -0.5)"/><path class="c" d="M19.5,35.5v-16l-4-16h32l-4,16v56l-12,8-12-8" transform="translate(44.5 8.5)"/><line class="c" x2="36" transform="translate(16 72)"/><line class="c" x2="12" transform="translate(76 72)"/><line class="c" x2="12" transform="translate(76 60)"/><line class="c" x2="12" transform="translate(76 48)"/></g><path class="d" d="M0,0H96V96H0Z"/></g></svg>