<svg width="32" height="32" viewBox="0 0 32 32" fill="none" xmlns="http://www.w3.org/2000/svg">
<circle cx="16" cy="16" r="16" fill="#20C5C9"/>
<path d="M24.9999 9.12562C24.9998 9.54561 24.8751 9.95613 24.6417 10.3053C24.4082 10.6544 24.0765 10.9265 23.6885 11.0872C23.3005 11.2479 22.8735 11.29 22.4615 11.208C22.0496 11.1261 21.6712 10.9239 21.3742 10.627C21.0771 10.3301 20.8748 9.95177 20.7927 9.53988C20.7106 9.12798 20.7525 8.701 20.913 8.31289C21.0735 7.92478 21.3455 7.59296 21.6945 7.35939C22.0436 7.12581 22.454 7.00097 22.874 7.00061C23.1532 7.00049 23.4296 7.05538 23.6875 7.16212C23.9454 7.26886 24.1798 7.42535 24.3772 7.62269C24.5746 7.82003 24.7313 8.05432 24.8381 8.3122C24.945 8.57008 24.9999 8.84648 24.9999 9.12562Z" fill="white"/>
<path d="M19.9481 15.7968C19.9481 16.8855 19.5156 17.9296 18.7457 18.6995C17.9759 19.4694 16.9317 19.9019 15.843 19.9019C15.1008 19.9032 14.3724 19.7022 13.736 19.3204L11.9116 21.1358C13.0495 21.9746 14.4266 22.426 15.8403 22.4238C17.599 22.4235 19.2856 21.7248 20.5292 20.4812C21.7728 19.2376 22.4716 17.551 22.4718 15.7923C22.4732 14.379 22.0211 13.0025 21.1821 11.8653L19.3622 13.6852C19.7459 14.3227 19.9484 15.0527 19.9481 15.7968Z" fill="white"/>
<path d="M19.7627 10.4468L17.941 12.2668C17.3063 11.8887 16.5809 11.6899 15.8421 11.6916C14.7533 11.6916 13.7092 12.1241 12.9393 12.894C12.1695 13.6638 11.737 14.708 11.737 15.7968C11.736 16.5354 11.9347 17.2606 12.3121 17.8956L10.4922 19.7156C9.65829 18.5793 9.20952 17.2062 9.21143 15.7968C9.21167 14.038 9.91043 12.3514 11.154 11.1078C12.3976 9.86416 14.0843 9.16541 15.843 9.16517C17.2529 9.16263 18.6266 9.61181 19.7627 10.4468Z" fill="white"/>
<path d="M10.6258 24.3782C11.0243 23.9797 11.2482 23.4392 11.2482 22.8756C11.2482 22.3124 11.0246 21.7722 10.6264 21.3737C10.2283 20.9753 9.68828 20.7511 9.12501 20.7507C8.56142 20.7507 8.02091 20.9746 7.6224 21.3731C7.22388 21.7716 7 22.3121 7 22.8756C6.99977 23.1546 7.0545 23.4309 7.1611 23.6887C7.26769 23.9465 7.42405 24.1808 7.62123 24.3781C7.81841 24.5755 8.05256 24.7321 8.31027 24.8389C8.56799 24.9457 8.84423 25.0006 9.12321 25.0006C9.6868 25.0006 10.2273 24.7767 10.6258 24.3782Z" fill="white"/>
</svg>
