<svg width="32" height="32" viewBox="0 0 32 32" fill="none" xmlns="http://www.w3.org/2000/svg">
<circle cx="16" cy="16" r="16" fill="black"/>
<path fill-rule="evenodd" clip-rule="evenodd" d="M25 16C25 20.9706 20.9706 25 16 25C11.0294 25 7 20.9706 7 16C7 11.0294 11.0294 7 16 7C20.9706 7 25 11.0294 25 16ZM24.3235 16C24.3235 20.597 20.597 24.3235 16 24.3235C14.0978 24.3235 12.3446 23.6854 10.9429 22.6116C12.7836 16.0899 19.5737 18.7354 20.1029 19.0588C20.6324 19.3824 20.7206 19.5294 20.1912 19.9706C21.9559 19.5882 21.5294 18.8676 21.3529 18.6176C21.2436 18.4627 21.0269 18.2457 20.633 17.851C20.3912 17.6088 20.0827 17.2997 19.6912 16.8971C18.7363 13.4436 15.8612 12.4186 13.2114 12.2376C11.2701 12.105 9.44983 12.4255 8.59418 12.5762C8.52062 12.5892 8.45419 12.6008 8.39542 12.6109C9.69329 9.7031 12.61 7.67647 16 7.67647C20.597 7.67647 24.3235 11.403 24.3235 16ZM17.6765 16.4706L16.8235 14.6471L18.6618 16.4706H17.6765Z" fill="white"/>
</svg>
