<svg width="32" height="32" viewBox="0 0 32 32" fill="none" xmlns="http://www.w3.org/2000/svg">
<circle cx="16" cy="16" r="16" fill="#EB4A84"/>
<path d="M12.5592 9.54871L10.7993 7.00031L10.4566 7.00032V7.39484L12.1929 9.9021H12.5592V9.54871Z" fill="white"/>
<path d="M11.4046 10.9863L12.5592 12.2713V12.6246H12.1929L11.0619 11.3809V10.9863L11.4046 10.9863Z" fill="white"/>
<path d="M12.5592 14.6434L11.3568 13.9491L11.0141 13.9492V14.3437L12.1929 14.9968H12.5592V14.6434Z" fill="white"/>
<path d="M15.076 14.4552H14.5026V15.0286H15.076V14.4552Z" fill="white"/>
<path d="M14.4389 10.9863L15.0567 12.2713V12.6246H14.6903L14.0962 11.3809L14.0962 10.9863L14.4389 10.9863Z" fill="white"/>
<path d="M15.0567 9.54871L14.4548 7.01623L14.0566 7.01625V7.41077L14.6619 9.9021H15.0567V9.54871Z" fill="white"/>
<path d="M7.3701 13.9346L9.85126 14.6145V14.9679H9.48489L7.02741 14.3291L7.02741 13.9346L7.3701 13.9346Z" fill="white"/>
<path d="M9.85127 12.2798L7.36631 10.457L7.02362 10.457V10.8515L9.4849 12.6332H9.85127L9.85127 12.2798Z" fill="white"/>
<path d="M7.36631 7.00032L9.85127 9.545V9.89839H9.4849L7.02362 7.39486V7.00034L7.36631 7.00032Z" fill="white"/>
<path d="M19.4483 9.54872L21.2083 7.00032L21.551 7.00034V7.39486L19.8147 9.90211H19.4483V9.54872Z" fill="white"/>
<path d="M19.4483 12.2713L20.603 10.9863L20.9457 10.9863V11.3809L19.8147 12.6247H19.4483V12.2713Z" fill="white"/>
<path d="M20.6508 13.9491L19.4483 14.6434V14.9968H19.8147L20.9935 14.3437V13.9492L20.6508 13.9491Z" fill="white"/>
<path d="M17.5049 14.4552H16.9315V15.0286H17.5049V14.4552Z" fill="white"/>
<path d="M16.9508 12.2713L17.5686 10.9863L17.9113 10.9863L17.9113 11.3809L17.3172 12.6247H16.9508V12.2713Z" fill="white"/>
<path d="M17.5527 7.01625L16.9508 9.54873V9.90211H17.3456L17.951 7.41079V7.01627L17.5527 7.01625Z" fill="white"/>
<path d="M22.1563 14.6145L24.6375 13.9346L24.9802 13.9346V14.3291L22.5227 14.9679H22.1563V14.6145Z" fill="white"/>
<path d="M24.6413 10.457L22.1563 12.2798L22.1563 12.6332H22.5227L24.984 10.8515V10.457L24.6413 10.457Z" fill="white"/>
<path d="M22.1563 9.54502L24.6413 7.00034L24.984 7.00036V7.39488L22.5227 9.8984H22.1563V9.54502Z" fill="white"/>
<path d="M15.0718 17.5454H14.4981V16.972H15.0718V17.5454Z" fill="white"/>
<path d="M12.5539 17.3573L11.3509 18.0515L11.0081 18.0515V17.657L12.1873 17.0039H12.5539V17.3573Z" fill="white"/>
<path d="M11.3987 21.0143L12.5539 19.7294V19.376H12.1873L11.0559 20.6198V21.0143L11.3987 21.0143Z" fill="white"/>
<path d="M12.5539 22.4519L10.7931 25.0003L10.4503 25.0003V24.6058L12.1873 22.0985H12.5539V22.4519Z" fill="white"/>
<path d="M14.4343 21.0143L15.0524 19.7294V19.376H14.6859L14.0915 20.6198L14.0915 21.0143L14.4343 21.0143Z" fill="white"/>
<path d="M15.0524 22.4519L14.4503 24.9844L14.0519 24.9844V24.5898L14.6574 22.0985H15.0524V22.4519Z" fill="white"/>
<path d="M7.3625 18.0661L9.84473 17.3862V17.0328H9.4782L7.01966 17.6715L7.01966 18.0661L7.3625 18.0661Z" fill="white"/>
<path d="M9.84473 19.7208L7.35871 21.5437L7.01587 21.5436V21.1491L9.47821 19.3674H9.84474L9.84473 19.7208Z" fill="white"/>
<path d="M7.35871 25.0003L9.84474 22.4556V22.1022H9.47821L7.01587 24.6057V25.0003L7.35871 25.0003Z" fill="white"/>
<path d="M19.4459 22.4519L21.2067 25.0003L21.5495 25.0003V24.6057L19.8125 22.0985H19.4459V22.4519Z" fill="white"/>
<path d="M19.4459 19.7294L20.6011 21.0143L20.9439 21.0143V20.6198L19.8125 19.376H19.4459V19.7294Z" fill="white"/>
<path d="M20.6489 18.0515L19.4459 17.3573V17.0039H19.8125L20.9917 17.657V18.0515L20.6489 18.0515Z" fill="white"/>
<path d="M17.5017 17.5454H16.928V16.972H17.5017V17.5454Z" fill="white"/>
<path d="M16.9474 19.7294L17.5654 21.0143L17.9083 21.0143L17.9083 20.6198L17.3139 19.376H16.9474V19.7294Z" fill="white"/>
<path d="M17.5495 24.9844L16.9474 22.4519V22.0985H17.3423L17.9479 24.5898V24.9843L17.5495 24.9844Z" fill="white"/>
<path d="M22.1551 17.3862L24.6374 18.0661L24.9802 18.0661V17.6715L22.5216 17.0328H22.1551V17.3862Z" fill="white"/>
<path d="M24.6411 21.5436L22.1551 19.7208L22.1551 19.3674H22.5216L24.984 21.1491V21.5436L24.6411 21.5436Z" fill="white"/>
<path d="M22.1551 22.4556L24.6411 25.0003L24.984 25.0003V24.6057L22.5216 22.1022H22.1551V22.4556Z" fill="white"/>
</svg>
