<svg width="32" height="32" viewBox="0 0 32 32" fill="none" xmlns="http://www.w3.org/2000/svg">
<circle cx="16" cy="16" r="16" fill="black"/>
<path d="M16 7.00061L8.20703 11.5032V20.498L16 25.0006L23.7929 20.498V11.5032L16 7.00061ZM16.1593 21.5752L10.1778 18.1636L10.1986 16.5046L16.1558 19.9127L19.0306 18.2571L17.1049 17.1453L16.3844 17.5609L15.0337 16.7816L15.7575 16.3626L14.812 15.8153L14.2405 16.1478L12.8828 15.3754L13.4578 15.0429L10.4064 13.28L16.1558 9.96193L21.5797 13.0549L20.1251 13.9L16.1558 11.6244L13.2846 13.28L14.8917 14.2082L15.7125 13.7303L17.0668 14.5096L16.239 14.9875L17.1845 15.5348L17.8564 15.1434L19.2107 15.9227L18.5318 16.3175L21.8984 18.2571L16.1593 21.5752Z" fill="white"/>
</svg>
