<svg width="32" height="32" viewBox="0 0 32 32" fill="none" xmlns="http://www.w3.org/2000/svg">
<circle cx="16" cy="16" r="16" fill="black"/>
<path fill-rule="evenodd" clip-rule="evenodd" d="M23.4234 19.0154V13.0062C23.6521 12.9208 23.8434 12.7574 23.9636 12.5448C24.0837 12.3323 24.1251 12.0842 24.0804 11.8441C24.0356 11.6041 23.9077 11.3875 23.7191 11.2325C23.5304 11.0775 23.2932 10.9939 23.049 10.9965C22.7902 10.9952 22.5402 11.0905 22.3479 11.2638L17.1028 8.26059C17.135 8.10837 17.1328 7.95088 17.0963 7.79964C17.0598 7.64839 16.9899 7.50722 16.8918 7.38644C16.7938 7.26567 16.6699 7.16834 16.5294 7.10159C16.3888 7.03483 16.2351 7.00034 16.0796 7.00062C15.9285 7.00009 15.779 7.03237 15.6416 7.09523C15.5042 7.15809 15.3821 7.25002 15.2837 7.36469C15.1853 7.47936 15.1129 7.61402 15.0716 7.75938C15.0304 7.90473 15.0211 8.05732 15.0446 8.2066L9.67168 11.2845C9.5174 11.1386 9.32259 11.0427 9.11283 11.0094C8.90306 10.9762 8.68815 11.0071 8.4963 11.0982C8.103 11.2845 7.86811 11.6922 7.90411 12.1224C7.94011 12.5526 8.2416 12.9162 8.66009 13.0341V18.9884C8.4172 19.0557 8.20712 19.2092 8.06909 19.4201C7.93106 19.631 7.87451 19.8849 7.91 20.1345C7.94549 20.384 8.0706 20.6121 8.26196 20.7762C8.45332 20.9402 8.69785 21.029 8.94989 21.026C9.16229 21.026 9.36838 20.963 9.54208 20.8424L12.3302 22.4371V22.4686H12.3905L15.0365 23.9833C15.0438 24.26 15.1606 24.5225 15.3612 24.7131C15.5618 24.9038 15.8299 25.0071 16.1066 25.0003C16.2503 24.998 16.3921 24.9659 16.5229 24.9061C16.6537 24.8464 16.7707 24.7602 16.8665 24.653C16.9624 24.5458 17.035 24.4199 17.0799 24.2833C17.1247 24.1467 17.1408 24.0023 17.1271 23.8591L22.554 20.8982C22.878 21.0746 23.2713 21.0683 23.589 20.8811C23.9067 20.6939 24.102 20.3537 24.1002 19.9874C24.0984 19.7761 24.0328 19.5702 23.9121 19.3968C23.7913 19.2234 23.621 19.0904 23.4234 19.0154ZM19.7173 16.6709H19.7137L19.7092 16.6466L19.7056 16.5908L19.5805 16.5305L18.7948 16.0626L19.6165 15.5721L19.7461 15.5118L19.7542 15.2004H19.7578V10.4449L22.0375 11.7516C22.0117 11.8439 21.9983 11.9393 21.9979 12.0351C21.9979 12.5301 22.3507 12.9567 22.8393 13.0548V18.9677C22.6808 18.9999 22.5318 19.0686 22.4043 19.1683C22.2769 19.2679 22.1743 19.3959 22.1047 19.542C22.0351 19.6881 22.0005 19.8484 22.0035 20.0102C22.0065 20.172 22.0471 20.3309 22.1221 20.4743L19.7173 21.7856V16.6709ZM16.0814 9.07868C16.3622 9.07868 16.6304 8.96618 16.8265 8.76639L19.1773 10.1146V15.1608L18.2305 15.7278L16.9525 14.9691C16.9723 14.8377 16.9633 14.7035 16.9264 14.5759C16.8895 14.4482 16.8254 14.3301 16.7386 14.2295C16.6517 14.1289 16.5442 14.0483 16.4233 13.9931C16.3024 13.9379 16.171 13.9095 16.0382 13.9098C15.9021 13.9094 15.7677 13.939 15.6445 13.9967C15.5213 14.0543 15.4123 14.1385 15.3255 14.2431C15.2386 14.3478 15.176 14.4704 15.142 14.6021C15.1081 14.7339 15.1037 14.8715 15.1292 15.0051L13.8917 15.7323L12.9134 15.1491V10.0975L15.2984 8.73039C15.4964 8.95178 15.7808 9.07868 16.0796 9.07868H16.0814ZM16.6934 16.6583C16.5227 16.4906 16.294 16.395 16.0547 16.3913C15.8154 16.3876 15.5839 16.4761 15.4082 16.6385L14.4497 16.0671L15.4127 15.5082C15.588 15.6678 15.8177 15.7546 16.0549 15.7507C16.292 15.7469 16.5187 15.6527 16.6888 15.4875L17.668 16.0716L16.6934 16.6583ZM9.91827 20.3906C10.0335 20.1179 10.0263 19.8092 9.89667 19.5419C9.76707 19.2746 9.53128 19.0748 9.24508 18.9929V13.0305C9.78507 12.8766 10.1055 12.324 9.96597 11.784L12.3311 10.4287V15.3201H12.3347V15.5118L12.6497 15.672L13.3256 16.0716L12.5768 16.5107L12.3752 16.6304L12.3347 16.6709L12.3311 16.8302V21.773L9.91827 20.3906ZM16.0814 22.9042C15.9009 22.9036 15.7233 22.9497 15.5659 23.038C15.4085 23.1263 15.2767 23.2539 15.1832 23.4082L12.9107 22.1051V16.9625L13.8773 16.3992L15.1301 17.1425C15.1211 17.1965 15.1157 17.2505 15.1139 17.3063C15.1139 17.8139 15.5288 18.2243 16.0409 18.2243C16.553 18.2243 16.9678 17.8139 16.9678 17.3063C16.9678 17.2607 16.9636 17.2153 16.9552 17.1704L18.2323 16.4028L19.1386 16.9427V22.1051L16.9156 23.32C16.8185 23.1906 16.6925 23.0856 16.5477 23.0135C16.4028 22.9413 16.2432 22.9039 16.0814 22.9042Z" fill="white"/>
</svg>
