<svg width="32" height="32" viewBox="0 0 32 32" fill="none" xmlns="http://www.w3.org/2000/svg">
<circle cx="16" cy="16" r="16" fill="#FF5847"/>
<path fill-rule="evenodd" clip-rule="evenodd" d="M17.3441 11.8102C16.58 11.0462 15.3412 11.0462 14.5772 11.8102L11.8102 14.5772C11.0462 15.3413 11.0462 16.5801 11.8102 17.3441L14.5772 20.1111C15.3412 20.8751 16.58 20.8751 17.3441 20.1111L20.111 17.3441C20.8751 16.5801 20.8751 15.3413 20.111 14.5772L17.3441 11.8102ZM13.7471 15.9607L15.9606 13.7471L18.1742 15.9607L15.9606 18.1742L13.7471 15.9607Z" fill="white"/>
<path fill-rule="evenodd" clip-rule="evenodd" d="M16 7C11.0294 7 7 11.0294 7 16C7 20.9706 11.0294 25 16 25C20.9706 25 25 20.9706 25 16C25 11.0294 20.9706 7 16 7ZM9.34783 16C9.34783 12.3261 12.3261 9.34783 16 9.34783C19.6739 9.34783 22.6522 12.3261 22.6522 16C22.6522 19.6739 19.6739 22.6522 16 22.6522C12.3261 22.6522 9.34783 19.6739 9.34783 16Z" fill="white"/>
</svg>
