<svg width="32" height="32" viewBox="0 0 32 32" fill="none" xmlns="http://www.w3.org/2000/svg">
<circle cx="16" cy="16" r="16" fill="#EE923B"/>
<path d="M10.7484 15.4923L11.5885 17.8544H13.1489L12.2185 18.9958H13.7165L16.9439 15.0638L17.8693 16.1932H16.6559L16.0317 16.965H18.5019L19.2219 17.8364H20.7175L21.9718 16.7646L23.2285 17.8448H25L19.384 13.0042H17.6041L21.0727 16.0048L19.9747 16.9482L17.6941 14.166H16.1891L13.4478 17.5015L13.1559 17.8616L14.493 14.1732H13.2784L12.3891 16.6673L11.4986 14.1732H9.99709L9.10746 16.6721L8.21343 14.16H7L8.32859 17.8448H9.91768L10.7578 15.5007L10.7484 15.4923ZM23.2308 14.1816L22.3991 14.8946L23.2393 15.6147L24.9196 14.184L23.2308 14.1816Z" fill="white"/>
</svg>
