<svg width="32" height="32" viewBox="0 0 32 32" fill="none" xmlns="http://www.w3.org/2000/svg">
<circle cx="16" cy="16" r="16" fill="#FDF004"/>
<path fill-rule="evenodd" clip-rule="evenodd" d="M9.24607 10.0516L11.9764 19.8289L11.9961 19.9133H14.3508L15.4026 16.0141L16.4545 19.9133H18.8086L18.8288 19.8289L19.9313 15.8476L21.8635 22.8282C20.233 24.2324 18.1518 25.0032 16 25C11.0292 25 7.00001 20.9708 7.00001 16C6.9969 13.8094 7.79587 11.6934 9.24607 10.0516ZM10.7367 8.69876C12.2681 7.59163 14.1103 6.99704 16 7.00001C20.9708 7.00001 25 11.0292 25 16C25.0029 17.8913 24.4073 19.7351 23.2984 21.2672L21.0068 12.9906L20.9871 12.9063H18.8777L17.5637 17.6526L16.4539 12.9063H14.3508L13.2409 17.6526L10.7361 8.69876H10.7367Z" fill="white"/>
</svg>
