<?xml version="1.0" encoding="utf-8"?>
<!-- Generator: Adobe Illustrator 21.1.0, SVG Export Plug-In . SVG Version: 6.00 Build 0)  -->
<svg version="1.1" id="Слой_1" xmlns="http://www.w3.org/2000/svg" xmlns:xlink="http://www.w3.org/1999/xlink" x="0px" y="0px"
	 viewBox="0 0 36 36" style="enable-background:new 0 0 36 36;" xml:space="preserve">
<style type="text/css">
	.st0{fill:#0050db;}
</style>
<g>
	<path class="st0" d="M18,0C8.1,0,0,8.1,0,18c0,9.9,8.1,18,18,18s18-8.1,18-18C36,8.1,27.9,0,18,0z M22,30.1c0,0.7-0.9,1.2-1.4,0.7
		l-5.3-4.5c-0.2-0.2-0.3-0.4-0.3-0.7v-5.7c0-0.5-0.4-0.9-0.9-0.9H11c-0.8,0-1.2-0.9-0.6-1.5L20.5,6.6C21,6.1,22,6.4,22,7.2V30.1z"/>
</g>
</svg>
