<?xml version="1.0" encoding="utf-8"?>
<!-- Generator: Adobe Illustrator 21.1.0, SVG Export Plug-In . SVG Version: 6.00 Build 0)  -->
<svg version="1.1" id="Слой_1" xmlns="http://www.w3.org/2000/svg" xmlns:xlink="http://www.w3.org/1999/xlink" x="0px" y="0px"
	 viewBox="0 0 36 36" style="enable-background:new 0 0 36 36;" xml:space="preserve">
<style type="text/css">
	.st0{fill:#0050db;}
</style>
<g>
	<g>
		<path class="st0" d="M24.7,12.7c-2,0-5.4,3-7.4,5.3c2,2.3,5.4,5.3,7.4,5.3c2.9,0,5.3-2.4,5.3-5.3S27.6,12.7,24.7,12.7z"/>
	</g>
	<g>
		<path class="st0" d="M18,0C8.1,0,0,8.1,0,18c0,9.9,8.1,18,18,18s18-8.1,18-18C36,8.1,27.9,0,18,0z M11.3,25.3C7.3,25.3,4,22,4,18
			c0-4,3.3-7.3,7.3-7.3c2,0,3.9,0.8,5.2,2.2l-1.4,1.4c-1-1-2.4-1.6-3.8-1.6C8.4,12.7,6,15.1,6,18s2.4,5.3,5.3,5.3
			c1.5,0,2.8-0.6,3.8-1.6l1.4,1.4C15.1,24.5,13.3,25.3,11.3,25.3z M24.7,25.3c-3.8,0-8.9-5.9-9.5-6.6L14.7,18l0.5-0.6
			c0.6-0.7,5.7-6.6,9.5-6.6c4,0,7.3,3.3,7.3,7.3C32,22,28.7,25.3,24.7,25.3z"/>
	</g>
</g>
</svg>
