<?xml version="1.0" encoding="utf-8"?>
<!-- Generator: Adobe Illustrator 21.1.0, SVG Export Plug-In . SVG Version: 6.00 Build 0)  -->
<svg version="1.1" id="Слой_1" xmlns="http://www.w3.org/2000/svg" xmlns:xlink="http://www.w3.org/1999/xlink" x="0px" y="0px"
	 viewBox="0 0 36 36" style="enable-background:new 0 0 36 36;" xml:space="preserve">
<style type="text/css">
	.st0{fill:#0050db;}
</style>
<g>
	<g>
		<path class="st0" d="M24.1,21c-1.2,0-3.4,2-4.8,3.8c1.4,1.4,3.5,3.2,4.8,3.2c1.9,0,3.5-1.6,3.5-3.5C27.6,22.6,26,21,24.1,21z"/>
	</g>
	<g>
		<path class="st0" d="M18,0C8.1,0,0,8.1,0,18c0,9.9,8.1,18,18,18s18-8.1,18-18C36,8.1,27.9,0,18,0z M18,3c0.6,1.9,5.8,4.5,5.8,8.7
			c0,4.2-4.5,3.2-5.1,2.2c-0.3,1-0.3,1-0.3,1l1.6,2.6L18,19.7l-1.9-2.2l1.6-2.6c0,0,0,0-0.3-1c-0.6,1-5.1,1.9-5.1-2.2
			C12.2,7.5,17.4,4.9,18,3z M24.1,30c-2.9,0-6.5-4.1-6.9-4.5l-0.5-0.6l0,0c-1.4-1.8-3.6-3.8-4.8-3.8c-1.9,0-3.5,1.6-3.5,3.5
			c0,1.9,1.6,3.5,3.5,3.5c1.1,0,2.2-0.5,2.8-1.5l1.6,1.2c-1,1.4-2.7,2.3-4.5,2.3c-3,0-5.5-2.5-5.5-5.5S8.9,19,11.9,19
			c2.2,0,4.8,2.6,6.1,4.2c1.3-1.6,3.9-4.2,6.1-4.2c3,0,5.5,2.5,5.5,5.5S27.1,30,24.1,30z"/>
	</g>
</g>
</svg>
