<svg width="24" height="24" viewBox="0 0 24 24" fill="none" xmlns="http://www.w3.org/2000/svg">
<path d="M10.5 18.3H13L15.3 11.5L11.8 5.9L8.19995 11.6L10.5 18.3Z" fill="#0050db"/>
<path d="M6.7999 11.4L5.9999 9L4.3999 15.2L6.7999 11.4Z" fill="#0050db"/>
<path d="M11.2001 4.6V1L6.6001 6.9L7.7001 10L11.2001 4.6Z" fill="#0050db"/>
<path d="M19.1 15.1L17.5 9L16.7 11.3L19.1 15.1Z" fill="#0050db"/>
<path d="M16.8999 6.9L12.3999 1V4.6L15.8999 10L16.8999 6.9Z" fill="#0050db"/>
<path d="M7.4 12.9L4 18.3H9.2L7.4 12.9Z" fill="#0050db"/>
<path d="M14.3999 18.3H19.5999L16.1999 12.9L14.3999 18.3Z" fill="#0050db"/>
<path d="M5.30005 19.5L10.7 22.5L9.60005 19.5H5.30005Z" fill="#0050db"/>
<path d="M11.8 21.9L12.6 19.5H11L11.8 21.9Z" fill="#0050db"/>
<path d="M12.8999 22.5L18.2999 19.5H13.8999L12.8999 22.5Z" fill="#0050db"/>
</svg>
