<svg width="24" height="24" viewBox="0 0 24 24" fill="none" xmlns="http://www.w3.org/2000/svg">
<path d="M16.387 11.773C16.387 12.9827 15.9065 14.1428 15.0511 14.9981C14.1958 15.8535 13.0357 16.334 11.826 16.334C11.0015 16.3355 10.1921 16.1122 9.48501 15.688L7.45801 17.705C8.72234 18.637 10.2524 19.1385 11.823 19.136C13.7771 19.1357 15.651 18.3594 17.0327 16.9777C18.4144 15.596 19.1908 13.7221 19.191 11.768C19.1925 10.1978 18.6902 8.66851 17.758 7.40499L15.736 9.42702C16.1623 10.1353 16.3874 10.9464 16.387 11.773ZM16.181 5.829L14.157 7.85103C13.4518 7.43096 12.6458 7.21007 11.825 7.21199C10.6154 7.21199 9.45526 7.69252 8.5999 8.54787C7.74455 9.40322 7.26401 10.5634 7.26401 11.773C7.26294 12.5937 7.48373 13.3995 7.90301 14.105L5.88101 16.127C4.95449 14.8646 4.45589 13.339 4.45801 11.773C4.45828 9.81899 5.23463 7.94502 6.61634 6.56331C7.99805 5.1816 9.87198 4.40525 11.826 4.40499C13.3925 4.40216 14.9188 4.90122 16.181 5.829Z" fill="#0050db"/>
<path d="M22 4.36099C21.9998 4.82763 21.8613 5.28374 21.602 5.67166C21.3426 6.05959 20.9741 6.36191 20.543 6.54044C20.1118 6.71896 19.6374 6.76569 19.1797 6.67468C18.7221 6.58367 18.3016 6.35901 17.9716 6.02911C17.6416 5.69922 17.4167 5.27889 17.3255 4.82126C17.2343 4.36362 17.2809 3.88922 17.4592 3.45801C17.6376 3.0268 17.9397 2.65814 18.3276 2.39862C18.7154 2.1391 19.1714 2.0004 19.638 2C19.9482 1.99987 20.2553 2.06085 20.5419 2.17944C20.8284 2.29804 21.0888 2.47191 21.3081 2.69116C21.5275 2.91041 21.7015 3.17073 21.8202 3.45725C21.9389 3.74376 22 4.05086 22 4.36099Z" fill="#0050db"/>
<path d="M6.72096 19.638C6.72096 20.2642 6.47222 20.8646 6.02945 21.3074C5.58668 21.7502 4.98615 21.9989 4.35997 21.9989C4.05001 21.9989 3.74309 21.9379 3.45676 21.8193C3.17042 21.7006 2.91027 21.5266 2.69119 21.3073C2.47211 21.088 2.2984 20.8277 2.17996 20.5413C2.06153 20.2549 2.00071 19.9479 2.00098 19.638C2.00098 19.0118 2.24972 18.4113 2.69249 17.9686C3.13526 17.5258 3.73579 17.277 4.36197 17.277C4.9878 17.2776 5.58781 17.5266 6.03015 17.9693C6.47249 18.412 6.72096 19.0122 6.72096 19.638Z" fill="#0050db"/>
</svg>
