<svg width="24" height="26" viewBox="0 0 24 26" fill="none" xmlns="http://www.w3.org/2000/svg">
<path d="M8.43301 15.9C9.59301 18.252 10.712 20.52 11.864 22.861C12.464 21.09 13.038 19.386 13.627 17.652C11.912 17.071 10.218 16.5 8.43301 15.9ZM2.15701 12.878L7.35699 14.641C7.94199 12.911 8.51999 11.21 9.12 9.44101C6.766 10.6 4.49401 11.719 2.15701 12.875V12.878ZM8.73499 15.087C8.78498 15.1183 8.83677 15.1467 8.89001 15.172C10.565 15.743 12.24 16.313 13.918 16.872C14.0748 16.9076 14.2391 16.8867 14.382 16.813C16.3033 15.8743 18.221 14.9307 20.135 13.982C20.68 13.713 21.225 13.441 21.817 13.143C21.688 13.091 21.617 13.062 21.548 13.043C19.925 12.495 18.305 11.943 16.674 11.401C16.5027 11.3489 16.3183 11.3607 16.155 11.434C14.112 12.428 12.08 13.434 10.041 14.441C9.62199 14.642 9.19999 14.855 8.73499 15.083V15.087ZM15.825 10.651C14.592 8.151 13.373 5.682 12.125 3.151C10.851 6.917 9.60701 10.59 8.33401 14.351C10.87 13.1 13.333 11.881 15.825 10.648V10.651ZM0 13C1.193 12.407 2.31901 11.848 3.44901 11.292C5.36701 10.346 7.28599 9.40134 9.20599 8.45801C9.302 8.41675 9.38768 8.35473 9.45685 8.2764C9.52601 8.19807 9.57693 8.10538 9.60599 8.005C10.3567 5.767 11.1137 3.53035 11.877 1.29501C11.906 1.21401 11.94 1.133 11.991 0.994995C12.068 1.142 12.123 1.24899 12.175 1.35599C13.6417 4.33399 15.1127 7.31068 16.588 10.286C16.6866 10.4395 16.8365 10.5529 17.011 10.606C19.231 11.372 21.458 12.123 23.681 12.881L24 13C23.794 13.1 23.643 13.184 23.488 13.258C20.621 14.672 17.757 16.092 14.888 17.495C14.7588 17.5518 14.6437 17.6364 14.5509 17.7426C14.4581 17.8489 14.3899 17.9743 14.351 18.11C13.611 20.33 12.851 22.542 12.098 24.758C12.076 24.817 12.05 24.876 11.998 25.005C11.798 24.618 11.637 24.287 11.475 23.956C10.1417 21.2467 8.80834 18.5373 7.47501 15.828C7.42999 15.7229 7.36253 15.6288 7.27737 15.5525C7.19222 15.4761 7.09141 15.4193 6.98199 15.386C4.75466 14.6387 2.53001 13.884 0.308014 13.122C0.225014 13.092 0.144 13.059 0 13Z" fill="#0050db"/>
</svg>
