<svg width="24" height="24" viewBox="0 0 24 24" fill="none" xmlns="http://www.w3.org/2000/svg">
<path d="M12 2C9.34784 2 6.80429 3.05356 4.92892 4.92892C3.05356 6.80429 2 9.34784 2 12C2 14.6522 3.05356 17.1957 4.92892 19.0711C6.80429 20.9464 9.34784 22 12 22C14.6522 22 17.1957 20.9464 19.0711 19.0711C20.9464 17.1957 22 14.6522 22 12C22 9.34784 20.9464 6.80429 19.0711 4.92892C17.1957 3.05356 14.6522 2 12 2ZM21.492 11.591L20.683 11.598V11.258L21.492 11.251V11.591ZM21.284 9.84201L20.484 9.95401L20.438 9.617L21.238 9.505L21.284 9.84201ZM20.594 7.71301L20.733 8.02301L19.997 8.35999L19.858 8.05301L20.594 7.71301ZM19.581 6.172L19.805 6.42599L19.198 6.961L18.974 6.707L19.581 6.172ZM18.396 4.90799L18.653 5.129L18.125 5.74301L17.868 5.522L18.396 4.90799ZM16.983 3.763L17.267 3.948L16.825 4.62799L16.541 4.44299L16.983 3.763ZM15.372 2.96301L15.699 3.04901L15.499 3.83099L15.172 3.745L15.372 2.96301ZM13.603 2.53101L13.94 2.561L13.874 3.37L13.537 3.34L13.603 2.53101ZM11.775 2.31601H12.115V3.125H11.775V2.31601ZM10.275 2.53101L10.341 3.34L10.004 3.37L9.93799 2.561L10.275 2.53101ZM8.50601 2.96301L8.70599 3.745L8.379 3.83099L8.17899 3.052L8.50601 2.96301ZM6.89899 3.763L7.33801 4.44299L7.05399 4.62799L6.61499 3.948L6.89899 3.763ZM5.483 4.90799L6.01099 5.522L5.754 5.74301L5.22601 5.129L5.483 4.90799ZM4.298 6.172L4.905 6.707L4.681 6.961L4.07401 6.42599L4.298 6.172ZM3.28799 7.71301L4.02399 8.04999L3.88501 8.35699L3.14899 8.01999L3.28799 7.71301ZM2.64401 9.513L3.444 9.625L3.39801 9.95801L2.59799 9.84601L2.64401 9.513ZM2.39301 11.256L3.202 11.263V11.603L2.39301 11.596V11.256ZM2.466 13.156L3.271 13.074L3.30399 13.411L2.49899 13.494L2.466 13.156ZM2.832 14.879L3.621 14.694L3.69699 15.024L2.90799 15.209L2.832 14.879ZM3.716 16.935L3.548 16.641L4.24799 16.241L4.41599 16.535L3.716 16.935ZM4.86099 18.377L4.61301 18.143L5.17099 17.556L5.41901 17.79L4.86099 18.377ZM6.16101 19.529L5.884 19.329L6.353 18.669L6.63 18.869L6.16101 19.529ZM7.673 20.539L7.37299 20.381L7.74899 19.665L8.04901 19.823L7.673 20.539ZM9.35001 21.183L9.017 21.127L9.14899 20.327L9.48199 20.383L9.35001 21.183ZM10.812 21.457L10.805 20.648H11.145L11.152 21.457H10.812ZM3.58099 12C3.58417 9.76812 4.4722 7.62857 6.05038 6.05038C7.62857 4.4722 9.76812 3.58417 12 3.58099C14.232 3.58364 16.3719 4.47151 17.9502 6.0498C19.5285 7.6281 20.4164 9.76795 20.419 12C20.4164 14.232 19.5285 16.3719 17.9502 17.9502C16.3719 19.5285 14.232 20.4164 12 20.419C9.76812 20.4158 7.62857 19.5278 6.05038 17.9496C4.4722 16.3714 3.58417 14.2319 3.58099 12ZM12.66 21.528H12.65L12.577 20.723L12.914 20.693H12.924L12.997 21.498L12.66 21.528ZM14.465 21.148L14.323 20.348L14.656 20.289L14.798 21.089L14.465 21.148ZM16.184 20.554L15.907 19.792L16.227 19.676L16.504 20.438L16.184 20.554ZM17.715 19.617L17.215 18.98L17.482 18.769L17.982 19.406L17.715 19.617ZM19.015 18.346L18.434 17.785L18.668 17.541L19.249 18.102L19.015 18.346ZM20.081 16.98L19.428 16.505L19.628 16.231L20.281 16.706L20.081 16.98ZM20.946 15.35L20.18 15.083L20.292 14.763L21.058 15.03L20.946 15.35ZM21.425 13.508L20.616 13.472L20.632 13.132L21.441 13.168L21.425 13.508Z" fill="#0050db"/>
<path d="M15.5561 16.568L15.3051 16.314L14.8171 15.814C15.1462 15.5278 15.3984 15.1637 15.5506 14.7549C15.7027 14.3462 15.75 13.9058 15.6881 13.474C15.6881 13.374 15.6951 12.124 15.6951 12.025C15.6951 11.926 15.6951 11.183 15.6951 11.088C15.6951 8.77101 15.1311 7.71803 13.5701 7.34503C13.1665 7.30246 12.7609 7.28138 12.3551 7.28198H12.2721C12.0871 7.28198 11.1201 7.30503 10.9451 7.34503C9.38409 7.71803 8.81609 8.76701 8.82009 11.088C8.82009 11.188 8.82009 11.93 8.82009 12.025C8.82009 12.12 8.83009 13.375 8.82709 13.474C8.72109 15.797 10.0421 16.51 11.4741 16.461H13.0551C13.4675 16.4796 13.878 16.3958 14.2501 16.217L14.8241 16.798L15.0751 17.052C15.1401 17.1192 15.2289 17.1583 15.3224 17.1607C15.4159 17.1631 15.5067 17.1288 15.5751 17.065C15.6349 16.9949 15.6661 16.9049 15.6626 16.8128C15.6591 16.7207 15.6211 16.6333 15.5561 16.568ZM13.1401 15.723H11.3611C11.1341 15.7282 10.9085 15.6864 10.6984 15.6003C10.4883 15.5143 10.2983 15.3859 10.1401 15.223C9.91102 15.0057 9.73819 14.7359 9.63646 14.437C9.53473 14.1381 9.50715 13.819 9.55609 13.507C9.55609 13.444 9.55609 13.441 9.55609 12.312V11.391C9.55062 11.2911 9.55062 11.1909 9.55609 11.091C9.50034 10.2989 9.62549 9.50456 9.92209 8.768C10.0586 8.57454 10.2345 8.41215 10.4382 8.2915C10.6419 8.17086 10.8688 8.09468 11.1041 8.06799C11.2561 8.04499 12.0381 8.02203 12.2721 8.02203H12.3551C12.5891 8.02203 13.2551 8.04499 13.4111 8.06799C13.6465 8.09399 13.8737 8.16988 14.0775 8.29059C14.2814 8.41129 14.4571 8.57404 14.5931 8.768C14.8897 9.50456 15.0148 10.2989 14.9591 11.091C14.9591 11.144 14.9591 11.008 14.9591 11.391V12.312C14.9521 13.441 14.9521 13.444 14.9591 13.507C15.0069 13.8189 14.9788 14.1378 14.8771 14.4365C14.7755 14.7353 14.6033 15.005 14.3751 15.223C14.3521 15.246 14.3321 15.269 14.3091 15.289L13.8571 14.83L13.6061 14.576C13.5407 14.5092 13.4516 14.4707 13.3581 14.4688C13.2646 14.4669 13.1741 14.5019 13.1061 14.566C13.0415 14.6337 13.0061 14.7239 13.0074 14.8174C13.0087 14.9109 13.0467 15.0002 13.1131 15.066L13.3641 15.32L13.6871 15.647C13.5088 15.6958 13.3249 15.7213 13.1401 15.723Z" fill="#0050db"/>
</svg>
