<svg width="24" height="24" viewBox="0 0 24 24" fill="none" xmlns="http://www.w3.org/2000/svg">
<path d="M10.9863 2.052C12.7436 1.87298 14.5169 2.16261 16.1259 2.89143C17.7349 3.62025 19.1221 4.76224 20.1465 6.20124C21.1708 7.64024 21.7957 9.3249 21.9577 11.0838C22.1196 12.8427 21.8127 14.6132 21.0683 16.215C19.9525 18.611 17.9336 20.4679 15.4528 21.3797C12.972 22.2915 10.2311 22.1841 7.82929 21.081C6.28713 20.3738 4.95044 19.2855 3.94515 17.9188C2.93986 16.5522 2.29908 14.952 2.08319 13.2692C1.8673 11.5864 2.08341 9.8764 2.71115 8.30021C3.3389 6.72403 4.3576 5.33362 5.67128 4.26C7.18869 3.01972 9.03671 2.252 10.9863 2.052ZM9.38628 7.778C9.17126 7.48082 8.89376 7.23433 8.57329 7.05587C8.25282 6.87741 7.89715 6.7713 7.53128 6.745C7.1474 6.73198 6.76549 6.80538 6.41378 6.95977C6.06207 7.11417 5.74954 7.3456 5.49928 7.637C5.12623 8.08611 4.92491 8.65318 4.93128 9.23699C4.92795 10.3377 4.92795 11.4407 4.93128 12.546C4.92911 12.5791 4.9344 12.6123 4.94676 12.6432C4.95912 12.674 4.97824 12.7016 5.00271 12.7241C5.02718 12.7466 5.05638 12.7632 5.08815 12.7729C5.11992 12.7826 5.15345 12.785 5.18629 12.78C8.30429 12.787 11.4263 12.769 14.5443 12.791C14.5333 13.474 14.5443 14.154 14.5913 14.834C13.6992 15.4915 12.6639 15.9278 11.5703 16.107C11.4303 16.139 11.1893 16.1 11.1563 16.298C11.1423 16.665 11.1563 17.032 11.1493 17.398C11.1443 17.4295 11.1461 17.4618 11.1546 17.4926C11.1631 17.5234 11.178 17.552 11.1985 17.5765C11.219 17.6011 11.2444 17.6209 11.2732 17.6348C11.302 17.6487 11.3334 17.6563 11.3653 17.657C12.6892 17.5518 13.9557 17.0713 15.0163 16.272C15.3983 16.7971 15.9676 17.1551 16.6063 17.272C17.0615 17.338 17.5261 17.2792 17.9506 17.1019C18.375 16.9245 18.7433 16.6353 19.0163 16.265C19.3402 15.7878 19.5028 15.2193 19.4803 14.643C19.4803 13.596 19.4913 12.55 19.4733 11.503C19.4735 11.467 19.4656 11.4314 19.4502 11.3989C19.4349 11.3663 19.4124 11.3376 19.3845 11.3149C19.3566 11.2922 19.3239 11.276 19.2889 11.2675C19.2539 11.259 19.2175 11.2585 19.1823 11.266C16.0713 11.259 12.9643 11.266 9.85629 11.266C9.83828 10.651 9.88528 10.032 9.81629 9.417C9.80929 9.331 9.78729 9.217 9.88129 9.165C10.8306 8.49424 11.9288 8.06455 13.0813 7.913C13.2073 7.913 13.2643 7.769 13.2543 7.661C13.2543 7.312 13.2613 6.961 13.2543 6.611C13.2534 6.57819 13.2451 6.54601 13.23 6.51685C13.215 6.48769 13.1935 6.46231 13.1673 6.4426C13.141 6.42289 13.1107 6.40936 13.0785 6.40303C13.0463 6.39669 13.013 6.3977 12.9813 6.40599C11.6783 6.51426 10.4326 6.98925 9.38829 7.776L9.38628 7.778Z" fill="#0050db"/>
<path d="M6.39023 9.46999C6.40465 9.17685 6.53168 8.90058 6.74481 8.69881C6.95795 8.49704 7.24074 8.38534 7.53423 8.38698C7.83493 8.39216 8.12246 8.51128 8.33871 8.72029C8.55497 8.92931 8.68382 9.21263 8.69923 9.51299C8.71323 10.142 8.69923 10.772 8.69923 11.401C7.92923 11.419 7.16023 11.408 6.38623 11.408L6.39023 9.46999Z" fill="#0050db"/>
<path d="M15.9783 12.815C16.7483 12.815 17.5174 12.815 18.2874 12.815C18.2944 13.43 18.2874 14.045 18.2874 14.664C18.2929 14.9118 18.2184 15.1549 18.0748 15.357C17.9313 15.5591 17.7264 15.7095 17.4905 15.7859C17.2547 15.8622 17.0005 15.8605 16.7657 15.7809C16.5309 15.7013 16.3281 15.5481 16.1873 15.344C16.0446 15.1438 15.9703 14.9028 15.9753 14.657C15.9753 14.042 15.9753 13.427 15.9753 12.812" fill="#0050db"/>
</svg>
