<svg width="24" height="24" viewBox="0 0 24 24" fill="none" xmlns="http://www.w3.org/2000/svg">
<path d="M20.497 8.22301C19.686 7.65601 18.819 7.051 17.971 6.452C17.9515 6.43692 17.9311 6.4229 17.91 6.41C17.8104 6.32939 17.6978 6.26617 17.577 6.22301H17.568C15.3 5.67501 12.9941 5.112 10.7681 4.569L4.69905 3.093L4.54004 3.051C4.34126 2.98264 4.13067 2.95542 3.92105 2.971C3.85928 2.98021 3.80025 3.00273 3.74805 3.037L3.69205 3.08401C3.62115 3.15567 3.56688 3.24204 3.53305 3.33701L3.51904 3.374V3.59L3.52805 3.623C4.80705 7.208 6.12004 10.845 7.38504 14.364C8.36004 17.073 9.37205 19.88 10.3611 22.636C10.3951 22.7291 10.456 22.81 10.5362 22.8684C10.6163 22.9268 10.712 22.9601 10.8111 22.964H10.858C10.9521 22.9667 11.0452 22.9442 11.1277 22.8988C11.2101 22.8535 11.279 22.7869 11.327 22.706L15.039 17.293C15.9437 15.9763 16.848 14.658 17.752 13.338C18.122 12.799 18.4921 12.255 18.8631 11.716C19.4721 10.826 20.1 9.90701 20.724 9.01601L20.757 8.969V8.913C20.7801 8.78738 20.7688 8.65784 20.7243 8.53813C20.6797 8.41842 20.6036 8.31298 20.504 8.233L20.497 8.22301ZM16.155 10.206C15.283 10.661 14.393 11.129 13.498 11.593L15.063 9.915C15.714 9.215 16.394 8.486 17.063 7.773L17.077 7.759C17.1385 7.68114 17.2054 7.60763 17.2771 7.539C17.3291 7.487 17.3851 7.43901 17.4361 7.37501C17.7831 7.61401 18.136 7.858 18.472 8.097C18.716 8.27033 18.9644 8.44367 19.217 8.617C18.186 9.142 17.155 9.681 16.157 10.206H16.155ZM13.9171 9.981C13.2471 10.707 12.553 11.453 11.864 12.188C10.528 10.566 9.16405 8.922 7.84305 7.333L6.04305 5.163C5.90705 5.008 5.77605 4.84 5.64305 4.68C5.55905 4.572 5.47004 4.469 5.38104 4.361C5.92504 4.502 6.47304 4.633 7.01204 4.761C7.48504 4.873 7.97705 4.99101 8.46005 5.11201L16.619 7.094C15.719 8.059 14.805 9.039 13.924 9.986L13.9171 9.981ZM11.567 19.12C11.619 18.628 11.675 18.12 11.722 17.625C11.764 17.225 11.806 16.819 11.849 16.425C11.915 15.802 11.985 15.155 12.041 14.525L12.0551 14.413C12.1021 14.013 12.149 13.593 12.177 13.176C12.2315 13.1456 12.288 13.1189 12.346 13.096C12.4181 13.0665 12.4886 13.0331 12.5571 12.996C13.6397 12.4287 14.7237 11.862 15.8091 11.296C16.8921 10.734 18.002 10.152 19.104 9.576C18.104 11.029 17.094 12.496 16.119 13.925C15.28 15.148 14.419 16.409 13.56 17.651C13.223 18.151 12.871 18.651 12.538 19.141C12.163 19.685 11.7791 20.241 11.4041 20.8C11.4511 20.238 11.504 19.671 11.568 19.118L11.567 19.12ZM5.01305 5.454C4.95205 5.285 4.88605 5.11201 4.83005 4.94801C6.09505 6.47601 7.37005 8.01301 8.61205 9.50301C9.25405 10.276 9.89604 11.045 10.538 11.823C10.665 11.968 10.791 12.123 10.913 12.273C11.072 12.465 11.232 12.667 11.405 12.859C11.349 13.342 11.305 13.829 11.25 14.298C11.217 14.626 11.184 14.954 11.15 15.287C11.136 15.498 11.108 15.709 11.084 15.915C11.051 16.201 10.976 16.848 10.976 16.848V16.881C10.892 17.828 10.789 18.781 10.69 19.712C10.648 20.096 10.61 20.49 10.568 20.884C10.545 20.814 10.516 20.743 10.493 20.678C10.423 20.491 10.352 20.294 10.287 20.102L9.78705 18.71C8.19838 14.2907 6.60971 9.87134 5.02104 5.452" fill="#0050db"/>
</svg>
