<svg width="24" height="24" viewBox="0 0 24 24" fill="none" xmlns="http://www.w3.org/2000/svg">
<path d="M16.0412 14.19V9.89005C16.0412 9.847 16.0298 9.80466 16.0082 9.76743C15.9866 9.73019 15.9556 9.69936 15.9182 9.67801L12.1902 7.52603C12.1532 7.50442 12.111 7.49301 12.0682 7.49301C12.0253 7.49301 11.9833 7.50442 11.9462 7.52603L8.2182 9.67801C8.18089 9.69943 8.14989 9.73033 8.1283 9.76755C8.1067 9.80476 8.0953 9.84702 8.09522 9.89005V14.19C8.09509 14.2331 8.10638 14.2754 8.12799 14.3127C8.1496 14.3499 8.18075 14.3807 8.2182 14.402L11.9462 16.554C11.9833 16.5756 12.0253 16.5869 12.0682 16.5869C12.111 16.5869 12.1531 16.5756 12.1902 16.554L15.9182 14.402C15.9557 14.3807 15.9868 14.3499 16.0084 14.3127C16.03 14.2754 16.0413 14.2331 16.0412 14.19Z" fill="#0050db"/>
<path d="M5.87799 18.117L2.39096 19.862C2.34979 19.8824 2.30409 19.892 2.25818 19.8898C2.21227 19.8877 2.16769 19.8738 2.12863 19.8495C2.08958 19.8253 2.05734 19.7915 2.035 19.7513C2.01267 19.7112 2.00095 19.666 2.00098 19.62V4.27002C2.00095 4.22405 2.01267 4.17884 2.035 4.13867C2.05734 4.0985 2.08958 4.0647 2.12863 4.04046C2.16769 4.01623 2.21227 4.00236 2.25818 4.00018C2.30409 3.998 2.34979 4.00758 2.39096 4.02801L5.87897 5.772C5.95346 5.80906 6.01618 5.8661 6.06015 5.93674C6.10412 6.00737 6.12762 6.0888 6.12799 6.172V17.714C6.12785 17.7978 6.10437 17.8798 6.06021 17.951C6.01606 18.0222 5.95298 18.0797 5.87799 18.117Z" fill="#0050db"/>
<path d="M18.1221 5.77301L21.6101 4.02899C21.6513 4.00856 21.697 3.99898 21.7429 4.00116C21.7888 4.00334 21.8335 4.01721 21.8726 4.04144C21.9116 4.06568 21.9437 4.09948 21.9661 4.13965C21.9884 4.17982 22.0003 4.22503 22.0002 4.27099V19.62C22.0003 19.666 21.9884 19.7112 21.9661 19.7513C21.9437 19.7915 21.9116 19.8253 21.8726 19.8495C21.8335 19.8738 21.7888 19.8877 21.7429 19.8898C21.697 19.892 21.6513 19.8824 21.6101 19.862L18.1221 18.117C18.0476 18.0799 17.9849 18.0229 17.9409 17.9523C17.897 17.8816 17.8734 17.8002 17.873 17.717V6.17499C17.8733 6.0915 17.8967 6.00973 17.9407 5.93875C17.9846 5.86777 18.0474 5.8104 18.1221 5.77301Z" fill="#0050db"/>
</svg>
