<svg width="24" height="24" viewBox="0 0 24 24" fill="none" xmlns="http://www.w3.org/2000/svg">
<path d="M11.9541 0.999997C13.9184 0.994432 15.8458 1.53375 17.522 2.558L13.7801 5.125L10.7681 7.233L8.94205 5.491C7.79127 6 6.80953 6.82666 6.11205 7.874L3.55605 4.758C4.61331 3.57679 5.90762 2.63163 7.35461 1.98412C8.8016 1.33661 10.3688 1.00129 11.9541 0.999997ZM1.00005 12C0.99402 10.0288 1.53099 8.0941 2.55205 6.408L5.10805 10.166L7.20805 13.191L5.47405 15.024C5.97903 16.1775 6.80214 17.1633 7.84705 17.866L4.74705 20.433C3.56778 19.3673 2.62504 18.0662 1.97964 16.6137C1.33425 15.1612 1.00054 13.5895 1.00005 12ZM11.9541 23C9.98969 23.0056 8.06226 22.4662 6.38605 21.442L10.1291 18.875L13.1411 16.767L14.967 18.509C16.1178 18 17.0996 17.1733 17.7971 16.126L20.3531 19.243C19.2956 20.4241 18.0011 21.3692 16.5539 22.0165C15.1067 22.6639 13.5394 22.999 11.9541 23ZM21.354 17.592L18.8 13.833L16.7001 10.808L18.434 8.975C17.9291 7.82148 17.106 6.83568 16.0611 6.133L19.161 3.566C20.3674 4.59506 21.3356 5.87413 21.9985 7.31457C22.6614 8.755 23.0031 10.3224 23 11.908C22.944 13.9115 22.3785 15.8676 21.357 17.592H21.354Z" fill="#0050db"/>
</svg>
