<svg xmlns="http://www.w3.org/2000/svg" viewBox="-7177 -6727 102 24.001"><defs><style>.a,.b{fill:#fff;}.b{opacity:0.5;}</style></defs><g transform="translate(-7310 -6774)"><path class="a" d="M45.444,19.556a1.418,1.418,0,0,0,.621-.8,4.467,4.467,0,0,0,.178-1.067V8.622c.178,0,.355-.089.621-.089a2.733,2.733,0,0,1,.888-.089,2.455,2.455,0,0,1,.8.089.805.805,0,0,1,.621.267.887.887,0,0,1,.355.444,1.976,1.976,0,0,1,.089.8v7.911a7.837,7.837,0,0,1-.178,1.511,4.6,4.6,0,0,1-.533,1.156,2.255,2.255,0,0,1-.888.711,2.455,2.455,0,0,1-1.154.267,1.557,1.557,0,0,1-1.332-.533A1.81,1.81,0,0,1,45,19.733Zm.621-13.689A1.615,1.615,0,0,1,46.6,4.622,1.6,1.6,0,0,1,47.93,4a1.805,1.805,0,0,1,1.332.533,1.72,1.72,0,0,1,0,2.489,1.929,1.929,0,0,1-2.663,0A1.434,1.434,0,0,1,46.065,5.867Z" transform="translate(127.06 46.467)"/><path class="a" d="M58.414,9.289a3,3,0,0,1,.71-.267,3.637,3.637,0,0,1,.977-.089,3.676,3.676,0,0,1,1.42.267,1.376,1.376,0,0,1,.71.711c.178.533.266,1.067.444,1.511.089.444.266.889.355,1.333s.266.889.355,1.244a7.413,7.413,0,0,0,.355,1.333h.089c.089-.8.266-1.6.355-2.311l.266-2.133.266-2.133.266-2.133a3.319,3.319,0,0,1,1.6-.444,1.877,1.877,0,0,1,1.243.356A1.075,1.075,0,0,1,68.357,7.6a7.272,7.272,0,0,1-.089,1.244C68.179,9.378,68.09,10,68,10.622a19.852,19.852,0,0,1-.355,2.044,13.826,13.826,0,0,1-.444,2.044c-.178.622-.266,1.244-.444,1.778a6.382,6.382,0,0,1-.444,1.244,2,2,0,0,1-.977.444,6.891,6.891,0,0,1-1.42.178,4.3,4.3,0,0,1-1.6-.267c-.444-.178-.71-.356-.8-.711q-.266-.8-.533-1.867c-.178-.711-.444-1.511-.621-2.4-.178.889-.355,1.689-.533,2.489s-.355,1.511-.533,2.044a2.08,2.08,0,0,1-.888.444,5.366,5.366,0,0,1-1.332.178,4.3,4.3,0,0,1-1.6-.267,1.668,1.668,0,0,1-.977-.711,7.42,7.42,0,0,1-.355-1.067c-.178-.444-.266-.978-.444-1.6s-.266-1.244-.444-1.956-.266-1.422-.444-2.133c-.089-.711-.266-1.422-.355-2.044-.089-.711-.178-1.244-.266-1.867a1.716,1.716,0,0,1,.8-.444A2.249,2.249,0,0,1,54.064,6a1.877,1.877,0,0,1,1.243.356,1.458,1.458,0,0,1,.621,1.067c.178,1.333.355,2.489.533,3.378s.266,1.6.355,2.222a11.162,11.162,0,0,1,.178,1.333c0,.356.089.533.089.8h.089c.089-.533.266-.978.355-1.511a7.413,7.413,0,0,1,.355-1.333c.089-.444.266-.978.355-1.511A11.36,11.36,0,0,1,58.414,9.289Z" transform="translate(126.252 46.244)"/><path class="a" d="M75.839,8.689a13.28,13.28,0,0,1,1.953.178,5.935,5.935,0,0,1,1.509.622,3.094,3.094,0,0,1,.977,1.156,3.047,3.047,0,0,1,.355,1.6v4.444a1.087,1.087,0,0,1-.266.8,2.137,2.137,0,0,1-.71.533,6.911,6.911,0,0,1-3.64.8,11.067,11.067,0,0,1-1.864-.178,3.462,3.462,0,0,1-1.42-.622,3.409,3.409,0,0,1-.977-.978,3.731,3.731,0,0,1-.355-1.422,2.885,2.885,0,0,1,.8-2.133,3.961,3.961,0,0,1,2.486-.889l2.574-.267v-.178a.854.854,0,0,0-.533-.8,3.109,3.109,0,0,0-1.42-.267,8.735,8.735,0,0,0-1.509.178c-.444.089-.888.267-1.332.356a.91.91,0,0,1-.444-.533,2.6,2.6,0,0,1-.178-.8,1.087,1.087,0,0,1,.266-.8,3.1,3.1,0,0,1,.8-.533A4.8,4.8,0,0,1,74.241,8.6,5.085,5.085,0,0,0,75.839,8.689Zm.178,7.822a1.952,1.952,0,0,0,.71-.089,5.651,5.651,0,0,0,.621-.178v-1.6l-1.42.089A1.324,1.324,0,0,0,75.04,15a.6.6,0,0,0-.355.622.807.807,0,0,0,.266.622A1.541,1.541,0,0,0,76.016,16.511Z" transform="translate(124.096 45.956)"/><path class="a" d="M87.573,18.256c-.178,0-.355.089-.621.089a2.733,2.733,0,0,1-.888.089,2.455,2.455,0,0,1-.8-.089.805.805,0,0,1-.621-.267.887.887,0,0,1-.355-.444,1.976,1.976,0,0,1-.089-.8V5.278c.178,0,.355-.089.621-.089a2.733,2.733,0,0,1,.888-.089,2.455,2.455,0,0,1,.8.089.805.805,0,0,1,.621.267.887.887,0,0,1,.355.444c0,.267.089.533.089.8Z" transform="translate(122.659 46.344)"/><path class="a" d="M93.773,18.256c-.178,0-.355.089-.621.089a2.733,2.733,0,0,1-.888.089,2.455,2.455,0,0,1-.8-.089.805.805,0,0,1-.621-.267.887.887,0,0,1-.355-.444,1.976,1.976,0,0,1-.089-.8V5.278c.178,0,.355-.089.621-.089s.533-.089.888-.089a2.455,2.455,0,0,1,.8.089.805.805,0,0,1,.621.267,1.938,1.938,0,0,1,.355.444,1.976,1.976,0,0,1,.089.8Z" transform="translate(121.963 46.344)"/><path class="a" d="M101.7,19.022a5.365,5.365,0,0,1-2.131-.356,4.349,4.349,0,0,1-1.775-.978A3.833,3.833,0,0,1,96.644,16a5.952,5.952,0,0,1-.444-2.311,5.5,5.5,0,0,1,.444-2.222A3.3,3.3,0,0,1,97.8,9.956a3.549,3.549,0,0,1,1.6-.889A6.75,6.75,0,0,1,101.26,8.8a4.772,4.772,0,0,1,1.953.356,6.152,6.152,0,0,1,1.509.889,3.712,3.712,0,0,1,.977,1.333,3.611,3.611,0,0,1,.355,1.689,1.418,1.418,0,0,1-.355,1.067,1.947,1.947,0,0,1-1.065.444l-5.149.622a1.615,1.615,0,0,0,.888.978,4.178,4.178,0,0,0,1.509.356,7.808,7.808,0,0,0,1.509-.178,7.921,7.921,0,0,0,1.154-.444c.178.089.355.356.533.533a1.2,1.2,0,0,1,.178.711,1.379,1.379,0,0,1-.8,1.333,3.8,3.8,0,0,1-1.42.444A6.71,6.71,0,0,1,101.7,19.022Zm-.621-7.822a1.771,1.771,0,0,0-.8.178.909.909,0,0,0-.533.444,1.86,1.86,0,0,0-.355.533,1.515,1.515,0,0,0-.089.622l3.373-.533a1.229,1.229,0,0,0-.444-.8A1.533,1.533,0,0,0,101.083,11.2Z" transform="translate(121.312 45.933)"/><path class="a" d="M112.273,15.144c0,.356.089.622.355.711a1.329,1.329,0,0,0,.888.178,1.509,1.509,0,0,0,.621-.089c.178,0,.355-.089.533-.089.089.178.178.267.266.444a1.32,1.32,0,0,1,.089.622,1.615,1.615,0,0,1-.533,1.244,2.89,2.89,0,0,1-1.953.444,3.972,3.972,0,0,1-2.663-.8,3.282,3.282,0,0,1-.977-2.578V6.878c.178,0,.355-.089.621-.089a2.733,2.733,0,0,1,.888-.089,2.492,2.492,0,0,1,1.332.267c.355.178.444.622.444,1.333V9.544h2.574l.266.533a1.735,1.735,0,0,1,.089.711,1.431,1.431,0,0,1-.266.978,1.084,1.084,0,0,1-.8.267h-1.775Z" transform="translate(119.886 46.167)"/><path class="b" d="M23.523,24a2.223,2.223,0,0,1,0-4.446h4.438a3.146,3.146,0,0,0,3.107-3.109v-12H27.962a2.2,2.2,0,0,1-2.219-2.222A2.2,2.2,0,0,1,27.962,0h5.326A2.2,2.2,0,0,1,35.51,2.222V16.446A7.6,7.6,0,0,1,27.962,24ZM7.545,24A7.545,7.545,0,0,1,0,16.446V2.222A2.2,2.2,0,0,1,2.219,0H20.862a2.2,2.2,0,0,1,2.219,2.222,2.2,2.2,0,0,1-2.219,2.222H4.438V8H24.414a3.111,3.111,0,1,1-2.842,4.444H4.438v4a3.146,3.146,0,0,0,3.107,3.109h8.879a2.223,2.223,0,0,1,0,4.446Z" transform="translate(133 47)"/></g></svg>