<svg width="32" height="32" viewBox="0 0 32 32" fill="none" xmlns="http://www.w3.org/2000/svg">
<circle cx="16" cy="16" r="16" fill="#FF931E"/>
<path d="M11.2923 11.5692H13.3692L16 15.2424L18.6308 11.5692H20.7077L17.0385 16.6923V20.5692H14.9615V16.6923L11.2923 11.5692Z" fill="white"/>
<path fill-rule="evenodd" clip-rule="evenodd" d="M16 24.0308C20.4353 24.0308 24.0308 20.4353 24.0308 16C24.0308 11.5647 20.4353 7.96923 16 7.96923C11.5647 7.96923 7.96923 11.5647 7.96923 16C7.96923 20.4353 11.5647 24.0308 16 24.0308ZM16 25C20.9706 25 25 20.9706 25 16C25 11.0294 20.9706 7 16 7C11.0294 7 7 11.0294 7 16C7 20.9706 11.0294 25 16 25Z" fill="white"/>
</svg>
