<svg xmlns="http://www.w3.org/2000/svg" viewBox="0 0 24 24"><defs><style>.a{fill:none;}.b{fill:#e53935;}.c{fill:#3d4f6c;}.d{fill:#003dc6;}</style></defs><g transform="translate(-472 -1040)"><rect class="a" width="24" height="23.963" transform="translate(472 1040)"/><g transform="translate(472 1040)"><path class="b" d="M13.187,50.875A12.009,12.009,0,0,0,24.475,43H1.9A12.009,12.009,0,0,0,13.187,50.875Z" transform="translate(-1.188 -26.875)"/><path class="c" d="M13.187,0A12.009,12.009,0,0,0,1.9,7.875H24.437A11.925,11.925,0,0,0,13.187,0Z" transform="translate(-1.188 0)"/><path class="d" d="M0,25.125A12.373,12.373,0,0,0,.712,29.25H23.25a11.494,11.494,0,0,0,.713-4.125A12.373,12.373,0,0,0,23.25,21H.712A12.373,12.373,0,0,0,0,25.125Z" transform="translate(0 -13.125)"/></g></g></svg>