<svg xmlns="http://www.w3.org/2000/svg" viewBox="0 0 24 24"><defs><style>.a,.b{fill:none;}.b{stroke:#003dc6;stroke-linecap:round;stroke-linejoin:round;stroke-width:1.5px;}</style></defs><g transform="translate(-198.5 -186.5)"><g transform="translate(198.75 186.75)"><path class="b" d="M4.5,8.15V5.217a1.467,1.467,0,0,1,2.933,0V8.15" transform="translate(-0.083 -0.067)"/><line class="b" x2="2.933" transform="translate(4.417 6.617)"/><line class="b" y2="1.467" transform="translate(16.15 10.283)"/><line class="b" x2="5.867" transform="translate(13.217 11.75)"/><path class="b" d="M17.9,12s-1.467,4.4-4.4,4.4" transform="translate(-0.283 -0.25)"/><path class="b" d="M16.5,14.767a3.845,3.845,0,0,0,2.933,1.694" transform="translate(-0.35 -0.311)"/><path class="b" d="M11.217,18.517A1.467,1.467,0,0,1,9.75,17.05V9.717A1.467,1.467,0,0,1,11.217,8.25H21.483A1.467,1.467,0,0,1,22.95,9.717V17.05a1.467,1.467,0,0,1-1.467,1.467H20.017v4.4l-4.4-4.4Z" transform="translate(-0.2 -0.167)"/><path class="b" d="M6.617,12.483,3.683,15.417v-4.4H2.217A1.467,1.467,0,0,1,.75,9.55V2.217A1.467,1.467,0,0,1,2.217.75H12.483A1.467,1.467,0,0,1,13.95,2.217V5.15" transform="translate(0 0)"/></g></g></svg>