<svg xmlns="http://www.w3.org/2000/svg" viewBox="0 0 24 24"><defs><style>.a,.b{fill:none;}.b{stroke:#003dc6;stroke-linecap:round;stroke-linejoin:round;stroke-width:1.5px;}</style></defs><g transform="translate(-1258.5 -186.5)"><g transform="translate(1258.75 186.751)"><path class="b" d="M20.128,8.149V5.216a1.467,1.467,0,0,0-1.467-1.467H14.75" transform="translate(-0.311 -0.067)"/><path class="b" d="M6.128,3.749H2.217A1.467,1.467,0,0,0,.75,5.216V21.349a1.467,1.467,0,0,0,1.467,1.467H8.083" transform="translate(0 -0.067)"/><path class="b" d="M14.224,4.647a.734.734,0,0,1-.7.5H7.252a.734.734,0,0,1-.7-.5L5.578,1.714a.732.732,0,0,1,.7-.965h8.231a.732.732,0,0,1,.7.965Z" transform="translate(-0.106 0)"/><rect class="b" width="11.733" height="11.733" rx="1.5" transform="translate(11.017 11.016)"/><line class="b" x2="5.867" transform="translate(13.95 13.949)"/><line class="b" x2="5.867" transform="translate(13.95 16.882)"/><line class="b" x2="2.2" transform="translate(13.95 19.816)"/></g></g></svg>