<svg xmlns="http://www.w3.org/2000/svg" viewBox="0 0 24 24"><defs><style>.a,.b{fill:none;}.b{stroke:#3d4f6c;stroke-linecap:round;stroke-linejoin:round;stroke-width:1.5px;}</style></defs><g transform="translate(-443.5 -427.5)"><g transform="translate(444 427.75)"><path class="b" d="M8.353.75l4.275,2.87-3.8,3.348" transform="translate(-0.184)"/><path class="b" d="M19.544,18.341A9.467,9.467,0,0,1,8.029,22.153,9.574,9.574,0,0,1,11.5,3.685h.944" transform="translate(0 -0.065)"/><path class="b" d="M21.556,13.467a9.661,9.661,0,0,1-.3,2.392" transform="translate(-0.556 -0.284)"/><path class="b" d="M20.065,8.26a9.55,9.55,0,0,1,1.023,2.224" transform="translate(-0.522 -0.168)"/><path class="b" d="M16.31,4.793a9.489,9.489,0,0,1,1.778,1.212" transform="translate(-0.413 -0.09)"/></g></g></svg>