<svg xmlns="http://www.w3.org/2000/svg" viewBox="0 0 20 20"><defs><style>.a,.b{fill:none;}.b{stroke:#3d4f6c;stroke-linecap:round;stroke-linejoin:round;stroke-width:1.5px;}</style></defs><g transform="translate(-1078 -427)"><rect class="a" width="20" height="20" transform="translate(1078 427)"/><g transform="translate(1079 428)"><path class="b" d="M17.55,15.15H9.15l-4.8,3.6v-3.6H1.95a1.2,1.2,0,0,1-1.2-1.2v-12A1.2,1.2,0,0,1,1.95.75h15.6a1.2,1.2,0,0,1,1.2,1.2v12A1.2,1.2,0,0,1,17.55,15.15Z" transform="translate(-0.75 -0.75)"/><line class="b" x2="7.2" transform="translate(7.2 5.7)"/><line class="b" x2="7.2" transform="translate(7.2 9.3)"/><line class="b" transform="translate(3.6 5.4)"/><path class="b" d="M5.175,7.5a.3.3,0,1,0,.3.3.3.3,0,0,0-.3-.3" transform="translate(-1.575 -2.1)"/><line class="b" transform="translate(3.6 9)"/><path class="b" d="M5.175,12a.3.3,0,1,0,.3.3.3.3,0,0,0-.3-.3" transform="translate(-1.575 -3)"/></g></g></svg>