<svg xmlns="http://www.w3.org/2000/svg" viewBox="0 0 20 20"><defs><style>.a,.b{fill:none;}.b{stroke:#3d4f6c;stroke-linecap:round;stroke-linejoin:round;stroke-width:1.5px;}</style></defs><g transform="translate(-258 -674)"><rect class="a" width="20" height="20" transform="translate(258 674)"/><g transform="translate(259 677)"><path class="b" d="M19.091,10.5l-8.628,4.115a.419.419,0,0,1-.335,0L1.5,10.5" transform="translate(-1.295 -3)"/><path class="b" d="M19.091,13.5l-8.628,4.115a.419.419,0,0,1-.335,0L1.5,13.5" transform="translate(-1.295 -2.65)"/><path class="b" d="M10.423,10.81a.419.419,0,0,1-.335,0L1.506,7.079a.419.419,0,0,1,0-.767L10.088,2.58a.419.419,0,0,1,.335,0L19,6.311a.419.419,0,0,1,0,.767Z" transform="translate(-1.256 -2.545)"/></g></g></svg>