<svg xmlns="http://www.w3.org/2000/svg" viewBox="0 0 20 20"><defs><style>.a,.b{fill:none;}.b{stroke:#fff;stroke-linecap:round;stroke-linejoin:round;stroke-width:1.5px;}</style></defs><g transform="translate(-1126 -427)"><rect class="a" width="20" height="20" transform="translate(1126 427)"/><g transform="translate(1128 428)"><path class="b" d="M2,3.063V9.037A9.618,9.618,0,0,0,8.262,18.01l.858.327a2.494,2.494,0,0,0,1.768,0l.854-.323A9.618,9.618,0,0,0,18,9.037V3.063a1.2,1.2,0,0,0-.712-1.1A18.058,18.058,0,0,0,10,.5,18.058,18.058,0,0,0,2.712,1.964,1.2,1.2,0,0,0,2,3.063Z" transform="translate(-2 -0.499)"/><path class="b" d="M15.08,7,9.4,12.187,7.5,10.334" transform="translate(-2.911 -1.4)"/></g></g></svg>