<svg xmlns="http://www.w3.org/2000/svg" viewBox="0 0 20 20"><defs><style>.a,.b{fill:none;}.b{stroke:#3d4f6c;stroke-linecap:round;stroke-linejoin:round;stroke-width:1.5px;}</style></defs><g transform="translate(-986 -427)"><rect class="a" width="20" height="20" transform="translate(986 427)"/><g transform="translate(988 428)"><ellipse class="b" cx="2.001" cy="2.001" rx="2.001" ry="2.001" transform="translate(5.999 7)"/><path class="b" d="M10.8,5.016a1.774,1.774,0,0,1,3.4,0l.59,1.938a1.326,1.326,0,0,0,1.566.908l1.964-.455a1.785,1.785,0,0,1,1.7,2.958l-1.379,1.479a1.333,1.333,0,0,0,0,1.817l1.374,1.482a1.785,1.785,0,0,1-1.7,2.958l-1.964-.455a1.326,1.326,0,0,0-1.566.908L14.2,20.487a1.774,1.774,0,0,1-3.4,0l-.591-1.938a1.325,1.325,0,0,0-1.565-.908L6.681,18.1a1.785,1.785,0,0,1-1.7-2.958l1.375-1.482a1.333,1.333,0,0,0,0-1.817L4.981,10.363a1.785,1.785,0,0,1,1.7-2.958l1.965.455a1.325,1.325,0,0,0,1.565-.908Z" transform="translate(-4.501 -3.752)"/></g></g></svg>