<svg xmlns="http://www.w3.org/2000/svg" viewBox="10669 2244 24 24"><defs><style>.a{fill:none;}.b{fill:#fff;}</style></defs><g transform="translate(10669 2243.998)"><rect class="a" width="24" height="24" transform="translate(0 0.002)"/><path class="b" d="M18,22H3a1,1,0,0,1-1-1V6H4V20H18Z"/><path class="b" d="M21,18H7a1,1,0,0,1-1-1V3A1,1,0,0,1,7,2H21a1,1,0,0,1,1,1V17A1,1,0,0,1,21,18ZM8,16H20V4H8Z"/><rect class="b" width="8" height="2" transform="translate(10 7.001)"/><rect class="b" width="6" height="2" transform="translate(10 11.001)"/></g></svg>