<svg xmlns="http://www.w3.org/2000/svg" viewBox="10716 1979 127 44"><defs><style>.a{fill:#fff;}.b{fill:none;}</style></defs><g transform="translate(10545 1940)"><path class="a" d="M-4147.852,1476a8.227,8.227,0,0,1-4.129-1.111l-11.877-6.865a8.3,8.3,0,0,1-4.142-7.169v-13.708a8.326,8.326,0,0,1,4.142-7.169l11.877-6.865a8.313,8.313,0,0,1,4.146-1.112,8.132,8.132,0,0,1,4.112,1.112l11.878,6.865a8.3,8.3,0,0,1,4.141,7.169v13.708a8.326,8.326,0,0,1-4.141,7.169l-11.878,6.865A8.225,8.225,0,0,1-4147.852,1476Zm-6.833-14.143-2.2,2.2a6.074,6.074,0,0,0,4.38,1.808,6.218,6.218,0,0,0,6.211-6.21v-1.875a6.162,6.162,0,0,0,3.094.828,6.014,6.014,0,0,0,4.4-1.788l-2.2-2.2a3.1,3.1,0,0,1-2.2.915,3.1,3.1,0,0,1-3.094-3.094v-10.331h-3.094v17.565a3.1,3.1,0,0,1-3.1,3.1A3.1,3.1,0,0,1-4154.685,1461.857Z" transform="translate(4339 -1393)"/><path class="a" d="M239.895,238.174c.153-.022.37-.065.7-.109a6.951,6.951,0,0,1,.915-.065,4.305,4.305,0,0,1,.806.065,1.452,1.452,0,0,1,.588.24,1.259,1.259,0,0,1,.37.5,2.321,2.321,0,0,1,.131.85v7.41a3.371,3.371,0,0,1-1.024,2.681,4.465,4.465,0,0,1-3.007.894,3.646,3.646,0,0,1-1.678-.327,1.542,1.542,0,0,1-.676-.61,1.912,1.912,0,0,1-.218-.872,2.23,2.23,0,0,1,.109-.7,1.631,1.631,0,0,1,.262-.479c.262.044.479.087.654.109a4.934,4.934,0,0,0,.588.022,1.458,1.458,0,0,0,1.133-.392,1.78,1.78,0,0,0,.349-1.155Z" transform="translate(-17.8 -191.06)"/><path class="a" d="M277.2,230.909a1.831,1.831,0,0,1,.5-1.286,2.007,2.007,0,0,1,2.7,0,1.741,1.741,0,0,1,.5,1.286,1.831,1.831,0,0,1-.5,1.286,1.853,1.853,0,0,1-3.2-1.286Zm3.574,12.444c-.153.022-.37.065-.654.109a5.868,5.868,0,0,1-.872.065,4.223,4.223,0,0,1-.785-.065,1.451,1.451,0,0,1-.588-.24,1.258,1.258,0,0,1-.371-.5,2.153,2.153,0,0,1-.131-.806v-8.151c.153-.022.37-.065.654-.109a5.865,5.865,0,0,1,.872-.065,4.22,4.22,0,0,1,.785.065,1.452,1.452,0,0,1,.588.24,1.259,1.259,0,0,1,.37.5,2.153,2.153,0,0,1,.131.806Z" transform="translate(-49.396 -184.1)"/><path class="a" d="M303.7,234a4.364,4.364,0,0,1,.632-.131,5.949,5.949,0,0,1,.893-.065,4.226,4.226,0,0,1,.785.065,1.452,1.452,0,0,1,.588.24,1.258,1.258,0,0,1,.37.5,2.153,2.153,0,0,1,.131.806v1.961a5.9,5.9,0,0,1,.959-.283,6.866,6.866,0,0,1,1-.087,4.8,4.8,0,0,1,1.831.349,4.422,4.422,0,0,1,1.525,1,4.913,4.913,0,0,1,1.046,1.613,5.8,5.8,0,0,1,.37,2.223,5.941,5.941,0,0,1-.392,2.266,4.488,4.488,0,0,1-1.09,1.613,4.749,4.749,0,0,1-1.722.981,7.251,7.251,0,0,1-2.245.327,7.45,7.45,0,0,1-2.245-.305,6.572,6.572,0,0,1-1.569-.763,1.891,1.891,0,0,1-.872-1.613V234Zm4.685,10.679a1.788,1.788,0,0,0,1.438-.632,2.872,2.872,0,0,0,.5-1.874,2.83,2.83,0,0,0-.523-1.874,1.73,1.73,0,0,0-1.395-.632,2.261,2.261,0,0,0-.7.087,2.856,2.856,0,0,0-.632.24v4.38a2.908,2.908,0,0,0,.523.24A4.061,4.061,0,0,0,308.386,244.675Z" transform="translate(-70.121 -187.776)"/><path class="a" d="M361.2,258.681a4.363,4.363,0,0,1-.632.131,5.946,5.946,0,0,1-.894.065,4.224,4.224,0,0,1-.785-.065,1.452,1.452,0,0,1-.588-.24,1.258,1.258,0,0,1-.37-.5,2.152,2.152,0,0,1-.131-.806V251.25a1.736,1.736,0,0,1,.174-.785,1.809,1.809,0,0,1,.5-.588,4.4,4.4,0,0,1,.785-.479c.305-.131.654-.262,1-.37a6.546,6.546,0,0,1,1.133-.24,7.045,7.045,0,0,1,1.155-.087,2.819,2.819,0,0,1,1.526.37,1.356,1.356,0,0,1,.567,1.22,1.5,1.5,0,0,1-.087.545,3.427,3.427,0,0,1-.2.5c-.283,0-.567.022-.872.044a6.015,6.015,0,0,0-.872.131,7,7,0,0,0-.785.174,3.547,3.547,0,0,0-.632.218Z" transform="translate(-112.431 -199.429)"/><path class="a" d="M397.479,258.852a7.165,7.165,0,0,1-2.2-.327,4.717,4.717,0,0,1-1.765-1,4.777,4.777,0,0,1-1.177-1.656,6.046,6.046,0,0,1-.436-2.354,5.531,5.531,0,0,1,.436-2.266,4.689,4.689,0,0,1,1.133-1.569,4.048,4.048,0,0,1,1.613-.894,5.973,5.973,0,0,1,1.852-.283,5.488,5.488,0,0,1,1.94.327,4.627,4.627,0,0,1,1.5.872,4.07,4.07,0,0,1,.981,1.351,4.023,4.023,0,0,1,.349,1.7,1.421,1.421,0,0,1-.37,1.046,1.93,1.93,0,0,1-1.068.458l-4.947.741a1.821,1.821,0,0,0,.894,1,3.608,3.608,0,0,0,1.569.327,5.11,5.11,0,0,0,1.547-.218,4.407,4.407,0,0,0,1.2-.5,1.7,1.7,0,0,1,.545.567,1.4,1.4,0,0,1,.218.763,1.443,1.443,0,0,1-.85,1.351,5.053,5.053,0,0,1-1.438.458A9.831,9.831,0,0,1,397.479,258.852Zm-.567-7.867a1.939,1.939,0,0,0-.828.153,1.593,1.593,0,0,0-.567.414,1.484,1.484,0,0,0-.327.567,3.265,3.265,0,0,0-.131.632l3.422-.567a1.646,1.646,0,0,0-.436-.806A1.523,1.523,0,0,0,396.912,250.984Z" transform="translate(-139.099 -199.272)"/><path class="a" d="M448.1,246.95c-.153.022-.37.065-.654.109a5.867,5.867,0,0,1-.872.065,4.222,4.222,0,0,1-.785-.065,1.451,1.451,0,0,1-.588-.24,1.258,1.258,0,0,1-.371-.5,2.153,2.153,0,0,1-.131-.806V233.874c.153-.022.37-.065.654-.109a5.868,5.868,0,0,1,.872-.065,4.221,4.221,0,0,1,.785.065,1.592,1.592,0,0,1,.588.24,1.258,1.258,0,0,1,.37.5,2.153,2.153,0,0,1,.131.806Z" transform="translate(-180.392 -187.698)"/><path class="a" d="M251.649,320.9a1.894,1.894,0,0,1-.806.436,4.366,4.366,0,0,1-1.264.153,4.159,4.159,0,0,1-1.395-.218,1.989,1.989,0,0,1-1.09-1.068l-1.983-4.053c-.2-.414-.37-.806-.545-1.177-.153-.37-.327-.785-.523-1.264l-.131.022c.044.719.087,1.46.087,2.2v5.317a5.31,5.31,0,0,1-.676.131,6.164,6.164,0,0,1-.894.065,4.393,4.393,0,0,1-.785-.065,1.487,1.487,0,0,1-.567-.24,1.219,1.219,0,0,1-.349-.5,2.153,2.153,0,0,1-.131-.806V309.806a1.9,1.9,0,0,1,.872-.61,3.9,3.9,0,0,1,1.242-.2,4.392,4.392,0,0,1,1.417.24,1.855,1.855,0,0,1,1.068,1.046l2,4.053c.2.414.37.806.545,1.177.153.371.327.785.523,1.264l.109-.022c-.044-.719-.087-1.438-.109-2.158s-.022-1.438-.022-2.157V309.2a5.3,5.3,0,0,1,.676-.131,6.168,6.168,0,0,1,.894-.065,2.529,2.529,0,0,1,1.351.305,1.477,1.477,0,0,1,.458,1.286V320.9Z" transform="translate(-20.772 -246.587)"/><path class="a" d="M305.779,329.852a7.166,7.166,0,0,1-2.2-.327,4.717,4.717,0,0,1-1.765-1,4.584,4.584,0,0,1-1.177-1.656,6.046,6.046,0,0,1-.436-2.354,5.531,5.531,0,0,1,.436-2.266,4.69,4.69,0,0,1,1.133-1.569,4.048,4.048,0,0,1,1.613-.893,5.974,5.974,0,0,1,1.852-.283,5.487,5.487,0,0,1,1.94.327,4.625,4.625,0,0,1,1.5.872,4.071,4.071,0,0,1,.981,1.351,4.023,4.023,0,0,1,.349,1.7,1.421,1.421,0,0,1-.371,1.046,1.929,1.929,0,0,1-1.068.458l-4.947.741a1.821,1.821,0,0,0,.894,1,3.607,3.607,0,0,0,1.569.327,5.109,5.109,0,0,0,1.547-.218,4.405,4.405,0,0,0,1.2-.5,1.7,1.7,0,0,1,.545.567,1.4,1.4,0,0,1,.218.763,1.443,1.443,0,0,1-.85,1.351,5.054,5.054,0,0,1-1.438.458A9.828,9.828,0,0,1,305.779,329.852Zm-.567-7.867a1.939,1.939,0,0,0-.828.153,1.594,1.594,0,0,0-.567.414,1.484,1.484,0,0,0-.327.567,3.262,3.262,0,0,0-.131.632l3.422-.567a1.647,1.647,0,0,0-.436-.806A1.558,1.558,0,0,0,305.212,321.984Z" transform="translate(-67.383 -254.799)"/><path class="a" d="M356.256,319.543a.832.832,0,0,0,.327.741,1.612,1.612,0,0,0,.937.218c.2,0,.414-.022.632-.044.218-.044.392-.087.567-.131a1.928,1.928,0,0,1,.305.5,1.456,1.456,0,0,1,.131.654,1.594,1.594,0,0,1-.567,1.242,3.1,3.1,0,0,1-2,.479,4.066,4.066,0,0,1-2.724-.806,3.251,3.251,0,0,1-.959-2.615V311.2a5.119,5.119,0,0,1,.632-.131A5.66,5.66,0,0,1,354.4,311a2.67,2.67,0,0,1,1.373.305,1.473,1.473,0,0,1,.5,1.308V313.9h2.637a4.465,4.465,0,0,1,.24.545,2.526,2.526,0,0,1,.109.741,1.413,1.413,0,0,1-.305,1,1.085,1.085,0,0,1-.828.305H356.3v3.051Z" transform="translate(-108.598 -248.152)"/><path class="a" d="M393,329.32a2.489,2.489,0,0,1-.763.392,3.566,3.566,0,0,1-1.133.153,3.928,3.928,0,0,1-1.417-.24,1.39,1.39,0,0,1-.806-.654,8.819,8.819,0,0,1-.5-1.525c-.2-.7-.392-1.46-.567-2.288-.2-.828-.371-1.678-.523-2.528-.174-.85-.305-1.613-.392-2.267a2.575,2.575,0,0,1,.763-.5,2.608,2.608,0,0,1,1.024-.218,2.116,2.116,0,0,1,1.155.305,1.454,1.454,0,0,1,.545,1.068c.131,1.024.24,1.852.349,2.506.087.654.174,1.2.24,1.634.065.414.109.741.131.959.044.218.065.392.087.523h.087c.044-.218.109-.523.218-.937s.218-.872.349-1.395.283-1.09.414-1.7c.153-.61.283-1.22.436-1.809a4.116,4.116,0,0,1,.785-.349,3.139,3.139,0,0,1,.981-.131,2.874,2.874,0,0,1,1.2.218,1.072,1.072,0,0,1,.632.676c.153.588.305,1.155.458,1.722.153.545.283,1.068.392,1.547.131.479.218.894.327,1.264.087.37.153.654.2.872h.109c.152-1.024.283-2.092.436-3.2.131-1.111.261-2.245.392-3.378a2.6,2.6,0,0,1,.763-.327,3.415,3.415,0,0,1,.806-.109,2.117,2.117,0,0,1,1.155.305,1.147,1.147,0,0,1,.458,1.046,7.077,7.077,0,0,1-.109.959q-.1.654-.262,1.438c-.109.545-.24,1.09-.37,1.678s-.283,1.155-.414,1.7-.283,1.046-.392,1.482c-.131.436-.24.785-.327,1.024a2.515,2.515,0,0,1-.872.392,4.62,4.62,0,0,1-1.242.153c-1.133,0-1.787-.283-1.983-.85-.087-.24-.174-.545-.305-.915s-.24-.763-.37-1.22c-.131-.436-.262-.893-.37-1.373-.131-.479-.218-.937-.305-1.373-.087.458-.218.959-.349,1.46s-.261.981-.414,1.46q-.2.719-.392,1.308C393.155,328.753,393.067,329.08,393,329.32Z" transform="translate(-135.189 -254.877)"/><path class="a" d="M470.961,324.743a6.423,6.423,0,0,1-.37,2.223,4.533,4.533,0,0,1-1.068,1.634,4.391,4.391,0,0,1-1.656,1,6.548,6.548,0,0,1-2.136.349,6.012,6.012,0,0,1-2.136-.37,4.937,4.937,0,0,1-1.656-1.024,4.625,4.625,0,0,1-1.068-1.634,6.137,6.137,0,0,1-.37-2.158,6.013,6.013,0,0,1,.37-2.136,4.942,4.942,0,0,1,1.068-1.634,4.433,4.433,0,0,1,1.656-1.024,6.341,6.341,0,0,1,4.271,0,4.6,4.6,0,0,1,2.724,2.681A5.77,5.77,0,0,1,470.961,324.743Zm-7.017,0a3.1,3.1,0,0,0,.479,1.874,1.5,1.5,0,0,0,1.308.654,1.438,1.438,0,0,0,1.286-.654,3.262,3.262,0,0,0,.458-1.874,3.186,3.186,0,0,0-.458-1.852,1.635,1.635,0,0,0-2.615,0A3.186,3.186,0,0,0,463.943,324.743Z" transform="translate(-192.749 -254.877)"/><path class="a" d="M519.5,329.6a4.365,4.365,0,0,1-.632.131,5.946,5.946,0,0,1-.894.065,4.222,4.222,0,0,1-.784-.065,1.452,1.452,0,0,1-.588-.24,1.258,1.258,0,0,1-.37-.5,2.153,2.153,0,0,1-.131-.806v-6.015a1.737,1.737,0,0,1,.174-.785,1.81,1.81,0,0,1,.5-.588,4.394,4.394,0,0,1,.785-.479c.305-.131.654-.262,1-.37a9.526,9.526,0,0,1,1.133-.262,7.044,7.044,0,0,1,1.155-.087,2.819,2.819,0,0,1,1.525.37,1.356,1.356,0,0,1,.567,1.22,1.5,1.5,0,0,1-.087.545,3.417,3.417,0,0,1-.2.5c-.283,0-.567.022-.872.044a6.022,6.022,0,0,0-.872.131,7,7,0,0,0-.784.174,3.549,3.549,0,0,0-.632.218Z" transform="translate(-236.232 -254.877)"/><path class="a" d="M563.658,316.207a2.561,2.561,0,0,1-.545,1.438,1.675,1.675,0,0,1-1.308.5,2.147,2.147,0,0,1-1.133-.305,4.74,4.74,0,0,1-1.09-1.046l-1.983-2.484v3.639c-.153.022-.371.065-.654.109a5.873,5.873,0,0,1-.872.065,4.225,4.225,0,0,1-.785-.065,1.451,1.451,0,0,1-.588-.24,1.259,1.259,0,0,1-.371-.5,2.155,2.155,0,0,1-.131-.806V304.9a5.664,5.664,0,0,1,.654-.131,5.867,5.867,0,0,1,.872-.065,4.219,4.219,0,0,1,.784.065,1.451,1.451,0,0,1,.588.24,1.259,1.259,0,0,1,.37.5,2.153,2.153,0,0,1,.131.806v5.3l3.443-3.53a2.785,2.785,0,0,1,1.678.458,1.4,1.4,0,0,1,.632,1.155,1.429,1.429,0,0,1-.109.545,2.062,2.062,0,0,1-.305.5,4.27,4.27,0,0,1-.545.545c-.218.2-.479.414-.763.676l-1.155,1Z" transform="translate(-266.029 -243.225)"/><rect class="b" width="127" height="44" transform="translate(171 39)"/></g></svg>