<svg xmlns="http://www.w3.org/2000/svg" viewBox="-6625 -10514 25.707 25.408"><defs><style>.a{fill:none;}.b{fill:#fff;}</style></defs><g transform="translate(-7226 -11056)"><g transform="translate(601 542)"><rect class="a" width="24" height="24"/></g><path class="b" d="M7238,11076h-10a2,2,0,0,1-2-2v-16a2,2,0,0,1,2-2h16a2,2,0,0,1,2,2v10h-2v-10h-16v16h10v2Zm0-5h-4l.623-4.35a3,3,0,1,1,2.754,0L7238,11071Z" transform="translate(-6623 -10512)"/><path class="b" d="M22.293,17.286,20,19.579V13.993H18v5.586l-2.293-2.293L14.293,18.7,19,23.407,23.707,18.7Z" transform="translate(603 544.001)"/></g></svg>