<svg xmlns="http://www.w3.org/2000/svg" viewBox="-6596 -7373 24 24"><defs><style>.a{fill:none;}.b{fill:#3d4f6c;}</style></defs><g transform="translate(-7187 -7744)"><g transform="translate(591 371)"><rect class="a" width="24" height="24"/></g><path class="b" d="M7238,7765h0l-10,0a2,2,0,0,1-2-2v-16a2,2,0,0,1,2-2h16a2,2,0,0,1,2,2v10h-2v-10h-16v16h10v2l0,0Zm0-5h-4l.62-4.35a3,3,0,1,1,2.758,0L7238,7760Z" transform="translate(-6635 -7374)"/><path class="b" d="M22.293,17.286,20,19.579V13.993H18v5.586l-2.293-2.293L14.293,18.7,19,23.407,23.707,18.7Z" transform="translate(591 371.001)"/></g></svg>