<svg width="32" height="32" viewBox="0 0 32 32" fill="none" xmlns="http://www.w3.org/2000/svg">
<circle cx="16" cy="16" r="16" fill="#113046"/>
<path fill-rule="evenodd" clip-rule="evenodd" d="M20.3272 17.9234C20.7361 17.3473 20.7874 16.6844 20.8271 16.0496C20.7922 15.2655 20.7086 14.5365 20.1997 13.9303C20.0396 13.7356 19.8212 13.5975 19.5767 13.5364C19.3321 13.4754 19.0745 13.4946 18.8417 13.5912C18.3899 13.7869 18.1343 14.1588 17.9693 14.6006C17.7302 15.2417 17.7085 15.9088 17.7783 16.5796C17.8275 17.0553 17.9418 17.5118 18.2253 17.916C18.7993 18.7349 19.7484 18.7397 20.3272 17.9234ZM20.0357 15.8333C20.0346 15.8769 20.0336 15.916 20.0336 15.9485H20.0298C20.0558 16.4223 20.0215 16.8975 19.9277 17.3626C19.8833 17.5967 19.7986 17.8213 19.6775 18.0265C19.476 18.3503 19.1189 18.3572 18.903 18.0466C18.7607 17.833 18.6668 17.5909 18.6279 17.3372C18.4686 16.4515 18.4704 15.5443 18.6332 14.6593C18.672 14.451 18.7434 14.2501 18.8448 14.0641C18.9353 13.8969 19.0485 13.7441 19.2617 13.7467C19.4749 13.7494 19.6119 13.8816 19.7119 14.0641C19.9526 14.5027 19.997 14.9852 20.0336 15.4682C20.0418 15.5981 20.0384 15.7287 20.0357 15.8333Z" fill="white"/>
<path d="M15.2194 17.8398H16.844C16.9472 17.8398 16.9964 17.7663 17.0176 17.67C17.0419 17.5584 17.0705 17.4467 17.0985 17.3367C17.1032 17.3101 17.117 17.286 17.1374 17.2684C17.1427 17.2638 17.1483 17.2598 17.1542 17.2563C17.1712 17.2462 17.1906 17.2405 17.2107 17.2399C17.2264 17.2394 17.242 17.2422 17.2566 17.2482C17.2711 17.2542 17.2842 17.2632 17.295 17.2747C17.3057 17.2862 17.3139 17.2998 17.319 17.3147C17.3241 17.3296 17.3259 17.3454 17.3244 17.361C17.3271 17.6694 17.3291 17.9774 17.3207 18.2852C17.3175 18.391 17.2255 18.4281 17.1302 18.4281C16.2401 18.4302 15.3497 18.4302 14.4592 18.4281L14.446 18.4281C14.3966 18.4286 14.3438 18.4291 14.319 18.3752C14.291 18.3157 14.3288 18.2768 14.3648 18.2398C14.3724 18.232 14.3799 18.2243 14.3867 18.2165C14.5255 18.061 14.6665 17.9074 14.8074 17.7538C15.1014 17.4333 15.3953 17.113 15.6696 16.7764C16.1542 16.1824 16.5663 15.5443 16.4901 14.7201C16.4881 14.6976 16.4865 14.675 16.4849 14.6524C16.4831 14.6263 16.4812 14.6002 16.4787 14.5742C16.4766 14.5522 16.474 14.5303 16.4706 14.5085C16.3944 14.0461 16.1341 13.761 15.7654 13.7314C15.3755 13.7002 14.9792 13.9811 14.8385 14.3884C14.7301 14.7021 14.8237 14.8778 15.1427 14.9614C15.3617 15.019 15.5559 15.3317 15.5019 15.5433C15.4677 15.6778 15.3536 15.6742 15.2521 15.6709L15.2453 15.6708C14.9433 15.6623 14.674 15.4311 14.5883 15.1084C14.4486 14.5826 14.5793 14.1318 14.9819 13.7652C15.3844 13.3986 15.8442 13.3822 16.3182 13.5536C17.0451 13.8181 17.4075 14.5619 17.2038 15.3079C17.1148 15.6132 16.9714 15.8999 16.7806 16.1543C16.3823 16.7068 15.9127 17.2042 15.3839 17.6335C15.306 17.6802 15.2476 17.7534 15.2194 17.8398Z" fill="white"/>
<path d="M12.1246 17.5287C11.9595 17.0462 11.9204 16.55 11.9421 16.021C11.9421 15.965 11.9408 15.9067 11.9394 15.8468C11.9365 15.7223 11.9335 15.5913 11.9421 15.4613C11.9781 15.0026 12.0283 14.5429 12.2695 14.1387C12.5584 13.6546 13.0843 13.6361 13.4149 14.0858C13.5365 14.251 13.6102 14.4383 13.684 14.626C13.6972 14.6595 13.7104 14.693 13.7239 14.7264C13.7582 14.8122 13.8016 14.9016 13.9122 14.8651C14.0058 14.8333 13.9921 14.7386 13.9815 14.6593C13.9478 14.3793 13.9464 14.0963 13.9773 13.816C13.9868 13.7123 14.0259 13.5922 13.9021 13.5346C13.791 13.4827 13.6958 13.5547 13.617 13.6255C13.5254 13.707 13.4456 13.7763 13.3249 13.6705C12.9271 13.3187 12.168 13.5229 11.8088 13.9424C11.3675 14.4593 11.1898 15.0661 11.1559 15.7184C11.1136 16.5331 11.2078 17.3213 11.7654 17.9816C12.1378 18.4244 12.6822 18.6222 13.1477 18.4773C13.6487 18.3212 14.0947 17.7546 14.1413 17.2134L14.1424 17.2014C14.1493 17.1257 14.1572 17.039 14.0598 17.0214C13.9571 17.0029 13.9238 17.0928 13.909 17.17C13.8748 17.361 13.805 17.5439 13.7032 17.7091C13.5075 18.0255 13.2567 18.2699 12.8568 18.2344C12.4367 18.1974 12.2479 17.8901 12.1246 17.5287Z" fill="white"/>
<path fill-rule="evenodd" clip-rule="evenodd" d="M8.16802 14.9465C8.16773 15.2975 8.16744 15.6484 8.16744 15.9993L8.16851 16.0041C8.16851 16.1749 8.16883 16.3457 8.16933 16.5166C8.16991 16.7188 8.17075 16.9211 8.1716 17.1234C8.17555 18.0815 8.17948 19.0395 8.15741 19.9966C8.14734 20.4114 8.29335 20.6204 8.64093 20.8177C10.9794 22.1485 13.3072 23.498 15.6348 24.8475L15.6378 24.8492L15.786 24.9351C15.9362 25.0203 16.0447 25.0229 16.1944 24.9351C16.9429 24.4957 17.696 24.0617 18.449 23.6277L18.7468 23.456C18.9254 23.3531 19.1039 23.2501 19.2823 23.147C20.7206 22.3101 22.1627 21.4778 23.6087 20.65C23.6835 20.614 23.7456 20.5563 23.7873 20.4846C23.8288 20.4128 23.8479 20.3301 23.842 20.2474C23.8378 17.4178 23.8378 14.5884 23.842 11.7592C23.842 11.5576 23.7658 11.438 23.5907 11.3396C22.8857 10.9434 22.1855 10.5383 21.4854 10.1333L21.481 10.1307L21.2752 10.0118C19.5738 9.02952 17.8737 8.04467 16.1748 7.05714C16.1212 7.01995 16.0575 7 15.9923 7C15.9271 7 15.8634 7.01995 15.8098 7.05714C13.3555 8.48199 10.8981 9.89977 8.43779 11.3105C8.23569 11.4248 8.1627 11.5629 8.1627 11.7951C8.16982 12.8449 8.16892 13.8958 8.16802 14.9465ZM10.362 16.7929C10.3614 16.5264 10.3608 16.2599 10.3608 15.9935C10.3609 15.7404 10.3613 15.4873 10.3618 15.2343V15.2247C10.3629 14.5022 10.3641 13.78 10.3587 13.0579C10.3571 12.8505 10.4185 12.7193 10.6073 12.6135C12.3214 11.632 14.0319 10.6475 15.7389 9.65996C15.9071 9.56368 16.0415 9.53564 16.2245 9.64143C17.9206 10.6314 19.6209 11.6126 21.3254 12.5849C21.5349 12.7045 21.6201 12.8405 21.6201 13.0854C21.6138 15.0421 21.6138 16.9983 21.6201 18.9539C21.6206 19.165 21.5529 19.2914 21.3677 19.3973C19.6255 20.3957 17.8857 21.3986 16.1484 22.4058C16.0304 22.4746 15.9442 22.4614 15.8341 22.3974C14.6749 21.7276 13.5152 21.0588 12.3552 20.3908C12.297 20.3572 12.2387 20.3236 12.1805 20.2899C12.0845 20.2344 11.9885 20.1787 11.8925 20.123C11.4751 19.8808 11.0575 19.6386 10.6348 19.4068C10.4317 19.2967 10.3523 19.1624 10.3555 18.9264C10.3651 18.218 10.3635 17.5082 10.362 16.7984V16.7929Z" fill="white"/>
</svg>
