<svg width="32" height="32" viewBox="0 0 32 32" fill="none" xmlns="http://www.w3.org/2000/svg">
<circle cx="16" cy="16" r="16" fill="#71D8B7"/>
<path d="M24.725 19.105C23.4603 22.5456 20.1543 25 16.275 25C11.3044 25 7.27496 20.9706 7.27496 16C7.27496 11.0294 11.3044 7 16.275 7C20.1023 7 23.3716 9.38901 24.673 12.7572L20.9832 14.1358C20.2408 12.2624 18.4126 10.9375 16.275 10.9375C13.479 10.9375 11.2125 13.2041 11.2125 16C11.2125 18.7959 13.479 21.0625 16.275 21.0625C18.4265 21.0625 20.2646 19.7203 20.9975 17.8276C21.659 18.0557 22.315 18.2797 22.9377 18.4923C23.5787 18.7111 24.1845 18.918 24.725 19.105Z" fill="white"/>
</svg>
