<svg width="32" height="32" viewBox="0 0 32 32" fill="none" xmlns="http://www.w3.org/2000/svg">
<circle cx="16" cy="16" r="16" fill="#2854A1"/>
<path fill-rule="evenodd" clip-rule="evenodd" d="M16.0103 19.3479C16.266 19.3479 16.515 19.3192 16.7543 19.2649V20.2572H17.7256V18.8757C17.8786 18.7842 18.0237 18.6809 18.1596 18.567V19.1825H19.3582V13.0861H18.1596V13.433C18.0237 13.3191 17.8786 13.2158 17.7256 13.1243V11.7842H16.7543V12.7351C16.515 12.6808 16.266 12.6521 16.0103 12.6521C15.7101 12.6521 15.4192 12.6916 15.1424 12.7657V11.7842H14.1711V13.2022C13.2623 13.8008 12.6625 14.8304 12.6625 16C12.6625 17.1696 13.2623 18.1992 14.1711 18.7978V20.2572H15.1424V19.2343C15.4192 19.3084 15.7101 19.3479 16.0103 19.3479ZM16.0103 18.1079C17.1745 18.1079 18.1183 17.1642 18.1183 16C18.1183 14.8358 17.1745 13.8921 16.0103 13.8921C14.8462 13.8921 13.9024 14.8358 13.9024 16C13.9024 17.1642 14.8462 18.1079 16.0103 18.1079Z" fill="white"/>
<path fill-rule="evenodd" clip-rule="evenodd" d="M24.504 16C24.504 15.2045 24.3936 14.4348 24.1872 13.7054C24.6822 13.3157 25 12.711 25 12.0321C25 10.8566 24.047 9.90356 22.8714 9.90356C22.5818 9.90356 22.3057 9.96139 22.0541 10.0661C20.5309 8.53603 18.4226 7.58897 16.093 7.58897C11.4477 7.58897 7.68197 11.3547 7.68197 16C7.68197 16.7614 7.78316 17.4993 7.97281 18.2007C7.38736 18.58 7 19.239 7 19.9885C7 21.1641 7.953 22.1171 9.12859 22.1171C9.47367 22.1171 9.79957 22.035 10.0878 21.8892C11.6142 23.4455 13.7409 24.411 16.093 24.411C20.7383 24.411 24.504 20.6453 24.504 16ZM16.093 23.4811C20.2247 23.4811 23.5741 20.1317 23.5741 16C23.5741 15.3472 23.4905 14.714 23.3334 14.1105C23.1846 14.1434 23.0301 14.1607 22.8714 14.1607C21.6958 14.1607 20.7428 13.2077 20.7428 12.0321C20.7428 11.4872 20.9476 10.99 21.2845 10.6135C19.9392 9.31655 18.1092 8.51894 16.093 8.51894C11.9613 8.51894 8.61194 11.8683 8.61194 16C8.61194 16.6486 8.69448 17.2779 8.84963 17.878C8.94092 17.8661 9.03404 17.8599 9.12859 17.8599C10.3042 17.8599 11.2572 18.8129 11.2572 19.9885C11.2572 20.4812 11.0898 20.9348 10.8087 21.2956C12.1621 22.646 14.03 23.4811 16.093 23.4811ZM22.8714 10.6475C22.7795 10.6475 22.6897 10.6565 22.6029 10.6735C22.2797 10.7371 21.9969 10.913 21.7968 11.159C21.603 11.3972 21.4868 11.7011 21.4868 12.0321C21.4868 12.7968 22.1067 13.4168 22.8714 13.4168C22.9523 13.4168 23.0315 13.4098 23.1086 13.3965C23.434 13.3403 23.7206 13.1706 23.9259 12.9295C24.1318 12.6878 24.256 12.3745 24.256 12.0321C24.256 11.2674 23.6361 10.6475 22.8714 10.6475ZM10.2975 20.731C10.4341 20.5164 10.5132 20.2617 10.5132 19.9885C10.5132 19.2238 9.89329 18.6039 9.12859 18.6039C9.11915 18.6039 9.10973 18.604 9.10033 18.6042C9.09284 18.6043 9.08536 18.6045 9.0779 18.6048C8.74703 18.6167 8.44575 18.7447 8.21358 18.9493C7.92563 19.203 7.74397 19.5746 7.74397 19.9885C7.74397 20.7532 8.36389 21.3731 9.12859 21.3731C9.28076 21.3731 9.42721 21.3486 9.56417 21.3032C9.86959 21.2021 10.1279 20.9975 10.2975 20.731Z" fill="white"/>
</svg>
