<svg width="32" height="32" viewBox="0 0 32 32" fill="none" xmlns="http://www.w3.org/2000/svg">
<circle cx="16" cy="16" r="16" fill="#047DFE"/>
<path d="M15.9972 25C15.9965 24.8744 15.9956 24.7488 15.9948 24.6232V24.623C15.9926 24.3091 15.9905 23.9954 15.9905 23.6818C15.9905 21.226 15.992 18.7702 15.9951 16.3144C15.9951 16.0959 15.924 15.9795 15.7385 15.8707C13.2894 14.4636 10.842 13.0534 8.39619 11.6402C8.23544 11.5477 8.20196 11.4728 8.33005 11.3238C8.46804 11.1672 8.63203 11.0356 8.81479 10.9349C10.9413 9.70698 13.0674 8.47907 15.1931 7.25116C15.381 7.14468 15.5806 7.0604 15.7879 7H16.2484C16.7455 7.1856 17.1957 7.45769 17.6458 7.72972C17.8931 7.87919 18.1404 8.02864 18.3954 8.16372C18.466 8.20121 18.5347 8.2421 18.6033 8.28296L18.6034 8.28299C18.6666 8.32061 18.7297 8.35821 18.7943 8.39312C18.9115 8.45632 18.894 8.50237 18.7901 8.56056C18.3844 8.79219 17.9797 9.02633 17.5762 9.26298C17.4678 9.32661 17.3765 9.28768 17.2832 9.23325C17.1943 9.18179 17.1048 9.13139 17.0152 9.081L17.0151 9.08092C16.825 8.97395 16.6349 8.86698 16.4514 8.74977C16.1517 8.55763 15.8654 8.57061 15.5673 8.74432C14.3547 9.44758 13.1408 10.1486 11.9254 10.8474C11.8923 10.8665 11.859 10.8856 11.8258 10.9047L11.8257 10.9047C11.6711 10.9934 11.5163 11.0822 11.3658 11.1756C11.1297 11.3208 11.1318 11.4925 11.3725 11.6319C12.2775 12.1565 13.1832 12.6798 14.0896 13.2016C14.3297 13.3403 14.5696 13.4792 14.8095 13.618C15.6442 14.1009 16.4787 14.5838 17.3162 15.0611C17.4619 15.1448 17.4694 15.2557 17.4694 15.393V22.0271C17.4694 22.5294 17.5829 22.6014 18.0136 22.3532C19.3867 21.5651 20.758 20.774 22.1277 19.9801C22.4027 19.8214 22.5136 19.5686 22.5174 19.2626C22.5212 18.9277 22.5224 18.5928 22.5174 18.258C22.5124 18.2027 22.5245 18.1473 22.5521 18.0991C22.5796 18.051 22.6213 18.0125 22.6714 17.9888C23.0545 17.7728 23.4337 17.5518 23.8126 17.3287C23.9331 17.2579 23.993 17.2755 23.993 17.4245C23.993 17.6554 23.9943 17.8863 23.9955 18.1172V18.1173C23.9988 18.7097 24.0021 19.3022 23.9838 19.8943C23.9683 20.4029 23.6962 20.7855 23.252 21.0417C21.8263 21.8641 20.4011 22.6873 18.9764 23.5114C18.2508 23.93 17.5262 24.3486 16.8026 24.7673C16.638 24.8578 16.4667 24.9356 16.2902 25H15.9972Z" fill="white"/>
<path d="M8.76761 12.6374C8.85361 12.6903 8.93956 12.7432 9.02661 12.7939C9.12565 12.8521 9.20478 12.8943 9.26795 12.9281C9.38631 12.9913 9.44857 13.0245 9.48063 13.0764C9.51621 13.134 9.51458 13.2146 9.51116 13.3847C9.50983 13.4503 9.50824 13.5292 9.50842 13.6253C9.51219 15.5019 9.5147 17.3785 9.50549 19.2551C9.50549 19.6193 9.65158 19.8558 9.96093 20.0333C10.8798 20.5607 11.7971 21.0899 12.7142 21.619L12.7147 21.6192C13.5188 22.0831 14.3228 22.5469 15.1278 23.0095C15.2454 23.0774 15.2952 23.1556 15.2952 23.2917C15.2888 23.724 15.2888 24.1565 15.2952 24.5893C15.2977 24.7748 15.24 24.789 15.0905 24.7024C13.9324 24.0304 12.7727 23.3606 11.6115 22.6931C11.3202 22.5249 11.0294 22.3557 10.7387 22.1866L10.7371 22.1856C10.1063 21.8186 9.4754 21.4515 8.83823 21.0944C8.37065 20.8324 8.0814 20.4694 8.02865 19.9299C8.02263 19.9027 8.01364 19.8763 8.00186 19.8512V12.2326C8.27514 12.3343 8.52155 12.4859 8.76761 12.6374Z" fill="white"/>
<path d="M23.9937 14.7662C23.9942 14.5807 23.9947 14.3952 23.9947 14.2096C23.9947 14.0231 23.9945 13.8366 23.9943 13.6499C23.9939 13.2017 23.9934 12.7529 23.9955 12.3025C23.9972 11.7005 23.7514 11.2459 23.2211 10.9424C22.071 10.2827 20.9239 9.62005 19.7797 8.95447C19.67 8.89126 19.5834 8.88833 19.4725 8.95447C19.2424 9.0926 19.0097 9.22624 18.777 9.35989C18.6408 9.43807 18.5047 9.51625 18.369 9.59535C18.354 9.60436 18.3363 9.61186 18.3184 9.61946C18.2682 9.64082 18.2162 9.66288 18.2162 9.72093C18.2166 9.78778 18.2748 9.81406 18.3305 9.83917C18.3476 9.84693 18.3646 9.85457 18.3795 9.86326C19.4726 10.4942 20.5652 11.1258 21.6572 11.7579C21.7869 11.826 21.9094 11.9072 22.0226 12.0002C22.3885 12.3255 22.5212 12.7441 22.5212 13.218V17.0273C22.5212 17.2625 22.55 17.2776 22.7543 17.1591C22.8673 17.0938 22.9799 17.0277 23.0925 16.9617C23.3228 16.8266 23.553 16.6915 23.7866 16.563C23.9394 16.4789 24.0005 16.3742 23.998 16.1972C23.9914 15.7203 23.9926 15.2433 23.9937 14.7662Z" fill="white"/>
</svg>
