<svg width="32" height="32" viewBox="0 0 32 32" fill="none" xmlns="http://www.w3.org/2000/svg">
<circle cx="16" cy="16" r="16" fill="#0099E5"/>
<path d="M9.82293 20.307C10.3805 20.542 10.9796 20.6626 11.5846 20.6619V20.669C12.1899 20.6698 12.7892 20.5492 13.347 20.3142C13.9048 20.0793 14.4099 19.7348 14.8322 19.3012L14.9856 19.1449L14.1368 18.2846L13.9834 18.4409C13.6711 18.7608 13.298 19.015 12.8861 19.1885C12.4741 19.3621 12.0317 19.4515 11.5846 19.4515C11.1376 19.4515 10.6951 19.3621 10.2832 19.1885C9.87124 19.015 9.49817 18.7608 9.18591 18.4409C8.54883 17.7866 8.19234 16.9095 8.19234 15.9963C8.19234 15.0831 8.54883 14.206 9.18591 13.5517C9.49817 13.2318 9.87124 12.9776 10.2832 12.8041C10.6951 12.6305 11.1376 12.5411 11.5846 12.5411C12.0317 12.5411 12.4741 12.6305 12.8861 12.8041C13.298 12.9776 13.6711 13.2318 13.9834 13.5517L14.1368 13.7065L14.9856 12.8549L14.8322 12.6986C14.4095 12.2657 13.9045 11.9217 13.3469 11.6868C12.7893 11.452 12.1904 11.331 11.5854 11.331C10.9803 11.331 10.3814 11.452 9.82382 11.6868C9.26623 11.9217 8.76124 12.2657 8.33854 12.6986C7.48019 13.5817 7 14.7648 7 15.9963C7 17.2279 7.48019 18.4109 8.33854 19.294C8.76059 19.7276 9.26535 20.072 9.82293 20.307Z" fill="white"/>
<path fill-rule="evenodd" clip-rule="evenodd" d="M18.653 20.3071C19.2108 20.542 19.8101 20.6627 20.4154 20.6619C21.0204 20.6625 21.6194 20.5418 22.177 20.3069C22.7346 20.0719 23.2394 19.7275 23.6615 19.294C24.5198 18.4109 25 17.2279 25 15.9963C25 14.7648 24.5198 13.5817 23.6615 12.6986C23.2388 12.2657 22.7338 11.9217 22.1762 11.6868C21.6186 11.452 21.0197 11.331 20.4146 11.331C19.8096 11.331 19.2107 11.452 18.6531 11.6868C18.0955 11.9217 17.5905 12.2657 17.1678 12.6986L13.926 15.9963L17.1678 19.294C17.5901 19.7276 18.0952 20.0721 18.653 20.3071ZM18.0166 18.4409L15.6122 15.9963L18.0166 13.5517C18.3287 13.2317 18.7016 12.9774 19.1134 12.8037C19.5253 12.6301 19.9677 12.5406 20.4146 12.5406C20.8616 12.5406 21.304 12.6301 21.7159 12.8037C22.1277 12.9774 22.5006 13.2317 22.8127 13.5517C23.4497 14.206 23.8062 15.0831 23.8062 15.9963C23.8062 16.9095 23.4497 17.7866 22.8127 18.4409C22.5006 18.7609 22.1277 19.0152 21.7159 19.1889C21.304 19.3625 20.8616 19.452 20.4146 19.452C19.9677 19.452 19.5253 19.3625 19.1134 19.1889C18.7016 19.0152 18.3287 18.7609 18.0166 18.4409Z" fill="white"/>
</svg>
