<svg width="32" height="32" viewBox="0 0 32 32" fill="none" xmlns="http://www.w3.org/2000/svg">
<circle cx="16" cy="16" r="16" fill="#12BB8E"/>
<path fill-rule="evenodd" clip-rule="evenodd" d="M14.1483 7.00024L16.0005 8.28648L17.8514 7.00024L22.5548 9.69795V12.1881L24.6877 13.4499V18.6118L22.5548 19.8602V22.5263L17.9553 25.0002L15.9911 23.7071L14.0445 24.9878L9.44496 22.5155V19.8513L7.31201 18.6037V13.4455L9.44496 12.1845V9.69609L14.1483 7.00024ZM16.4161 14.6246V9.524L21.0159 12.2453L16.5027 15.1581C16.3574 15.0655 16.1849 15.0118 15.9999 15.0118C15.8167 15.0118 15.6459 15.0644 15.5015 15.1553L10.9839 12.2416L15.5837 9.52225V14.6246H16.4161ZM15.0671 15.8656L10.1826 12.7154L8.14438 13.9203V15.5037H10.5974C10.7557 15.2108 11.0656 15.0118 11.4218 15.0118C11.939 15.0118 12.3583 15.4311 12.3583 15.9482C12.3583 16.4654 11.939 16.8846 11.4218 16.8846C11.043 16.8846 10.7167 16.6597 10.5692 16.3361H8.14438V18.1263L10.2938 19.3835L12.8911 17.6629C12.8828 17.6128 12.8785 17.5614 12.8785 17.5089C12.8785 16.9917 13.2977 16.5725 13.8149 16.5725C14.3321 16.5725 14.7513 16.9917 14.7513 17.5089C14.7513 18.0261 14.3321 18.4453 13.8149 18.4453C13.6576 18.4453 13.5094 18.4065 13.3792 18.338L11.0943 19.8517L15.5837 22.4776V17.3765H16.4161V22.4883L20.9054 19.8606L18.6139 18.3415C18.4853 18.4079 18.3395 18.4453 18.1848 18.4453C17.6677 18.4453 17.2484 18.0261 17.2484 17.5089C17.2484 16.9917 17.6677 16.5725 18.1848 16.5725C18.702 16.5725 19.1213 16.9917 19.1213 17.5089C19.1213 17.5637 19.1166 17.6174 19.1075 17.6696L21.7059 19.3921L23.8554 18.134V16.3426H21.4275C21.2786 16.6627 20.9542 16.8846 20.5779 16.8846C20.0607 16.8846 19.6415 16.4654 19.6415 15.9482C19.6415 15.4311 20.0607 15.0118 20.5779 15.0118C20.9366 15.0118 21.2482 15.2135 21.4054 15.5096H23.8554V13.9251L21.8172 12.7193L16.9332 15.8714C16.9353 15.8967 16.9363 15.9223 16.9363 15.9482C16.9363 16.4654 16.5171 16.8846 15.9999 16.8846C15.4827 16.8846 15.0635 16.4654 15.0635 15.9482C15.0635 15.9204 15.0647 15.8928 15.0671 15.8656ZM10.2773 11.6924V10.1784L14.1058 7.98406L15.2297 8.76458L10.2773 11.6924ZM10.2773 20.3381V22.0179L14.0015 24.0197L15.2111 23.2239L10.2773 20.3381ZM21.7224 11.6956V10.1806L17.894 7.98475L16.7701 8.7658L21.7224 11.6956ZM21.7224 20.3474V22.0283L17.9982 24.0315L16.7887 23.2352L21.7224 20.3474Z" fill="white"/>
</svg>
