<svg width="32" height="32" viewBox="0 0 32 32" fill="none" xmlns="http://www.w3.org/2000/svg">
<circle cx="16" cy="16" r="16" fill="#FFBC38"/>
<path d="M24.7864 18.2479C24.762 17.629 24.4975 17.0438 24.049 16.6166C23.7647 16.3459 23.4179 16.1498 23.0394 16.0456C22.6609 15.9415 22.2625 15.9325 21.8798 16.0195C21.497 16.1065 21.1416 16.2867 20.8454 16.5443C20.5491 16.8018 20.3211 17.1286 20.1816 17.4955C20.1597 17.5544 20.1359 17.6124 20.1113 17.6713H20.1175L20.1078 17.6801C20.1078 17.6801 20.0551 18.0255 19.6578 20.5095C19.6174 20.7645 19.5587 21.0162 19.482 21.2627C18.3385 21.328 17.1937 21.1606 16.1167 20.7709C15.0397 20.3811 14.0529 19.777 13.216 18.995L12.2069 20.0041L13.2116 18.9994C12.6185 18.4067 12.2146 17.6513 12.051 16.8289C11.8874 16.0066 11.9715 15.1541 12.2925 14.3796C12.6136 13.605 13.1573 12.943 13.8547 12.4776C14.5522 12.0121 15.372 11.7641 16.2105 11.7648C16.5632 11.7645 16.9145 11.8079 17.2565 11.894C17.5855 11.9772 17.9031 12.1003 18.2023 12.2605C18.7962 12.5786 19.3066 13.0325 19.6921 13.5851C19.871 13.8417 20.0987 14.0605 20.3622 14.2291C20.6256 14.3977 20.9198 14.5127 21.2277 14.5677C21.5356 14.6226 21.8514 14.6163 22.1569 14.5492C22.4624 14.4821 22.7518 14.3555 23.0084 14.1766C23.265 13.9977 23.4838 13.77 23.6523 13.5065C23.8209 13.2431 23.936 12.9489 23.9909 12.641C24.0458 12.3331 24.0396 12.0173 23.9725 11.7118C23.9054 11.4063 23.7788 11.1169 23.5999 10.8604C22.7715 9.66775 21.6666 8.6936 20.3795 8.02131C19.0925 7.34901 17.6617 6.99859 16.2097 7C13.8417 7.00134 11.5696 7.93574 9.88576 9.60072C8.20195 11.2657 7.24205 13.5271 7.21407 15.8949C7.18609 18.2628 8.09227 20.5463 9.73628 22.2506C11.3803 23.9549 13.6297 24.9427 15.997 25C18.6057 24.8726 19.889 23.838 20.5455 22.5855C21.4797 22.4633 22.3599 22.078 23.0835 21.4747C23.8072 20.8714 24.3444 20.0748 24.6326 19.1778C24.738 18.8793 24.79 18.5645 24.7864 18.2479ZM13.2626 22.9793C12.1804 22.5223 11.2193 21.8198 10.4553 20.9275C9.69132 20.0351 9.14537 18.9773 8.86057 17.8376C8.57578 16.6979 8.55995 15.5076 8.81435 14.3608C9.06876 13.2139 9.58642 12.142 10.3264 11.2296C11.0664 10.3172 12.0085 9.5895 13.0782 9.1039C14.1478 8.61829 15.3157 8.38815 16.4897 8.43162C17.6636 8.47509 18.8113 8.79099 19.8421 9.35438C20.873 9.91776 21.7586 10.7132 22.4291 11.6778C22.5049 11.7802 22.5594 11.8967 22.5893 12.0206C22.6193 12.1444 22.6241 12.273 22.6035 12.3987C22.5829 12.5245 22.5372 12.6448 22.4693 12.7526C22.4014 12.8603 22.3125 12.9534 22.208 13.0263C22.1035 13.0991 21.9854 13.1502 21.8607 13.1766C21.7361 13.203 21.6074 13.2042 21.4823 13.18C21.3572 13.1558 21.2383 13.1068 21.1325 13.0358C21.0267 12.9648 20.9362 12.8733 20.8664 12.7668C20.3514 12.0291 19.67 11.4229 18.8773 10.9974C18.4762 10.7833 18.0506 10.6186 17.6098 10.507C16.406 10.2 15.1347 10.2969 13.9913 10.783C12.848 11.269 11.896 12.1172 11.2818 13.1972C10.6676 14.2771 10.4252 15.5289 10.5919 16.76C10.7585 17.9911 11.3251 19.1334 12.2043 20.0111C13.7979 21.4764 15.8088 22.4083 17.957 22.677C18.1768 22.7086 18.3965 22.7297 18.6013 22.7411C17.8715 23.3417 16.94 23.641 15.997 23.5779C15.0553 23.5499 14.1272 23.3457 13.2608 22.9758L13.2626 22.9793ZM21.4746 18.1081C21.4886 18.0739 21.5018 18.0387 21.5159 18.0044C21.6073 17.771 21.787 17.583 22.0161 17.4812C22.2452 17.3794 22.5052 17.3719 22.7398 17.4605C22.9743 17.5491 23.1645 17.7265 23.269 17.9544C23.3736 18.1822 23.3841 18.4421 23.2984 18.6777C23.1468 19.198 22.867 19.6718 22.4846 20.0557C22.1022 20.4397 21.6294 20.7214 21.1098 20.8751C21.3164 19.7421 21.2891 18.6707 21.4728 18.1038L21.4746 18.1081Z" fill="white"/>
</svg>
