<svg width="32" height="32" viewBox="0 0 32 32" fill="none" xmlns="http://www.w3.org/2000/svg">
<circle cx="16" cy="16" r="16" fill="#0C061F"/>
<path d="M16 16.96C16.5302 16.96 16.96 16.5302 16.96 16C16.96 15.4698 16.5302 15.04 16 15.04C15.4698 15.04 15.04 15.4698 15.04 16C15.04 16.5302 15.4698 16.96 16 16.96Z" fill="white"/>
<path fill-rule="evenodd" clip-rule="evenodd" d="M25 16C25 20.9706 20.9706 25 16 25C11.0294 25 7 20.9706 7 16C7 11.0294 11.0294 7 16 7C20.9706 7 25 11.0294 25 16ZM23.68 16C23.68 20.2415 20.2415 23.68 16 23.68C11.7585 23.68 8.32 20.2415 8.32 16C8.32 11.7585 11.7585 8.32 16 8.32C20.2415 8.32 23.68 11.7585 23.68 16Z" fill="white"/>
</svg>
