<svg width="32" height="32" viewBox="0 0 32 32" fill="none" xmlns="http://www.w3.org/2000/svg">
<circle cx="16" cy="16" r="16" fill="#13BF99"/>
<path fill-rule="evenodd" clip-rule="evenodd" d="M16 24.1H20.0824L18.0376 20.5387H13.9624L11.9176 24.1H16ZM13.9633 11.4604H18.0376L20.0824 7.90002H11.9176L13.9624 11.4613L13.9633 11.4604ZM22.9624 20.0455L25 16.4842H20.9176L18.8791 20.0455H18.88L20.9167 23.6077L22.9624 20.0455ZM9.0376 11.9464L7 15.5077H11.0824L13.12 11.9464L11.0824 8.38512L9.0376 11.9464ZM13.12 20.0464L11.0824 16.4842H7L9.0376 20.0455L11.0824 23.6077L13.12 20.0464ZM22.9624 11.9464L20.9167 8.38512L18.8791 11.9464L20.9167 15.5077H25L22.9624 11.9464Z" fill="white"/>
</svg>
