<svg width="32" height="32" viewBox="0 0 32 32" fill="none" xmlns="http://www.w3.org/2000/svg">
<circle cx="16" cy="16" r="16" fill="#54078E"/>
<path d="M15.9556 21.9091C18.1428 21.9091 20.0525 20.7208 21.0742 18.9545H25.512C24.2518 23.0351 20.45 26 15.9556 26C11.4613 26 7.65941 23.0351 6.39927 18.9545H10.8371C11.8588 20.7208 13.7684 21.9091 15.9556 21.9091Z" fill="white"/>
<path d="M10.116 16.9091C10.0703 16.6127 10.0465 16.3091 10.0465 16C10.0465 15.6908 10.0703 15.3872 10.116 15.0909H5.9964C5.96941 15.3903 5.95563 15.6936 5.95563 16C5.95563 16.3064 5.96941 16.6097 5.99639 16.9091H10.116Z" fill="white"/>
<path d="M15.9556 10.0909C13.7684 10.0909 11.8588 11.2792 10.8371 13.0454H6.39928C7.65943 8.96489 11.4613 6 15.9556 6C20.45 6 24.2518 8.96489 25.512 13.0454H21.0742C20.0525 11.2792 18.1428 10.0909 15.9556 10.0909Z" fill="white"/>
<path d="M15.9556 18.0454C17.0853 18.0454 18.0011 17.1297 18.0011 16C18.0011 14.8703 17.0853 13.9545 15.9556 13.9545C15.1525 13.9545 14.4575 14.4174 14.1228 15.0909H12.4338C12.8375 13.5225 14.2612 12.3636 15.9556 12.3636C17.9639 12.3636 19.592 13.9917 19.592 16C19.592 18.0083 17.9639 19.6364 15.9556 19.6364C14.2612 19.6364 12.8375 18.4775 12.4338 16.9091H14.1228C14.4575 17.5826 15.1525 18.0454 15.9556 18.0454Z" fill="white"/>
</svg>
