<svg width="32" height="32" viewBox="0 0 32 32" fill="none" xmlns="http://www.w3.org/2000/svg">
<circle cx="16" cy="16" r="16" fill="black"/>
<path d="M11.2735 9.77244C12.4525 8.78472 13.8891 8.15425 15.4142 7.9552C15.5798 7.93167 15.7492 7.91474 15.9186 7.90532C16.2005 7.88565 16.4832 7.88125 16.7656 7.89215C16.9312 7.89874 17.1006 7.90815 17.2691 7.92509C18.8278 8.07418 20.3095 8.67317 21.534 9.64916C21.6259 9.72254 21.7431 9.75642 21.8599 9.74336C21.9768 9.7303 22.0836 9.67137 22.157 9.57952C22.2304 9.48767 22.2643 9.37043 22.2512 9.25359C22.2381 9.13676 22.1792 9.0299 22.0874 8.95652C20.7268 7.87223 19.0801 7.20745 17.3481 7.04329C17.1599 7.02635 16.9717 7.01318 16.791 7.00659C16.6846 7 16.5792 7 16.4757 7C16.2668 7 16.0579 7.00659 15.8527 7.01976C15.6645 7.03294 15.482 7.04988 15.2956 7.07623C13.6044 7.29835 12.0115 7.99756 10.7032 9.09203C10.6224 9.16961 10.5739 9.2749 10.5676 9.38673C10.5613 9.49857 10.5975 9.60865 10.6691 9.69484C10.7406 9.78104 10.8421 9.83696 10.9532 9.85135C11.0643 9.86575 11.1767 9.83755 11.2678 9.77244H11.2735Z" fill="white"/>
<path d="M21.0145 9.99733C21.1698 10.1103 21.3128 10.2326 21.4521 10.3559C21.6885 10.5648 21.9114 10.7886 22.1193 11.0259C22.1631 11.0682 22.1978 11.1191 22.221 11.1754C22.2442 11.2316 22.2555 11.2921 22.2542 11.353C22.2529 11.4139 22.2391 11.4738 22.2135 11.5291C22.1879 11.5843 22.1512 11.6337 22.1056 11.6741C22.06 11.7144 22.0066 11.7449 21.9486 11.7636C21.8907 11.7824 21.8295 11.7889 21.7689 11.7828C21.7084 11.7767 21.6497 11.7582 21.5966 11.7284C21.5435 11.6985 21.4972 11.658 21.4606 11.6094C21.2775 11.4014 21.0813 11.2052 20.8733 11.0222C20.7538 10.9168 20.6249 10.8104 20.4884 10.7078C19.5478 9.99271 18.4323 9.54351 17.2586 9.40727C17.1425 9.39288 17.0367 9.33338 16.9642 9.24163C16.8916 9.14987 16.8581 9.03325 16.8708 8.91697C16.8825 8.80916 16.9336 8.70948 17.0144 8.63718C17.0953 8.56488 17.2 8.52509 17.3084 8.52548H17.3583C18.6863 8.68203 19.9484 9.19012 21.0145 9.99733Z" fill="white"/>
<path d="M9.39016 15.6146C9.50659 15.6276 9.62346 15.5942 9.71542 15.5217C9.80738 15.4491 9.86702 15.3432 9.88141 15.2269C10.0115 14.1207 10.4172 13.0648 11.0615 12.1562C11.1556 12.0206 11.2638 11.8842 11.3664 11.7581C11.5431 11.5444 11.7339 11.3429 11.9377 11.1549C12.06 11.0419 12.1861 10.929 12.3141 10.8264C13.2131 10.1031 14.2856 9.62745 15.4253 9.4468C15.4829 9.43778 15.5383 9.41749 15.5881 9.38709C15.6379 9.3567 15.6812 9.31679 15.7156 9.26964C15.75 9.22249 15.7748 9.16904 15.7885 9.11232C15.8022 9.05561 15.8046 8.99674 15.7956 8.93909C15.7866 8.88144 15.7663 8.82613 15.7359 8.77632C15.7055 8.7265 15.6656 8.68317 15.6184 8.64878C15.5713 8.61439 15.5178 8.58963 15.4611 8.5759C15.4044 8.56218 15.3455 8.55975 15.2879 8.56878C13.9957 8.77446 12.78 9.31501 11.7617 10.1366C11.6134 10.2556 11.4705 10.3812 11.3335 10.513C11.1037 10.7278 10.8878 10.957 10.687 11.1991C10.5675 11.3421 10.4517 11.4946 10.3425 11.647C9.60983 12.6764 9.14888 13.8741 9.00244 15.129C8.99099 15.2445 9.02512 15.36 9.09755 15.4507C9.16998 15.5414 9.27498 15.6002 9.39016 15.6146Z" fill="white"/>
<path d="M14.189 16.1149C14.2689 16.0345 14.3773 15.989 14.4907 15.9882C14.5473 15.9879 14.6034 15.9987 14.6558 16.0201C14.7082 16.0415 14.7558 16.073 14.796 16.1129C14.8361 16.1528 14.868 16.2002 14.8897 16.2525C14.9115 16.3047 14.9227 16.3608 14.9227 16.4174V17.4761C14.9227 17.5899 14.8774 17.699 14.797 17.7795C14.7165 17.86 14.6073 17.9052 14.4935 17.9052C14.3797 17.9052 14.2705 17.86 14.19 17.7795C14.1096 17.699 14.0643 17.5899 14.0643 17.4761V16.4174C14.0643 16.304 14.1092 16.1953 14.189 16.1149Z" fill="white"/>
<path d="M16.1349 14.6623C16.0786 14.6627 16.023 14.6742 15.9712 14.696C15.9194 14.7179 15.8724 14.7497 15.8329 14.7898C15.7934 14.8298 15.7622 14.8772 15.741 14.9293C15.7198 14.9814 15.7091 15.0371 15.7095 15.0934V17.479C15.7147 17.5892 15.7621 17.6932 15.8419 17.7694C15.9217 17.8456 16.0278 17.8881 16.1382 17.8881C16.2485 17.8881 16.3546 17.8456 16.4344 17.7694C16.5142 17.6932 16.5617 17.5892 16.5668 17.479V15.0934C16.5671 15.0366 16.5561 14.9804 16.5344 14.9279C16.5128 14.8754 16.481 14.8278 16.4408 14.7877C16.4006 14.7476 16.3529 14.7159 16.3004 14.6944C16.2479 14.6729 16.1916 14.662 16.1349 14.6623Z" fill="white"/>
<path d="M17.621 13.0564C17.6731 13.0344 17.729 13.023 17.7855 13.0228C17.8422 13.0227 17.8985 13.0338 17.9509 13.0555C18.0033 13.0773 18.0509 13.1092 18.0909 13.1495C18.1309 13.1897 18.1625 13.2375 18.1839 13.2901C18.2053 13.3427 18.2161 13.399 18.2156 13.4557V17.4761C18.2104 17.5863 18.163 17.6903 18.0832 17.7665C18.0033 17.8427 17.8972 17.8852 17.7869 17.8852C17.6766 17.8852 17.5705 17.8427 17.4906 17.7665C17.4108 17.6903 17.3634 17.5863 17.3582 17.4761V13.4557C17.3577 13.3992 17.3684 13.3431 17.3896 13.2908C17.4109 13.2384 17.4422 13.1907 17.4819 13.1505C17.5216 13.1103 17.5689 13.0783 17.621 13.0564Z" fill="white"/>
<path fill-rule="evenodd" clip-rule="evenodd" d="M22.4637 15.1073C22.3255 14.1794 21.9734 13.2963 21.4351 12.5278C21.3247 12.3704 21.2063 12.2187 21.0804 12.0733C20.8729 11.8307 20.647 11.6045 20.4047 11.3967C20.2593 11.2723 20.1075 11.1554 19.9501 11.0466C19.1815 10.5087 18.2985 10.1566 17.3706 10.018C17.1802 9.9908 16.9887 9.97196 16.7966 9.96153C16.6874 9.95494 16.5782 9.95212 16.4747 9.95212C16.2622 9.95119 16.0498 9.96218 15.8386 9.98505C15.6503 10.0048 15.4621 10.0349 15.2683 10.0716C14.3807 10.2545 13.5449 10.6326 12.8215 11.1783C12.6694 11.2948 12.5224 11.4179 12.381 11.5472C12.1472 11.7638 11.9298 11.9975 11.7308 12.2465C11.615 12.3961 11.4993 12.5514 11.3929 12.717C10.9226 13.4392 10.6141 14.2547 10.4885 15.1073C10.4622 15.2956 10.4424 15.4838 10.433 15.6805C10.4255 15.7868 10.4255 15.896 10.4255 15.9995C10.4249 16.212 10.4362 16.4244 10.4594 16.6357C10.4791 16.8239 10.5092 17.0121 10.545 17.2059C10.7102 18.0182 11.0422 18.7872 11.52 19.4645C11.6329 19.6236 11.7486 19.776 11.8747 19.9219C12.0826 20.1645 12.3088 20.3907 12.5514 20.5985C12.6944 20.7218 12.8497 20.8404 13.0059 20.9505C13.6832 21.4283 14.4523 21.7603 15.2645 21.9254C15.6631 22.0039 16.0684 22.0436 16.4747 22.044C16.5773 22.044 16.6865 22.044 16.7928 22.0374C16.981 22.028 17.1777 22.0083 17.3669 21.9819C18.2192 21.8561 19.0344 21.5483 19.7572 21.0794C19.92 20.9731 20.0791 20.8611 20.2277 20.7416C20.4776 20.5433 20.7117 20.3258 20.9279 20.0913C21.0568 19.9492 21.1829 19.8033 21.2959 19.6509C21.8421 18.9276 22.2205 18.0918 22.4035 17.2041C22.442 17.0143 22.4706 16.8227 22.4892 16.63C22.5123 16.4187 22.5237 16.2064 22.523 15.9938C22.523 15.8903 22.523 15.7849 22.5164 15.6748C22.5099 15.4885 22.4901 15.2965 22.4637 15.1073ZM21.6083 16.5425C21.5907 16.7074 21.5653 16.8713 21.5321 17.0337C21.3779 17.7904 21.0563 18.5029 20.591 19.1192C20.4916 19.2491 20.3868 19.3746 20.2767 19.4956C20.0922 19.6953 19.8924 19.8803 19.6791 20.0489C19.5502 20.1529 19.4154 20.2494 19.2754 20.3378C18.6586 20.7374 17.9631 20.9996 17.2361 21.1067C17.077 21.1302 16.9104 21.1472 16.7486 21.1566H16.4794C16.2977 21.1565 16.1161 21.1464 15.9355 21.1265C15.7736 21.1095 15.608 21.0832 15.4452 21.0502C14.7518 20.9089 14.0949 20.6267 13.515 20.2212C13.3795 20.127 13.2497 20.0254 13.1273 19.9191C12.9203 19.7421 12.7274 19.5492 12.5504 19.3422C12.4441 19.2198 12.3453 19.0872 12.2483 18.9545C11.8413 18.3755 11.5589 17.7182 11.4193 17.0243C11.3863 16.8653 11.3637 16.6996 11.3468 16.5368C11.3268 16.3565 11.3168 16.1753 11.3167 15.9938C11.3167 15.8997 11.3167 15.8141 11.3233 15.7219C11.3336 15.5562 11.3496 15.3934 11.3731 15.2344C11.4805 14.5073 11.743 13.8118 12.1429 13.1951C12.2324 13.0558 12.3312 12.9193 12.4309 12.7932C12.6009 12.5794 12.7872 12.379 12.988 12.1938C13.1076 12.0837 13.2337 11.9783 13.3645 11.8785C13.9801 11.4121 14.6929 11.0905 15.4499 10.9374C15.6127 10.9045 15.7755 10.881 15.9374 10.864C16.118 10.8444 16.2996 10.8347 16.4813 10.8348C16.5754 10.8348 16.6611 10.8348 16.7533 10.8414C16.9189 10.8508 17.0817 10.8678 17.2408 10.8904C18.0329 11.009 18.7867 11.3099 19.4429 11.7693C19.5772 11.8634 19.7066 11.9642 19.8306 12.0714C20.0351 12.2483 20.2257 12.4405 20.4009 12.6464C20.5072 12.7725 20.6098 12.9015 20.703 13.0341C21.1624 13.6903 21.4633 14.4441 21.582 15.2363C21.6045 15.3953 21.6215 15.5609 21.6309 15.7237C21.6309 15.7713 21.6326 15.8171 21.6342 15.8625C21.6359 15.907 21.6375 15.951 21.6375 15.9957C21.6378 16.1784 21.6281 16.3609 21.6083 16.5425Z" fill="white"/>
<path d="M11.4954 21.6394C11.6347 21.7627 11.7843 21.885 11.933 21.998C12.9154 22.7416 14.0656 23.2322 15.2823 23.4265C15.3969 23.4418 15.5129 23.4117 15.6057 23.3427C15.6984 23.2736 15.7605 23.171 15.7787 23.0568C15.7968 22.9426 15.7697 22.8259 15.7029 22.7314C15.6362 22.637 15.5353 22.5724 15.4216 22.5513C14.3476 22.3798 13.3322 21.9471 12.4647 21.2912C12.332 21.1924 12.1993 21.0861 12.0798 20.9769C11.872 20.7936 11.6759 20.5975 11.4926 20.3897C11.3815 20.2654 11.2763 20.136 11.1773 20.0019C10.5232 19.1348 10.0927 18.1199 9.92378 17.047C9.90099 16.9343 9.83545 16.8349 9.74093 16.7696C9.6464 16.7043 9.53024 16.6781 9.41684 16.6967C9.30344 16.7152 9.20162 16.7769 9.13278 16.8689C9.06393 16.9609 9.03342 17.076 9.04763 17.19C9.24288 18.4066 9.73373 19.5567 10.4771 20.5393C10.5901 20.6918 10.7124 20.8376 10.8357 20.9769C11.0422 21.2106 11.2625 21.4319 11.4954 21.6394Z" fill="white"/>
<path d="M21.4715 20.4323C21.5274 20.4083 21.5877 20.3961 21.6486 20.3963C21.7608 20.3952 21.8695 20.4351 21.9545 20.5083C22.0398 20.589 22.0898 20.7002 22.0935 20.8176C22.0972 20.935 22.0543 21.0491 21.9743 21.135C21.7612 21.3655 21.5329 21.5815 21.291 21.7816C21.148 21.9011 20.9955 22.0169 20.8403 22.1298C19.8108 22.8621 18.6131 23.3227 17.3583 23.469C17.298 23.4822 17.2356 23.4827 17.1751 23.4703C17.1146 23.458 17.0574 23.4331 17.0071 23.3973C16.9568 23.3615 16.9145 23.3156 16.883 23.2625C16.8516 23.2094 16.8316 23.1503 16.8243 23.0889C16.817 23.0276 16.8227 22.9655 16.8409 22.9065C16.8591 22.8475 16.8895 22.793 16.93 22.7464C16.9705 22.6999 17.0204 22.6623 17.0763 22.6362C17.1322 22.6101 17.193 22.5959 17.2548 22.5947C18.3598 22.4638 19.4143 22.0577 20.3217 21.4136C20.4579 21.3156 20.5907 21.213 20.7198 21.1059C20.9317 20.9275 21.1331 20.7371 21.323 20.5356C21.365 20.4914 21.4155 20.4562 21.4715 20.4323Z" fill="white"/>
<path d="M21.3683 22.475C20.1737 23.3786 18.7516 23.9325 17.2605 24.0749C17.0911 24.0918 16.9217 24.1012 16.7561 24.1078C16.4738 24.1181 16.1914 24.1078 15.9176 24.0946C15.7482 24.0852 15.5788 24.0683 15.4132 24.0447C13.9555 23.8526 12.5777 23.267 11.4277 22.3508C11.3516 22.2873 11.2548 22.2539 11.1557 22.2567C11.0891 22.2569 11.0232 22.2718 10.963 22.3004C10.9028 22.3291 10.8497 22.3707 10.8075 22.4223C10.7346 22.5144 10.701 22.6315 10.7141 22.7482C10.7271 22.8649 10.7858 22.9717 10.8772 23.0453C12.1522 24.0636 13.682 24.7126 15.3002 24.9218C15.4885 24.9453 15.671 24.9651 15.8574 24.9783C16.1662 24.9996 16.4759 25.0052 16.7853 24.9952C16.9735 24.9886 17.1617 24.9754 17.3424 24.9585C18.9971 24.8009 20.5758 24.1875 21.9028 23.1865C21.9928 23.1143 22.051 23.0099 22.0652 22.8954C22.0794 22.7809 22.0485 22.6655 21.9789 22.5735C21.9093 22.4815 21.8066 22.4202 21.6926 22.4027C21.5786 22.3852 21.4623 22.4129 21.3683 22.4798V22.475Z" fill="white"/>
<path d="M8.38231 16.5501C8.39172 16.7185 8.40866 16.8879 8.43218 17.0535C8.62208 18.5122 9.20684 19.8913 10.1233 21.0419C10.1921 21.1343 10.2223 21.2497 10.2076 21.364C10.1928 21.4782 10.1343 21.5822 10.0443 21.6541C9.95435 21.726 9.83997 21.7602 9.72531 21.7494C9.61065 21.7386 9.50467 21.6836 9.42973 21.5962C8.41486 20.3192 7.76623 18.7903 7.55322 17.1731C7.52687 16.9877 7.50993 16.8042 7.49675 16.6159C7.48358 16.4136 7.47699 16.2047 7.47699 15.9958C7.47699 15.8932 7.47699 15.7906 7.48358 15.6871C7.49016 15.5064 7.50334 15.3182 7.52028 15.13C7.6778 13.4769 8.292 11.9001 9.29421 10.5761C9.3361 10.5218 9.38986 10.4779 9.45137 10.4478C9.51287 10.4176 9.58048 10.4019 9.649 10.402C9.74318 10.4034 9.83508 10.4311 9.91438 10.4819C10.004 10.5532 10.0627 10.6564 10.0779 10.7699C10.0932 10.8834 10.0639 10.9984 9.99625 11.0908C9.09203 12.2854 8.53809 13.7081 8.39642 15.1996C8.37948 15.3681 8.36913 15.5375 8.36254 15.7031V15.9854C8.36254 16.1736 8.36913 16.3675 8.38231 16.5501Z" fill="white"/>
</svg>
