<svg width="32" height="32" viewBox="0 0 32 32" fill="none" xmlns="http://www.w3.org/2000/svg">
<circle cx="16" cy="16" r="16" fill="#513A77"/>
<path fill-rule="evenodd" clip-rule="evenodd" d="M17.0939 14.0655C16.7628 13.8788 16.3891 13.7811 16.009 13.7817C14.7944 13.7817 13.8093 14.7593 13.8093 15.9658C13.8093 17.1722 14.7944 18.1502 16.009 18.1502C16.3813 18.1508 16.7477 18.0569 17.0739 17.8773C17.4001 17.6978 17.6754 17.4384 17.874 17.1235C18.0456 17.2836 20.6349 19.6988 20.5835 19.7601C19.6297 20.8913 18.2489 21.6875 16.6945 21.8645C16.6945 22.1086 16.6937 22.3314 16.6931 22.5297C16.6926 22.6886 16.6921 22.8317 16.6921 22.9572C16.6526 22.9583 15.5398 22.9566 15.5398 22.9566C15.5398 22.9566 15.5333 22.2803 15.5466 21.8608C12.4789 21.6224 10.0646 19.075 10.0646 15.9678C10.0646 12.8613 12.4772 10.3146 15.5442 10.0748C15.5442 9.79324 15.5408 9.00154 15.5408 9.00154L16.6945 8.99644L16.6941 10.0786C18.2735 10.255 19.6628 11.0613 20.6203 12.2198C20.653 12.2589 17.9963 14.7549 17.8982 14.8468C17.702 14.5213 17.4249 14.2521 17.0939 14.0655ZM17.8039 18.7348C17.255 19.0946 16.6128 19.2858 15.9566 19.2848C14.1008 19.2848 12.5967 17.7909 12.5967 15.9481C12.5967 14.1052 14.1008 12.6114 15.9566 12.6114C16.664 12.6103 17.3536 12.8327 17.9271 13.2468C18.0133 13.161 18.2639 12.9082 18.4829 12.6874C18.6508 12.518 18.8001 12.3675 18.8421 12.3257C18.0491 11.7015 17.0473 11.3279 15.9566 11.3279C13.3871 11.3279 11.3045 13.3966 11.3045 15.9481C11.3045 18.4995 13.3871 20.5678 15.9566 20.5678C16.9615 20.5695 17.9399 20.2458 18.7454 19.645C18.7075 19.6084 18.6325 19.5363 18.54 19.4474C18.3017 19.2183 17.9473 18.8777 17.8124 18.744C17.8098 18.7417 17.8079 18.7394 17.8059 18.7371C17.8052 18.7364 17.8046 18.7356 17.8039 18.7348Z" fill="white"/>
<path fill-rule="evenodd" clip-rule="evenodd" d="M7 16.0009C7 11.03 11.0297 7.00034 15.9998 7L16.0005 7.00034C20.9714 7.00034 25.0003 11.0293 25 16.0005C25 20.971 20.9707 25.0007 15.9998 25.0007C11.0297 25.0007 7 20.971 7 16.0009ZM8.17001 16.0278C8.17001 20.353 11.6766 23.8589 16.0019 23.8589C20.3271 23.8589 23.8331 20.353 23.8331 16.0278C23.8331 11.7025 20.3271 8.19589 16.0019 8.19589C11.6766 8.19589 8.17001 11.7025 8.17001 16.0278Z" fill="white"/>
</svg>
