<svg width="32" height="32" viewBox="0 0 32 32" fill="none" xmlns="http://www.w3.org/2000/svg">
<circle cx="16" cy="16" r="16" fill="black"/>
<path d="M18.0756 7H20.1411V10.2459L18.0756 10.8361C18.0756 10.3443 17.7215 9.36066 16.3051 9.36066C14.5346 9.36066 14.2395 10.541 14.2395 11.1311V17.3279C14.2395 17.623 14.5346 18.2131 15.7149 17.918C16.6592 17.682 19.0592 17.2295 20.1411 17.0328V19.3934C18.6657 19.6885 15.3018 20.2787 13.6493 20.2787C11.9969 20.2787 11.7805 18.1148 11.8788 17.0328V10.2459C11.8788 8.47541 13.9444 7 16.01 7C17.6624 7 17.8788 7.19672 17.7805 7.29508L18.0756 7Z" fill="white"/>
<path d="M12.469 22.9344V25L20.1411 23.5246V21.459L12.469 22.9344Z" fill="white"/>
</svg>
