<svg width="32" height="32" viewBox="0 0 32 32" fill="none" xmlns="http://www.w3.org/2000/svg">
<circle cx="16" cy="16" r="16" fill="#2992FB"/>
<path fill-rule="evenodd" clip-rule="evenodd" d="M21.1816 10.8815L21.6528 10.4004C20.3405 9.30155 18.7262 8.683 17.0432 8.683C13.2411 8.683 10.1116 11.6718 9.87593 15.5533H10.5485C10.7841 12.0842 13.6109 9.37027 17.0432 9.37027C18.5568 9.37027 20.005 9.88573 21.1816 10.8815ZM20.9459 13.1486L21.418 12.6684C20.9148 11.9793 20.2567 11.4182 19.4968 11.0302C18.7369 10.6422 17.8964 10.4382 17.0432 10.4347C14.0143 10.4347 11.5581 12.9433 11.5581 16C11.5581 19.0911 14.0143 21.5988 17.0432 21.5988C18.7597 21.5988 20.374 20.7741 21.418 19.366L20.9459 18.8849C20.5041 19.5095 19.9194 20.0194 19.2405 20.3721C18.5616 20.7247 17.8082 20.91 17.0432 20.9124C14.3849 20.9124 12.2315 18.7131 12.2315 16C12.2315 13.3205 14.3849 11.122 17.0424 11.122C17.8075 11.124 18.5611 11.309 19.2401 11.6616C19.9192 12.0141 20.5041 12.524 20.9459 13.1486ZM21.7199 11.3969C21.8885 11.5687 22.0227 11.7405 22.1577 11.9124L22.6289 11.4313C22.4939 11.2595 22.3589 11.0876 22.192 10.9158L21.7199 11.3969ZM17.0097 23.3505C18.7016 23.3449 20.3361 22.736 21.6193 21.6332L21.148 21.1529C19.9929 22.134 18.5252 22.6699 17.0097 22.6641C13.5774 22.6641 10.7506 19.9502 10.5149 16.4811H9.84239C10.078 20.3625 13.2076 23.3505 17.0097 23.3505ZM21.7199 20.6375L22.192 21.1185C22.3597 20.9467 22.4947 20.7749 22.6289 20.6031L22.1577 20.122C22.0235 20.2938 21.8885 20.4656 21.7199 20.6375ZM8.90066 16C8.90066 11.4313 12.5677 7.68727 17.0432 7.68727C19.4658 7.68727 21.7535 8.78691 23.3023 10.7105L23.7727 10.2294C22.0906 8.16755 19.6336 7 17.0432 7C12.1979 7 8.22729 11.0189 8.22729 16C8.22729 20.9459 12.1644 25 17.0432 25C19.6679 25 22.0914 23.8316 23.7727 21.7706L23.3015 21.2904C21.7535 23.2483 19.4658 24.3127 17.0424 24.3127C12.5677 24.3127 8.90066 20.5687 8.90066 16Z" fill="white"/>
</svg>
