<svg width="32" height="32" viewBox="0 0 32 32" fill="none" xmlns="http://www.w3.org/2000/svg">
<circle cx="16" cy="16" r="16" fill="black"/>
<path fill-rule="evenodd" clip-rule="evenodd" d="M16.9663 10.7841C17.0162 9.81209 17.3377 7.65373 18.3605 7.65373C18.6305 7.65373 18.8522 7.73064 19.0248 7.88445C18.7794 8.01291 18.6558 8.23055 18.6558 8.539C18.6558 8.99964 19.0428 9.30809 19.4306 9.30809C19.8176 9.30809 20.2046 9.07655 20.2046 8.539C20.2055 7.999 19.69 7 18.4709 7C16.4598 7.03764 15.6727 9.33591 15.6326 10.8414C13.5864 11.1645 11.5 12.6127 11.5 15.9615C11.5 18.9397 13.5037 20.9876 15.6539 21.3329C15.559 23.0495 15.0043 24.3847 14.2663 24.3847C14.0454 24.3847 13.8245 24.3078 13.6027 24.154C13.8236 24.0255 13.9341 23.7948 13.9341 23.4618C13.9341 22.9619 13.5659 22.6927 13.1969 22.6927C12.8279 22.6927 12.4221 22.9235 12.4221 23.4618C12.4221 24.2882 13.1969 25 14.119 25C16.0663 25 16.8517 23.0004 17.0047 21.3403C19.042 21.0858 20.5 19.7996 20.5 19.231C20.5 18.961 20.3159 18.8465 20.1678 18.8465C19.9019 18.8465 18.8775 20.2243 17.0325 20.4935C17.0276 18.7139 16.9769 13.543 16.963 11.6645C17.6552 11.7029 18.2508 11.8878 18.8399 12.769C19.3865 13.5872 19.2825 14.0004 19.6515 14.0004C19.897 14.0004 20.0328 13.8973 20.0574 13.6919C19.9592 13.3933 19.9101 13.1748 19.9101 13.0382C19.9101 12.8336 19.9469 12.4998 19.9469 12.346C19.9469 12.13 18.9733 10.9322 16.9663 10.7841ZM15.6678 20.4288C14.2556 20.0025 13.1233 18.3572 13.1233 15.9615C13.1233 14.4504 13.7451 12.2036 15.6326 11.7397C15.6392 13.8482 15.6645 18.4374 15.6678 20.4288Z" fill="white"/>
</svg>
