<svg width="32" height="32" viewBox="0 0 32 32" fill="none" xmlns="http://www.w3.org/2000/svg">
<circle cx="16" cy="16" r="16" fill="#4C9ED0"/>
<path fill-rule="evenodd" clip-rule="evenodd" d="M20.2604 14.0131C20.4226 14.0121 20.5848 14.023 20.7455 14.0455C21.0409 14.1099 21.1222 14.3765 21.193 14.6086L21.2007 14.6338L21.2063 14.6522C21.2571 14.8373 21.2441 15.0342 21.1694 15.2111C21.1235 15.3265 21.107 15.4538 21.0905 15.5813C21.0775 15.6816 21.0644 15.7821 21.0371 15.8771C20.9941 16.0267 20.9656 16.1801 20.9371 16.3335C20.8837 16.6204 20.8303 16.9074 20.6825 17.1696C20.4728 17.5431 20.2559 17.8959 19.7554 17.8896C19.4217 18.0748 19.1252 17.96 18.8126 17.839L18.8125 17.839C18.7879 17.8295 18.7632 17.8199 18.7384 17.8104C18.6516 17.7806 18.5763 17.7244 18.5231 17.6497C18.4698 17.575 18.4413 17.4855 18.4414 17.3937C18.4013 16.9447 18.4461 16.4922 18.5737 16.0599C18.6192 15.9174 18.6482 15.7669 18.6774 15.6156C18.7099 15.4468 18.7427 15.2771 18.7987 15.1166C18.8161 15.0667 18.8311 15.0157 18.8462 14.9646C18.8938 14.8037 18.9417 14.6414 19.0633 14.5055C19.2102 14.3352 19.3951 14.202 19.6031 14.1164C19.811 14.0309 20.0362 13.9955 20.2604 14.0131ZM20.5007 15.0446C20.4953 14.7746 20.2424 14.4929 20.0426 14.5676C19.8157 14.6576 19.5925 14.7782 19.5115 15.0347C19.4263 15.2933 19.3747 15.5599 19.3231 15.8266C19.2973 15.9599 19.2715 16.0932 19.2415 16.2255C19.2238 16.3046 19.2116 16.385 19.1993 16.4654L19.1993 16.4656C19.1756 16.6219 19.1518 16.7783 19.0876 16.9257C19.0702 16.9634 19.0664 17.0061 19.0768 17.0463C19.2055 17.4675 19.579 17.5674 19.9111 17.2686C20.0474 17.141 20.1328 16.9683 20.1515 16.7826C20.2001 16.4582 20.2794 16.1375 20.3585 15.8179C20.3672 15.7827 20.3759 15.7476 20.3846 15.7124C20.4183 15.5673 20.4412 15.4193 20.4639 15.2723L20.464 15.2718L20.4641 15.2711L20.4642 15.2707C20.4759 15.195 20.4875 15.1194 20.5007 15.0446Z" fill="white"/>
<path d="M17.0373 14.1113H16.3065C16.0319 15.3884 15.7637 16.6314 15.4928 17.8851C15.5187 17.8851 15.5446 17.8853 15.5706 17.8854C15.5981 17.8856 15.6256 17.8859 15.6532 17.8861H15.6538C15.7616 17.8871 15.8702 17.8882 15.9788 17.8851C16.0307 17.8861 16.0808 17.8666 16.1183 17.8309C16.1559 17.7952 16.1779 17.7461 16.1795 17.6943C16.2216 17.374 16.2961 17.0604 16.3706 16.7467C16.4397 16.4558 16.5089 16.1648 16.5522 15.8681C16.5818 15.6477 16.6257 15.4295 16.6836 15.2147C16.7938 15.8282 16.8976 16.4078 16.9996 16.9774C17.0541 17.2819 17.1082 17.5835 17.1624 17.886C17.2379 17.886 17.3083 17.8868 17.3757 17.8875H17.3762C17.5022 17.8889 17.6176 17.8901 17.7348 17.886C17.8959 17.8806 17.9733 17.8113 17.9787 17.6502C17.986 17.4024 18.0474 17.1643 18.1089 16.9261C18.1394 16.8079 18.17 16.6896 18.1938 16.5702C18.2321 16.3806 18.2768 16.1911 18.3217 16.0011C18.3931 15.6989 18.4648 15.3955 18.5107 15.0887C18.5174 15.0362 18.5405 14.9922 18.5634 14.9485C18.5924 14.8933 18.621 14.8386 18.616 14.7683C18.6152 14.7575 18.6142 14.7466 18.6133 14.7357L18.6133 14.7351C18.6048 14.6359 18.5962 14.5346 18.6772 14.4326C18.7056 14.3864 18.72 14.333 18.7185 14.2788C18.7171 14.2246 18.6999 14.172 18.6691 14.1275H18.0876C18.0304 14.4917 17.9497 14.8485 17.8687 15.2062C17.7537 15.7147 17.6382 16.2251 17.589 16.7619C17.5315 16.6824 17.5268 16.6027 17.5222 16.5257C17.5178 16.451 17.5135 16.3788 17.4612 16.3119C17.4228 16.2625 17.4316 16.1807 17.4408 16.0957C17.449 16.0193 17.4575 15.9403 17.4324 15.8798C17.3199 15.6054 17.2838 15.3179 17.2477 15.031L17.2477 15.0309C17.2293 14.8841 17.2108 14.7375 17.1822 14.5928C17.1596 14.4256 17.1107 14.2631 17.0373 14.1113Z" fill="white"/>
<path d="M13.1203 16.5531H13.8088C13.8594 16.6073 13.836 16.649 13.8071 16.7005C13.8033 16.7073 13.7994 16.7142 13.7955 16.7214C13.7927 16.7267 13.7899 16.7321 13.7872 16.7376C13.757 16.8243 13.756 16.9185 13.7844 17.0058C13.8129 17.0931 13.8692 17.1687 13.9447 17.2209C13.9681 17.2337 13.9914 17.2485 14.0149 17.2636C14.1252 17.334 14.2415 17.4082 14.4092 17.2947C14.4372 17.2759 14.4675 17.2579 14.498 17.2398C14.5986 17.1801 14.7008 17.1193 14.7278 17.0247C14.766 16.8927 14.7516 16.7444 14.7375 16.5985C14.734 16.5624 14.7305 16.5265 14.7278 16.491C14.7278 16.4577 14.6747 16.4145 14.6378 16.401C14.4548 16.3204 14.3031 16.1957 14.151 16.0708C14.0398 15.9794 13.9283 15.8878 13.8043 15.8132C13.5496 15.6611 13.4848 15.3344 13.4929 15.059C13.5111 14.7784 13.6226 14.512 13.8097 14.3021C13.9604 14.1541 14.1462 14.0469 14.3498 13.9906C14.5167 13.935 14.6781 13.9389 14.8384 13.9427C14.9375 13.9451 15.0362 13.9474 15.1355 13.9357C15.2197 13.926 15.2829 13.9698 15.3458 14.0133C15.3878 14.0423 15.4296 14.0713 15.4775 14.0843C15.6575 14.132 15.7124 14.2778 15.725 14.4236C15.7389 14.5992 15.736 14.7762 15.733 14.9557C15.7317 15.0319 15.7304 15.1087 15.7304 15.1859H15.1004V14.7899C15.1026 14.7608 15.0986 14.7316 15.0887 14.7042C15.0788 14.6768 15.0633 14.6518 15.043 14.6308C15.0228 14.6098 14.9984 14.5933 14.9714 14.5824C14.9443 14.5716 14.9153 14.5665 14.8862 14.5676C14.7671 14.5466 14.6453 14.5466 14.5262 14.5676C14.2877 14.6333 14.1878 15.0518 14.3768 15.2273C14.6135 15.4381 14.8614 15.6361 15.1193 15.8204C15.3272 15.9752 15.4676 16.1589 15.4586 16.4307C15.4541 16.4756 15.4541 16.5208 15.4586 16.5657C15.5603 17.0823 15.2642 17.4342 14.8916 17.6691C14.5631 17.8761 14.1563 17.9859 13.7485 17.841C13.7181 17.8301 13.6876 17.8238 13.6576 17.8176C13.6335 17.8126 13.6097 17.8077 13.5865 17.8005C13.2445 17.6943 13.1239 17.5305 13.1185 17.1867C13.1203 16.9779 13.1203 16.7709 13.1203 16.5531Z" fill="white"/>
<path d="M12.5803 14.7098C12.6586 14.8421 12.664 14.9825 12.5938 15.2813C12.6703 15.2813 12.7423 15.2813 12.8125 15.2768C13.3938 15.2925 13.3936 15.2772 13.3894 14.8322C13.389 14.7908 13.3885 14.7456 13.3885 14.6963C13.3876 14.4956 13.2031 14.2022 13.0159 14.1446C12.9681 14.1299 12.921 14.112 12.8738 14.0941C12.7359 14.0418 12.5972 13.9892 12.439 14.0141C12.231 14.0438 12.0276 14.0991 11.8332 14.1788C11.3715 14.3795 11.1492 14.7566 11.0475 15.23L11.0417 15.2567C10.978 15.5511 10.914 15.8463 10.845 16.1373C10.7582 16.5134 10.7025 16.896 10.6785 17.2812C10.6605 17.5512 10.7847 17.7051 10.9647 17.8383C11.0725 17.9328 11.212 17.9833 11.3553 17.9796C11.4237 17.9764 11.4923 17.9787 11.5607 17.981C11.6427 17.9838 11.7244 17.9865 11.8053 17.9796C12.1672 17.9481 12.5164 17.8851 12.6712 17.4864C12.8622 17.3458 12.9094 17.144 12.9579 16.9371C12.9805 16.8407 13.0034 16.7432 13.0411 16.6503H12.3211C12.1834 17.3559 11.9377 17.5674 11.4336 17.4126C11.3337 17.2407 11.2536 17.0427 11.3292 16.8726C11.4235 16.6598 11.4572 16.4357 11.4908 16.2117C11.5134 16.0615 11.5359 15.9113 11.5767 15.7646C11.6074 15.6551 11.6324 15.5432 11.6575 15.4309C11.6905 15.2831 11.7237 15.1345 11.7702 14.9897C11.8002 14.8723 11.8667 14.7674 11.96 14.6902C12.0533 14.6129 12.1687 14.5671 12.2896 14.5595C12.3477 14.5509 12.407 14.5607 12.4592 14.5877C12.5114 14.6147 12.5537 14.6574 12.5803 14.7098Z" fill="white"/>
<path fill-rule="evenodd" clip-rule="evenodd" d="M7 16.7214V15.2813C7.00846 15.2777 7.01956 15.2742 7.03057 15.2707L7.03077 15.2706C7.05249 15.2637 7.0738 15.257 7.0738 15.2498C7.0738 14.9487 7.12953 14.6563 7.18527 14.3639L7.1853 14.3637L7.18531 14.3636C7.2097 14.2357 7.2341 14.1077 7.25381 13.9789C7.29167 13.7363 7.37206 13.5084 7.45211 13.2815C7.53002 13.0607 7.6076 12.8408 7.64533 12.6091C8.12297 11.5489 8.7668 10.5717 9.55253 9.71453C9.8023 9.44783 10.0913 9.22593 10.3802 9.00417C10.4598 8.94305 10.5394 8.88193 10.6182 8.81989C11.285 8.30725 12.0269 7.90074 12.8179 7.61473C12.8985 7.5861 12.9783 7.55626 13.0581 7.52645L13.0586 7.52625C13.3423 7.42024 13.6248 7.31466 13.933 7.26551C14.058 7.24543 14.1818 7.21785 14.3057 7.19028C14.5869 7.12765 14.8682 7.06501 15.1625 7.09C15.2228 7.0954 15.2858 7.09 15.2786 7H16.7187C16.7199 7.00282 16.7211 7.00592 16.7223 7.00923C16.7231 7.0114 16.7238 7.01366 16.7246 7.01597C16.7262 7.0207 16.7278 7.02565 16.7293 7.03059L16.7294 7.03074C16.7363 7.05246 16.743 7.0738 16.7502 7.0738C17.0513 7.0738 17.3437 7.12953 17.6361 7.18527C17.7642 7.20967 17.8922 7.23408 18.0211 7.25381C18.2637 7.29167 18.4916 7.37206 18.7185 7.45211C18.9393 7.53002 19.1592 7.6076 19.3909 7.64533C20.4511 8.12297 21.4283 8.7668 22.2855 9.55253C22.5522 9.80229 22.7741 10.0913 22.9958 10.3802L22.9964 10.381C23.0574 10.4603 23.1183 10.5397 23.1801 10.6182C23.6927 11.285 24.0993 12.0269 24.3853 12.8179C24.4139 12.8986 24.4438 12.9786 24.4737 13.0585L24.4737 13.0586L24.4738 13.0587C24.5798 13.3424 24.6853 13.6248 24.7345 13.933C24.7546 14.0579 24.7821 14.1816 24.8097 14.3054L24.8097 14.3056C24.8723 14.5868 24.935 14.8682 24.91 15.1625C24.9046 15.2228 24.91 15.2858 25 15.2786V16.7187C24.9915 16.7223 24.9803 16.7259 24.9692 16.7294C24.9475 16.7363 24.9262 16.743 24.9262 16.7502C24.9262 17.0513 24.8705 17.3437 24.8147 17.6361C24.7903 17.7642 24.7659 17.8922 24.7462 18.0211C24.7083 18.2637 24.6279 18.4916 24.5479 18.7185C24.47 18.9393 24.3924 19.1592 24.3547 19.3909C23.877 20.4511 23.2332 21.4283 22.4475 22.2855C22.1977 22.5522 21.9087 22.7741 21.6198 22.9958L21.6196 22.996C21.54 23.0571 21.4605 23.1182 21.3818 23.1801C20.715 23.6927 19.9731 24.0993 19.1821 24.3853C19.1018 24.4138 19.0221 24.4436 18.9425 24.4733L18.9414 24.4737C18.6577 24.5798 18.3752 24.6853 18.067 24.7345C17.942 24.7546 17.8182 24.7821 17.6944 24.8097C17.4131 24.8723 17.1318 24.935 16.8375 24.91C16.7772 24.9046 16.7142 24.91 16.7214 25H15.2804C15.2768 24.9915 15.2732 24.9803 15.2697 24.9692C15.2628 24.9475 15.2561 24.9262 15.2489 24.9262C14.9478 24.9262 14.6554 24.8705 14.363 24.8147L14.362 24.8146C14.2343 24.7902 14.1065 24.7659 13.978 24.7462C13.7354 24.7083 13.5075 24.6279 13.2806 24.5479C13.0598 24.47 12.8399 24.3924 12.6082 24.3547C11.548 23.877 10.5708 23.2332 9.71364 22.4475C9.44694 22.1977 9.22505 21.9087 9.0033 21.6198L9.003 21.6194C8.94196 21.5399 8.88094 21.4605 8.81899 21.3818C8.30635 20.715 7.89984 19.9731 7.61383 19.1821C7.58514 19.1014 7.55523 19.0213 7.52535 18.9414C7.41934 18.6577 7.31376 18.3752 7.26461 18.067C7.24453 17.942 7.21695 17.8182 7.18937 17.6943C7.12675 17.4131 7.06411 17.1318 7.0891 16.8375C7.09451 16.7772 7.09 16.7142 7 16.7214ZM16.0761 9.68663C14.438 9.73703 13.0267 10.2357 11.8323 11.3067C10.5255 12.4768 9.80544 13.9474 9.71094 15.6863C9.62093 17.3964 10.1736 18.9067 11.3202 20.1866C12.4903 21.4916 13.9636 22.2081 15.7052 22.2936C17.4153 22.3773 18.9229 21.8201 20.2001 20.6681C21.5033 19.4935 22.2099 18.0165 22.2909 16.2759C22.3701 14.5658 21.8057 13.0609 20.6501 11.7873C19.4116 10.4211 17.8509 9.76764 16.0761 9.68663ZM9.062 15.2957H7.63003V16.0221C7.62149 16.2504 7.62479 16.479 7.63993 16.707H9.0611L9.062 15.2957ZM16.7205 24.2683V23.0982C16.7205 22.9182 16.6431 22.8471 16.4505 22.8453H15.2804V24.2719L16.7205 24.2683ZM24.2737 15.2813H23.1153C22.9218 15.2813 22.8453 15.3515 22.8453 15.5324C22.839 15.8456 22.8399 16.1625 22.8453 16.473C22.8453 16.635 22.9236 16.7169 23.0775 16.7187C23.3427 16.7223 23.6075 16.7211 23.8736 16.7199H23.8744L23.8772 16.7199C24.0099 16.7193 24.1429 16.7187 24.2764 16.7187L24.2737 15.2813ZM15.2804 7.72814V8.88649C15.2804 9.08 15.3506 9.1565 15.5315 9.1565C15.8447 9.16281 16.1616 9.16191 16.4712 9.1565C16.6341 9.1565 16.716 9.07821 16.7178 8.9252C16.7214 8.65965 16.7202 8.3941 16.719 8.12749C16.7184 7.99379 16.7178 7.85981 16.7178 7.72544L15.2804 7.72814ZM11.5839 10.6317L10.6002 9.65153C10.4888 9.76745 10.369 9.885 10.247 10.0047L10.2467 10.005C10.0544 10.1937 9.85656 10.3879 9.67763 10.5894L10.6497 11.5623L11.5839 10.6317ZM11.5452 21.4169C11.3383 21.2094 11.1214 20.9927 10.9211 20.7926L10.8074 20.679C10.7539 20.6255 10.702 20.5737 10.6524 20.5241C10.5633 20.6132 10.4689 20.7077 10.3718 20.8049C10.1698 21.007 9.95596 21.2211 9.75234 21.4241L10.6452 22.317L11.5452 21.4169ZM21.3926 20.4791L20.4557 21.416L21.4007 22.3575C21.5191 22.2202 21.6548 22.0904 21.7924 21.9587C21.9761 21.783 22.1631 21.6041 22.317 21.3998L21.3926 20.4791ZM21.3665 9.73254C21.1597 9.93992 20.9489 10.1506 20.7478 10.3515C20.6512 10.4479 20.557 10.5421 20.4665 10.6326L21.3899 11.5569L22.29 10.6569L21.3665 9.73254Z" fill="white"/>
</svg>
