<svg width="32" height="32" viewBox="0 0 32 32" fill="none" xmlns="http://www.w3.org/2000/svg">
<circle cx="16" cy="16" r="16" fill="#54BAE3"/>
<path d="M24.9953 9.02712C25.0149 8.94985 24.9698 8.9518 24.9255 8.95373C24.5466 8.97012 24.154 8.9593 23.7775 8.99271C22.7999 9.08037 22.0258 9.51974 21.4564 10.3228C21.0975 10.831 20.8142 11.3886 20.6153 11.9781C20.1404 13.3724 19.6716 14.7688 19.2028 16.1652C19.012 16.7335 18.8212 17.3018 18.63 17.87C18.6257 17.8828 18.622 17.896 18.6183 17.9094C18.605 17.957 18.5911 18.0064 18.5481 18.0486C18.5233 18.0183 18.5017 17.9855 18.4837 17.9508C18.4354 17.8218 18.3882 17.6924 18.3411 17.5631C18.2655 17.3558 18.1899 17.1485 18.1099 16.9431C17.8667 16.3203 17.6227 15.6978 17.3787 15.0753C17.0157 14.1493 16.6528 13.2234 16.2926 12.2965C16.2451 12.1741 16.1847 12.1379 16.0568 12.1379C15.073 12.1446 14.0892 12.1446 13.1054 12.1379C12.9399 12.1364 12.9134 12.1708 12.9732 12.3251C14.3001 15.737 15.6239 19.1502 16.9446 22.5647C16.991 22.685 17.0471 22.7259 17.1775 22.7259C18.1439 22.7198 19.1096 22.7158 20.0753 22.7281C20.2843 22.731 20.3708 22.673 20.4375 22.4706C20.6034 21.9678 20.7691 21.4649 20.9348 20.962C22.1777 17.1903 23.4208 13.418 24.7418 9.67441C24.8204 9.45672 24.8613 9.22344 24.9953 9.02712Z" fill="white"/>
<path d="M11.2621 12.2541C9.15795 12.6602 7.56599 14.2337 7.1277 16.3346C6.95541 17.1628 6.95923 18.0014 7.12843 18.8353C7.55476 20.9326 9.15251 22.51 11.2577 22.902C11.5234 22.9539 11.7919 22.9902 12.0619 23.0106C12.0653 23.0109 12.0687 23.0112 12.0721 23.0114C12.0983 23.0131 12.1243 23.0148 12.1365 23.0469H13.004C13.0283 23.0046 13.0657 23.0072 13.1016 23.0097C13.1128 23.0105 13.1239 23.0112 13.1344 23.0106C13.9259 22.9614 14.672 22.735 15.4026 22.4427C15.5366 22.3891 15.5685 22.334 15.5113 22.1891C15.2116 21.4403 14.9209 20.6878 14.6391 19.9318C14.58 19.7735 14.5322 19.7543 14.3823 19.8332C13.4405 20.3284 12.469 20.4287 11.4754 20.0046C10.2156 19.4674 9.56001 18.0674 9.97258 16.792C10.3225 15.7115 11.2606 14.9541 12.4991 14.911C12.6566 14.9056 12.6603 14.8629 12.6095 14.7343C12.401 14.2046 12.1965 13.6737 11.992 13.1428C11.9129 12.9377 11.8339 12.7326 11.7547 12.5276C11.6884 12.3562 11.6552 12.2705 11.5936 12.2364C11.532 12.2023 11.442 12.2196 11.2621 12.2541Z" fill="white"/>
</svg>
