<svg width="32" height="32" viewBox="0 0 32 32" fill="none" xmlns="http://www.w3.org/2000/svg">
<circle cx="16" cy="16" r="16" fill="#3BAF29"/>
<path d="M17.0462 16.7011C17.404 16.5297 17.7061 16.2608 17.9179 15.9253C18.1296 15.5899 18.2424 15.2015 18.2432 14.8048C18.2432 13.6402 17.2874 12.6961 16.1102 12.6961C14.9312 12.6961 13.9745 13.6402 13.9745 14.8048C13.9755 15.2016 14.0886 15.59 14.3007 15.9253C14.5128 16.2607 14.8153 16.5293 15.1733 16.7002V19.3048H17.0462V16.7011ZM16.1102 22.75C12.3428 22.75 9.27924 19.7224 9.27924 16C9.27924 12.2776 12.3428 9.25 16.1102 9.25C19.1837 9.25 21.7892 11.266 22.6442 14.0308H24.9986C24.0896 10.0078 20.4554 7 16.1093 7C11.0792 7 7.00134 11.0293 7.00134 16C7.00134 20.9707 11.0792 25 16.1093 25C20.4554 25 24.0896 21.9922 24.9986 17.9692H22.6433C21.7883 20.734 19.1837 22.75 16.1102 22.75Z" fill="white"/>
</svg>
