<svg width="32" height="32" viewBox="0 0 32 32" fill="none" xmlns="http://www.w3.org/2000/svg">
<circle cx="16" cy="16" r="16" fill="#124A7B"/>
<path d="M21.3159 16.0139L21.9506 15.1899L20.2008 12.9463H18.8794L21.2946 16.0139L18.8984 19.0585L18.3988 18.0539H17.2663L17.7789 19.0825L20.2008 19.0825L21.9506 16.8379L21.3159 16.0139Z" fill="white"/>
<path d="M21.9552 15.162L22.6004 16.0002L21.9552 16.8389L23.705 19.0825H25L22.6004 16.0002L25 12.9189H23.705L21.9552 15.162Z" fill="white"/>
<path d="M12.9266 14.814C12.7738 14.4372 12.5452 14.0959 12.2549 13.8113C11.9715 13.521 11.6316 13.2919 11.2562 13.1382C10.8807 12.9845 10.4777 12.9095 10.0721 12.9179C9.43364 12.9069 8.80934 13.1062 8.2954 13.4851L9.04699 14.2448C9.35552 14.0579 9.71146 13.964 10.0721 13.9744C10.3428 13.9673 10.612 14.0169 10.8624 14.12C11.1128 14.2231 11.3389 14.3774 11.5261 14.573C11.9057 14.9637 12.1182 15.4869 12.1187 16.0316C12.1251 16.3029 12.0758 16.5727 11.9738 16.8242C11.8717 17.0757 11.7192 17.3036 11.5256 17.4938C11.5059 17.5145 11.4851 17.5348 11.4643 17.555L11.4643 17.5551C11.0787 17.9242 10.5622 18.1252 10.0285 18.1137C9.49474 18.1022 8.98741 17.8792 8.61801 17.4938C8.23839 17.1031 8.02601 16.5799 8.02596 16.0352C8.02348 15.6627 8.12599 15.2971 8.32173 14.9802L7.5661 14.2205C7.18874 14.7367 6.99012 15.3619 7.00038 16.0012C6.99468 16.4066 7.07015 16.809 7.22235 17.1848C7.37454 17.5605 7.60039 17.902 7.88658 18.1891C8.17277 18.4763 8.51352 18.7032 8.88877 18.8567C9.26402 19.0101 9.66618 19.0869 10.0716 19.0825C10.9336 19.0825 11.6629 18.8116 12.2549 18.1912C12.5402 17.9029 12.7656 17.5609 12.9181 17.185C13.0705 16.8092 13.1471 16.4068 13.1432 16.0012C13.1532 15.5948 13.0794 15.1907 12.9266 14.814Z" fill="white"/>
<path d="M13.9252 19.0825L14.4378 18.0539L14.924 17.0521L15.8386 15.2431L16.7538 17.0299H17.9126L15.8665 12.9199L12.7938 19.0825H13.9252Z" fill="white"/>
</svg>
