<svg width="32" height="33" viewBox="0 0 32 33" fill="none" xmlns="http://www.w3.org/2000/svg">
<circle cx="16" cy="16.5" r="16" fill="#1DB5DE"/>
<path d="M14.1653 8.25997C15.1786 7.24668 16.8214 7.24668 17.8347 8.25997L24.24 14.6653C25.2533 15.6786 25.2533 17.3214 24.24 18.3347L21.1894 21.3854V24.7288C21.1894 25.0154 20.957 25.2478 20.6704 25.2478C20.3838 25.2478 20.1515 25.0154 20.1515 24.7288V21.3928L19.9328 21.1742L19.9365 21.1704L16.5026 17.7365C16.3475 17.7996 16.1778 17.8344 16 17.8344C15.263 17.8344 14.6656 17.237 14.6656 16.5C14.6656 15.763 15.263 15.1656 16 15.1656C16.737 15.1656 17.3344 15.763 17.3344 16.5C17.3344 16.6778 17.2996 16.8475 17.2365 17.0026L20.6704 20.4365L23.5061 17.6008C24.1141 16.9929 24.1141 16.0071 23.5061 15.3992L17.1008 8.99385C16.4929 8.38588 15.5071 8.38588 14.8992 8.99385L8.49385 15.3992C7.88588 16.0071 7.88588 16.9929 8.49385 17.6008L14.8992 24.0061C15.5071 24.6141 16.4929 24.6141 17.1008 24.0061L19.4139 21.6931L19.5584 21.8376V23.0163L17.8347 24.74C16.8214 25.7533 15.1786 25.7533 14.1653 24.74L7.75997 18.3347C6.74668 17.3214 6.74668 15.6786 7.75997 14.6653L14.1653 8.25997Z" fill="white"/>
</svg>
