<svg width="32" height="32" viewBox="0 0 32 32" fill="none" xmlns="http://www.w3.org/2000/svg">
<circle cx="16" cy="16" r="16" fill="#1B53F0"/>
<path d="M7.00143 20.6503C7.00214 21.8037 7.46065 22.9096 8.27622 23.7252C9.09179 24.5408 10.1977 24.9993 11.3511 25C12.5045 24.9993 13.6105 24.5408 14.426 23.7252C15.2416 22.9096 15.7001 21.8037 15.7008 20.6503C15.7001 19.4968 15.2416 18.3908 14.4261 17.5751C13.6105 16.7594 12.5046 16.3007 11.3511 16.2997C10.1977 16.3007 9.09171 16.7594 8.27617 17.5751C7.46062 18.3908 7.00214 19.4968 7.00143 20.6503ZM7.07613 10.5253C6.89017 11.5063 7.04072 12.5214 7.50345 13.4062C7.96618 14.291 8.71401 14.9937 9.62584 15.4006C10.5583 15.7968 11.5996 15.8563 12.5712 15.5689C13.5427 15.2816 14.3841 14.6653 14.9511 13.8256C15.5243 13.0031 15.7928 12.0065 15.7107 11.0073C15.6286 10.0082 15.2009 9.06887 14.5011 8.35094H15.7008V7.00004H11.3511C10.339 6.99577 9.35726 7.34599 8.57637 7.98993C7.79548 8.63388 7.26472 9.5309 7.07613 10.5253ZM16.3011 11.3506C16.3018 12.5043 16.7604 13.6104 17.5761 14.4262C18.3919 15.2419 19.4981 15.7005 20.6517 15.7012C21.8053 15.7003 22.9114 15.2415 23.727 14.4255C24.5425 13.6096 25.0009 12.5034 25.0014 11.3497C25.0004 10.1964 24.5418 9.0906 23.7263 8.27508C22.9108 7.45956 21.805 7.00099 20.6517 7.00004C19.4982 7.00075 18.3922 7.45924 17.5765 8.27478C16.7607 9.09032 16.3021 10.1963 16.3011 11.3497V11.3506ZM8.35143 20.6512C8.35131 20.2572 8.42881 19.867 8.5795 19.503C8.7302 19.139 8.95111 18.8082 9.22967 18.5295C9.50823 18.2509 9.839 18.0298 10.203 17.879C10.567 17.7282 10.9571 17.6506 11.3511 17.6506C11.7451 17.6506 12.1353 17.7282 12.4992 17.879C12.8632 18.0298 13.194 18.2509 13.4725 18.5295C13.7511 18.8082 13.9721 19.139 14.1228 19.503C14.2734 19.867 14.3509 20.2572 14.3508 20.6512C14.3509 21.0452 14.2734 21.4353 14.1227 21.7993C13.972 22.1633 13.751 22.494 13.4725 22.7726C13.1939 23.0512 12.8632 23.2721 12.4992 23.4228C12.1352 23.5735 11.7451 23.651 11.3511 23.6509C10.9571 23.651 10.5669 23.5735 10.2028 23.4227C9.83879 23.272 9.50803 23.0509 9.22945 22.7723C8.95087 22.4936 8.72994 22.1627 8.57928 21.7986C8.42863 21.4345 8.35119 21.0443 8.35143 20.6503V20.6512ZM8.35143 11.4253C8.3538 10.6303 8.67073 9.86859 9.23297 9.30653C9.7952 8.74447 10.557 8.42779 11.352 8.42565C12.1468 8.42802 12.9085 8.74482 13.4705 9.30686C14.0325 9.8689 14.3493 10.6305 14.3517 11.4253C14.3496 12.2203 14.0329 12.9822 13.4708 13.5444C12.9088 14.1066 12.147 14.4236 11.352 14.4259C10.5569 14.4238 9.79489 14.107 9.23264 13.5447C8.67038 12.9825 8.35356 12.2205 8.35143 11.4253ZM17.652 11.3506C17.6522 10.555 17.9685 9.79199 18.5312 9.22946C19.0939 8.66694 19.857 8.35094 20.6526 8.35094C21.4482 8.35094 22.2111 8.66697 22.7737 9.22952C23.3362 9.79207 23.6523 10.5551 23.6523 11.3506C23.6523 12.1463 23.3363 12.9093 22.7738 13.472C22.2112 14.0347 21.4483 14.351 20.6526 14.3512C20.2584 14.3513 19.8681 14.2738 19.5038 14.123C19.1396 13.9722 18.8087 13.7511 18.53 13.4724C18.2512 13.1936 18.0302 12.8627 17.8794 12.4985C17.7286 12.1343 17.651 11.7439 17.6511 11.3497L17.652 11.3506Z" fill="white"/>
</svg>
