<svg width="32" height="32" viewBox="0 0 32 32" fill="none" xmlns="http://www.w3.org/2000/svg">
<circle cx="16" cy="16" r="16" fill="#1B69ED"/>
<path d="M12.504 12.1987C12.3562 12.0509 12.1339 12.0067 11.9407 12.0867C11.7476 12.1667 11.6216 12.3551 11.6216 12.5642V19.375C11.6216 19.6605 11.853 19.8919 12.1385 19.8919C12.424 19.8919 12.6554 19.6605 12.6554 19.375V13.8121L16.9419 18.0986C17.1438 18.3005 17.4711 18.3005 17.6729 18.0986C17.8748 17.8968 17.8748 17.5695 17.6729 17.3676L12.504 12.1987Z" fill="white"/>
<path d="M20.3784 12.5642C20.3784 12.3551 20.2524 12.1667 20.0593 12.0867C19.8661 12.0067 19.6438 12.0509 19.496 12.1987L17.0332 14.6615C16.8313 14.8634 16.8313 15.1907 17.0332 15.3925C17.235 15.5944 17.5623 15.5944 17.7641 15.3925L19.3446 13.8121V19.375C19.3446 19.6605 19.576 19.8919 19.8615 19.8919C20.147 19.8919 20.3784 19.6605 20.3784 19.375V12.5642Z" fill="white"/>
<path fill-rule="evenodd" clip-rule="evenodd" d="M25 16C25 20.9706 20.9706 25 16 25C11.0294 25 7 20.9706 7 16C7 11.0294 11.0294 7 16 7C20.9706 7 25 11.0294 25 16ZM23.9662 16C23.9662 20.3996 20.3996 23.9662 16 23.9662C11.6004 23.9662 8.03378 20.3996 8.03378 16C8.03378 11.6004 11.6004 8.03378 16 8.03378C20.3996 8.03378 23.9662 11.6004 23.9662 16Z" fill="white"/>
</svg>
