<svg width="32" height="32" viewBox="0 0 32 32" fill="none" xmlns="http://www.w3.org/2000/svg">
<circle cx="16" cy="16" r="16" fill="#A67E57"/>
<path fill-rule="evenodd" clip-rule="evenodd" d="M16.925 7H18.0633V8.55811C21.3447 9.46153 23.755 12.4671 23.755 16.0356C23.755 19.6041 21.3447 22.6096 18.0633 23.513V25H16.925V23.7359C16.6217 23.772 16.313 23.7905 16.0001 23.7905C15.7115 23.7905 15.4267 23.7748 15.1463 23.744V25H14.008V23.5323C10.6903 22.653 8.24512 19.6298 8.24512 16.0356C8.24512 12.4413 10.6903 9.41819 14.008 8.53888V7H15.1463V8.3271C15.4267 8.29639 15.7115 8.28063 16.0001 8.28063C16.313 8.28063 16.6217 8.29917 16.925 8.33521V7ZM14.008 9.79878C11.3671 10.6416 9.4546 13.1152 9.4546 16.0356C9.4546 18.9559 11.3671 21.4296 14.008 22.2724V9.79878ZM15.1463 22.5258V9.5453C15.4257 9.5089 15.7107 9.49012 16.0001 9.49012C16.314 9.49012 16.6228 9.51223 16.925 9.55496V22.5162C16.6228 22.5589 16.314 22.581 16.0001 22.581C15.7107 22.581 15.4257 22.5623 15.1463 22.5258ZM22.5455 16.0356C22.5455 13.1415 20.6673 10.6861 18.0633 9.82193V22.2492C20.6673 21.385 22.5455 18.9296 22.5455 16.0356Z" fill="white"/>
</svg>
