<svg width="32" height="32" viewBox="0 0 32 32" fill="none" xmlns="http://www.w3.org/2000/svg">
<circle cx="16" cy="16" r="16" fill="#213B4B"/>
<path d="M16.7299 12.5893L18.3391 10.1372C18.752 10.2026 19.1748 10.11 19.5195 9.87866C19.8643 9.64733 20.1045 9.29508 20.1901 8.89519C20.2757 8.49531 20.2001 8.07859 19.9791 7.73173C19.7581 7.38488 19.4087 7.1346 19.0036 7.03298C18.6809 6.96771 18.3455 6.9998 18.0419 7.12501C17.7382 7.25021 17.4808 7.46261 17.3036 7.73403C17.1265 8.00544 17.038 8.32305 17.0499 8.64472C17.0618 8.96638 17.1736 9.27691 17.3704 9.5351L15.3738 12.5775C14.5405 12.6576 13.7316 12.8972 12.9932 13.2827C12.2548 13.6683 11.6015 14.1921 11.0705 14.8244C10.5395 15.4566 10.1413 16.1849 9.89858 16.9676C9.65589 17.7502 9.57349 18.5719 9.65608 19.3856C9.82263 21.0287 10.6504 22.5399 11.9573 23.5871C13.2643 24.6343 14.9435 25.1317 16.6259 24.9701C18.3083 24.8076 19.8557 23.9992 20.9281 22.7227C22.0004 21.4462 22.5098 19.806 22.3444 18.1627C22.2006 16.7473 21.5653 15.4225 20.5439 14.4086C19.5225 13.3946 18.1766 12.7526 16.7299 12.5893ZM15.9974 22.0676C15.5533 22.068 15.1134 21.9829 14.703 21.8171C14.2926 21.6513 13.9197 21.4081 13.6056 21.1014C13.2915 20.7947 13.0424 20.4306 12.8726 20.0298C12.7027 19.6289 12.6155 19.1994 12.6158 18.7656C12.6154 18.3317 12.7026 17.9021 12.8724 17.5012C13.0421 17.1003 13.2912 16.736 13.6053 16.4292C13.9194 16.1225 14.2924 15.8792 14.7028 15.7134C15.1133 15.5475 15.5532 15.4624 15.9974 15.4628C16.6844 15.4626 17.3551 15.667 17.92 16.0487C18.485 16.4303 18.9175 16.9711 19.1597 17.599C18.8419 17.1993 18.3748 16.9392 17.8608 16.8757C17.3469 16.8122 16.8281 16.9506 16.4185 17.2604C16.0092 17.5706 15.7427 18.0269 15.6777 18.5289C15.6127 19.031 15.7545 19.5377 16.0719 19.9377C16.2542 20.1668 16.4876 20.3522 16.7543 20.48C17.0211 20.6077 17.3141 20.6744 17.6112 20.6749C17.9083 20.6755 18.2016 20.6098 18.4688 20.483C18.736 20.3562 18.9701 20.1716 19.1533 19.9431C18.9101 20.5682 18.4779 21.1062 17.9142 21.4856C17.3506 21.8651 16.682 22.0681 15.9974 22.0676Z" fill="white"/>
</svg>
