<?xml version="1.0" encoding="utf-8"?>
<!-- Generator: Adobe Illustrator 21.1.0, SVG Export Plug-In . SVG Version: 6.00 Build 0)  -->
<svg version="1.1" id="Слой_1" xmlns="http://www.w3.org/2000/svg" xmlns:xlink="http://www.w3.org/1999/xlink" x="0px" y="0px"
	 viewBox="0 0 36 36" style="enable-background:new 0 0 36 36;" xml:space="preserve">
<style type="text/css">
	.st0{fill:#FFFFFF;opacity:0.3;}
</style>
<g>
	<g>
		<path class="st0" d="M21.2,10.6c1.3,1.3,2.5,1.2,2.5,1.2l0.5-0.4c0,0,0.3,0.1,1.1,0.2C23.8,10.2,21.2,10.6,21.2,10.6z"/>
	</g>
	<g>
		<path class="st0" d="M18,0C8.1,0,0,8.1,0,18c0,9.9,8.1,18,18,18s18-8.1,18-18C36,8.1,27.9,0,18,0z M25.3,17.4c-1.1,0-2,1.3-2,1.8
			c0,0.5-0.5,3.8,4.7,3.9c-2.1,3-5.6,5-9.5,5C12.2,28.2,7,23,7,16.6c0-0.4,0-0.8,0.1-1.1c1.3-5.7,9.1-6.6,9.1-6.6l-1-1.1
			c3.2,0,6.5,0.3,10.8,2.8v0.9c0,0,3,1.1,3,4.2c0,3-2.3,3.4-2.3,3.4S27.2,17.4,25.3,17.4z"/>
	</g>
</g>
</svg>
