<?xml version="1.0" encoding="utf-8"?>
<!-- Generator: Adobe Illustrator 21.1.0, SVG Export Plug-In . SVG Version: 6.00 Build 0)  -->
<svg version="1.1" id="Слой_1" xmlns="http://www.w3.org/2000/svg" xmlns:xlink="http://www.w3.org/1999/xlink" x="0px" y="0px"
	 viewBox="0 0 36 36" style="enable-background:new 0 0 36 36;" xml:space="preserve">
<style type="text/css">
	.st0{fill:#FFFFFF;opacity:0.3;}
</style>
<g>
	<circle class="st0" cx="18" cy="18" r="18"/>
</g>
<g>
	<path class="st0" d="M18,0C8.1,0,0,8.1,0,18c0,9.9,8.1,18,18,18s18-8.1,18-18C36,8.1,27.9,0,18,0z M26,19.6V27h-4l0-7.7
		c0,0,0.1-1.3-0.7-2.2c-0.6-0.7-1.7-1-3.3-1c-3.1,0-3.8,2-4,2.6V27h-4V9h4v3.9c1.1-0.5,2.4-0.9,4-0.9c2.8,0,4.9,0.8,6.3,2.4
		C26.1,16.4,26,18.9,26,19.6z"/>
</g>
</svg>
