<svg xmlns="http://www.w3.org/2000/svg" viewBox="0 0 36 36">
  <defs>
    <style>
      .cls-1 {
        fill: #fff;
        opacity: 0.3;
      }
    </style>
  </defs>
  <path id="Subtraction_1" data-name="Subtraction 1" class="cls-1" d="M18,36A18,18,0,0,1,5.272,5.272,18,18,0,0,1,30.728,30.728,17.882,17.882,0,0,1,18,36Zm3-9.6h0l1.208.282,1.74-5.632H27.5v-2H24.565l.309-1H27.5v-2H25.491l1.421-4.605L24.995,11l-1.562,5.054H19.49l1.422-4.605L18.994,11,18,14.22,17.006,11l-1.919.448,1.422,4.605H12.566L11.005,11l-1.917.448,1.421,4.605H8.5v2h2.627l.309,1H8.5v2h3.553l1.739,5.632L15,26.4l1.207.282,1.74-5.632h.107l1.739,5.632L21,26.4Zm-6-2.468v0l-.89-2.88h1.78L15,23.933Zm6,0v0l-.889-2.88h1.78L21,23.933Zm1.507-4.883H19.492l-.309-1h3.632l-.308,1Zm-6,0H13.492l-.309-1h3.633l-.308,1Z"/>
</svg>
