<svg xmlns="http://www.w3.org/2000/svg" xmlns:xlink="http://www.w3.org/1999/xlink" viewBox="0 0 36 36">
  <defs>
    <style>
      .cls-1 {
        clip-path: url(#clip-jnt);
      }

      .cls-2, .cls-3 {
        fill: #fff;
      }

      .cls-2 {
        opacity: 0;
      }

      .cls-3 {
        opacity: 0.3;
      }
    </style>
    <clipPath id="clip-jnt">
      <rect width="36" height="36"/>
    </clipPath>
  </defs>
  <g id="jnt" class="cls-1">
    <rect id="Rectangle_6" data-name="Rectangle 6" class="cls-2" width="36" height="36" transform="translate(0 0.001)"/>
    <g id="Group_1" data-name="Group 1" transform="translate(-1.138 -1.636)">
      <path id="Path_22059" data-name="Path 22059" class="cls-3" d="M-742.872-409.364a6.492,6.492,0,0,1-3.155-.816l-10.683-5.955a6.077,6.077,0,0,1-3.153-5.278v-11.911a6.082,6.082,0,0,1,3.147-5.27l10.682-5.953a6.481,6.481,0,0,1,3.154-.817,6.485,6.485,0,0,1,3.155.817l10.674,5.944a6.081,6.081,0,0,1,3.157,5.279v11.911a6.073,6.073,0,0,1-3.143,5.278l-10.682,5.955A6.492,6.492,0,0,1-742.872-409.364Zm-5.355-13.477-2.184,1.506a4.862,4.862,0,0,0,3.94,1.991,5.123,5.123,0,0,0,1.536-.236,4.785,4.785,0,0,0,2.475-1.705,4.518,4.518,0,0,0,.926-2.8v-1.835a5.348,5.348,0,0,0,.716.282,5.2,5.2,0,0,0,1.534.234,4.862,4.862,0,0,0,3.94-1.989l-2.189-1.508a2.235,2.235,0,0,1-1.8.894,2.268,2.268,0,0,1-.673-.1,2.132,2.132,0,0,1-1.534-2.031v-5.249h-2.686v11.3a2.135,2.135,0,0,1-1.533,2.035,2.274,2.274,0,0,1-.676.1,2.238,2.238,0,0,1-1.8-.893Z" transform="translate(762 447)"/>
    </g>
  </g>
</svg>
