<?xml version="1.0" encoding="utf-8"?>
<!-- Generator: Adobe Illustrator 21.1.0, SVG Export Plug-In . SVG Version: 6.00 Build 0)  -->
<svg version="1.1" id="Слой_1" xmlns="http://www.w3.org/2000/svg" xmlns:xlink="http://www.w3.org/1999/xlink" x="0px" y="0px"
	 viewBox="0 0 36 36" style="enable-background:new 0 0 36 36;" xml:space="preserve">
<style type="text/css">
	.st0{fill:#FFFFFF;opacity:0.3;}
</style>
<g>
	<path class="st0" d="M18,0C8.1,0,0,8.1,0,18s8.1,18,18,18s18-8.1,18-18S27.9,0,18,0z M6.3,12.3C8.4,8,12.9,5,18,5
		c6.3,0,11.6,4.5,12.8,10.5c0.1,0.6,0.2,1.2,0.2,1.9h-2.5c0-0.6-0.1-1.3-0.3-1.9C27.1,10.9,23,7.5,18,7.5c-4.7,0-8.6,3-10,7.2
		l2.8,3.9l1.6-2.3l1.2-1.6H16l-4.3,6c-0.4,0.6-1.4,0.6-1.8,0l-4.4-6.1C5.7,13.8,6,13,6.3,12.3z M30.7,21c-1.4,5.7-6.5,10-12.6,10
		c-6.4,0-11.7-4.6-12.8-10.6v0C5.1,19.6,5,18.8,5,18c0-0.4,0-0.8,0.1-1.2l2.7,3.8v0c0.3,1.2,0.8,2.3,1.4,3.2
		c1.9,2.8,5.1,4.7,8.8,4.7c4.8,0,8.8-3.2,10.1-7.5h-4.6v-4.7h-3.1l-2,0c-0.2,0-0.4,0.2-0.4,0.4c0,0.2,0.2,0.4,0.4,0.4
		c0,0,1.4,0,2.4,0c1.6,0,2,0.9,2,2c0,1.1-0.6,2-2.3,2h-8.3l0,0l0,0l0.2-0.2l1.1-1.4h7.4c0.2,0,0.4-0.2,0.4-0.4
		c0-0.2-0.2-0.4-0.4-0.4h-2.4c-1.1,0-2-0.9-2-2c0-1.1,0.9-2,2-2h7v4.5H31C30.9,19.8,30.8,20.4,30.7,21z"/>
</g>
<g>
	<path class="st0" d="M18,0C8.1,0,0,8.1,0,18s8.1,18,18,18s18-8.1,18-18S27.9,0,18,0z M11.2,16.6c0,0.3,0,0.6,0,0.8
		c0,1.9-0.6,3.1-3.3,3.1v-0.8c2.2,0,2.5-0.7,2.5-2.3c0-0.2,0-0.5,0-0.8c-0.1-1.1-0.2-2.4,0.7-3.3c0.7-0.7,1.9-1,3.7-1l0,0.8
		c-1.5-0.1-2.5,0.2-3.1,0.7C11.1,14.6,11.1,15.6,11.2,16.6z M15,10.9c0.1,0.1,0.2,0.2,0.4,0.2c0.6,0,1.2-0.8,1.8-1.6
		c0.7-1,1.4-2,2.5-2c1.1,0,1.7,0.8,1.8,0.9l-0.6,0.5c0,0-0.4-0.5-1.1-0.5c-0.6,0-1.2,0.8-1.8,1.6c-0.7,1-1.4,1.9-2.5,1.9
		c-0.4,0-0.8-0.2-1.1-0.6c-0.4-0.6-0.4-1.5-0.1-2l0.7,0.3C14.7,10,14.8,10.6,15,10.9z M23,29.6c-0.6,0.4-1.2,0.7-1.2,2.4h-0.8
		c0-2.1,0.9-2.7,1.6-3.1c0.4-0.3,0.7-0.4,0.7-1c0-0.5-0.5-1.1-1-1.7c-0.5-0.6-0.9-1.1-0.9-1.6c0-0.9,0.6-1.3,1.1-1.7
		c0.1-0.1,0.2-0.1,0.3-0.2l0.5,0.6c-0.1,0.1-0.2,0.2-0.3,0.2c-0.5,0.4-0.8,0.7-0.8,1.1c0,0.2,0.4,0.7,0.7,1.1
		c0.5,0.7,1.1,1.4,1.1,2.2C24.1,28.9,23.5,29.3,23,29.6z M28.1,18.5c-0.2,0.3-0.7,0.6-1.4,0.7c1,0.8,1.3,1.7,1.3,2.3
		c0,1.1-0.8,2-1.5,2.8c-1,1.1-1.6,1.9-1.1,2.8l-0.7,0.4c-0.8-1.4,0.3-2.6,1.2-3.7c0.7-0.8,1.3-1.5,1.3-2.3c0-0.4-0.2-1.2-1.6-2.1
		c-0.5,0.9-1.6,1.8-3.3,1.8c-0.9,0-1.7-0.1-2.4-0.4c-0.2,0.2-0.6,0.5-0.6,1.1c0,0.3,0.5,1,0.9,1.6c0.5,0.7,1,1.4,1,2
		c0,0.9-1,1.6-1.6,2c-0.1,0.1-0.3,0.2-0.4,0.2c0,0-0.3,0.3-0.3,1.8h-0.8c0-1.3,0.2-2.1,0.5-2.4c0.1-0.1,0.3-0.2,0.5-0.3
		c0.5-0.3,1.3-0.8,1.3-1.3c0-0.3-0.5-1-0.9-1.6c-0.5-0.7-1-1.4-1-2c0-0.6,0.3-1.1,0.6-1.4c-0.9-0.5-1.3-1.4-1.3-2.4h0.8
		c0,0.9,0.5,1.6,1.4,1.9c0.6,0.3,1.4,0.4,2.3,0.4c2.4,0,3-2.1,3-2.3h0.8c0,0.1,0,0.3-0.1,0.5c0.6,0,1.1-0.2,1.4-0.4
		c-0.2-0.6-1-2.2-1.8-3.5l-0.1-0.2l0.4-0.6l-0.6-2.6c-2.9-0.4-5.1-0.1-6.4,1.1c-1.3,1.1-1.3,2.6-1.3,2.7h-0.8c0-0.2,0-0.5-0.6-0.5
		c-0.1,0-0.6,0.2-0.6,0.8c0,0.6,0.4,1.2,1.2,1.9c0.1-0.1,0.3-0.1,0.3-0.1l0.3,0.7c0,0-1.1,0.5-1.1,1.3c0,0.3,0.4,0.8,0.8,1.2
		c0.5,0.6,1.2,1.3,1.2,2.2c0,0.8-0.5,1.2-0.9,1.5c-0.6,0.5-1.2,0.9-1.2,2.5h-0.8c0-2,0.9-2.7,1.6-3.2c0.4-0.3,0.6-0.5,0.6-0.9
		c0-0.6-0.5-1.2-1-1.7c-0.5-0.6-1-1.1-1-1.7c0-0.6,0.3-1,0.6-1.4c-0.7-0.7-1.3-1.5-1.3-2.4c0-1.1,0.8-1.6,1.4-1.6
		c0.3,0,0.6,0.1,0.8,0.2c0.2-0.6,0.6-1.5,1.4-2.2c1.5-1.3,3.9-1.7,7-1.2C26.1,9.1,26,8.1,25.1,7c-1-1.2-3-1.3-4.7-0.2L20,7.1
		l-0.1-0.5c-0.1-0.4-0.5-1-1.3-1.4c-0.7-0.4-1.9-0.7-3.7-0.1c-1.4,0.5-2.4,1.3-2.7,2.4c-0.3,1-0.1,2.1,0.5,3l0.5,0.7l-0.9-0.1
		c0,0-2.2-0.2-3.3,0.9c-0.8,0.8-0.3,2.8-0.1,3.8c0.1,0.4,0.2,0.7,0.2,0.9c0,0.5-0.2,1.5-1.8,1.5c-0.6,0-1-0.2-1.4-0.6
		c-0.3-0.3-0.4-0.8-0.3-1.1l0.8,0.2c0,0,0,0,0,0c0,0.1,0.1,0.3,0.2,0.5c0.2,0.2,0.4,0.3,0.7,0.3c1,0,1-0.4,1-0.7
		c0-0.1-0.1-0.4-0.2-0.7c-0.3-1.3-0.8-3.5,0.3-4.6c0.9-0.9,2.3-1.1,3.2-1.2c-0.5-1-0.6-2.1-0.2-3.1c0.4-1.4,1.6-2.4,3.2-2.9
		c2.1-0.7,3.5-0.3,4.3,0.2c0.7,0.3,1.2,0.9,1.5,1.4c1.9-1.1,4.1-0.9,5.3,0.6c1.1,1.3,1.2,2.7,0.2,4.4l0.7,3l-0.3,0.5
		c0.5,0.8,1.8,3.1,1.8,3.8l0,0.1L28.1,18.5z M21.6,14.9c-0.1,0.1-0.2,0.1-0.3,0.2l-0.4-0.7c0.1-0.1,0.2-0.1,0.3-0.2
		c1-0.6,2.1-1.4,3.8-0.4l-0.4,0.7C23.3,13.8,22.5,14.3,21.6,14.9z M24.2,15.4c0,0.3-0.2,0.5-0.5,0.5c-0.3,0-0.5-0.2-0.5-0.5
		s0.2-0.5,0.5-0.5C24,14.9,24.2,15.1,24.2,15.4z"/>
</g>
</svg>
