<?xml version="1.0" encoding="utf-8"?>
<!-- Generator: Adobe Illustrator 21.1.0, SVG Export Plug-In . SVG Version: 6.00 Build 0)  -->
<svg version="1.1" id="Слой_1" xmlns="http://www.w3.org/2000/svg" xmlns:xlink="http://www.w3.org/1999/xlink" x="0px" y="0px"
	 viewBox="0 0 36 36" style="enable-background:new 0 0 36 36;" xml:space="preserve">
<style type="text/css">
	.st0{fill:#FFFFFF;}
</style>
<g>
	<g>
		<path class="st0" d="M23,20H11v7h12c1.6,0,3-2.3,3-4C26,21.4,24.7,20,23,20z"/>
	</g>
	<g>
		<rect x="11" y="12" class="st0" width="4" height="2"/>
	</g>
	<g>
		<path class="st0" d="M18,0C8.1,0,0,8.1,0,18c0,9.9,8.1,18,18,18s18-8.1,18-18C36,8.1,27.9,0,18,0z M18,7h9v2h-7v5h5v-1h-3v-2h5v5
			h-9V7z M9,7h5v2H9V7z M9,10h6V7h2v9H9V10z M23,29H9V18h14c2.8,0,5,2.1,5,5C28,25.9,25.8,29,23,29z"/>
	</g>
</g>
</svg>
