<svg xmlns="http://www.w3.org/2000/svg" viewBox="2076 -270 36 36"><defs><style>.a{opacity:0.7;}.b{fill:#fff;}</style></defs><g class="a" transform="translate(2076 -270)"><path class="b" d="M18,0A18,18,0,1,0,36,18,18.053,18.053,0,0,0,18,0Zm.6,31c-3,0-13.2-1.3-13.2-11.5S13.3,5,16.9,5a11.018,11.018,0,0,1,4.2,1v7.6a6.254,6.254,0,0,0-3.4-1.1c-3.2,0-6.7,2.4-6.7,6.3a6.568,6.568,0,0,0,6.9,6.7,5.688,5.688,0,0,0,3.1-.9,1.63,1.63,0,0,0,1.6,1.5,1.58,1.58,0,0,0,1.6-1.6V7.5A11.711,11.711,0,0,1,30.4,18C30.6,28.9,21.6,31,18.6,31Zm2.5-13.2v1.8c-.1.1-.1.3-.2.4A3.254,3.254,0,0,1,18,22.3a3.346,3.346,0,0,1-3.7-3.5,3.408,3.408,0,0,1,3.5-3.1C19.1,15.8,20.6,17.2,21.1,17.8Z"/></g></svg>