<svg xmlns="http://www.w3.org/2000/svg" viewBox="2122 -270 36 36"><defs><style>.a{opacity:0.7;}.b{fill:#fff;}</style></defs><g class="a" transform="translate(2122 -270)"><path class="b" d="M24.1,21c-1.2,0-3.4,2-4.8,3.8,1.4,1.4,3.5,3.2,4.8,3.2a3.5,3.5,0,0,0,0-7Z"/><path class="b" d="M18,0A18,18,0,1,0,36,18,18.053,18.053,0,0,0,18,0Zm0,3c.6,1.9,5.8,4.5,5.8,8.7s-4.5,3.2-5.1,2.2l-.3,1L20,17.5l-2,2.2-1.9-2.2,1.6-2.6-.3-1c-.6,1-5.1,1.9-5.1-2.2C12.2,7.5,17.4,4.9,18,3Zm6.1,27c-2.9,0-6.5-4.1-6.9-4.5l-.5-.6h0c-1.4-1.8-3.6-3.8-4.8-3.8a3.5,3.5,0,1,0,0,7,3.219,3.219,0,0,0,2.8-1.5l1.6,1.2a5.518,5.518,0,0,1-10-3.2A5.723,5.723,0,0,1,11.9,19c2.2,0,4.8,2.6,6.1,4.2,1.3-1.6,3.9-4.2,6.1-4.2a5.5,5.5,0,0,1,0,11Z"/></g></svg>