<svg xmlns="http://www.w3.org/2000/svg" viewBox="2352 -270 36 36"><defs><style>.a{opacity:0.3;}.b{fill:#fff;}</style></defs><g class="a" transform="translate(2352 -270)"><path class="b" d="M21.2,10.6a3.456,3.456,0,0,0,2.5,1.2l.5-.4a6.615,6.615,0,0,0,1.1.2C23.8,10.2,21.2,10.6,21.2,10.6Z"/><path class="b" d="M18,0A18,18,0,1,0,36,18,18.053,18.053,0,0,0,18,0Zm7.3,17.4a2.354,2.354,0,0,0-2,1.8c0,.5-.5,3.8,4.7,3.9a11.651,11.651,0,0,1-9.5,5A11.438,11.438,0,0,1,7,16.6a3.75,3.75,0,0,1,.1-1.1c1.3-5.7,9.1-6.6,9.1-6.6l-1-1.1A19.516,19.516,0,0,1,26,10.6v.9a4.7,4.7,0,0,1,3,4.2c0,3-2.3,3.4-2.3,3.4A1.274,1.274,0,0,0,25.3,17.4Z"/></g></svg>