<svg xmlns="http://www.w3.org/2000/svg" viewBox="2536 -270 36 36"><defs><style>.a{opacity:0.5;}.b{fill:#fff;}</style></defs><g class="a" transform="translate(2536 -270)"><path class="b" d="M20.5,24.7h-.7v2.5h.8c.9,0,1.7-.3,1.7-1.3C22.3,25.1,21.5,24.7,20.5,24.7Z"/><path class="b" d="M18,0A18,18,0,1,0,36,18,18.053,18.053,0,0,0,18,0Zm5.5,28a5.778,5.778,0,0,1-3.5.8c-1,0-1.7-.1-2.2-.1V19.9a16.118,16.118,0,0,1,2.6-.2,4.618,4.618,0,0,1,2.6.5A1.945,1.945,0,0,1,24.1,22a2.071,2.071,0,0,1-1.5,1.9h0a2.343,2.343,0,0,1,1.8,2.2A2.647,2.647,0,0,1,23.5,28ZM20.1,13.7a8.749,8.749,0,0,0-8.8,8.8v.7a9.928,9.928,0,0,1-.5-3,8.749,8.749,0,0,1,8.8-8.8,8.9,8.9,0,0,1,8.8,8.1A8.891,8.891,0,0,0,20.1,13.7Zm-.7-5A11.3,11.3,0,0,0,16.8,31,13.026,13.026,0,1,1,31,18a12.413,12.413,0,0,1-.3,2.7V20A11.163,11.163,0,0,0,19.4,8.7Z"/><path class="b" d="M22.1,22.2c0-.7-.5-1-1.4-1a2.22,2.22,0,0,0-.9.1v2.1h.7C21.5,23.3,22.1,22.8,22.1,22.2Z"/></g></svg>