<svg id="Слой_1" data-name="Слой 1" xmlns="http://www.w3.org/2000/svg" xmlns:xlink="http://www.w3.org/1999/xlink" viewBox="0 0 24 24"><defs><style>.cls-1{fill:none;}.cls-2{clip-path:url(#clip-path);}</style><clipPath id="clip-path"><rect class="cls-1" width="24" height="24"/></clipPath></defs><title>ABTМонтажная область 1</title><g class="cls-2"><path d="M1.6,6V18L12,24l10.37-6V6L12,0Zm1,10.87V7.14l6.26,3.62-2.11,3.7Zm.49.87,4-2.32,4.41,2.53v4.64ZM21.33,7.17v9.66l-4.1-2.38-2.11-3.68Zm-.47-.88L14.63,9.9,12.49,6.16V1.46Zm-6.59,5,1.25,2.21L13,12Zm-.5-.87-1.28.75v-3Zm-5.3,3.08,1.25-2.21L11,12,8.47,13.47Zm-.38,1.37,3.41-2v3.93Zm-5-8.57L11.5,1.42V6.15L9.36,9.9ZM20.86,17.71l-8.37,4.83V18l4.41-2.56Zm-5-2.87-3.41,2v-4ZM10.22,10.4,11.5,8.15v3Z"/></g></svg>