<svg id="Слой_1" data-name="Слой 1" xmlns="http://www.w3.org/2000/svg" viewBox="0 0 24 24"><title>ADTМонтажная область 1</title><path d="M22.48,6A1.39,1.39,0,0,0,22,5.48L12.8.19A1.52,1.52,0,0,0,12.08,0a1.48,1.48,0,0,0-.71.19L2.21,5.48A1.44,1.44,0,0,0,1.69,6a1.48,1.48,0,0,0-.19.71V17.29a1.48,1.48,0,0,0,.19.71,1.44,1.44,0,0,0,.52.52l9.16,5.29a1.44,1.44,0,0,0,1.43,0L22,18.52a1.39,1.39,0,0,0,.53-.52,1.48,1.48,0,0,0,.19-.71V6.71A1.48,1.48,0,0,0,22.48,6Zm-6.13,5.7h0l.3.3-.31.3-.33.33a5,5,0,0,1-.42-.38L15.35,12l.24-.24a4,4,0,0,1,.42-.4A3.64,3.64,0,0,0,16.35,11.7Zm-.69-1.42h0L15.41,10l.64-.65.65.65-.4.4h0l-.25.25Zm.07,3.38h0l.32-.32.66.65-.66.65L15.41,14c.1-.11.21-.21.32-.32ZM16.4,9l.32-.33c.11-.11.22-.21.32-.32L17.7,9,17,9.68l-.33-.34h0Zm-.35-.33-.36-.37h0A4,4,0,0,1,15.4,8l.65-.66.66.66ZM15.71,11l-.65.65-.39-.4L14.41,11l.65-.65Zm-1.3.68h0l.31.31-.65.65-.34-.35-.31-.3.33-.33h0c.11-.11.22-.21.32-.32Zm.29,1h0l.36-.36.65.65-.24.24-.41.41-.32-.33h0L14.41,13Zm1,2.92.33-.33.66.66-.66.66L15.4,16ZM16.4,15l.3-.31h0l.33-.34.66.65-.66.65-.29-.3h0C16.63,15.21,16.51,15.09,16.4,15Zm1.31.66h0L18,15.3l.66.66-.66.66L17.38,16ZM18,8.7q-.2-.21-.42-.42h0L17.38,8,18,7.38l.66.66Zm-1-1-.38-.39h0l-.27-.27L17,6.39l.66.66Zm-1-2.31.66.66-.66.66-.65-.66ZM14.59,6.87h0l.47-.48.66.66-.66.65-.42-.43-.23-.22Zm-.52.52.65.65-.32.32h0l-.33.33-.39-.4L13.42,8ZM12.76,8.7h0l.32-.32.39.38.26.27-.35.35h0l-.3.3-.37-.38h0L12.43,9l.33-.33Zm-.69,4.63.68.65-.68.65L11.42,14ZM11.42,10l.65-.65c.23.21.45.43.67.65-.21.22-.44.44-.67.65Zm.65-2.56c.23.21.46.42.67.65l-.67.65-.65-.65Zm-1.3,1.23c.11-.1.21-.21.31-.31.22.21.44.43.65.65l-.31.31-.34.34L10.43,9c.12-.11.23-.23.34-.34Zm-2.66,4c-.21-.22-.43-.43-.65-.65.22-.22.44-.43.65-.65.22.22.44.43.65.65C8.55,12.22,8.33,12.43,8.11,12.65Zm0,.68.65.65-.66.65L7.46,14ZM7.46,10l.65-.65.66.65-.65.65Zm1,1c.22-.22.44-.43.65-.65l.65.65-.65.65C8.89,11.44,8.67,11.23,8.45,11ZM8.12,8.7,7.46,8l.66-.66L8.77,8ZM7.78,9l-.65.66L6.47,9l.66-.65C7.34,8.6,7.56,8.82,7.78,9Zm-.65,5.28.65.66c-.22.21-.44.43-.65.65l-.29-.29L6.47,15Zm1,1,.65.66-.65.66L7.46,16ZM8.45,13l.65-.65.27.27.38.38-.65.65C8.89,13.42,8.67,13.21,8.45,13Zm1-1c.22-.22.44-.43.65-.65l.65.65-.65.65C9.88,12.43,9.66,12.22,9.44,12Zm1.31-4c-.22.22-.43.44-.65.65L9.44,8l.65-.65Zm-1-1-.65.65-.65-.65c.21-.22.43-.43.65-.65ZM8.12,5.4l.65.66-.65.66-.66-.66ZM7.78,7.05l-.66.66-.65-.66.66-.66ZM6.13,5.4l.66.66-.65.66-.66-.66Zm0,2L6.79,8l-.66.66L5.48,8Zm0,7.92.66.66-.65.66L5.48,16Zm0,3.3-.66-.66.66-.66.65.66ZM6.47,17l.65-.66.66.66-.65.66ZM8.12,18.6l-.66-.66.66-.66.65.66Zm1.32-1.32h0l-.33.33L8.7,17.2,8.45,17l.66-.66.65.66Zm.65-.66L9.44,16c.11-.11.23-.22.34-.34s.21-.21.32-.32l.65.66Zm1-1L10.43,15l.65-.65.66.65Zm1,.92-.65-.66.65-.65.68.65C12.53,16.12,12.3,16.34,12.07,16.55ZM12.43,15c.09-.1.19-.19.29-.29l.36-.36.21.21.45.44-.66.66Zm1,1,.26-.26h0l.39-.39.66.65-.66.66Zm1,1,.65-.66.66.66-.66.66Zm1.64,1.65-.65-.66.65-.66.66.66ZM16.39,17l.33-.33.32-.33.66.66-.66.66ZM18,18.6l-.66-.66.66-.66.66.66ZM18,6.72l-.66-.66L18,5.4l.66.66Z"/></svg>