<svg id="Слой_1" data-name="Слой 1" xmlns="http://www.w3.org/2000/svg" viewBox="0 0 24 24"><title>AEМонтажная область 1</title><path d="M5.18,6.3h1a6.49,6.49,0,0,1,4,2c2.19,2.3,3.4,5.55,6.18,7.26a4.28,4.28,0,0,0,1.63.49,4.15,4.15,0,0,0,1.68-.18,4.17,4.17,0,0,0,2.52-2.18h1.51a5.75,5.75,0,0,1-4.92,3.85H18A6.38,6.38,0,0,1,14.27,16a25.94,25.94,0,0,1-3.62-4.55C9.65,10.12,8.63,8.58,7,8A4.23,4.23,0,0,0,1.7,10.43a4.24,4.24,0,0,0-.2,2.34A4.27,4.27,0,0,0,4.63,16,4.27,4.27,0,0,0,7,15.93a7.27,7.27,0,0,0,3.39-3l1,1.42A7.86,7.86,0,0,1,6.1,17.58H5.22A5.73,5.73,0,0,1,0,12.4v-.89A5.72,5.72,0,0,1,1.65,8,5.64,5.64,0,0,1,5.18,6.3"/><path d="M17.78,6.3h.84A5.95,5.95,0,0,1,24,11.64v1.43c-2.3,0-4.6,0-6.9,0V11.83h5.45a5.26,5.26,0,0,0-.73-2.11,4.42,4.42,0,0,0-2.28-1.66,4.33,4.33,0,0,0-2.82.08,7.18,7.18,0,0,0-3.34,2.94c-.32-.46-.64-.93-1-1.4A8,8,0,0,1,17.78,6.3"/></svg>