<svg id="Слой_1" data-name="Слой 1" xmlns="http://www.w3.org/2000/svg" viewBox="0 0 24 26"><title>AGIМонтажная область 1</title><path d="M13.11,1.52a13.64,13.64,0,0,1,1.65,2A6.38,6.38,0,0,1,14.61,10a.79.79,0,0,0,.08.9.84.84,0,0,0,1.13.22c1.42-1.2,1.5-3.75,1.57-4.27a5.74,5.74,0,0,0-.22-1.58,8.65,8.65,0,0,0-.6-1.42,4.72,4.72,0,0,0-.9-1.2,6.88,6.88,0,0,0-2.26-1.58.34.34,0,0,0-.37,0A.35.35,0,0,0,13.11,1.52Z"/><path d="M10.94,24.52a13.64,13.64,0,0,1-1.65-1.95A6.43,6.43,0,0,1,9.44,16a.67.67,0,0,0,0-.9.83.83,0,0,0-1.12-.22c-1.43,1.2-1.51,3.75-1.58,4.27A5.74,5.74,0,0,0,7,20.77a7.89,7.89,0,0,0,.61,1.42,4.29,4.29,0,0,0,.9,1.2A6.74,6.74,0,0,0,10.72,25c.07.07.22,0,.3-.08S11.09,24.67,10.94,24.52Z"/><path d="M17.43,18.33a6.93,6.93,0,0,0-1.58-3.9A13.11,13.11,0,0,0,12.7,12a17.34,17.34,0,0,1-2.86-2A5,5,0,0,1,8.42,7.38,5.42,5.42,0,0,1,8.79,4.3a8.19,8.19,0,0,1,2.1-2.77A.34.34,0,0,0,11,1.15a.28.28,0,0,0-.45-.07A6.73,6.73,0,0,0,7.59,3.63a6.27,6.27,0,0,0-1,4.05,6.54,6.54,0,0,0,.52,2.1,7.78,7.78,0,0,0,1.21,1.8,12.81,12.81,0,0,0,3.22,2.32,15.79,15.79,0,0,1,2.86,1.95,4.54,4.54,0,0,1,1.42,2.7,5.34,5.34,0,0,1-.37,3.23,7.55,7.55,0,0,1-2.18,2.7.25.25,0,0,0-.07.37.28.28,0,0,0,.45.08,9.48,9.48,0,0,0,2.85-2.63A6.58,6.58,0,0,0,17.43,18.33Z"/></svg>