<svg id="Слой_1" data-name="Слой 1" xmlns="http://www.w3.org/2000/svg" viewBox="0 0 24 24"><title>AIDOCМонтажная область 1</title><path d="M11.11,4.91a.9.9,0,1,1,1.8,0l0,4.23a1,1,0,0,1-1,1h-.74Z"/><path d="M4.88,11.06H10.2v1.78H4.88a.89.89,0,0,1,0-1.78Z"/><path d="M11.11,19.05v-5.3h1.81v5.3a.91.91,0,1,1-1.81,0Z"/><path d="M19.08,12.84H13.83v-.77a1,1,0,0,1,1-1h4.24a.89.89,0,0,1,0,1.78Z"/><path d="M12.68.19a1.4,1.4,0,0,0-1.4,0L2.1,5.49A1.4,1.4,0,0,0,1.4,6.7V17.3a1.4,1.4,0,0,0,.7,1.21l9.18,5.3a1.4,1.4,0,0,0,1.4,0l9.18-5.3a1.4,1.4,0,0,0,.7-1.21V6.7a1.4,1.4,0,0,0-.7-1.21Zm-.83,10.87h-.74v1.78h1.81v-.77a1.92,1.92,0,0,1,1.92-1.92h4.24a1.8,1.8,0,1,1,0,3.6H13.83v5.3a1.82,1.82,0,1,1-3.63,0v-5.3H4.88a1.8,1.8,0,0,1,0-3.6H10.2V4.91a1.81,1.81,0,1,1,3.62,0l-.05,4.23A1.92,1.92,0,0,1,11.85,11.06Z"/></svg>