<svg id="Слой_1" data-name="Слой 1" xmlns="http://www.w3.org/2000/svg" viewBox="0 0 24 24"><title>AIONМонтажная область 1</title><path d="M4.32,21.41l.93-1.11a10,10,0,0,0,6.34,2.25,9.88,9.88,0,0,0,4.58-1.1l.67,1.28A11.47,11.47,0,0,1,4.32,21.41ZM19,19.67a10,10,0,0,0,2.6-3.38,9.74,9.74,0,0,0,.92-4.15H24a11.17,11.17,0,0,1-1.06,4.76,11.3,11.3,0,0,1-3,3.87ZM4.14,11.6A7.43,7.43,0,0,1,13,4.29a7.38,7.38,0,0,1,5.86,5.8,7.41,7.41,0,0,1-.41,4.29A7.44,7.44,0,0,1,11.57,19,7.41,7.41,0,0,1,4.14,11.6Zm1.46,0a6,6,0,0,0,3.67,5.52,6,6,0,0,0,6.52-1.27,5.94,5.94,0,0,0-.89-9.17,6,6,0,0,0-7.54.72A5.88,5.88,0,0,0,5.6,11.6Zm-5.6,0a11.06,11.06,0,0,1,3.44-8l.84.88A9.94,9.94,0,0,0,2.87,17l-1,.66A11,11,0,0,1,0,11.55ZM20.43,5.23l.93-.77a11.16,11.16,0,0,1,2.2,4.15l-1.17.33A9.83,9.83,0,0,0,20.43,5.23ZM11.72,1.44A10,10,0,0,0,6.89,2.68L6.18,1.42a11.51,11.51,0,0,1,11.5.24L16.92,2.9a10,10,0,0,0-5.2-1.46Z"/></svg>