<svg id="Слой_1" data-name="Слой 1" xmlns="http://www.w3.org/2000/svg" viewBox="0 0 25 24"><title>ALFМонтажная область 1</title><path d="M15,2.42A2.42,2.42,0,1,1,12.62,0,2.42,2.42,0,0,1,15,2.42Z"/><path d="M24,11.76a5,5,0,1,1-5-5A5,5,0,0,1,24,11.76Z"/><path d="M12.62,23.54a2.43,2.43,0,1,0-2.42-2.43A2.42,2.42,0,0,0,12.62,23.54Z"/><path d="M12,15.47a1.41,1.41,0,0,1-.45-.07s-2.59-.91-4.33,3.09a4.51,4.51,0,0,1-.26.64h0a3.7,3.7,0,0,1-1.35,1.45,3.61,3.61,0,0,1-1.89.52,3.51,3.51,0,0,1-1.63-.37A3.66,3.66,0,0,1,.94,15a3.66,3.66,0,0,1,1.37-1,3.66,3.66,0,0,1,3.24.26s3.36,2,5-1a.75.75,0,0,1,.1-.2h0a1.61,1.61,0,0,1,.58-.52,1.52,1.52,0,0,1,.76-.17,1.63,1.63,0,0,1,.74.22,1.61,1.61,0,0,1,.53.57,1.41,1.41,0,0,1,.18.75,1.44,1.44,0,0,1-.21.75,1.52,1.52,0,0,1-1.3.74Z"/><path d="M10.92,10.41a2,2,0,0,1-.27-.37h0S9.47,7.55,5.41,9.15a5.11,5.11,0,0,1-.64.27h0A3.65,3.65,0,0,1,2,2.69a3.61,3.61,0,0,1,2.12-.35,3.61,3.61,0,0,1,2,.89A3.73,3.73,0,0,1,7.19,5.07s1,3.77,4.25,2.87a1,1,0,0,1,.22-.08h0a1.55,1.55,0,0,1,.77,0,1.48,1.48,0,0,1,.65.41,1.52,1.52,0,0,1,.35,1.46,1.57,1.57,0,0,1-.41.66,1.6,1.6,0,0,1-.67.38,1.58,1.58,0,0,1-.78,0A1.62,1.62,0,0,1,10.92,10.41Z"/></svg>