<svg id="Слой_1" data-name="Слой 1" xmlns="http://www.w3.org/2000/svg" viewBox="0 0 24 24"><title>AMBМонтажная область 1</title><path d="M24,12.11V12h0a.66.66,0,0,0-.06-.2h0A14,14,0,0,0,12,5,14,14,0,0,0,.07,11.82h0A.66.66,0,0,0,0,12v.08a.51.51,0,0,0,.07.24A14,14,0,0,0,12,19.18a14,14,0,0,0,11.93-6.82.51.51,0,0,0,.07-.24Zm-1.21,0a13.49,13.49,0,0,1-7,5.39l.1-.07a.4.4,0,0,0,.1-.12.3.3,0,0,0,0-.16.35.35,0,0,0-.06-.14.23.23,0,0,0-.12-.1.26.26,0,0,0-.15,0,.22.22,0,0,0-.15.06A6,6,0,0,1,13.07,18a12.74,12.74,0,0,1-2.14,0A5.94,5.94,0,0,1,6.2,13.28a.61.61,0,0,0,.25-.34.67.67,0,0,0,0-.42.64.64,0,0,0-1.23.16.64.64,0,0,0,.41.68A6.62,6.62,0,0,0,8.2,17.47a13.46,13.46,0,0,1-7-5.38,13.51,13.51,0,0,1,7.1-5.41l-.08.05a.33.33,0,0,0-.11.15.31.31,0,0,0,0,.19.37.37,0,0,0,.07.12.24.24,0,0,0,.12.07.2.2,0,0,0,.13,0,.21.21,0,0,0,.13,0,6,6,0,0,1,2.65-1.06h.06a11.53,11.53,0,0,1,1.44,0h.06a6,6,0,0,1,5,4.63.65.65,0,0,0-.13.79.59.59,0,0,0,.31.29.61.61,0,0,0,.42,0,.63.63,0,0,0,.47-.65.62.62,0,0,0-.14-.39.66.66,0,0,0-.36-.23,6.63,6.63,0,0,0-2.66-4,13.46,13.46,0,0,1,7.11,5.42Zm-5.53,0A5.26,5.26,0,1,0,12,17.45,5.31,5.31,0,0,0,17.26,12.11Zm-.6,0A4.67,4.67,0,1,1,12,7.38,4.7,4.7,0,0,1,16.66,12.11Zm-2.94-1.47A1.69,1.69,0,0,0,12.37,9a1.66,1.66,0,0,0-1.88,1,1.7,1.7,0,0,0,.63,2.06l-.47,2.87a.38.38,0,0,0,0,.15.37.37,0,0,0,.07.14.34.34,0,0,0,.12.09.41.41,0,0,0,.16,0h2.09a.33.33,0,0,0,.34-.41L13,12.06a1.68,1.68,0,0,0,.75-1.41Zm4.74,2.23a.25.25,0,0,0,0-.12.24.24,0,0,0-.06-.11.39.39,0,0,0-.1-.08l-.12,0a.32.32,0,0,0-.2.07.3.3,0,0,0-.1.19,6,6,0,0,1-1.5,3.34.26.26,0,0,0-.15,0,.22.22,0,0,0-.13.08.27.27,0,0,0-.07.14.43.43,0,0,0,0,.16.38.38,0,0,0,.09.13.27.27,0,0,0,.13.07.29.29,0,0,0,.16,0,.26.26,0,0,0,.13-.08.29.29,0,0,0,.16,0,.2.2,0,0,0,.12-.08A6.6,6.6,0,0,0,18.46,12.87ZM7.69,7.56,7.6,7.5l-.12,0a.2.2,0,0,0-.11,0,.33.33,0,0,0-.1.06,6.67,6.67,0,0,0-1.71,3.57.62.62,0,0,0,0,.13.39.39,0,0,0,.06.11l.1.08.13,0a.28.28,0,0,0,.29-.25A6,6,0,0,1,7.71,8a.35.35,0,0,0,.08-.22.35.35,0,0,0-.1-.21Z"/></svg>