<svg id="Слой_1" data-name="Слой 1" xmlns="http://www.w3.org/2000/svg" viewBox="0 0 24 24"><title>ANTМонтажная область 1</title><path d="M23.75,7.2l.25.17L24,7.68c0,.23-.23,1.07-.46,1.88a24.19,24.19,0,0,1-1.72,4.26,19.41,19.41,0,0,1-3.56,4.94,15.67,15.67,0,0,1-5.86,3.71l-.12,0L12,22.6l-.23-.08-.13,0a15.7,15.7,0,0,1-5.85-3.71,20,20,0,0,1-3.57-4.94A24.44,24.44,0,0,1,.16,8.21l-.1-.5L0,7.4l.13-.11.1-.08a31.93,31.93,0,0,1,7-4.32,35.28,35.28,0,0,1,4.46-1.78L12,1l.24.07.12,0A37.19,37.19,0,0,1,16.8,2.89,32.21,32.21,0,0,1,23.75,7.2ZM1.64,9.69a23.36,23.36,0,0,0,1.59,3.84c0-.11,0-.23,0-.35a7,7,0,0,1,6.74-7h.27L9.34,5.3s3.59-.6,8.2,2.15a1,1,0,0,1,0,.55s2.18.92,2.36,2.71a2.54,2.54,0,0,1-1.89,3,.77.77,0,0,0-.26-1.13,1,1,0,0,0-.53-.12c-1.42,0-1.59,1.6-1.59,1.6a1.93,1.93,0,0,0,0,.24s-.21,2,3.19,2.27a19.79,19.79,0,0,0,2-3.17,23.46,23.46,0,0,0,2-5.56A31.83,31.83,0,0,0,16,3.67c-.94-.43-1.85-.81-2.71-1.13-.54-.2-1-.35-1.34-.47l-1.33.47c-.86.32-1.77.7-2.71,1.13A31.83,31.83,0,0,0,1.13,7.8Q1.34,8.76,1.64,9.69ZM15.69,8.17h0a1.73,1.73,0,0,0,.47-.36,6,6,0,0,1,.89.2,6.17,6.17,0,0,0-3.15-.76A2.92,2.92,0,0,0,15.69,8.17Z"/></svg>