<svg id="Слой_1" data-name="Слой 1" xmlns="http://www.w3.org/2000/svg" viewBox="0 0 24 24"><title>AOAМонтажная область 1</title><path d="M22.44,6A10.91,10.91,0,0,0,18.14,2,13.52,13.52,0,0,0,5.84,2,11,11,0,0,0,0,11.87a11.17,11.17,0,0,0,5.84,10,13.44,13.44,0,0,0,12.3,0,11.06,11.06,0,0,0,4.3-4.12A11.28,11.28,0,0,0,24,11.86,11.15,11.15,0,0,0,22.44,6Zm-7.1,15.07a.37.37,0,0,1-.21.06h0s0,0,0,0a3.15,3.15,0,0,0-.45-2c-.87-1.47-2.87-2.4-5.22-2.44-6.3-.1-7.74-3.43-7.91-3.89,0-.27-.05-.57-.06-.86h0c0-.09,0-.18,0-.27A10.07,10.07,0,0,1,2.76,6.64,9.77,9.77,0,0,1,6.47,3.16a11,11,0,0,1,2.83-1c-.2.23-.4.47-.59.72A9.8,9.8,0,0,0,6.64,9.3v0A6,6,0,0,0,10,13.76h0l.05,0,.4.18a15.78,15.78,0,0,1,1.71.77h0c2.07,1,3.47,2.24,3.92,3.64A2.22,2.22,0,0,1,15.34,21.11Zm3.53-1.95a9,9,0,0,1-1.23.89h-.08l0,0s0,0,0,0a0,0,0,0,1,0,0,3.77,3.77,0,0,0,.05-.89c-.07-1.42-1.05-4.16-6.65-6.37A4.27,4.27,0,0,1,8,9.24C7.62,6.67,9.4,3.46,11.3,2a4.67,4.67,0,0,1,.83-.08,4.42,4.42,0,0,1,.63,0h.45A11.32,11.32,0,0,1,17,2.9C13.68,5.22,13.3,8,14.09,9.73A14,14,0,0,0,16.66,13C19.08,15.66,20.55,17.5,18.87,19.16ZM21,17l0,0h-.08s0,0,0,0a0,0,0,0,1,0,0c-.35-1.71-1.91-3.38-3.27-4.83h0L17.49,12h0a11.89,11.89,0,0,1-2.18-2.8c-.9-2,.83-4.16,3-5.57A9.64,9.64,0,0,1,21.3,6.71a8.6,8.6,0,0,1,.58,1.18c-2,1.73-1.26,3.27-.63,4.6h0C21.87,13.81,22.46,15.08,21,17Z"/></svg>