<svg id="Слой_1" data-name="Слой 1" xmlns="http://www.w3.org/2000/svg" viewBox="0 0 24 24"><title>APPCМонтажная область 1</title><path d="M22.33,20.51,19.7,13.43h1.57a1.1,1.1,0,0,0,.79-.32,1.08,1.08,0,0,0,.34-.79,1.06,1.06,0,0,0-.31-.75,1.09,1.09,0,0,0-.77-.31H18.87l-.39-1.1h2.79A1.13,1.13,0,0,0,22.4,9.08a1.09,1.09,0,0,0-.33-.78A1.16,1.16,0,0,0,21.26,8H17.64l-2-5.29A4.72,4.72,0,0,0,14.26.73,3.33,3.33,0,0,0,12.05,0,3.5,3.5,0,0,0,9.82.73a4.72,4.72,0,0,0-1.41,2L6.35,8H2.74A1.08,1.08,0,0,0,2,8.33a1.1,1.1,0,0,0-.33.75,1.12,1.12,0,0,0,1.13,1.11H5.52L5.1,11.26H2.65a1,1,0,0,0-.42.08,1,1,0,0,0-.35.23,1,1,0,0,0-.24.34,1.43,1.43,0,0,0-.09.42,1.11,1.11,0,0,0,1.12,1.09H4.24L1.57,20.51a3.59,3.59,0,0,0-.27,1.25,2.3,2.3,0,0,0,.75,1.59A2.77,2.77,0,0,0,3.83,24a2.41,2.41,0,0,0,2.46-1.74l1-3h9.53l1,3.1A2.44,2.44,0,0,0,20.34,24a2.26,2.26,0,0,0,1.17-.29,3.89,3.89,0,0,0,.82-.8,2,2,0,0,0,.3-1.13,6.49,6.49,0,0,0-.3-1.23Zm-13.48-6L12,5l3.24,9.49Z"/></svg>