<svg id="Слой_1" data-name="Слой 1" xmlns="http://www.w3.org/2000/svg" viewBox="0 0 24 24"><title>ARCМонтажная область 1</title><path d="M15,0a2.19,2.19,0,0,0-2.19,2.19V16.08A2.19,2.19,0,0,0,15,13.89Z"/><path d="M5.07,5.64A2.19,2.19,0,0,1,7.26,3.45V17.94a2.19,2.19,0,0,1-2.19,2.19Z"/><path d="M11.14,5.47A2.19,2.19,0,0,0,9,7.66v8.42a2.19,2.19,0,0,0,2.19-2.19Z"/><path d="M18.88,6.82A2.19,2.19,0,0,0,16.69,9V20a2.19,2.19,0,0,0,2.19-2.19Z"/><path d="M3.39,11.54A2.19,2.19,0,0,0,1.2,13.73v10.1a2.19,2.19,0,0,0,2.19-2.19Z"/><path d="M20.57,14a2.19,2.19,0,0,1,2.19-2.19v10A2.19,2.19,0,0,1,20.57,24Z"/></svg>