<svg id="Слой_1" data-name="Слой 1" xmlns="http://www.w3.org/2000/svg" viewBox="0 0 24 24"><title>ARNМонтажная область 1</title><path d="M6.91,9.12a1.16,1.16,0,0,1,.27.78,1.2,1.2,0,0,1-.31.76l4.65,8.28a1.17,1.17,0,0,1,1,0l4.51-8.14a1.2,1.2,0,0,1-.33-.41,1.24,1.24,0,0,1-.13-.51A1.17,1.17,0,0,1,17,9L12.14.08c-.06,0-.08,0-.09,0ZM6.42,11a1.23,1.23,0,0,1-.6.08l-3,5.26a12.07,12.07,0,0,0,1,1.73l7,1.67a1.15,1.15,0,0,1,.21-.43ZM5.77,8.7a1.2,1.2,0,0,1,.7.09l5-8.79a20.59,20.59,0,0,0-9.4,2.1Zm-.5.21L1.6,2.38a1.11,1.11,0,0,0-.31.4,1.08,1.08,0,0,0-.09.5l.56,8.86a11.1,11.1,0,0,0,.8,3.54l2.75-4.84a1.07,1.07,0,0,1-.38-.41,1.29,1.29,0,0,1-.15-.54,1.17,1.17,0,0,1,.13-.55,1.24,1.24,0,0,1,.36-.43Zm7.92,10.8,7.06-1.83a11.8,11.8,0,0,0,.87-1.49l-3-5.4a1.18,1.18,0,0,1-.59,0L13,19.29A1.28,1.28,0,0,1,13.19,19.71Zm-.89,1.44V24a1.11,1.11,0,0,0,.29-.14l4.35-2.77a11.75,11.75,0,0,0,2.8-2.51l-6.55,1.7a1.21,1.21,0,0,1-.32.57A1.18,1.18,0,0,1,12.3,21.15Zm-.55,0a1.19,1.19,0,0,1-.9-.9L4.36,18.7a11.57,11.57,0,0,0,2.7,2.38l4.35,2.77a1,1,0,0,0,.34.15ZM18.2,8.75l3.69-6.66A20.39,20.39,0,0,0,12.72,0l4.8,8.72A1.21,1.21,0,0,1,18.2,8.75Zm.46.29a1,1,0,0,1,.25.39,1.22,1.22,0,0,1,.09.46,1.14,1.14,0,0,1-.1.45,1.08,1.08,0,0,1-.28.38l2.78,5a11.43,11.43,0,0,0,.84-3.63l.56-8.86a1.15,1.15,0,0,0-.1-.52,1.12,1.12,0,0,0-.34-.41ZM12,5.68a.64.64,0,0,1,.45.19.69.69,0,0,1,.2.45V8.67l3.46,2.13-.42.85-3-1.06v2.34l.86.64v.64L12,13.78l-1.52.43v-.64l.87-.64V10.59l-3.09,1-.38-.8,3.47-2.13V6.32a.61.61,0,0,1,.2-.45A.64.64,0,0,1,12,5.68Z"/></svg>