<svg id="Слой_1" data-name="Слой 1" xmlns="http://www.w3.org/2000/svg" viewBox="0 0 24 24"><title>ARTМонтажная область 1</title><path d="M0,21.36H6.78c0-.27-.11-.55-.5-.55A2.59,2.59,0,0,1,3.64,18c0-.84.19-9.23.28-13.32,2.14,3.91,6.57,12,7.1,12.88a3.14,3.14,0,0,1,2.91,1.21c.39.44.66,0,.55-.17s-1.28-2.29-1.87-3.36l5.5-11.11c.08,4.26.22,13.11.22,14.47,0,1.71-1.59,2-2.31,2.15s-.6.4-.55.55H24c0-.28-.11-.48-.5-.5-1.54,0-2.58-.93-2.58-2.2,0-.93-.22-12.43-.22-13.64S22.29,3.32,23,3.26c.57,0,.64-.46.6-.66H18.22L12.34,14.7,5.51,2.6h-5A.47.47,0,0,0,1,3.15a2.23,2.23,0,0,1,2.37,2c0,1-.22,10.45-.33,12.82a2.83,2.83,0,0,1-2.59,2.8C0,20.9,0,21.22,0,21.36Z"/></svg>