<svg id="Слой_1" data-name="Слой 1" xmlns="http://www.w3.org/2000/svg" viewBox="0 0 24 24"><title>ATNМонтажная область 1</title><path d="M5.34.73a.69.69,0,0,0-1.08.43L0,22.34a.87.87,0,0,0,1.41.83l1.22-1a117.41,117.41,0,0,1,16.07-10.2.71.71,0,0,0,.12-1.18l-1-.82a1,1,0,0,0-1.1-.12,90.18,90.18,0,0,0-11.07,6.6.7.7,0,0,1-1.09-.71L6.23,6.94a1,1,0,0,1,1.65-.63l4.78,3.63a.69.69,0,0,0,.79,0L15,9a.7.7,0,0,0,0-1.15Z"/><path d="M21.73,12.83a1.27,1.27,0,0,0-1.31-.11,75,75,0,0,0-6.82,3.85l-1.08.7a.79.79,0,0,0-.23,1.06.83.83,0,0,0,1,.43c2.53-.91,4.87-1.71,5.91-2A21.73,21.73,0,0,1,23.1,16a1,1,0,0,0,.86-.75,1,1,0,0,0-.36-1.07Z"/></svg>