<svg id="Слой_1" data-name="Слой 1" xmlns="http://www.w3.org/2000/svg" viewBox="0 0 24 24"><title>AXPМонтажная область 1</title><path d="M19.55,6.1c.25.52-.38.91-.82.54A20.56,20.56,0,0,0,12.42,3,20.65,20.65,0,0,0,5.87,1.81.5.5,0,0,1,5.61.86,10.8,10.8,0,0,1,19.55,6.1Z"/><path d="M19.75,16.64c-.4.41-1-.05-.79-.59a20.47,20.47,0,0,0,1.28-7.16,20.76,20.76,0,0,0-1.07-6.58c-.19-.54.41-1,.8-.56a10.79,10.79,0,0,1-.22,14.89Z"/><path d="M9.3,4c.48-.32.27-1-.29-.94A10.78,10.78,0,0,0,.08,15a.5.5,0,0,0,1,0A20.69,20.69,0,0,1,9.3,4Z"/><path d="M3.24,11.75a.5.5,0,0,1,1,0,20.71,20.71,0,0,0,3.13,6.56,20.89,20.89,0,0,0,4.7,4.73.5.5,0,0,1-.32.93A10.8,10.8,0,0,1,3.24,11.75Z"/><path d="M9.92,19.3c-.57,0-.85.66-.34.93a10.78,10.78,0,0,0,14.34-4c.3-.49-.3-.94-.77-.61a20.59,20.59,0,0,1-6,2.89A20.41,20.41,0,0,1,9.92,19.3Z"/></svg>