<svg id="Слой_1" data-name="Слой 1" xmlns="http://www.w3.org/2000/svg" viewBox="0 0 24 24"><title>B2BМонтажная область 1</title><path d="M4.31,1.31H8.58V4.2l3.57,3.41L15.71,4.2V1.31H20V6l-6.24,6L20,18v4.71H15.71V19.8l-3.56-3.41L8.58,19.8v2.89H4.31V18l6.24-6L4.31,6Z"/><path d="M9.89,0H3V6.58L8.66,12,3,17.42V24H9.89V20.36l2.26-2.16,2.26,2.16V24H21.3V17.42L15.64,12,21.3,6.58V0H14.41V3.64L12.15,5.8,9.89,3.64ZM3.71,17.72l6-5.72-6-5.73V.71H9.18V3.94l3,2.85,3-2.85V.71h5.46V6.27l-6,5.73,6,5.72v5.57H15.12V20.06l-3-2.85-3,2.85v3.23H3.71Z"/></svg>