<svg id="Слой_1" data-name="Слой 1" xmlns="http://www.w3.org/2000/svg" viewBox="0 0 24 24"><title>BCAPМонтажная область 1</title><path d="M12.61.62a.31.31,0,0,1-.4-.2.32.32,0,0,1,.61-.2A.32.32,0,0,1,12.61.62Z"/><path d="M11.61,1.73a.39.39,0,0,0,.74-.24.39.39,0,1,0-.74.24Z"/><path d="M11.09,3.18a.44.44,0,0,0,.55.27.43.43,0,0,0,.28-.54.44.44,0,0,0-.83.27Z"/><path d="M10.72,4.78a.53.53,0,0,0,1-.33.53.53,0,1,0-1,.33Z"/><path d="M10.42,6.54a.66.66,0,0,0,.83.42.66.66,0,1,0-.83-.42Z"/><path d="M10.38,8.5a.74.74,0,0,0,.93.47.74.74,0,0,0-.45-1.4A.74.74,0,0,0,10.38,8.5Z"/><path d="M11.44,11.14a.83.83,0,0,1-.51-1.57.83.83,0,0,1,.51,1.57Z"/><path d="M.64,8.08a.32.32,0,0,1-.32.32A.32.32,0,0,1,0,8.08a.32.32,0,0,1,.32-.32A.32.32,0,0,1,.64,8.08Z"/><path d="M1.38,9.37A.39.39,0,1,0,1,9,.38.38,0,0,0,1.38,9.37Z"/><path d="M2.6,10.32A.44.44,0,0,0,3,9.88a.43.43,0,0,0-.43-.43.44.44,0,0,0-.44.43A.44.44,0,0,0,2.6,10.32Z"/><path d="M4,11.16a.53.53,0,0,0,.53-.53.53.53,0,1,0-1.06,0A.53.53,0,0,0,4,11.16Z"/><path d="M5.59,12a.66.66,0,1,0-.67-.66A.67.67,0,0,0,5.59,12Z"/><path d="M7.44,12.64a.74.74,0,1,0-.74-.74A.74.74,0,0,0,7.44,12.64Z"/><path d="M10.28,12.44a.83.83,0,1,1-.82-.82A.83.83,0,0,1,10.28,12.44Z"/><path d="M11.69,15a.83.83,0,1,0-1,.53A.83.83,0,0,0,11.69,15Z"/><path d="M10,15.83a.74.74,0,0,1,.47.93.73.73,0,0,1-.93.47.74.74,0,0,1-.47-.92A.75.75,0,0,1,10,15.83Z"/><path d="M8.86,17.49a.66.66,0,0,1-.41,1.26A.65.65,0,0,1,8,17.92.66.66,0,0,1,8.86,17.49Z"/><path d="M7.66,18.9a.53.53,0,1,1-.33,1,.53.53,0,0,1,.33-1Z"/><path d="M6.48,20.1a.44.44,0,0,1-.27.83.44.44,0,0,1,.27-.83Z"/><path d="M5.24,21a.38.38,0,1,1-.49.25A.39.39,0,0,1,5.24,21Z"/><path d="M4.23,22.22a.31.31,0,0,0-.2-.4.32.32,0,1,0,.2.4Z"/><path d="M12.87,13.6a.82.82,0,1,1,1.33,1,.82.82,0,1,1-1.33-1Z"/><path d="M15.28,15.11a.72.72,0,0,0-1,.16.73.73,0,1,0,1.19.86A.73.73,0,0,0,15.28,15.11Z"/><path d="M16.41,16.71a.65.65,0,0,0-.92.15.66.66,0,0,0,1.07.77A.65.65,0,0,0,16.41,16.71Z"/><path d="M17.2,18.31a.53.53,0,0,0-.74.12.53.53,0,0,0,.86.62A.53.53,0,0,0,17.2,18.31Z"/><path d="M17.85,19.82a.43.43,0,0,0-.6.1.42.42,0,0,0,.1.6.43.43,0,0,0,.6-.09A.44.44,0,0,0,17.85,19.82Z"/><path d="M18.29,21.3a.39.39,0,1,0,.08.54A.38.38,0,0,0,18.29,21.3Z"/><path d="M18.13,22.78a.32.32,0,0,1,.45-.07.32.32,0,0,1,.07.44.3.3,0,0,1-.44.07A.31.31,0,0,1,18.13,22.78Z"/><path d="M20.43,9.61a.43.43,0,0,1,.09-.6.44.44,0,0,1,.61.09.43.43,0,0,1-.7.51Z"/><path d="M22,9.59a.39.39,0,1,1,.54.08A.38.38,0,0,1,22,9.59Z"/><path d="M23.49,9.21a.32.32,0,0,0-.07.44.32.32,0,0,0,.45.07.32.32,0,0,0,.07-.44A.31.31,0,0,0,23.49,9.21Z"/><path d="M18.77,9.9a.54.54,0,0,1,.11-.74.52.52,0,0,1,.74.11.53.53,0,0,1-.11.74A.54.54,0,0,1,18.77,9.9Z"/><path d="M17,10.34a.66.66,0,1,1,.92.14A.66.66,0,0,1,17,10.34Z"/><path d="M15.09,11a.74.74,0,1,1,1.19-.87.74.74,0,0,1-.16,1A.74.74,0,0,1,15.09,11Z"/><path d="M13.24,10.67a.83.83,0,0,0-.17,1.15.82.82,0,1,0,1.33-1A.83.83,0,0,0,13.24,10.67Z"/></svg>