<svg id="Слой_1" data-name="Слой 1" xmlns="http://www.w3.org/2000/svg" viewBox="0 0 24 24"><title>BETМонтажная область 1</title><path d="M11.48,15.13a.56.56,0,0,0,0-.08l.76-1.14.05-.05.07,0h2.06l-2.2-3.3-.07.1-2.4,3.6-.56.85-.05.05H7.62l3.77-5.66H6.72l.06.09a3.12,3.12,0,0,1,.61,1.3,3.55,3.55,0,0,1-.1,1.91,3.35,3.35,0,0,1-1.6,1.89,3.59,3.59,0,0,1-1.05.39,4.13,4.13,0,0,1-.78.08H.06A.05.05,0,0,1,0,15.1V11.4c0-.11,0-.11.11-.11H1.35c.07,0,.1,0,.1.1q0,1.17,0,2.34c0,.12,0,.12.11.12H3.75a2.31,2.31,0,0,0,1.51-.52A2.06,2.06,0,0,0,6,12a2.17,2.17,0,0,0-.27-1.43,2,2,0,0,0-1.34-1,3.08,3.08,0,0,0-.68-.08H.12C0,9.48,0,9.48,0,9.37V8.26c0-.07,0-.08.09-.08H12.14a.23.23,0,0,1,.22.12Q14.18,11,16,13.78a.12.12,0,0,0,0,.05l.07,0c1.41,0,2.82,0,4.22,0a2.16,2.16,0,0,0,1.92-1.11,2,2,0,0,0,.27-.89,2.63,2.63,0,0,0-.07-.93A2.08,2.08,0,0,0,22,10a2.17,2.17,0,0,0-1-.6,2.74,2.74,0,0,0-1,0,2.06,2.06,0,0,0-1.15.52,2.11,2.11,0,0,0-.65,1.1,2.8,2.8,0,0,0,0,1c0,.12,0,.12-.11.12H16.8c-.11,0-.1,0-.12-.11a3.65,3.65,0,0,1,0-1,3.4,3.4,0,0,1,.88-1.86,3.46,3.46,0,0,1,1.51-1A4.42,4.42,0,0,1,19.9,8a4.51,4.51,0,0,1,1.16,0,3.57,3.57,0,0,1,1.5.63,3.4,3.4,0,0,1,1.23,1.64,3.24,3.24,0,0,1,.2,1,3.63,3.63,0,0,1,0,.87,3.33,3.33,0,0,1-.51,1.32A3.49,3.49,0,0,1,21.64,15a3.71,3.71,0,0,1-1,.2H11.49Z"/></svg>