<svg id="Слой_1" data-name="Слой 1" xmlns="http://www.w3.org/2000/svg" viewBox="0 0 24 24"><title>BIXМонтажная область 1</title><path d="M13.13,22.29,20.61,18a1.28,1.28,0,0,0,.94.41A1.23,1.23,0,0,0,21.83,16l0-8.42a1.23,1.23,0,0,0-.31-2.43A1.3,1.3,0,0,0,21,5.3a1.27,1.27,0,0,0-.45.38L13.19,1.52a1.32,1.32,0,0,0,0-.56A1.36,1.36,0,0,0,13,.46a1.34,1.34,0,0,0-.44-.34A1.25,1.25,0,0,0,11,.47a1.36,1.36,0,0,0-.24.5,1.32,1.32,0,0,0,0,.56L3.47,5.66A1.36,1.36,0,0,0,3,5.29a1.25,1.25,0,0,0-.57-.13A1.25,1.25,0,0,0,1.2,6.39a1.24,1.24,0,0,0,.94,1.2V16a1.22,1.22,0,0,0-.67.44,1.16,1.16,0,0,0-.27.76,1.24,1.24,0,0,0,1.25,1.23,1.28,1.28,0,0,0,.91-.38l7.45,4.23a1.27,1.27,0,0,0-.09.47,1.26,1.26,0,0,0,2.51,0A1.29,1.29,0,0,0,13.13,22.29Zm-.34-.45a1.23,1.23,0,0,0-.82-.31,1.27,1.27,0,0,0-.83.31L3.65,17.59a1.17,1.17,0,0,0,0-.74L10.83,12a1.35,1.35,0,0,0,.49.4,1.47,1.47,0,0,0,.61.17,1.5,1.5,0,0,0,.63-.11,1.35,1.35,0,0,0,.52-.36l7.28,4.68a1.28,1.28,0,0,0,0,.75ZM12.94,2l7.37,4.19a1.23,1.23,0,0,0,1,1.39l0,8.41a1.31,1.31,0,0,0-.59.32l-7.28-4.68a1.5,1.5,0,0,0,.09-.52A1.46,1.46,0,0,0,12.26,9.7l0-7.27A1.3,1.3,0,0,0,12.94,2ZM11,2a1.31,1.31,0,0,0,.7.41l0,7.26a1.38,1.38,0,0,0-.54.24,1.4,1.4,0,0,0-.41.43,1.59,1.59,0,0,0-.2.55,1.46,1.46,0,0,0,0,.59L3.36,16.37A1.17,1.17,0,0,0,2.71,16V7.6a1.23,1.23,0,0,0,1-1.42Z"/></svg>