<svg id="Слой_1" data-name="Слой 1" xmlns="http://www.w3.org/2000/svg" viewBox="0 0 24 24"><title>BLTМонтажная область 1</title><path d="M9.64,12a3.64,3.64,0,0,1-.29,1.42,3.75,3.75,0,0,1-.8,1.21,3.81,3.81,0,0,1-1.21.8,3.63,3.63,0,0,1-1.42.28C2.36,15.71,0,11.92,0,11.92A7.6,7.6,0,0,1,5.92,8.29,3.71,3.71,0,0,1,9.64,12ZM12,14.36a3.64,3.64,0,0,1,1.42.29,3.75,3.75,0,0,1,1.21.8,3.81,3.81,0,0,1,.8,1.21,3.63,3.63,0,0,1,.28,1.42c0,3.56-3.79,5.92-3.79,5.92a7.6,7.6,0,0,1-3.63-5.92A3.71,3.71,0,0,1,12,14.36ZM14.36,12a3.64,3.64,0,0,1,.29-1.42,3.75,3.75,0,0,1,.8-1.21,3.81,3.81,0,0,1,1.21-.8,3.63,3.63,0,0,1,1.42-.28c3.56,0,5.92,3.79,5.92,3.79a7.6,7.6,0,0,1-5.92,3.63A3.71,3.71,0,0,1,14.36,12ZM11.92,9.64a3.64,3.64,0,0,1-1.42-.29,3.63,3.63,0,0,1-2-2,3.63,3.63,0,0,1-.28-1.42C8.21,2.36,12,0,12,0a7.6,7.6,0,0,1,3.63,5.92,3.71,3.71,0,0,1-3.71,3.72Z"/></svg>