<svg id="Слой_1" data-name="Слой 1" xmlns="http://www.w3.org/2000/svg" viewBox="0 0 24 24"><title>BLZМонтажная область 1</title><path d="M6.76,17.2a2.15,2.15,0,0,0-.66-.45,2,2,0,0,0-1.56,0,2.15,2.15,0,0,0-.66.45,2.1,2.1,0,0,0,0,2.94,2,2,0,0,0,2.88,0A2.12,2.12,0,0,0,6.76,17.2ZM20,3.27a2,2,0,0,0-2.22.45,2.1,2.1,0,0,0,0,2.94A2,2,0,0,0,20,7.11a2.1,2.1,0,0,0,0-3.84ZM6.49,15.6l2.15,2.19,2-2a3.84,3.84,0,0,1-1.3-.88,3.94,3.94,0,0,1-.85-1.32ZM18.13,8.24,16,6.05l-2,2a3.67,3.67,0,0,1,1.3.87,3.75,3.75,0,0,1,.85,1.32Zm-.83,9.53a2.13,2.13,0,0,0-.11,1.2A2.07,2.07,0,0,0,17.75,20a2,2,0,0,0,2.88,0A2.14,2.14,0,0,0,21.19,19a2.23,2.23,0,0,0-.12-1.2,2,2,0,0,0-.75-.93,2,2,0,0,0-1.13-.35A2,2,0,0,0,17.3,17.77ZM3.64,4.21a2.14,2.14,0,0,0-.11,1.2,2,2,0,0,0,2,1.67A2,2,0,0,0,7,6.47a2.07,2.07,0,0,0,.56-1.06,2.14,2.14,0,0,0-.11-1.2,2,2,0,0,0-3.77,0ZM15.82,17.7,18,15.51l-2-2a3.92,3.92,0,0,1-2.16,2.19Zm-7-11.77L6.66,8.12l2,2a3.75,3.75,0,0,1,.85-1.32,3.81,3.81,0,0,1,1.3-.87Zm3.53-1.77a2.06,2.06,0,0,0,2-2.08,2.12,2.12,0,0,0-.6-1.47,2,2,0,0,0-.66-.45A1.91,1.91,0,0,0,12.34,0a2.06,2.06,0,0,0-2,2.08A2.06,2.06,0,0,0,12.34,4.16Zm2,17.76a2.12,2.12,0,0,0-.6-1.47,2.15,2.15,0,0,0-.66-.45,2.09,2.09,0,0,0-.78-.16,2.08,2.08,0,1,0,2,2.08ZM13.08,5.24H11.79V7.82a3.5,3.5,0,0,1,1.29,0Zm0,11.06a4,4,0,0,1-1.29,0v2.57h1.29Zm6.4-4.07a2,2,0,0,0,.58.81,2.09,2.09,0,0,0,.9.43,2,2,0,0,0,1-.05,2,2,0,0,0,.85-.52,2.1,2.1,0,0,0-.66-3.39,2,2,0,0,0-2.22.45A2.14,2.14,0,0,0,19.36,11,2.06,2.06,0,0,0,19.48,12.23ZM.6,11.78a2.06,2.06,0,0,0,2,2.08,2,2,0,0,0,1.44-.61A2.08,2.08,0,0,0,2.64,9.71,2.06,2.06,0,0,0,.6,11.78Zm18.1.66V11.13H16.18a4.11,4.11,0,0,1,0,1.31Zm-10.37,0a3.61,3.61,0,0,1,0-1.31H5.8v1.31Zm3.95,2.44a2.95,2.95,0,1,0-2.9-2.94A2.92,2.92,0,0,0,12.28,14.88Z"/></svg>