<svg id="Слой_1" data-name="Слой 1" xmlns="http://www.w3.org/2000/svg" xmlns:xlink="http://www.w3.org/1999/xlink" viewBox="0 0 24 24"><defs><style>.cls-1{fill:none;}.cls-2{clip-path:url(#clip-path);}</style><clipPath id="clip-path"><rect class="cls-1" width="24" height="24"/></clipPath></defs><title>BPTМонтажная область 1</title><g class="cls-2"><path d="M22.78,17.17c0-.05,0-.08.07-.13A12,12,0,0,0,24,12.45a11.8,11.8,0,0,0-.74-4.67,11.88,11.88,0,0,0-6.37-6.73h0c-.12-.06-.24-.1-.36-.15L16,.71,15.38.49a14.26,14.26,0,0,0-1.6-.36A12,12,0,0,0,11.89,0h-.4A12.32,12.32,0,0,0,9.14.34,13.47,13.47,0,0,0,7.51.87a9.41,9.41,0,0,0-1,.47l-.64.35-.35.22-.62.42c-.31.23-.62.48-.91.73s-.56.53-.82.81a10.64,10.64,0,0,0-.75.91,4.15,4.15,0,0,0-.3.43c-.07.11-.16.22-.23.32s-.1.19-.16.28a3,3,0,0,0-.21.4,6.1,6.1,0,0,0-.37.72A.42.42,0,0,0,1,7.07,1.34,1.34,0,0,1,1,7.25,11.8,11.8,0,0,0,.33,9.18,13.23,13.23,0,0,0,0,11.44c0,.17,0,.33,0,.49s0,.43,0,.65,0,.34,0,.51.05.43.08.64,0,.33.07.49l.15.64c.05.16.08.31.12.47s.14.44.21.66.1.27.16.41.18.44.28.66a10.71,10.71,0,0,0,.53,1c.08.13.15.26.23.38l.39.56.3.4.4.48q.38.42.78.81c.28.26.57.51.87.74s.39.3.6.43a1.53,1.53,0,0,0,.16.11,11.89,11.89,0,0,0,9.09,1.76,11.89,11.89,0,0,0,7.59-5.3h0c0-.06.07-.13.12-.2l.25-.44c.12-.2.24-.42.34-.63ZM7.45,22.08A11,11,0,0,1,4.38,20L4,19.67l-.36-.4c-.11-.14-.25-.29-.37-.43s-.18-.25-.27-.37L2.66,18l-.21-.35c-.11-.19-.22-.38-.32-.58A3.78,3.78,0,0,1,2,16.67c-.09-.21-.18-.41-.26-.62s-.09-.25-.13-.37-.15-.41-.21-.62l-.11-.41c0-.2-.09-.41-.13-.61s-.05-.29-.08-.44S1,13.2,1,13s0-.31,0-.46,0-.41,0-.61,0-.3,0-.44,0-.43,0-.65,0-.26.05-.4c.05-.35.12-.69.2-1s.13-.49.21-.73.07-.2.1-.3a9.57,9.57,0,0,1,.42-1c.11-.23.22-.46.35-.68l.2-.35a10.35,10.35,0,0,1,.64-.94,9,9,0,0,1,.69-.84L4.3,4c.26-.25.54-.49.83-.72a1.94,1.94,0,0,1,.29-.21A5.45,5.45,0,0,1,6,2.69c.3-.19.6-.36.91-.53s.62-.29.94-.42a10.29,10.29,0,0,1,2-.59c.21,0,.41-.08.62-.1L10.84,1l.68-.05h.37l.7,0L13,1A10,10,0,0,1,14,1.14a10.16,10.16,0,0,1,1.09.26,9.9,9.9,0,0,1,1,.37,10.92,10.92,0,0,1,3.72,2.49A11,11,0,0,1,23,12.44a11.14,11.14,0,0,1-1.1,4.35c-.1.21-.22.4-.32.6s-.15.26-.23.39a11.07,11.07,0,0,1-13.94,4.3Zm4.53-.9A9.17,9.17,0,0,0,19.6,6.89,9.17,9.17,0,0,0,10.18,3,9.19,9.19,0,0,0,5.47,5.5,9.3,9.3,0,0,0,3,10.21a9.19,9.19,0,0,0,9,11ZM12,5.82h0A6.18,6.18,0,0,1,14.33,17.7a6.11,6.11,0,0,1-3.56.35,6.16,6.16,0,0,1-4.5-8.42A6.19,6.19,0,0,1,12,5.82Z"/></g></svg>