<svg id="Слой_1" data-name="Слой 1" xmlns="http://www.w3.org/2000/svg" viewBox="0 0 24 24"><title>BQXМонтажная область 1</title><path d="M21.07,1.44A7.4,7.4,0,0,1,23.2,4,7.12,7.12,0,0,1,24,7.55a7.24,7.24,0,0,1-1.06,3.53,6.44,6.44,0,0,1-.65.9,7.22,7.22,0,0,1,1.11,1.82,7.28,7.28,0,0,1-5.21,10A7.3,7.3,0,0,1,12,22.25a7.41,7.41,0,0,1-2,1.22,7.23,7.23,0,0,1-4.24.37,7.28,7.28,0,0,1-5.19-10A7.15,7.15,0,0,1,1.72,12,7.25,7.25,0,0,1,.17,5.93a7.3,7.3,0,0,1,2-3.73l0,0,0,0A7.3,7.3,0,0,1,12,1.63l.07.06a7.64,7.64,0,0,1,1.4-.91A7.21,7.21,0,0,1,17.35,0a7.29,7.29,0,0,1,3.72,1.41ZM9.46,13.51a2.6,2.6,0,0,1-2.17,1.17A2,2,0,0,0,6.14,15a2.1,2.1,0,0,0-.74.9,2.06,2.06,0,0,0,0,1.58,2.22,2.22,0,0,0,.42.64,2,2,0,0,0,2.08.53,2,2,0,0,0,.53-.26,2.06,2.06,0,0,0,.75-.9,2.14,2.14,0,0,0,.16-.79,2.65,2.65,0,1,1,5.3-.08A2,2,0,0,0,15,17.78a2.12,2.12,0,0,0,.9.75,2.05,2.05,0,0,0,.81.16,2,2,0,0,0,.8-.17,1.94,1.94,0,0,0,.66-.45,2,2,0,0,0,.42-.64,2.08,2.08,0,0,0,.15-1,2,2,0,0,0-.34-.94,2.17,2.17,0,0,0-.9-.74,2,2,0,0,0-.8-.16,2.64,2.64,0,0,1,0-5.27,1.87,1.87,0,0,0,.62-.1A2,2,0,0,0,17.86,9a2.1,2.1,0,0,0,.74-.9,2,2,0,0,0,.16-.87,2.15,2.15,0,0,0-.22-.86,2.2,2.2,0,0,0-.61-.71,2,2,0,0,0-.87-.37,2,2,0,0,0-.95.06,2.24,2.24,0,0,0-.54.26,2,2,0,0,0-.74.9,2,2,0,0,0-.16.79,2.63,2.63,0,0,1-5.25,0,1.91,1.91,0,0,0-.34-1.14,2.15,2.15,0,0,0-.91-.75,2,2,0,0,0-.79-.16,2,2,0,0,0-1.45.6l0,0,0,0a2,2,0,0,0-.25,2.58,2,2,0,0,0,.9.75,2,2,0,0,0,.79.16A2.61,2.61,0,0,1,9.93,12,2.57,2.57,0,0,1,9.46,13.51Z"/></svg>