<svg id="Слой_1" data-name="Слой 1" xmlns="http://www.w3.org/2000/svg" viewBox="0 0 24 24"><title>BRDМонтажная область 1</title><path d="M1,3v18a1.36,1.36,0,0,0,1.36,1.35H12c6.06,0,8.31-1,9.69-2.34a4.72,4.72,0,0,0,1-1.61A4.47,4.47,0,0,0,23,16.58c0-2.75-1.7-4.12-5.07-4.7,3.49-.72,4.78-2.34,4.78-4.74a4.46,4.46,0,0,0-1.27-3.37C20,2.38,18,1.7,12.18,1.7H2.36A1.35,1.35,0,0,0,1,3Zm7.46,7.72v2.35a.74.74,0,0,0,.06.36.75.75,0,0,0,.2.3.94.94,0,0,0,.67.27h3.08c2,0,3.44.05,4.13.73A1.65,1.65,0,0,1,17.05,16a1.63,1.63,0,0,1-.09.66,1.58,1.58,0,0,1-.36.56c-.68.68-2.15.83-4.13.83H6.64V6.11h5.89c1.82,0,3.17.11,3.81.73A1.48,1.48,0,0,1,16.72,8a1.54,1.54,0,0,1-.41,1.16c-.63.65-2,.73-3.78.73H9.36A.83.83,0,0,0,9,9.93a1,1,0,0,0-.3.19,1,1,0,0,0-.19.29A.84.84,0,0,0,8.46,10.76Z"/></svg>