<svg id="Слой_1" data-name="Слой 1" xmlns="http://www.w3.org/2000/svg" viewBox="0 0 24 24"><title>C20Монтажная область 1</title><path d="M16.77,8.72a1.5,1.5,0,0,0-1,.07,2.2,2.2,0,0,0-1.16,1.34,5.78,5.78,0,0,0-.26,2.64,3.64,3.64,0,0,0,.6,1.78,1.6,1.6,0,0,0,2.8,0,4.67,4.67,0,0,0,.67-2.49,4.45,4.45,0,0,0-.84-2.83A1.56,1.56,0,0,0,16.77,8.72Zm.61,3.21h0a7.49,7.49,0,0,1-.13,1.89,2.77,2.77,0,0,1-.34.88.58.58,0,0,1-1,0,2.51,2.51,0,0,1-.37-1,10,10,0,0,1,0-3.57,2.76,2.76,0,0,1,.28-.79c.12-.22.27-.43.56-.42a.69.69,0,0,1,.6.42,4.49,4.49,0,0,1,.43,1.87c0,.17,0,.35,0,.49Z"/><path d="M13.73,13.7l-.05,0h-.07l-.07,0,0,0a.18.18,0,0,0-.06.09c0,.15-.07.3-.1.45s-.1.22-.23.22H11a.49.49,0,0,1,.22-.27,10.52,10.52,0,0,0,1.86-2,3.54,3.54,0,0,0,.57-1.13,1.9,1.9,0,0,0-1.19-2.34A1.63,1.63,0,0,0,10.64,9a1.68,1.68,0,0,0-.52,1.79,1,1,0,0,0,.87.75h0c.14,0,.29,0,.34-.17a.76.76,0,0,0-.48-.78c-.43-.11-.55-.34-.41-.76A1.26,1.26,0,0,1,11.69,9c.49,0,.84.41.94,1,0,0,0,.06,0,.09a.34.34,0,0,0,0,.1v.09A3.72,3.72,0,0,1,11.56,13c-.37.44-.76.87-1.15,1.3-.19.2-.38.41-.56.62l0,0c-.05,0-.1.1-.06.18s.1.07.17.07h3.58c.12,0,.25-.05.25-.19,0-.41,0-.82,0-1.24a.13.13,0,0,0,0-.06Z"/><path d="M9.41,13.36c-.13,0-.18.1-.2.2a2.1,2.1,0,0,1-.27.72,1.19,1.19,0,0,1-1.13.7c-.56-.05-.81-.46-1-.94a5.42,5.42,0,0,1-.24-2V11.8a4.51,4.51,0,0,1,0-.52A3.86,3.86,0,0,1,7,9.52a.85.85,0,0,1,1.52-.07,2.86,2.86,0,0,1,.36.72L9,10.3c0,.12.1.24.25.19s.1-.17.09-.28a4.66,4.66,0,0,1,0-1.12c0-.14.07-.3-.1-.38s-.27,0-.38.12-.23.21-.39.06a1.56,1.56,0,0,0-2,.37,3.81,3.81,0,0,0-.87,2.36,4.1,4.1,0,0,0,.81,3,1.78,1.78,0,0,0,1.85.66,2.08,2.08,0,0,0,1.32-1.68v0C9.53,13.5,9.54,13.39,9.41,13.36Z"/><path d="M22.12,5.79,19.31,4.18h0L19,4,12.23.08a.4.4,0,0,0-.48,0Q6.83,2.93,1.92,5.75a.64.64,0,0,0-.37.64c0,1.4,0,2.8,0,4.21V12h0V13.5c0,1.28,0,2.55,0,3.83a1.06,1.06,0,0,0,.65,1.09q4.68,2.67,9.32,5.38h0l.19.11a.47.47,0,0,0,.55,0l3-1.74.39-.23.72-.41c1.91-1.12,3.84-2.23,5.76-3.33a.51.51,0,0,0,.24-.22.61.61,0,0,0,.08-.32q0-5.65,0-11.31A.58.58,0,0,0,22.12,5.79ZM19.49,15.94a.6.6,0,0,1-.33.59q-3.5,2-7,4a.36.36,0,0,1-.42,0L7.14,17.85l-.23-.13-.39-.22c-.55-.33-1.11-.65-1.67-1a.63.63,0,0,1-.38-.64c0-.94,0-1.89,0-2.84h0V11h0c0-1,0-1.93,0-2.89a.61.61,0,0,1,.33-.6c2.29-1.3,4.57-2.62,6.84-3.93a.57.57,0,0,1,.65,0q3.39,2,6.8,3.93a.67.67,0,0,1,.39.66Z"/></svg>