<svg id="Слой_1" data-name="Слой 1" xmlns="http://www.w3.org/2000/svg" viewBox="0 0 24 24"><title>CASМонтажная область 1</title><path d="M24,6.72A2.86,2.86,0,0,0,20.07,4.1,11.21,11.21,0,0,0,.91,12,11,11,0,0,0,1.3,15a2.84,2.84,0,0,0,1.54,5.22,2.9,2.9,0,0,0,1.28-.3A11.22,11.22,0,0,0,23.34,12a11.34,11.34,0,0,0-.42-3A2.84,2.84,0,0,0,24,6.72ZM4.4,18.32a1.88,1.88,0,0,1-1,.77A1.86,1.86,0,0,1,1,17.33,1.82,1.82,0,0,1,1.62,16a1.77,1.77,0,0,1,1.15-.46h.07A1.85,1.85,0,0,1,4.4,18.32ZM12.12,22a9.92,9.92,0,0,1-7-2.91,2.89,2.89,0,0,0,.6-1.75,2.84,2.84,0,0,0-2.84-2.84,2.22,2.22,0,0,0-.37,0A9.87,9.87,0,0,1,2.15,12a10,10,0,0,1,16.9-7.18,2.83,2.83,0,0,0,2.11,4.73,3.18,3.18,0,0,0,.62-.06A9.87,9.87,0,0,1,22.1,12,10,10,0,0,1,12.12,22ZM22.57,7.92a1.85,1.85,0,0,1-1.09.62,1.66,1.66,0,0,1-.32,0,1.84,1.84,0,0,1-1.84-1.85,1.82,1.82,0,0,1,.41-1.16,1.87,1.87,0,0,1,1.07-.65,2.19,2.19,0,0,1,.36,0,1.84,1.84,0,0,1,1.41,3Z"/><path d="M14.88,8.59a4.67,4.67,0,0,0-.58-.41V6.39H13V7.66a4.71,4.71,0,0,0-1-.11,4.37,4.37,0,0,0-1.15.15V6.39H9.56V8.28a4.48,4.48,0,0,0,0,7.47v1.94h1.3V16.33a4.37,4.37,0,0,0,1.15.15,4.71,4.71,0,0,0,1-.11v1.32H14.3V15.85a4.67,4.67,0,0,0,.58-.41v.82h1.6V8.13h-1.6ZM12,14.83A2.82,2.82,0,1,1,14.82,12,2.81,2.81,0,0,1,12,14.83Z"/></svg>