<svg id="Слой_1" data-name="Слой 1" xmlns="http://www.w3.org/2000/svg" viewBox="0 0 24 24"><title>CDTМонтажная область 1</title><path d="M11.66,24v-.5h0c0-.42,0-.84,0-1.26,0-3.27,0-6.55,0-9.82a.6.6,0,0,0-.34-.59L1.53,6.19c-.22-.13-.26-.23-.09-.43a2.44,2.44,0,0,1,.64-.51L10.59.33A3.66,3.66,0,0,1,11.38,0H12a11.73,11.73,0,0,1,1.86,1c.33.2.66.4,1,.58l.28.16h0l.25.15c.16.08.13.14,0,.22-.54.31-1.08.62-1.61.94a.36.36,0,0,1-.39,0L13,2.77h0c-.26-.14-.51-.28-.75-.44a1,1,0,0,0-1.18,0L6.23,5.13l-.13.08h0c-.21.11-.41.23-.61.36s-.32.42,0,.61L9.12,8.27l1,.55,3.34,1.93a.42.42,0,0,1,.2.44V20c0,.67.15.76.73.43q2.74-1.57,5.48-3.16a1,1,0,0,0,.52-1c0-.45,0-.89,0-1.34a.38.38,0,0,1,0-.21.33.33,0,0,1,.16-.15c.51-.29,1-.58,1.52-.88.16-.09.24-.07.24.13v.92h0c0,.79,0,1.58,0,2.37a1.76,1.76,0,0,1-1,1.53L15.63,22l-2.9,1.67a5.24,5.24,0,0,1-.68.31Z"/><path d="M2,7.52l.35.21.32.17c.16.09.24.13.28.2a.74.74,0,0,1,0,.41v.32c0,2.51,0,5,0,7.51a1.1,1.1,0,0,0,.61,1l3.67,2.11h0l3.22,1.86a.37.37,0,0,1,.22.37v1.73c0,.25-.07.27-.27.15L5.81,20.92l-1.16-.67h0L2.12,18.79A1.9,1.9,0,0,1,1,17.24a.49.49,0,0,0,0-.11V7A5.26,5.26,0,0,1,2,7.52Z"/><path d="M22.32,10.35V7.07a1.91,1.91,0,0,0-1-1.81L16.7,2.61a.34.34,0,0,0-.41,0l-.92.54-.55.31-.06,0c-.07,0-.14.06-.14.14s.08.12.15.16l.07,0,4.37,2.52a2.56,2.56,0,0,1,.48.33,2,2,0,0,1,.67,1.62v5.08c0,.31,0,.33.31.18l.45-.27c.31-.18.61-.36.93-.53a.49.49,0,0,0,.28-.49C22.32,11.63,22.32,11,22.32,10.35Z"/></svg>