<svg id="Слой_1" data-name="Слой 1" xmlns="http://www.w3.org/2000/svg" viewBox="0 0 24 24"><title>CFIМонтажная область 1</title><path d="M3.76,17.67a6.16,6.16,0,0,0,2.35.47h0a6.09,6.09,0,0,0,2.35-.47,6,6,0,0,0,2-1.35l.21-.21L9.52,15l-.21.21a4.42,4.42,0,0,1-1.46,1,4.48,4.48,0,0,1-4.94-1,4.69,4.69,0,0,1,0-6.52,4.62,4.62,0,0,1,1.47-1,4.48,4.48,0,0,1,3.47,0,4.58,4.58,0,0,1,1.46,1l.21.21,1.13-1.14-.21-.21a6.16,6.16,0,0,0-2-1.35,6.09,6.09,0,0,0-4.69,0,6.32,6.32,0,0,0-2,1.35,6.33,6.33,0,0,0,0,8.8A6.22,6.22,0,0,0,3.76,17.67Z"/><path d="M15.54,17.67a6.09,6.09,0,0,0,2.35.47,6,6,0,0,0,4.33-1.82,6.25,6.25,0,0,0-2-10.15,6.09,6.09,0,0,0-4.69,0,6.16,6.16,0,0,0-2,1.35l-4.33,4.4,4.33,4.4A6,6,0,0,0,15.54,17.67Zm-.85-2.49-3.21-3.26,3.21-3.26a4.45,4.45,0,0,1,6.39,0,4.66,4.66,0,0,1,0,6.52,4.32,4.32,0,0,1-1.46,1,4.48,4.48,0,0,1-3.47,0A4.32,4.32,0,0,1,14.69,15.18Z"/></svg>