<svg id="Слой_1" data-name="Слой 1" xmlns="http://www.w3.org/2000/svg" viewBox="0 0 24 24"><title>CHSBМонтажная область 1</title><path d="M20.82,6.92V3.6L14.55,0,12.08,1.71,9.62,0,3.34,3.59V6.91L.5,8.59v6.88l2.84,1.66v3.56L9.48,24l2.59-1.7L14.69,24l6.13-3.3V17.15l2.85-1.67V8.6ZM14.61,1.31l5.1,2.93v2l-6.6-3.91Zm-2,8.86V3.36L18.77,7l-6,3.89a1.18,1.18,0,0,0-.67-.2,1.24,1.24,0,0,0-.66.19L5.4,7l6.13-3.63v6.81ZM4.45,4.24,9.56,1.31l1.5,1L4.45,6.26Zm5,18.45L4.45,20V17.78L11,21.63ZM19.71,20l-5,2.67-1.61-1.06,6.57-3.85Zm2.85-8.69H19.29a1.24,1.24,0,0,0-1.1-.67,1.25,1.25,0,1,0,1.13,1.78h3.24v2.38l-2.87,1.68-3.46-2.29a1.64,1.64,0,0,0,0-.22A1.25,1.25,0,1,0,15,15.26a1.23,1.23,0,0,0,.57-.14l3.05,2-6,3.5V13.84H11.53v6.8l-6-3.5,3.05-2A1.25,1.25,0,1,0,7.92,14a1.49,1.49,0,0,0,0,.21L4.48,16.51,1.61,14.83V12.45H4.84a1.26,1.26,0,1,0,0-1.11H1.61V9.23L4.33,7.62l6.51,4.2v.11a1.25,1.25,0,1,0,2.49,0v-.1l6.51-4.2,2.72,1.6Z"/></svg>