<svg id="Слой_1" data-name="Слой 1" xmlns="http://www.w3.org/2000/svg" viewBox="0 0 24 25"><title>COVМонтажная область 1</title><path d="M7.06,3.7a10.79,10.79,0,0,1,5.52-2.43c.22,0,.45-.05.68-.06a10.47,10.47,0,0,1,1.12,0l.68,0a10.79,10.79,0,0,1,5.68,2.3.58.58,0,0,0,.83-.09A.57.57,0,0,0,21.7,3a.62.62,0,0,0-.22-.4A11.91,11.91,0,0,0,15.16.06l-.74,0H14c-.28,0-.56,0-.83,0L12.42.1A12,12,0,0,0,6.3,2.79a.57.57,0,0,0-.18.39.6.6,0,0,0,.51.62.62.62,0,0,0,.42-.1Z"/><path d="M20.05,4a5.48,5.48,0,0,1,.58.48,7.48,7.48,0,0,1,.89.89.56.56,0,0,1,.14.2.61.61,0,0,1,0,.24.59.59,0,0,1-.05.23.55.55,0,0,1-.15.19.47.47,0,0,1-.2.12.5.5,0,0,1-.24,0,.62.62,0,0,1-.23-.07.74.74,0,0,1-.19-.16,8.3,8.3,0,0,0-.78-.79l-.51-.42A8.82,8.82,0,0,0,15,3.21.62.62,0,0,1,14.65,3a.56.56,0,0,1-.12-.43.56.56,0,0,1,.19-.38A.54.54,0,0,1,15.11,2h.07A9.88,9.88,0,0,1,20.05,4Z"/><path d="M4.55,11.49A.6.6,0,0,0,5,11.36.55.55,0,0,0,5.21,11,8.81,8.81,0,0,1,6.78,6.88a5.34,5.34,0,0,1,.41-.53A7.28,7.28,0,0,1,8,5.54l.5-.44A8.87,8.87,0,0,1,12.6,3.26a.54.54,0,0,0,.21-.08A.5.5,0,0,0,13,3a.67.67,0,0,0,.1-.21.6.6,0,0,0,0-.23A.58.58,0,0,0,13,2.37a.61.61,0,0,0-.15-.17.67.67,0,0,0-.21-.1.65.65,0,0,0-.24,0,10.12,10.12,0,0,0-4.7,2.09c-.19.16-.39.33-.57.51a10.61,10.61,0,0,0-.86.91c-.16.19-.31.39-.46.6A10,10,0,0,0,4,10.84a.61.61,0,0,0,.13.43A.62.62,0,0,0,4.55,11.49Z"/><path d="M11,12.15a.59.59,0,0,1,.4-.16.54.54,0,0,1,.22,0,.51.51,0,0,1,.31.31.54.54,0,0,1,0,.22V14a.54.54,0,0,1-.17.4.56.56,0,0,1-.4.17.57.57,0,0,1-.41-.17.54.54,0,0,1-.17-.4V12.56A.58.58,0,0,1,11,12.15Z"/><path d="M13.54,10.22a.49.49,0,0,0-.21,0,.5.5,0,0,0-.19.13.54.54,0,0,0-.16.4V14a.56.56,0,0,0,.17.39.59.59,0,0,0,.4.16.55.55,0,0,0,.39-.16.57.57,0,0,0,.18-.39V10.79a.57.57,0,0,0,0-.22.59.59,0,0,0-.13-.19.62.62,0,0,0-.19-.12A.54.54,0,0,0,13.54,10.22Z"/><path d="M15.53,8.08A.5.5,0,0,1,15.74,8a.59.59,0,0,1,.23.05.44.44,0,0,1,.18.12.5.5,0,0,1,.13.19.78.78,0,0,1,0,.22V14a.59.59,0,0,1-.18.39.56.56,0,0,1-.39.15.55.55,0,0,1-.57-.54V8.61a.41.41,0,0,1,0-.22.76.76,0,0,1,.12-.19A.62.62,0,0,1,15.53,8.08Z"/><path d="M22,10.81a8,8,0,0,0-1.37-3.44,6.9,6.9,0,0,0-.47-.6,8.6,8.6,0,0,0-.9-.91c-.2-.16-.4-.32-.61-.46A8,8,0,0,0,15.19,4,6.53,6.53,0,0,0,14.43,4H14a7.94,7.94,0,0,0-.85,0l-.76.12A8,8,0,0,0,9.13,5.57c-.21.16-.4.32-.59.49A8.65,8.65,0,0,0,7.67,7c-.15.2-.31.4-.45.62A7.84,7.84,0,0,0,6,10.81a6.27,6.27,0,0,0-.08.77c0,.14,0,.28,0,.42a8.08,8.08,0,0,0,.05.85,7,7,0,0,0,.11.76,7.93,7.93,0,0,0,1.3,3c.15.21.31.42.47.61a7.74,7.74,0,0,0,.91.9,5.39,5.39,0,0,0,.6.47,7.93,7.93,0,0,0,3,1.3,8,8,0,0,0,1.62.16h.42c.25,0,.51,0,.77-.07a8,8,0,0,0,3.18-1.21,7.17,7.17,0,0,0,.63-.45,7.58,7.58,0,0,0,.93-.86c.18-.19.34-.39.5-.59a8.24,8.24,0,0,0,1.47-3.26c.05-.26.09-.51.12-.77a7.94,7.94,0,0,0,0-.85c0-.14,0-.28,0-.42A6.51,6.51,0,0,0,22,10.81Zm-1.14,1.91c0,.22-.06.44-.1.66a6.94,6.94,0,0,1-1.25,2.78l-.42.5a8,8,0,0,1-.8.74,4,4,0,0,1-.54.38,6.68,6.68,0,0,1-2.72,1l-.65.07H14c-.24,0-.48,0-.72,0s-.44-.06-.66-.11a6.75,6.75,0,0,1-2.57-1.1l-.52-.4a9.32,9.32,0,0,1-.77-.77c-.14-.17-.27-.34-.4-.52a6.75,6.75,0,0,1-1.1-2.57,5.13,5.13,0,0,1-.1-.65,6,6,0,0,1,0-.73c0-.12,0-.24,0-.36s0-.44.06-.65a7,7,0,0,1,1-2.72,5.17,5.17,0,0,1,.39-.53,5.62,5.62,0,0,1,.74-.8c.16-.15.33-.29.5-.42a6.82,6.82,0,0,1,2.78-1.26l.65-.1c.24,0,.48,0,.73,0h.36l.65.07A6.94,6.94,0,0,1,18,6.36c.18.13.36.26.52.4a7.88,7.88,0,0,1,.76.77,6.54,6.54,0,0,1,.4.52A6.83,6.83,0,0,1,20.81,11c0,.21.05.44.06.65a1.15,1.15,0,0,0,0,.19V12A5.79,5.79,0,0,1,20.84,12.72Z"/><path d="M7.36,19.52c.18.16.38.33.58.48a10,10,0,0,0,4.47,1.9.61.61,0,0,0,.43-.11.63.63,0,0,0,.23-.38A.59.59,0,0,0,13,21a.56.56,0,0,0-.38-.24,8.93,8.93,0,0,1-3.94-1.68l-.51-.42a9.81,9.81,0,0,1-.79-.79q-.21-.24-.42-.51A8.92,8.92,0,0,1,5.26,13.4.59.59,0,0,0,5,13a.6.6,0,0,0-.43-.1.59.59,0,0,0-.38.23.66.66,0,0,0-.12.43A10,10,0,0,0,6,18.05a6.86,6.86,0,0,0,.48.59A10.44,10.44,0,0,0,7.36,19.52Z"/><path d="M20.66,17.91a.6.6,0,0,1,.24-.05.59.59,0,0,1,.4.15.61.61,0,0,1,.19.41.62.62,0,0,1-.16.43,9.25,9.25,0,0,1-.91.86c-.19.16-.4.31-.6.46A10.06,10.06,0,0,1,15.18,22a.53.53,0,0,1-.25,0,.44.44,0,0,1-.22-.1.42.42,0,0,1-.17-.18.63.63,0,0,1-.08-.23.5.5,0,0,1,0-.24A.53.53,0,0,1,14.6,21a.48.48,0,0,1,.2-.15.61.61,0,0,1,.24-.06,8.81,8.81,0,0,0,4.09-1.57l.53-.41a9.58,9.58,0,0,0,.8-.76A.56.56,0,0,1,20.66,17.91Z"/><path d="M20.52,20.63A10.74,10.74,0,0,1,15,22.77l-.67,0a10.47,10.47,0,0,1-1.12,0c-.22,0-.45,0-.67-.06a10.83,10.83,0,0,1-5.31-2.26.54.54,0,0,0-.37-.13.57.57,0,0,0-.25.06.83.83,0,0,0-.21.16.58.58,0,0,0-.12.44.55.55,0,0,0,.21.39,11.89,11.89,0,0,0,5.9,2.51l.74.07a10.3,10.3,0,0,0,1.24,0c.25,0,.5,0,.74,0a11.9,11.9,0,0,0,6.08-2.37.57.57,0,0,0,.22-.38.59.59,0,0,0-.11-.43.57.57,0,0,0-.39-.23.56.56,0,0,0-.43.1Z"/><path d="M3.21,12.73c0,.23,0,.46.06.68a10.83,10.83,0,0,0,2.26,5.31.61.61,0,0,1,.11.43.6.6,0,0,1-.22.39.59.59,0,0,1-.42.13.61.61,0,0,1-.4-.21,12.07,12.07,0,0,1-2.5-5.89c0-.25-.06-.5-.07-.75s0-.55,0-.82,0-.28,0-.42,0-.49.05-.74A12,12,0,0,1,4.42,4.77a.68.68,0,0,1,.21-.17.6.6,0,0,1,.27-.06.74.74,0,0,1,.35.1A.62.62,0,0,1,5.47,5a.61.61,0,0,1-.11.43,10.64,10.64,0,0,0-2.13,5.47c0,.23,0,.45,0,.68V12C3.18,12.23,3.19,12.49,3.21,12.73Z"/></svg>