<svg id="Слой_1" data-name="Слой 1" xmlns="http://www.w3.org/2000/svg" viewBox="0 0 24 24"><title>CPCМонтажная область 1</title><path d="M21.27,19.82a10.53,10.53,0,0,1-9.65,3,10.38,10.38,0,0,1-8.5-7.57,10.38,10.38,0,0,1,3-11.15A10.83,10.83,0,0,1,21,4l.48.45h0l.07.07,0,0,.1.09A11.31,11.31,0,0,0,13.06.12C13,0,11.88,0,11.85.12A11.51,11.51,0,0,0,4,3.65,11.69,11.69,0,0,0,.67,14.1a11.93,11.93,0,0,0,19.86,6.73l.12-.11.06,0h0a2.92,2.92,0,0,0,.87-1,.3.3,0,0,0-.26.14l0,0h0Z"/><path d="M23.18,13.29l.28-.26a2.22,2.22,0,0,1-.1.91l0,.06c-1.05,3.81-3.32,6.51-7.19,7.64a10.74,10.74,0,0,1-5.89-.27.4.4,0,0,1-.15,0,.29.29,0,0,1-.11-.11.48.48,0,0,1,.42.05,13.49,13.49,0,0,0,5.44-.39,7.17,7.17,0,0,0,1.58-.64l-.1-.09a13.41,13.41,0,0,1-4.75.64A6.13,6.13,0,0,1,8.25,19a3.26,3.26,0,0,1,.37-4.93,2.69,2.69,0,0,1,2.17-.28,2.33,2.33,0,0,0-1.61-1.21,4.84,4.84,0,0,0-2.65.35L6.38,13l-.14.05a7,7,0,0,1-.69.23,1.21,1.21,0,0,1-1.66-1.22A8.34,8.34,0,0,1,5,7.59l0-.07,0,0,.09-.16a12.31,12.31,0,0,1,1-1.48,2.45,2.45,0,0,1,.36-.36c-.06.22-.13.44-.19.65h0A6.77,6.77,0,0,0,6,7.37,3.21,3.21,0,0,0,6,8.44,1.79,1.79,0,0,0,8.35,9.91a4.92,4.92,0,0,0,1.28-.63l.07,0,.12-.08a8.52,8.52,0,0,1,1.83-1,2.73,2.73,0,0,1,2.72.36.39.39,0,0,1,.1.08.61.61,0,0,1,0,.12c-.26,0-.52,0-.78,0a2.79,2.79,0,0,0-2.15,2.34h0c0,.14,0,.24.15.23a4.73,4.73,0,0,0,1.49-.65,5.16,5.16,0,0,1,1.34-.59,2.16,2.16,0,0,1,2.32.53.29.29,0,0,1-.22,0H16.6a1.56,1.56,0,0,0-1.67,1.82,2.83,2.83,0,0,0,.61,1.57A2.73,2.73,0,0,0,17,15a6.24,6.24,0,0,0,4.49-.41l.47-.22.23-.14A6.86,6.86,0,0,0,23.18,13.29Z"/><path d="M21.59,19.61Z"/><path d="M21.59,19.6c0-.17.11-.24.23-.32l.09-.07C21.86,19.38,21.8,19.56,21.59,19.6Z"/><path d="M13.77,3.14h0l3.42,4L21,11.52a.38.38,0,0,1,.09.13.25.25,0,0,1,0,.15l-.51-.36h0l-.72-.51Q16.44,8.5,13.06,6A.72.72,0,0,0,12.2,6c-.75.37-1.51.71-2.28,1.07h0L9,7.46a.35.35,0,0,1,.15-.28l0,0L10.4,5.93h0C11.35,5,12.3,4,13.24,3.09,13.5,2.82,13.61,3,13.77,3.14Z"/><path d="M17.77,5.24a3,3,0,0,1-.53.48c-.22.17-.16.27,0,.41.56.4,1.12.82,1.67,1.23l.76.57L22,9.62l.07-.07L22,9.4,21,8.25c-.84-1-1.68-1.95-2.5-2.93C18.21,5,18.06,4.88,17.77,5.24Z"/></svg>