<svg id="Слой_1" data-name="Слой 1" xmlns="http://www.w3.org/2000/svg" viewBox="0 0 24 24"><title>CSМонтажная область 1</title><path d="M13.29,5.05c.06-1.3.49-4.18,1.86-4.18a1.25,1.25,0,0,1,.88.31.91.91,0,0,0-.49.87,1,1,0,0,0,1,1,1,1,0,0,0,1-1,2.23,2.23,0,0,0-2.32-2c-2.68.05-3.73,3.11-3.78,5.12C8.78,5.55,6,7.48,6,12a7,7,0,0,0,5.54,7.16c-.13,2.29-.87,4.07-1.85,4.07a1.53,1.53,0,0,1-.89-.31A1,1,0,0,0,9.25,22a1,1,0,1,0-2,0A2.2,2.2,0,0,0,9.49,24c2.6,0,3.65-2.67,3.85-4.88,2.72-.34,4.66-2.05,4.66-2.81a.46.46,0,0,0-.44-.51c-.36,0-1.72,1.83-4.18,2.19,0-2.37-.08-9.27-.1-11.77a2.88,2.88,0,0,1,2.51,1.47c.73,1.09.59,1.64,1.08,1.64.33,0,.51-.13.54-.41a3.3,3.3,0,0,1-.2-.87c0-.27.05-.72.05-.92S16,5.24,13.29,5.05ZM11.56,17.91c-1.89-.57-3.4-2.77-3.4-6,0-2,.83-5,3.35-5.63C11.52,9.13,11.55,15.25,11.56,17.91Z"/></svg>