<svg id="Слой_1" data-name="Слой 1" xmlns="http://www.w3.org/2000/svg" viewBox="0 0 24 24"><title>CSNOМонтажная область 1</title><path d="M17.68,9.35a4.73,4.73,0,0,1,.65,0c.39.09.5.45.59.75v.06a1.14,1.14,0,0,1-.05.75,1.94,1.94,0,0,0-.1.49c0,.14,0,.27-.07.4s-.1.4-.14.6a3.38,3.38,0,0,1-.34,1.12c-.28.5-.57,1-1.23,1a1.37,1.37,0,0,1-1.26-.07h0l-.1,0a.66.66,0,0,1-.29-.21.59.59,0,0,1-.1-.34,4.66,4.66,0,0,1,.17-1.78,5.63,5.63,0,0,0,.14-.59,5,5,0,0,1,.16-.67c0-.06,0-.13.07-.2a1.42,1.42,0,0,1,.28-.61,1.93,1.93,0,0,1,.72-.52A1.9,1.9,0,0,1,17.68,9.35ZM18,10.73c0-.36-.34-.74-.61-.64a1.07,1.07,0,0,0-.71.62,9.6,9.6,0,0,0-.25,1.06c0,.18-.07.35-.11.53s0,.21-.05.32h0a3,3,0,0,1-.15.61.25.25,0,0,0,0,.17.63.63,0,0,0,1.11.29,1,1,0,0,0,.33-.65c.06-.43.17-.86.27-1.28l0-.14c0-.2.07-.39.1-.59h0C18,10.93,18,10.83,18,10.73Z"/><path d="M13.38,9.48h-1c-.37,1.7-.72,3.36-1.09,5H12a.26.26,0,0,0,.19-.07.25.25,0,0,0,.08-.18A12.76,12.76,0,0,1,12.49,13a11.78,11.78,0,0,0,.25-1.18,6.68,6.68,0,0,1,.17-.87c.15.82.29,1.59.42,2.35.08.41.15.81.22,1.21h.76c.22,0,.32-.09.33-.31a4.59,4.59,0,0,1,.17-1l.12-.47c.05-.25.11-.51.17-.76.09-.4.19-.81.25-1.22a.56.56,0,0,1,.07-.18.51.51,0,0,0,.07-.24v0h0a.51.51,0,0,1,.09-.4.3.3,0,0,0,0-.21.36.36,0,0,0-.06-.2h-.78c-.07.49-.18,1-.29,1.44A15.58,15.58,0,0,0,14.12,13,.58.58,0,0,1,14,12.7a.48.48,0,0,0-.08-.28.45.45,0,0,1,0-.29.7.7,0,0,0,0-.29,4.49,4.49,0,0,1-.25-1.13h0c0-.2-.05-.39-.08-.59A2.07,2.07,0,0,0,13.38,9.48Z"/><path d="M8.16,12.74h.92c.07.07,0,.13,0,.19l0,0v0a.55.55,0,0,0,0,.36.51.51,0,0,0,.21.29l.09,0a.42.42,0,0,0,.53.05l.12-.08c.13-.08.27-.16.3-.28a1.56,1.56,0,0,0,0-.57c0-.05,0-.1,0-.15s-.07-.1-.12-.12a2.76,2.76,0,0,1-.65-.44,3.22,3.22,0,0,0-.46-.34,1.08,1.08,0,0,1-.41-1,1.64,1.64,0,0,1,.42-1,1.69,1.69,0,0,1,.72-.42,1.82,1.82,0,0,1,.65-.06h.4a.37.37,0,0,1,.28.1.59.59,0,0,0,.17.1.44.44,0,0,1,.33.45,5.58,5.58,0,0,1,0,.71v.3H10.8v-.52a.25.25,0,0,0,0-.12.27.27,0,0,0-.06-.1l-.09-.06-.12,0a1.29,1.29,0,0,0-.48,0,.57.57,0,0,0-.19.88,11.06,11.06,0,0,0,1,.79,1,1,0,0,1,.45.81.54.54,0,0,0,0,.18,1.4,1.4,0,0,1-.76,1.48A1.73,1.73,0,0,1,9,14.45l-.12,0-.1,0a.75.75,0,0,1-.62-.82Z"/><path d="M7.44,10.28a1,1,0,0,1,0,.76h.29c.77,0,.77,0,.77-.6v-.18A.88.88,0,0,0,8,9.53l-.19-.07a1.14,1.14,0,0,0-.58-.11,3.73,3.73,0,0,0-.81.22,1.8,1.8,0,0,0-1,1.4v0c-.09.39-.17.79-.26,1.17a9.74,9.74,0,0,0-.23,1.53.8.8,0,0,0,.39.74.76.76,0,0,0,.52.19h.6c.48,0,1-.13,1.15-.66a1.07,1.07,0,0,0,.38-.73,2.38,2.38,0,0,1,.11-.38h-1c-.18.94-.51,1.22-1.18,1a.84.84,0,0,1-.14-.72A3.34,3.34,0,0,0,6,12.28a5.59,5.59,0,0,1,.11-.59c0-.15.08-.3.11-.45s.09-.39.15-.59a.85.85,0,0,1,.25-.4.8.8,0,0,1,.44-.17.37.37,0,0,1,.23,0A.35.35,0,0,1,7.44,10.28Z"/><path d="M0,13V11H0L.1,11A5.87,5.87,0,0,1,.25,9.82h0l.09-.51A5.54,5.54,0,0,1,.6,8.38a4.85,4.85,0,0,0,.26-.9A14.84,14.84,0,0,1,3.4,3.62a9.13,9.13,0,0,1,1.11-1l.31-.24A10.66,10.66,0,0,1,7.76.82L8.08.7h0A6.48,6.48,0,0,1,9.24.35a4,4,0,0,0,.5-.1A4,4,0,0,1,10.88.12c.08,0,.17,0,.16-.12H13V0h0S13,.1,13,.1a5.87,5.87,0,0,1,1.18.15l.51.09a5.54,5.54,0,0,1,.93.26,4.85,4.85,0,0,0,.9.26A14.84,14.84,0,0,1,20.38,3.4a9.13,9.13,0,0,1,.95,1.11h0l.24.31a10.66,10.66,0,0,1,1.61,2.94l.12.32h0a6.48,6.48,0,0,1,.35,1.16,4,4,0,0,0,.1.5h0a4,4,0,0,1,.13,1.14c0,.08,0,.17.12.16V13h0l-.06,0a5.87,5.87,0,0,1-.15,1.18l-.09.51a5.54,5.54,0,0,1-.26.93,4.85,4.85,0,0,0-.26.9,14.84,14.84,0,0,1-2.54,3.86,9.13,9.13,0,0,1-1.11.95h0l-.31.24a10.66,10.66,0,0,1-2.94,1.61l-.32.12h0a6.48,6.48,0,0,1-1.16.35,4,4,0,0,0-.5.1,4,4,0,0,1-1.14.13c-.08,0-.17,0-.16.12H11s0,0,0,0,0-.06,0-.06a5.87,5.87,0,0,1-1.18-.15h0l-.52-.09a6.12,6.12,0,0,1-.93-.26,4.55,4.55,0,0,0-.89-.26A14.67,14.67,0,0,1,3.62,20.6a9.13,9.13,0,0,1-1-1.11h0l-.24-.31A10.66,10.66,0,0,1,.82,16.24L.7,15.92a6.48,6.48,0,0,1-.35-1.16,4,4,0,0,0-.1-.5,4,4,0,0,1-.13-1.14C.13,13,.12,13,0,13ZM12.1,3.58A8.56,8.56,0,0,0,6.44,5.74a8.22,8.22,0,0,0-2.83,5.84,8.07,8.07,0,0,0,2.15,6,8.13,8.13,0,0,0,5.85,2.81,8.06,8.06,0,0,0,6-2.17,8.12,8.12,0,0,0,2.79-5.85,8.12,8.12,0,0,0-2.19-6A8.44,8.44,0,0,0,12.1,3.58ZM2.75,11.06H.84v1c0,.3,0,.61,0,.91h1.9ZM13,23V21.46c0-.24-.1-.33-.36-.33H11V23ZM23,11H21.49c-.26,0-.36.1-.36.34,0,.41,0,.84,0,1.25,0,.22.1.33.31.33H23ZM11,1V2.52c0,.25.09.36.34.36h1.25A.29.29,0,0,0,13,2.57V1ZM6.11,4.84,4.8,3.54,4.33,4h0c-.26.25-.52.51-.76.78l1.3,1.29ZM6.06,19.22l-.83-.83-.15-.15L4.87,18l-.37.38-.83.82,1.19,1.19ZM19.19,18l-1.25,1.25,1.26,1.26c.16-.19.34-.36.52-.54a5.43,5.43,0,0,0,.7-.74Zm0-14.33-.83.83L18,4.84l1.23,1.24,1.2-1.2Z"/></svg>