<svg id="Слой_1" data-name="Слой 1" xmlns="http://www.w3.org/2000/svg" viewBox="0 0 24 24"><title>CVМонтажная область 1</title><path d="M24,2.1C24,2,24,2,23.9,2c-.5,0-1,0-1.53,0a4.07,4.07,0,0,0-3.09,1.78A8.65,8.65,0,0,0,18.15,6c-.63,1.86-1.25,3.72-1.88,5.59-.25.75-.51,1.51-.76,2.27l0,0a.48.48,0,0,1-.09.19,1,1,0,0,1-.09-.13c-.06-.18-.13-.35-.19-.52s-.2-.55-.31-.83l-1-2.49c-.49-1.23-1-2.47-1.45-3.7a.27.27,0,0,0-.31-.21H8.14c-.22,0-.26,0-.18.25q2.66,6.83,5.3,13.65a.28.28,0,0,0,.31.21c1.29,0,2.58,0,3.86,0a.43.43,0,0,0,.49-.35l.66-2C20.24,13,21.89,8,23.66,3A3.73,3.73,0,0,1,24,2.1Z"/><path d="M5.68,6.4A6.9,6.9,0,0,0,.17,11.84a8.35,8.35,0,0,0,0,3.34A6.84,6.84,0,0,0,5.68,20.6a7.64,7.64,0,0,0,1.07.14h0s.07,0,.09.05H8c0-.05.08-.05.13-.05h0a9.57,9.57,0,0,0,3-.75c.18-.08.22-.15.15-.34-.4-1-.79-2-1.16-3-.08-.21-.15-.24-.35-.13A4.33,4.33,0,0,1,6,16.74a3.53,3.53,0,0,1-2-4.29A3.59,3.59,0,0,1,7.33,9.94c.21,0,.22-.06.15-.23C7.2,9,6.93,8.29,6.66,7.59c-.11-.28-.21-.55-.32-.82s-.13-.35-.22-.39S5.92,6.36,5.68,6.4Z"/></svg>