<svg id="Слой_1" data-name="Слой 1" xmlns="http://www.w3.org/2000/svg" viewBox="0 0 24 24"><title>DATМонтажная область 1</title><path d="M18.79,0a1.56,1.56,0,0,0-1.13.43,1.5,1.5,0,0,0-.43,1.13V9.81a7.6,7.6,0,0,0-2.64-2.06A7.49,7.49,0,0,0,11.33,7a7.58,7.58,0,0,0-4,1.1,7.92,7.92,0,0,0-2.81,3.06,9.16,9.16,0,0,0-1,4.31,8.72,8.72,0,0,0,1.1,4.34,8.16,8.16,0,0,0,3,3.06A8.66,8.66,0,0,0,11.94,24a8.36,8.36,0,0,0,4.25-1.1,8.21,8.21,0,0,0,3-3.06,8.45,8.45,0,0,0,1.14-4.34V1.56A1.54,1.54,0,0,0,19.92.43,1.53,1.53,0,0,0,18.79,0ZM11.94,21.25a5.53,5.53,0,0,1-2.79-.73A5.72,5.72,0,0,1,7.2,18.44a6.14,6.14,0,0,1-.7-2.94,5.9,5.9,0,0,1,.7-2.9,5.29,5.29,0,0,1,2-2,5.22,5.22,0,0,1,2.78-.77,5.09,5.09,0,0,1,2.75.77,5.09,5.09,0,0,1,2,2,6,6,0,0,1,.7,2.9,6.26,6.26,0,0,1-.7,2.94,5.51,5.51,0,0,1-2,2.08A5.33,5.33,0,0,1,11.94,21.25Z"/></svg>