<svg id="Слой_1" data-name="Слой 1" xmlns="http://www.w3.org/2000/svg" viewBox="0 0 24 24"><title>DATAМонтажная область 1</title><path d="M15,1.11V.42a.53.53,0,0,0,0-.17.38.38,0,0,0-.09-.13A.42.42,0,0,0,14.74,0a.47.47,0,0,0-.17,0A9,9,0,0,0,6,8.63.36.36,0,0,0,6.39,9h.7a.4.4,0,0,0,.29-.12.41.41,0,0,0,.13-.28,7.51,7.51,0,0,1,7.11-7.1C14.91,1.46,15,1.3,15,1.11ZM8.68,9h.67a.39.39,0,0,0,.28-.11.37.37,0,0,0,.13-.28,5.25,5.25,0,0,1,4.89-4.85.38.38,0,0,0,.26-.13.38.38,0,0,0,.1-.27V2.67a.47.47,0,0,0,0-.16.36.36,0,0,0-.1-.14.42.42,0,0,0-.14-.09.33.33,0,0,0-.17,0,6.69,6.69,0,0,0-4.33,2,6.77,6.77,0,0,0-2,4.33.47.47,0,0,0,0,.17,1.09,1.09,0,0,0,.08.15A.42.42,0,0,0,8.51,9a.35.35,0,0,0,.17,0ZM15,4.93v.69a.41.41,0,0,1-.36.4,3,3,0,0,0-1.76.85A3.09,3.09,0,0,0,12,8.63a.41.41,0,0,1-.41.37h-.67a.45.45,0,0,1-.31-.14.42.42,0,0,1-.09-.14.52.52,0,0,1,0-.17,4.58,4.58,0,0,1,1.3-2.74,4.49,4.49,0,0,1,2.73-1.29.32.32,0,0,1,.17,0,.36.36,0,0,1,.15.08.45.45,0,0,1,.1.14.53.53,0,0,1,0,.17ZM22.89,15c-.2,0-.36-.1-.39-.39a7.51,7.51,0,0,0-7.1-7.11.41.41,0,0,1-.28-.13A.4.4,0,0,1,15,7.07v-.7A.37.37,0,0,1,15.37,6,9,9,0,0,1,24,14.55a.41.41,0,0,1,0,.16.34.34,0,0,1-.09.14.26.26,0,0,1-.13.1.47.47,0,0,1-.17,0ZM15,8.66a.41.41,0,0,1,0-.16.5.5,0,0,1,.1-.14.38.38,0,0,1,.15-.09.3.3,0,0,1,.16,0,6.74,6.74,0,0,1,6.3,6.29.33.33,0,0,1,0,.17.42.42,0,0,1-.09.14.28.28,0,0,1-.14.1.32.32,0,0,1-.16,0h-.69a.39.39,0,0,1-.27-.1.41.41,0,0,1-.13-.26,5.23,5.23,0,0,0-4.85-4.88.49.49,0,0,1-.28-.13A.44.44,0,0,1,15,9.33ZM19.06,15h-.68a.42.42,0,0,1-.4-.37A3,3,0,0,0,15.37,12a.45.45,0,0,1-.26-.14.43.43,0,0,1-.11-.28v-.67a.45.45,0,0,1,.14-.31.42.42,0,0,1,.14-.09.52.52,0,0,1,.17,0,4.58,4.58,0,0,1,2.74,1.3,4.49,4.49,0,0,1,1.29,2.73.32.32,0,0,1,0,.17.53.53,0,0,1-.08.15.45.45,0,0,1-.14.1.51.51,0,0,1-.17,0ZM1.11,9c.19,0,.35.09.39.38a7.51,7.51,0,0,0,7.1,7.11.41.41,0,0,1,.28.13.4.4,0,0,1,.12.29v.7a.37.37,0,0,1-.37.39A9,9,0,0,1,0,9.43a.45.45,0,0,1,0-.16.34.34,0,0,1,.09-.14A.41.41,0,0,1,.25,9,.51.51,0,0,1,.42,9ZM9,15.32a.51.51,0,0,1,0,.17.71.71,0,0,1-.1.14.28.28,0,0,1-.15.08.47.47,0,0,1-.17,0,6.76,6.76,0,0,1-6.29-6.3.35.35,0,0,1,0-.17.42.42,0,0,1,.09-.14A.36.36,0,0,1,2.51,9a.45.45,0,0,1,.16,0h.69a.37.37,0,0,1,.27.09.43.43,0,0,1,.13.26,5.25,5.25,0,0,0,4.85,4.89.41.41,0,0,1,.28.13.43.43,0,0,1,.11.28ZM4.93,9h.69a.41.41,0,0,1,.4.36,3,3,0,0,0,.85,1.76A3.09,3.09,0,0,0,8.63,12a.41.41,0,0,1,.37.41v.67a.47.47,0,0,1,0,.17.71.71,0,0,1-.1.14.6.6,0,0,1-.15.09.52.52,0,0,1-.17,0,4.52,4.52,0,0,1-4-4,.32.32,0,0,1,0-.17.38.38,0,0,1,.09-.15A.3.3,0,0,1,4.77,9a.45.45,0,0,1,.16,0ZM9,22.89c0-.2.1-.36.39-.39a7.51,7.51,0,0,0,7.11-7.1.37.37,0,0,1,.13-.28.4.4,0,0,1,.29-.12h.7a.36.36,0,0,1,.38.37A9,9,0,0,1,9.44,24a.47.47,0,0,1-.17,0,.42.42,0,0,1-.14-.09A.38.38,0,0,1,9,23.75a.53.53,0,0,1,0-.17ZM15.33,15a.41.41,0,0,1,.16,0,.36.36,0,0,1,.14.1.42.42,0,0,1,.09.14.35.35,0,0,1,0,.17,6.74,6.74,0,0,1-6.29,6.3.32.32,0,0,1-.17,0,.6.6,0,0,1-.15-.09A.34.34,0,0,1,9,21.49a.32.32,0,0,1,0-.16v-.69a.39.39,0,0,1,.1-.27.41.41,0,0,1,.25-.13,5.23,5.23,0,0,0,4.89-4.85.49.49,0,0,1,.13-.28.44.44,0,0,1,.29-.11ZM9,19.06v-.68a.42.42,0,0,1,.37-.4A3,3,0,0,0,12,15.37a.45.45,0,0,1,.14-.26A.43.43,0,0,1,12.4,15h.67a.45.45,0,0,1,.31.14.42.42,0,0,1,.09.14,1.11,1.11,0,0,1,0,.17,4.58,4.58,0,0,1-1.3,2.74,4.51,4.51,0,0,1-2.73,1.29.32.32,0,0,1-.17,0,.38.38,0,0,1-.15-.09.3.3,0,0,1-.1-.14.47.47,0,0,1,0-.16Z"/></svg>