<svg id="Слой_1" data-name="Слой 1" xmlns="http://www.w3.org/2000/svg" viewBox="0 0 24 24"><title>DBETМонтажная область 1</title><path d="M7.34,7.07H2V0H13c3.59,0,8.52,3.28,9.78,6.82H16.43a5.21,5.21,0,0,0-4-1.77H7.34Z"/><path d="M7.34,16.93H2V24H13c3.59,0,8.52-3.28,9.78-6.82H16.43a5.21,5.21,0,0,1-4,1.77H7.34Z"/><path d="M2,8.7H4.55a7.72,7.72,0,0,1,1.13.06A1.58,1.58,0,0,1,6.35,9a1.61,1.61,0,0,1,.49.54,1.45,1.45,0,0,1,.2.75,1.53,1.53,0,0,1-.25.83,1.56,1.56,0,0,1-.65.57,1.69,1.69,0,0,1,.9.58,1.64,1.64,0,0,1,.31,1,1.87,1.87,0,0,1-.21.85,1.65,1.65,0,0,1-.55.67,1.87,1.87,0,0,1-.86.3c-.22,0-.73,0-1.56.05H2ZM3.29,9.77v1.49h.84c.51,0,.82,0,.94,0A.86.86,0,0,0,5.59,11a.79.79,0,0,0,0-1,.73.73,0,0,0-.49-.23c-.13,0-.49,0-1.1,0Zm0,2.56v1.73H4.48a5.38,5.38,0,0,0,.89,0,.79.79,0,0,0,.46-.26A.75.75,0,0,0,6,13.21a.88.88,0,0,0-.14-.49.83.83,0,0,0-.41-.29,3.83,3.83,0,0,0-1.14-.1Z"/><path d="M10.4,15.15V8.7h4.74V9.79H11.69v1.43H14.9V12.3H11.69v1.76h3.57v1.09Z"/><path d="M19.75,9.79v5.36H21V9.79h1.89V8.7H17.86V9.79Z"/></svg>