<svg id="Слой_1" data-name="Слой 1" xmlns="http://www.w3.org/2000/svg" viewBox="0 0 24 24"><title>DENTМонтажная область 1</title><path d="M9,10a2.69,2.69,0,0,0,1.31,2.2v-3q0-3.18,0-6.36a1.51,1.51,0,0,1,1.5-1.6,1.53,1.53,0,0,1,1.51,1.63v2c0,.6,0,1.2,0,1.8a1.1,1.1,0,0,0,0,.24h0a1.91,1.91,0,0,0,0,.2l.34-.32h0c.29-.27.55-.51.8-.77a.45.45,0,0,0,.12-.32c0-.29,0-.58,0-.87h0c0-.82,0-1.63-.05-2.44A2.72,2.72,0,0,0,11.66,0,2.76,2.76,0,0,0,9,2.67Q8.93,6.33,9,10Z"/><path d="M14.57,13.69a2.62,2.62,0,0,0-1.25-1.92v.52c0,2.91,0,5.81,0,8.71a1.51,1.51,0,1,1-3,0c0-.9,0-1.81,0-2.72V16.93l-.11-.07-.31.3h0L9,18c-.06.06-.06.2-.06.3,0,.26,0,.53,0,.79,0,.76,0,1.53,0,2.29A2.83,2.83,0,0,0,14.63,21q0-2.83,0-5.67v-.14h0A12.21,12.21,0,0,0,14.57,13.69Z"/><path d="M10.86,10.77a2.73,2.73,0,0,1,1.38-2.3q3-1.78,6.12-3.53a2.82,2.82,0,0,1,2.81,4.9c-.81.49-1.63,1-2.47,1.42a.7.7,0,0,1-.49.07c-.33-.07-.65-.17-1-.28l-.49-.14.6-.35h0l1.45-.85.66-.37h0l.95-.55a1.52,1.52,0,1,0-1.48-2.63l-7.65,4.4-.22.12h0Z"/><path d="M11.22,15.59a2.94,2.94,0,0,0,1.54-2.41l-.22.12h0l-.39.22Q8.41,15.7,4.66,17.84a1.51,1.51,0,1,1-1.51-2.6c.27-.17.55-.33.82-.48l.43-.25,1.27-.73h0l1.21-.7-.43-.14-.7-.23a1.16,1.16,0,0,0-1.11.13c-.51.32-1,.62-1.54.91l-.53.3A2.83,2.83,0,1,0,5.33,19c1.12-.63,2.22-1.28,3.33-1.92Z"/><path d="M12.38,10.56a2.74,2.74,0,0,1,2.65,0q3.11,1.74,6.16,3.54A2.83,2.83,0,0,1,18.34,19c-.37-.2-.73-.42-1.1-.63s-.81-.47-1.21-.69A.92.92,0,0,1,15.5,17l-.19-.84c0-.14-.07-.28-.1-.44l.17.08h0l.24.11,1.39.8h0l1.9,1.1a1.51,1.51,0,1,0,1.52-2.6L15,12.06h0l-2.12-1.22-.28-.17h0Z"/><path d="M8.16,8.13l.24.13c0-.17-.08-.32-.11-.47C8.19,7.37,8.1,7,8,6.65a.49.49,0,0,0-.24-.25L7.08,6c-.67-.4-1.34-.8-2-1.15A2.81,2.81,0,0,0,1.39,6a2.76,2.76,0,0,0,.87,3.76C4.39,11,6.55,12.24,8.73,13.45a2.68,2.68,0,0,0,2.49,0l-.11-.07-.28-.18L3.22,8.78a1.51,1.51,0,0,1-.69-2.14,1.54,1.54,0,0,1,2.21-.46L7.84,8A2.32,2.32,0,0,0,8.16,8.13Z"/></svg>