<svg id="Слой_1" data-name="Слой 1" xmlns="http://www.w3.org/2000/svg" viewBox="0 0 24 24"><title>DEWМонтажная область 1</title><path d="M5.05,21.09H4.69V2.91h.46a1.48,1.48,0,0,0,1-.43,1.42,1.42,0,0,0,.44-1A1.47,1.47,0,0,0,5.15,0H3.07A1.57,1.57,0,0,0,2,.45a1.49,1.49,0,0,0-.34.49,1.52,1.52,0,0,0-.12.59v20.9A1.54,1.54,0,0,0,2,23.54,1.65,1.65,0,0,0,3.11,24H5.05a1.46,1.46,0,1,0,0-2.91ZM21.27,5.82A11.1,11.1,0,0,0,17,1.62,12.35,12.35,0,0,0,10.86.1h-.47A1.52,1.52,0,0,0,9.34.52a1.45,1.45,0,0,0-.44,1A1.47,1.47,0,0,0,10.39,3h.4a8.8,8.8,0,0,1,4.46,1.15,8.58,8.58,0,0,1,3.17,3.16,8.92,8.92,0,0,1,1.16,4.52,8.89,8.89,0,0,1-1.14,4.48,8.42,8.42,0,0,1-2.93,3.34,7.82,7.82,0,0,1-4.1,1.43h-.92a1.46,1.46,0,1,0,0,2.91h.76a10.38,10.38,0,0,0,5.88-1.81,12.33,12.33,0,0,0,4.13-4.39,11.6,11.6,0,0,0,1.57-6,11.75,11.75,0,0,0-1.55-6Z"/></svg>