<svg id="Слой_1" data-name="Слой 1" xmlns="http://www.w3.org/2000/svg" viewBox="0 0 24 24"><title>DICEМонтажная область 1</title><path d="M10.62.09l-8.55,5A2.15,2.15,0,0,0,1,6.93v9a.67.67,0,0,0,1,.58l8.55-5A2.16,2.16,0,0,0,11.63,9.7v-9A.67.67,0,0,0,10.62.09ZM4.23,13.86c-.52.9-1.39,1.37-2,1.05s-.59-1.32-.07-2.21,1.39-1.37,2-1S4.75,13,4.23,13.86Zm3.09-5c-.51.89-1.39,1.36-1.95,1S4.78,8.62,5.3,7.72s1.39-1.36,2-1S7.84,8,7.32,8.89Zm3.23-5.11c-.52.89-1.39,1.36-2,1S8,3.51,8.53,2.61s1.39-1.37,2-1S11.07,2.88,10.55,3.78Z"/><path d="M22.13,5.07l-8.55-5a.67.67,0,0,0-1,.58v9a2.16,2.16,0,0,0,1.07,1.86l8.54,5a.68.68,0,0,0,1-.58v-9A2.15,2.15,0,0,0,22.13,5.07Zm-6.24,6.47c-.51.39-1.44,0-2.06-.79s-.71-1.82-.19-2.2,1.43,0,2.06.79S16.41,11.16,15.89,11.54Zm6.33-3.23c-.52.39-1.44,0-2.07-.79s-.71-1.81-.19-2.2,1.44,0,2.06.79S22.73,7.93,22.22,8.31Z"/><path d="M22.1,17.48l-8.94-5.07a2.16,2.16,0,0,0-2.12,0L2.1,17.48a.67.67,0,0,0,0,1.17L11,23.72a2.16,2.16,0,0,0,2.12,0l8.94-5.07A.68.68,0,0,0,22.1,17.48Zm-10,2.07c-1.23,0-2.22-.67-2.22-1.48s1-1.48,2.22-1.48,2.22.66,2.22,1.48S13.32,19.55,12.1,19.55Z"/></svg>