<svg id="Слой_1" data-name="Слой 1" xmlns="http://www.w3.org/2000/svg" viewBox="0 0 24 24"><title>DLTМонтажная область 1</title><path d="M11.82,3.47a.33.33,0,0,1,.31-.2.36.36,0,0,1,.32.2l8.88,19.34a1.21,1.21,0,0,0,.45.53,1.42,1.42,0,0,0,.67.2h.11a.82.82,0,0,0,.78-.6,1.33,1.33,0,0,0-.08-.94L13,.47a.67.67,0,0,0-.19-.25A1,1,0,0,0,12.14,0a1,1,0,0,0-.63.24,1.57,1.57,0,0,0-.44.58L.92,22.2a1.24,1.24,0,0,0-.08.85,1.27,1.27,0,0,0,.49.69l.08.06a1.16,1.16,0,0,0,.65.2H17.24a1.4,1.4,0,0,0,.69-.19,1.27,1.27,0,0,0,.49-.51.89.89,0,0,0,.12-.39,1.09,1.09,0,0,0-.07-.4l0,0a1,1,0,0,0-.38-.47,1,1,0,0,0-.57-.18H3.22Z"/></svg>