<svg id="Слой_1" data-name="Слой 1" xmlns="http://www.w3.org/2000/svg" viewBox="0 0 24 24"><title>DMTМонтажная область 1</title><path d="M15.64,0a2.06,2.06,0,0,1,1.78,1L23.15,11A2.08,2.08,0,0,1,23.2,13L17.47,23a2,2,0,0,1-1.78,1H4.19a2.17,2.17,0,0,1-1.06-.3h0a2,2,0,0,1-.7-.72L.23,19.25a1.73,1.73,0,0,1,0-1.73l2.6-4.46a2.35,2.35,0,0,0,.26-1,2,2,0,0,0-.26-1L.23,6.5a1.71,1.71,0,0,1,0-1.72L2.37,1.06a1.74,1.74,0,0,1,.7-.72h0A2,2,0,0,1,3.76,1L6.64,6,9.5,11a2.14,2.14,0,0,1,0,2.11L6.69,18a2.14,2.14,0,0,0,.84.18h4.73a2.08,2.08,0,0,0,1.77-1L16.41,13a2.1,2.1,0,0,0,0-2.06L14,6.86a2,2,0,0,0-1.77-1H7.51A2.2,2.2,0,0,0,6.64,6L3.76,1A2,2,0,0,0,3.09.34v0A2.21,2.21,0,0,1,4.17,0Z"/></svg>