<svg id="Слой_1" data-name="Слой 1" xmlns="http://www.w3.org/2000/svg" viewBox="0 0 24 24"><title>DNAМонтажная область 1</title><path d="M11.75,15.21h.88c-.13-.23-.28-.46-.43-.7Z"/><path d="M10.76,16.88h2.83c-.15-.27-.3-.55-.47-.83H11.24C11.07,16.33,10.91,16.61,10.76,16.88Z"/><path d="M9.78,18.84h4.75c-.11-.27-.24-.55-.38-.84h-4Q10,18.43,9.78,18.84Z"/><path d="M9,20.79h6.24c-.08-.26-.18-.54-.29-.84H9.32C9.21,20.26,9.11,20.53,9,20.79Z"/><path d="M12.53,8.93h-.88c.13.23.28.46.43.7Z"/><path d="M13.52,7.26H10.69c.15.27.3.55.47.83H13C13.21,7.81,13.37,7.53,13.52,7.26Z"/><path d="M14.5,5.3H9.74q.18.41.39.84h4Q14.32,5.71,14.5,5.3Z"/><path d="M15.25,3.35H9c.08.26.18.54.29.84H15C15.07,3.88,15.17,3.61,15.25,3.35Z"/><path d="M12,0A12,12,0,1,0,24,12,12,12,0,0,0,12,0ZM6.53,20.76A10.32,10.32,0,0,1,6.42,3.31,13.45,13.45,0,0,0,7.91,7.2a42,42,0,0,0,2.74,4.22L11.71,10A37.82,37.82,0,0,1,9.38,6.4,11,11,0,0,1,8,2.48l.74-.28v0h6.62c.27.1.54.2.8.32a10.82,10.82,0,0,1-1.4,4,48,48,0,0,1-3.3,5l0,0a49.77,49.77,0,0,0-3.39,5.12A12.77,12.77,0,0,0,6.53,20.76Zm11.09-.1a13,13,0,0,0-1.53-4.14,38.47,38.47,0,0,0-2.46-3.82l-1,1.44a36.26,36.26,0,0,1,2,3.18A10.39,10.39,0,0,1,16,21.51c-.36.15-.73.28-1.11.4H9.08c-.33-.1-.65-.21-1-.34a10.66,10.66,0,0,1,1.41-4.11,48,48,0,0,1,3.3-5l0,0a51.47,51.47,0,0,0,3.39-5.12,13.43,13.43,0,0,0,1.5-3.93,10.32,10.32,0,0,1-.11,17.25Z"/></svg>