<svg id="Слой_1" data-name="Слой 1" xmlns="http://www.w3.org/2000/svg" viewBox="0 0 24 24"><title>DNTМонтажная область 1</title><path d="M21.85,15.38c-.9-.05-.4-1.48-.8-3.12-.47-1.81.23-3.07,1.16-3a2.66,2.66,0,0,1,1.2.5,7.41,7.41,0,0,0-.85-2.24,18.35,18.35,0,0,0-4.89-5V17.7a1.66,1.66,0,0,1,.14.66,1.58,1.58,0,0,1-.58,1.18,1.56,1.56,0,0,1-.61.29,1.52,1.52,0,0,1-.67,0,1.5,1.5,0,0,1-.61-.29,1.64,1.64,0,0,1-.42-.53,1.49,1.49,0,0,1-.16-.66,5.93,5.93,0,0,1-7.61-1.14,6,6,0,0,1-1.47-3.85A6.06,6.06,0,0,1,7,9.47,5.94,5.94,0,0,1,14.61,8.1V2.21A1.48,1.48,0,0,1,15.16,1c-2.93-1.37-6.22-1.64-9,.85C1.42,6.09-.93,12,1.42,17.8c.05.13.1.25.15.35a1.49,1.49,0,0,1,.28-.38c1.23-1.25,2.58,1.31,5.47,2.8a6.31,6.31,0,0,1,3.28,3.32,12.39,12.39,0,0,0,7.65-1.38,11.31,11.31,0,0,0,5.16-7.76A2.55,2.55,0,0,1,21.85,15.38Zm-11.3.1c1.45.83,3.21.51,3.53-1.36.18-1.08.08-2.77-.87-3.3A2.68,2.68,0,1,0,10.55,15.48ZM12,3.44A1.55,1.55,0,0,1,13.36,4.6c0,.38-.58.23-1.23.46s-1.26,0-1.28-.36A1.43,1.43,0,0,1,12,3.44Z"/></svg>