<svg id="Слой_1" data-name="Слой 1" xmlns="http://www.w3.org/2000/svg" viewBox="0 0 24 24"><defs><style>.cls-1{fill:#010101;}</style></defs><title>DOVUМонтажная область 1</title><path class="cls-1" d="M2.08,9l.18,0h0l.12,0a2.49,2.49,0,0,1,0,4.91H2.26a.9.9,0,0,0-.16,0h-2S0,14,0,13.94V9.06C0,9,0,9,.06,9ZM.78,11.72v1.4c0,.07,0,.09.09.09.34,0,.68,0,1,0l.32,0a1.72,1.72,0,0,0,1.4-2.06A1.68,1.68,0,0,0,2.1,9.81c-.26,0-.51,0-.76,0s-.31,0-.47,0-.1,0-.1.09c0,.42,0,.83,0,1.24v.6Z"/><path class="cls-1" d="M20.89,9v3.06a1.17,1.17,0,0,0,1.05,1.15,1.16,1.16,0,0,0,1.25-.92,1.53,1.53,0,0,0,0-.3V9h.71S24,9,24,9.06V12.3s0,0,0,0h0a1.92,1.92,0,0,1-1.45,1.59l-.19,0h0l-.09,0h-.43a.33.33,0,0,0-.14,0h-.06a2,2,0,0,1-1.51-1.89V9h.78Z"/><path class="cls-1" d="M13.86,9h-.24a.12.12,0,0,0,0,.1h0v0l1.91,4.4c0,.1.08.2.13.3h0l.07.16,2.15-5h-.81s-.05,0-.06.05h0c-.34.76-.67,1.53-1,2.3-.09.21-.19.42-.28.65v0h0v0c-.42-1-.83-1.91-1.24-2.87,0-.06-.05-.08-.12-.08Z"/><path class="cls-1" d="M9.13,9a2.37,2.37,0,0,1,1,.23.38.38,0,0,1,.17.16.34.34,0,0,1,.05.22.36.36,0,0,1-.26.34.39.39,0,0,1-.33,0,1.63,1.63,0,0,0-1.57.12,1.68,1.68,0,0,0-.64,2.12.4.4,0,0,1-.16.53.42.42,0,0,1-.15,0,.43.43,0,0,1-.16,0A.57.57,0,0,1,7,12.66a.38.38,0,0,1-.09-.13,2.39,2.39,0,0,1-.24-1.18A2.45,2.45,0,0,1,8.85,9Z"/><path class="cls-1" d="M8.16,13.76a2.51,2.51,0,0,0,1,.22,2.47,2.47,0,0,0,2.23-3.5.35.35,0,0,0-.17-.19.34.34,0,0,0-.24,0,.39.39,0,0,0-.3.56,1.63,1.63,0,0,1,.05,1.28,1.68,1.68,0,0,1-2.27,1,.4.4,0,0,0-.55.19A.39.39,0,0,0,8.16,13.76Z"/></svg>