<svg id="Слой_1" data-name="Слой 1" xmlns="http://www.w3.org/2000/svg" viewBox="0 0 24 24"><title>DPYМонтажная область 1</title><path d="M8.14,0A1.2,1.2,0,0,1,9.33,1.27V22.73A1.24,1.24,0,0,1,8.14,24a1.2,1.2,0,0,1-1.2-1.27V1.27A1.2,1.2,0,0,1,8.14,0Zm3.94,0a1.21,1.21,0,0,1,1.2,1.27V22.73A1.25,1.25,0,0,1,12.08,24a1.21,1.21,0,0,1-1.2-1.27V1.27A1.17,1.17,0,0,1,12.08,0ZM16,0a1.21,1.21,0,0,1,1.2,1.27V22.73A1.25,1.25,0,0,1,16,24a1.21,1.21,0,0,1-1.2-1.27V1.27A1.17,1.17,0,0,1,16,0ZM20,0a1.2,1.2,0,0,1,1.2,1.27v8A1.25,1.25,0,0,1,20,10.56a1.21,1.21,0,0,1-1.19-1.27v-8A1.16,1.16,0,0,1,20,0ZM4.2,24A1.2,1.2,0,0,1,3,22.73v-8a1.25,1.25,0,0,1,1.2-1.27,1.21,1.21,0,0,1,1.19,1.27v8A1.14,1.14,0,0,1,4.2,24Z"/></svg>