<svg id="Слой_1" data-name="Слой 1" xmlns="http://www.w3.org/2000/svg" viewBox="0 0 24 24"><title>DRTМонтажная область 1</title><path d="M12.24,9.3h-.07a1.46,1.46,0,0,0-.21,0H11.9a2.82,2.82,0,0,0-1.92.89v0a2.72,2.72,0,0,0-.57.93,2.78,2.78,0,0,0,1.94,3.65l.13,0a2.76,2.76,0,0,0,.57.06,3.07,3.07,0,0,0,.53-.05,2.82,2.82,0,0,0,.69-.24l.09-.05s0,0,.07,0l.06,0,0,0h0l.07-.06a2.79,2.79,0,0,0,.19-4.43,2.84,2.84,0,0,0-1.57-.62Zm10.14,8.77a11.77,11.77,0,0,1-7.21,5.63,1,1,0,0,1-.24,0,.91.91,0,0,1-.61-.23.94.94,0,0,1-.17-1.21.94.94,0,0,1,.53-.39l.05,0a.92.92,0,0,0,.53-.44,1,1,0,0,0,.08-.68.89.89,0,0,0-.89-.67.47.47,0,0,0-.17,0h-.07a.85.85,0,0,1-.23,0,.92.92,0,0,1-.57-.18.94.94,0,0,1-.33-.5,1,1,0,0,1,.09-.71,1,1,0,0,1,.57-.44,6.35,6.35,0,0,0,3.08-1.87,6.72,6.72,0,0,0,1.6-3.11v-.12a.91.91,0,0,0-.16-.66.87.87,0,0,0-.57-.36l-.18,0a1,1,0,0,0-.54.18,1,1,0,0,0-.33.47l0,.09V13l0,0a.2.2,0,0,1,0,.11.07.07,0,0,1,0,.06v0h0v0l0,0a4.67,4.67,0,0,1-4.48,3.4,5,5,0,0,1-1.22-.15l-.15,0h-.09a1,1,0,0,0-.56.19.94.94,0,0,0-.33.49,1,1,0,0,0,.09.66.92.92,0,0,0,.51.44l.07,0a.91.91,0,0,1,.54.38,1,1,0,0,1,.15.64.9.9,0,0,1-.31.58.94.94,0,0,1-.62.24,1,1,0,0,1-.24,0,8.33,8.33,0,0,1-4.47-3,8.53,8.53,0,0,1-1.71-5v-.08a.94.94,0,0,0-.28-.64.93.93,0,0,0-.65-.25.86.86,0,0,0-.64.28.91.91,0,0,0-.27.64,10.17,10.17,0,0,0,7.54,9.76.93.93,0,0,1,.56.45.7.7,0,0,1,.12.34.78.78,0,0,1,0,.37.92.92,0,0,1-.88.69.53.53,0,0,1-.25,0,11.72,11.72,0,0,1-4.22-2.07A12.07,12.07,0,0,1,.41,9a.89.89,0,0,1,.32-.5.85.85,0,0,1,.57-.19.71.71,0,0,1,.25,0,1,1,0,0,1,.56.43.93.93,0,0,1,.1.71l0,.06a.93.93,0,0,0,.13.67,1,1,0,0,0,.54.4.66.66,0,0,0,.24,0,.81.81,0,0,0,.54-.17A.87.87,0,0,0,4,10l0-.07a.94.94,0,0,1,.33-.49,1,1,0,0,1,.56-.19,1.09,1.09,0,0,1,.26,0,1,1,0,0,1,.57.44.93.93,0,0,1,.08.71A6.3,6.3,0,0,0,5.88,14a6.44,6.44,0,0,0,1.9,2.93v0l0,0,0,0a1,1,0,0,0,.56.2.86.86,0,0,0,.39-.09.9.9,0,0,0,.32-.23.92.92,0,0,0,.22-.59,1,1,0,0,0-.2-.59l0,0,0,0a4.77,4.77,0,0,1-1.21-1.5,4.68,4.68,0,0,1-.49-1.87A4.64,4.64,0,0,1,8.73,8.75l.14-.14A1,1,0,0,0,9,8a.94.94,0,0,0-.26-.55.83.83,0,0,0-.3-.2.92.92,0,0,0-.36-.07.9.9,0,0,0-.59.22h0s0,0,0,0A.87.87,0,0,1,7,7.7a.91.91,0,0,1-1-.39.89.89,0,0,1-.16-.52,1.13,1.13,0,0,1,.06-.36,1.27,1.27,0,0,1,.2-.31,8.39,8.39,0,0,1,4.76-2.35,8.29,8.29,0,0,1,5.21,1l0,0h0l0,0a.82.82,0,0,0,.43.12.94.94,0,0,0,.46-.13.92.92,0,0,0,.34-.34,1,1,0,0,0,.11-.34,1.1,1.1,0,0,0,0-.36,1.07,1.07,0,0,0-.16-.32A1,1,0,0,0,17,3.2,10.17,10.17,0,0,0,4.82,4.84a1,1,0,0,1-.68.26A.83.83,0,0,1,3.79,5a.93.93,0,0,1-.3-.2.79.79,0,0,1-.2-.31.86.86,0,0,1-.07-.36.84.84,0,0,1,.07-.35.69.69,0,0,1,.2-.3,12,12,0,0,1,17,0,.87.87,0,0,1,.2.31,1,1,0,0,1,0,.72.83.83,0,0,1-.2.3.92.92,0,0,1-.65.26,1,1,0,0,1-.66-.26l-.05,0a1,1,0,0,0-.62-.23,1,1,0,0,0-.35.07.84.84,0,0,0-.29.2.9.9,0,0,0,0,1.26l0,0a1,1,0,0,1,.26.66,1,1,0,0,1-.26.66,1,1,0,0,1-.31.2.89.89,0,0,1-.36.07.92.92,0,0,1-.36-.07,1,1,0,0,1-.3-.2A6.45,6.45,0,0,0,9.89,5.92H9.82l0,0A.91.91,0,0,0,9.27,7.1a1,1,0,0,0,.34.44,1,1,0,0,0,.53.17h.15l0,0h0A4.32,4.32,0,0,1,12,7.39a4.53,4.53,0,0,1,2.81,1,4.7,4.7,0,0,1,1.66,2.42v.08l0,.09a.89.89,0,0,0,.84.59.48.48,0,0,0,.24,0,.95.95,0,0,0,.67-1.07l0,0a1,1,0,0,1,.09-.71,1,1,0,0,1,.57-.45l.24,0a.88.88,0,0,1,.89.68,8.38,8.38,0,0,1-3.78,9.33l0,0h0a0,0,0,0,1,0,0h0a.86.86,0,0,0-.36.46.89.89,0,0,0,0,.58.93.93,0,0,0,1.34.53A10.22,10.22,0,0,0,21.8,9.41a1.1,1.1,0,0,1,0-.36,1.12,1.12,0,0,1,.12-.35,1,1,0,0,1,.57-.44c.09,0,.16,0,.24,0a.91.91,0,0,1,.88.71,11.9,11.9,0,0,1-1.2,9.13Z"/></svg>