<svg id="Слой_1" data-name="Слой 1" xmlns="http://www.w3.org/2000/svg" viewBox="0 0 24 24"><title>EDGМонтажная область 1</title><path d="M22.79,7.8a3.48,3.48,0,0,0-.31-1.39A3.71,3.71,0,0,0,21,4.7L13.73.42a3.27,3.27,0,0,0-.9-.34,4.19,4.19,0,0,0-2.08.11A8,8,0,0,0,9.63.78L2.91,4.71a2.86,2.86,0,0,0-.76.67A4,4,0,0,0,1.2,7.65v8.63a3.52,3.52,0,0,0,.46,1.64A3.62,3.62,0,0,0,3,19.37l7.23,4.21a2.9,2.9,0,0,0,1.15.38,3.88,3.88,0,0,0,2.3-.34l6.86-4a5.3,5.3,0,0,0,1-.65,4.18,4.18,0,0,0,1.2-2.12,4.69,4.69,0,0,0,.07-1.06Zm-10.87-3,.1.06a.3.3,0,0,1,.07.1,10.42,10.42,0,0,0,1.68,2.17,2.84,2.84,0,0,1,.83,1.5,1.46,1.46,0,0,1-.85,1.59,1.77,1.77,0,0,1-1.39-.07c-.08,0-.21-.13-.26,0a4.69,4.69,0,0,0,.62,1.52c.06.1-.06.18-.12.24a9.33,9.33,0,0,1-.78.76.65.65,0,0,1-.2-.17c-.25-.26-.51-.5-.75-.77,0,0,0-.06,0-.08a4.69,4.69,0,0,0,.71-1.54.46.46,0,0,0-.26,0,2,2,0,0,1-1.43,0,1.33,1.33,0,0,1-.57-.43A1.4,1.4,0,0,1,9,9.1a1.88,1.88,0,0,1,.23-1,3.74,3.74,0,0,1,.89-1.13A12.91,12.91,0,0,0,11.92,4.82ZM7.56,12.64a2.62,2.62,0,0,1,1.12-.35,2.56,2.56,0,0,1,1.16.19l.12.07a2.09,2.09,0,0,1,.62.41c.43.36.77.82,1.21,1.18.42-.4.81-.84,1.24-1.23a2.59,2.59,0,0,1,2.25-.56,2.7,2.7,0,0,1,1,4.78,2.59,2.59,0,0,1-3.41-.28C11.89,15.9,11,14.92,10,14A1.65,1.65,0,0,0,9,13.43a1.77,1.77,0,0,0-.85.19A1.53,1.53,0,1,0,9.9,16.06c.14-.12.27-.35.49-.26a2.63,2.63,0,0,1,.34.33c.09.1.23.19.24.34s-.13.24-.23.35a2.6,2.6,0,0,1-.88.62,2.77,2.77,0,0,1-2.08,0,2.74,2.74,0,0,1-1.54-2.81A2.7,2.7,0,0,1,7.56,12.64Zm6.05,1.26c-.33.35-.67.68-1,1,0,0,0,.08,0,.1.4.38.74.8,1.16,1.15a1.51,1.51,0,0,0,2-.09A1.59,1.59,0,0,0,16,14.13a1.45,1.45,0,0,0-1.19-.68,1.51,1.51,0,0,0-1.18.45Z"/></svg>