<svg id="Слой_1" data-name="Слой 1" xmlns="http://www.w3.org/2000/svg" xmlns:xlink="http://www.w3.org/1999/xlink" viewBox="0 0 24 24"><defs><style>.cls-1{fill:none;}.cls-2{clip-path:url(#clip-path);}</style><clipPath id="clip-path"><rect class="cls-1" width="24" height="24"/></clipPath></defs><title>EDOМонтажная область 1</title><g class="cls-2"><path d="M8.47,21.45l2,2.06a1.6,1.6,0,0,0,.54.36,1.51,1.51,0,0,0,.63.13,1.59,1.59,0,0,0,.64-.13,1.47,1.47,0,0,0,.53-.36l2.06-2.06-3.23-3.24Zm8.34-11.09L20,7.12,16.81,3.89,13.58,7.12Zm-.8,10,7.5-7.51A1.66,1.66,0,0,0,24,11.7a1.62,1.62,0,0,0-.49-1.17L21.45,8.47l-8.67,8.69Zm-8.88-.33,8.66-8.68L12.56,8.15,3.9,16.82ZM2.54,15.5l3.25-3.24L2.55,9,.49,11.09a1.65,1.65,0,0,0,0,2.34ZM15.46,2.55,13.4.48a1.73,1.73,0,0,0-.54-.35A1.55,1.55,0,0,0,12.23,0a1.69,1.69,0,0,0-1.17.48L3.55,8l3.23,3.24Z"/></g></svg>