<svg id="Слой_1" data-name="Слой 1" xmlns="http://www.w3.org/2000/svg" viewBox="0 0 24 24"><title>ENGМонтажная область 1</title><path d="M21.85,5.78l-.07,0h0L18.86,4,17,3l-1.89-1.1L12,.06,11.92,0l-.11,0-.29.14h0L7.18,2.76,5.28,3.88,1.8,6a.57.57,0,0,0-.28.58v.1c0,2.66,0,5.4,0,8.1v3a.53.53,0,0,0,.26.51c2.07,1.18,4.16,2.39,6.18,3.56l3.65,2.1a.54.54,0,0,0,.3.1.4.4,0,0,0,.23-.08l5.29-3.08,2-1.16,2.51-1.47a.49.49,0,0,0,.24-.21.53.53,0,0,0,.07-.3l0-11.37a.59.59,0,0,0-.39-.55ZM12.28,22.87V18l1.79-1,1.49-.87,1.36-.79h0l0,0a.55.55,0,0,0,.2-.17l.05-.07V15c0-1,0-2.19,0-3.63V9.41L21.4,7V17.55L15.51,21ZM7.7,9.17l4.17-2.44L16,9.16l-4.12,2.41-1.42-.82Zm-.42.71,4.19,2.41v4.78l-4.11-2.4ZM2.35,7.05l4.1,2.36.09,5.41a.51.51,0,0,0,.26.49l1.75,1L9.67,17l1.79,1v4.86L2.33,17.61ZM21,6.24,16.82,8.68,12.15,5.93a.51.51,0,0,0-.27-.09.5.5,0,0,0-.27.08L6.88,8.69,2.76,6.33,5.62,4.64,11.88.93c2.06,1.21,4.06,2.37,5.74,3.34l1.77,1,1.6.93Zm-8.7,10.83V12.29l4.13-2.42v4.8C15,15.46,13.66,16.27,12.29,17.07Zm5.59-.87a.42.42,0,0,0,.2-.1.44.44,0,0,0,.12-.18.46.46,0,0,0,0-.28.55.55,0,0,0-.12-.27h0a.61.61,0,0,0-.16-.12.49.49,0,0,0-.2-.05.54.54,0,0,0-.31.12.51.51,0,0,0-.17.29.5.5,0,0,0,0,.27.52.52,0,0,0,.14.22.42.42,0,0,0,.14.09.51.51,0,0,0,.17,0A.27.27,0,0,0,17.88,16.2Zm2.25,1.54a.54.54,0,0,0,.23.11.43.43,0,0,0,.25,0,.45.45,0,0,0,.2-.16.43.43,0,0,0,.1-.24.54.54,0,0,0,0-.28.57.57,0,0,0-.19-.22.5.5,0,0,0-.26-.08.48.48,0,0,0-.24.07.51.51,0,0,0-.25.42.59.59,0,0,0,0,.23A.58.58,0,0,0,20.13,17.74ZM5.74,15.21a.47.47,0,0,0-.31.12.51.51,0,0,0-.17.28.81.81,0,0,0,0,.22.72.72,0,0,0,.09.2.55.55,0,0,0,.17.13.42.42,0,0,0,.21.06h.11a.53.53,0,0,0,.21-.11.4.4,0,0,0,.13-.18.46.46,0,0,0,0-.28.48.48,0,0,0-.12-.26.51.51,0,0,0-.16-.13A.65.65,0,0,0,5.74,15.21Zm13.05,1.72A.44.44,0,0,0,19,17a.71.71,0,0,0,.25,0,.43.43,0,0,0,.2-.15.51.51,0,0,0,.1-.48.51.51,0,0,0-.15-.23.46.46,0,0,0-.32-.13.54.54,0,0,0-.32.13.49.49,0,0,0-.16.3.46.46,0,0,0,0,.26A.5.5,0,0,0,18.79,16.93ZM4.71,16.14A.45.45,0,0,0,4.4,16a.51.51,0,0,0-.17,0,.72.72,0,0,0-.22.17.51.51,0,0,0-.09.26.52.52,0,0,0,.24.49A.48.48,0,0,0,4.4,17,.54.54,0,0,0,4.61,17a.49.49,0,0,0,.18-.14.47.47,0,0,0,.09-.22.5.5,0,0,0,0-.27A.48.48,0,0,0,4.71,16.14Zm7.1-14.87h-.08a.5.5,0,0,0-.23.09.58.58,0,0,0-.16.19h0a.49.49,0,0,0,0,.24.51.51,0,0,0,.07.24.6.6,0,0,0,.23.19.48.48,0,0,0,.29,0h0a.58.58,0,0,0,.25-.12.47.47,0,0,0,.15-.25.49.49,0,0,0,0-.24.48.48,0,0,0-.12-.22A.52.52,0,0,0,12,1.32.46.46,0,0,0,11.81,1.27ZM3.3,16.9a.48.48,0,0,0-.23-.07.48.48,0,0,0-.24.07.5.5,0,0,0-.19.19.58.58,0,0,0-.06.26.49.49,0,0,0,.26.44.4.4,0,0,0,.22.06.49.49,0,0,0,.49-.53.5.5,0,0,0-.06-.24A.47.47,0,0,0,3.3,16.9ZM12.07,4.59a.47.47,0,0,0-.28-.09.56.56,0,0,0-.43.23.48.48,0,0,0-.07.24.51.51,0,0,0,0,.24.47.47,0,0,0,.15.19.51.51,0,0,0,.31.11.54.54,0,0,0,.22,0,.5.5,0,0,0,.21-.17A.54.54,0,0,0,12.31,5a.58.58,0,0,0-.06-.26A.47.47,0,0,0,12.07,4.59Zm-.62-.83a.47.47,0,0,0,.34.13.57.57,0,0,0,.22,0,.53.53,0,0,0,.3-.45.48.48,0,0,0-.07-.26A.5.5,0,0,0,12.05,3a.58.58,0,0,0-.26-.06.42.42,0,0,0-.26.08.44.44,0,0,0-.17.16.57.57,0,0,0-.07.22h0a.46.46,0,0,0,.16.41Z"/></svg>