<svg id="Слой_1" data-name="Слой 1" xmlns="http://www.w3.org/2000/svg" viewBox="0 0 24 24"><title>EVNМонтажная область 1</title><path d="M11.63,6.55a4.19,4.19,0,0,1,2.65-1.37h.77A4.14,4.14,0,0,1,17.7,6.55,3.77,3.77,0,1,0,17.7,1a4.19,4.19,0,0,1-2.65,1.37h-.77A4.23,4.23,0,0,1,11.63,1a3.77,3.77,0,1,0,0,5.57Z"/><path d="M11.63,22.87a4.2,4.2,0,0,1,2.65-1.38h.77a4.15,4.15,0,0,1,2.65,1.38,3.77,3.77,0,1,0,2.54-6.56,3.76,3.76,0,0,0-2.54,1,4.15,4.15,0,0,1-2.65,1.38h-.77a4.2,4.2,0,0,1-2.65-1.38A3.77,3.77,0,1,0,9.1,23.84,3.79,3.79,0,0,0,11.63,22.87Z"/><path d="M18.35,11.92a3.77,3.77,0,1,1-3.76-3.76A3.76,3.76,0,0,1,18.35,11.92Z"/><path d="M3.76,15.69A3.77,3.77,0,1,0,0,11.92,3.77,3.77,0,0,0,3.76,15.69Z"/></svg>