<svg id="Слой_1" data-name="Слой 1" xmlns="http://www.w3.org/2000/svg" viewBox="0 0 24 24"><title>EVRМонтажная область 1</title><path d="M12.63,11.38l1.28,1.3c.18.2.37.39.56.58.35.36.7.72,1,1.09a4.67,4.67,0,0,1,1.06,5,4.54,4.54,0,0,1-4.06,3.17A4.55,4.55,0,0,1,7.9,20.3a4.81,4.81,0,0,1-.36-4.54l0,0s0,0,.05-.06l0,0a9.15,9.15,0,0,1,1.67-2.05l.3-.3c.17-.18.29-.16.45,0s.3.31.46.46l.21.2.77.81c.61.64,1.23,1.27,1.83,1.92a1.46,1.46,0,0,1,0,2c-.12.16-.21.21-.36,0s-.23-.26-.35-.38l-.16-.18c-.17-.18-.34-.37-.52-.55q-.91-1-1.83-2a.18.18,0,0,1-.05-.07c-.07-.11-.15-.24-.31-.05a3.44,3.44,0,0,0-.9,1.78,3.23,3.23,0,0,0,2,3.41,3.21,3.21,0,0,0,3.76-1.08,3.13,3.13,0,0,0-.07-3.87,33.55,33.55,0,0,0-2.35-2.42L11,12.12c-.8-.84-1.61-1.68-2.43-2.51a4.84,4.84,0,1,1,6.58.26l-.3.28-.44.44c-.15.15-.24.15-.38,0L13.47,10c-.92-.93-1.85-1.87-2.74-2.84a1.47,1.47,0,0,1-.11-1.93c.17-.25.29-.28.5,0,.88,1,1.76,1.91,2.65,2.86.23.25.32.37.39.37s.14-.14.34-.4a3.11,3.11,0,0,0-.44-4.35,3.19,3.19,0,0,0-4.36.21,3.15,3.15,0,0,0-.08,4.36C10.61,9.31,11.62,10.34,12.63,11.38Z"/><path d="M17.39,7a6.62,6.62,0,0,0-.17-2.58l4.84,5.25-2,.69-.57-.64h0q-.95-1.1-1.89-2.16A.64.64,0,0,1,17.39,7Z"/><path d="M22.06,9.68l.44.48h0l1.37,1.51c.13.15.2.24,0,.43q-3.25,3.54-6.5,7.1l-.17.13a5.61,5.61,0,0,0,.13-2.69c0-.14.05-.22.13-.3l.06-.06.5-.57c1-1.17,2.07-2.35,3.12-3.51.22-.24.22-.38,0-.61s-.54-.57-.8-.86h0L20,10.37Z"/><path d="M6.59,16.88a.6.6,0,0,0-.17-.6l-.92-1h0c-.89-1-1.78-2-2.68-3-.21-.24-.2-.38,0-.61,1-1.13,2-2.28,3-3.42h0l.55-.61.06-.07c.09-.09.18-.18.15-.33a5.84,5.84,0,0,1,.13-2.71l-.11.11h0l-.1.09-6.43,7c-.18.19-.14.29,0,.46.35.37.69.74,1,1.12h0c.1.1.19.21.28.31l3.25,3.59,2.08,2.22c0-.07,0-.13,0-.18s0-.15,0-.21A5.08,5.08,0,0,1,6.59,16.88Z"/><path d="M7.46,15.72h.06S7.49,15.71,7.46,15.72Z"/></svg>