<svg id="Слой_1" data-name="Слой 1" xmlns="http://www.w3.org/2000/svg" viewBox="0 0 24 24"><title>EVXМонтажная область 1</title><path d="M5.54,13.32a1.76,1.76,0,0,0,2,0L8.7,14.52,10,13.26,8.25,11.53a1.77,1.77,0,0,0-.61-1,1.75,1.75,0,0,0-1.13-.41,1.77,1.77,0,0,0-1.75,1.48L2.05,14.28a10.21,10.21,0,1,1,19.87.14l-4.23-4.23a1.76,1.76,0,0,0-.57-1.13,1.81,1.81,0,0,0-1.19-.46,1.75,1.75,0,0,0-1.19.47,1.79,1.79,0,0,0-.57,1.16L5,19.41,3.72,20.68a10.89,10.89,0,0,0,1.4,1.14,12,12,0,1,0-3.77-4.3l1.34-1.34ZM15,11.9a1.82,1.82,0,0,0,.91.24,1.77,1.77,0,0,0,.89-.26l4.42,4.42A10.25,10.25,0,0,1,12,22.21a10.1,10.1,0,0,1-5.59-1.68ZM16,9.59a.67.67,0,0,1,.31.05.77.77,0,0,1,.27.17,1,1,0,0,1,.18.26.83.83,0,0,1,0,.62,1,1,0,0,1-.18.26.77.77,0,0,1-.27.17.7.7,0,0,1-.32.05.75.75,0,0,1-.54-.24.8.8,0,0,1,0-1.1A.77.77,0,0,1,16,9.59ZM6.52,11a.78.78,0,0,1,.3.07.65.65,0,0,1,.26.17.78.78,0,0,1,.17.26.78.78,0,0,1,0,.6.78.78,0,0,1-.17.26.9.9,0,0,1-.26.17A.81.81,0,0,1,6,12.39a.83.83,0,0,1-.23-.56A.8.8,0,0,1,6,11.27.78.78,0,0,1,6.52,11Z"/></svg>