<svg id="Слой_1" data-name="Слой 1" xmlns="http://www.w3.org/2000/svg" viewBox="0 0 24 24"><title>EXRNМонтажная область 1</title><path d="M22.84,8.54V5.92l-2.27-1.3-1.71,1L14.68,3.19V1.31L12.42,0,10.15,1.31v2L6.08,5.66l-1.81-1L2,5.92V8.54l1.8,1v4.84l-1.8,1v2.62l2.27,1.3,1.76-1,4.12,2.38v2L12.42,24l2.26-1.31v-2l4.1-2.36,1.79,1,2.27-1.3V15.46l-1.81-1V9.58ZM12,19l-1.46.84-4-2.29V15.46l-1.8-1V9.58l1.36-.79,2.33,1.35v4.17l3.54,2ZM9,9.38,6.53,8V6.47l4-2.32,1.87,1.08,2-1.14,3.91,2.26V8L15.89,9.39l-3.47-2Zm11.15,5-1.8,1v2.09l-4,2.31L12.88,19V16.35l3.54-2V10.16L18.76,8.8l1.35.78Z"/></svg>