<svg id="Слой_1" data-name="Слой 1" xmlns="http://www.w3.org/2000/svg" viewBox="0 0 24 24"><title>EXYМонтажная область 1</title><path d="M22.51,4.08,12.85,4h-.07L10.59,4h-.44V4l-8.66.1A1.51,1.51,0,0,0,0,5.63V14.1a1.51,1.51,0,0,0,1.51,1.51h.92v4H5l3-4h4.77l3.56,0,3.07,4h2.22v-4h.92A1.52,1.52,0,0,0,24,14.13V5.59A1.52,1.52,0,0,0,22.51,4.08ZM4.67,19H3.25l2.61-3.37H7.15ZM11.48,7.24H9.55v5.14h1.93V14.1a.74.74,0,0,1-.25.58,1.62,1.62,0,0,1-1.08.29H7.63v0H5.55l-2.48,3.2V15H1.51a.87.87,0,0,1-.87-.87V5.63a.88.88,0,0,1,.86-.87l9.07-.1a1.56,1.56,0,0,1,.56.1.54.54,0,0,1,.25.19.79.79,0,0,1,.1.43Zm2.19,6.86a.87.87,0,0,1-.88.87h-1a1.41,1.41,0,0,0,.28-.87V12.34l1.56-.29Zm0-6.5-1.56-.32V5.38a1.33,1.33,0,0,0-.18-.74h.85a.88.88,0,0,1,.89.87Z"/></svg>