<svg id="Слой_1" data-name="Слой 1" xmlns="http://www.w3.org/2000/svg" viewBox="0 0 24 24"><title>FOTAМонтажная область 1</title><path d="M20.21,7.59a.86.86,0,0,1,0,1.22L18.92,10.1a.88.88,0,0,1-1.22,0L12.61,5a.88.88,0,0,0-1.22,0L10,6.37a.88.88,0,0,0,0,1.22L11.47,9a.88.88,0,0,1,0,1.22l-1.3,1.29a.85.85,0,0,1-1.21,0L7.51,10.1a.85.85,0,0,0-1.21,0L2.49,13.9a.85.85,0,0,1-1.21,0l-.84-.84a1.49,1.49,0,0,1,0-2.12L10.94.44a1.49,1.49,0,0,1,2.12,0Z"/><path d="M3.79,16.41a.86.86,0,0,1,0-1.22L5.08,13.9a.88.88,0,0,1,1.22,0L11.39,19a.88.88,0,0,0,1.22,0L14,17.63a.88.88,0,0,0,0-1.22L12.53,15a.88.88,0,0,1,0-1.22l1.3-1.29a.85.85,0,0,1,1.21,0l1.45,1.44a.85.85,0,0,0,1.21,0l3.81-3.8a.85.85,0,0,1,1.21,0l.84.84a1.49,1.49,0,0,1,0,2.12l-10.5,10.5a1.49,1.49,0,0,1-2.12,0Z"/></svg>