<svg id="Слой_1" data-name="Слой 1" xmlns="http://www.w3.org/2000/svg" viewBox="0 0 24 24"><title>FSNМонтажная область 1</title><path d="M3.66,20.62h.16A79.22,79.22,0,0,1,6.37,13,29.9,29.9,0,0,1,9.46,6.92c.67,0,1.36,0,2.08.08.88.07,1.8.17,2.75.3,2.9.41,4.45,1.07,5.21,1.86-.69-2.46-3.19-4.55-8.13-4.53h-.11c2.21-2.43,4.48-3.41,6.16-2.73a.53.53,0,0,1,.21.11A4.19,4.19,0,0,0,16.12.72,12,12,0,1,1,3.66,20.62Zm0,0a11.85,11.85,0,0,1-2.7-3.93A12.1,12.1,0,0,1,0,12,12.45,12.45,0,0,1,.22,9.7C1.43,8.35,3.78,7.41,7,7.07a29.8,29.8,0,0,0-2,5.14A33.52,33.52,0,0,0,3.64,20.6ZM.29,9.37A12,12,0,0,1,12,0a11.88,11.88,0,0,1,3.23.44C13,0,10.44,1.6,8.24,4.89c-4,.64-6.77,2.38-7.95,4.48Zm13,3a2.52,2.52,0,1,0,2.44,2.52A2.47,2.47,0,0,0,13.32,12.36Z"/></svg>