<svg id="Слой_1" data-name="Слой 1" xmlns="http://www.w3.org/2000/svg" viewBox="0 0 24 24"><defs><style>.cls-1{fill:none;stroke:#000;}</style></defs><title>FUNМонтажная область 1</title><path d="M6.89,22.85A12,12,0,0,1,8.36.56L11.78,5.1A6.8,6.8,0,0,0,7.83,6.48a6.9,6.9,0,0,0-2.5,7.34l4.83-3.64,3.06,4.06L8,18.18,12.37,24H12A12.16,12.16,0,0,1,6.89,22.85Z"/><path class="cls-1" d="M18.37,9.77l-4.43,3.34L11.48,9.85,16.3,6.21l.4-.3-.3-.4-3.76-5a11.4,11.4,0,0,1,9.27,5.63,11.5,11.5,0,0,1-6.09,16.68l-2.66-3.53a7.23,7.23,0,0,0,3.31-1.4A7.45,7.45,0,0,0,19.16,10L19,9.32Z"/></svg>