<svg id="Слой_1" data-name="Слой 1" xmlns="http://www.w3.org/2000/svg" viewBox="0 0 24 24"><title>GNOМонтажная область 1</title><path d="M21.63,6l-.87.88a4.37,4.37,0,0,1,.43,3.82,4.27,4.27,0,0,1-5.48,2.62,4.18,4.18,0,0,1-.87-.44l-2.79,2.83L9.62,13.23a4.4,4.4,0,0,1-3.94.5A4.47,4.47,0,0,1,3,8a4.18,4.18,0,0,1,.5-1L2.48,6l-.2.34a11.68,11.68,0,0,0-1.68,6A11.54,11.54,0,0,0,12,24h0A11.56,11.56,0,0,0,23.51,12.4a11.88,11.88,0,0,0-1.66-6ZM4.81,8.35a2.41,2.41,0,0,0-.47,1.44,2.35,2.35,0,0,0,2.33,2.37,2.26,2.26,0,0,0,1.43-.5Zm11.46,3.11a2.23,2.23,0,0,0,1.3.4,2.37,2.37,0,0,0,1.94-3.69ZM12.09,14l9.34-9.43-.36-.41a12.17,12.17,0,0,0-4.11-3A12,12,0,0,0,12,0h0A12.16,12.16,0,0,0,3,3.91l-.37.4ZM4.18,4.31A11,11,0,0,1,12,1.12h0a11.19,11.19,0,0,1,7.92,3.35l-7.82,7.89Z"/></svg>