<svg id="Слой_1" data-name="Слой 1" xmlns="http://www.w3.org/2000/svg" viewBox="0 0 24 25"><title>GNTМонтажная область 1</title><path d="M14.47,9.72a4.55,4.55,0,0,0,1-1.54,4.68,4.68,0,0,0,.36-1.81,4.74,4.74,0,0,0-1.1-3L17.5.59,16.88,0,14.13,2.75a4.69,4.69,0,0,0-2-1,4.7,4.7,0,0,0-5.41,2.8,4.82,4.82,0,0,0-.35,2.16,4.81,4.81,0,0,0,.67,2.08,4.66,4.66,0,0,0,1.53,1.56,4.81,4.81,0,0,0,2.07.7v3.49a4.56,4.56,0,0,0-2.9,1.36,4.74,4.74,0,0,0,0,6.69A4.86,4.86,0,0,0,9.7,23.78,4.71,4.71,0,0,0,14,23a4.62,4.62,0,0,0,1.41-1.75,4.75,4.75,0,0,0,.45-2.2,4.81,4.81,0,0,0-.62-2.15,4.74,4.74,0,0,0-1.55-1.63,4.67,4.67,0,0,0-2.12-.73V11.08a4.56,4.56,0,0,0,2.9-1.36Zm-.62,6.82a4,4,0,0,1,.84,1.26A3.89,3.89,0,0,1,15,19.27a3.92,3.92,0,0,1-2.38,3.58,3.75,3.75,0,0,1-1.48.28A3.8,3.8,0,0,1,9,22.48a3.84,3.84,0,0,1-1.43-1.73,4,4,0,0,1-.22-2.23,3.84,3.84,0,0,1,2.31-2.81,3.88,3.88,0,0,1,4.21.83Zm-2.73-6.29A3.87,3.87,0,0,1,9,9.6,4,4,0,0,1,7.55,7.87a4,4,0,0,1-.22-2.24,3.89,3.89,0,0,1,1.06-2,3.77,3.77,0,0,1,1.25-.84,3.59,3.59,0,0,1,1.48-.29,3.94,3.94,0,0,1,1.48.29,3.77,3.77,0,0,1,1.25.84,3.67,3.67,0,0,1,.84,1.25A3.59,3.59,0,0,1,15,6.39a3.94,3.94,0,0,1-.29,1.48,3.88,3.88,0,0,1-.84,1.25A3.67,3.67,0,0,1,12.6,10,3.76,3.76,0,0,1,11.12,10.25Z"/></svg>