<svg id="Слой_1" data-name="Слой 1" xmlns="http://www.w3.org/2000/svg" viewBox="0 0 24 24"><title>GRIDМонтажная область 1</title><path d="M22.66,8H21.48V9.34H20.14v1.18h1.34v1.34h1.18V10.52H24V9.34H22.66Z"/><path d="M15.05,9.34H13.86v6.33h1.19Z"/><path d="M17,9.34v6.33h2.47a3.64,3.64,0,0,0,2-.6,2.43,2.43,0,0,0,1.09-2V12.5H21.45V13a1.27,1.27,0,0,1-.59,1.12,2.53,2.53,0,0,1-1.39.39H18.19V10.47h1.23V9.34Z"/><path d="M7.33,9.34H9.75a2.44,2.44,0,0,1,1.48.48A2.17,2.17,0,0,1,12,11.6a2.14,2.14,0,0,1-.8,1.79,2.61,2.61,0,0,1-.3.2l1.41,2.08H10.83L9.62,13.86H8.51v1.81H7.33Zm2.34,3.44a1.45,1.45,0,0,0,.88-.25,1.06,1.06,0,0,0,.38-.93,1.07,1.07,0,0,0-.37-.93,1.35,1.35,0,0,0-.84-.25H8.51v2.36Z"/><path d="M3.24,9.34a3.6,3.6,0,0,0-2,.67A2.89,2.89,0,0,0,0,12.45a3.08,3.08,0,0,0,1.13,2.49,3.54,3.54,0,0,0,2.21.75,2.75,2.75,0,0,0,2.15-.78l.12-.16V12.5H4.48v1.8l-.18.09a2.42,2.42,0,0,1-1,.17,2.42,2.42,0,0,1-1.5-.5,2,2,0,0,1-.71-1.61,1.78,1.78,0,0,1,.74-1.53,2.47,2.47,0,0,1,1.37-.45,2.7,2.7,0,0,1,1.51.41l.59-1A4,4,0,0,0,3.24,9.34Z"/></svg>