<svg id="Слой_1" data-name="Слой 1" xmlns="http://www.w3.org/2000/svg" viewBox="0 0 24 24"><title>GTCМонтажная область 1</title><path d="M12.5,22.7V1.3A1.3,1.3,0,0,0,11.2,0H7.31A4.15,4.15,0,0,0,3.16,4.15V19.71a1,1,0,0,1-.13.5L2.2,21.73a1.7,1.7,0,0,0,.29,2,1,1,0,0,0,.68.28h8A1.3,1.3,0,0,0,12.5,22.7Z"/><path d="M14.32,8.56V1.3A1.3,1.3,0,0,1,15.61,0h2.6a3.63,3.63,0,0,1,3.63,3.63V8.56a1.3,1.3,0,0,1-1.3,1.3H15.61A1.3,1.3,0,0,1,14.32,8.56Z"/><path d="M21.4,11.55H15.61a1.29,1.29,0,0,0-1.29,1.29V22.7A1.3,1.3,0,0,0,15.61,24h2.22a3.9,3.9,0,0,0,3.9-3.89V14.6a.71.71,0,0,1,.07-.32L22.4,13a.8.8,0,0,0-.15-.87l-.29-.3A.79.79,0,0,0,21.4,11.55Z"/></svg>