<svg id="Слой_1" data-name="Слой 1" xmlns="http://www.w3.org/2000/svg" viewBox="0 0 24 24"><title>GTOМонтажная область 1</title><path d="M11.4,4.89A12.25,12.25,0,0,0,8.49,1.21a2.24,2.24,0,0,0-3.13.05,2.12,2.12,0,0,0-.28,2.87,4.46,4.46,0,0,0,.65.76H1.81A1.82,1.82,0,0,0,0,6.67,1.82,1.82,0,0,0,1.81,8.45h9.36V6.08h1.51V8.45h9.51A1.82,1.82,0,0,0,24,6.67a1.83,1.83,0,0,0-1.81-1.78H18.31a4,4,0,0,0,.62-.8,2.23,2.23,0,0,0-.44-2.83,2.26,2.26,0,0,0-3.14-.05,12.39,12.39,0,0,0-2.9,3.68Zm-1.76,0H8.28A5.69,5.69,0,0,1,6.35,3.33a.68.68,0,0,1,.07-1C6.74,2,7,2,7.59,2.39A9.43,9.43,0,0,1,9.64,4.89Zm4.56,0a9.62,9.62,0,0,1,2.06-2.5c.54-.4.84-.4,1.16-.08a.76.76,0,0,1,.18,1.06,4.65,4.65,0,0,1-1.77,1.52Zm-3,5H1.36v9.63a3.61,3.61,0,0,0,1.09,2.63,3.77,3.77,0,0,0,2.68,1.08h6Zm1.51,0V23.27h6a3.77,3.77,0,0,0,2.68-1.08,3.61,3.61,0,0,0,1.1-2.63V9.93Z"/></svg>