<svg id="Слой_1" data-name="Слой 1" xmlns="http://www.w3.org/2000/svg" viewBox="0 0 24 24"><title>HMQМонтажная область 1</title><path d="M5.48,19.29a.47.47,0,0,0,0,.46,1.27,1.27,0,0,0,0,.64v.34a2.24,2.24,0,0,0,0,.93V22a2.34,2.34,0,0,0,0,1c0,.09,0,.19,0,.29-.07.66-.07.66-.72.69h0a18.92,18.92,0,0,0-2.13,0c-.27-.06-.26-.26-.26-.47,0-4.52,0-9,0-13.55,0-2.2.08-4.4,0-6.59,0-1,.08-2,.11-2.94A.8.8,0,0,1,2.53,0h2a3.54,3.54,0,0,0,.92,0l.15.41c-.13.1-.07.24-.06.36v1a.67.67,0,0,0,0,.42,5.34,5.34,0,0,0,0,1.13,1.93,1.93,0,0,1,0,.24c0,.27,0,.55,0,.82a1.06,1.06,0,0,0,0,.56v.85a1,1,0,0,0,0,.54v.83a.75.75,0,0,0,0,.49,2.44,2.44,0,0,0,0,.27c0,.09,0,.23,0,.28s.2-.07.29-.14a9.42,9.42,0,0,1,7.39-2.2,9.78,9.78,0,0,1,8.61,9.7,11.19,11.19,0,0,0,0,1.83c-.11,2.07-.05,4.14-.07,6.21a.6.6,0,0,1-.11.41,10.3,10.3,0,0,0-2.22,0l-.41-.07h-.38c0-.1,0-.19,0-.28V23.1c.11-.33-.11-.66,0-1l0-.67c.14-.35-.13-.72,0-1.08s-.05-.45,0-.67-.09-.72,0-1.08l0-1c.09-.42-.15-.84,0-1.25s-.09-.7,0-1.05a11.17,11.17,0,0,0-.17-1.16,6.63,6.63,0,0,0-10.38-4,5.3,5.3,0,0,0-2,2.41l0,0,0,.11a4,4,0,0,0-.63,2.65v.38a1.42,1.42,0,0,0,0,.58c0,.18,0,.36,0,.54s-.09.33,0,.48c-.13.22,0,.47-.07.7a.94.94,0,0,0,0,.47,1.27,1.27,0,0,0,0,.77"/></svg>