<svg id="Слой_1" data-name="Слой 1" xmlns="http://www.w3.org/2000/svg" viewBox="0 0 24 24"><title>HOTМонтажная область 1</title><path d="M1.2,18c-.14.31-.26.6-.39.9L.14,20.39c0,.06,0,.09,0,.1l.29,0,.84,0H1.9c.34,0,.68-.06,1-.12a9.7,9.7,0,0,0,2.84-.85,8.68,8.68,0,0,0,1.38-.8c.36-.27.72-.54,1.06-.84a6.08,6.08,0,0,0,.61-.63,11.07,11.07,0,0,0,.73-.93,7.14,7.14,0,0,0,.73-1.33,8.11,8.11,0,0,0,.52-1.72H13c.1,0,.15,0,.15.13a1,1,0,0,0,0,.17,7.27,7.27,0,0,0,.55,1.65,8.73,8.73,0,0,0,1.68,2.4,4.42,4.42,0,0,0,.5.47l.83.65a10.05,10.05,0,0,0,1.73,1,10.7,10.7,0,0,0,1.57.52c.45.1.9.17,1.35.24a8.42,8.42,0,0,0,1,.08c.37,0,.75,0,1.12-.05a3.79,3.79,0,0,0,.45-.07l-.47-1.07c-.2-.44-.38-.87-.57-1.31a.08.08,0,0,0-.05-.05l-.33,0L21.69,18a6.32,6.32,0,0,1-1.37-.3A7.09,7.09,0,0,1,19,17.08a6.44,6.44,0,0,1-1.7-1.37c-.19-.22-.36-.45-.53-.68a5.61,5.61,0,0,1-.64-1.3c0-.13-.08-.26-.12-.41H17.6c.18,0,.22,0,.29-.19.22-.52.45-1,.66-1.55l.32-.72,0,0a3.18,3.18,0,0,0-1-.16c-.56,0-1.14,0-1.71,0H16s0-.08,0-.11a6.27,6.27,0,0,1,.53-1.28,6,6,0,0,1,1-1.33,5.21,5.21,0,0,1,.5-.45,6.53,6.53,0,0,1,1.31-.85,7.53,7.53,0,0,1,3.22-.75h.19c.07,0,.18,0,.23-.09s.14-.34.21-.5c.21-.47.41-.93.6-1.39L24,3.49s0,0,0,0a6.63,6.63,0,0,0-.76-.11c-.25,0-.5,0-.76,0l-.51,0c-.28,0-.55,0-.81.09a7.58,7.58,0,0,0-.95.18c-.41.1-.83.24-1.24.38A9.71,9.71,0,0,0,15.74,6a7.47,7.47,0,0,0-.62.64c-.26.3-.51.61-.74.93a6.59,6.59,0,0,0-.64,1.13,8,8,0,0,0-.52,1.47c0,.18-.07.35-.11.52H10.89s0,0-.05,0l0,0c-.05-.24-.09-.49-.16-.73a7.51,7.51,0,0,0-.89-2.08A10.17,10.17,0,0,0,8.32,6L8,5.73c-.24-.2-.49-.39-.74-.58a9.58,9.58,0,0,0-1.83-1A10.23,10.23,0,0,0,4,3.65a10.16,10.16,0,0,0-2.32-.34,8.87,8.87,0,0,0-1.46.06L0,3.44c.11.25.22.48.32.72S.57,4.74.7,5L1,5.77s0,0,0,.05l0,0,.23,0c.32,0,.62,0,.94.07a6.71,6.71,0,0,1,1.18.26,7.49,7.49,0,0,1,1.33.59,5.66,5.66,0,0,1,1.12.82,6.62,6.62,0,0,1,.76.83,5.67,5.67,0,0,1,1,2c0,.07,0,.14,0,.23H6a.23.23,0,0,0-.18.06.78.78,0,0,0-.09.21L5,12.5l-.27.64,0,0,.1,0A5.38,5.38,0,0,0,6,13.32H7.66s0,.07,0,.1a6,6,0,0,1-.55,1.36,6.12,6.12,0,0,1-1,1.32,6.82,6.82,0,0,1-.58.49A6.53,6.53,0,0,1,3.2,17.75,8.23,8.23,0,0,1,1.9,18Z"/></svg>