<svg id="Слой_1" data-name="Слой 1" xmlns="http://www.w3.org/2000/svg" viewBox="0 0 24 24"><title>HSTМонтажная область 1</title><path d="M11.77,13.44v3.91a.58.58,0,0,1-.48.64H.6a.57.57,0,0,1-.6-.61V6.83a.57.57,0,0,1,.6-.6H11.16a.57.57,0,0,1,.61.63c0,.71,0,1.41,0,2.12,0,.56,0,1.12,0,1.68,0,.1,0,.13-.14.13H7.16a.9.9,0,0,0-.73.34L4.9,12.94a.29.29,0,0,0-.06.34.3.3,0,0,0,.3.16h6.63Z"/><path d="M11.93,10.77a6.13,6.13,0,1,1,0,2.68h5.94a1.39,1.39,0,0,0,.53-.1,1.35,1.35,0,0,0,.74-.77,1.39,1.39,0,0,0,.08-.54,1.35,1.35,0,0,0-1.33-1.27h-6Z"/></svg>