<svg id="Слой_1" data-name="Слой 1" xmlns="http://www.w3.org/2000/svg" xmlns:xlink="http://www.w3.org/1999/xlink" viewBox="0 0 24 24"><defs><style>.cls-1{fill:none;}.cls-2{clip-path:url(#clip-path);}</style><clipPath id="clip-path"><rect class="cls-1" width="24" height="24"/></clipPath></defs><title>HTМонтажная область 1</title><g class="cls-2"><path d="M14.14,7.32c0-3.45-1.67-6.38-2.93-7.32,0,0-.1-.1-.1.1C11,6.69,7.66,8.47,5.88,11A8.16,8.16,0,0,0,9.65,23.84c2.3.62-.53-1.15-.84-4.81C8.29,14.43,14.14,11.08,14.14,7.32Zm2.2,2.3a16.59,16.59,0,0,1-2.2,4.28c-3.87,5.55-1.67,8.26-.42,9.73.74.83,0,0,1.78-.84a7.79,7.79,0,0,0,3.87-6A8.2,8.2,0,0,0,16.34,9.62Z"/></g></svg>