<svg id="Слой_1" data-name="Слой 1" xmlns="http://www.w3.org/2000/svg" viewBox="0 0 24 24"><title>HVNМонтажная область 1</title><path d="M5.5,0H9.45V24H5.5Zm4.56,9h1.52v1.52H10.06Zm2.23-2.22H13.8V8.3H12.28Zm2.22,0H16V8.3H14.51Zm0,2.22H16v1.52H14.51Zm2.23,0h1.52v1.52H16.74Zm-2.23,2.23H16v1.52H14.51Zm2.23,0h1.52v1.52H16.74Zm-2.23,2.22H16V15H14.51Zm2.23,0h1.52V15H16.74Zm-2.23,2.23H16v1.52H14.51Zm2.23,0h1.52v1.52H16.74Zm-2.23,2.23H16v1.52H14.51Zm2.23,0h1.52v1.52H16.74Zm-2.23,2.23H16v1.52H14.51Zm2.23,0h1.52v1.52H16.74Zm-2.23,2.23H16V23.9H14.51Zm2.23,0h1.52V23.9H16.74Z"/></svg>