<svg id="Слой_1" data-name="Слой 1" xmlns="http://www.w3.org/2000/svg" viewBox="0 0 25 24"><title>ICXМонтажная область 1</title><path d="M17.27,11.73A5.49,5.49,0,0,1,9,16.43L6.55,18.85a8.74,8.74,0,0,0,5.24,1.71A8.83,8.83,0,0,0,18.91,6.49L16.48,8.91a5.41,5.41,0,0,1,.79,2.82ZM17,4.59,14.59,7a5.46,5.46,0,0,0-6.67.84,5.45,5.45,0,0,0-1.6,3.87,5.53,5.53,0,0,0,.76,2.8L4.66,17A8.85,8.85,0,0,1,17,4.59Z"/><path d="M24,2.83a2.83,2.83,0,0,1-1.75,2.62,2.84,2.84,0,0,1-3.08-.61,2.83,2.83,0,0,1-.62-3.09A2.83,2.83,0,0,1,21.17,0a2.68,2.68,0,0,1,1.08.22,2.84,2.84,0,0,1,.92.61,2.93,2.93,0,0,1,.62.92A2.85,2.85,0,0,1,24,2.83Z"/><path d="M5.67,21.17a2.83,2.83,0,0,1-.83,2,2.87,2.87,0,0,1-2,.83,2.68,2.68,0,0,1-1.08-.22,2.74,2.74,0,0,1-.92-.61,2.84,2.84,0,0,1-.61-.92A2.68,2.68,0,0,1,0,21.17a2.84,2.84,0,0,1,4.84-2,2.87,2.87,0,0,1,.83,2Z"/></svg>