<svg id="Слой_1" data-name="Слой 1" xmlns="http://www.w3.org/2000/svg" viewBox="0 0 24 24"><title>INSМонтажная область 1</title><path d="M7.39,3.4,5,0H4.59V.53L6.9,3.87h.49Z"/><path d="M5.85,5.31,7.39,7V7.5H6.9L5.39,5.84V5.31Z"/><path d="M7.39,10.19l-1.6-.92H5.33v.52l1.57.87h.49Z"/><path d="M10.75,9.94H10v.76h.77Z"/><path d="M9.9,5.31,10.72,7V7.5h-.49L9.44,5.84V5.31Z"/><path d="M10.72,3.4,9.92,0H9.39V.55l.8,3.32h.53Z"/><path d="M.47,9.25l3.31.9v.47H3.29L0,9.77V9.25Z"/><path d="M3.78,7,.47,4.61H0v.52L3.29,7.51h.49Z"/><path d="M.47,0,3.78,3.39v.47H3.29L0,.53V0Z"/><path d="M16.58,3.4,18.92,0h.46V.53L17.07,3.87h-.49Z"/><path d="M16.58,7l1.54-1.72h.45v.53L17.07,7.5h-.49Z"/><path d="M18.18,9.27l-1.6.92v.47h.49l1.57-.87V9.27Z"/><path d="M14,9.94h-.77v.76H14Z"/><path d="M13.25,7l.82-1.72h.46v.53L13.74,7.5h-.49Z"/><path d="M14.05,0l-.8,3.38v.47h.52L14.58.55V0Z"/><path d="M20.19,10.15l3.31-.9H24v.52l-3.27.85h-.49Z"/><path d="M23.5,4.61,20.19,7v.47h.49L24,5.13V4.61Z"/><path d="M20.19,3.39,23.5,0H24V.53L20.68,3.86h-.49Z"/><path d="M10.74,14.06H10V13.3h.76Z"/><path d="M7.38,13.81l-1.6.92H5.32v-.52l1.58-.87h.48Z"/><path d="M5.84,18.69,7.38,17V16.5H6.9L5.39,18.16v.53Z"/><path d="M7.38,20.6,5,24H4.58v-.53L6.9,20.13h.48Z"/><path d="M9.89,18.69,10.72,17V16.5h-.49l-.8,1.66v.53Z"/><path d="M10.72,20.6,9.91,24H9.38v-.53l.81-3.32h.53Z"/><path d="M.46,14.75l3.31-.9v-.47H3.28L0,14.23v.52Z"/><path d="M3.77,17,.46,19.39H0v-.52l3.28-2.38h.49Z"/><path d="M.46,24l3.31-3.39v-.47H3.28L0,23.47V24Z"/><path d="M16.57,20.6,18.92,24h.46v-.53l-2.32-3.34h-.49Z"/><path d="M16.57,17l1.54,1.72h.46v-.53L17.06,16.5h-.49Z"/><path d="M18.18,14.73l-1.61-.92v-.47h.49l1.57.87v.52Z"/><path d="M14,14.06h-.76V13.3H14Z"/><path d="M13.24,17l.83,1.72h.45v-.53l-.79-1.66h-.49Z"/><path d="M14,24l-.8-3.38v-.47h.53l.81,3.32V24Z"/><path d="M20.19,13.85l3.31.9H24v-.52l-3.28-.85h-.48Z"/><path d="M23.5,19.39,20.19,17v-.47h.48L24,18.87v.52Z"/><path d="M20.19,20.61,23.5,24H24v-.53l-3.29-3.33h-.48Z"/></svg>