<svg width="24" height="24" viewBox="0 0 24 24" fill="none" xmlns="http://www.w3.org/2000/svg">
<path d="M12 1.5L3 6.7V17.088L12 22.288L21 17.088V6.7L12 1.5ZM12.184 18.332L5.276 14.392L5.3 12.476L12.18 16.412L15.5 14.5L13.276 13.216L12.444 13.696L10.884 12.796L11.72 12.312L10.628 11.68L9.968 12.064L8.4 11.172L9.064 10.788L5.54 8.752L12.18 4.92L18.444 8.492L16.764 9.468L12.18 6.84L8.864 8.752L10.72 9.824L11.668 9.272L13.232 10.172L12.276 10.724L13.368 11.356L14.144 10.904L15.708 11.804L14.924 12.26L18.812 14.5L12.184 18.332Z" fill="#0050db"/>
</svg>
