<svg id="Слой_1" data-name="Слой 1" xmlns="http://www.w3.org/2000/svg" viewBox="0 0 24 24"><title>ITCМонтажная область 1</title><path d="M21.9,16V8a1.41,1.41,0,0,0,.72-.62,1.37,1.37,0,0,0,.15-.93,1.41,1.41,0,0,0-.48-.82,1.38,1.38,0,0,0-.89-.31,1.4,1.4,0,0,0-.94.35l-7-4a1.4,1.4,0,0,0,0-.61,1.46,1.46,0,0,0-.27-.56,1.47,1.47,0,0,0-.48-.38,1.58,1.58,0,0,0-.6-.13,1.37,1.37,0,0,0-.59.13,1.26,1.26,0,0,0-.47.36,1.34,1.34,0,0,0-.29.52,1.52,1.52,0,0,0,0,.6L3.56,5.71a1.36,1.36,0,0,0-.74-.36A1.36,1.36,0,0,0,2,5.46a1.38,1.38,0,0,0-.79,1.37A1.37,1.37,0,0,0,2.21,8V16a1.41,1.41,0,0,0-1,1.53,1.45,1.45,0,0,0,.47.86,1.4,1.4,0,0,0,.92.33,1.39,1.39,0,0,0,.79-.24l3.72,2.12v0h.08l3.53,2A1.38,1.38,0,0,0,12.14,24a1.39,1.39,0,0,0,.56-.13,1.5,1.5,0,0,0,.46-.33,1.54,1.54,0,0,0,.28-.5,1.33,1.33,0,0,0,.06-.56l7.24-3.95a1.39,1.39,0,0,0,2.06-1.21,1.37,1.37,0,0,0-.25-.79A1.42,1.42,0,0,0,21.9,16ZM17,12.89h0v-.1l-.17-.08-1-.63,1.09-.65.18-.08v-.42h0V4.59l3,1.74a1.65,1.65,0,0,0-.05.38,1.39,1.39,0,0,0,1.12,1.36V16a1.39,1.39,0,0,0-.58.26,1.48,1.48,0,0,0-.4.5,1.37,1.37,0,0,0-.13.63,1.31,1.31,0,0,0,.15.61L17,19.71ZM12.11,2.77a1.38,1.38,0,0,0,1-.42l3.14,1.8v6.73L15,11.64l-1.7-1a1.31,1.31,0,0,0,0-.52A1.29,1.29,0,0,0,13,9.64a1.24,1.24,0,0,0-.43-.32,1.26,1.26,0,0,0-.51-.11,1.17,1.17,0,0,0-.52.12,1.16,1.16,0,0,0-.43.33,1.21,1.21,0,0,0-.24.48,1.18,1.18,0,0,0,0,.53l-1.65,1-1.3-.78V4.13l3.17-1.82a1.44,1.44,0,0,0,1,.46Zm.81,10.11a1.22,1.22,0,0,0-.85-.36,1.25,1.25,0,0,0-.86.33l-1.28-.76,1.29-.75a1.23,1.23,0,0,0,.85.33,1.28,1.28,0,0,0,.85-.35l1.3.77Zm-9,5a1.32,1.32,0,0,0,0-1.13A1.38,1.38,0,0,0,3,16V8A1.39,1.39,0,0,0,4,6.38L7.11,4.57v6.52h0v.26l.42.21.9.53-1,.59-.27.16-.06.05V19.7Zm8.22,3.35a1.51,1.51,0,0,0-.69.18,1.44,1.44,0,0,0-.51.5l-3-1.74V13.28l1.29-.75,1.67,1a1.64,1.64,0,0,0,0,.22,1.24,1.24,0,0,0,2.47,0,.55.55,0,0,0,0-.18l1.71-1,1.21.72v6.88l-3,1.62a1.49,1.49,0,0,0-.49-.41A1.35,1.35,0,0,0,12.11,21.2Z"/></svg>