<svg id="Слой_1" data-name="Слой 1" xmlns="http://www.w3.org/2000/svg" viewBox="0 0 24 24"><title>JGBPМонтажная область 1</title><path d="M13.21,2.94a4.4,4.4,0,0,0-1.71.35,4.29,4.29,0,0,0-1.44,1,4.22,4.22,0,0,0-1,1.46,4.32,4.32,0,0,0-.31,1.71v4.7H7.5a1,1,0,0,0,0,2H8.79v3.57a1.44,1.44,0,0,1-.1.5,1.42,1.42,0,0,1-.28.41A1.19,1.19,0,0,1,8,18.9a1.16,1.16,0,0,1-.49.1,1,1,0,0,0,0,2h9.14a1,1,0,0,0,0-2H10.52l0,0a3.37,3.37,0,0,0,.25-1.26V14.14h3.57a1,1,0,0,0,0-2H10.79V7.41A2.34,2.34,0,0,1,11,6.47a2.51,2.51,0,0,1,.52-.8,2.41,2.41,0,0,1,.8-.54,2.4,2.4,0,0,1,1.87,0,2.41,2.41,0,0,1,.8.54,2.51,2.51,0,0,1,.52.8,2.34,2.34,0,0,1,.17.94,1,1,0,0,0,1,1,1,1,0,0,0,1-1,4.37,4.37,0,0,0-.31-1.72,4.22,4.22,0,0,0-1-1.46,4.29,4.29,0,0,0-1.44-1A4.44,4.44,0,0,0,13.21,2.94Z"/></svg>