<svg id="Слой_1" data-name="Слой 1" xmlns="http://www.w3.org/2000/svg" viewBox="0 0 24 24"><title>JKRWМонтажная область 1</title><path d="M21.07,13.59H17.68l.42-2h3a1,1,0,0,0,0-2H18.53l.93-4.38a1,1,0,1,0-1.95-.42l-1,4.8H14.13l-1-4.8A1,1,0,0,0,12,4,1,1,0,0,0,11,4.79l-1,4.8H7.57l-1-4.8a1,1,0,0,0-2,.42l.94,4.38H3a1,1,0,0,0,0,2H6l.43,2H3a1,1,0,0,0,0,2H6.8l.87,4.06a1,1,0,0,0,1.08.78,1,1,0,0,0,1.08-.78l.86-4.06h2.67l.87,4.06a1,1,0,0,0,1.08.78,1,1,0,0,0,1.08-.78l.86-4.06h3.82a1,1,0,0,0,0-2Zm-12,0H8.42l-.42-2H9.5Zm3-4.28.06.28H12Zm-.91,4.28.42-2h1l.43,2Zm4.52,0H15l-.42-2h1.5Z"/></svg>