<svg id="Слой_1" data-name="Слой 1" xmlns="http://www.w3.org/2000/svg" viewBox="0 0 24 24"><title>JNTМонтажная область 1</title><path d="M12,24a4.14,4.14,0,0,1-2-.54l-6.88-4a4.05,4.05,0,0,1-2-3.53V8a4,4,0,0,1,.55-2A4,4,0,0,1,3.09,4.52L10,.54A4.09,4.09,0,0,1,14,.54l6.88,4a4.07,4.07,0,0,1,2,3.52V16a4.07,4.07,0,0,1-2,3.52l-6.88,4A4.05,4.05,0,0,1,12,24ZM8.27,15.27,6.74,16.36A3.41,3.41,0,0,0,9.49,17.8a3.52,3.52,0,0,0,1.07-.17,3.38,3.38,0,0,0,1.73-1.24,3.32,3.32,0,0,0,.65-2V13.05a4.34,4.34,0,0,0,.5.2,3.57,3.57,0,0,0,1.07.17A3.35,3.35,0,0,0,16.06,13,3.4,3.4,0,0,0,17.26,12l-1.53-1.09a1.45,1.45,0,0,1-.76.57,1.57,1.57,0,0,1-1,0,1.5,1.5,0,0,1-.78-.56,1.53,1.53,0,0,1-.29-.9V6.2H11.06v8.17a1.56,1.56,0,0,1-.29.91,1.62,1.62,0,0,1-.78.56,1.57,1.57,0,0,1-1,0,1.63,1.63,0,0,1-.77-.57Z"/></svg>