<svg id="Слой_1" data-name="Слой 1" xmlns="http://www.w3.org/2000/svg" viewBox="0 0 24 24"><title>KCSМонтажная область 1</title><path d="M13.51,23.4a.94.94,0,0,1-.1-.1,1.14,1.14,0,0,0-.11-.11L5.07,15v4.89a2,2,0,0,1-2,2,2,2,0,0,1-2-2V4.07a2,2,0,1,1,4.07,0V8.94L13.3.78l.2-.17h0a2,2,0,0,1,2.87,0l5.92,5.9a2.11,2.11,0,0,1,.6,1.45,2,2,0,0,1-3.48,1.45L14.93,4.9,7.78,12l7.16,7.1,4.49-4.48a2,2,0,0,1,2.87,2.9l-5.91,5.9a2,2,0,0,1-2.87,0ZM12.91,12a2.08,2.08,0,0,1,1.27-1.9A2,2,0,0,1,15.36,10,2.07,2.07,0,0,1,17,11.6a2,2,0,0,1-.87,2.11,2,2,0,0,1-1.14.35A2.07,2.07,0,0,1,12.91,12Z"/></svg>