<svg id="Слой_1" data-name="Слой 1" xmlns="http://www.w3.org/2000/svg" viewBox="0 0 24 24"><title>KICKМонтажная область 1</title><path d="M22.38,6a.54.54,0,0,0-.05-.11l-.08-.12a13,13,0,1,0,.13.23ZM12.7,22.18v-7l2.71,1.53a.8.8,0,0,0,.78-1.4l-3.88-2.19a.82.82,0,0,0-.82,0L7.61,15.3a.8.8,0,0,0,.78,1.4l2.71-1.53v7A10.21,10.21,0,0,1,2.87,7.44l5.78,3.34L6,12.36a.8.8,0,0,0-.28,1.09.8.8,0,0,0,1.1.29l3.84-2.27a.79.79,0,0,0,.3-.3.87.87,0,0,0,.11-.41l0-4.46a.8.8,0,1,0-1.6,0l0,3.11L3.7,6.07a10.2,10.2,0,0,1,16.62,0L14.63,9.39l0-3.11a.8.8,0,0,0-1.6,0l0,4.46a.87.87,0,0,0,.11.41.79.79,0,0,0,.3.3l3.84,2.27a.8.8,0,0,0,1.1-.29.8.8,0,0,0-.28-1.09l-2.68-1.58,5.72-3.3a10.21,10.21,0,0,1-8.45,14.7Z"/></svg>