<svg id="Слой_1" data-name="Слой 1" xmlns="http://www.w3.org/2000/svg" viewBox="0 0 24 24"><title>KINМонтажная область 1</title><path d="M16,8.76a.68.68,0,0,0,.69-.68v-.4a.58.58,0,0,0-.06-.26.54.54,0,0,0-.15-.22.64.64,0,0,0-.22-.14A.58.58,0,0,0,16,7h-.41a.65.65,0,0,0-.27,0,.74.74,0,0,0-.22.14.86.86,0,0,0-.15.22.75.75,0,0,0-.05.26V8.76Zm-6.48,0V7.68a.75.75,0,0,0-.05-.26.86.86,0,0,0-.15-.22.68.68,0,0,0-.23-.14A.58.58,0,0,0,8.8,7H8.39a.58.58,0,0,0-.26,0,.64.64,0,0,0-.22.14.54.54,0,0,0-.15.22.58.58,0,0,0-.06.26v.4a.68.68,0,0,0,.69.68Zm-1.1,7.18H8.8a.68.68,0,0,0,.69-.67V14.19H8.39a.75.75,0,0,0-.26.05.64.64,0,0,0-.22.14.62.62,0,0,0-.15.22.66.66,0,0,0-.06.27v.4A.68.68,0,0,0,8.39,15.94Zm7.17,0H16a.68.68,0,0,0,.69-.67v-.4a.66.66,0,0,0-.06-.27.62.62,0,0,0-.15-.22.64.64,0,0,0-.22-.14.75.75,0,0,0-.26-.05H14.86v1.08A.68.68,0,0,0,15.56,15.94ZM12,7.18h.41a.67.67,0,0,0,.69-.67v-.4A.86.86,0,0,0,13,5.84a.8.8,0,0,0-.15-.21.54.54,0,0,0-.22-.15.86.86,0,0,0-.27-.05H12a.8.8,0,0,0-.26.05.54.54,0,0,0-.22.15.48.48,0,0,0-.15.22.58.58,0,0,0-.06.26v.4A.68.68,0,0,0,12,7.18Zm0,10.69h.41a.68.68,0,0,0,.69-.68v-.4a.58.58,0,0,0-.05-.26.86.86,0,0,0-.15-.22.64.64,0,0,0-.22-.14.52.52,0,0,0-.27-.05H12a.48.48,0,0,0-.26.05.64.64,0,0,0-.22.14.54.54,0,0,0-.15.22.58.58,0,0,0-.06.26v.4A.68.68,0,0,0,12,17.87Zm5.38-5.43h.41a.68.68,0,0,0,.69-.68v-.4a.58.58,0,0,0-.06-.26.54.54,0,0,0-.15-.22.86.86,0,0,0-.22-.15.57.57,0,0,0-.26,0h-.41a.57.57,0,0,0-.26,0,.91.91,0,0,0-.23.15.86.86,0,0,0-.15.22.75.75,0,0,0-.05.26v.4a.68.68,0,0,0,.69.68Zm-10.93,0h.41a.68.68,0,0,0,.69-.68v-.4a.75.75,0,0,0,0-.26.86.86,0,0,0-.15-.22.91.91,0,0,0-.23-.15.57.57,0,0,0-.26,0H6.42a.57.57,0,0,0-.26,0,.86.86,0,0,0-.22.15.54.54,0,0,0-.15.22.58.58,0,0,0-.06.26v.4a.68.68,0,0,0,.69.68Zm8-1.69a.63.63,0,0,0,.19,0,.53.53,0,0,0,.27-.27.58.58,0,0,0,0-.19V8.93H13.5a.58.58,0,0,0-.19,0,.53.53,0,0,0-.27.27.58.58,0,0,0,0,.19v.43a.9.9,0,0,1-.87.92,1,1,0,0,1-.65-.27.9.9,0,0,1-.28-.65V9.41a.34.34,0,0,0,0-.18A.42.42,0,0,0,10.9,9a.58.58,0,0,0-.18,0H9.49v5.44h1.22a.65.65,0,0,0,.19,0,.39.39,0,0,0,.15-.11.33.33,0,0,0,.11-.15.41.41,0,0,0,0-.19v-.41a.9.9,0,1,1,1.8,0v.45a.49.49,0,0,0,.49.49h1.38V13a.65.65,0,0,0,0-.19.53.53,0,0,0-.11-.15.57.57,0,0,0-.16-.11.58.58,0,0,0-.19,0H14a1,1,0,0,1-1-.9.9.9,0,0,1,.27-.63.94.94,0,0,1,.64-.26Zm.52,7.16a.66.66,0,0,0-.2.14.5.5,0,0,0-.13.19.6.6,0,0,0,0,.48.58.58,0,0,0,.34.33.64.64,0,0,0,.47,0,.74.74,0,0,0,.21-.13.86.86,0,0,0,.13-.2.69.69,0,0,0,0-.24.59.59,0,0,0,0-.23.63.63,0,0,0-.82-.34ZM9.16,4.25a.86.86,0,0,0-.2.13.63.63,0,0,0-.13.2.47.47,0,0,0-.05.24.59.59,0,0,0,0,.23.63.63,0,0,0,.35.33.55.55,0,0,0,.47,0,.46.46,0,0,0,.2-.13.48.48,0,0,0,.14-.2.59.59,0,0,0,0-.23.69.69,0,0,0,0-.24.61.61,0,0,0-.34-.33A.66.66,0,0,0,9.16,4.25ZM18.5,9.08a.58.58,0,0,0,.34.33.55.55,0,0,0,.47,0,.57.57,0,0,0,.21-.13.58.58,0,0,0,.13-.2.59.59,0,0,0,.05-.23.52.52,0,0,0-.05-.24.61.61,0,0,0-.34-.33.64.64,0,0,0-.47,0,.57.57,0,0,0-.21.13.53.53,0,0,0-.13.2.47.47,0,0,0-.05.24A.46.46,0,0,0,18.5,9.08ZM4.7,14.69a.64.64,0,0,0,.82.33.74.74,0,0,0,.21-.13.86.86,0,0,0,.13-.2.69.69,0,0,0,0-.24.59.59,0,0,0,0-.23.61.61,0,0,0-.34-.33.57.57,0,0,0-.48,0,.63.63,0,0,0-.2.13.5.5,0,0,0-.13.19.52.52,0,0,0,0,.24A.67.67,0,0,0,4.7,14.69Zm0-6.08a.67.67,0,0,0,0,.24.59.59,0,0,0,0,.23.6.6,0,0,0,.14.2.63.63,0,0,0,.2.13.57.57,0,0,0,.48,0,.61.61,0,0,0,.34-.33.59.59,0,0,0,0-.23.6.6,0,0,0,0-.24.86.86,0,0,0-.13-.2.57.57,0,0,0-.21-.13.64.64,0,0,0-.82.33Zm10-3.23a.55.55,0,0,0,.47,0,.61.61,0,0,0,.34-.33.59.59,0,0,0,.05-.23.69.69,0,0,0-.05-.24.86.86,0,0,0-.13-.2.86.86,0,0,0-.2-.13.66.66,0,0,0-.48,0,.61.61,0,0,0-.34.33.69.69,0,0,0-.05.24.59.59,0,0,0,.05.23.58.58,0,0,0,.13.2A.57.57,0,0,0,14.72,5.38Zm3.78,8.84a.46.46,0,0,0-.05.23.69.69,0,0,0,.05.24.63.63,0,0,0,.13.2.86.86,0,0,0,.2.13.66.66,0,0,0,.48,0,.61.61,0,0,0,.34-.33.69.69,0,0,0,.05-.24.59.59,0,0,0-.05-.23.58.58,0,0,0-.13-.2.57.57,0,0,0-.21-.13.55.55,0,0,0-.47,0A.58.58,0,0,0,18.5,14.22Zm-9.7,5a.57.57,0,0,0,.48,0,.61.61,0,0,0,.34-.33.59.59,0,0,0,.05-.23.6.6,0,0,0-.05-.24.86.86,0,0,0-.13-.2.57.57,0,0,0-.21-.13.64.64,0,0,0-.47,0,.61.61,0,0,0-.34.33.69.69,0,0,0-.05.24.59.59,0,0,0,.05.23.46.46,0,0,0,.13.2A.63.63,0,0,0,8.8,19.22ZM18,17.44a.42.42,0,0,0-.08.12.31.31,0,0,0,0,.13.32.32,0,0,0,0,.14.28.28,0,0,0,.08.11.35.35,0,0,0,.5,0,.34.34,0,0,0,0-.49.36.36,0,0,0-.25-.11.33.33,0,0,0-.25.11ZM5.84,5.36a.28.28,0,0,0-.08.11.32.32,0,0,0,0,.14.31.31,0,0,0,0,.13.28.28,0,0,0,.08.11A.34.34,0,0,0,6.09,6a.36.36,0,0,0,.25-.11.34.34,0,0,0,0-.49.35.35,0,0,0-.5,0ZM18,5.85a.33.33,0,0,0,.25.11.36.36,0,0,0,.25-.11.34.34,0,0,0,0-.49.35.35,0,0,0-.5,0,.28.28,0,0,0-.08.11.35.35,0,0,0,0,.14.31.31,0,0,0,0,.13A.28.28,0,0,0,18,5.85ZM5.84,17.94a.35.35,0,0,0,.5,0,.34.34,0,0,0,0-.49.36.36,0,0,0-.25-.11.34.34,0,0,0-.25.11.28.28,0,0,0-.08.11.31.31,0,0,0,0,.13.32.32,0,0,0,0,.14A.28.28,0,0,0,5.84,17.94ZM20.6,11.56a.36.36,0,0,0,.61.25.36.36,0,0,0,.1-.25.31.31,0,0,0,0-.13.29.29,0,0,0-.07-.12.37.37,0,0,0-.12-.07.31.31,0,0,0-.13,0,.32.32,0,0,0-.14,0,.37.37,0,0,0-.12.07.29.29,0,0,0-.07.12.31.31,0,0,0,0,.13Zm-17.38,0a.35.35,0,0,0,.36.35.32.32,0,0,0,.25-.1.33.33,0,0,0,.11-.25.31.31,0,0,0,0-.13.32.32,0,0,0-.08-.12.26.26,0,0,0-.11-.07.32.32,0,0,0-.14,0,.31.31,0,0,0-.13,0,.24.24,0,0,0-.12.07.36.36,0,0,0-.08.12A.31.31,0,0,0,3.22,11.56Zm9-8.06a.35.35,0,0,0,.25-.1.33.33,0,0,0,.11-.25.31.31,0,0,0,0-.13.83.83,0,0,0-.08-.12.41.41,0,0,0-.11-.07.34.34,0,0,0-.28,0,.41.41,0,0,0-.11.07.42.42,0,0,0-.08.12.31.31,0,0,0,0,.13.35.35,0,0,0,.36.35Zm0,17a.39.39,0,0,0,.25-.1.36.36,0,0,0,.11-.25.32.32,0,0,0,0-.14.44.44,0,0,0-.08-.11.28.28,0,0,0-.11-.08.34.34,0,0,0-.14,0,.3.3,0,0,0-.25.1.33.33,0,0,0-.11.25.36.36,0,0,0,.36.35Zm11.1-8.94a.35.35,0,0,0,.36.35.32.32,0,0,0,.25-.1.33.33,0,0,0,.11-.25.31.31,0,0,0,0-.13.32.32,0,0,0-.08-.12.26.26,0,0,0-.11-.07.35.35,0,0,0-.14,0,.31.31,0,0,0-.13,0,.24.24,0,0,0-.12.07.36.36,0,0,0-.08.12.31.31,0,0,0,0,.13Zm-23-.17a.26.26,0,0,0-.27.26.27.27,0,0,0,.27.26.27.27,0,0,0,.27-.26A.26.26,0,0,0,.27,11.39ZM11.64.35a.36.36,0,0,0,.72,0,.36.36,0,0,0-.72,0ZM22.25,15.74a.52.52,0,0,0,0,.4.71.71,0,0,0,.11.17.57.57,0,0,0,.18.12.58.58,0,0,0,.41,0,.53.53,0,0,0,.29-.28.52.52,0,0,0,0-.21.48.48,0,0,0,0-.2.45.45,0,0,0-.11-.17.42.42,0,0,0-.18-.11.51.51,0,0,0-.4,0A.57.57,0,0,0,22.25,15.74ZM16.44,21.4a.34.34,0,0,0-.28,0,.35.35,0,0,0-.19.19.3.3,0,0,0,0,.26.34.34,0,0,0,.13.16.36.36,0,0,0,.2.06.31.31,0,0,0,.19-.06.34.34,0,0,0,.14-.15.32.32,0,0,0,0-.14.31.31,0,0,0,0-.13.44.44,0,0,0-.19-.19ZM1.57,6.86a.32.32,0,0,0-.27,0l-.12.07a.5.5,0,0,0-.08.12.59.59,0,0,0,0,.13.34.34,0,0,0,0,.14.47.47,0,0,0,.13.15.36.36,0,0,0,.2.06.46.46,0,0,0,.2,0,.4.4,0,0,0,.13-.16.31.31,0,0,0,0-.13.59.59,0,0,0,0-.14.44.44,0,0,0-.08-.11A.25.25,0,0,0,1.57,6.86Zm-1,9a.47.47,0,0,0,0,.17.51.51,0,0,0,0,.17.45.45,0,0,0,.1.14.42.42,0,0,0,.14.09.45.45,0,0,0,.59-.23.47.47,0,0,0,0-.17.51.51,0,0,0,0-.17.33.33,0,0,0-.1-.14.42.42,0,0,0-.14-.09.45.45,0,0,0-.34,0A.49.49,0,0,0,.57,15.86ZM16.21,1.37a.46.46,0,0,0,.59-.24.47.47,0,0,0,0-.17.3.3,0,0,0,0-.16.38.38,0,0,0-.09-.15.46.46,0,0,0-.15-.09.4.4,0,0,0-.34,0A.39.39,0,0,0,16,.79.44.44,0,0,0,16.21,1.37Zm6.7,5.31-.08.05a.18.18,0,0,0-.06.09.16.16,0,0,0,0,.1.18.18,0,0,0,0,.1.23.23,0,0,0,.1.12.33.33,0,0,0,.14,0,.24.24,0,0,0,.15,0,.23.23,0,0,0,.1-.12.26.26,0,0,0,0-.2.41.41,0,0,0-.05-.09l-.09-.05A.26.26,0,0,0,22.91,6.68ZM7.19,1a.29.29,0,0,0,0,.1.36.36,0,0,0,0,.1l.06.08a.24.24,0,0,0,.09.06.23.23,0,0,0,.2,0,.26.26,0,0,0,.15-.14.36.36,0,0,0,0-.1.36.36,0,0,0,0-.1A.24.24,0,0,0,7.62,1L7.54.9a.3.3,0,0,0-.21,0A.26.26,0,0,0,7.19,1Zm.06,20.68a.24.24,0,0,0-.14.05.21.21,0,0,0-.1.11A.2.2,0,0,0,7,22a.22.22,0,0,0,0,.11.22.22,0,0,0,0,.08l.09.06a.28.28,0,0,0,.2,0,.29.29,0,0,0,.15-.14.36.36,0,0,0,0-.1.16.16,0,0,0,0-.1.26.26,0,0,0,0-.09l-.09-.06ZM20,19.87a.25.25,0,0,0,.08-.12.3.3,0,0,0,0-.26.25.25,0,0,0-.08-.12.36.36,0,0,0-.25-.1.39.39,0,0,0-.25.1.25.25,0,0,0-.08.12.28.28,0,0,0,0,.13.35.35,0,0,0,0,.14.28.28,0,0,0,.08.11.39.39,0,0,0,.25.1A.36.36,0,0,0,20,19.87ZM3.2,3.31a.39.39,0,0,0-.11.17.43.43,0,0,0,0,.4.39.39,0,0,0,.11.17.53.53,0,0,0,.76,0,.52.52,0,0,0,.12-.17.52.52,0,0,0,0-.4A.52.52,0,0,0,4,3.31a.53.53,0,0,0-.76,0Zm16.94.1a.16.16,0,0,0-.06.08.36.36,0,0,0,0,.1.3.3,0,0,0,0,.1.24.24,0,0,0,.06.09.27.27,0,0,0,.38,0l.06-.09a.3.3,0,0,0,0-.1.36.36,0,0,0,0-.1l-.06-.08a.27.27,0,0,0-.38,0ZM3.3,19.35l-.06.08a.36.36,0,0,0,0,.1.3.3,0,0,0,0,.1.7.7,0,0,0,.06.09.27.27,0,0,0,.38,0,.18.18,0,0,0,.06-.09.3.3,0,0,0,0-.1.36.36,0,0,0,0-.1.16.16,0,0,0-.06-.08.27.27,0,0,0-.38,0ZM12.09,24a.45.45,0,0,0,.45-.44.53.53,0,0,0,0-.17.33.33,0,0,0-.1-.14.42.42,0,0,0-.14-.09.33.33,0,0,0-.17,0,.44.44,0,1,0,0,.88Z"/></svg>