<svg id="Слой_1" data-name="Слой 1" xmlns="http://www.w3.org/2000/svg" viewBox="0 0 24 25"><title>KNCМонтажная область 1</title><path d="M10.44,12l8.92,5.13a.5.5,0,0,0,.24.06.41.41,0,0,0,.24-.06A.46.46,0,0,0,20,17a.42.42,0,0,0,.07-.24V7.28A.4.4,0,0,0,20,7a.42.42,0,0,0-.17-.18.5.5,0,0,0-.24-.06.51.51,0,0,0-.24.07Z"/><path d="M19.18,4.6,13.08.1A.47.47,0,0,0,12.86,0a.44.44,0,0,0-.23,0,.46.46,0,0,0-.2.13.59.59,0,0,0-.12.2l-2.23,10,9-5a.35.35,0,0,0,.17-.15A.42.42,0,0,0,19.37,5a.46.46,0,0,0-.05-.23.39.39,0,0,0-.14-.17"/><path d="M13.07,23.89l6.11-4.5a.39.39,0,0,0,.14-.17.46.46,0,0,0,.05-.23.57.57,0,0,0-.07-.22.49.49,0,0,0-.17-.15l-9-5,2.23,10a.53.53,0,0,0,.11.21.48.48,0,0,0,.2.14.6.6,0,0,0,.23,0,.54.54,0,0,0,.22-.09"/><path d="M8.12,11.82,10.44.93a.42.42,0,0,0,0-.27.41.41,0,0,0-.17-.2A.5.5,0,0,0,10,.38a.44.44,0,0,0-.25.08L3.78,5a1.24,1.24,0,0,0-.35.44A1.17,1.17,0,0,0,3.3,6V17.61a1.31,1.31,0,0,0,.12.56,1.33,1.33,0,0,0,.36.45L9.7,23.17a.47.47,0,0,0,.51,0,.43.43,0,0,0,.17-.21.42.42,0,0,0,0-.27Z"/></svg>