<svg id="Слой_1" data-name="Слой 1" xmlns="http://www.w3.org/2000/svg" viewBox="0 0 24 24"><title>LOOMМонтажная область 1</title><path d="M20.92,11.62l.55-.39h0l.69-.49A4.26,4.26,0,0,0,24,7.26a4.22,4.22,0,0,0-1.81-3.47h0L18.21,1l-4.9,3.43,1.31.92,3.58-2.5L21.29,5a2.67,2.67,0,0,1,.86,1,2.72,2.72,0,0,1,0,2.52,2.71,2.71,0,0,1-.86,1L19.6,10.69,5.78,1l-4,2.79A4.15,4.15,0,0,0,.48,5.31a4.24,4.24,0,0,0,0,3.92,4.2,4.2,0,0,0,1.33,1.51l1.24.87-.3.22h0l-.94.65A4.25,4.25,0,0,0,.48,17.93a4.23,4.23,0,0,0,1.33,1.52l4,2.78,4.89-3.43-1.31-.93L5.76,20.38,2.67,18.21a2.68,2.68,0,0,1-.85-1A2.61,2.61,0,0,1,1.51,16a2.73,2.73,0,0,1,1.16-2.23l1.71-1.19,13.81,9.69,4-2.79a4.3,4.3,0,0,0,1.32-1.52,4.24,4.24,0,0,0,0-3.92,4.38,4.38,0,0,0-1.32-1.52Zm-1.33.93,1.7,1.19a2.8,2.8,0,0,1,.86,1A2.73,2.73,0,0,1,22.46,16a2.71,2.71,0,0,1-1.17,2.23L18.2,20.38,5.71,11.62l5-3.47L9.35,7.23,9,7.48H9l-4.6,3.22L2.68,9.5a2.68,2.68,0,0,1-.85-1A2.73,2.73,0,0,1,2.68,5l3.1-2.17,12.49,8.76-5,3.47,1.32.93,3.71-2.6v0Z"/></svg>