<svg width="24" height="24" viewBox="0 0 24 24" fill="none" xmlns="http://www.w3.org/2000/svg">
<path d="M12.14 2C15.162 6.177 18.156 10.376 21.178 14.558C18.16 17.0313 15.151 19.512 12.151 22C9.095 19.521 6.051 17.031 3 14.558C6.056 10.3813 9.10267 6.19533 12.14 2ZM6.775 14.071C8.105 15.146 9.424 16.239 10.759 17.302C10.765 14.402 10.77 11.49 10.753 8.587C9.446 10.427 8.093 12.238 6.775 14.071ZM13.527 8.632C13.5217 11.518 13.5217 14.4043 13.527 17.291C14.817 16.199 16.127 15.146 17.427 14.06C16.124 12.255 14.817 10.449 13.526 8.633L13.527 8.632Z" fill="#0050db"/>
</svg>
