<svg id="Слой_1" data-name="Слой 1" xmlns="http://www.w3.org/2000/svg" xmlns:xlink="http://www.w3.org/1999/xlink" viewBox="0 0 24 24"><defs><style>.cls-1{fill:none;}.cls-2{clip-path:url(#clip-path);}</style><clipPath id="clip-path"><rect class="cls-1" width="24" height="24"/></clipPath></defs><title>LUNМонтажная область 1</title><g class="cls-2"><path d="M11.77.06h0L1.92,5.62a.41.41,0,0,0-.17.15A.46.46,0,0,0,1.69,6a.4.4,0,0,0,.06.22.44.44,0,0,0,.17.16l8.58,4.82a2,2,0,0,1,1.15-.64V7.91a2,2,0,1,1,.69,0v2.63a2,2,0,0,1,1.17.65l8.58-4.84a.41.41,0,0,0,.16-.16A.4.4,0,0,0,22.31,6a.39.39,0,0,0-.06-.21.35.35,0,0,0-.16-.16L12.22.06A.43.43,0,0,0,12,0,.46.46,0,0,0,11.77.06ZM22.12,7l-8.29,4.67a1.83,1.83,0,0,1,0,1.38L16.2,14.4a2,2,0,0,1,3.58.82,1.93,1.93,0,0,1-1.68,2.17A1.94,1.94,0,0,1,15.91,15l-2.38-1.33a2,2,0,0,1-1.19.66v9.23a.45.45,0,0,0,.67.38l9.55-5.39a.44.44,0,0,0,.17-.16.4.4,0,0,0,.06-.22V7.42a.4.4,0,0,0-.06-.22A.44.44,0,0,0,22.56,7,.4.4,0,0,0,22.34,7,.43.43,0,0,0,22.12,7ZM1.21,7.42V18.17a.43.43,0,0,0,.22.38L11,23.94a.45.45,0,0,0,.67-.38V14.33a1.94,1.94,0,0,1-1.17-.67L8.1,15a1.78,1.78,0,0,1,0,.76,2,2,0,0,1-2.23,1.63,1.93,1.93,0,0,1-1.68-2.17,2,2,0,0,1,2.24-1.64,2,2,0,0,1,1.34.82l2.34-1.31a1.8,1.8,0,0,1,0-1.37L1.88,7A.46.46,0,0,0,1.66,7a.44.44,0,0,0-.45.44Z"/></g></svg>