<svg id="Слой_1" data-name="Слой 1" xmlns="http://www.w3.org/2000/svg" viewBox="0 0 24 24"><title>MANAМонтажная область 1</title><path d="M23.46,13.19l-2-1.83H20.29l-2.4-2.42a5.66,5.66,0,0,0,.62-1.74,4,4,0,0,0-1.07-2.42A3.92,3.92,0,0,0,15.1,3.57,4.26,4.26,0,0,0,11.4,7.2a3.14,3.14,0,0,0,3,3.11,2.81,2.81,0,0,0,1-.31L13.8,11.68l-2.22-.82L10,12.39l-3.42.18L5.4,9.08H3.67l-1.8,3.31L.48,12a11.52,11.52,0,0,1,23,0,10.5,10.5,0,0,1-.06,1.19Zm-16-9.62c-1,0-2,1.42-2,2.43A1.79,1.79,0,0,0,7.2,7.8C8.24,7.8,10,7,10,6a3.24,3.24,0,0,0-.9-1.6,3.12,3.12,0,0,0-1.62-.83Z"/><path d="M7.54,4a1.85,1.85,0,0,0-1,.31,1.82,1.82,0,0,0-.77,1.87A1.83,1.83,0,0,0,7.18,7.57,1.82,1.82,0,0,0,9.05,6.8,1.82,1.82,0,0,0,7.54,4Zm0,4.61A2.85,2.85,0,0,1,6,8.1,2.75,2.75,0,0,1,4.81,5.24a2.67,2.67,0,0,1,.76-1.42A2.8,2.8,0,0,1,7,3.05a2.86,2.86,0,0,1,1.61.16,2.79,2.79,0,0,1,1.25,1A2.77,2.77,0,0,1,9.5,7.75,2.79,2.79,0,0,1,7.54,8.57Z"/><path d="M21.66,10.79l-1,.18L19.14,8.9h-.48a4.05,4.05,0,0,0,.44-2.44,4.1,4.1,0,0,0-7.56-1.62,4.1,4.1,0,0,0,.3,4.72,4.13,4.13,0,0,0,2.08,1.37l-.06.06-.59.3-1-.35-1-.55L10,12.07,9,11.48,6.91,12l-1-3.38H3.36L1.52,11.84l-.56,0A11,11,0,1,1,23,12v.35ZM16.08,18a4,4,0,0,1-1.82.31A4.09,4.09,0,0,1,12.43,18c.05-.68.87-1.23,1.83-1.23S16,17.36,16.08,18Zm2.8-4.1c1,0,1.77.56,1.82,1.23a3.92,3.92,0,0,1-1.82.31,4,4,0,0,1-1.83-.31C17.1,14.5,17.92,13.94,18.88,13.94Zm-.5-1.17a3.92,3.92,0,0,1-1.82.31,3.92,3.92,0,0,1-1.82-.31c0-.67.86-1.23,1.82-1.23S18.34,12.1,18.38,12.77ZM17.65,8.7l-.72-1L14.7,10.12a3.2,3.2,0,0,1-1.64-.69,3.15,3.15,0,0,1-1-1.47,3.15,3.15,0,0,1,.89-3.29,3.1,3.1,0,0,1,3.37-.53,3.08,3.08,0,0,1,1.35,1.15A3.14,3.14,0,0,1,18.17,7,3.06,3.06,0,0,1,17.65,8.7Zm-.51,13.07a17.11,17.11,0,0,0-3.71-1c-.51-.09-1-.2-1.54-.31s-.92-.19-1.33-.26a8.1,8.1,0,0,1-1.68-.42,4.57,4.57,0,0,1,1.28-1.08c.34-.23,1.36-.93,1.08-1.82S9.68,15.55,7,15.26l-.76-.07c-.13-.39-.32-1-.6-1.77l-.45-1.34-.46,1.34c-.15.44-.27.8-.38,1.11-.12-.38-.34-1-.71-2.09l-.42-1.35-.46,1.33C2.16,14.24,2,14.78,1.93,15H1.38A11.47,11.47,0,0,1,1,12.82l1.1,0L3.92,9.59H5.18l1.1,3.59,2.56-.66.59.32L8.18,14.41l.76.6,2.66-3.37.32.18,1.44.53L14,12a2,2,0,0,0-.19.82c0,.29.18.9,1.55,1.13a.89.89,0,0,1,.54.3.91.91,0,0,1,.21.59v1.56a2.69,2.69,0,0,0-.65-.34h0a1.7,1.7,0,0,1-.71-.32,1.45,1.45,0,0,1-.47-.62,1.42,1.42,0,0,1-.34.53,1.29,1.29,0,0,1-.55.3,2.43,2.43,0,0,0-1.32.74,2.36,2.36,0,0,0-.6,1.4c0,.36.28,1.21,2.79,1.21S17,18.47,17,18.11V16.22a3,3,0,0,0,.59.15.89.89,0,0,1,.54.3.91.91,0,0,1,.21.59v1.08a.5.5,0,0,0,.12.33.53.53,0,0,0,.32.17.41.41,0,0,0,.19,0,.55.55,0,0,0,.17-.1.52.52,0,0,0,.12-.17.41.41,0,0,0,0-.19v-1.1a.92.92,0,0,1,.22-.59.89.89,0,0,1,.54-.3c1.37-.23,1.55-.83,1.55-1.13a2.08,2.08,0,0,0-.39-1.13,2.22,2.22,0,0,0-.92-.77h0a2.75,2.75,0,0,0-.43-.17,1.49,1.49,0,0,1-.54-.43,2.29,2.29,0,0,0-.52-1.19,2.32,2.32,0,0,0-1.09-.73h0l-.18-.06a1.35,1.35,0,0,1-.59-.31,1.42,1.42,0,0,1-.39-.55,1.51,1.51,0,0,1-.43.6,1.46,1.46,0,0,1-.68.31l-.12,0,1.5-1.6.9,1.21.72-.57h.18L20.18,12l1.11-.2,1.62,1.84A10.87,10.87,0,0,1,21,18.41,11,11,0,0,1,17.14,21.77ZM4.91,16l.32-1,.33,1A1,1,0,0,1,4.91,16Zm-2-1c.07-.21.18-.56.31-.93.13.38.25.73.31.94ZM12,23A11.05,11.05,0,0,1,1.69,16h1a1.7,1.7,0,0,0,.55.07,1.6,1.6,0,0,0,.44,0,.89.89,0,0,1,.23,0,.25.25,0,0,0,0,.12c0,.53.56.91,1.34.91s1.31-.36,1.33-.86l.37,0c3.2.35,3.41.93,3.41.95s-.06.3-.71.73c-1.35.94-1.82,1.5-1.7,2.09s1.07.89,2.47,1.15c.4.07.84.16,1.3.27l1.56.32c.93.19,1.89.38,2.66.61A11.09,11.09,0,0,1,12,23ZM12,0a12,12,0,1,0,8.48,3.52A12,12,0,0,0,12,0Z"/></svg>