<svg id="Слой_1" data-name="Слой 1" xmlns="http://www.w3.org/2000/svg" xmlns:xlink="http://www.w3.org/1999/xlink" viewBox="0 0 24 24"><defs><style>.cls-1{fill:none;}.cls-2{clip-path:url(#clip-path);}</style><clipPath id="clip-path"><rect class="cls-1" width="24" height="24"/></clipPath></defs><title>MDSМонтажная область 1</title><g class="cls-2"><path d="M9.86,11.51a1.81,1.81,0,1,0,0-3.62,1.77,1.77,0,0,0-1.27.53,1.81,1.81,0,0,0,0,2.56A1.77,1.77,0,0,0,9.86,11.51Zm4.44,0A1.81,1.81,0,1,0,13,11,1.81,1.81,0,0,0,14.3,11.51ZM9.86,16a1.81,1.81,0,1,0-1.28-3.09,1.81,1.81,0,0,0,0,2.56A1.81,1.81,0,0,0,9.86,16Zm4.44,0A1.81,1.81,0,1,0,13,15.42,1.81,1.81,0,0,0,14.3,16ZM18.74,11a1.31,1.31,0,1,0-.93-.38A1.3,1.3,0,0,0,18.74,11Zm0,4.44a1.34,1.34,0,0,0,.93-.38,1.3,1.3,0,0,0,.38-.93,1.28,1.28,0,0,0-.38-.93,1.3,1.3,0,0,0-1.86,0,1.29,1.29,0,0,0-.39.93,1.31,1.31,0,0,0,.39.93A1.34,1.34,0,0,0,18.74,15.45ZM5.26,11a1.3,1.3,0,1,0-.93-.38A1.3,1.3,0,0,0,5.26,11Zm0,4.44a1.34,1.34,0,0,0,.93-.38,1.31,1.31,0,0,0,.39-.93,1.29,1.29,0,0,0-.39-.93,1.3,1.3,0,0,0-1.86,0,1.28,1.28,0,0,0-.38.93,1.3,1.3,0,0,0,.38.93A1.34,1.34,0,0,0,5.26,15.45Zm4.6,4.44a1.17,1.17,0,0,0,.52-.09,1.37,1.37,0,0,0,.44-.28,1.26,1.26,0,0,0,.29-.43,1.3,1.3,0,0,0,.11-.51,1.35,1.35,0,0,0-.11-.52,1.26,1.26,0,0,0-.29-.43,1.37,1.37,0,0,0-.44-.28,1.54,1.54,0,0,0-.52-.09,1.29,1.29,0,0,0-.9.4,1.31,1.31,0,0,0-.37.92,1.32,1.32,0,0,0,1.27,1.31Zm4.44,0a1.17,1.17,0,0,0,.52-.09,1.37,1.37,0,0,0,.44-.28,1.42,1.42,0,0,0,.29-.43,1.3,1.3,0,0,0,.11-.51,1.35,1.35,0,0,0-.11-.52,1.42,1.42,0,0,0-.29-.43,1.37,1.37,0,0,0-.44-.28,1.54,1.54,0,0,0-.52-.09,1.29,1.29,0,0,0-.9.4,1.31,1.31,0,0,0-.37.92,1.32,1.32,0,0,0,1.27,1.31ZM9.86,6.58a1.54,1.54,0,0,0,.52-.09,1.57,1.57,0,0,0,.44-.28,1.3,1.3,0,0,0,.29-.44,1.26,1.26,0,0,0,.11-.51,1.3,1.3,0,0,0-.11-.51,1.26,1.26,0,0,0-.29-.43A1.22,1.22,0,0,0,10.38,4,1.17,1.17,0,0,0,9.86,4,1.32,1.32,0,0,0,8.59,5.26,1.32,1.32,0,0,0,9.86,6.58Zm4.44,0a1.54,1.54,0,0,0,.52-.09,1.57,1.57,0,0,0,.44-.28,1.46,1.46,0,0,0,.29-.44,1.26,1.26,0,0,0,.11-.51,1.3,1.3,0,0,0-.11-.51,1.42,1.42,0,0,0-.29-.43A1.22,1.22,0,0,0,14.82,4,1.17,1.17,0,0,0,14.3,4,1.32,1.32,0,0,0,13,5.26,1.32,1.32,0,0,0,14.3,6.58ZM9.86,1.64a.76.76,0,0,0,.33,0,.8.8,0,0,0,.27-.18.66.66,0,0,0,.19-.27.88.88,0,0,0,.07-.32A.88.88,0,0,0,10.65.5a.83.83,0,0,0-.19-.27.8.8,0,0,0-.27-.18,1,1,0,0,0-.33,0,.86.86,0,0,0-.58.24A.86.86,0,0,0,9,.82a.82.82,0,0,0,.82.82Zm4.44,0a.76.76,0,0,0,.33,0,.8.8,0,0,0,.27-.18.66.66,0,0,0,.19-.27.88.88,0,0,0,.07-.32A.88.88,0,0,0,15.09.5.83.83,0,0,0,14.9.23a.8.8,0,0,0-.27-.18,1,1,0,0,0-.33,0,.83.83,0,0,0-.58.24.86.86,0,0,0-.24.58.83.83,0,0,0,.24.58A.78.78,0,0,0,14.3,1.64Zm8.88,8.88a.78.78,0,0,0,.58-.24.82.82,0,0,0,0-1.16.82.82,0,1,0-.58,1.4Zm0,4.44a.82.82,0,0,0,.58-1.4.82.82,0,0,0-1.16,1.16A.83.83,0,0,0,23.18,15ZM.82,10.52a.78.78,0,0,0,.58-.24.82.82,0,0,0,0-1.16.78.78,0,0,0-.58-.24.78.78,0,0,0-.58.24.82.82,0,0,0,0,1.16A.78.78,0,0,0,.82,10.52ZM.82,15a.83.83,0,0,0,.58-.24.82.82,0,0,0,0-1.16.78.78,0,0,0-.58-.24.78.78,0,0,0-.58.24A.82.82,0,0,0,.82,15Zm9,9a.83.83,0,0,0,.58-.24.8.8,0,0,0,0-1.16.78.78,0,0,0-.58-.24.82.82,0,0,0-.58,1.4A.86.86,0,0,0,9.86,24Zm4.44,0a.83.83,0,0,0,.58-.24.82.82,0,0,0-1.16-1.16A.82.82,0,0,0,14.3,24Z"/></g></svg>