<svg id="Слой_1" data-name="Слой 1" xmlns="http://www.w3.org/2000/svg" viewBox="0 0 24 24"><title>MLNМонтажная область 1</title><path d="M0,20.5v.75H6.75V20.5c-1.13,0-2.87-1.25-2.87-2.25v-13l6.5,16h1L18,4.75v14.5c0,.8-1.75,1.17-2.62,1.25v.75H24V20.5c-.83-.08-2.5-.45-2.5-1.25V4c0-1.1,1.67-1.29,2.5-1.25V2H18.12L12.25,16.37,6.12,2H0v.75c1.5,0,2.88.62,2.88,1.62V18.25C2.88,19.25,1.12,20.5,0,20.5Zm5-16C4.25,2.75,3.38,2.62,2.38,2.62,3.25,3,3.5,3.25,4.12,4.5c.37.72,4.5,10.79,6.5,15.75L10.88,19C9.17,14.75,5.6,5.9,5,4.5ZM19.25,19.25V2.87L19.13,3a1.25,1.25,0,0,0-.51,1.14V19.25A1.37,1.37,0,0,1,18,20.5,1.27,1.27,0,0,0,19.25,19.25ZM3.12,19.12c0,.6-.83,1.25-1.24,1.5h2.5C4,20.42,3.12,19.82,3.12,19.12Z"/></svg>