<svg id="Слой_1" data-name="Слой 1" xmlns="http://www.w3.org/2000/svg" viewBox="0 0 24 24"><title>MOTМонтажная область 1</title><path d="M11.41,4.75a.75.75,0,1,1-1.49,0,.75.75,0,1,1,1.49,0Z"/><path d="M6.84,7.63a.75.75,0,1,0-.75-.75A.76.76,0,0,0,6.84,7.63Z"/><path d="M0,16.88l3.82-4.52,1.36.72L10.5,7.42l1.63,1.95,1.29-.32,2.28,2.87h.6l2.84-2.55L24,15.76l-4.86-5.44-1.73,1.82,1.19,4.34-5.18-6.16H12.7v.31L10.5,8.29,7.2,17.82l-.34-3.27L4.21,13.39Z"/><path d="M14.49,7.63a.75.75,0,1,0-.75-.75A.75.75,0,0,0,14.49,7.63Z"/></svg>