<svg id="Слой_1" data-name="Слой 1" xmlns="http://www.w3.org/2000/svg" viewBox="0 0 24 24"><title>MSPМонтажная область 1</title><path d="M.43,1.35A.24.24,0,0,0,.29,1.3a.32.32,0,0,0-.14,0,.22.22,0,0,0-.11.1.26.26,0,0,0,0,.15V13.81a.77.77,0,0,0,.08.34.81.81,0,0,0,.24.28l2.62,1.86a.24.24,0,0,0,.2,0,.27.27,0,0,0,.18-.11.28.28,0,0,0,.05-.16V8.3a.08.08,0,0,1,0,0l0,0,.05,0,0,0,6.33,4.49a.51.51,0,0,1,.13.16.35.35,0,0,1,0,.2V21a.53.53,0,0,0,.07.28.55.55,0,0,0,.18.22l1.46,1a.42.42,0,0,0,.26.08.38.38,0,0,0,.25-.08l1.47-1a.55.55,0,0,0,.18-.22A.52.52,0,0,0,14,21V13.08a.41.41,0,0,1,0-.21.47.47,0,0,1,.13-.15l6.33-4.5h.1l0,0a.09.09,0,0,1,0,.05v7.76a.23.23,0,0,0,0,.14.27.27,0,0,0,.11.1.17.17,0,0,0,.14,0,.24.24,0,0,0,.14,0l2.62-1.86a.78.78,0,0,0,.24-.27A.85.85,0,0,0,24,13.8V1.57a.36.36,0,0,0,0-.1.15.15,0,0,0-.06-.09.24.24,0,0,0-.09-.06l-.11,0a.27.27,0,0,0-.15.05l-11.23,8a.6.6,0,0,1-.34.11.61.61,0,0,1-.35-.11Z"/></svg>