<svg id="Слой_1" data-name="Слой 1" xmlns="http://www.w3.org/2000/svg" viewBox="0 0 24 24"><title>MTNМонтажная область 1</title><path d="M22.34,9l-1.18-.76.3-1.38a3.62,3.62,0,0,0-4.3-4.3l-1.37.3L15,1.66A3.62,3.62,0,0,0,9,1.66L8.2,2.82,6.84,2.53a3.62,3.62,0,0,0-4.3,4.3l.3,1.36L1.66,9a3.62,3.62,0,0,0,0,6.08l1.18.76-.3,1.38a3.62,3.62,0,0,0,4.3,4.3l1.37-.3L9,22.34a3.62,3.62,0,0,0,6.08,0l.75-1.16,1.36.29a3.62,3.62,0,0,0,4.3-4.3l-.3-1.36,1.18-.76A3.62,3.62,0,0,0,22.34,9Zm-19,4.38-.39-.25a1.31,1.31,0,0,1,0-2.21l.39-.26A12.37,12.37,0,0,1,3.3,13.35ZM10.89,2.91a1.31,1.31,0,0,1,2.21,0l.24.38a12.19,12.19,0,0,1-2.7,0ZM6.36,4.78l.44.1A12.32,12.32,0,0,1,4.89,6.79L4.8,6.34A1.31,1.31,0,0,1,6.36,4.78Zm0,14.44A1.31,1.31,0,0,1,4.8,17.66l.1-.46a12,12,0,0,1,1.91,1.92Zm6.75,1.87a1.31,1.31,0,0,1-2.21,0l-.24-.38a12.19,12.19,0,0,1,2.7,0Zm1.62-2.5a14.48,14.48,0,0,0-5.45,0,14.65,14.65,0,0,0-3.86-3.87,14.33,14.33,0,0,0,0-5.46A14.54,14.54,0,0,0,9.27,5.41a14.69,14.69,0,0,0,5.45,0,14.65,14.65,0,0,0,3.86,3.87,14.33,14.33,0,0,0,0,5.46A14.54,14.54,0,0,0,14.73,18.59Zm2.91.63-.44-.1a11.9,11.9,0,0,1,1.91-1.91l.09.45A1.31,1.31,0,0,1,17.64,19.22ZM19.2,6.34l-.1.46a12,12,0,0,1-1.91-1.92l.45-.1A1.31,1.31,0,0,1,19.2,6.34Zm1.89,6.77-.39.26a12.37,12.37,0,0,1,0-2.72l.39.25A1.31,1.31,0,0,1,21.09,13.11Z"/></svg>