<svg id="Слой_1" data-name="Слой 1" xmlns="http://www.w3.org/2000/svg" viewBox="0 0 24 24"><title>MYSTМонтажная область 1</title><path d="M23.93,13.17,16.15,5.39a.27.27,0,0,0-.36,0L12,9.2,8.22,5.45a.25.25,0,0,0-.36,0L6.69,6.6l-4.3,4.21-.94.92L.07,13.08a.24.24,0,0,0-.07.18.32.32,0,0,0,.07.19L4,17.33a.25.25,0,0,0,.36,0L8,13.61l3.78,3.77a.24.24,0,0,0,.36,0l3.74-3.73,3.76,3.76a.24.24,0,0,0,.18.07.28.28,0,0,0,.19-.07l3.88-3.89a.24.24,0,0,0,.07-.18A.19.19,0,0,0,23.93,13.17Zm-.7.32L21,12.67l-1-2.2.59.08,2.8,2.81ZM22,14.76l-.66-1.42,1.52.56ZM6.6,9.65l-3.14.85L6.6,7.41ZM2.7,11.23l2.21-.59-.15,2.49L2.08,11.85Zm2.74-.73.39-.1,1,1.61L5.24,13.82Zm1.78,1.1-.88-1.35.5-.13,1.26.51Zm-.1-1.93V8.73l3,.25.75,2.24Zm2.52,2.91,1.07.65.18,2.5-1.51-1.5Zm1.46.28L9.74,12l.1-.65,1.28.53a.18.18,0,0,0,.1,0l1.28.54L13,14.07ZM13,12.4l1.4-.72-1,1.82ZM15,10.83l-1.29.67L14,9.31l1.8,1.1Zm1.36-.7L13.91,8.66l-.43-.26.64-.63,2.74.89.26,1.05Zm1.31-.51L17,7l3,3Zm0,.52.54.07.59,5.57L17.22,14.2Zm1.06.16.66.09.93,2-1.14,2.11ZM16,5.94l.32.32.44,1.81-2.19-.7ZM12.14,9.76l1-1L13.5,9l-.39,2.78-.4.2-1.24-.5-1-3.06,1.32,1.33A.3.3,0,0,0,12.14,9.76ZM8,6l1.61,1.6.27.84L7.12,8.21V6.9ZM1.68,12.24l3,1.44-.08,1.37-2.73-.48L.62,13.28Zm2.45,4.55L2.55,15.21l2,.36,0,.8Zm3.72-3.72L5.1,15.82l.07-1.18h0l3.41-3.77.76.3-.16,1-.26,1.65-.71-.7A.25.25,0,0,0,7.85,13.07ZM12,16.85l-.56-.56-.18-2.73,2.05,1.27.18.53ZM15.93,13a.27.27,0,0,0-.19.08L13.89,15l-.27-.8,1.64-2.92,1.86-1-.37,3.44-.63-.63A.37.37,0,0,0,15.93,13Zm3.93,3.83-.5-.49-.1-1L20.58,13l1,2.17Z"/></svg>