<svg id="Слой_1" data-name="Слой 1" xmlns="http://www.w3.org/2000/svg" viewBox="0 0 24 24"><title>NASМонтажная область 1</title><path d="M8.43,14.9l3.43,7,1.77-5.21Zm-6.27-3,5.2,1.76c.58-1.73,1.16-3.43,1.76-5.2l-7,3.44Zm6.57,2.21.16.08,5,1.7a.67.67,0,0,0,.46-.06L20.14,13l1.68-.84-.27-.1c-1.63-.54-3.24-1.1-4.88-1.64a.75.75,0,0,0-.51,0l-6.12,3-1.31.64Zm7.09-4.44c-1.23-2.5-2.45-5-3.7-7.49C10.85,5.92,9.61,9.59,8.33,13.35l7.49-3.7ZM0,12l3.45-1.71L9.21,7.46A.71.71,0,0,0,9.61,7c.75-2.24,1.5-4.48,2.27-6.71L12,0l.19.36q2.19,4.47,4.41,8.93a.84.84,0,0,0,.42.32l6.67,2.27L24,12l-.51.26c-2.87,1.41-5.73,2.83-8.6,4.23a.94.94,0,0,0-.34.25,1,1,0,0,0-.2.37c-.74,2.22-1.5,4.43-2.25,6.64L12,24c-.2-.39-.36-.72-.52-1.05q-2-4.07-4-8.12a1,1,0,0,0-.2-.28,1.11,1.11,0,0,0-.3-.17c-2.23-.74-4.45-1.5-6.67-2.26Z"/></svg>