<svg id="Слой_1" data-name="Слой 1" xmlns="http://www.w3.org/2000/svg" xmlns:xlink="http://www.w3.org/1999/xlink" viewBox="0 0 24 24"><defs><style>.cls-1{fill:none;}.cls-2{clip-path:url(#clip-path);}</style><clipPath id="clip-path"><rect class="cls-1" width="24" height="24"/></clipPath></defs><title>NCASHМонтажная область 1</title><g class="cls-2"><path d="M23.2,14.7a.41.41,0,0,0-.53.27.52.52,0,0,0-.05.24.48.48,0,0,0,.07.23l-2.45,4.34a.63.63,0,0,0-.27,0l-1.62-1.65a.58.58,0,0,0-.06-.41.6.6,0,0,0-.3-.29V6.77a.55.55,0,0,0,.25-.2l4,2.14v.06a.41.41,0,0,0,.49.33A.44.44,0,0,0,23,8.53a.44.44,0,0,0-.44-.34l-1.95-3.8h0a.54.54,0,0,0-.19-.7.86.86,0,0,0-.24-.11.82.82,0,0,0-.27,0l-1.32-.89a.64.64,0,0,0-.11-.27.58.58,0,0,0-.21-.2A.67.67,0,0,0,18,2.14a.46.46,0,0,0-.26,0L14.67.4A.57.57,0,0,0,14.2,0a.51.51,0,0,0-.59.26L6.93,1.48a.54.54,0,0,0-.24-.09.63.63,0,0,0-.27,0A.53.53,0,0,0,6,2L1.37,6.84a.53.53,0,0,0-.5.4.57.57,0,0,0,0,.29A.54.54,0,0,0,1,7.8L.69,14a.6.6,0,0,0-.18.56.57.57,0,0,0,.4.48l1.77,4.09a.59.59,0,0,0,.18.61.72.72,0,0,0,.24.14.61.61,0,0,0,.27,0L7.66,23a.54.54,0,0,0,.46.51.53.53,0,0,0,.25,0,.64.64,0,0,0,.24-.1l5.56.39a.55.55,0,0,0,.56.19.5.5,0,0,0,.27-.11.69.69,0,0,0,.18-.24l4.73-2.84a.46.46,0,0,0,.26,0,.6.6,0,0,0,.21-.14.59.59,0,0,0,.18-.55L23,15.58a.44.44,0,0,0,.22-.1.49.49,0,0,0,0-.78Zm0,.51c-.05.1-.14.15-.22.11a.17.17,0,0,1-.06-.23.18.18,0,0,1,.21-.11A.17.17,0,0,1,23.21,15.21ZM20.3,20.44a.2.2,0,0,1-.28,0,.21.21,0,0,1,0-.29.2.2,0,0,1,.28,0A.21.21,0,0,1,20.3,20.44Zm-.69-.27-4.33,1.5a.51.51,0,0,0-.21-.15l-.2-2.95a.72.72,0,0,0,.25-.27h2.09a.62.62,0,0,0,.55.34.68.68,0,0,0,.31-.08l1.56,1.58Zm-4.54,3a.5.5,0,0,0-.12-.08l.11-.61a.66.66,0,0,0,.22-.15.57.57,0,0,0,.12-.23l3.45-1.2Zm-.36.58a.19.19,0,0,1-.25-.13.21.21,0,0,1,.19-.22.2.2,0,0,1,.25.13.21.21,0,0,1-.19.22Zm-.55-.43L10,23.07l4.34-.7a.63.63,0,0,0,.23.16l-.1.58A.57.57,0,0,0,14.16,23.36ZM10.1,18.63a.64.64,0,0,0,.19-.08l3.87,3.36-5.47.88ZM8.29,22.51,6.91,18.38,7,18.3H9.43a.58.58,0,0,0,.2.24Zm-.17.8a.21.21,0,0,1-.18-.23A.22.22,0,0,1,8.19,23a.21.21,0,0,1,.18.23A.19.19,0,0,1,8.12,23.31ZM3.66,19.59a.57.57,0,0,0,0-.13l2.31-1a.63.63,0,0,0,.24.16.65.65,0,0,0,.28,0l1.31,3.94Zm-.39-.65-1-5.07,3.69,3.8a.57.57,0,0,0-.11.33L3.44,19A.59.59,0,0,0,3.27,18.94Zm0,.66a.21.21,0,0,1-.29,0,.21.21,0,0,1,0-.29.2.2,0,0,1,.28,0A.22.22,0,0,1,3.25,19.6Zm-2-4.73a.56.56,0,0,0,.11-.26.82.82,0,0,0,0-.27l.33-.72.85,4.19Zm0-4.73.18,2.4a.67.67,0,0,0-.1.3.64.64,0,0,0,.07.31l-.3.65ZM1.05,7.25a.2.2,0,0,1,.24-.16.22.22,0,0,1,.09.28.2.2,0,0,1-.24.15A.21.21,0,0,1,1.05,7.25ZM2,12.87a.21.21,0,0,1-.2.22.21.21,0,0,1-.2-.22.22.22,0,0,1,.2-.23A.22.22,0,0,1,2,12.87ZM1.72,7.54l0-.13L3.82,6,1.88,12.14,1.57,7.79A1,1,0,0,0,1.72,7.54ZM5,3.63,4.21,5a.59.59,0,0,0-.33.2.63.63,0,0,0-.16.34l-1.36.92ZM6.38,2.31A.65.65,0,0,0,7,2l3.56.79a.74.74,0,0,0,.12.29L9.54,5.6a.59.59,0,0,0-.43.34H7a.64.64,0,0,0-.23-.26.57.57,0,0,0-.32-.09.52.52,0,0,0-.24,0A.64.64,0,0,0,6,5.77L4.71,5.38a.44.44,0,0,0-.06-.25Zm.07-.71a.19.19,0,0,1,.26.11A.21.21,0,0,1,6.55,2a.21.21,0,0,1-.26-.11A.2.2,0,0,1,6.45,1.6ZM13.26.76l-1.88,1.4a.58.58,0,0,0-.68.21L7.88,1.74Zm.66.11.13,0A.58.58,0,0,0,14.52.8l2.91,1.66v0l-5.5-.16Zm.26-.68c.12,0,.21.12.19.22a.2.2,0,0,1-.25.14.21.21,0,0,1-.19-.21A.21.21,0,0,1,14.18.19Zm3.53,3L17.5,5.65a.58.58,0,0,0-.29.29H14.75a.61.61,0,0,0-.68-.34L11.76,2.93s0-.06,0-.1L17.52,3A.81.81,0,0,0,17.71,3.17Zm0,2.79a.25.25,0,0,1,.25.25A.25.25,0,1,1,17.75,6Zm.11-3.49a.22.22,0,0,1,.32-.07.24.24,0,0,1,.1.32.23.23,0,0,1-.32.06A.24.24,0,0,1,17.86,2.47Zm4.27,5.8L18.36,6.15a.59.59,0,0,0-.12-.31A.66.66,0,0,0,18,5.63l.2-2.37Zm-2.5-4.36a.6.6,0,0,0,.26.52.66.66,0,0,0,.33.12L21.61,7,18.74,3.31Zm.42-.06a.18.18,0,0,1,.28,0,.2.2,0,0,1,.08.27.2.2,0,0,1-.29,0A.21.21,0,0,1,20.05,3.85ZM14,6.21a.24.24,0,1,1,.47,0,.24.24,0,0,1-.23.24l-.1,0-.07,0a.18.18,0,0,1,0-.08A.15.15,0,0,1,14,6.21Zm.13,5.2a.25.25,0,0,1,.24.25.15.15,0,0,1,0,.09.22.22,0,0,1-.05.08.24.24,0,0,1-.08.06l-.09,0-.09,0a.35.35,0,0,1-.14-.14.28.28,0,0,1,0-.09A.25.25,0,0,1,14.1,11.41ZM10.94,2.66a.24.24,0,1,1,.24.25A.27.27,0,0,1,11,2.83.22.22,0,0,1,10.94,2.66Zm.18.69a.51.51,0,0,0,.32-.05l2.25,2.59a.54.54,0,0,0-.09.24.57.57,0,0,0,0,.26.48.48,0,0,0,.13.23.51.51,0,0,0,.21.15v4.29a.45.45,0,0,0-.11,0L10.18,6.52a.67.67,0,0,0,.07-.44A.62.62,0,0,0,10,5.71ZM9.41,6.21a.25.25,0,1,1,.49,0,.24.24,0,0,1-.24.24.16.16,0,0,1-.1,0l-.08,0a.22.22,0,0,1-.05-.08A.29.29,0,0,1,9.41,6.21Zm-3.23,0a.24.24,0,1,1,.24.24A.25.25,0,0,1,6.18,6.21Zm.24,11.57a.25.25,0,0,1,.24.25.28.28,0,0,1,0,.09.24.24,0,0,1-.06.08l-.08.05a.21.21,0,0,1-.18,0l-.08-.05a.22.22,0,0,1,0-.08.29.29,0,0,1,0-.09A.25.25,0,0,1,6.42,17.78ZM4,5.28a.2.2,0,0,1,.29,0,.22.22,0,0,1,0,.29A.2.2,0,0,1,4,5.57a.23.23,0,0,1,0-.29ZM2.25,12.54l2.1-6.63a.38.38,0,0,0,.13-.09l1.34.41a.61.61,0,0,0,.36.54V17.25L2.26,13.19a.61.61,0,0,0,.08-.32A.55.55,0,0,0,2.25,12.54Zm12.32,4.87-.15,0-3.8-4.72a.74.74,0,0,0,0-.29.56.56,0,0,0-.1-.28.51.51,0,0,0-.22-.19.54.54,0,0,0-.28-.08.86.86,0,0,0-.23.05.48.48,0,0,0-.2.14.53.53,0,0,0-.13.2.59.59,0,0,0-.05.23.61.61,0,0,0,.08.3.67.67,0,0,0,.21.23v4.44a.66.66,0,0,0-.2.14.74.74,0,0,0-.13.21H7a.57.57,0,0,0-.13-.21.66.66,0,0,0-.2-.14V6.77a.66.66,0,0,0,.2-.14A.57.57,0,0,0,7,6.42h2.1a.61.61,0,0,0,.28.33.62.62,0,0,0,.42.06l3.74,4.63a.53.53,0,0,0,0,.22.45.45,0,0,0,0,.23.46.46,0,0,0,.13.2.56.56,0,0,0,.2.14.55.55,0,0,0,.46,0,.56.56,0,0,0,.2-.14.46.46,0,0,0,.13-.2.45.45,0,0,0,0-.23.58.58,0,0,0-.06-.29.7.7,0,0,0-.2-.22V6.78a.62.62,0,0,0,.2-.15.57.57,0,0,0,.13-.21h2.42a.57.57,0,0,0,.13.21.48.48,0,0,0,.2.14V17.46a.48.48,0,0,0-.2.14.57.57,0,0,0-.13.21H15.14a.58.58,0,0,0-.22-.29A.61.61,0,0,0,14.57,17.41Zm.26,4.41a.24.24,0,0,1,.25.22.23.23,0,0,1-.24.22.22.22,0,0,1-.24-.21.23.23,0,0,1,.24-.23ZM14.33,18a.25.25,0,1,1,.49,0,.29.29,0,0,1,0,.09.22.22,0,0,1-.05.08l-.08.05a.16.16,0,0,1-.1,0,.15.15,0,0,1-.09,0l-.08-.05a.22.22,0,0,1-.05-.08A.29.29,0,0,1,14.33,18ZM9.81,12.49a.24.24,0,1,1,.48,0,.18.18,0,0,1,0,.1.35.35,0,0,1,0,.08l-.08.05-.09,0-.09,0-.08-.05a.35.35,0,0,1-.05-.08A.18.18,0,0,1,9.81,12.49ZM10,17.78a.25.25,0,0,1,.24.25.28.28,0,0,1,0,.09.24.24,0,0,1-.06.08l-.08.05a.13.13,0,0,1-.09,0,.15.15,0,0,1-.09,0L9.8,18.2a.22.22,0,0,1-.05-.08.15.15,0,0,1,0-.09A.25.25,0,0,1,10,17.78Zm.24-.32V13.09l.08,0L14,17.73A.6.6,0,0,0,14,18a.62.62,0,0,0,.42.59l.2,2.88-.11.05-3.92-3.4a.64.64,0,0,0-.05-.41A.68.68,0,0,0,10.21,17.46ZM18,18a.29.29,0,0,1,0,.09.22.22,0,0,1-.05.08l-.08.05a.15.15,0,0,1-.09,0,.16.16,0,0,1-.1,0l-.08-.05a.22.22,0,0,1,0-.08.29.29,0,0,1,0-.09A.25.25,0,1,1,18,18ZM.86,14.73a.19.19,0,0,1-.21-.19.2.2,0,0,1,.13-.25.21.21,0,0,1,.22.19A.22.22,0,0,1,.86,14.73ZM22.65,8.5a.15.15,0,0,1,.19.13.18.18,0,0,1-.09.23.19.19,0,0,1-.1-.36Z"/></g></svg>