<svg id="Слой_1" data-name="Слой 1" xmlns="http://www.w3.org/2000/svg" viewBox="0 0 24 24"><title>NGCМонтажная область 1</title><path d="M16.8,13l-3.13.16,2.79-7.11L8,7.23,7.2,15.07H9.06L8.77,24Zm-6.6,7.8a.3.3,0,0,1-.59,0v-2.1a.3.3,0,0,1,.59,0ZM8,14.46l.66-6.87a.22.22,0,0,1,.09-.17.29.29,0,0,1,.18-.07H9a.28.28,0,0,1,.2.09.27.27,0,0,1,.07.2L8.68,13.9h1.69l-.08,3.81a.3.3,0,0,1-.1.22A.32.32,0,0,1,10,18h0a.33.33,0,0,1-.24-.1.31.31,0,0,1-.09-.22l.07-3.24ZM8,6.54l8.29-1-4.06-1.7S12.66.81,9.86,0L9.61,1s1.69.4,1.52,3Z"/></svg>