<svg id="Слой_1" data-name="Слой 1" xmlns="http://www.w3.org/2000/svg" viewBox="0 0 24 24"><title>NMRМонтажная область 1</title><path d="M23.59,14.78a6.41,6.41,0,0,1-2.66-2.89c-.74-1.61-1.28-4.23-1.28-8.85V2.5H3.52l0,.58a13.33,13.33,0,0,1-.38,4.45A4.41,4.41,0,0,1,.61,10.82L0,11l.3.57c1,1.76,2.73,5.09,3.5,6.54l.23.43.45-.18a11.74,11.74,0,0,0,3.66-2.64L9.9,19l.26.49.48-.28a14.13,14.13,0,0,0,3.27-2.55,15.08,15.08,0,0,0,5.54,5.59l.49.3L24,15.05ZM4.51,17.18l-3-5.58A5.79,5.79,0,0,0,4.22,7.81a14.56,14.56,0,0,0,.46-4.24H9.61A19.61,19.61,0,0,1,9,8.15a8.47,8.47,0,0,1-.94,2.34,2.87,2.87,0,0,1-1.4,1.24l-.6.2.3.56c.35.66.77,1.45,1.21,2.25A11.57,11.57,0,0,1,4.51,17.18Zm9.28-2A12,12,0,0,1,10.57,18L8.9,14.88l-.18-.32L7.61,12.48A4.23,4.23,0,0,0,9,11.06a9.55,9.55,0,0,0,1.07-2.64,20.55,20.55,0,0,0,.6-4.85h6.21c0,.19,0,.37,0,.55,0,.4,0,.79-.05,1.17A25,25,0,0,1,16,10.55a13.33,13.33,0,0,1-2.07,4.38ZM19.54,21a13.5,13.5,0,0,1-4.88-5.25l.39-.54a14.08,14.08,0,0,0,1.72-3.52A26.28,26.28,0,0,0,18,3.57h.62c0,4.37.57,7,1.38,8.77a7.11,7.11,0,0,0,2.63,3.06Z"/></svg>