<svg id="Слой_1" data-name="Слой 1" xmlns="http://www.w3.org/2000/svg" viewBox="0 0 24 24"><title>NPXSМонтажная область 1</title><path d="M3.49,20.51A12,12,0,1,1,12,24a12,12,0,0,1-8.5-3.49ZM5.08,5.08A9.83,9.83,0,0,0,2.93,8.26,9.55,9.55,0,0,0,2.16,12,9.75,9.75,0,0,0,12,21.84a9.55,9.55,0,0,0,3.76-.77,10.12,10.12,0,0,0,5.33-5.33A9.55,9.55,0,0,0,21.84,12,9.75,9.75,0,0,0,12,2.16a9.55,9.55,0,0,0-3.76.77A9.83,9.83,0,0,0,5.08,5.08ZM12.7,14.3l1.6-1.6L18,16.42,16.42,18ZM6,16.42,9.7,12.7l1.6,1.59L7.58,18Zm4.49-4.36,1.59-1.59,1.6,1.59-1.6,1.6ZM12.7,9.7,16.42,6,18,7.58,14.29,11.3ZM6,7.58,7.58,6,11.3,9.71,9.7,11.3Z"/></svg>