<svg id="Слой_1" data-name="Слой 1" xmlns="http://www.w3.org/2000/svg" viewBox="0 0 24 24"><title>OAXМонтажная область 1</title><path d="M19.09,12.13l.84-1.1L17.6,8H15.84l3.22,4.09-3.2,4.06-.66-1.34H13.69l.68,1.37H17.6l2.33-3Z"/><path d="M19.94,11l.86,1.12-.86,1.12,2.33,3H24l-3.2-4.11L24,8H22.27Z"/><path d="M7.9,10.53A4,4,0,0,0,7,9.19a4,4,0,0,0-1.34-.9A4,4,0,0,0,4.1,8a3.86,3.86,0,0,0-2.37.76l1,1A2.53,2.53,0,0,1,4.1,9.41a2.68,2.68,0,0,1,1.05.19,2.58,2.58,0,0,1,.88.61,2.77,2.77,0,0,1,.79,1.94,2.59,2.59,0,0,1-.19,1.06,2.55,2.55,0,0,1-.6.89.3.3,0,0,1-.08.08H6a2.67,2.67,0,0,1-3.79-.08,2.77,2.77,0,0,1-.79-1.94,2.59,2.59,0,0,1,.39-1.41l-1-1A4,4,0,0,0,0,12.11a3.9,3.9,0,0,0,.3,1.58A4,4,0,0,0,1.18,15a4.19,4.19,0,0,0,1.34.89,4,4,0,0,0,1.58.3A3.83,3.83,0,0,0,7,15a4,4,0,0,0,.88-1.34,4.07,4.07,0,0,0,.3-1.58A3.89,3.89,0,0,0,7.9,10.53Z"/><path d="M9.23,16.22l.69-1.37.65-1.34,1.21-2.41L13,13.48h1.54L11.82,8,7.73,16.22Z"/></svg>