<svg id="Слой_1" data-name="Слой 1" xmlns="http://www.w3.org/2000/svg" viewBox="0 0 24 24"><title>ODEМонтажная область 1</title><path d="M9.55,1a3.47,3.47,0,0,1,4.9,0L23,9.55a3.47,3.47,0,0,1,0,4.9l-4.07,4.06V23a.69.69,0,0,1-1.38,0V18.52l-.3-.29h0l-4.58-4.58a1.86,1.86,0,0,1-.67.13A1.78,1.78,0,1,1,13.78,12a1.86,1.86,0,0,1-.13.67l4.58,4.58L22,13.47a2.08,2.08,0,0,0,0-2.94L13.47,2a2.08,2.08,0,0,0-2.94,0L2,10.53a2.08,2.08,0,0,0,0,2.94L10.53,22a2.08,2.08,0,0,0,2.94,0l3.08-3.09.19.2v1.57L14.45,23a3.47,3.47,0,0,1-4.9,0L1,14.45a3.47,3.47,0,0,1,0-4.9Z"/></svg>