<svg id="Слой_1" data-name="Слой 1" xmlns="http://www.w3.org/2000/svg" viewBox="0 0 25 24"><title>OMGМонтажная область 1</title><path d="M1,18.2a5.8,5.8,0,1,0,1.7-4.1A5.79,5.79,0,0,0,1,18.2ZM1.1,4.7a5.91,5.91,0,0,0,3.4,6.5,5.8,5.8,0,0,0,7.1-2.1A5.76,5.76,0,0,0,11,1.8h1.6V0H6.8A5.78,5.78,0,0,0,1.1,4.7ZM13.4,5.8a5.8,5.8,0,1,0,1.7-4.1,5.79,5.79,0,0,0-1.7,4.1ZM2.8,18.2a4,4,0,0,1,.3-1.53A4.24,4.24,0,0,1,4,15.37a3.93,3.93,0,0,1,1.3-.86,3.93,3.93,0,0,1,3.06,0,3.93,3.93,0,0,1,1.3.86,4.24,4.24,0,0,1,.87,1.3,4,4,0,0,1,.3,1.53,4,4,0,0,1-.3,1.53A4.12,4.12,0,0,1,9.63,21,4,4,0,0,1,4,21a4.12,4.12,0,0,1-.87-1.3,4,4,0,0,1-.3-1.53Zm0-12.3a4,4,0,0,1,4-4,4,4,0,1,1-4,4Zm12.4-.1a4,4,0,1,1,4,4,4,4,0,0,1-1.53-.3,4,4,0,0,1-1.3-.87,4.12,4.12,0,0,1-.87-1.3,4,4,0,0,1-.3-1.53Z"/></svg>