<svg id="Слой_1" data-name="Слой 1" xmlns="http://www.w3.org/2000/svg" viewBox="0 0 24 24"><title>ORMEМонтажная область 1</title><path d="M15.09,2.08V0H13.57V1.78a9.92,9.92,0,0,0-1.23-.07,10.88,10.88,0,0,0-1.14.06V0H9.68V2.05a10.34,10.34,0,0,0,0,20v2H11.2V22.33a10.88,10.88,0,0,0,1.14.06,9.9,9.9,0,0,0,1.23-.08V24h1.52V22a10.34,10.34,0,0,0,0-19.94ZM9.68,20.36a8.73,8.73,0,0,1,0-16.63Zm3.89.33a8.29,8.29,0,0,1-1.23.08,8.51,8.51,0,0,1-1.14-.07V3.39a10.57,10.57,0,0,1,1.14-.07,8.28,8.28,0,0,1,1.23.09Zm1.52-.36V3.76a8.73,8.73,0,0,1,0,16.57Z"/></svg>