<svg id="Слой_1" data-name="Слой 1" xmlns="http://www.w3.org/2000/svg" viewBox="0 0 24 24"><title>OSTМонтажная область 1</title><path d="M12.47,7.45l2.15-3.27a2.17,2.17,0,0,0,2.47-1.65A2.1,2.1,0,0,0,16.81,1,2.2,2.2,0,0,0,15.5,0a2.25,2.25,0,0,0-1.28.13,2.1,2.1,0,0,0-1,.81,2,2,0,0,0-.34,1.21,2.06,2.06,0,0,0,.43,1.19L10.66,7.44a8.43,8.43,0,0,0-7.3,5.85A8.16,8.16,0,0,0,3,16.51a8.28,8.28,0,0,0,3.07,5.61A8.64,8.64,0,0,0,12.33,24a8.54,8.54,0,0,0,5.74-3,8.15,8.15,0,0,0-.51-11.08A8.62,8.62,0,0,0,12.47,7.45Zm-1,12.64a4.63,4.63,0,0,1-1.73-.33,4.46,4.46,0,0,1-1.46-1,4.39,4.39,0,0,1-1-1.43A4.21,4.21,0,0,1,7,15.69,4.29,4.29,0,0,1,7.33,14a4.5,4.5,0,0,1,1-1.43,4.44,4.44,0,0,1,1.46-1,4.58,4.58,0,0,1,4.29.44,4.41,4.41,0,0,1,1.65,2.07,2.59,2.59,0,0,0-1.73-1,2.63,2.63,0,0,0-1.92.51,2.52,2.52,0,0,0-1,1.69A2.53,2.53,0,0,0,12.51,18a2.68,2.68,0,0,0,2.28,0,2.58,2.58,0,0,0,.91-.72,4.36,4.36,0,0,1-1.65,2A4.53,4.53,0,0,1,11.5,20.09Z"/></svg>