<svg width="25" height="24" viewBox="0 0 25 24" fill="none" xmlns="http://www.w3.org/2000/svg">
<path d="M24.9018 11.679C24.8417 11.5595 24.7623 11.4507 24.6668 11.357C22.5928 9.049 18.3698 4.5 18.3698 4.5L13.0018 10.265L7.57181 4.554C7.57181 4.554 3.30181 9.142 1.20781 11.476C1.07836 11.6135 1.00399 11.7939 0.998823 11.9827C0.99366 12.1715 1.05807 12.3556 1.17981 12.5C2.26681 13.714 7.60981 19.5 7.60981 19.5L13.0018 13.7L18.3528 19.51L24.8018 12.492C24.8698 12.4244 24.9256 12.3456 24.9668 12.259C25.0198 12.0641 24.9954 11.8563 24.8988 11.679H24.9018ZM4.18281 12.321C4.10809 12.2148 4.072 12.0863 4.08055 11.9567C4.0891 11.8271 4.14178 11.7044 4.22981 11.609C4.91281 10.845 7.64581 7.963 7.64581 7.963L11.4528 11.936L7.63981 16.036C7.63981 16.036 5.30181 13.586 4.18281 12.321ZM21.6248 12.457C21.5441 12.5925 21.4503 12.7198 21.3448 12.837L18.3878 15.994L14.5718 12.005L18.3288 7.959C18.3288 7.959 20.4928 10.159 21.4848 11.346C21.5797 11.442 21.6563 11.5545 21.7108 11.678C21.7493 11.807 21.7615 11.9424 21.7467 12.0762C21.7319 12.21 21.6905 12.3395 21.6248 12.457Z" fill="#0050db"/>
</svg>
