<svg id="Слой_1" data-name="Слой 1" xmlns="http://www.w3.org/2000/svg" viewBox="0 0 25 24"><title>PAYМонтажная область 1</title><path d="M23.9,11.68a1.24,1.24,0,0,0-.23-.32c-2.08-2.31-6.3-6.86-6.3-6.86L12,10.26,6.57,4.55S2.3,9.14.21,11.48A.76.76,0,0,0,0,12a.8.8,0,0,0,.18.52c1.09,1.21,6.43,7,6.43,7L12,13.7l5.35,5.81,6.45-7a.76.76,0,0,0,.17-.23.78.78,0,0,0-.07-.58Zm-20.72.64a.58.58,0,0,1-.1-.36.56.56,0,0,1,.15-.35C3.91,10.84,6.65,8,6.65,8l3.8,4L6.64,16S4.3,13.59,3.18,12.32Zm17.45.14a3.37,3.37,0,0,1-.28.38l-3,3.15-3.82-4,3.76-4s2.16,2.2,3.16,3.39a1,1,0,0,1,.22.33,1.07,1.07,0,0,1,0,.4A1.29,1.29,0,0,1,20.63,12.46Z"/></svg>