<svg id="Слой_1" data-name="Слой 1" xmlns="http://www.w3.org/2000/svg" viewBox="0 0 24 24"><title>PGLМонтажная область 1</title><path d="M20.11,4.25l-3.4-2.76L12.56,0,8.63.85,5.91,2.64,1,11.66l.33,1.89-.29,2.73h0L.8,18.8l1.11,2.64,2.19,1.5L7.67,24l2.71-1,6,.6L22.08,22l1.11-3.47v-7.9Zm-3.53-1L19,5.14l2.63,5.49-3.28,2.71L16.79,9.58,15.61,5Zm-1,7.21,1.58,3.86L11.51,18.8l-6.1-5.33,4-4.34ZM10,7.8l.19-1.75,1.48-1,2.64.52.86,3.34Zm2.83-6.21,2.54.91-.87,1.64L11.6,3.58ZM9.15,3c.09-.27.2-.57.29-.83l1.62-.35L9.49,4.33,9,3.51Zm-1.58.29a.42.42,0,0,0,0,.1l-.06.07-.25.27,0-.2ZM3.7,21l-.65-.45-.81-1.92.2-1.93L3.7,15.31Zm-1-6.63,0-.45.89-.76,0,.18Zm.83-3-1,.83,0-.28,2.9-5.34Zm1.32.5L7.28,5.58c.24-.22.55-.51.82-.78h0l.67,1L8.53,8.05,4.85,12Zm4.94,9.88-2.15.78-2.51-.75V15.08l5.52,4.82ZM21,20.88l-4.67,1.3-5-.49.71-1.53,6-4.75,3.67,3.26Zm.81-4-2.66-2.37,2.66-2.19Z"/></svg>