<svg id="Слой_1" data-name="Слой 1" xmlns="http://www.w3.org/2000/svg" viewBox="0 0 24 24"><title>PLRМонтажная область 1</title><path d="M2.75,22.41V17.54h.11a3.76,3.76,0,0,0,2.72.9c2.55,0,4.69-2.2,4.69-5.93V12c0-3.58-1.85-6.25-4.66-6.25a3.84,3.84,0,0,0-2.8.93H2.7V6H0V22.41Zm5-10.53v.82c0,2.41-1,3.49-2.41,3.46-1.77,0-2.67-1.5-2.67-3.49v-.79C2.62,9.79,3.52,8,5.24,8S7.7,9.55,7.7,11.88Z"/><path d="M14.37,1H11.62V18.26h2.75Z"/><path d="M19.22,11.32a3,3,0,0,1,3.07-2.78h.32V5.76h-.13a5,5,0,0,0-3.36.93H19V5.92H16.47V18.28h2.75Z"/><path d="M24,15.31H21.25v3H24Z"/></svg>