<svg id="Слой_1" data-name="Слой 1" xmlns="http://www.w3.org/2000/svg" xmlns:xlink="http://www.w3.org/1999/xlink" viewBox="0 0 24 24"><defs><style>.cls-1{fill:none;}.cls-2{clip-path:url(#clip-path);}</style><clipPath id="clip-path"><rect class="cls-1" width="24" height="24"/></clipPath></defs><title>POEМонтажная область 1</title><g class="cls-2"><path d="M22.51,2a5.17,5.17,0,0,0-7.24,0L3.44,13.63a.57.57,0,0,0-.13.21.67.67,0,0,0,0,.24v6L0,23.3H1.8l2.43-2.38h6a.74.74,0,0,0,.25-.05,1,1,0,0,0,.2-.15L22.5,9.13h0A5,5,0,0,0,24,5.57a5.21,5.21,0,0,0-.38-1.95A5.23,5.23,0,0,0,22.51,2ZM15.63,3.33l.5-.49a3.91,3.91,0,0,1,2.76-1.12,4,4,0,0,1,2.76,1.12l.05.05a3.76,3.76,0,0,1,1.09,2.67,3.82,3.82,0,0,1-1.14,2.71l-.51.51H16.56l3-3a.62.62,0,0,0,.18-.43A.58.58,0,0,0,19.59,5l0,0a.62.62,0,0,0-.44-.18.63.63,0,0,0-.45.18l-3,3V3.33ZM5.46,19.7l2.47-2.43H12.5L10,19.7Zm7.18-7.08,2.92-2.88h4.58l-2.92,2.88Zm3.57,1-2.72,2.68H8.92l2.72-2.68Zm-4.5-6.41,2.93-2.88V8.87l-2.93,2.9ZM8,10.86l2.72-2.68v4.56L8,15.42ZM4.49,14.3,7,11.85v4.56L4.49,18.86Z"/></g></svg>