<svg id="Слой_1" data-name="Слой 1" xmlns="http://www.w3.org/2000/svg" viewBox="0 0 24 24"><title>POLYМонтажная область 1</title><path d="M24,6.54,24,5.72l-.24.69L22.38,7.59l-1.54.24-.45-.45L21.72,5.5l1.38-.41-1.48,0L19.45,6.71l-2-.15,2,1.41,1,.71L17.41,6.51,14.57,5.09l-1.68.33L7.64,9.84l-2.52.83-1,1.07-1.87,0L1.29,13.5,0,13.88l1.22.17L2.36,12.5l1.75.37,0,1.66-.88,2.4-.5,2.21L2.17,20l1.37-.3-.16-.91,1.16-2.43,2.25-.91L7.66,14l1.46-1.09,2.91.44L15,12.06l-.5,2-1.3.12-.38,1.7,1.13-.75,1.84-.82,1.45-2.3L17.3,11l.78.82,2.26,1.43,1.28-.61-.08-3L21.17,8.4,22.85,8Z"/></svg>