<svg id="Слой_1" data-name="Слой 1" xmlns="http://www.w3.org/2000/svg" viewBox="0 0 24 24"><title>POWRМонтажная область 1</title><path d="M12,23.94a.16.16,0,0,1-.12-.05L.05,12.09,0,12A.15.15,0,0,1,0,12a.13.13,0,0,1,0-.06l0-.06L11.85.05l.06,0H12l.05,0L23.9,11.85A.21.21,0,0,1,24,12a.17.17,0,0,1-.05.12L12.09,23.94A.13.13,0,0,1,12,23.94ZM.41,11.94,12,23.54l11.56-11.6L12,.41Z"/><path d="M17.87,22.36,1.7,18a.05.05,0,0,1-.05,0l0-.05a.28.28,0,0,1,0-.13L5.9,1.7A.28.28,0,0,1,6,1.6a.16.16,0,0,1,.12,0L22.24,5.94l.06,0,.05,0a.14.14,0,0,1,0,.06.13.13,0,0,1,0,.06L18,22.24a.21.21,0,0,1-.06.1A.14.14,0,0,1,17.87,22.36ZM2,17.75,17.77,22,22,6.19,6.19,1.94Z"/><path d="M6.05,22.38H6a.1.1,0,0,1,0,0l0-.07L1.58,6.11a.19.19,0,0,1,0-.1.2.2,0,0,1,.09-.07L17.83,1.57a.28.28,0,0,1,.13,0,.17.17,0,0,1,.07.1l4.33,16.14a.15.15,0,0,1,0,.13.14.14,0,0,1-.1.08L6.1,22.37ZM2,6.19,6.17,22,22,17.75,17.75,1.94Z"/><path d="M17.82,22.35h-.08L.14,12.17a.1.1,0,0,1-.05-.06.16.16,0,0,1,0-.09.13.13,0,0,1,0-.08.18.18,0,0,1,.05-.07L17.74,1.71l.09,0,.08,0a.13.13,0,0,1,.06.07.12.12,0,0,1,0,.08V22.18a.15.15,0,0,1,0,.09.09.09,0,0,1-.06.06ZM.57,12l17.08,9.86V2.15Z"/><path d="M6.07,22.33H6a.1.1,0,0,1-.05-.06.16.16,0,0,1,0-.09V1.8a.31.31,0,0,1,0-.08.18.18,0,0,1,0-.07l.09,0,.08,0,17.68,10.2a.13.13,0,0,1,.06.07.12.12,0,0,1,0,.08.15.15,0,0,1,0,.09.09.09,0,0,1-.06.06L6.15,22.31ZM6.25,2.09V21.87L23.42,12Z"/><path d="M14.18,10l-3.81-.63a.23.23,0,0,1-.12-.08L6,1.88a.21.21,0,0,1,0-.11.21.21,0,0,1,0-.11.17.17,0,0,1,.22,0l8.1,8a.19.19,0,0,1,0,.1.14.14,0,0,1,0,.09.17.17,0,0,1,0,.1A.12.12,0,0,1,14.18,10ZM10.5,9l3.18.52-6.8-6.7Z"/><path d="M17.86,22.33a.16.16,0,0,1-.12,0l-8.1-8a.15.15,0,0,1,0-.1.19.19,0,0,1,0-.1A.24.24,0,0,1,9.7,14l.09-.05,3.78.63a.17.17,0,0,1,.12.08L18,22.07a.21.21,0,0,1,.05.12.16.16,0,0,1-.05.11A.11.11,0,0,1,17.86,22.33Zm-7.6-8,6.8,6.75-3.63-6.14Z"/><path d="M.21,12.14a.14.14,0,0,1-.11,0A.24.24,0,0,1,0,12a.2.2,0,0,1,0-.11.18.18,0,0,1,.09-.08L11.21,8.87a.2.2,0,0,1,.11,0s.07,0,.08.07a.19.19,0,0,1,0,.1.17.17,0,0,1,0,.1L9,12.06l-.05,0H.26Zm10.57-2.8L1.52,11.8H8.71Z"/><path d="M12.72,15.14a.12.12,0,0,1-.08,0,.13.13,0,0,1-.07-.06.15.15,0,0,1,0-.1.19.19,0,0,1,0-.1l2.43-3,.06,0,.07,0h8.58a.17.17,0,0,1,.12,0,.12.12,0,0,1,.05.1.16.16,0,0,1,0,.12.14.14,0,0,1-.1.07l-11,3Zm2.51-3-2,2.48,9.25-2.5Z"/><path d="M15,13l-.09,0a.19.19,0,0,1-.07-.08L13.42,9.29a.15.15,0,0,1,0-.07.2.2,0,0,1,0-.07l4.25-7.46a.23.23,0,0,1,.1-.07.24.24,0,0,1,.12,0,.2.2,0,0,1,.09.09.14.14,0,0,1,0,.11l-2.89,11a.15.15,0,0,1-.06.09.18.18,0,0,1-.1,0ZM13.76,9.25l1.14,3,2.43-9.31Z"/><path d="M6.08,22.32H6a.15.15,0,0,1-.08-.08.23.23,0,0,1,0-.12l2.93-11a.21.21,0,0,1,0-.11.17.17,0,0,1,.1-.06.17.17,0,0,1,.12,0,.18.18,0,0,1,.07.08l1.36,3.59a.25.25,0,0,1,0,.07.14.14,0,0,1,0,.07L6.23,22.24a.12.12,0,0,1-.06.06A.15.15,0,0,1,6.08,22.32Zm3-10.62L6.57,20.94l3.6-6.24Z"/><path d="M6.05,8.77,6,8.75,1.71,6.24a.27.27,0,0,1-.07-.08.25.25,0,0,1,0-.12A.27.27,0,0,1,1.71,6a.19.19,0,0,1,.1,0l7.63.57a.19.19,0,0,1,.12.07.14.14,0,0,1,0,.12.15.15,0,0,1,0,.07l0,.05-.06,0a.08.08,0,0,1-.07,0L2.51,6.32,6.14,8.45a.14.14,0,0,1,.08.09.14.14,0,0,1,0,.11.16.16,0,0,1-.07.09A.11.11,0,0,1,6.05,8.77Z"/><path d="M22.16,18l-7.63-.57h-.06l-.06,0s0,0,0-.06a.2.2,0,0,1,0-.07.14.14,0,0,1,0-.07.1.1,0,0,1,0,0,.09.09,0,0,1,.06,0h.07l6.9.51L17.83,15.5l0,0,0-.06v-.06a.14.14,0,0,1,0-.07.21.21,0,0,1,.11-.07.16.16,0,0,1,.12,0l4.26,2.51a.15.15,0,0,1,.07.09.14.14,0,0,1,0,.11.22.22,0,0,1-.07.09A.14.14,0,0,1,22.16,18Z"/><path d="M15.33,7.3l-.09,0a.27.27,0,0,1-.07-.08l-3-6.26V5.16a.17.17,0,0,1-.17.17.16.16,0,0,1-.12,0,.17.17,0,0,1,0-.12V.21a.16.16,0,0,1,0-.11A.24.24,0,0,1,12,0a.25.25,0,0,1,.12,0,.18.18,0,0,1,.07.08L15.5,7.05a.2.2,0,0,1,0,.13.18.18,0,0,1-.09.1Z"/><path d="M12,23.94a.1.1,0,0,1-.09,0,.16.16,0,0,1-.07-.07L8.48,16.94a.23.23,0,0,1,0-.11.2.2,0,0,1,.19-.09.15.15,0,0,1,.09.06l3,6.2V18.78c0-.1.07-.15.17-.17a.17.17,0,0,1,.12.05.16.16,0,0,1,0,.12l-.06,4.94a.19.19,0,0,1,0,.13A.2.2,0,0,1,12,23.94Z"/><path d="M1.78,18l-.06,0-.06,0a.17.17,0,0,1,0-.1.2.2,0,0,1,0-.11l4.26-6.34A.26.26,0,0,1,6,11.32a.18.18,0,0,1,.13,0l0,.06a.14.14,0,0,1,0,.06.14.14,0,0,1,0,.07.1.1,0,0,1,0,.05L2.32,17.34,6,15.27l.07,0h.07a.09.09,0,0,1,.07,0l.05.05a.14.14,0,0,1,0,.07.17.17,0,0,1,0,.07s0,0,0,.06a.07.07,0,0,1-.06,0L1.86,18Z"/><path d="M17.86,12.61h-.1l0,0,0-.05a.43.43,0,0,1,0,0,.43.43,0,0,0,0-.05l0,0,0,0,3.91-5.72-3.7,2a.13.13,0,0,1-.12,0,.18.18,0,0,1-.11-.08.17.17,0,0,1,0-.12.21.21,0,0,1,.07-.11l4.28-2.46a.23.23,0,0,1,.11,0,.22.22,0,0,1,.11,0,.21.21,0,0,1,0,.1.11.11,0,0,1,0,.11L18,12.53a.21.21,0,0,1,0,.06Z"/></svg>