<svg id="Слой_1" data-name="Слой 1" xmlns="http://www.w3.org/2000/svg" xmlns:xlink="http://www.w3.org/1999/xlink" viewBox="0 0 24 24"><defs><style>.cls-1{fill:none;}.cls-2{clip-path:url(#clip-path);}</style><clipPath id="clip-path"><rect class="cls-1" width="24" height="24"/></clipPath></defs><title>PPPМонтажная область 1</title><g class="cls-2"><path d="M20.77,1.25a1.66,1.66,0,0,0-.49-.34,1.64,1.64,0,0,0-1.18,0,1.66,1.66,0,0,0-.49.34L15.82,4.12,12.24.45A2.31,2.31,0,0,0,12,.25,1.39,1.39,0,0,0,11.07,0a1.37,1.37,0,0,0-.86.41l0,0h0L1,9.84H1l0,0a1.41,1.41,0,0,0,0,2l2.76,2.82a1.33,1.33,0,0,0,1.9,0,1.46,1.46,0,0,0,.4-1,1.41,1.41,0,0,0-.39-1L3.93,10.92l7.21-7.39,3.74,3.83a1.43,1.43,0,0,0,1.73.26,1.73,1.73,0,0,0,.41-.3l3.75-3.85a1.59,1.59,0,0,0,0-2.22ZM23,12.17l0,0h0L20.23,9.34a1.42,1.42,0,0,0-.43-.29,1.32,1.32,0,0,0-1,0,1.26,1.26,0,0,0-.43.29,1.37,1.37,0,0,0-.4,1,1.43,1.43,0,0,0,.39,1l1.74,1.78-7.19,7.37L9.12,16.61a1.38,1.38,0,0,0-1.34-.4,1.54,1.54,0,0,0-.79.43L3.24,20.49A1.6,1.6,0,0,0,2.84,22a1.55,1.55,0,0,0,1.08,1.11,1.54,1.54,0,0,0,1.48-.41l2.78-2.86,3.5,3.58a1.3,1.3,0,0,0,.44.4,1.63,1.63,0,0,0,.57.17,1.44,1.44,0,0,0,.59-.09,1.41,1.41,0,0,0,.5-.33L23,14.16v0h0a1.39,1.39,0,0,0,.4-1A1.41,1.41,0,0,0,23,12.17Z"/></g></svg>