<svg id="Слой_1" data-name="Слой 1" xmlns="http://www.w3.org/2000/svg" viewBox="0 0 24 24"><title>PPTМонтажная область 1</title><path d="M10,24V18.81h0V16.12h0v-7h0V6.4h4.46a3.79,3.79,0,0,1,3.82,3.71v5a3.73,3.73,0,0,1-1.14,2.65,3.79,3.79,0,0,1-2.68,1.08H13V24Zm4.46-7.88a.92.92,0,0,0,.4-.07,1,1,0,0,0,.35-.22,1.13,1.13,0,0,0,.23-.34,1.06,1.06,0,0,0,.08-.4v-5a1.14,1.14,0,0,0-.08-.4,1.3,1.3,0,0,0-.23-.33,1,1,0,0,0-.35-.23,1.05,1.05,0,0,0-.4-.07H13v7ZM5.7,18.82V9.3a3,3,0,0,1,.88-2.07,3,3,0,0,1,2.09-.84V18.82ZM9.09,2.37a2.45,2.45,0,0,1,4.89,0,2.44,2.44,0,0,1-2.44,2.37,2.47,2.47,0,0,1-1.71-.69,2.46,2.46,0,0,1-.74-1.68Z"/></svg>