<svg id="Слой_1" data-name="Слой 1" xmlns="http://www.w3.org/2000/svg" xmlns:xlink="http://www.w3.org/1999/xlink" viewBox="0 0 24 24"><defs><style>.cls-1{fill:none;}.cls-2{clip-path:url(#clip-path);}</style><clipPath id="clip-path"><rect class="cls-1" width="24" height="24"/></clipPath></defs><title>PREМонтажная область 1</title><g class="cls-2"><path d="M8.62,14.77h2.24a4.39,4.39,0,0,0,1.86-.41,4.6,4.6,0,0,0,1.44-1.11,5,5,0,0,0,.91-1.61,4.88,4.88,0,0,0,.33-1.85A4.29,4.29,0,0,0,15,8a5.67,5.67,0,0,0-1-1.58,4.9,4.9,0,0,0-1.47-1.13,4,4,0,0,0-1.85-.45H4.86V19.14H8.63Zm0-6.48h1.91a1.07,1.07,0,0,1,.69.33,1.69,1.69,0,0,1,.36,1.22A1.66,1.66,0,0,1,11.25,11a.88.88,0,0,1-.64.33h-2ZM0,1.38V22.62A1.38,1.38,0,0,0,1.38,24H22.62A1.38,1.38,0,0,0,24,22.62V1.38a1.4,1.4,0,0,0-.11-.53A1.34,1.34,0,0,0,23.6.4a1.37,1.37,0,0,0-.45-.3,1.39,1.39,0,0,0-.53-.1H1.38A1.39,1.39,0,0,0,.85.1,1.37,1.37,0,0,0,.4.4,1.54,1.54,0,0,0,.1.85a1.61,1.61,0,0,0-.1.53ZM19.79,21.17H4.18a1.35,1.35,0,0,1-.53-.1,1.38,1.38,0,0,1-.75-.75,1.3,1.3,0,0,1-.1-.52V4.18a1.39,1.39,0,0,1,.1-.53,1.38,1.38,0,0,1,.75-.75,1.35,1.35,0,0,1,.53-.1H19.79a1.38,1.38,0,0,1,1.38,1.38V19.79A1.37,1.37,0,0,1,19.79,21.17Zm-9.48-4.71v2.71h8.83V16.46Z"/></g></svg>