<svg id="Слой_1" data-name="Слой 1" xmlns="http://www.w3.org/2000/svg" viewBox="0 0 24 24"><title>PRLМонтажная область 1</title><path d="M11.3,5.58A8.36,8.36,0,0,0,4.65,9.53h0a.88.88,0,0,0-.42.11.82.82,0,0,0-.4.73.83.83,0,0,0,.13.41,7.06,7.06,0,0,0-.69,2.74L2.15,12.44a.66.66,0,0,1-.21-.35.71.71,0,0,1,0-.41A11.56,11.56,0,0,1,6.22,5.82a.83.83,0,0,0,.38.07A.79.79,0,0,0,7,5.79a.77.77,0,0,0,.28-.26.82.82,0,0,0,.13-.37,11.14,11.14,0,0,1,9.38,0,.8.8,0,0,0,.11.4.92.92,0,0,0,.29.3.8.8,0,0,0,.4.11.78.78,0,0,0,.4-.09A9.82,9.82,0,0,1,19.35,7L18.28,8.1a8.72,8.72,0,0,0-5.51-2.57.8.8,0,0,0-.31-.32A.78.78,0,0,0,12,5.1a.76.76,0,0,0-.43.14.74.74,0,0,0-.29.34Zm7.42,12.29a.34.34,0,0,0-.09.19.28.28,0,0,0,0,.2.4.4,0,0,0,.13.16.46.46,0,0,0,.2,0h3V19a2.67,2.67,0,0,1-.78,1.88,2.73,2.73,0,0,1-1.88.78H4.78a2.55,2.55,0,0,1-1-.21,2.64,2.64,0,0,1-.86-.57A2.55,2.55,0,0,1,2.32,20a2.73,2.73,0,0,1-.2-1v-.5H5a.43.43,0,0,0,.22-.06.39.39,0,0,0,.14-.17.36.36,0,0,0,0-.23.35.35,0,0,0-.1-.19L.56,13.12a1.81,1.81,0,0,1-.5-.88,1.86,1.86,0,0,1,0-1A12.63,12.63,0,0,1,10.65,2.36S16.07,1.67,19.87,5A12.33,12.33,0,0,1,24,11.63a1.76,1.76,0,0,1,0,.79,1.82,1.82,0,0,1-.39.69ZM3,19.11a1.8,1.8,0,0,0,.14.68A1.81,1.81,0,0,0,4.75,20.9H19.29a1.81,1.81,0,0,0,1.79-1.79Zm19.73-6.26a1.09,1.09,0,0,0,.32-.56,1.08,1.08,0,0,0,0-.64,12.22,12.22,0,0,0-4.61-6.56.69.69,0,0,0-.12-.39A.81.81,0,0,0,18,4.41a.83.83,0,0,0-.4-.11.8.8,0,0,0-.4.11,11.37,11.37,0,0,0-10.13,0,.77.77,0,0,0-.41-.16.85.85,0,0,0-.44.09.79.79,0,0,0-.33.3.76.76,0,0,0-.12.42.68.68,0,0,0,0,.15h0A12,12,0,0,0,1.1,11.63a.92.92,0,0,0,0,.57,1,1,0,0,0,.28.5l5.48,5.54a.71.71,0,0,0,.14.1.47.47,0,0,0,.17,0,.26.26,0,0,0,.17,0,.39.39,0,0,0,.23-.23.51.51,0,0,0,0-.17.35.35,0,0,0,0-.17.33.33,0,0,0-.1-.14l-.33-.49a5.48,5.48,0,0,1-.72-2.53A5.42,5.42,0,0,1,6.9,12l1.7,1a3.74,3.74,0,0,0,4.47,5,3.76,3.76,0,0,0,2.68-2.91,3.87,3.87,0,0,0-.19-2.05,3.79,3.79,0,0,0-1.25-1.63l1-1.66a5.76,5.76,0,0,1,1.38,7.9.4.4,0,0,0-.06.3.43.43,0,0,0,.16.26.48.48,0,0,0,.29.09.42.42,0,0,0,.27-.14ZM19.86,7.59,18.54,9,18.41,9a.3.3,0,0,1-.16,0,.4.4,0,0,1-.15,0A.38.38,0,0,1,18,8.94a7.93,7.93,0,0,0-5.29-2.51.8.8,0,0,1-.29.22.72.72,0,0,1-.35.08.85.85,0,0,1-.35-.08.8.8,0,0,1-.29-.23,7.94,7.94,0,0,0-3.12.89L9,8.62s0,0,0,0l0,0h.06a6.61,6.61,0,0,1,3.3-.71A6.53,6.53,0,0,1,15.6,9,6.38,6.38,0,0,1,18.34,16l1.71-1.7a6.13,6.13,0,0,0-.63-3.15.82.82,0,0,1-.48-.19.79.79,0,0,1-.27-.45.84.84,0,0,1,0-.52.88.88,0,0,1,.36-.38.85.85,0,0,1,.52-.08.79.79,0,0,1,.46.24.85.85,0,0,1,.22.48.76.76,0,0,1-.12.51,8.61,8.61,0,0,1,.73,2.68L22,12.29a.57.57,0,0,0,.13-.27.61.61,0,0,0,0-.3,12.39,12.39,0,0,0-2.28-4.13Zm-10.74,2a.47.47,0,0,1-.33,0,.47.47,0,0,1-.26-.2L7.61,7.7A7.41,7.41,0,0,0,5.37,10a.74.74,0,0,1,.06.36.88.88,0,0,1-.1.36.92.92,0,0,1-.25.27.71.71,0,0,1-.34.13A8,8,0,0,0,4,14.25l1.7,1.66a6.51,6.51,0,0,1,1.67-6l0,0h.08l0,0,.47.47a.05.05,0,0,1,0,0,.06.06,0,0,1,0,0,.07.07,0,0,1,0,0l0,0a3.86,3.86,0,0,0-.72.84l1.69,1a3.74,3.74,0,0,1,4.73-1.31l1-1.69a5.83,5.83,0,0,0-5.54.16Zm-4.48.32a.5.5,0,0,0-.26.08.51.51,0,0,0-.2.49.48.48,0,0,0,.37.37.54.54,0,0,0,.28,0A.52.52,0,0,0,5,10.63a.5.5,0,0,0,.08-.26.41.41,0,0,0,0-.19.46.46,0,0,0-.25-.25.41.41,0,0,0-.19,0Zm2-5.27a.5.5,0,0,0-.26.08.46.46,0,0,0-.18.21.53.53,0,0,0,0,.28.47.47,0,0,0,.13.24.51.51,0,0,0,.24.13.42.42,0,0,0,.27,0A.47.47,0,0,0,7,5.36a.5.5,0,0,0,.08-.27.47.47,0,0,0-.14-.33A.48.48,0,0,0,6.59,4.62Zm5.48.84a.47.47,0,0,0-.26.08.52.52,0,0,0-.18.21.67.67,0,0,0,0,.28.51.51,0,0,0,.13.24A.5.5,0,0,0,12,6.4a.42.42,0,0,0,.27,0,.39.39,0,0,0,.21-.17.42.42,0,0,0,.08-.26.48.48,0,0,0-.14-.34.47.47,0,0,0-.33-.13Zm5.53-.84a.47.47,0,0,0-.26.08.46.46,0,0,0-.18.21.53.53,0,0,0,0,.28.46.46,0,0,0,.12.24.6.6,0,0,0,.25.13.42.42,0,0,0,.27,0A.52.52,0,0,0,18,5.36a.5.5,0,0,0,.08-.27.52.52,0,0,0-.14-.33A.48.48,0,0,0,17.6,4.62Zm1.9,5.26a.5.5,0,0,0-.27.08.46.46,0,0,0-.17.22.42.42,0,0,0,0,.27.44.44,0,0,0,.13.24.41.41,0,0,0,.24.13.53.53,0,0,0,.28,0,.52.52,0,0,0,.21-.18.5.5,0,0,0,.08-.26.45.45,0,0,0-.14-.33.47.47,0,0,0-.33-.14Z"/></svg>