<svg id="Слой_1" data-name="Слой 1" xmlns="http://www.w3.org/2000/svg" viewBox="0 0 24 24"><title>PROМонтажная область 1</title><path d="M21.88,6,19.27,4.19V.71A.71.71,0,0,0,18.56,0h-1.7a.71.71,0,0,0-.71.71V2.08L14.42.92a4.39,4.39,0,0,0-4.93,0L2,6A4.39,4.39,0,0,0,.1,9.6v10A4.4,4.4,0,0,0,4.5,24H19.41a4.4,4.4,0,0,0,4.41-4.4V9.6A4.39,4.39,0,0,0,21.88,6ZM3.22,17.28V9.6a1.3,1.3,0,0,1,.57-1.06l7.45-5a1.25,1.25,0,0,1,1.43,0l3.48,2.34V7.71a3.56,3.56,0,0,1-2.34,3.34L7.14,13.48A6.68,6.68,0,0,0,3.22,17.28ZM20.69,19.6a1.28,1.28,0,0,1-1.28,1.28H5.64l.28-1.7a3.54,3.54,0,0,1,2.29-2.76L14.88,14a6.67,6.67,0,0,0,4.39-6l.86.58a1.29,1.29,0,0,1,.56,1.06Z"/></svg>