<svg id="Слой_1" data-name="Слой 1" xmlns="http://www.w3.org/2000/svg" viewBox="0 0 24 24"><title>PSTМонтажная область 1</title><path d="M14.45,2a2,2,0,0,0,0-.34,1.68,1.68,0,1,0-3.36,0v0L4.62,5.57A1.68,1.68,0,1,0,3,8.48V16A1.68,1.68,0,1,0,4.4,16V8.48A1.68,1.68,0,0,0,5.36,7a.86.86,0,0,0,0-.16L11.76,3a1.7,1.7,0,0,0,1,.36,1.73,1.73,0,0,0,.78-.19l5.71,3.59a1.34,1.34,0,0,0,0,.2,1.68,1.68,0,0,0,1,1.52V16a1.68,1.68,0,0,0-1,1.49L13.5,21.12a1.69,1.69,0,0,0-2.11-.2l-1.8-1.21,0-.1,0-.13a1.27,1.27,0,0,0,0-.28A1.45,1.45,0,0,0,9,18v-7.1A1.45,1.45,0,0,0,9.68,9.6v0l2-1.22a1.44,1.44,0,0,0,1.69.05L15,9.49V9.6a1.45,1.45,0,0,0,.72,1.25v2.3a1.45,1.45,0,0,0-.7,1l-1.63,1a1.42,1.42,0,0,0-.79-.24,1.44,1.44,0,0,0-1,.37l-1.44-.85v1.92l1.07.56A1.44,1.44,0,0,0,14,16.41l1.5-.89a1.44,1.44,0,0,0,2.34-1.12,1.45,1.45,0,0,0-.72-1.25v-2.3a1.45,1.45,0,0,0,.72-1.25,1.44,1.44,0,0,0-2.06-1.3L14,7.07A1.44,1.44,0,0,0,11.14,7L8.93,8.34a1.37,1.37,0,0,0-.69-.18A1.43,1.43,0,0,0,6.8,9.6a1.45,1.45,0,0,0,.72,1.25V18A1.45,1.45,0,0,0,6.8,19.2a1.43,1.43,0,0,0,1.44,1.44h.13l2.28,1.52a.41.41,0,0,0,0,.11v.06a1.68,1.68,0,0,0,3.35.19l5.89-3.7A1.7,1.7,0,0,0,21,19.2a1.68,1.68,0,0,0,.72-3.2V8.48A1.68,1.68,0,0,0,21,5.28a1.72,1.72,0,0,0-.9.26Z"/></svg>