<svg id="Слой_1" data-name="Слой 1" xmlns="http://www.w3.org/2000/svg" viewBox="0 0 24 24"><title>QASHМонтажная область 1</title><path d="M12,0a12,12,0,1,0,8.49,3.51A12,12,0,0,0,12,0ZM23.39,11.51h-1v-.41h1Zm-.25-2.1-1,.13-.05-.4,1-.13Zm-.83-2.55.17.37-.88.4-.17-.37ZM21.1,5l.27.3L20.64,6l-.27-.3ZM19.68,3.49l.3.26-.63.74L19,4.23ZM18,2.12l.34.22-.53.81-.34-.22Zm-1.93-1,.39.1-.24.94-.39-.11ZM13.92.64l.41,0-.08,1-.41,0ZM11.73.38h.41v1h-.41ZM9.93.64l.08,1-.41,0-.07-1Zm-2.12.52.24.93-.4.11-.24-.94Zm-1.93,1,.53.81-.35.22-.52-.81ZM4.18,3.49l.63.74-.31.26-.63-.74ZM2.76,5l.73.64L3.22,6l-.73-.64ZM1.55,6.86l.88.4-.17.37-.88-.41ZM.77,9l1,.13-.05.4-1-.13Zm-.3,2.09h1v.4h-1Zm.09,2.28,1-.1,0,.4-1,.1ZM1,15.45l1-.22.09.4-.95.22Zm1.06,2.47-.2-.35.84-.48.2.35Zm1.37,1.73-.29-.28.67-.7L4.1,19ZM5,21l-.33-.24L5.22,20l.34.24Zm1.82,1.22-.36-.19.45-.86.36.19Zm2,.77L8.42,23l.16-1,.4.07Zm1.75.33v-1H11v1ZM1.9,12a10.11,10.11,0,1,1,3,7.14A10.11,10.11,0,0,1,1.9,12ZM12.79,23.43h0l-.09-1,.41,0h0l.09,1ZM15,23l-.17-1,.4-.07.17,1ZM17,22.26l-.33-.91.38-.14.33.92Zm1.84-1.12-.6-.76.32-.26.6.77Zm1.56-1.52-.7-.68.28-.29.7.67ZM21.7,18l-.79-.57.24-.33.79.57Zm1-2-.92-.32.13-.38.92.32Zm.57-2.21-1,0,0-.41,1,0Z"/><path d="M16.27,17.48l-.3-.3-.59-.6a3.1,3.1,0,0,0,.88-1.27,3.23,3.23,0,0,0,.17-1.54V10.91c0-2.78-.67-4-2.55-4.5a14.08,14.08,0,0,0-1.45-.07h-.1c-.23,0-1.39,0-1.6.07-1.87.45-2.55,1.71-2.55,4.5V12c0,.11,0,1.62,0,1.74-.12,2.79,1.46,3.64,3.18,3.58h1.9a3,3,0,0,0,1.43-.29l.69.7.3.3a.44.44,0,0,0,.6,0,.48.48,0,0,0,.11-.3.46.46,0,0,0-.13-.3Zm-2.9-1H11.23a2.13,2.13,0,0,1-.79-.15,2,2,0,0,1-.67-.45,2.39,2.39,0,0,1-.61-.95,2.32,2.32,0,0,1-.09-1.11V11.27a2.16,2.16,0,0,1,0-.36,6.21,6.21,0,0,1,.44-2.79,1.88,1.88,0,0,1,.62-.57,1.86,1.86,0,0,1,.79-.27c.19,0,1.13,0,1.41,0h.1c.28,0,1.08,0,1.26,0a1.86,1.86,0,0,1,.8.27,1.88,1.88,0,0,1,.62.57,6.21,6.21,0,0,1,.44,2.79v1.46c0,1.36,0,1.36,0,1.44a2.32,2.32,0,0,1-.1,1.11,2.37,2.37,0,0,1-.6.95l-.08.08-.54-.55-.3-.31a.43.43,0,0,0-.3-.13.41.41,0,0,0-.42.42.43.43,0,0,0,.13.3l.3.3.38.4a2.83,2.83,0,0,1-.65.09Z"/></svg>