<svg id="Слой_1" data-name="Слой 1" xmlns="http://www.w3.org/2000/svg" viewBox="0 0 24 24"><title>QAUМонтажная область 1</title><path d="M23.84,4.45c-.49-1.07-2-1.54-4.2-1.44a2.48,2.48,0,0,1,.94.41,2.35,2.35,0,0,1,.67.77c1,2.17-2.66,6-8.14,8.52S2.4,15.5,1.41,13.35a2.16,2.16,0,0,1,0-1.68C.21,13.1-.28,14.4.16,15.37c1.12,2.35,7.26,1.8,13.79-1.22S24.92,6.79,23.84,4.45Z"/><path d="M4.93,13.67a12.84,12.84,0,0,0,2.39-.25,1.75,1.75,0,0,1-.24-.54A6,6,0,0,1,7,11.76V9.37a5.12,5.12,0,0,1,0-.56c0-.19,0-.37.08-.56a1.56,1.56,0,0,1,.36-.7,1.67,1.67,0,0,1,.67-.41,4.71,4.71,0,0,1,.52-.09,3.92,3.92,0,0,1,.59,0h5.34a4.64,4.64,0,0,1,.65,0,3.85,3.85,0,0,1,.47.08,1.57,1.57,0,0,1,.66.35,1.58,1.58,0,0,1,.35.71,3.4,3.4,0,0,1,.08.46,5.25,5.25,0,0,1,0,.56,15.3,15.3,0,0,0,2-1.7q.36-.39.69-.81a3.35,3.35,0,0,0-.84-1.32A3.71,3.71,0,0,0,17,4.53a10,10,0,0,0-2.37-.26H9.08a10.07,10.07,0,0,0-2.32.27,3.62,3.62,0,0,0-1.6.86,3.3,3.3,0,0,0-.92,1.53A7.57,7.57,0,0,0,4,9.15v2.78a8.64,8.64,0,0,0,.16,1.69,3.27,3.27,0,0,0,.44,0Z"/><path d="M13.06,16.8H10.19a33.75,33.75,0,0,0,4.26-1.64,35.25,35.25,0,0,0,5.41-3.08A5.67,5.67,0,0,1,19,15.31a3.78,3.78,0,0,1-1.18,1,3.85,3.85,0,0,1-1.45.42l1.94,2.69a.33.33,0,0,1,.07.17.54.54,0,0,1,0,.18c0,.09-.08.3-.41.3h-2.3a.76.76,0,0,1-.39-.08.91.91,0,0,1-.21-.18Z"/></svg>