<svg id="Слой_1" data-name="Слой 1" xmlns="http://www.w3.org/2000/svg" viewBox="0 0 24 24"><title>QKCМонтажная область 1</title><path d="M22.86,3a1.15,1.15,0,0,0-.95.51l-5.79,7.26L12.91,6.64a1.08,1.08,0,0,0-1.82,0L7.88,10.77,2.09,3.51A1.14,1.14,0,0,0,0,4.14V20.23a1.14,1.14,0,0,0,2.15.54L7.9,13.35l3.48,4.35a.82.82,0,0,0,.53.3,1,1,0,0,0,.25,0,.87.87,0,0,0,.47-.29l3.47-4.35,5.75,7.42A1.14,1.14,0,0,0,24,20.23V4.14A1.14,1.14,0,0,0,22.86,3ZM2.28,18V6.3l4.6,5.77ZM12.4,15.43a.52.52,0,0,1-.8,0L8.91,12.05l2.68-3.46a.52.52,0,0,1,.82,0l2.68,3.46ZM21.72,18l-4.6-5.92,4.6-5.77Z"/></svg>