<svg id="Слой_1" data-name="Слой 1" xmlns="http://www.w3.org/2000/svg" viewBox="0 0 24 24"><title>QUNМонтажная область 1</title><path d="M14.84.75l6.23,3.89c1.37.79,1.63,2.55.29,3.38l-5.07,3.07a2.79,2.79,0,0,0-.93,1L12.6,16.81a.75.75,0,0,1-.25.25.65.65,0,0,1-.66,0,.64.64,0,0,1-.24-.25l-2.36-4-.16-.31a3.91,3.91,0,0,0-1-1.35L2.49,7.84a1.66,1.66,0,0,1,0-2.93L9,.84A5.85,5.85,0,0,1,11.92,0,5.75,5.75,0,0,1,14.84.75Zm.18,9,4.25-2.64a1.35,1.35,0,0,0-.05-2.41l-5.1-3.15a4.19,4.19,0,0,0-4.27.07L4.7,4.81a1.37,1.37,0,0,0,0,2.33L9.05,9.87a2.34,2.34,0,0,1,.84.87l1.71,3.18a.52.52,0,0,0,.18.18.51.51,0,0,0,.48,0,.45.45,0,0,0,.18-.18l1.87-3.42A2,2,0,0,1,15,9.77Z"/><path d="M1.5,17.82V9.63a.68.68,0,0,1,1.36,0v7.28a.54.54,0,0,0,.05.21.46.46,0,0,0,.16.15l8.48,5a.89.89,0,0,0,.45.12.87.87,0,0,0,.45-.12l8.34-4.91a.43.43,0,0,0,.15-.15.46.46,0,0,0,0-.2V9.69a.71.71,0,0,1,.22-.52A.73.73,0,0,1,21.73,9a.74.74,0,0,1,.52.22.7.7,0,0,1,.21.52v8.12a.52.52,0,0,1-.2.4l-9.88,5.7a1,1,0,0,1-.9,0l-9.77-5.7A.31.31,0,0,1,1.56,18,.36.36,0,0,1,1.5,17.82Z"/></svg>