<svg id="Слой_1" data-name="Слой 1" xmlns="http://www.w3.org/2000/svg" viewBox="0 0 24 24"><title>REPМонтажная область 1</title><path d="M16.39,12.34a4.55,4.55,0,0,0-1.32-1.94l-.23-.19v0A1.88,1.88,0,0,0,14.6,10h0l-.24-.15,0,0-.24-.12s0,0,0,0l-.25-.11h0a1.57,1.57,0,0,1-.23-.09,3.68,3.68,0,0,0-.63-.17,3.27,3.27,0,0,1-.65.83,3.82,3.82,0,0,1,1.11.26,4,4,0,0,1,.58.31h0a.71.71,0,0,1,.14.1l.06.05.13.1s.05,0,.08.07a.93.93,0,0,1,.1.1l.08.07.1.11.08.07a.43.43,0,0,0,.09.1l.07.09.08.11a.21.21,0,0,1,.06.1l.08.11.06.1a1.05,1.05,0,0,0,.07.11.6.6,0,0,0,.06.11.37.37,0,0,1,.05.11l.06.14a3.24,3.24,0,0,1,.22.81l.11.44a4,4,0,0,0,1.57,2.35c1.21.63,2.82,1.42,3.45,1.72l-8.33,5V19.39c0-.54,1.07-1.17,1.57-1.39h0a2.28,2.28,0,0,0,.3-.17l0,0a4.51,4.51,0,0,0,.61-.44s0,0,.05-.05,0,0,.06,0,.11-.11.18-.17l0,0a1.18,1.18,0,0,0,.18-.21s0,0,.05-.06a1.24,1.24,0,0,0,.14-.18l0-.05.15-.22s0,0,0,0,.13-.22.19-.31a4.8,4.8,0,0,1-.59-.94,5.38,5.38,0,0,1-.24.55l-.13.22s0,0,0,0l-.13.18,0,.05a.7.7,0,0,1-.14.16s0,0,0,0a3.67,3.67,0,0,1-1.09.83l-.08,0c-.22.09-2.07.93-2.07,2.21v3.41l-8.35-5a18.22,18.22,0,0,1,3.41-1.66c.5-.17,1.58.51,2.18,1l0,0a1.78,1.78,0,0,0,.26.22l0,0a3.17,3.17,0,0,0,.62.41l.15.08h0a2.39,2.39,0,0,0,.43.2l.06,0h0a5.17,5.17,0,0,0,.64.19,3.55,3.55,0,0,1,.66-.83,3.34,3.34,0,0,1-1-.23l0,0-.11-.05s0,0,0,0l-.1-.05a3.92,3.92,0,0,1-.7-.44l-.32-.3a6.11,6.11,0,0,0-1-.71,2.6,2.6,0,0,0-1-.43,2.76,2.76,0,0,0-1.07,0,17.36,17.36,0,0,0-3.11,1.47l8.32-15V8.31c0,.23-.34.84-1.49,1.35L10,9.7l-.33.18h0a4.61,4.61,0,0,0-.62.44,2.65,2.65,0,0,0-.34.33h0a2.6,2.6,0,0,0-.3.36h0l-.14.19s0,0,0,0a1,1,0,0,0-.11.17s0,0,0,0l-.11.19s0,0,0,0-.06.12-.09.17,0,0,0,0l-.08.18,0,.06-.08.19s0,0,0,.06a.34.34,0,0,1-.05.14l0,.08c0,.06,0,.12,0,.17s0,.07,0,.09,0,.09,0,.13a.45.45,0,0,1,0,.11s0,.1,0,.15a.38.38,0,0,0,0,.1s0,.09,0,.14a.66.66,0,0,1,0,.14v.19a3.88,3.88,0,0,0,0,.68,4.83,4.83,0,0,1,1,.39,3.88,3.88,0,0,1-.16-1v-.07a1.07,1.07,0,0,1,0-.25V13.5a1.64,1.64,0,0,1,0-.22v0a2,2,0,0,0,0-.24s0,0,0-.07a1.8,1.8,0,0,1,.05-.19s0,0,0,0l.08-.22s0,0,0-.05a1.59,1.59,0,0,1,.08-.18s0,0,0,0a1.28,1.28,0,0,1,.11-.2s0,0,0,0l.1-.18,0,0L9,11.58H9a2.09,2.09,0,0,1,.14-.17s0,0,0,0a4.4,4.4,0,0,1,.77-.66l.39-.19c.22-.09,2.07-1,2.07-2.23V1.76l8.41,15.08c-.75-.37-2.08-1-3.1-1.56a3.22,3.22,0,0,1-1.1-1.76l-.11-.46a2.55,2.55,0,0,0-.14-.72Zm5.69,4.75L12.81.48a.88.88,0,0,0-.34-.35A.88.88,0,0,0,12,0a.85.85,0,0,0-.47.13.88.88,0,0,0-.34.35L1.92,17.09a.93.93,0,0,0-.09.69.89.89,0,0,0,.42.55l9.28,5.54a1,1,0,0,0,1,0l9.27-5.53a.93.93,0,0,0,.32-1.25Z"/></svg>