<svg id="Слой_1" data-name="Слой 1" xmlns="http://www.w3.org/2000/svg" viewBox="0 0 25 24"><title>RHOCМонтажная область 1</title><path d="M10.78.06a12,12,0,0,1,11,5A12,12,0,0,1,7,22.9a11.89,11.89,0,0,1-4.67-3.79,12,12,0,0,1,8.45-19ZM8.86,6.94a2.89,2.89,0,0,0-1-.87A2.92,2.92,0,0,0,6.64,5.7,3,3,0,0,0,4.2,6.77a2.93,2.93,0,0,0-.68,1.92c0,1.32,0,2.64,0,4a.17.17,0,0,0,0,.12.18.18,0,0,0,.06.09.24.24,0,0,0,.11.06.2.2,0,0,0,.11,0c3.75,0,7.49,0,11.23,0,0,.82,0,1.64.06,2.46a8.29,8.29,0,0,1-3.63,1.52c-.16,0-.45,0-.49.23,0,.44,0,.88,0,1.32a.25.25,0,0,0,0,.12.24.24,0,0,0,0,.1.22.22,0,0,0,.09.07l.11,0a8.3,8.3,0,0,0,4.38-1.66,3,3,0,0,0,4.8,0A3.19,3.19,0,0,0,21,15.18c0-1.26,0-2.52,0-3.77a.28.28,0,0,0,0-.13.25.25,0,0,0-.08-.1.24.24,0,0,0-.11-.06H9.43c0-.74,0-1.48,0-2.22,0-.1,0-.24.08-.3A8.65,8.65,0,0,1,13.3,7.1c.15,0,.22-.18.21-.3V5.53l0-.11-.08-.09a.21.21,0,0,0-.1,0h-.12A8.3,8.3,0,0,0,8.87,6.93Z"/><path d="M5.27,9A1.41,1.41,0,0,1,5.69,8a1.35,1.35,0,0,1,.95-.37A1.42,1.42,0,0,1,8,9c0,.75,0,1.51,0,2.26-.92,0-1.85,0-2.78,0Z"/><path d="M16.78,13h2.77V15.2a1.43,1.43,0,0,1-.26.83,1.34,1.34,0,0,1-.7.52,1.36,1.36,0,0,1-.87,0A1.33,1.33,0,0,1,17,16a1.36,1.36,0,0,1-.26-.83V13"/></svg>