<svg id="Слой_1" data-name="Слой 1" xmlns="http://www.w3.org/2000/svg" viewBox="0 0 24 24"><title>RLCМонтажная область 1</title><path d="M19.11,8.6a3.43,3.43,0,0,0-3,3.62,1.28,1.28,0,0,1-.61,1.18,1.21,1.21,0,0,1-.67.19,1.35,1.35,0,0,1-.68-.19,3.65,3.65,0,0,0-1.78-.5H12a3.38,3.38,0,0,0-2.95,3.62,1.28,1.28,0,0,1-.61,1.18,1.17,1.17,0,0,1-.68.19,1,1,0,0,1-.61-.19,3.65,3.65,0,0,0-1.78-.5H5a3.42,3.42,0,0,0-2.94,3.37A3.38,3.38,0,0,0,5.37,24h.31a3.36,3.36,0,0,0,3-3.05v-.57A1.3,1.3,0,0,1,9.3,19.2,1.21,1.21,0,0,1,10,19a1.46,1.46,0,0,1,.68.19,3.64,3.64,0,0,0,1.77.5h.37a3.35,3.35,0,0,0,2-1,3.41,3.41,0,0,0,.93-2.05v-.56a1.28,1.28,0,0,1,.61-1.18,1.24,1.24,0,0,1,.67-.19,1,1,0,0,1,.62.19,3.65,3.65,0,0,0,1.78.5h.36A3.52,3.52,0,0,0,22.73,12a3.39,3.39,0,0,0-3.31-3.43A.47.47,0,0,0,19.11,8.6Zm-7-4.3a3.43,3.43,0,0,0-3,3.62A1.28,1.28,0,0,1,8.44,9.1a1.24,1.24,0,0,1-.67.19,1.06,1.06,0,0,1-.62-.19,3.65,3.65,0,0,0-1.78-.5H5a3.34,3.34,0,0,0-2.89,3.31,3.38,3.38,0,0,0,3.32,3.42h.3a3.36,3.36,0,0,0,3-3.05v-.56a1.29,1.29,0,0,1,.61-1.19,1.23,1.23,0,0,1,.67-.18,1,1,0,0,1,.62.18,3.55,3.55,0,0,0,1.78.5h.36a3.41,3.41,0,0,0-.36-6.79A.67.67,0,0,0,12.06,4.3ZM5.31,0A3.34,3.34,0,0,0,2,3.37a3.31,3.31,0,1,0,6.62,0A3.34,3.34,0,0,0,5.31,0Z"/></svg>