<svg id="Слой_1" data-name="Слой 1" xmlns="http://www.w3.org/2000/svg" viewBox="0 0 24 24"><title>RNTМонтажная область 1</title><path d="M4.23,6.31C4.16,6.68.17,22.12.05,22.53s0,1,.74,1h4.4a1.28,1.28,0,0,0,1.45-1.12l0-.06C6.8,21.87,11.79.44,11.79.29s-.07-.22-.22-.22h-.33C10.56.05,8.94,0,7.32,0a7.62,7.62,0,0,0-4.7,2.42c-.11.27-.5,1.5-.72,2.22l-.16.5c-.07.22-.07.51.37.51H3.87C4.16,5.65,4.31,5.94,4.23,6.31Z"/><path d="M15,0h2.2c2.13,0,8.54.55,6.32,9.17-1.58,6.1-3.67,6.7-4.89,7l-.25.07a18.79,18.79,0,0,1-3,.44l-.71.08a8.74,8.74,0,0,0,2.93.44l2.05,2.89,1.84,2.61c.3.44.3.81-.81.81H15.54c-.59,0-1.1-.07-1.76-1.18-.31-.5-.89-1.38-1.46-2.24-.67-1-1.32-2-1.48-2.31a2.88,2.88,0,0,1-.37-2.12h0c.22-.89.66-2.65.81-3.09a1.23,1.23,0,0,1,1.25-.88H14.8a3.36,3.36,0,0,0,2.87-2.49c.58-2.06.36-3.67-1.77-3.67H14.18c-.48,0-1,0-.84-.81s.8-3.89.95-4.26A.77.77,0,0,1,15,0Z"/></svg>