<svg id="Слой_1" data-name="Слой 1" xmlns="http://www.w3.org/2000/svg" viewBox="0 0 24 24"><title>RUFFМонтажная область 1</title><path d="M4.37,6a1,1,0,0,1-1,0L2,5.11,10.88,0,11,1.56a1,1,0,0,1-.49.9Z"/><path d="M2.92,15.52a1,1,0,0,1-.54.88L1,17.11V6.89l1.38.71a1,1,0,0,1,.54.88Z"/><path d="M20.89,8.48a1,1,0,0,1,.54-.88l1.38-.71V17.11l-1.38-.71a1,1,0,0,1-.54-.88Z"/><path d="M20.47,18.05a1,1,0,0,0-1,0l-6.09,3.52a1,1,0,0,0-.49.9L12.93,24l8.85-5.11Z"/><path d="M12.86,1.56a1,1,0,0,0,.49.9L19.44,6a1,1,0,0,0,1,0l1.31-.84L12.93,0Z"/><path d="M10.46,21.54a1,1,0,0,1,.49.9L10.88,24,2,18.89l1.31-.84a1,1,0,0,1,1,0Z"/><path d="M13,6.59a1.59,1.59,0,0,0-.61,1l-.13,2.16a2.23,2.23,0,0,1,1.43.86l1.83-1.21a1.61,1.61,0,0,0,.57-1,1.58,1.58,0,0,1,.73-1,1.55,1.55,0,1,1,1.55,2.68,1.5,1.5,0,0,1-1.22.14,1.66,1.66,0,0,0-1.18,0l-2,1a2.2,2.2,0,0,1,.13.73,2.09,2.09,0,0,1-.19.87l2.05,1a1.61,1.61,0,0,0,1.18,0,1.55,1.55,0,1,1-.33,2.83,1.58,1.58,0,0,1-.73-1,1.61,1.61,0,0,0-.57-1l-1.93-1.28a2.15,2.15,0,0,1-3.3,0L8.38,14.59a1.66,1.66,0,0,0-.57,1,1.51,1.51,0,0,1-.73,1,1.55,1.55,0,1,1-.33-2.83,1.61,1.61,0,0,0,1.18,0l2.05-1a2.08,2.08,0,0,1-.18-.87,2.19,2.19,0,0,1,.12-.73l-2-1a1.66,1.66,0,0,0-1.18,0,1.51,1.51,0,0,1-1.22-.14A1.55,1.55,0,1,1,7.08,7.39a1.51,1.51,0,0,1,.73,1,1.66,1.66,0,0,0,.57,1l1.84,1.21a2.18,2.18,0,0,1,1.43-.86L11.51,7.6a1.62,1.62,0,0,0-.6-1A1.55,1.55,0,0,1,12,3.91a1.56,1.56,0,0,1,1.55,1.55A1.54,1.54,0,0,1,13,6.59Z"/><path d="M12,14.08h.31l.14,2.32a1.59,1.59,0,0,0,.61,1,1.54,1.54,0,0,1,.49,1.13,1.55,1.55,0,0,1-3.1,0,1.54,1.54,0,0,1,.49-1.13,1.62,1.62,0,0,0,.6-1l.15-2.32Z"/></svg>