<svg id="Слой_1" data-name="Слой 1" xmlns="http://www.w3.org/2000/svg" viewBox="0 0 24 24"><title>SMARTМонтажная область 1</title><path d="M22,5.81,18.74,3.94l-.33-.19-.32-.19c-.65-.37-1.31-.74-1.95-1.12L13.05.65C12.87.55,11.94,0,11.9,0l-.16.09L7.52,2.52l-.16.1-.16.09-.33.19L6.71,3l-.32.18-.33.19-.65.37-.16.09-.82.48-.33.18-.64.38c-.33.19-.65.39-1,.56-.15.08-.91.54-1,.56V18c.06,0,.89.5,1,.55l1.3.75.32.19.65.37.16.1.16.09.49.28.82.47.15.1c.32.19.66.36,1,.55l1.15.67c.75.44,1.52.86,2.27,1.31l.89.51c.14.1.19,0,.42-.13l1.95-1.13.33-.18.32-.19.16-.09,1.79-1c.53-.32,1.09-.61,1.62-.93L22,18.2l.16-.09A.91.91,0,0,1,22.3,18V6ZM15.57,17.58H12.52v.8a0,0,0,0,1,0,0H11.05v-.81H8.24V15.33s0-.05,0-.06L8.56,15l0,0,0,0,.17-.17h0l.05-.05,0,0,.05-.06h0l.17-.2.12-.11h0l.12-.13,0-.05L9.51,14l0,0,0,0,.24-.26h0l0,0c.05-.06.14-.13.19-.19h0l.05-.05.09-.1.19-.21.22-.23,0,0,.09-.1.05,0,0-.05.09-.1,0,0,.07-.08,0,0,.18-.2,0,0-.12-.13-.09-.1,0,0,0,0-.21-.23-.12-.13,0,0L9.56,10.24l0,0L9.37,10h0L9,9.65l0,0L8.9,9.52c-.07-.06-.13-.14-.19-.2l0,0h0l-.07-.07-.09-.1,0,0a1.8,1.8,0,0,0-.19-.2l0,0,0,0V6.55H11V5.61h1.48v.9s0,0,0,0h3V8.82H11.38l.09.1.24.25,0,.05.13.14.33.37.19.21.86.94h0l.31.34,0,0,.12.14.56.6.06.08,0,0,0,0-.11.13,0,0-.28.31-.05.05a1.92,1.92,0,0,1-.14.15L13.5,13l-.18.19-.27.3-.19.21-.12.12-.16.18,0,0-.2.21h0l-.24.27h0l-.11.12,0,0,0,0-.13.15,0,0-.09.1,0,0-.28.31h4.07s.12,0,.12,0Z"/></svg>