<svg id="Слой_1" data-name="Слой 1" xmlns="http://www.w3.org/2000/svg" xmlns:xlink="http://www.w3.org/1999/xlink" viewBox="0 0 24 24"><defs><style>.cls-1{fill:none;}.cls-2{clip-path:url(#clip-path);}</style><clipPath id="clip-path"><rect class="cls-1" y="3" width="24" height="17.32"/></clipPath></defs><title>SNCМонтажная область 1</title><g class="cls-2"><path d="M24,3l-.47,2.49a1.59,1.59,0,0,0-1.79.83L20.4,11l.56-.39h2.67L23,12.69H20l-1.5,5.08a3.27,3.27,0,0,1-1.18,1.69,3.29,3.29,0,0,1-4,0,3.26,3.26,0,0,1-1.17-1.78L8.89,5.84a.56.56,0,0,0-.17-.26.49.49,0,0,0-.58,0A.42.42,0,0,0,8,5.85L5.18,16.91a4.56,4.56,0,0,1-1.61,2.46,4.55,4.55,0,0,1-2.79.95H0l.52-2.49a1.5,1.5,0,0,0,1.72-1.07l1.34-4.63-.6.52H.35l.56-2H3.84L5.52,5.34A3.16,3.16,0,0,1,8.56,3a3.12,3.12,0,0,1,1.92.66,3.08,3.08,0,0,1,1.11,1.69l3.27,11.92a.58.58,0,0,0,.2.31.59.59,0,0,0,.36.13.56.56,0,0,0,.35-.13.54.54,0,0,0,.21-.31L19,6a3.84,3.84,0,0,1,1.35-2.08A4,4,0,0,1,22.68,3Z"/></g></svg>