<svg id="Слой_1" data-name="Слой 1" xmlns="http://www.w3.org/2000/svg" viewBox="0 0 24 24"><title>SNGLSМонтажная область 1</title><path d="M13,17.28c6.15-.48,11-5.07,11-5.07s-4.69-4.47-10.72-5l-.46-.8L12,5l-.48.8-.8,1.37c-6,.59-10.72,5-10.72,5s4.83,4.59,11,5.07l1,1.89,1-1.89ZM1,12.21a26.56,26.56,0,0,1,9-3.79L9.28,9.66l.57,1.11,1.53-2.52.62,0,.61,0,1.5,2.52.58-1.16L14,8.41a24.53,24.53,0,0,1,9,3.79,24.21,24.21,0,0,1-9.32,3.85l2.28-4.27-.62-1.08-1.19,2.22L12.5,16.16H11.44L9.23,11.8h0l-.57-1.06L8.05,11.8l2.28,4.26A25.85,25.85,0,0,1,1,12.21Z"/></svg>