<svg id="Слой_1" data-name="Слой 1" xmlns="http://www.w3.org/2000/svg" viewBox="0 0 24 24"><title>SNMМонтажная область 1</title><path d="M12,24A12,12,0,1,0,0,12,12,12,0,0,0,12,24ZM22.64,13.91a10.82,10.82,0,0,1-.95,2.88,2.51,2.51,0,0,0,.06-.55,2.45,2.45,0,0,0-.68-1.69,1.22,1.22,0,0,0,.92,0A1.2,1.2,0,0,0,22.64,13.91ZM21.8,7.45a10.57,10.57,0,0,1,1,4.56,11.55,11.55,0,0,1-.09,1.32,1.21,1.21,0,0,0-.38-.79,1.31,1.31,0,0,0-.82-.32,1.28,1.28,0,0,0-.62.18,5,5,0,0,0,.9-4.95Zm-.62,1.69a4.17,4.17,0,0,1-7.12,2.94,4.14,4.14,0,0,1,0-5.89,4.2,4.2,0,0,1,5.9,0A4.17,4.17,0,0,1,21.18,9.14Zm-4.34,7.1a.33.33,0,0,1,0,.1,5.07,5.07,0,0,0-1.75-2.5,5,5,0,0,0,3.06.24,2.42,2.42,0,0,0-.95.9A2.45,2.45,0,0,0,16.84,16.24Zm.24,1.62a4.91,4.91,0,0,0,0-.67,2.48,2.48,0,0,0,1.14,1.23.58.58,0,0,0-.19,0,1.15,1.15,0,0,0-1,.65A5.3,5.3,0,0,0,17.08,17.86Zm2.21-.08a1.54,1.54,0,1,1,1.56-1.54,1.59,1.59,0,0,1-.46,1.09A1.56,1.56,0,0,1,19.29,17.78Zm1-4.34a1.18,1.18,0,0,0,.24.7,2.5,2.5,0,0,0-1.26-.34,1.73,1.73,0,0,0-.32,0,5.32,5.32,0,0,0,1.5-1A1.33,1.33,0,0,0,20.31,13.44ZM12,12.78a5.24,5.24,0,0,0-1.91.37A5,5,0,0,0,12,10a5,5,0,0,0,1.91,3.18A5.23,5.23,0,0,0,12,12.78Zm0-6.73h0a2.44,2.44,0,0,0,1.31-.38A5.06,5.06,0,0,0,12,8.3a5,5,0,0,0-1.31-2.63A2.44,2.44,0,0,0,12,6.05Zm2.48-2.47s0-.06,0-.08a1.2,1.2,0,0,0,1.12.76h.07A5,5,0,0,0,14,5.1,2.46,2.46,0,0,0,14.48,3.58Zm1.88-1.46a10.83,10.83,0,0,1,4.52,3.74,5.08,5.08,0,0,0-4.79-1.71,1.19,1.19,0,0,0,.27-2Zm-3.61-.9a11.15,11.15,0,0,1,3,.63h-.12A1.21,1.21,0,0,0,14.39,3a2.44,2.44,0,0,0-.6-1.09A2.36,2.36,0,0,0,12.75,1.22ZM10.44,3.58a1.56,1.56,0,0,1,.47-1.08,1.55,1.55,0,0,1,2.18,0,1.56,1.56,0,0,1,.47,1.08,1.53,1.53,0,0,1-.47,1.06,1.57,1.57,0,0,1-2.18,0,1.53,1.53,0,0,1-.47-1.06ZM8.28,1.85a10.78,10.78,0,0,1,3-.63A2.45,2.45,0,0,0,9.6,3a1.21,1.21,0,0,0-.38-.79,1.19,1.19,0,0,0-.82-.32ZM9.52,3.58a2.41,2.41,0,0,0,.54,1.52,5.1,5.1,0,0,0-1.72-.84H8.4A1.21,1.21,0,0,0,9.53,3.5.19.19,0,0,0,9.52,3.58ZM7.8,3.05A.63.63,0,0,1,8,2.65a.57.57,0,0,1,.41-.16.6.6,0,0,1,.42.16.63.63,0,0,1,.19.4.61.61,0,0,1-.61.61A.6.6,0,0,1,8,3.48.58.58,0,0,1,7.8,3.05ZM3.11,5.86A10.92,10.92,0,0,1,7.64,2.12a1.16,1.16,0,0,0-.36.49,1.15,1.15,0,0,0-.08.61,1.26,1.26,0,0,0,.23.56,1.18,1.18,0,0,0,.48.38,5,5,0,0,0-2.63.2A5.12,5.12,0,0,0,3.11,5.86ZM2.82,9.14A4.18,4.18,0,0,1,9.94,6.19a4.14,4.14,0,0,1,0,5.89A4.17,4.17,0,0,1,2.82,9.14Zm4.34,7.1A2.45,2.45,0,0,0,6.8,15a2.38,2.38,0,0,0-1-.9,5.17,5.17,0,0,0,3.06-.24,5.13,5.13,0,0,0-1.75,2.49S7.16,16.27,7.16,16.24ZM3.68,13.43a1.1,1.1,0,0,0-.16-.58,5.32,5.32,0,0,0,1.5,1,1.66,1.66,0,0,0-.32,0,2.47,2.47,0,0,0-1.25.34A1.12,1.12,0,0,0,3.68,13.43Zm-.53,2.81a1.52,1.52,0,0,1,.12-.59,1.64,1.64,0,0,1,.34-.5,1.56,1.56,0,0,1,.5-.33,1.45,1.45,0,0,1,.59-.12,1.54,1.54,0,0,1,1.54,1.54,1.56,1.56,0,0,1-.45,1.1,1.55,1.55,0,0,1-2.64-1.1Zm2.67,2.18A2.48,2.48,0,0,0,7,17.19a4.91,4.91,0,0,0,0,.67,4.79,4.79,0,0,0,.15,1.19,1.25,1.25,0,0,0-.43-.48A1.23,1.23,0,0,0,6,18.4Zm-4.55-5.1a10.78,10.78,0,0,1,.92-5.87,5.06,5.06,0,0,0,.9,5,1.12,1.12,0,0,0-.62-.18A1.21,1.21,0,0,0,1.27,13.32Zm1,2.92a2.51,2.51,0,0,0,.06.55,10.82,10.82,0,0,1-.95-2.88,1.22,1.22,0,0,0,1.58.64A2.38,2.38,0,0,0,2.25,16.24Zm3.1,2.36a1.16,1.16,0,0,0-.52,1,1.17,1.17,0,0,0,.27.74A10.71,10.71,0,0,1,3,18a2.44,2.44,0,0,0,2.32.57Zm.09,1a.5.5,0,0,1,.1-.31.51.51,0,0,1,.25-.21.53.53,0,0,1,.33,0,.6.6,0,0,1,.45.45.62.62,0,0,1,0,.33.64.64,0,0,1-.21.25.55.55,0,0,1-.32.1.59.59,0,0,1-.4-.16.58.58,0,0,1-.17-.41Zm5.1,3.14a10.77,10.77,0,0,1-5-2.08,1.13,1.13,0,0,0,.57.12,1.09,1.09,0,0,0,.56-.18,1.21,1.21,0,0,0,.41-.43,1.13,1.13,0,0,0,.15-.57s0-.07,0-.1a5.1,5.1,0,0,0,3.36,3.24Zm5.63-4.85A4.16,4.16,0,0,1,9.06,20.8a4.16,4.16,0,1,1,7.11-2.94Zm2.33,2.77a10.77,10.77,0,0,1-5,2.08,5,5,0,0,0,2.07-1.21,5.16,5.16,0,0,0,1.28-2s0,.07,0,.1a1.17,1.17,0,0,0,.55,1A1.16,1.16,0,0,0,18.5,20.63Zm.06-1.06a.57.57,0,0,1-.09.32.66.66,0,0,1-.26.21.53.53,0,0,1-.33,0,.54.54,0,0,1-.29-.15.64.64,0,0,1-.16-.29.53.53,0,0,1,0-.33.52.52,0,0,1,.2-.26A.62.62,0,0,1,18,19,.56.56,0,0,1,18.56,19.57ZM21,18a10.71,10.71,0,0,1-2.07,2.28,1.16,1.16,0,0,0,.27-.74A1.18,1.18,0,0,0,19,19a1.27,1.27,0,0,0-.38-.42A2.44,2.44,0,0,0,21,18Z"/></svg>