<svg id="Слой_1" data-name="Слой 1" xmlns="http://www.w3.org/2000/svg" viewBox="0 0 24 24"><title>SNTМонтажная область 1</title><path d="M12,24a12,12,0,1,1,8.48-3.52A12,12,0,0,1,12,24ZM9.85,12.41c-2.45,0-3.85,1-3.85,2.86s1.17,2.87,3.21,2.87a6.11,6.11,0,0,0,6.06-5.51,6.94,6.94,0,0,1-1.2.1h0a13.28,13.28,0,0,1-2.09-.16,14.6,14.6,0,0,0-2.09-.16Zm.09-1.14h0a14.57,14.57,0,0,1,2.08.16,14.6,14.6,0,0,0,2.09.16c2.45,0,3.85-1,3.85-2.86s-1.17-2.87-3.21-2.87a6.11,6.11,0,0,0-6.06,5.51,7,7,0,0,1,1.21-.1Z"/></svg>