<svg id="Слой_1" data-name="Слой 1" xmlns="http://www.w3.org/2000/svg" viewBox="0 0 25 24"><title>SOARМонтажная область 1</title><path d="M6.21,5.71V5.1C4,4.49,4.14,6.32,4.14,6.32A1.16,1.16,0,0,0,5,7.38a2.34,2.34,0,0,0,.87.14l.29,0a.87.87,0,0,1,.42.17.86.86,0,0,1,.27.36.82.82,0,0,1-.15.86,1,1,0,0,1-.41.3,1,1,0,0,1-1-.11L5,8.87l.12.73.28.06a1.87,1.87,0,0,0,.91,0,1.8,1.8,0,0,0,.79-.48h0a1.22,1.22,0,0,0,.29-.52A1.29,1.29,0,0,0,7,7.14a1.09,1.09,0,0,0-.63-.22c-.34,0-.67,0-1,0a.85.85,0,0,1-.37-.15.75.75,0,0,1-.25-.31.79.79,0,0,1,.18-.82A.89.89,0,0,1,6.21,5.71Z"/><path d="M16.69,4.73h.24l.62,4.88-.74-.25-.12-1.83-1.46-.36-1.1,1.46-.48-.12Zm-.24.86-1,1.21,1.22.37-.12-1.58Z"/><path d="M20.47,6.19l1.34.74a1.22,1.22,0,0,1,.48,1.7c-.48.86-1.7.37-1.7.37L21,11.8l-.6-.37L20,8.75l-.24-.12-1,1.83-.61-.37Zm-.61,2.08s1.58,1.09,2.07.12c0,0,.49-.86-1.22-1.59Z"/><path d="M8.16,6.38A2.47,2.47,0,0,1,10.72,4a2.48,2.48,0,0,1,2.56,2.38,2.47,2.47,0,0,1-2.56,2.37A2.47,2.47,0,0,1,8.16,6.38Zm.74.06a2,2,0,0,0,1.82,2.07,2,2,0,0,0,1.83-2.07,2,2,0,0,0-1.83-2.07A2,2,0,0,0,8.9,6.44Z"/><path d="M.9,6.1c0-.14,0-.21,0-.21v0h0A9.79,9.79,0,0,0,3.8,17.49a8.38,8.38,0,0,0,2.05,1.62c8.89,5.11,14.25.12,14.25.12-4,.73-5.72-.37-5.72-.37l.35-.06C23,19.24,24,11,24,11l-.06.13v0a1.37,1.37,0,0,0,.07-.16,14.38,14.38,0,0,1-2.68,3.31,14.63,14.63,0,0,0,1.1-1.84,14.07,14.07,0,0,1-6.1,4.3c-3.55.45-5-1-5.41-1.64-.16-2,1.77-1.75,2.06-1.71l.07,0,0,0h0a2.74,2.74,0,0,0-.48-.17A4.68,4.68,0,0,0,11.28,13c-4.83-.18-3.22,3.48-2.78,4.32A12,12,0,0,1,2.56,9.36a9,9,0,0,0-.23,2.78A11.39,11.39,0,0,1,.89,6.26.81.81,0,0,1,.9,6.1Zm0-.17Z"/></svg>