<svg id="Слой_1" data-name="Слой 1" xmlns="http://www.w3.org/2000/svg" viewBox="0 0 24 24"><title>SOCМонтажная область 1</title><path d="M12,0a12,12,0,1,0,8.49,3.51A12,12,0,0,0,12,0Zm2.74,22.24a10.78,10.78,0,0,1-4.23.25A10.59,10.59,0,0,1,1.6,10.05,10.57,10.57,0,0,1,6.21,3.14a10.39,10.39,0,0,1,3.94-1.57,10.6,10.6,0,0,1,4.59,20.67Zm.19-18.95c0,.51,0,1,0,1.55a9.88,9.88,0,0,0-2.15-.57,6.11,6.11,0,0,0,0-1.42,11.75,11.75,0,0,0-1.57,0,14,14,0,0,0,0,1.45,9.88,9.88,0,0,0-2.15.57c0-.52,0-1,0-1.57a9.2,9.2,0,0,0,0,17.44c0-.51,0-1,0-1.53a9.27,9.27,0,0,0,2.13.55c0,.47,0,.94,0,1.4a5.91,5.91,0,0,0,1.68,0c0-.46,0-.92,0-1.39a9.88,9.88,0,0,0,2.14-.54c0,.51,0,1,0,1.52a9.2,9.2,0,0,0,0-17.44ZM16.3,17.22a6.4,6.4,0,0,1-4.5,1.33A5.41,5.41,0,0,1,8,17.18,5.07,5.07,0,0,1,6.86,15.3c1-.25,2-.33,2.93-.54A1.73,1.73,0,0,0,10.93,16a2.89,2.89,0,0,0,2.71-.32,1,1,0,0,0-.11-1.7c-1.51-.79-3.41-.52-4.84-1.51A3.7,3.7,0,0,1,8.5,6.62a6.43,6.43,0,0,1,5.17-.75A4.82,4.82,0,0,1,16.86,9L14,9.52c-.25-1.51-2.38-1.87-3.43-1a1.09,1.09,0,0,0,.31,1.83c1.64.68,3.6.48,5.06,1.62A3.48,3.48,0,0,1,16.3,17.22Z"/></svg>