<svg id="Слой_1" data-name="Слой 1" xmlns="http://www.w3.org/2000/svg" viewBox="0 0 24 24"><title>SPANKМонтажная область 1</title><path d="M3.77,18.7l.86,2.76L6.17,21l0-.16,1.64,2.39,1.33-.89L9,22.18,11.27,24l1-1.23-.17-.14,2.77,1,.57-1.48-.14-.05,2.89.2.11-1.58-.22,0L21,20.08l-.36-1.54-.26.06L23,17.11l-.8-1.38-.25.15L24,13.68l-1.18-1.09-.19.21L24,10.09,22.52,9.4l-.12.24.48-3-1.59-.25,0,.21-.47-2.92L19.19,4V4L18,1.52l-1.45.69,0,.09L14.6.24,13.42,1.32l.1.1L11,0l-.81,1.37.18.11L7.53.82,7.16,2.37l.28.06-3,.21.11,1.58.34,0L2,5.28l.58,1.48.31-.11L.5,8.56l1,1.24.16-.13L0,12.11,1.34,13l.1-.15-.87,2.8,1.54.47.05-.17v2.91H3.77Zm0-1.89V14.16h-1l.78-2.54-1-.31L4,9.11l-.89-.59,2.1-1.67L4.54,6,7,5.08l-.39-1,2.65-.19L9.22,2.84l2.58.59.24-1,2.3,1.31.52-.89,1.81,1.92.75-.69,1.17,2.37L19.52,6l.42,2.62,1-.16-.42,2.62,1.07.17-1.18,2.38,1,.47L19.58,16l.79.74-2.32,1.32.54.92L16,19.59l.24,1-2.66-.18-.07,1L11,20.51l-.37.95L8.58,19.82l-.66.8L6.43,18.45,5.56,19l-.78-2.52Zm7.91-3a1,1,0,0,1-.1.49,1,1,0,0,1-.32.38,2,2,0,0,1-1.18.3Q8,15,8,13.3H5.92a3.08,3.08,0,0,0,.51,1.76,3.4,3.4,0,0,0,1.49,1.2,5.31,5.31,0,0,0,2.16.43,4.41,4.41,0,0,0,2.72-.76,2.5,2.5,0,0,0,1-2.1,2.69,2.69,0,0,0-.83-2,6.48,6.48,0,0,0-2.63-1.36,6,6,0,0,1-1.49-.63A1,1,0,0,1,8.35,9a1,1,0,0,1,.44-.86A1.92,1.92,0,0,1,10,7.79a1.82,1.82,0,0,1,1.25.39,1.38,1.38,0,0,1,.45,1.1h2.12a3,3,0,0,0-.48-1.66A3,3,0,0,0,12,6.5a4.55,4.55,0,0,0-2-.41,5,5,0,0,0-2,.37,3.17,3.17,0,0,0-1.35,1A2.54,2.54,0,0,0,6.23,9,2.85,2.85,0,0,0,8,11.53a11.19,11.19,0,0,0,1.74.71,5.37,5.37,0,0,1,1.53.68A1.08,1.08,0,0,1,11.68,13.84Zm6.47-6.32L15.7,7.17l-1.27,7.7,1.68.12Zm-1.78,8.25-2.26-.55-.51,2.54,2.24.65Z"/></svg>