<svg id="Слой_1" data-name="Слой 1" xmlns="http://www.w3.org/2000/svg" viewBox="0 0 25 24"><title>SPFМонтажная область 1</title><path d="M19.7,2.32,12.32,0l-6,2.31-4.83,4L.4,14.1l4.9,7.52,7,2.38,5.94-2.37L23,17.29l1.12-7.77Zm-5.27,7.92-6.3,3.6.4-6.44ZM8.84,6.9l5.1-3.55.76,6.37Zm-.4,7.44,6.3-3.61-.25,6.42Zm5.76,3.32L9.94,20.88l-1.69-6Zm.34-14.24,5.3,3.51L15.3,9.72Zm.79,7.34,5.28,3.57-5.53,2.78Zm.27-.53,4.55-2.79.68,6.33ZM20.76,7.6l2.65,2.06-2,3.74Zm1.94.77-2-1.59-.53-2.64ZM20,6.31,15.09,3.08l4.18-.21Zm-2.11-4-3.53.18L13.1.86ZM12.23.67l1.35,1.84L7.94,2.32Zm1,2.42L8.4,6.49,6.94,2.88Zm-6.82.17L7.89,6.8,3.34,9.18ZM7.94,7.44l-.4,6.32L3.15,9.94ZM5.55,3.72,2.74,9.06,2.13,6.55ZM1.87,8l.46,1.87-1,2.25Zm-.82,6,1.38-3,.39,5ZM3,10.57l4.3,3.74-3.85,2.1ZM7.62,14.8l1.65,5.88L3.74,16.92ZM4,17.78l4.85,3.3H5.67Zm3.3,3.89H9.66L11.06,23Zm5.08,1.68-1.82-1.68h6Zm-1.7-2.27L14.72,18l2.71,3.08ZM18,20.84l-2.76-3.15L20.59,15Zm.92-.63L21.21,15l1.12,2Zm3.61-4-1-1.85,1.74-3.2Z"/></svg>