<svg id="Слой_1" data-name="Слой 1" xmlns="http://www.w3.org/2000/svg" viewBox="0 0 24 24"><title>SPHTXМонтажная область 1</title><path d="M0,7.07H10.1V6.64H0ZM0,5.83H10.1V5.4H0ZM4.26,18.6h.41V7.92H4.26Zm1.18,0h.4V7.92h-.4Zm18.27-.88.29-.3L19.44,12.6l-.28.31ZM12.62,5.4l-.28.3,4.55,4.82.29-.3ZM22.88,18.6l.29-.3-4.56-4.82-.28.3ZM11.79,6.28l-.28.3,4.55,4.82.29-.31ZM18.3,12l-.55.58-.28.3L12.34,18.3l.28.3,5.13-5.42.29-.3.54-.58.29-.3L24,6.58l-.29-.3L18.58,11.7Zm-.55-1.18-.28.3-.55.58-.28.3-5.13,5.42.28.3,5.13-5.42.29-.3.54-.58.29-.3L23.17,5.7l-.29-.3Z"/></svg>