<svg id="Слой_1" data-name="Слой 1" xmlns="http://www.w3.org/2000/svg" viewBox="0 0 24 24"><title>SRNМонтажная область 1</title><path d="M11.69,9.25a2.56,2.56,0,0,1-1.07,1.56c0,.34.47,2.31,1.4,2.31.67,0,1.27-.61,1.47-2.31a3.4,3.4,0,0,1-.87-1.56A1.55,1.55,0,0,1,11.69,9.25Zm-1,6c.13.55.53,1.91,1.4,1.91.6,0,1.27-.75,1.4-1.84-.47-.27-.67-.88-.87-1.84a1.41,1.41,0,0,1-.93,0A4.11,4.11,0,0,1,10.69,15.23ZM5.35,17.34c.33.55,1,1.43,1.73,1.09.2-.07.27-.61.2-1.09A3.9,3.9,0,0,1,6,15.44a.72.72,0,0,1-.54,0C5.61,16.46,5.61,17,5.35,17.34ZM2.54,15.51c.27,1.49.34,1.63.27,1.83.47.89.94,1.29,1.54,1.23.2,0,.06-.55-.2-1.09a5.06,5.06,0,0,1-1.27-1.91A.68.68,0,0,0,2.54,15.51Zm-1.8,0c0-.21.47,1.08,1.07,1.7a2.5,2.5,0,0,1,.8.88C2.68,18.23,1.41,18.36.74,15.51Zm8.15,1.83c.33,1.23,1.26,1.23,1.6,1.09s.67-.47.73-1.22a3,3,0,0,1-.93-1.91,1.55,1.55,0,0,1-.8,0C9.42,16.25,9.35,17,8.89,17.34ZM3.14,15.23c.27.68,1.07,2,1.67,2,.27,0,.4-.48.27-1.91a2.66,2.66,0,0,1-.93-1.7.88.88,0,0,1-.6,0A3.18,3.18,0,0,1,3.14,15.23Zm-2.06,0c.2.55.66,1.71,1.26,1.91.27.13.27-.27-.06-1.84a3.5,3.5,0,0,1-.8-1.7H1.21C1.15,14.14,1.11,14.69,1.08,15.23Zm5.34,0c.06.28.73,1.64,1.53,1.84s1-1,1-1.77a2.42,2.42,0,0,1-1-1.7,1.22,1.22,0,0,1-.87,0A2.44,2.44,0,0,1,6.42,15.23Zm-.6-.2c.4,0,.73-.61.86-1.77a3.38,3.38,0,0,1-.8-2.38.69.69,0,0,1-.53,0,4.63,4.63,0,0,1-.8,2.45C4.55,13.74,5,15,5.82,15Zm-4.14-1.7c.33,1.36.66,1.7.93,1.7.6,0,.47-1,.54-1.77a3.77,3.77,0,0,1-.61-2.38H2.21a11.62,11.62,0,0,1-.53,2.45ZM.34,11c-.13-.07-.8,2.79.2,4,.14.14.14-1.56.14-1.56C.41,12.78.54,11,.34,11Zm8,2.38c.07.2.47,1.7,1.54,1.7.66,0,1.2-.75,1.33-1.84a3.83,3.83,0,0,1-.93-2.31,1.55,1.55,0,0,1-.8,0C9.09,12.24,8.82,13,8.35,13.33ZM2.88,10.67c.06,1.23.33,2.45.87,2.45s.86-1.36,1.06-2.51c-.2-.14-.46-.55-.46-1.43a.41.41,0,0,1-.54,0C3.75,9.31,3.41,10.47,2.88,10.67ZM1.21,13.19c.33,0,.67-2.52.67-2.52a2.33,2.33,0,0,1-.2-1.49c-.07.07-.2,0-.27,0a6.24,6.24,0,0,1-.67,1.49c-.13.75,0,2.52.47,2.52Zm5.07-2.52c.07.82.47,2.45,1.27,2.45S8.82,11.9,9,10.67a1.89,1.89,0,0,1-.8-1.49,1.22,1.22,0,0,1-.87-.07A3.77,3.77,0,0,1,6.28,10.67Zm.6-1.83a2.27,2.27,0,0,1-.33-1.77H6.08A5.42,5.42,0,0,1,4.81,9c0,.14.07,1.57.74,1.57s.93-.61,1.33-1.7ZM3.61,7.14H3.35A8,8,0,0,1,2.08,9c-.14.68-.14,1.5.26,1.57S3,10.27,3.55,8.9a2.23,2.23,0,0,1,.06-1.76ZM1.68,7.2C.68,7.88.14,10.33.41,10.4a2.86,2.86,0,0,0,.8-1.77c-.07-.47.67-1.49.47-1.43Zm9.48,1.64a2.93,2.93,0,0,1-.74-1.77,1.3,1.3,0,0,1-.73,0A3.67,3.67,0,0,1,8.48,9c.14.68.47,1.5,1.07,1.57,1.14,0,1.4-.95,1.61-1.7ZM2.08,7c-.67,1-.67,1.9-.4,1.9s1.26-1.7,1.46-2c-.06-.34.67-1,.41-1.08C3.08,5.78,2.21,6.93,2.08,7ZM18.5,15.44a.72.72,0,0,1-.54,0,3.07,3.07,0,0,1-1.26,1.9c-.07.48-.07,1,.2,1.09.73.27,1.46-.54,1.73-1.09A3.64,3.64,0,0,1,18.5,15.44Zm2.67,0a5.08,5.08,0,0,1-1.27,1.9c-.33.62-.47,1.09-.2,1.09.6,0,1.07-.34,1.53-1.22-.06-.21,0-.34.27-1.84C21.37,15.51,21.23,15.51,21.17,15.44Zm1.07,1.77c.6-.62,1-1.91,1.13-1.7-.67,2.85-1.93,2.72-1.87,2.58a2.36,2.36,0,0,1,.74-.88Zm-7.68-1.77a1.55,1.55,0,0,1-.8,0,3.57,3.57,0,0,1-.94,1.9c.14.68.27,1.09.74,1.23a1.37,1.37,0,0,0,1.6-1.09A3.23,3.23,0,0,1,14.56,15.44Zm6-1.91a.64.64,0,0,1-.3.08.61.61,0,0,1-.3-.08,3.12,3.12,0,0,1-.94,1.7c-.13,1.43,0,1.91.27,1.91.53,0,1.4-1.29,1.67-2C20.63,14.89,20.57,14.35,20.57,13.53Zm2.4.14H22.7a4.08,4.08,0,0,1-.8,1.7c-.33,1.5-.4,1.9-.06,1.84.53-.21,1-1.36,1.26-1.91A5.59,5.59,0,0,1,23,13.67ZM17,13.53a1.23,1.23,0,0,1-.87,0,2.59,2.59,0,0,1-1,1.7c0,.68.07,2,1,1.77.74-.13,1.47-1.49,1.54-1.84C17.3,15,17.16,14.49,17,13.53Zm2.54-.2a6.66,6.66,0,0,1-.81-2.45.7.7,0,0,1-.53,0,3.23,3.23,0,0,1-.8,2.38c.13,1.09.47,1.77.87,1.77C19,15,19.5,13.74,19.57,13.33Zm2.33-2.45c-.13,0-.2.07-.33,0a3.48,3.48,0,0,1-.6,2.38c.06.68-.07,1.77.53,1.77.27,0,.6-.41.94-1.7C22.3,13.05,22.24,13,21.9,10.88Zm1.4,2.45s0,1.7.14,1.56c1-1.09.4-4.08.2-4S23.64,12.78,23.3,13.33Zm-8.54-2.45a1.5,1.5,0,0,1-.8,0A4.31,4.31,0,0,1,13,13.19c.21,1,.6,1.91,1.34,1.84.93,0,1.47-1.5,1.53-1.7C15.29,13,15,12.24,14.76,10.88Zm5.54-1.7a.79.79,0,0,1-.29.11.8.8,0,0,1-.31,0,2.12,2.12,0,0,1-.47,1.49c.2,1.23.47,2.52,1.07,2.52s.87-1.29.87-2.45A3.57,3.57,0,0,1,20.3,9.18Zm3,1.49a9,9,0,0,1-.6-1.49.19.19,0,0,1-.26,0,2.52,2.52,0,0,1-.2,1.43s.33,2.51.66,2.51S23.37,11.42,23.3,10.67ZM16.76,9.18a1.37,1.37,0,0,1-.87.07,2,2,0,0,1-.73,1.49c.2,1.29.47,2.52,1.47,2.45.73,0,1.2-1.63,1.27-2.45A3.62,3.62,0,0,1,16.76,9.18Zm1.67,1.29c.67,0,.74-1.36.74-1.57A5.68,5.68,0,0,1,17.9,7.07a.55.55,0,0,1-.47,0,2.11,2.11,0,0,1-.33,1.77C17.56,9.93,18,10.54,18.43,10.47Zm2.14-1.63c.46,1.36.73,1.7,1.07,1.7S22,9.72,21.9,9a8.57,8.57,0,0,1-1.27-1.9h-.26A2.6,2.6,0,0,1,20.57,8.84Zm2.27-.21a3,3,0,0,0,.73,1.77A4.12,4.12,0,0,0,22.3,7.2c-.06-.06.6,1,.54,1.43Zm-8.48,1.84c.67-.07,1-.75,1.07-1.57a3.82,3.82,0,0,1-1.07-1.83,1.3,1.3,0,0,1-.73,0,2.29,2.29,0,0,1-.74,1.77C13.09,9.59,13.36,10.54,14.36,10.47Zm6.21-4.69c-.27,0,.46.74.4,1.08.2.34,1.07,2,1.47,2S22.7,8.09,22,7C21.9,6.93,20.9,5.78,20.57,5.78ZM5.75,6s.13-.34-.07-.41S4.41,6.86,4,7.07c-.06.13-.6,1.7.07,1.83S5.35,7.82,5.75,7C5.55,6.8,5.61,6.39,5.75,6Zm3.14-.07c0-.07,0-.41-.34-.41S7.62,6.8,7,7c-.14.75,0,1.77.6,1.84C8.48,8.9,9,7.82,9.29,7,9,6.8,8.89,6.32,8.89,5.91ZM18.37,7c.39.75,1,2,1.66,1.9s.14-1.7.07-1.83c-.4-.21-1.34-1.5-1.67-1.5s-.06.34-.06.41A1.35,1.35,0,0,1,18.37,7ZM14.83,7c.26.75.73,2,1.67,1.84.66-.07.8-1,.6-1.84-.54-.2-1.2-1.57-1.54-1.5s-.33.34-.33.41C15.16,6.32,15.09,6.8,14.83,7ZM12,5.5c-.73,0-.46,1.23-1.26,1.57.06.61.26,1.83,1.2,1.83s1.27-1.49,1.27-1.83C12.69,6.8,12.69,5.5,12,5.5Z"/></svg>