<svg id="Слой_1" data-name="Слой 1" xmlns="http://www.w3.org/2000/svg" viewBox="0 0 24 24"><title>STKМонтажная область 1</title><path d="M12.39,17.57V7.35h1.13l.55-.9H10.26a.26.26,0,0,0-.26.27v.63h1.34V17.57Z"/><path d="M15.58,12,17,17.5H18l-1.6-6,1.46-5.07H16.81l-1.23,4.75V6.39H14.7a.17.17,0,0,0-.17.16v11h1.05Z"/><path d="M7.61,10.06a1.85,1.85,0,0,1-.23-1V7.91c0-.51.17-.73.56-.73s.57.22.57.73V9.3l.86-.7a.52.52,0,0,0,.18-.39V7.85c0-1.07-.51-1.57-1.61-1.57A1.46,1.46,0,0,0,6.33,7.93V9.26a2.55,2.55,0,0,0,.43,1.42l1.49,2.59a2,2,0,0,1,.29,1.05v1.55c0,.37-.11.81-.6.81s-.63-.27-.63-.81V14.38l-.88.73a.39.39,0,0,0-.16.34v.48a1.63,1.63,0,0,0,1.58,1.65h.09a1.66,1.66,0,0,0,1.21-.43,1.67,1.67,0,0,0,.43-1.21V14.19a2.6,2.6,0,0,0-.37-1.36Z"/><path d="M23.16,8.11,20.94,4.27a6.17,6.17,0,0,0-3.79-2.91L12.86.21A6.39,6.39,0,0,0,11.23,0,6.2,6.2,0,0,0,8.12.84h0L4.28,3.05a6.21,6.21,0,0,0-2.91,3.8L.22,11.14a6.19,6.19,0,0,0,.62,4.74l2.22,3.84a6.17,6.17,0,0,0,3.79,2.91l4.29,1.15a6.39,6.39,0,0,0,1.63.21,6.17,6.17,0,0,0,3.11-.84l3.84-2.22a6.22,6.22,0,0,0,2.92-3.79l1.14-4.29A6.19,6.19,0,0,0,23.16,8.11Zm-2.4,11.08L19,20.7l.17-.19,2.49-3a6.24,6.24,0,0,0,1.31-2.62v.13A6,6,0,0,1,20.76,19.19ZM13.65,23.3l-.54,0h0l-2.35-.21H11l3.87-.34a6.33,6.33,0,0,0,2.78-.93l-.11.08A6,6,0,0,1,13.65,23.3ZM4.8,20.76,3.29,19l.2.17,3,2.5a6.27,6.27,0,0,0,2.63,1.31H9A6.1,6.1,0,0,1,4.8,20.76ZM3.24,4.8,5,3.3l-.16.18-2.49,3A6.24,6.24,0,0,0,1.07,9.07V9A6.1,6.1,0,0,1,3.24,4.8ZM10.35.69a4.89,4.89,0,0,1,.54,0l2.33.2H13l-3.87.34a6.32,6.32,0,0,0-2.76.92l.09-.07A6.07,6.07,0,0,1,10.35.69ZM19.2,3.24,20.69,5l-.17-.15-3-2.5a6.18,6.18,0,0,0-2.61-1.3h.12A6.06,6.06,0,0,1,19.2,3.24ZM5,3.57H5A6.1,6.1,0,0,1,9.12,1.41h0l2.27-.2-.4.1-3.47.93a6.18,6.18,0,0,0-2.7,1.51ZM8.33,21.94l-3.11-1.8a6.06,6.06,0,0,1-2.84-3.71L1.45,13a6,6,0,0,1,.61-4.63L3.85,5.22A6.11,6.11,0,0,1,7.56,2.37L11,1.44a6.15,6.15,0,0,1,1.59-.21,6.08,6.08,0,0,1,3.05.83l3.11,1.79a6.06,6.06,0,0,1,2.84,3.71L22.56,11A6.09,6.09,0,0,1,22,15.66l-1.8,3.11a6.11,6.11,0,0,1-3.71,2.85L13,22.55a6.1,6.1,0,0,1-4.64-.61ZM18.85,3.73l-3.11-1.8a6.28,6.28,0,0,0-3-.84l.23,0a6.07,6.07,0,0,1,4.46,1.41L19.2,3.94ZM3.73,5.15,1.94,8.26a6.16,6.16,0,0,0-.84,3l0-.23a6.08,6.08,0,0,1,1.4-4.46L4,4.8C3.87,4.91,3.8,5,3.73,5.15ZM1.31,13l.94,3.47a6.27,6.27,0,0,0,1.51,2.71L3.58,19a6,6,0,0,1-2.16-4.15l-.2-2.27Zm3.85,7.26,3.11,1.8a6.21,6.21,0,0,0,3,.84l-.23,0a6.07,6.07,0,0,1-4.46-1.41L4.79,20C4.91,20.11,5,20.19,5.16,20.26ZM13,22.69l3.47-.93a6.17,6.17,0,0,0,2.68-1.51l-.14.17a6.1,6.1,0,0,1-4.14,2.16l-2.26.2Zm7.26-3.85,1.79-3.11a6.17,6.17,0,0,0,.84-3l0,.24a6.08,6.08,0,0,1-1.4,4.46l-1.47,1.74C20.13,19.08,20.2,19,20.27,18.84ZM22.69,11l-.93-3.47a6.25,6.25,0,0,0-1.51-2.69l.18.15a6,6,0,0,1,2.15,4.14l.2,2.28C22.76,11.27,22.72,11.13,22.69,11ZM.92,10.77c0,.08,0,.16,0,.24l.34,3.87a6,6,0,0,0,.93,2.78l-.09-.1A6.07,6.07,0,0,1,.72,13.1Zm22.16,2.45c0-.08,0-.16,0-.24l-.34-3.87a6.08,6.08,0,0,0-.92-2.76l.08.08a6.08,6.08,0,0,1,1.4,4.46ZM20.82,4.34l1.14,2L19.3,3.15a6,6,0,0,0-2.09-1.63A6,6,0,0,1,20.82,4.34Zm-8-4L15,.93,10.91.58a5.25,5.25,0,0,0-.56,0A6.23,6.23,0,0,0,8.29.9,6.09,6.09,0,0,1,12.82.35ZM4.35,3.18l2-1.13L3.15,4.69A6.17,6.17,0,0,0,1.54,6.75,6,6,0,0,1,4.35,3.18Zm-4,8L.94,9,.58,13.09A6.22,6.22,0,0,0,.9,15.7,6.11,6.11,0,0,1,.35,11.17Zm2.83,8.48-1.13-2,2.64,3.16a6.34,6.34,0,0,0,2.07,1.61A6.09,6.09,0,0,1,3.18,19.65Zm9.59,4.21a6.1,6.1,0,0,1-1.59-.22h0L9,23.06l4.09.36.56,0a6.23,6.23,0,0,0,2.06-.35A6.17,6.17,0,0,1,12.77,23.86Zm6.88-3-2,1.13,3.16-2.65a6.08,6.08,0,0,0,1.62-2.08A6.12,6.12,0,0,1,19.65,20.82Zm4-8L23.06,15l.36-4.11a6.3,6.3,0,0,0-.33-2.63A6.11,6.11,0,0,1,23.65,12.82Z"/></svg>