<svg id="Слой_1" data-name="Слой 1" xmlns="http://www.w3.org/2000/svg" viewBox="0 0 24 24"><title>STORJМонтажная область 1</title><path d="M21.7,15.24l-.25-.12V9l.3-.13A2,2,0,0,0,22,5.43a2.18,2.18,0,0,0-1.69-.35,2,2,0,0,0-.8.36L14,2.32A2.64,2.64,0,0,0,14,2a2.07,2.07,0,0,0-2.09-2,2.1,2.1,0,0,0-2.1,2.05,2.64,2.64,0,0,0,0,.28L4.37,5.43a2.17,2.17,0,0,0-1-.42,2.09,2.09,0,0,0-1.08.14A2,2,0,0,0,1,6.78a1.93,1.93,0,0,0,.15,1.06,1.91,1.91,0,0,0,.67.84l.23.16A1.69,1.69,0,0,0,2.35,9v6.12a2,2,0,0,0,0,3.78,2.09,2.09,0,0,0,1.59,0,2.21,2.21,0,0,0,.27-.12l.26-.17,5.4,3.05a2.08,2.08,0,0,0,4.11.65,1.31,1.31,0,0,0,0-.34c0-.1,0-.2,0-.3l5.38-3,.27.18A2.11,2.11,0,0,0,22.44,18a2,2,0,0,0,.19-1.53A2.09,2.09,0,0,0,21.7,15.24Zm.38,2.56a1.61,1.61,0,0,1-2.84-.16,1.57,1.57,0,0,1-.08-1l-2.53-1.45a2.86,2.86,0,0,1-3,.62,7.78,7.78,0,0,1-1.19.19v4.36a1.73,1.73,0,0,1,.57.3,1.64,1.64,0,0,1,.41.5,1.66,1.66,0,0,1,.19.62,1.56,1.56,0,0,1-.07.64,1.69,1.69,0,0,1-2.09,1.08h0l-.2-.09a1.48,1.48,0,0,1-.51-.39,1.4,1.4,0,0,1-.32-.55,1.74,1.74,0,0,1-.09-.64,1.65,1.65,0,0,1,.18-.62,1.7,1.7,0,0,1,1-.84V15.94a7.41,7.41,0,0,1-.93-.35,3.38,3.38,0,0,1-1.45,0,3.34,3.34,0,0,1-1.31-.64l-3,1.71a1.57,1.57,0,0,1,0,.61,1.46,1.46,0,0,1-.22.58,1.51,1.51,0,0,1-.42.45,1.53,1.53,0,0,1-.57.25,1.57,1.57,0,0,1-1.95-1.78,1.52,1.52,0,0,1,.22-.58,1.63,1.63,0,0,1,.42-.45,1.63,1.63,0,0,1,.57-.25,1.71,1.71,0,0,1,.78,0,1.74,1.74,0,0,1,.68.37l2.82-1.59a3.27,3.27,0,0,1-.61-2.2,3.31,3.31,0,0,1,1-2.06L4.23,8.19a1.53,1.53,0,0,1-1.13.42A1.6,1.6,0,0,1,2,8.12a1.58,1.58,0,0,1-.33-.52,1.56,1.56,0,0,1,0-1.2,1.48,1.48,0,0,1,.36-.49A1.61,1.61,0,0,1,3.2,5.48,1.66,1.66,0,0,1,4.31,6a1.4,1.4,0,0,1,.37.66,1.51,1.51,0,0,1,0,.76l3.55,2A3.29,3.29,0,0,1,9.76,9a7.24,7.24,0,0,1,1.77-.82V3.43A1.37,1.37,0,0,1,11,3.17a1.43,1.43,0,0,1-.37-.44,1.53,1.53,0,0,1-.17-.55,1.56,1.56,0,0,1,0-.57,1.49,1.49,0,0,1,1.86-1,1.44,1.44,0,0,1,1,1.82,1.48,1.48,0,0,1-.37.61,1.49,1.49,0,0,1-.62.36V8.11s2.33.57,3.07,1.43l3.77-2.11a1.61,1.61,0,0,1,0-.62,1.68,1.68,0,0,1,.65-1,1.51,1.51,0,0,1,.57-.24,1.59,1.59,0,0,1,1.92,1.17,1.61,1.61,0,0,1,0,.62,1.68,1.68,0,0,1-.65,1,1.51,1.51,0,0,1-.57.24,1.55,1.55,0,0,1-.77,0,1.58,1.58,0,0,1-.68-.38L16,10.29a3.48,3.48,0,0,1,.27.67,2.73,2.73,0,0,1,.95,3.5l2.47,1.4a1.61,1.61,0,0,1,.91-.4,1.55,1.55,0,0,1,1.52,2.34ZM3.16,16.32a.7.7,0,0,0-.47.19.6.6,0,0,0-.14.21.58.58,0,0,0,0,.26.67.67,0,0,0,1.33,0,.73.73,0,0,0-.08-.33.72.72,0,0,0-.25-.24A.67.67,0,0,0,3.16,16.32ZM12.62,2a.57.57,0,0,0-.06-.25.6.6,0,0,0-.14-.21.86.86,0,0,0-.22-.15.73.73,0,0,0-.25,0,.59.59,0,0,0-.47.19.63.63,0,0,0-.2.46A.66.66,0,0,0,12,2.7a.7.7,0,0,0,.47-.19A.72.72,0,0,0,12.62,2Zm8.15,5.7a.66.66,0,0,0,.67-.66.53.53,0,0,0-.05-.25.64.64,0,0,0-.14-.22.7.7,0,0,0-.48-.19.7.7,0,0,0-.47.19.68.68,0,0,0-.19.47.65.65,0,0,0,.2.47A.66.66,0,0,0,20.77,7.74ZM3.48,6.48A.7.7,0,0,0,3,6.41a.69.69,0,0,0-.4.31A.68.68,0,0,0,2.49,7a.66.66,0,0,0,.13.48.65.65,0,0,0,.2.17.62.62,0,0,0,.5.06.61.61,0,0,0,.4-.3.58.58,0,0,0,.09-.25.71.71,0,0,0,0-.25.57.57,0,0,0-.12-.23A.58.58,0,0,0,3.48,6.48ZM21,16.45a.64.64,0,0,0-.33-.1.81.81,0,0,0-.34.08.67.67,0,0,0-.25.25A.63.63,0,0,0,20,17a.66.66,0,0,0,.09.33.72.72,0,0,0,.25.24.59.59,0,0,0,.34.08.63.63,0,0,0,.33-.09.69.69,0,0,0,.25-.23.75.75,0,0,0,.09-.25.71.71,0,0,0,0-.25.84.84,0,0,0-.12-.23A.53.53,0,0,0,21,16.45Zm-9.76,5.47a.63.63,0,0,0,0,.27.76.76,0,0,0,.13.23.65.65,0,0,0,.21.16.9.9,0,0,0,.27.07.7.7,0,0,0,.44-.16.71.71,0,0,0,.25-.4.72.72,0,0,0-.13-.49.73.73,0,0,0-.44-.25.68.68,0,0,0-.48.12.62.62,0,0,0-.27.43s0,0,0,0Zm3.84-10.13,0-.24a.84.84,0,0,0-.05-.17s0-.05,0-.07l-.06-.2h0A2.77,2.77,0,0,0,14.16,10h0a.8.8,0,0,0-.21-.15h0l-.2-.13h0l-.22-.1,0,0-.24-.09h0A1.83,1.83,0,0,0,13,9.38h0l-.26-.05h0a2.75,2.75,0,0,0-1.36.16l-.05,0-.24.1-.11,0a.76.76,0,0,0-.11.08l-.16.1,0,0-.18.14-.06.06a1.49,1.49,0,0,0-.17.18,1.72,1.72,0,0,0-.39,0,.16.16,0,0,0-.1,0,2.19,2.19,0,0,0-1.05.32,2.11,2.11,0,0,0-.74.8l0,0a1.08,1.08,0,0,0-.08.19.13.13,0,0,1,0,.05,1.09,1.09,0,0,0-.05.17s0,0,0,.07l0,.17s0,0,0,.08a1,1,0,0,0,0,.24,1.27,1.27,0,0,0,0,.2s0,0,0,.08,0,.08,0,.12a.64.64,0,0,0,0,.09.29.29,0,0,1,0,.09.18.18,0,0,0,0,.1.21.21,0,0,0,0,.07s0,.07,0,.11,0,0,0,0a1.85,1.85,0,0,0,.74.85,2.42,2.42,0,0,0,.49.23l.21.05,0,0,.19,0h.28a2.05,2.05,0,0,0,.83-.17l.19.13h0l.18.09h0a2.83,2.83,0,0,0,2,.2h0a1.31,1.31,0,0,0,.28-.09l.29-.13a1.62,1.62,0,0,0,1,.33h.27a1.33,1.33,0,0,0,.4-.12h0l.18-.09a1.8,1.8,0,0,0,.44-.43,1.51,1.51,0,0,0,.24-.57v0s0-.09,0-.13,0-.1,0-.16a1.55,1.55,0,0,0-1.1-1.5Z"/></svg>