<svg id="Слой_1" data-name="Слой 1" xmlns="http://www.w3.org/2000/svg" viewBox="0 0 24 24"><title>STXМонтажная область 1</title><path d="M12,24A12,12,0,1,0,0,12,12,12,0,0,0,12,24ZM22.56,9.32v.41h0A2.27,2.27,0,0,0,20.3,12,2.29,2.29,0,0,0,21,13.6a2.31,2.31,0,0,0,1.61.66v.41a2.67,2.67,0,0,1-2.67-2.48,2.69,2.69,0,0,1-2.67,2.48v-.41a2.27,2.27,0,1,0,0-4.53V9.32a2.67,2.67,0,0,1,2.66,2.48,2.67,2.67,0,0,1,2.67-2.48Zm-14.31,5v.31h-.4V12h.39Zm3.87-4.59a2.63,2.63,0,0,1,1.48-.45A2.67,2.67,0,1,1,11.13,11,2.64,2.64,0,0,1,12.12,9.77ZM12,13.6A2.28,2.28,0,1,0,11.34,12,2.29,2.29,0,0,0,12,13.6ZM4.48,10.1a2.71,2.71,0,0,1,1.89-.78H9.81v.41H6.37A2.29,2.29,0,0,0,4.11,12a2.71,2.71,0,0,1-.78,1.9,2.71,2.71,0,0,1-1.9.78v-.41A2.24,2.24,0,0,0,3,13.59,2.24,2.24,0,0,0,3.7,12,2.71,2.71,0,0,1,4.48,10.1Z"/></svg>