<svg id="Слой_1" data-name="Слой 1" xmlns="http://www.w3.org/2000/svg" viewBox="0 0 24 24"><title>SUBМонтажная область 1</title><path d="M7.58.06,3.11,3.41A.34.34,0,0,0,3,3.5a.31.31,0,0,0,0,.13.24.24,0,0,0,0,.12.27.27,0,0,0,.08.1L20.67,17l-1,.75a.3.3,0,0,0-.08.08.29.29,0,0,0,0,.1.21.21,0,0,0,0,.11.31.31,0,0,0,.05.1.27.27,0,0,0,.08.07l.1,0h.11a.19.19,0,0,0,.1-.05l1.29-1a.19.19,0,0,0,.08-.1.28.28,0,0,0,0-.13.27.27,0,0,0,0-.12.16.16,0,0,0-.08-.1L3.74,3.63l4-3L9,1.55a.31.31,0,0,0,.21.05.27.27,0,0,0,.18-.11.24.24,0,0,0,.05-.2.32.32,0,0,0-.1-.19l-1.4-1A.27.27,0,0,0,7.74,0a.23.23,0,0,0-.16.06ZM12,.06,6.27,4.38a.29.29,0,0,0-.11.19.25.25,0,0,0,.06.2.27.27,0,0,0,.18.11.31.31,0,0,0,.21,0l5.6-4.2L20.3,6.7H16.76L11,2.36a.23.23,0,0,0-.21,0,.29.29,0,0,0-.18.1.27.27,0,0,0-.05.21.29.29,0,0,0,.1.18L16.5,7.2a.34.34,0,0,0,.17,0h4.46a.26.26,0,0,0,.17,0,.3.3,0,0,0,.1-.14.25.25,0,0,0,0-.17.33.33,0,0,0-.1-.14L12.37.06A.25.25,0,0,0,12.21,0,.27.27,0,0,0,12,.06ZM4.35,5.83l-1.24.92a.39.39,0,0,0-.08.1A.28.28,0,0,0,3,7,.27.27,0,0,0,3,7.1a.39.39,0,0,0,.08.1L20.67,20.37l-4,3-1.12-.84a.26.26,0,0,0-.21-.05.27.27,0,0,0-.18.11.24.24,0,0,0-.06.2.29.29,0,0,0,.11.19l1.29,1a.31.31,0,0,0,.34,0L21.3,20.6a.28.28,0,0,0,.09-.1.28.28,0,0,0,0-.13.27.27,0,0,0,0-.12.28.28,0,0,0-.09-.1L3.74,7l.94-.7a.27.27,0,0,0,.07-.08.49.49,0,0,0,0-.11.34.34,0,0,0,0-.1.3.3,0,0,0,0-.1.28.28,0,0,0-.39-.06ZM3.28,16.74a.34.34,0,0,0-.17.05.45.45,0,0,0-.1.14.25.25,0,0,0,0,.17.31.31,0,0,0,.1.15L12,23.94a.27.27,0,0,0,.34,0l5.75-4.32a.27.27,0,0,0,.11-.18.31.31,0,0,0,0-.21.29.29,0,0,0-.19-.11.25.25,0,0,0-.2.06l-5.59,4.19L4.12,17.3H7.65l5.72,4.29.1.05h.11a.19.19,0,0,0,.1,0,.27.27,0,0,0,.08-.07.47.47,0,0,0,.05-.1.21.21,0,0,0,0-.11.17.17,0,0,0,0-.1.3.3,0,0,0-.08-.08L7.91,16.8a.27.27,0,0,0-.17-.06Z"/></svg>