<svg id="Слой_1" data-name="Слой 1" xmlns="http://www.w3.org/2000/svg" viewBox="0 0 24 24"><title>SWFTCМонтажная область 1</title><path d="M8.19,18.1a3.42,3.42,0,0,0,6-1.54l.06,0V8.76a2.8,2.8,0,0,1,1.47-2.47,3.43,3.43,0,0,0-6,1.32v8A2.78,2.78,0,0,1,8.19,18.1Z"/><path d="M15.42,14.65a4.68,4.68,0,1,0,6.06-6.72,4.18,4.18,0,0,1,.41,4.49,4,4,0,0,0,.18-1.2,4,4,0,0,0-3.24-3.93,3.29,3.29,0,0,1-.2,5.39A2.79,2.79,0,0,0,16.77,7.8a2.75,2.75,0,0,0-1.34.34A2.16,2.16,0,0,1,16.24,8a2.27,2.27,0,1,1,0,4.53,2.23,2.23,0,0,1-1.58-.65,1.48,1.48,0,0,0,0,.21,4.56,4.56,0,0,0,.29,1.62A4.24,4.24,0,0,0,15.42,14.65Z"/><path d="M4.67,16.76a4.66,4.66,0,0,0,3.91-2.11,4.17,4.17,0,0,0,.48-.94,4.55,4.55,0,0,0,.29-1.61,1.62,1.62,0,0,0,0-.22,2.23,2.23,0,0,1-1.58.65A2.26,2.26,0,1,1,7.76,8a2.16,2.16,0,0,1,.81.15,2.75,2.75,0,0,0-1.34-.34,2.78,2.78,0,0,0-1.86,4.87,3.28,3.28,0,0,1-.2-5.38,4,4,0,0,0-3.24,3.92,4,4,0,0,0,.18,1.2A4.14,4.14,0,0,1,2.52,8a4.66,4.66,0,0,0,2.15,8.8Z"/></svg>