<svg id="Слой_1" data-name="Слой 1" xmlns="http://www.w3.org/2000/svg" viewBox="0 0 24 24"><title>TAUМонтажная область 1</title><path d="M2.51,9.21,0,11.75H5ZM5,12.27H0l2.51,2.52ZM8.47,8.85,5.94,6.32v5ZM5.41,11.36v-5L2.9,8.85ZM8.83,8.47,11.36,6h-5Zm0-5.57L6.32,5.43h5Zm6-.37L12.25,0V5ZM11.73,5V0L9.21,2.53ZM8.47,15.17,5.94,12.64v5Zm-5.57,0,2.51,2.51v-5Zm12.25-6.7L17.68,6h-5Zm-2.51-3h5L15.15,2.89ZM11.36,18.59h-5L8.83,21.1ZM8.83,15.53,6.32,18.06h5ZM21.11,8.85,18.57,6.32v5Zm-5.58,0,2.52,2.51v-5ZM9.21,21.49,11.73,24V19Zm3-2.53v5l2.53-2.51Zm2.89,2.14,2.53-2.51h-5Zm0-5.57-2.51,2.53h5Zm3.42-2.89v5l2.54-2.51Zm-3,2.53,2.52,2.51v-5Zm5.94-.38L24,12.27H19Zm0-5.58L19,11.75h5Z"/></svg>