<svg id="Слой_1" data-name="Слой 1" xmlns="http://www.w3.org/2000/svg" xmlns:xlink="http://www.w3.org/1999/xlink" viewBox="0 0 24 24"><defs><style>.cls-1{fill:none;}.cls-2{clip-path:url(#clip-path);}</style><clipPath id="clip-path"><rect class="cls-1" width="24" height="24"/></clipPath></defs><title>TELМонтажная область 1</title><g class="cls-2"><path d="M22.9,6.57,15.63.67A3.55,3.55,0,0,0,12.57.15L3.66,3.27a3.37,3.37,0,0,0-2,2.3L0,14.6A3.29,3.29,0,0,0,1.1,17.43l7.27,5.9a3.55,3.55,0,0,0,3.06.52l8.91-3.12a3.37,3.37,0,0,0,2-2.3L24,9.4A3.34,3.34,0,0,0,22.9,6.57Zm-7.58,4.06H11.93l-.63,3.2c-.2,1-.26,1.54.76,1.54h2.3l-.48,2H11.13c-1.62,0-2.68-1.51-2.25-3.65.17-.84.67-3.11.67-3.11H8.06l.31-1.58a6.93,6.93,0,0,0,3.3-2.67h1.1L12.29,8.8h3.39Z"/></g></svg>