<svg id="Слой_1" data-name="Слой 1" xmlns="http://www.w3.org/2000/svg" xmlns:xlink="http://www.w3.org/1999/xlink" viewBox="0 0 24 24"><defs><style>.cls-1{fill:none;}.cls-2{clip-path:url(#clip-path);}</style><clipPath id="clip-path"><rect class="cls-1" width="24" height="24"/></clipPath></defs><title>TIXМонтажная область 1</title><g class="cls-2"><path d="M0,6.46V7.84a.47.47,0,0,0,.46.47H6.84c.93,0,1.39.42,1.39,1.27,0,.61-.46,1-1.39,1.15H.46a.33.33,0,0,0-.17,0,.39.39,0,0,0-.16.1A.56.56,0,0,0,0,11a.52.52,0,0,0,0,.18v1.38A.47.47,0,0,0,.46,13H6.84c1.31.08,2,.54,2,1.38s-.66,1.27-2,1.27H.46a.43.43,0,0,0-.32.14.45.45,0,0,0-.14.33v1.38A.47.47,0,0,0,.46,18H6.84c1.86,0,4.64-.57,4.64-3.46a3,3,0,0,0-1.62-2.77A3.06,3.06,0,0,0,11,9.46C11,7.44,9.28,6,6.49,6h-6a.43.43,0,0,0-.32.14A.43.43,0,0,0,0,6.46Zm12.52,0V7.84a.47.47,0,0,0,.47.47h3.47a.47.47,0,0,1,.47.46v8.77a.47.47,0,0,0,.46.46h1.74a.57.57,0,0,0,.18,0,.56.56,0,0,0,.15-.1.54.54,0,0,0,.1-.16.47.47,0,0,0,0-.17V6.46a.47.47,0,0,0,0-.17.4.4,0,0,0-.1-.15A.42.42,0,0,0,19.31,6a.57.57,0,0,0-.18,0H13a.57.57,0,0,0-.18,0,.42.42,0,0,0-.15.11.4.4,0,0,0-.1.15A.33.33,0,0,0,12.52,6.46ZM21.22,6a.45.45,0,0,0-.33.14.43.43,0,0,0-.14.32V7.84a.47.47,0,0,0,.47.47h2.32a.43.43,0,0,0,.32-.14A.44.44,0,0,0,24,7.84V6.46a.47.47,0,0,0,0-.17.42.42,0,0,0-.11-.15.31.31,0,0,0-.15-.1.33.33,0,0,0-.17,0Z"/></g></svg>