<svg id="Слой_1" data-name="Слой 1" xmlns="http://www.w3.org/2000/svg" viewBox="0 0 24 24"><title>TNBМонтажная область 1</title><path d="M11.56,7.39,11.64,7h-8L1.27,16.82H3.88l1.8-8h3.2L7,16.82H9.35l1.87-8h0l.28-1.34,0-.14ZM16.08,7,13.7,16.74h5a6.2,6.2,0,0,0,1.76-.26,2.94,2.94,0,0,0,2.28-2.23h.72l.23-.94h-.87s.08-1.4-1.74-1.63c0,0,1.58-.47,1.82-1.33h.79L24,9.42h-.87S23.44,7.16,20,7ZM2.53,8.87,3,7H.48L0,8.87Zm10.86,6.86.87-4L12.2,7.16l-.87,3.74Zm6.06-4.83h-2l.47-2.11h1.55a1.06,1.06,0,0,1,.75.31,1,1,0,0,1,.31.74,1.06,1.06,0,0,1-1.06,1.06Zm-.54,4H16.48l.58-2.42h1.85a1.21,1.21,0,1,1,0,2.42Z"/></svg>