<svg width="24" height="24" viewBox="0 0 24 24" xmlns="http://www.w3.org/2000/svg">
<path d="M19.5189 7.73124C18.7889 7.22087 18.0085 6.6763 17.2452 6.13714C17.2276 6.12356 17.2093 6.11094 17.1904 6.09933C17.1006 6.02677 16.9993 5.96987 16.8906 5.93101H16.8825C14.841 5.43775 12.7654 4.93098 10.7617 4.44222L5.29896 3.11365L5.15583 3.07585C4.97691 3.01431 4.78735 2.98981 4.59867 3.00384C4.54307 3.01213 4.48994 3.0324 4.44295 3.06325L4.39254 3.10556C4.32873 3.17006 4.27987 3.24781 4.24942 3.33328L4.23682 3.36658V3.56101L4.24492 3.59071C5.39616 6.81762 6.57801 10.0913 7.71665 13.2588C8.59426 15.6972 9.50519 18.2239 10.3954 20.7046C10.426 20.7884 10.4809 20.8612 10.553 20.9138C10.6251 20.9664 10.7113 20.9963 10.8004 20.9998H10.8428C10.9274 21.0022 11.0112 20.982 11.0854 20.9412C11.1597 20.9003 11.2216 20.8404 11.2649 20.7676L14.6061 15.8953C15.4204 14.7101 16.2344 13.5235 17.0481 12.3353C17.3812 11.8502 17.7142 11.3605 18.0482 10.8753C18.5963 10.0742 19.1616 9.24703 19.7233 8.44503L19.753 8.40272V8.35231C19.7738 8.23923 19.7636 8.12264 19.7235 8.01489C19.6834 7.90713 19.6149 7.81223 19.5252 7.74024L19.5189 7.73124ZM15.6106 9.51616C14.8258 9.92571 14.0247 10.347 13.2191 10.7646L14.6277 9.25422C15.2137 8.62415 15.8258 7.96796 16.428 7.32618L16.4406 7.31358C16.4959 7.2435 16.5561 7.17733 16.6206 7.11556C16.6674 7.06875 16.7178 7.02555 16.7637 6.96794C17.076 7.18307 17.3938 7.40269 17.6962 7.61782C17.9158 7.77384 18.1394 7.92986 18.3668 8.08588C17.4388 8.55844 16.5108 9.0436 15.6124 9.51616H15.6106ZM13.5962 9.31363C12.9931 9.96712 12.3684 10.6386 11.7483 11.3002C10.5457 9.8402 9.31796 8.36041 8.12891 6.93013L6.5087 4.97689C6.38629 4.83737 6.26838 4.68615 6.14866 4.54213C6.07305 4.44492 5.99294 4.35221 5.91283 4.255C6.40249 4.38191 6.89575 4.49983 7.38091 4.61504C7.80666 4.71585 8.24953 4.82207 8.68428 4.93099L16.0283 6.71501C15.2182 7.58362 14.3955 8.46572 13.6025 9.31813L13.5962 9.31363ZM11.4809 17.5398C11.5277 17.0969 11.5781 16.6397 11.6204 16.1941C11.6583 15.8341 11.6961 15.4686 11.7348 15.114C11.7942 14.5532 11.8572 13.9708 11.9076 13.4037L11.9202 13.3029C11.9625 12.9429 12.0048 12.5648 12.03 12.1895C12.0791 12.1622 12.1299 12.1381 12.1821 12.1175C12.247 12.0909 12.3104 12.0608 12.372 12.0275C13.3466 11.5168 14.3223 11.0067 15.2992 10.4973C16.274 9.99142 17.2732 9.46755 18.2651 8.94909C17.365 10.257 16.4559 11.5774 15.5782 12.8637C14.8231 13.9645 14.0481 15.0996 13.2749 16.2175C12.9715 16.6676 12.6547 17.1176 12.3549 17.5587C12.0174 18.0483 11.6718 18.5488 11.3342 19.052C11.3765 18.5461 11.4242 18.0357 11.4818 17.538L11.4809 17.5398ZM5.58159 5.23882C5.52668 5.0867 5.46728 4.93099 5.41687 4.78337C6.55551 6.15874 7.70315 7.54221 8.8211 8.88338C9.39897 9.57917 9.97684 10.2714 10.5547 10.9716C10.669 11.1022 10.7824 11.2417 10.8923 11.3767C11.0354 11.5495 11.1794 11.7313 11.3351 11.9042C11.2847 12.3389 11.2451 12.7773 11.1956 13.1994C11.1659 13.4947 11.1362 13.7899 11.1056 14.0896C11.093 14.2796 11.0678 14.4695 11.0462 14.6549C11.0165 14.9123 10.949 15.4947 10.949 15.4947V15.5244C10.8734 16.3768 10.7806 17.2346 10.6915 18.0726C10.6537 18.4183 10.6195 18.7729 10.5817 19.1276C10.561 19.0646 10.5349 19.0007 10.5142 18.9421C10.4512 18.7738 10.3873 18.5965 10.3288 18.4237L9.87873 17.1707C8.44875 13.1928 7.01877 9.21492 5.58879 5.23702"/>
</svg>
