<svg id="Слой_1" data-name="Слой 1" xmlns="http://www.w3.org/2000/svg" viewBox="0 0 24 24"><title>TRXМонтажная область 1</title><path d="M21.9,6.31l-3-2.13-.07,0a1.41,1.41,0,0,0-.4-.22h0l-8.16-2L2.94.15l-.2,0A1.84,1.84,0,0,0,2,0a.58.58,0,0,0-.21.07L1.73.14a.8.8,0,0,0-.19.3l0,0v.3c1.53,4.3,3.11,8.67,4.63,12.89l3.57,9.93a.63.63,0,0,0,.21.28.57.57,0,0,0,.33.11h.06a.61.61,0,0,0,.32-.08.59.59,0,0,0,.24-.23l4.45-6.5,3.26-4.74,1.33-1.95c.74-1.07,1.49-2.17,2.24-3.24l0-.06V7.14a.86.86,0,0,0,0-.45.91.91,0,0,0-.27-.37ZM16.68,8.69,13.5,10.35l1.87-2,2.4-2.57,0,0A2,2,0,0,1,18,5.49c.06-.07.13-.12.19-.2l1.24.87.9.62c-1.24.63-2.48,1.28-3.67,1.91ZM14,8.42l-2.47,2.65c-1.6-2-3.24-3.92-4.82-5.83L4.55,2.64l-.48-.58-.32-.39,2,.48,1.74.42L17.24,5,14,8.42Zm-2.82,11c.06-.59.13-1.2.18-1.8s.1-1,.16-1.44c.08-.75.16-1.52.23-2.28v-.13c.06-.48.12-1,.15-1.49a1.76,1.76,0,0,1,.2-.09l.26-.12,3.9-2,3.95-2.07-3.58,5.22-3.07,4.47c-.4.6-.83,1.2-1.23,1.79s-.91,1.32-1.36,2c.06-.67.12-1.35.2-2ZM3.31,3c-.07-.21-.15-.42-.22-.61C4.61,4.21,6.14,6.06,7.63,7.84l2.31,2.79c.16.17.31.36.45.54l.59.7c-.06.58-.12,1.17-.18,1.73l-.12,1.19c0,.25,0,.5-.08.75l-.13,1.12v0c-.1,1.14-.23,2.28-.34,3.4-.06.46-.1.93-.15,1.4,0-.08-.06-.17-.09-.24-.09-.23-.17-.46-.25-.7L9,18.89Q6.18,10.94,3.32,3"/></svg>