<svg id="Слой_1" data-name="Слой 1" xmlns="http://www.w3.org/2000/svg" viewBox="0 0 24 24"><title>TSLМонтажная область 1</title><path d="M7.28,24V22.69a4.69,4.69,0,0,1,.91-.82h7.4a4.45,4.45,0,0,1,1.09,1V24Zm0-4.25V18.53a4.56,4.56,0,0,1,1-1h7.26a5.08,5.08,0,0,1,1.1,1.07v1.13ZM6.1,7.58a1.26,1.26,0,0,1-.38.27,1.23,1.23,0,0,1-.46.1,1.21,1.21,0,0,1-.85-.37L2.75,5.82A1.31,1.31,0,0,1,2.75,4a1.17,1.17,0,0,1,.85-.37,1.09,1.09,0,0,1,.46.1A1.1,1.1,0,0,1,4.44,4L6.1,5.8a1.28,1.28,0,0,1,.35.89A1.3,1.3,0,0,1,6.1,7.58ZM12,5a1.47,1.47,0,0,1-.47-.11,1.21,1.21,0,0,1-.39-.28,1.16,1.16,0,0,1-.25-.41,1.09,1.09,0,0,1-.08-.47V1.26a1.1,1.1,0,0,1,.07-.48,1.16,1.16,0,0,1,.25-.41A1.05,1.05,0,0,1,11.5.1,1.1,1.1,0,0,1,12,0a1,1,0,0,1,.47.1,1.09,1.09,0,0,1,.4.27,1.33,1.33,0,0,1,.25.41,1.27,1.27,0,0,1,.07.48V3.74a1.26,1.26,0,0,1-.08.47,1.16,1.16,0,0,1-.25.41,1.21,1.21,0,0,1-.39.28A1.47,1.47,0,0,1,12,5Zm9.24-1a1.31,1.31,0,0,1,0,1.78L19.56,7.55a1.21,1.21,0,0,1-.39.28,1.18,1.18,0,0,1-.46.09,1.22,1.22,0,0,1-.46-.09,1.3,1.3,0,0,1-.38-2.06L19.53,4a1.29,1.29,0,0,1,.38-.28,1.25,1.25,0,0,1,.93,0A1.29,1.29,0,0,1,21.22,4Zm-4.54,9.79v1.28H7.28V13.74l1.37-.8h6.67ZM12,6.26a7.33,7.33,0,0,1,7.12,7.52c0,.44,0,.88,0,1.31h-2s.05-1.22.05-1.31c0-2.77-2.34-5.47-5.12-5.41a5.4,5.4,0,0,0-5.12,5.41c0,.07.06,1.31.06,1.31h-2a9.52,9.52,0,0,1,0-1.31A7.33,7.33,0,0,1,12,6.26Z"/></svg>