<svg id="Слой_1" data-name="Слой 1" xmlns="http://www.w3.org/2000/svg" viewBox="0 0 24 24"><title>TUSDМонтажная область 1</title><path d="M12.52,1.76A12.81,12.81,0,0,1,23.9,8.14,11.55,11.55,0,0,0,12.52,0C4.18,0,0,6.07,0,11.37a8.93,8.93,0,0,0,9,9.35,7.92,7.92,0,0,0,6-2.43,9.72,9.72,0,0,0,2.28-6.77v-1.3H15.35v1.3A7.82,7.82,0,0,1,13.58,17,6,6,0,0,1,9,18.78c-3.92,0-7.09-2.87-7.09-7.41C1.94,7,5.36,1.76,12.52,1.76Z"/><path d="M21.52,14a7.14,7.14,0,0,0-7.14-7.14V4.88A9.09,9.09,0,0,1,23.46,14,10.71,10.71,0,0,1,19,22C16.05,24.2,10.56,25,5.6,22.2c6.26,1.49,10.33.06,12.64-1.67A8.4,8.4,0,0,0,21.52,14Z"/><path d="M14.38,4.88H5.78v7.29H9.92v5c1.08,0,1.94-1.33,1.94-2.4V10.24H7.72V6.82h6.66Z"/></svg>