<svg id="Слой_1" data-name="Слой 1" xmlns="http://www.w3.org/2000/svg" viewBox="0 0 24 25"><title>UCASHМонтажная область 1</title><path d="M0,12.82,6.15,19a3.36,3.36,0,0,0,2.92.95,8.64,8.64,0,0,0,2.36-.73A9,9,0,0,1,9,17l-.4.08a.52.52,0,0,1-.44-.15L2,10.78Z"/><path d="M12.35,14.76a5.58,5.58,0,0,0,1-2.42.46.46,0,0,0-.14-.43L7.06,5.76l2-2,6.14,6.15a3.36,3.36,0,0,1,1,2.92,8.52,8.52,0,0,1-1.43,3.56A5.14,5.14,0,0,1,12.35,14.76Z"/><path d="M8.76,9.87l.8-.81,2,2-.8.81a.46.46,0,0,0-.14.43,5.69,5.69,0,0,0,4.72,4.73.52.52,0,0,0,.44-.15L22,10.78l2,2L17.85,19a3.36,3.36,0,0,1-2.92.95,8.55,8.55,0,0,1-7.12-7.12A3.36,3.36,0,0,1,8.76,9.87Z"/><path d="M16.94,5.76,14.43,8.27l-2-2L14.9,3.72Z"/></svg>