<svg id="Слой_1" data-name="Слой 1" xmlns="http://www.w3.org/2000/svg" viewBox="0 0 24 24"><title>UKGМонтажная область 1</title><path d="M15.63,11.39a.71.71,0,0,0-.12-.37.92.92,0,0,0-.79-.34s-.26,0-.3-.33a.13.13,0,0,1,0-.06.21.21,0,0,1,0-.06l6.91-5.7L9.08,9.27H0l6.86,5.14a4.59,4.59,0,0,1,3.53-1.31,2.25,2.25,0,0,0,1.91,2.32l.79.7a1,1,0,0,1,.21.25l.82,1.27h3l-.81-2.28a7.54,7.54,0,0,1-.3-1.13C15.89,13.41,15.66,12,15.63,11.39Zm-.71,1.51-1.1-.5a2.93,2.93,0,0,0,.1-1.21A1.63,1.63,0,0,1,14.92,12.9Z"/><path d="M19,23.29,11.7,18,4.44,23.39l2.31-7.21A3,3,0,0,1,9.68,14a4.7,4.7,0,0,0,1.71,1.91,3.27,3.27,0,0,1,1.42,1.62l1,1h3.63ZM15.83,10.18l1-.91H24l-7.06,4.94a19.68,19.68,0,0,1-.5-3.23C16.44,9.87,16.44,10.78,15.83,10.18ZM11.7,1,9.38,8.26l4.33-1.71Z"/></svg>