<svg id="Слой_1" data-name="Слой 1" xmlns="http://www.w3.org/2000/svg" viewBox="0 0 24 24"><title>VENМонтажная область 1</title><path d="M10.32,22.34.05,1.43a.53.53,0,0,1,0-.25A.49.49,0,0,1,.08.94.62.62,0,0,1,.26.76.54.54,0,0,1,.51.7H4.06a.5.5,0,0,1,.27.07.52.52,0,0,1,.19.2L12,16.14a1.79,1.79,0,0,0,1.63,1,1.84,1.84,0,0,0,1-.27,1.8,1.8,0,0,0,.67-.75L22.76,1A.48.48,0,0,1,23,.78a.6.6,0,0,1,.27-.07h.44a.37.37,0,0,1,.17.05A.34.34,0,0,1,24,.88a.32.32,0,0,1,0,.33L13.59,22.34a1.84,1.84,0,0,1-.67.74,1.81,1.81,0,0,1-1,.27,1.8,1.8,0,0,1-1.64-1Z"/></svg>