<svg id="Слой_1" data-name="Слой 1" xmlns="http://www.w3.org/2000/svg" xmlns:xlink="http://www.w3.org/1999/xlink" viewBox="0 0 24 24"><defs><style>.cls-1{fill:none;}.cls-2{clip-path:url(#clip-path);}</style><clipPath id="clip-path"><rect class="cls-1" width="24" height="24"/></clipPath></defs><title>VERIМонтажная область 1</title><g class="cls-2"><path d="M0,2.4H0L4.23,21.24H9L13.24,2.4H9.39L7.11,14c-.17.79-.29,1.58-.49,2.36,0-.19-.1-.39-.14-.59L4,2.4ZM14.78,8.32h0a7.34,7.34,0,0,0-1.33,4.18,26.12,26.12,0,0,0,.1,4.51,5.45,5.45,0,0,0,1.65,3.51,5.75,5.75,0,0,0,4,1.07,4.57,4.57,0,0,0,3.45-1.51,6,6,0,0,0,1.14-3.62H20.6a4.16,4.16,0,0,1-.76,2.2,1.54,1.54,0,0,1-1.59.38,1.8,1.8,0,0,1-1-1.18A9.37,9.37,0,0,1,17,14.69h7a19.78,19.78,0,0,0-.32-4.28A4.71,4.71,0,0,0,22,7.49a5.69,5.69,0,0,0-3.72-.78A4.72,4.72,0,0,0,14.78,8.32Zm2.73,1.49h0a1.58,1.58,0,0,1,2.64.11,6.76,6.76,0,0,1,.44,2.61H17A4.57,4.57,0,0,1,17.51,9.81Z"/></g></svg>