<svg id="Слой_1" data-name="Слой 1" xmlns="http://www.w3.org/2000/svg" viewBox="0 0 24 24"><title>VIBEМонтажная область 1</title><path d="M20,12.5l-1.32-.32L24,4.12H20.41c-.17,0-.23.08-.31.2l-6.34,9.56c-.57.88-1.16,1.75-1.76,2.66a1.24,1.24,0,0,1-.14-.18q-3.93-6-7.87-12a.44.44,0,0,0-.16-.17.51.51,0,0,0-.22,0H.36l-.25,0c1.76,2.67,3.47,5.3,5.21,8l-.14,0c-.81.2-1.62.38-2.41.63A5.46,5.46,0,0,0,.58,13.87,1.23,1.23,0,0,0,.63,16a.31.31,0,0,0,.09.07,6.06,6.06,0,0,0,1.87,1,24.57,24.57,0,0,0,6.59,1.21.47.47,0,0,1,.2.06.38.38,0,0,1,.14.14C10.33,19.7,11.16,21,12,22.2a1.38,1.38,0,0,1,.17-.25c.79-1.17,1.56-2.34,2.35-3.52l.11-.11a.34.34,0,0,1,.15-.07c1.13-.14,2.26-.23,3.37-.4a14,14,0,0,0,4-1.17,3.28,3.28,0,0,0,1.31-1,1,1,0,0,0,0-1.49,5.34,5.34,0,0,0-1-.74,9.52,9.52,0,0,0-2.51-1ZM3.48,14.76a.62.62,0,0,1-.18-.44.61.61,0,0,1,.19-.44,2.87,2.87,0,0,1,.74-.6,10.83,10.83,0,0,1,1.33-.53h.13a.41.41,0,0,1,.11.07c.78,1.18,1.55,2.36,2.33,3.53,0,0,0,0,0,.12a11.89,11.89,0,0,1-3.9-1.08A3,3,0,0,1,3.48,14.76Zm15.12,1c-.83.24-1.69.43-2.53.63a.88.88,0,0,1-.23,0l.87-1.32c.46-.69.92-1.38,1.37-2.07.09-.13.18-.19.32-.11.42.2.86.4,1.27.61a1.64,1.64,0,0,1,.33.26A.78.78,0,0,1,20,15,3.15,3.15,0,0,1,18.6,15.77ZM18.61,3H5.37L12,13.48Z"/></svg>