<svg id="Слой_1" data-name="Слой 1" xmlns="http://www.w3.org/2000/svg" viewBox="0 0 24 24"><title>VZTМонтажная область 1</title><path d="M0,2.2a1.2,1.2,0,1,1,2.4,0V5.8A1.2,1.2,0,1,1,0,5.8Z"/><path d="M21.6,2.2a1.2,1.2,0,1,1,2.4,0V5.8a1.2,1.2,0,1,1-2.4,0Z"/><path d="M4.8,1A1.2,1.2,0,0,0,3.6,2.2v9.6a1.2,1.2,0,0,0,2.4,0V2.2A1.2,1.2,0,0,0,4.8,1Z"/><path d="M18,2.2a1.2,1.2,0,1,1,2.4,0v9.6a1.2,1.2,0,0,1-2.4,0Z"/><path d="M8.4,5.8A1.2,1.2,0,0,0,7.2,7v9.6a1.2,1.2,0,1,0,2.4,0V7A1.2,1.2,0,0,0,8.4,5.8Z"/><path d="M14.4,7a1.2,1.2,0,0,1,2.4,0v9.6a1.2,1.2,0,0,1-2.4,0Z"/><path d="M12,11.8A1.2,1.2,0,0,0,10.8,13v9.6a1.2,1.2,0,0,0,2.4,0V13A1.2,1.2,0,0,0,12,11.8Z"/></svg>