<svg id="Слой_1" data-name="Слой 1" xmlns="http://www.w3.org/2000/svg" viewBox="0 0 24 24"><title>XAURМонтажная область 1</title><path d="M3,.16A.16.16,0,0,1,3.27.05l8.59,8.59a.34.34,0,0,0,.46,0L20.91.05a.16.16,0,0,1,.27.11V5a.33.33,0,0,1-.09.23l-6.25,6.24a.33.33,0,0,1-.23.1h-5a.33.33,0,0,1-.23-.1L3.09,5.18A.33.33,0,0,1,3,5Z"/><path d="M21.18,23.84a.16.16,0,0,1-.27.11l-8.59-8.59a.34.34,0,0,0-.46,0L3.27,24A.16.16,0,0,1,3,23.84V19.05a.33.33,0,0,1,.09-.23l6.25-6.24a.33.33,0,0,1,.23-.1h5a.33.33,0,0,1,.23.1l6.25,6.24a.33.33,0,0,1,.09.23Z"/></svg>