<svg id="Слой_1" data-name="Слой 1" xmlns="http://www.w3.org/2000/svg" viewBox="0 0 24 24"><title>XINМонтажная область 1</title><path d="M16.85,14.63V9.47a.28.28,0,0,0,0-.15.38.38,0,0,0-.11-.11L12.23,6.63a.42.42,0,0,0-.15,0,.33.33,0,0,0-.14,0L7.46,9.21a.57.57,0,0,0-.11.11.42.42,0,0,0,0,.15v5.16a.42.42,0,0,0,0,.15.35.35,0,0,0,.11.1l4.48,2.59a.33.33,0,0,0,.14,0,.42.42,0,0,0,.15,0l4.47-2.59a.27.27,0,0,0,.11-.1.28.28,0,0,0,0-.15Z"/><path d="M4.65,19.34.47,21.44a.45.45,0,0,1-.16,0,.3.3,0,0,1-.16,0A.43.43,0,0,1,0,21.3a.42.42,0,0,1,0-.16V2.72a.37.37,0,0,1,0-.15.43.43,0,0,1,.11-.12A.3.3,0,0,1,.31,2.4a.45.45,0,0,1,.16,0l4.18,2.1a.51.51,0,0,1,.22.19A.6.6,0,0,1,5,5V18.86a.46.46,0,0,1-.08.28.47.47,0,0,1-.22.2Z"/><path d="M19.35,4.53l4.18-2.1a.45.45,0,0,1,.16,0,.3.3,0,0,1,.16.05.43.43,0,0,1,.11.12.29.29,0,0,1,0,.16V21.14a.29.29,0,0,1,0,.16.43.43,0,0,1-.11.12.3.3,0,0,1-.16,0,.45.45,0,0,1-.16,0l-4.18-2.1a.47.47,0,0,1-.22-.2.54.54,0,0,1-.08-.28V5a.54.54,0,0,1,.08-.28.47.47,0,0,1,.22-.2Z"/></svg>