<svg id="Слой_1" data-name="Слой 1" xmlns="http://www.w3.org/2000/svg" viewBox="0 0 24 25"><title>XPAМонтажная область 1</title><path d="M23.07,6.46,12.43,3.36,8.78,9.66l-4.23-5,1.92-.25,2,2.36,2.19-3.95L1,0a.78.78,0,0,0-.4,0,.77.77,0,0,0-.35.2A.75.75,0,0,0,0,.56.78.78,0,0,0,0,1L4.29,18.4l4.6-7.85,4.23,5-1.92.25-2-2.36L4.88,20.78l.65,2.63a.71.71,0,0,0,.19.35.75.75,0,0,0,.34.21.78.78,0,0,0,.4,0,.8.8,0,0,0,.35-.19l16.58-16a.78.78,0,0,0,.21-.35.77.77,0,0,0,0-.4.8.8,0,0,0-.19-.35A.84.84,0,0,0,23.07,6.46Z"/></svg>