<svg id="Слой_1" data-name="Слой 1" xmlns="http://www.w3.org/2000/svg" viewBox="0 0 24 24"><title>ZRXМонтажная область 1</title><path d="M12,0A11.5,11.5,0,0,1,18,1.7L13.94,4.5,10.66,6.8l-2-1.9A7.21,7.21,0,0,0,5.58,7.5L2.79,4.1A12.26,12.26,0,0,1,12,0ZM0,12A11.71,11.71,0,0,1,1.69,5.9L4.48,10l2.29,3.3-1.89,2a7.24,7.24,0,0,0,2.59,3.1L4.09,21.2A12.42,12.42,0,0,1,0,12ZM12,24a11.5,11.5,0,0,1-6.07-1.7L10,19.5l3.28-2.3,2,1.9a7.21,7.21,0,0,0,3.08-2.6l2.79,3.4a12.29,12.29,0,0,1-4.14,3A12.4,12.4,0,0,1,12,24ZM22.2,18.1,19.42,14l-2.29-3.3L19,8.7a7.24,7.24,0,0,0-2.59-3.1l3.38-2.8A11.9,11.9,0,0,1,24,11.9a12.88,12.88,0,0,1-1.79,6.2Z"/></svg>