<svg id="Слой_1" data-name="Слой 1" xmlns="http://www.w3.org/2000/svg" viewBox="0 0 24 24"><title>ZSCМонтажная область 1</title><path d="M10.91,1.44a.72.72,0,1,0-.53-.23L7.12,5.34l-.1,0,.81-3h.06a.72.72,0,1,0,0-1.44.72.72,0,0,0-.72.72.71.71,0,0,0,.42.65l-.8,3.05H6.53l-.84-2.6a.73.73,0,0,0-.34-1.37.73.73,0,0,0,0,1.45h.11L6.3,5.31a.76.76,0,0,0-.19.12L3.36,2.94a.67.67,0,0,0,.12-.39.72.72,0,0,0-.72-.72A.72.72,0,1,0,3.2,3.12L6,5.6a1.07,1.07,0,0,0-.12.27L4.36,5.69a.73.73,0,1,0,0,.24l1.47.18a.89.89,0,0,0,.12.43L4.12,8a.71.71,0,0,0-.49-.19.72.72,0,1,0,.73.72.78.78,0,0,0-.09-.34l1.8-1.41A.89.89,0,0,0,6.68,7,.81.81,0,0,0,7,6.92l4.26,5a1.14,1.14,0,0,0-.19.58L6.3,13.59l2-1.6A.72.72,0,1,0,8,11.44a.75.75,0,0,0,.1.36l-2,1.64a.89.89,0,0,0-.33-.19l.66-3.61h0a.74.74,0,1,0-.25-.05l-.65,3.62h0a.86.86,0,0,0-.43.11L3.7,11.53A.74.74,0,0,0,3.89,11a.73.73,0,0,0-1.45,0,.71.71,0,0,0,1.06.64l1.38,1.79a1,1,0,0,0-.24.5H2.43a.72.72,0,1,0,0,.24H4.64a.92.92,0,0,0,.38.61l-.91,1.86a.64.64,0,0,0-.2,0,.72.72,0,1,0,.72.72.75.75,0,0,0-.3-.59l.91-1.86a.81.81,0,0,0,.27.05h0l.69,4.2a.7.7,0,0,0-.49.68.72.72,0,1,0,.72-.72l-.68-4.2a1,1,0,0,0,.39-.25l2.08,1.44a.6.6,0,0,0-.07.3.72.72,0,1,0,.72-.72.73.73,0,0,0-.52.22L6.3,14.48a.89.89,0,0,0,.08-.29l4.81-1.12a1.13,1.13,0,0,0,.69.54l0,5.38-1.54-3.57a.76.76,0,0,0,.33-.61.73.73,0,1,0-.73.72l.18,0,1.61,3.74a.93.93,0,0,0-.34.37l-2.09-.7s0-.07,0-.11a.73.73,0,1,0-.72.73.72.72,0,0,0,.63-.39l2.1.7a.78.78,0,0,0,0,.16.81.81,0,0,0,.06.31L9.46,21.39a.74.74,0,0,0-.57-.28.73.73,0,1,0,.72.72.59.59,0,0,0,0-.23l1.94-1.07a.91.91,0,0,0,.58.35v1.69a.73.73,0,1,0,.24,0V20.88a1,1,0,0,0,.58-.35l1.92,1.07a.59.59,0,0,0,0,.23.72.72,0,1,0,.16-.45L13,20.32a.81.81,0,0,0,.06-.31,1.11,1.11,0,0,0,0-.19l1.82-.65a.72.72,0,0,0,1.35-.36.72.72,0,0,0-1.44,0,.53.53,0,0,0,0,.13L13,19.6a.57.57,0,0,0-.08-.13l2.56-2.62a.73.73,0,0,0,.41.12.72.72,0,1,0-.58-.29L12.73,19.3a.78.78,0,0,0-.22-.12l0-5.57a1.17,1.17,0,0,0,.68-.53l4.63,1.09-3,.68a.73.73,0,1,0,0,.27v0l3-.68a.91.91,0,0,0,.59.54L18,19.13a.72.72,0,1,0,.75.72.72.72,0,0,0-.51-.69L18.73,15a1.26,1.26,0,0,0,.28-.05L20,16.79a.73.73,0,0,0-.29.58.72.72,0,1,0,.51-.69l-1-1.87a.86.86,0,0,0,.37-.6H22A.72.72,0,1,0,22,14H19.59a.89.89,0,0,0-.16-.4l2-1.94a.79.79,0,0,0,.43.14.73.73,0,0,0,.72-.73.73.73,0,0,0-1.45,0,.69.69,0,0,0,.13.41l-2,1.94a.92.92,0,0,0-.54-.18.87.87,0,0,0-.73.39l-4.7-1.11a1.07,1.07,0,0,0-.18-.58l4-4.68L15.67,10.9h-.15a.72.72,0,1,0,.72.72.73.73,0,0,0-.35-.62l1.59-4a.63.63,0,0,0,.19,0L18,10a.72.72,0,1,0,.24,0l-.37-3a.84.84,0,0,0,.42-.26l2.13,1.48a.82.82,0,0,0-.07.31.73.73,0,1,0,.72-.72A.69.69,0,0,0,20.6,8L18.47,6.5a.82.82,0,0,0,.09-.38l1.86-.2a.72.72,0,0,0,.69.53.73.73,0,1,0-.72-.77l-1.85.21a.71.71,0,0,0-.11-.25L21.5,3.1a.7.7,0,0,0,.47.17.71.71,0,1,0-.63-.36L18.28,5.45a.91.91,0,0,0-.16-.11l1.07-2.65.16,0A.74.74,0,1,0,19,2.6L17.9,5.25a.76.76,0,0,0-.21,0h-.05l-.58-3a.71.71,0,1,0-.25,0h0l.58,3-.12.05L14.39,1.23a.73.73,0,0,0,.22-.51.73.73,0,0,0-1.45,0,.72.72,0,0,0,.72.72.68.68,0,0,0,.32-.07l2.89,4.09a.7.7,0,0,0-.14.16l-4.5-2.15a.64.64,0,0,0,0-.2.73.73,0,1,0-.73.72.74.74,0,0,0,.6-.3l4.5,2.14a.84.84,0,0,0,0,.27v.06l-2.71.57a.73.73,0,0,0-.67-.46.72.72,0,1,0,.72.72V7l2.71-.57.06.14-4.27,5a1.1,1.1,0,0,0-.47-.1,1.12,1.12,0,0,0-.48.1L7.62,6.74,12,9.1a.93.93,0,0,0,0,.24.73.73,0,1,0,.73-.73.71.71,0,0,0-.57.28L7.5,6.4a.6.6,0,0,0,0-.24L10.21,6a.72.72,0,1,0,.7-.89.73.73,0,0,0-.72.65l-2.65.17a1,1,0,0,0-.23-.43l3.26-4.13A.77.77,0,0,0,10.91,1.44Z"/></svg>