<svg xmlns="http://www.w3.org/2000/svg" viewBox="0 0 37.166 31.346"><defs><style>.a,.b{fill:#fff;}.a{opacity:0.4;}</style></defs><g transform="translate(-89.803 -49.355)"><path class="a" d="M63.8,67.783a1.557,1.557,0,0,1,1.494-.363,1.88,1.88,0,0,1,.978.75c.837,1,1.681,1.988,2.518,2.985a4.035,4.035,0,0,1,5.821,1.982,3.988,3.988,0,0,1-1.08,4.4q-2.713,2.276-5.437,4.541a8.2,8.2,0,0,1-1.34,1,4.046,4.046,0,0,1-3.59.086,3.974,3.974,0,0,1-.926-6.6c1.176-1,2.367-1.977,3.549-2.968.2-.17.4-.349.623-.5-.528-.728-1.158-1.379-1.719-2.083C58.579,76.089,52.5,81.193,46.4,86.274a1.538,1.538,0,0,1-1.6.2,2.645,2.645,0,0,1-.862-.784c-.472-.574-.972-1.126-1.427-1.711a4,4,0,0,1-.354-4.129,4.068,4.068,0,0,1,1.084-1.339L52.96,70.4a6.851,6.851,0,0,1,1.547-1.105,4.049,4.049,0,0,1,4.115.459,8.857,8.857,0,0,1,1.247,1.32c1.306-1.1,2.62-2.191,3.929-3.286M55.556,72.2q-5.2,4.335-10.4,8.678a.959.959,0,0,0-.228,1.235c.209.3.461.562.7.84q5.853-4.885,11.706-9.771a2.335,2.335,0,0,0,.187-.187c-.245-.24-.441-.523-.68-.768a.966.966,0,0,0-1.281-.027m14.967,1.486a1.477,1.477,0,0,0-.377.247q-2.768,2.307-5.535,4.616a3.207,3.207,0,0,0-.52.486.939.939,0,0,0,.013,1.084.952.952,0,0,0,1.385.158q3-2.5,6-5a.93.93,0,0,0,.242-1.1A.955.955,0,0,0,70.523,73.685Z" transform="translate(48.063 -18)"/><path class="b" d="M139.117,222.61a1.537,1.537,0,0,1,1.947.291q1.012,1.185,2.015,2.379a1.945,1.945,0,0,1,.629,1.226,1.513,1.513,0,0,1-.576,1.273q-6.589,5.509-13.184,11.01c-.481.388-.939.807-1.44,1.171A8.32,8.32,0,0,1,117,238.37q-2.26-2.686-4.523-5.369a1.563,1.563,0,0,1-.31-1.543,1.536,1.536,0,0,1,1.4-1,1.578,1.578,0,0,1,1.217.557q2.333,2.769,4.669,5.537a5.417,5.417,0,0,0,1.866,1.5,5.246,5.246,0,0,0,4.646-.074,9.18,9.18,0,0,0,1.677-1.233q3.936-3.288,7.874-6.576c1.5-1.248,2.993-2.517,4.509-3.751-.446-.563-.94-1.088-1.375-1.66A1.524,1.524,0,0,1,139.117,222.61Z" transform="translate(-16.744 -160.886)"/></g></svg>