<svg width="137" height="36" viewBox="0 0 137 36" fill="none" xmlns="http://www.w3.org/2000/svg">
<path fill-rule="evenodd" clip-rule="evenodd" d="M25.8402 0.0497422C25.5422 0.121975 25.268 0.270494 25.0448 0.480711L25.0467 0.48271C24.5062 0.935195 23.9649 1.38702 23.4236 1.8389C22.4766 2.62936 21.5293 3.42001 20.5857 4.2147C20.1664 3.6675 19.6919 3.16485 19.1697 2.7147C18.5098 2.21576 17.7275 1.90402 16.9053 1.81233C16.0831 1.72064 15.2514 1.85239 14.4977 2.19371C13.8569 2.52841 13.2659 2.95081 12.7417 3.44871C9.06042 6.52004 5.38041 9.59171 1.70175 12.6637C1.18764 13.0767 0.767898 13.595 0.47075 14.1837C0.103047 14.9273 -0.054066 15.7574 0.0164458 16.584C0.0869576 17.4106 0.382401 18.2021 0.870747 18.8727C1.18601 19.2759 1.51745 19.6647 1.84902 20.0537C2.06434 20.3063 2.27971 20.559 2.49075 20.8157C2.74649 21.1814 3.08061 21.4855 3.46875 21.7057C3.76343 21.8402 4.08968 21.89 4.41108 21.8498C4.73247 21.8095 5.03634 21.6807 5.28875 21.4777C7.94948 19.2615 10.6071 17.0412 13.2648 14.821C17.5251 11.2618 21.7855 7.7026 26.0588 4.1597C26.3169 4.48348 26.5878 4.79757 26.8587 5.11161C27.2563 5.57256 27.6539 6.03343 28.0107 6.52471C27.8246 6.64831 27.6529 6.79464 27.4811 6.94099C27.4222 6.9912 27.3633 7.04141 27.3037 7.0907C26.7741 7.53509 26.2428 7.97746 25.7115 8.41977C24.8966 9.09818 24.0819 9.77646 23.2737 10.4617C22.7067 10.9551 22.272 11.5824 22.0089 12.2865C21.7458 12.9906 21.6627 13.7492 21.7672 14.4936C21.8717 15.2379 22.1605 15.9444 22.6073 16.5488C23.0541 17.1532 23.6448 17.6365 24.3257 17.9547C24.967 18.2529 25.6685 18.399 26.3754 18.3817C27.0824 18.3643 27.7759 18.184 28.4017 17.8547C28.9466 17.5283 29.4565 17.1469 29.9237 16.7167C31.9857 15.0014 34.0437 13.2824 36.0977 11.5597C36.7857 10.9494 37.2716 10.1442 37.4908 9.25101C37.71 8.35786 37.6521 7.41914 37.3247 6.55971C37.0807 5.94195 36.7053 5.38463 36.2245 4.92636C35.7437 4.46809 35.169 4.11984 34.5403 3.90572C33.9115 3.6916 33.2437 3.61674 32.5832 3.68632C31.9226 3.75591 31.2851 3.96827 30.7147 4.30871C30.2221 3.72163 29.7272 3.13644 29.2323 2.55117C28.773 2.00793 28.3135 1.46463 27.8557 0.919707C27.5915 0.519274 27.2002 0.219497 26.7447 0.0687088C26.45 -0.0159566 26.1383 -0.022491 25.8402 0.0497422ZM3.88075 15.3517C7.81542 12.0644 11.7517 8.77971 15.6897 5.49771L15.6907 5.48971C15.8953 5.31663 16.156 5.22418 16.4239 5.2297C16.6918 5.23523 16.9485 5.33835 17.1457 5.51971C17.2736 5.65041 17.3905 5.79084 17.5073 5.93123C17.6389 6.08944 17.7705 6.24759 17.9177 6.39171C17.8512 6.46666 17.7804 6.53777 17.7057 6.6047C13.2751 10.3067 8.84408 14.0067 4.41275 17.7047C4.34105 17.6204 4.26805 17.5369 4.19502 17.4534C3.99607 17.226 3.79683 16.9982 3.62275 16.7517C3.49039 16.5263 3.44363 16.2607 3.491 16.0037C3.53838 15.7466 3.67673 15.5151 3.88075 15.3517ZM32.2627 7.45671C32.3903 7.34204 32.5346 7.24761 32.6907 7.17671L32.6828 7.18271C32.9387 7.08602 33.2218 7.0897 33.4751 7.19301C33.7285 7.29632 33.9334 7.49161 34.0487 7.73971C34.1447 7.94747 34.1707 8.18079 34.1227 8.40458C34.0748 8.62837 33.9555 8.83054 33.7827 8.98071C31.5154 10.876 29.2461 12.769 26.9748 14.6597C26.8619 14.7563 26.7303 14.8286 26.5882 14.8721C26.4461 14.9155 26.2966 14.9292 26.149 14.9123C26.0014 14.8955 25.8589 14.8483 25.7303 14.7739C25.6017 14.6994 25.4899 14.5993 25.4017 14.4797C25.2724 14.3012 25.2015 14.087 25.1988 13.8666C25.1961 13.6462 25.2618 13.4303 25.3867 13.2487C25.5624 13.0437 25.7603 12.8589 25.9767 12.6977C28.0721 10.9504 30.1674 9.20338 32.2627 7.45671ZM38.1501 13.8033C37.746 13.743 37.3337 13.8263 36.9848 14.0388C36.7874 14.161 36.6166 14.3216 36.4825 14.5112C36.3485 14.7007 36.254 14.9153 36.2046 15.1421C36.1553 15.369 36.1521 15.6034 36.1952 15.8315C36.2384 16.0596 36.327 16.2767 36.4558 16.4698C36.7288 16.8299 37.0231 17.1733 37.3172 17.5167C37.5542 17.7932 37.791 18.0698 38.0168 18.3548C36.947 19.2262 35.8884 20.1131 34.8297 21C34.1863 21.5391 33.5428 22.0782 32.8968 22.6138C29.9154 25.1025 26.9351 27.5915 23.9558 30.0808C23.3775 30.6179 22.7401 31.0876 22.0558 31.4808C21.2419 31.8991 20.3426 32.1243 19.4276 32.1389C18.5126 32.1534 17.6066 31.957 16.7798 31.5648C15.9556 31.1632 15.2316 30.5824 14.6608 29.8648C12.8934 27.7695 11.1268 25.6738 9.36078 23.5778C9.19084 23.3776 8.97896 23.2172 8.74013 23.108C8.50131 22.9988 8.24138 22.9434 7.97878 22.9458C7.62969 22.9541 7.29114 23.0671 7.00695 23.2699C6.72276 23.4728 6.50601 23.7564 6.38478 24.0838C6.28317 24.3809 6.26222 24.6996 6.32406 25.0074C6.3859 25.3152 6.52832 25.6011 6.73677 25.8358C8.45011 27.8692 10.1621 29.9025 11.8728 31.9358C13.3859 33.8801 15.5987 35.1563 18.0392 35.4926C20.4799 35.8288 22.9553 35.1984 24.9378 33.7358C25.3057 33.4681 25.6531 33.1749 26.0004 32.8819C26.1901 32.7218 26.3798 32.5617 26.5728 32.4058C31.5654 28.2425 36.5558 24.0758 41.5438 19.9058C41.7611 19.7354 41.934 19.515 42.0481 19.2635C42.1621 19.0119 42.2138 18.7366 42.1988 18.4608C42.1383 17.9251 41.884 17.43 41.4838 17.0688C40.7251 16.1662 39.9624 15.2662 39.1958 14.3688C38.9241 14.0637 38.5541 13.8636 38.1501 13.8033Z" fill="#003DC6"/>
<path fill-rule="evenodd" clip-rule="evenodd" d="M52.7459 10.9075C53.0783 10.6507 53.4955 10.5292 53.9138 10.5675H58.3909C58.6663 10.5532 58.9405 10.6126 59.1853 10.7395C59.4301 10.8664 59.6367 11.0562 59.7838 11.2895C59.9952 11.7238 60.0755 12.2103 60.0148 12.6895V21.7535C60.0308 22.4985 59.9898 23.2435 59.9448 23.9865C59.8645 25.455 59.2378 26.8405 58.1879 27.8705C57.0304 28.8085 55.5773 29.3046 54.0878 29.2705C52.2841 29.3777 50.5031 28.8242 49.0778 27.7135C48.827 27.5026 48.6517 27.2157 48.5786 26.8963C48.5054 26.5769 48.5384 26.2423 48.6724 25.9433C48.8065 25.6442 49.0344 25.3971 49.3215 25.2392C49.6087 25.0814 49.9396 25.0214 50.2639 25.0685C50.6727 25.1628 51.0511 25.3588 51.3638 25.6385C52.1598 26.2034 53.1359 26.4555 54.1058 26.3465C54.5079 26.3259 54.8987 26.2064 55.2436 25.9987C55.5885 25.7909 55.8767 25.5013 56.0828 25.1555C56.495 24.2263 56.6591 23.206 56.5589 22.1945V13.4485C56.0334 13.4431 55.5077 13.4435 54.982 13.4439C54.5352 13.4443 54.0884 13.4447 53.6419 13.4415C53.3489 13.4374 53.0642 13.3435 52.8263 13.1725C52.5884 13.0016 52.4086 12.7617 52.3113 12.4854C52.2139 12.2091 52.2037 11.9095 52.2819 11.6272C52.3602 11.3448 52.5232 11.0933 52.7489 10.9065L52.7459 10.9075ZM101.534 10.6136C101.886 10.5405 102.252 10.5827 102.579 10.734C102.905 10.8852 103.174 11.1376 103.346 11.4536C103.487 11.7207 103.55 12.0222 103.528 12.3236V27.4506C103.518 27.6697 103.463 27.8846 103.369 28.0824C103.274 28.2802 103.14 28.457 102.976 28.6022C102.811 28.7475 102.619 28.8582 102.411 28.9278C102.203 28.9974 101.983 29.0246 101.765 29.0076C101.349 28.9767 100.96 28.7905 100.675 28.4859C100.39 28.1813 100.23 27.7807 100.227 27.3636C100.219 24.5657 100.22 21.7691 100.221 18.9717V18.9715V18.9712V18.971V18.9708V18.9705C100.222 16.8173 100.223 14.6636 100.22 12.5086C100.199 12.1406 100.271 11.7734 100.43 11.4406C100.544 11.2316 100.701 11.0496 100.892 10.9069C101.082 10.7642 101.301 10.6642 101.534 10.6136ZM108.407 10.6251C108.176 10.5697 107.935 10.5648 107.701 10.6107C107.325 10.686 106.987 10.8894 106.744 11.1863C106.501 11.4833 106.369 11.8552 106.37 12.2387V27.3617C106.369 27.6827 106.463 27.9969 106.638 28.2658C106.813 28.5346 107.064 28.7464 107.358 28.8753C107.652 29.0042 107.977 29.0444 108.293 28.9912C108.61 28.938 108.904 28.7936 109.14 28.5757C109.321 28.4132 109.464 28.212 109.558 27.9871C109.652 27.7622 109.694 27.5191 109.682 27.2757C109.682 25.5957 109.683 23.9156 109.684 22.2356V22.2355V22.2354V22.2353V22.2352C109.687 18.8755 109.689 15.5159 109.682 12.1567C109.669 11.9187 109.606 11.6862 109.496 11.4748C109.386 11.2634 109.232 11.0782 109.044 10.9316C108.856 10.785 108.639 10.6805 108.407 10.6251ZM128.684 11.6018C128.828 11.2546 129.085 10.9666 129.415 10.7853C129.744 10.604 130.125 10.5402 130.495 10.6043C130.866 10.6685 131.203 10.8567 131.452 11.1382C131.701 11.4196 131.847 11.7774 131.866 12.1528C131.873 12.698 131.872 13.2431 131.87 13.7891V13.7894V13.7898V13.7901V13.7928C131.87 14.179 131.869 14.5655 131.871 14.9528C132.208 14.9563 132.545 14.9545 132.883 14.9527H132.883C133.413 14.9499 133.942 14.9471 134.471 14.9648C134.802 14.9966 135.108 15.153 135.328 15.4023C135.548 15.6515 135.665 15.975 135.656 16.3074C135.646 16.6397 135.511 16.956 135.277 17.1922C135.043 17.4284 134.728 17.567 134.396 17.5798C133.902 17.5927 133.407 17.5905 132.913 17.5882C132.564 17.5867 132.216 17.5851 131.869 17.5888V24.3378C131.846 24.6619 131.894 24.9872 132.01 25.2907C132.126 25.5942 132.307 25.8687 132.541 26.0948C132.851 26.2934 133.199 26.4235 133.563 26.4764C133.927 26.5294 134.298 26.5039 134.652 26.4018C134.929 26.3356 135.221 26.3604 135.483 26.4726C135.746 26.5848 135.965 26.7784 136.109 27.0248C136.268 27.3451 136.308 27.7115 136.223 28.0588C136.15 28.2585 136.034 28.4392 135.881 28.5874C135.729 28.7357 135.545 28.8476 135.344 28.9148C134.488 29.1808 133.587 29.2693 132.696 29.1748C131.72 29.115 130.786 28.7615 130.015 28.1608C129.286 27.5159 128.81 26.6337 128.671 25.6708C128.557 24.8447 128.519 24.0099 128.557 23.1768V12.9558C128.514 12.5005 128.557 12.0412 128.684 11.6018ZM91.2038 14.7945C89.5897 14.7364 87.9815 15.0203 86.4848 15.6275L86.4778 15.6345C86.2464 15.6966 86.0328 15.812 85.854 15.9714C85.6751 16.1308 85.536 16.3298 85.4478 16.5525C85.3824 16.7357 85.3569 16.9308 85.3729 17.1247C85.389 17.3185 85.4463 17.5068 85.541 17.6767C85.6356 17.8466 85.7655 17.9944 85.9219 18.1101C86.0783 18.2258 86.2576 18.3067 86.4478 18.3475C86.9875 18.375 87.5234 18.2443 87.9898 17.9715C89.0511 17.5999 90.1818 17.4693 91.2998 17.5895C92.1002 17.6534 92.8471 18.0165 93.3918 18.6065C93.8896 19.2842 94.1161 20.1234 94.0268 20.9595C92.1761 20.6294 90.283 20.6129 88.4268 20.9105C87.3557 21.0754 86.3569 21.5527 85.5558 22.2825C85.1122 22.7526 84.7926 23.3258 84.6259 23.9502C84.4591 24.5747 84.4506 25.2309 84.6008 25.8595C84.7213 26.368 84.9412 26.8476 85.2479 27.2707C85.5546 27.6938 85.942 28.0519 86.3878 28.3245C87.4416 28.9609 88.6325 29.3354 89.8608 29.4165C92.0531 29.5713 94.252 29.2295 96.2938 28.4165C96.6059 28.2734 96.8734 28.0485 97.0678 27.7655C97.3012 27.3746 97.3996 26.9179 97.3478 26.4655C97.3417 25.6971 97.3444 24.9286 97.3472 24.1601V24.16V24.1599C97.3517 22.9433 97.3561 21.7268 97.3248 20.5115C97.2136 19.2041 96.6917 17.9654 95.8338 16.9725C95.2564 16.307 94.5462 15.7694 93.7489 15.3944C92.9516 15.0193 92.0847 14.815 91.2038 14.7945ZM88.4998 23.4948C88.7917 23.3065 89.1209 23.1836 89.4648 23.1345L89.4698 23.1235C90.978 22.8702 92.5193 22.8891 94.0208 23.1795C94.0208 23.5493 94.0216 23.9189 94.0224 24.2883C94.0239 25.0269 94.0255 25.765 94.0208 26.5035C92.8803 26.8692 91.6873 27.0443 90.4898 27.0215C89.7223 27.0238 88.9693 26.8126 88.3148 26.4115C87.9794 26.1711 87.7406 25.8189 87.6415 25.4182C87.5423 25.0176 87.5892 24.5947 87.7738 24.2255C87.9603 23.9324 88.2079 23.6832 88.4998 23.4948ZM118.132 14.9527C119.81 14.609 121.555 14.8663 123.063 15.6797C124.095 16.3141 124.94 17.2113 125.512 18.2796C126.084 19.3479 126.361 20.5488 126.317 21.7597C126.288 22.1095 126.127 22.4353 125.867 22.6713C125.608 22.9072 125.268 23.0357 124.917 23.0307C123.643 23.0327 122.369 23.0319 121.095 23.0312C119.222 23.03 117.348 23.0289 115.475 23.0367C115.619 23.6831 115.903 24.2903 116.307 24.8157C116.97 25.6068 117.897 26.1316 118.917 26.2937C120.074 26.5176 121.272 26.4012 122.365 25.9587C122.498 25.9001 122.627 25.827 122.757 25.7537L122.757 25.7537C123.069 25.5769 123.384 25.3993 123.755 25.4227C123.945 25.4258 124.132 25.4674 124.305 25.5451C124.478 25.6227 124.634 25.7348 124.762 25.8744C124.891 26.0141 124.989 26.1784 125.052 26.3574C125.115 26.5364 125.141 26.7263 125.129 26.9157C125.098 27.1534 125.012 27.3807 124.877 27.579C124.743 27.7774 124.563 27.9413 124.354 28.0577C122.686 29.0261 120.742 29.4061 118.833 29.1367C117.078 28.9889 115.428 28.2401 114.162 27.0167C113.516 26.3566 113.008 25.5745 112.667 24.7161C112.326 23.8577 112.159 22.9401 112.177 22.0167C112.189 20.187 112.905 18.4321 114.177 17.1167C115.233 15.997 116.616 15.24 118.129 14.9537L118.132 14.9527ZM116.829 18.3387C116.084 18.9834 115.599 19.8763 115.463 20.8517H123.47C123.404 20.233 123.187 19.6401 122.838 19.1248C122.49 18.6096 122.02 18.1879 121.47 17.8967C120.735 17.5245 119.909 17.3681 119.089 17.4456C118.269 17.5231 117.487 17.8314 116.835 18.3347L116.829 18.3387ZM63.1022 15.1265C62.8902 15.2363 62.705 15.3915 62.5596 15.5809C62.4236 15.7783 62.3372 16.0057 62.308 16.2438C62.2787 16.4818 62.3074 16.7233 62.3917 16.9479C63.4697 20.4505 64.5446 23.9539 65.6166 27.4579C65.7181 27.7934 65.8985 28.0997 66.1428 28.351C66.3871 28.6023 66.6882 28.7914 67.0207 28.9023C67.3532 29.0132 67.7074 29.0427 68.0537 28.9883C68.4 28.934 68.7281 28.7973 69.0106 28.5899C69.4133 28.2812 69.7075 27.8526 69.8506 27.3659C70.2386 26.228 70.6337 25.0923 71.0288 23.9566C71.5647 22.4163 72.1006 20.8759 72.6187 19.3299C73.1451 20.7948 73.6445 22.2697 74.1438 23.7444C74.4686 24.7039 74.7934 25.6633 75.1257 26.6199C75.2677 27.2413 75.5382 27.8262 75.9197 28.3369C76.2017 28.629 76.5587 28.8376 76.9517 28.9397C77.3446 29.0419 77.7581 29.0336 78.1467 28.9159C78.4943 28.8067 78.8099 28.6139 79.0658 28.3545C79.3217 28.0951 79.5101 27.777 79.6146 27.4279L82.8516 16.9469C82.9495 16.6818 82.9694 16.3942 82.9088 16.1183C82.8481 15.8423 82.7096 15.5895 82.5096 15.3899C82.3733 15.2522 82.2108 15.1432 82.0317 15.0692C81.8527 14.9952 81.6607 14.9577 81.4669 14.9589C81.2732 14.9601 81.0816 15 80.9035 15.0763C80.7254 15.1525 80.5643 15.2635 80.4296 15.4029C80.1368 15.7452 79.9499 16.1652 79.8917 16.6119C79.121 19.4012 78.3483 22.1899 77.5737 24.9779C77.3955 24.5865 77.2687 24.1738 77.1419 23.7612C77.0629 23.5044 76.9839 23.2475 76.8926 22.9959C76.2046 20.8925 75.5187 18.7889 74.8347 16.6849C74.7359 16.2997 74.5447 15.9445 74.2777 15.6499C74.0193 15.371 73.6919 15.1651 73.3287 15.0529C72.9654 14.9407 72.579 14.9262 72.2084 15.0109C71.8377 15.0955 71.4959 15.2763 71.2174 15.5351C70.9388 15.7939 70.7333 16.1214 70.6216 16.4849C70.2576 17.5758 69.89 18.6658 69.5224 19.7558C68.9357 21.4952 68.349 23.2348 67.7767 24.9789C67.305 23.2774 66.8502 21.5712 66.3953 19.8646C66.1056 18.7777 65.8158 17.6908 65.5217 16.6049C65.4625 16.1979 65.3037 15.8118 65.0596 15.4809C64.8996 15.3037 64.7027 15.1638 64.4826 15.0712C64.2625 14.9787 64.0248 14.9356 63.7862 14.9451C63.5476 14.9547 63.3141 15.0166 63.1022 15.1265Z" fill="#003DC6"/>
</svg>
