<svg width="120" height="32" viewBox="0 0 120 32" fill="none" xmlns="http://www.w3.org/2000/svg">
<path d="M113.322 10.2169C113.449 9.91111 113.676 9.65754 113.966 9.49789C114.256 9.33825 114.591 9.28204 114.917 9.33851C115.244 9.39498 115.541 9.56077 115.76 9.8086C115.979 10.0564 116.108 10.3716 116.124 10.7021C116.135 11.5229 116.124 12.3436 116.129 13.1679C116.892 13.1758 117.657 13.1529 118.418 13.1784C118.71 13.2065 118.98 13.3442 119.173 13.5637C119.367 13.7832 119.47 14.0681 119.462 14.3607C119.453 14.6534 119.334 14.9319 119.128 15.1399C118.922 15.348 118.645 15.47 118.352 15.4813C117.611 15.5007 116.868 15.4813 116.127 15.4892C116.127 17.4706 116.127 19.4517 116.127 21.4325C116.107 21.718 116.149 22.0044 116.252 22.2717C116.354 22.539 116.513 22.7807 116.719 22.9798C116.992 23.1547 117.299 23.2692 117.619 23.3159C117.94 23.3625 118.267 23.3401 118.578 23.2502C118.822 23.1919 119.079 23.2137 119.31 23.3125C119.541 23.4113 119.734 23.5818 119.861 23.7988C120.001 24.0809 120.037 24.4035 119.961 24.7094C119.897 24.8852 119.795 25.0444 119.661 25.1749C119.527 25.3054 119.365 25.404 119.187 25.4632C118.434 25.6975 117.64 25.7754 116.855 25.6921C115.996 25.6395 115.173 25.3282 114.494 24.7992C113.853 24.2313 113.434 23.4543 113.311 22.6064C113.21 21.8789 113.177 21.1438 113.21 20.4101C113.21 17.4107 113.21 14.4104 113.21 11.4093C113.173 11.0083 113.211 10.6038 113.322 10.2169Z" fill="white"/>
<path d="M104.03 13.1677C105.508 12.8651 107.045 13.0917 108.372 13.8079C109.281 14.3666 110.026 15.1567 110.529 16.0975C111.033 17.0383 111.277 18.0959 111.238 19.1622C111.212 19.4702 111.071 19.7572 110.842 19.9649C110.613 20.1727 110.314 20.2858 110.005 20.2814C107.234 20.2858 104.462 20.2753 101.69 20.2867C101.818 20.856 102.068 21.3907 102.423 21.8534C103.007 22.55 103.823 23.0122 104.721 23.1549C105.741 23.3521 106.795 23.2496 107.758 22.8599C108.158 22.6838 108.519 22.3588 108.982 22.3879C109.149 22.3906 109.314 22.4273 109.466 22.4957C109.619 22.5641 109.756 22.6628 109.869 22.7857C109.982 22.9087 110.069 23.0534 110.124 23.211C110.18 23.3686 110.203 23.5359 110.192 23.7027C110.165 23.912 110.089 24.1121 109.97 24.2868C109.852 24.4615 109.694 24.6059 109.509 24.7083C108.041 25.5612 106.329 25.8958 104.647 25.6585C103.102 25.5284 101.649 24.869 100.534 23.7916C99.9651 23.2103 99.5176 22.5216 99.2175 21.7657C98.9174 21.0097 98.7706 20.2017 98.7858 19.3885C98.7963 17.7772 99.427 16.2318 100.547 15.0734C101.477 14.0874 102.695 13.4207 104.027 13.1686L104.03 13.1677ZM102.883 16.1495C102.227 16.7173 101.8 17.5036 101.68 18.3625H108.731C108.673 17.8178 108.482 17.2956 108.175 16.8418C107.868 16.3881 107.454 16.0167 106.97 15.7603C106.322 15.4325 105.595 15.2948 104.873 15.3631C104.151 15.4313 103.462 15.7028 102.888 16.146L102.883 16.1495Z" fill="white"/>
<path d="M94.8442 9.34405C95.0501 9.30365 95.2623 9.30797 95.4664 9.35672C95.6705 9.40547 95.8618 9.49751 96.0272 9.62661C96.1926 9.75572 96.3284 9.91886 96.4253 10.105C96.5221 10.2911 96.5778 10.4959 96.5887 10.7055C96.5983 15.143 96.5887 19.5813 96.5887 24.0197C96.5995 24.234 96.5623 24.4481 96.4798 24.6462C96.3972 24.8443 96.2713 25.0214 96.1114 25.1645C95.9038 25.3564 95.6448 25.4836 95.366 25.5304C95.0872 25.5773 94.8008 25.5418 94.5419 25.4283C94.283 25.3149 94.0627 25.1283 93.9082 24.8915C93.7537 24.6548 93.6717 24.3781 93.6721 24.0954C93.6721 19.6559 93.6721 15.2167 93.6721 10.7777C93.6713 10.44 93.7876 10.1124 94.0014 9.85097C94.2151 9.58951 94.513 9.41033 94.8442 9.34405Z" fill="white"/>
<path d="M89.4134 9.34658C89.7235 9.28221 90.0462 9.31938 90.3336 9.4526C90.6209 9.58582 90.8578 9.80803 91.0091 10.0863C91.1335 10.3215 91.1891 10.5871 91.1694 10.8525C91.1694 15.2926 91.1694 19.7336 91.1694 24.1737C91.1604 24.3667 91.1127 24.5559 91.0292 24.7301C90.9457 24.9043 90.828 25.06 90.6832 25.1879C90.5384 25.3158 90.3695 25.4133 90.1863 25.4746C90.0031 25.5359 89.8094 25.5598 89.6168 25.5448C89.2505 25.5176 88.9078 25.3536 88.6569 25.0854C88.406 24.8172 88.2651 24.4644 88.2624 24.0971C88.2509 19.7362 88.2624 15.3789 88.2563 11.0154C88.2381 10.6913 88.3017 10.3679 88.4412 10.0749C88.5415 9.89084 88.6802 9.73055 88.8479 9.60489C89.0157 9.47922 89.2086 9.39113 89.4134 9.34658Z" fill="white"/>
<path d="M76.1608 13.7621C77.4788 13.2273 78.895 12.9773 80.3165 13.0285C81.0922 13.0465 81.8556 13.2264 82.5578 13.5567C83.2599 13.887 83.8853 14.3604 84.3938 14.9465C85.1493 15.8208 85.6089 16.9117 85.7068 18.063C85.7517 19.8093 85.713 21.5583 85.7271 23.3063C85.7726 23.7046 85.686 24.1069 85.4805 24.4511C85.3093 24.7003 85.0737 24.8984 84.7989 25.0244C83.0008 25.7403 81.0644 26.0414 79.1338 25.905C78.0522 25.8336 77.0034 25.5038 76.0754 24.9434C75.6828 24.7033 75.3416 24.3879 75.0715 24.0153C74.8014 23.6428 74.6078 23.2204 74.5017 22.7726C74.3694 22.219 74.3769 21.6412 74.5238 21.0913C74.6706 20.5413 74.952 20.0366 75.3427 19.6226C76.0482 18.9799 76.9277 18.5596 77.871 18.4144C79.5056 18.1523 81.1727 18.1669 82.8025 18.4576C82.8811 17.7213 82.6817 16.9822 82.2433 16.3855C81.7636 15.8659 81.1059 15.5461 80.401 15.4899C79.4165 15.384 78.4207 15.4989 77.4862 15.8263C77.0754 16.0665 76.6035 16.1816 76.1282 16.1574C75.9607 16.1214 75.8028 16.0502 75.6651 15.9483C75.5274 15.8464 75.413 15.7163 75.3296 15.5666C75.2463 15.417 75.1958 15.2512 75.1817 15.0805C75.1675 14.9098 75.19 14.738 75.2476 14.5766C75.3253 14.3805 75.4478 14.2052 75.6053 14.0649C75.7628 13.9245 75.9509 13.8229 76.1546 13.7682L76.1608 13.7621ZM78.7851 20.3729C78.4822 20.4161 78.1923 20.5244 77.9353 20.6902C77.6782 20.8561 77.4601 21.0756 77.2959 21.3337C77.1334 21.6588 77.0921 22.0312 77.1794 22.384C77.2667 22.7368 77.477 23.047 77.7724 23.2587C78.3487 23.6119 79.0118 23.7979 79.6877 23.7959C80.7423 23.8159 81.7929 23.6618 82.7972 23.3398C82.8034 22.364 82.7972 21.3892 82.7972 20.4126C81.475 20.1568 80.1176 20.1401 78.7895 20.3632L78.7851 20.3729Z" fill="white"/>
<path d="M55.0918 13.7209C55.2198 13.5541 55.3829 13.4175 55.5696 13.3207C55.7562 13.224 55.9618 13.1695 56.1719 13.1611C56.382 13.1527 56.5914 13.1906 56.7852 13.2721C56.979 13.3536 57.1524 13.4768 57.2933 13.6328C57.5083 13.9243 57.6481 14.2643 57.7002 14.6226C58.366 17.0805 59.0062 19.5445 59.686 21.997C60.5059 19.4987 61.3592 17.0109 62.1914 14.517C62.2897 14.1969 62.4707 13.9084 62.716 13.6806C62.9613 13.4527 63.2623 13.2935 63.5887 13.2189C63.9151 13.1444 64.2554 13.1571 64.5753 13.2559C64.8952 13.3547 65.1834 13.536 65.411 13.7817C65.6461 14.0411 65.8145 14.3539 65.9015 14.6931C66.5038 16.5459 67.1079 18.3985 67.7138 20.2507C67.9234 20.8284 68.059 21.4369 68.3135 21.9961C68.9957 19.5409 69.6762 17.0852 70.3548 14.6288C70.4061 14.2355 70.5707 13.8656 70.8286 13.5641C70.9471 13.4414 71.089 13.3436 71.2459 13.2765C71.4027 13.2094 71.5714 13.1742 71.742 13.1732C71.9126 13.1721 72.0817 13.2051 72.2394 13.2703C72.3971 13.3355 72.5402 13.4315 72.6603 13.5527C72.8364 13.7285 72.9584 13.9511 73.0117 14.1941C73.0651 14.4372 73.0476 14.6904 72.9614 14.9238L70.1109 24.1537C70.0188 24.4611 69.8529 24.7413 69.6275 24.9697C69.4022 25.1981 69.1243 25.3679 68.8181 25.464C68.476 25.5677 68.1118 25.575 67.7658 25.4851C67.4198 25.3951 67.1053 25.2114 66.857 24.9542C66.521 24.5044 66.2828 23.9894 66.1578 23.4421C65.4154 21.3049 64.7153 19.1517 63.95 17.0224C63.1575 19.3877 62.3173 21.7381 61.5124 24.0991C61.3864 24.5277 61.1273 24.9052 60.7727 25.177C60.5239 25.3596 60.2349 25.48 59.93 25.5278C59.6251 25.5757 59.3131 25.5497 59.0203 25.4521C58.7275 25.3544 58.4624 25.1879 58.2472 24.9666C58.0321 24.7453 57.8732 24.4756 57.7839 24.1801C56.8398 21.0944 55.8932 18.0092 54.9439 14.9247C54.8697 14.727 54.8444 14.5143 54.8702 14.3047C54.8959 14.095 54.9719 13.8948 55.0918 13.7209Z" fill="white"/>
<path d="M46.4493 9.60543C46.742 9.37931 47.1095 9.27233 47.4778 9.30601C48.7917 9.30601 50.1057 9.30601 51.4205 9.30601C51.663 9.29345 51.9044 9.34574 52.1201 9.45749C52.3357 9.56924 52.5176 9.73642 52.6471 9.94182C52.8333 10.3243 52.904 10.7527 52.8506 11.1747C52.8506 13.8354 52.8506 16.496 52.8506 19.1567C52.8646 19.8128 52.8285 20.4688 52.7889 21.1231C52.7181 22.4164 52.1663 23.6365 51.2417 24.5435C50.2224 25.3695 48.9427 25.8065 47.6311 25.7764C46.0427 25.8708 44.4742 25.3834 43.2191 24.4052C42.9982 24.2196 42.8439 23.9669 42.7795 23.6856C42.715 23.4043 42.7441 23.1097 42.8621 22.8464C42.9802 22.583 43.1809 22.3654 43.4338 22.2264C43.6867 22.0873 43.978 22.0346 44.2636 22.076C44.6236 22.159 44.9568 22.3317 45.2323 22.5779C45.9332 23.0755 46.7928 23.2974 47.6469 23.2014C48.001 23.1833 48.3452 23.0781 48.6489 22.8952C48.9526 22.7122 49.2064 22.4572 49.3879 22.1526C49.7509 21.3343 49.8954 20.4359 49.8071 19.5451C49.8071 16.9777 49.8071 14.4104 49.8071 11.8431C48.9511 11.8343 48.0943 11.8431 47.2383 11.8369C46.9804 11.8333 46.7297 11.7507 46.5201 11.6001C46.3106 11.4496 46.1523 11.2383 46.0666 10.995C45.9809 10.7516 45.9718 10.4879 46.0408 10.2392C46.1097 9.99058 46.2532 9.76906 46.4519 9.60455L46.4493 9.60543Z" fill="white"/>
<path d="M32.5698 12.3629C32.877 12.1758 33.2402 12.1024 33.596 12.1555C33.9517 12.2086 34.2776 12.3849 34.5168 12.6535C35.192 13.4438 35.8636 14.2363 36.5317 15.0312C36.8841 15.3493 37.1081 15.7853 37.1614 16.2571C37.1746 16.4999 37.129 16.7424 37.0286 16.9639C36.9282 17.1854 36.7759 17.3794 36.5845 17.5296C32.192 21.2018 27.7974 24.8711 23.4007 28.5374C22.9199 28.9258 22.4619 29.3441 21.9609 29.7086C20.215 30.9966 18.0351 31.5518 15.8858 31.2557C13.7366 30.9595 11.788 29.8356 10.4555 28.1235C8.94902 26.3329 7.44139 24.5423 5.93258 22.7517C5.74901 22.5449 5.6236 22.2932 5.56914 22.0221C5.51468 21.7511 5.53313 21.4704 5.6226 21.2088C5.72937 20.9204 5.92024 20.6708 6.1705 20.4921C6.42077 20.3134 6.71891 20.214 7.02632 20.2067C7.25758 20.2045 7.48647 20.2533 7.69679 20.3495C7.90711 20.4456 8.0937 20.5869 8.24335 20.7632C9.79853 22.609 11.3543 24.4545 12.9107 26.2997C13.4133 26.9316 14.0509 27.4431 14.7767 27.7968C15.5048 28.1422 16.3027 28.3151 17.1084 28.3023C17.9142 28.2895 18.7062 28.0912 19.4229 27.7228C20.0255 27.3765 20.5868 26.9629 21.0961 26.4899C23.7198 24.2978 26.3443 22.1059 28.9698 19.9143C30.4748 18.6664 31.9639 17.3975 33.4786 16.1637C33.033 15.601 32.5381 15.0761 32.1039 14.5037C31.9905 14.3337 31.9125 14.1425 31.8745 13.9416C31.8365 13.7407 31.8393 13.5343 31.8828 13.3345C31.9262 13.1348 32.0095 12.9458 32.1275 12.7789C32.2455 12.612 32.3959 12.4705 32.5698 12.3629Z" fill="white"/>
<path opacity="0.5" d="M22.0551 0.423327C22.2517 0.238204 22.4931 0.107415 22.7556 0.0438043C23.018 -0.0198062 23.2926 -0.0140518 23.5521 0.0605068C23.9532 0.193295 24.2978 0.457287 24.5305 0.809918C25.368 1.80679 26.2116 2.79749 27.0482 3.79436C27.5505 3.49457 28.1119 3.30755 28.6936 3.24627C29.2753 3.185 29.8634 3.25092 30.4171 3.43948C30.9708 3.62804 31.4768 3.93472 31.9002 4.33828C32.3237 4.74184 32.6543 5.23263 32.8692 5.77665C33.1574 6.53349 33.2084 7.36015 33.0154 8.14669C32.8224 8.93322 32.3945 9.64235 31.7886 10.1798C29.9798 11.6968 28.1675 13.2106 26.3516 14.7212C25.9402 15.1001 25.4911 15.4358 25.0113 15.7233C24.4602 16.0133 23.8495 16.1721 23.2269 16.1874C22.6043 16.2026 21.9866 16.074 21.4219 15.8114C20.8222 15.5312 20.302 15.1056 19.9086 14.5733C19.5151 14.041 19.2608 13.4189 19.1688 12.7634C19.0768 12.1079 19.1499 11.4398 19.3816 10.8198C19.6133 10.1997 19.9962 9.64738 20.4955 9.21285C21.6711 8.21599 22.8626 7.23585 24.0444 6.24426C24.2496 6.0743 24.4468 5.89202 24.667 5.74583C24.1386 5.01843 23.509 4.36677 22.948 3.66315C16.8374 8.72939 10.7566 13.8335 4.65741 18.9138C4.43513 19.0926 4.16754 19.206 3.88451 19.2415C3.60148 19.2769 3.31417 19.233 3.05467 19.1146C2.71286 18.9207 2.41863 18.6529 2.19342 18.3309C1.7214 17.7567 1.22473 17.2054 0.766803 16.6198C0.336752 16.0292 0.0765772 15.3322 0.0144826 14.6043C-0.047612 13.8764 0.0907458 13.1454 0.414554 12.4905C0.676231 11.9721 1.04586 11.5157 1.4986 11.152C4.73814 8.44671 7.97884 5.74172 11.2207 3.03702C11.6823 2.59856 12.2028 2.22659 12.7671 1.93184C13.4308 1.63127 14.1632 1.51524 14.8873 1.59599C15.6113 1.67673 16.3002 1.95125 16.8814 2.39064C17.3412 2.78705 17.7591 3.22969 18.1284 3.71158C19.4343 2.61168 20.7482 1.52059 22.0568 0.425087L22.0551 0.423327ZM13.8168 4.84143C10.3489 7.73164 6.88246 10.6242 3.41749 13.5191C3.23783 13.663 3.11599 13.8668 3.07427 14.0932C3.03255 14.3196 3.07373 14.5535 3.19029 14.752C3.39987 15.0488 3.65085 15.3147 3.88598 15.5912C7.78833 12.3347 11.6904 9.07635 15.5921 5.81628C15.6579 5.75734 15.7202 5.69471 15.7788 5.62871C15.534 5.38917 15.3385 5.10561 15.099 4.8608C14.9253 4.70109 14.6993 4.61028 14.4633 4.60542C14.2274 4.60055 13.9978 4.68197 13.8177 4.83438L13.8168 4.84143ZM28.7883 6.32C28.6508 6.38244 28.5237 6.4656 28.4114 6.56657C26.5662 8.10474 24.721 9.64319 22.8758 11.1819C22.6852 11.3239 22.5109 11.4867 22.3562 11.6672C22.2462 11.8271 22.1884 12.0172 22.1907 12.2113C22.1931 12.4054 22.2555 12.594 22.3694 12.7512C22.4471 12.8565 22.5456 12.9447 22.6588 13.0103C22.772 13.0758 22.8975 13.1173 23.0275 13.1322C23.1575 13.1471 23.2892 13.135 23.4143 13.0967C23.5394 13.0584 23.6553 12.9948 23.7547 12.9097C25.7549 11.2448 27.7533 9.57773 29.75 7.90865C29.9021 7.77641 30.0071 7.59837 30.0494 7.40129C30.0916 7.20422 30.0688 6.99875 29.9842 6.81579C29.8826 6.59731 29.7022 6.42533 29.4791 6.33435C29.256 6.24338 29.0067 6.24013 28.7813 6.32528L28.7883 6.32Z" fill="white"/>
</svg>
