<svg xmlns="http://www.w3.org/2000/svg" viewBox="0 0 136.263 35.594"><defs><style>.a,.b{fill:#fff;}.a{opacity:0.5;}</style></defs><g transform="translate(-497.74 6469.645)"><path class="a" d="M66.786,67.841a1.768,1.768,0,0,1,1.7-.412,2.135,2.135,0,0,1,1.111.851c.951,1.132,1.909,2.257,2.859,3.389a4.582,4.582,0,0,1,6.61,2.251,4.529,4.529,0,0,1-1.227,5q-3.081,2.584-6.174,5.157a9.313,9.313,0,0,1-1.522,1.138,4.594,4.594,0,0,1-4.076.1,4.513,4.513,0,0,1-1.052-7.493c1.335-1.132,2.688-2.245,4.03-3.371.233-.193.457-.4.707-.566-.6-.826-1.315-1.566-1.952-2.365C60.861,77.273,53.956,83.069,47.03,88.838a1.747,1.747,0,0,1-1.82.228,3,3,0,0,1-.978-.89c-.536-.652-1.1-1.278-1.62-1.943a4.544,4.544,0,0,1-.4-4.689,4.62,4.62,0,0,1,1.231-1.52q5.518-4.608,11.04-9.215a7.779,7.779,0,0,1,1.756-1.255,4.6,4.6,0,0,1,4.672.521,10.058,10.058,0,0,1,1.416,1.5c1.483-1.249,2.975-2.488,4.461-3.732m-9.357,5.015q-5.907,4.923-11.809,9.854a1.088,1.088,0,0,0-.258,1.4c.238.337.523.639.79.953q6.647-5.547,13.293-11.1a2.649,2.649,0,0,0,.212-.213c-.278-.272-.5-.594-.772-.872a1.1,1.1,0,0,0-1.455-.03m17,1.687a1.677,1.677,0,0,0-.428.28q-3.143,2.62-6.286,5.241a3.642,3.642,0,0,0-.59.551,1.067,1.067,0,0,0,.015,1.231,1.081,1.081,0,0,0,1.573.18q3.407-2.836,6.808-5.679A1.057,1.057,0,0,0,75.79,75.1,1.084,1.084,0,0,0,74.424,74.543Z" transform="translate(456 -6537)"/><path class="b" d="M597.07,161.559a1.663,1.663,0,0,1,1.168-.34c1.492,0,2.984,0,4.477,0a1.552,1.552,0,0,1,1.393.722,2.486,2.486,0,0,1,.231,1.4q0,4.532,0,9.064c.016.745-.025,1.49-.07,2.233a5.892,5.892,0,0,1-1.757,3.884,6.283,6.283,0,0,1-4.1,1.4,7.433,7.433,0,0,1-5.01-1.557,1.507,1.507,0,0,1,1.186-2.645,2.49,2.49,0,0,1,1.1.57,3.971,3.971,0,0,0,2.742.708,2.447,2.447,0,0,0,1.977-1.191,5.874,5.874,0,0,0,.476-2.961q0-4.373,0-8.746c-.972-.01-1.945,0-2.917-.007a1.432,1.432,0,0,1-.893-2.535Z" transform="translate(-46.583 -6620.291)"/><path class="b" d="M1172.078,161.37a1.675,1.675,0,0,1,1.812.84,1.606,1.606,0,0,1,.182.87c0,5.042,0,10.085,0,15.127a1.638,1.638,0,0,1-1.763,1.557,1.661,1.661,0,0,1-1.538-1.644c-.013-4.952,0-9.9-.007-14.855a2.2,2.2,0,0,1,.21-1.068A1.659,1.659,0,0,1,1172.078,161.37Z" transform="translate(-572.803 -6620.396)"/><path class="b" d="M1240.943,161.314a1.663,1.663,0,0,1,1.981,1.546c.011,5.039,0,10.079,0,15.119a1.634,1.634,0,0,1-.542,1.3,1.65,1.65,0,0,1-2.77-1.214q0-7.562,0-15.123A1.656,1.656,0,0,1,1240.943,161.314Z" transform="translate(-635.501 -6620.343)"/><path class="b" d="M1487.793,162.358a1.655,1.655,0,0,1,3.182.551c.012.932,0,1.864.005,2.8.867.009,1.735-.017,2.6.012a1.311,1.311,0,0,1-.075,2.615c-.842.022-1.686,0-2.527.009q0,3.375,0,6.749a2.228,2.228,0,0,0,.672,1.757,2.583,2.583,0,0,0,2.111.307,1.33,1.33,0,0,1,1.457.623,1.511,1.511,0,0,1,.114,1.034,1.41,1.41,0,0,1-.879.856,6.582,6.582,0,0,1-2.648.26,4.844,4.844,0,0,1-2.681-1.014,4.112,4.112,0,0,1-1.344-2.49,13.661,13.661,0,0,1-.114-2.494q0-5.109,0-10.221A3.651,3.651,0,0,1,1487.793,162.358Z" transform="translate(-861.368 -6620.396)"/><path class="b" d="M997.115,209.555a11.455,11.455,0,0,1,4.719-.833,6.324,6.324,0,0,1,4.63,2.178,6.219,6.219,0,0,1,1.491,3.539c.051,1.983.007,3.969.023,5.954a2.076,2.076,0,0,1-.28,1.3,1.9,1.9,0,0,1-.774.651,14.608,14.608,0,0,1-6.433,1,7.7,7.7,0,0,1-3.473-1.092,3.959,3.959,0,0,1-1.787-2.465,3.893,3.893,0,0,1,.955-3.577,5.507,5.507,0,0,1,2.871-1.372,16.77,16.77,0,0,1,5.6.049,3.37,3.37,0,0,0-.635-2.353,3.193,3.193,0,0,0-2.092-1.017,7.567,7.567,0,0,0-3.31.382,2.775,2.775,0,0,1-1.542.376,1.366,1.366,0,0,1-1-1.795,1.536,1.536,0,0,1,1.03-.918m2.987,7.5a2.407,2.407,0,0,0-1.691,1.091,1.735,1.735,0,0,0,.541,2.186,4.14,4.14,0,0,0,2.175.61,10.888,10.888,0,0,0,3.531-.518c.007-1.108,0-2.215,0-3.324A12.8,12.8,0,0,0,1000.1,217.051Z" transform="translate(-412.889 -6663.567)"/><path class="b" d="M1310.52,209.118a7.3,7.3,0,0,1,4.931.727,6.84,6.84,0,0,1,3.254,6.08,1.385,1.385,0,0,1-1.4,1.271c-3.147.005-6.295-.007-9.442.006a4.553,4.553,0,0,0,.832,1.779,4.284,4.284,0,0,0,2.61,1.478,6.1,6.1,0,0,0,3.448-.335c.454-.2.865-.569,1.39-.536a1.4,1.4,0,0,1,1.374,1.493,1.53,1.53,0,0,1-.775,1.142,8.6,8.6,0,0,1-5.521,1.079,7.647,7.647,0,0,1-4.671-2.12,6.963,6.963,0,0,1-1.985-5,7.116,7.116,0,0,1,2-4.9,7.3,7.3,0,0,1,3.952-2.163m-1.3,3.385a4.069,4.069,0,0,0-1.366,2.513h8.007a3.8,3.8,0,0,0-2-2.955A4.362,4.362,0,0,0,1309.223,212.5Z" transform="translate(-694.647 -6663.805)"/><path class="b" d="M747.045,211.031a1.628,1.628,0,0,1,2.5-.1,2.5,2.5,0,0,1,.462,1.124c.756,2.791,1.483,5.589,2.255,8.374.931-2.837,1.9-5.662,2.845-8.494a2.164,2.164,0,0,1,3.656-.835,2.446,2.446,0,0,1,.557,1.035q1.026,3.156,2.058,6.311c.238.656.392,1.347.681,1.982q1.162-4.182,2.318-8.366a2.322,2.322,0,0,1,.538-1.209,1.455,1.455,0,0,1,2.08-.013,1.477,1.477,0,0,1,.342,1.557L764.1,222.878a2.23,2.23,0,0,1-1.468,1.488,2.206,2.206,0,0,1-2.227-.579,4.57,4.57,0,0,1-.794-1.717c-.843-2.427-1.638-4.872-2.507-7.29-.9,2.686-1.854,5.355-2.768,8.036a2.393,2.393,0,0,1-.84,1.224,2.191,2.191,0,0,1-3.394-1.132q-1.608-5.256-3.225-10.51A1.488,1.488,0,0,1,747.045,211.031Z" transform="translate(-186.744 -6665.09)"/><path class="b" d="M142.781,222.64a1.745,1.745,0,0,1,2.211.33q1.15,1.346,2.288,2.7a2.209,2.209,0,0,1,.715,1.392,1.718,1.718,0,0,1-.655,1.445q-7.482,6.255-14.971,12.5c-.546.441-1.066.916-1.635,1.33a9.448,9.448,0,0,1-13.065-1.8q-2.566-3.05-5.136-6.1a1.774,1.774,0,0,1-.352-1.752,1.744,1.744,0,0,1,1.594-1.138,1.791,1.791,0,0,1,1.382.632q2.649,3.144,5.3,6.287a6.151,6.151,0,0,0,2.119,1.7,5.957,5.957,0,0,0,5.276-.084,10.424,10.424,0,0,0,1.9-1.4q4.469-3.734,8.941-7.467c1.709-1.417,3.4-2.858,5.12-4.259-.506-.639-1.068-1.235-1.561-1.885A1.73,1.73,0,0,1,142.781,222.64Z" transform="translate(391.945 -6678.241)"/></g></svg>