<svg width="136" height="48" viewBox="0 0 136 48" fill="none" xmlns="http://www.w3.org/2000/svg">
<path d="M121.322 18.2169C121.449 17.9111 121.676 17.6575 121.966 17.4979C122.256 17.3382 122.591 17.282 122.917 17.3385C123.244 17.395 123.541 17.5608 123.76 17.8086C123.979 18.0564 124.108 18.3716 124.124 18.7021C124.135 19.5229 124.124 20.3436 124.129 21.1679C124.892 21.1758 125.657 21.1529 126.418 21.1784C126.71 21.2065 126.98 21.3442 127.173 21.5637C127.367 21.7832 127.47 22.0681 127.462 22.3607C127.453 22.6534 127.334 22.9319 127.128 23.1399C126.922 23.348 126.645 23.47 126.352 23.4813C125.611 23.5007 124.868 23.4813 124.127 23.4892C124.127 25.4706 124.127 27.4517 124.127 29.4325C124.107 29.718 124.149 30.0044 124.252 30.2717C124.354 30.539 124.513 30.7807 124.719 30.9798C124.992 31.1547 125.299 31.2692 125.619 31.3159C125.94 31.3625 126.267 31.3401 126.578 31.2502C126.822 31.1919 127.079 31.2137 127.31 31.3125C127.541 31.4113 127.734 31.5818 127.861 31.7988C128.001 32.0809 128.037 32.4035 127.961 32.7094C127.897 32.8852 127.795 33.0444 127.661 33.1749C127.527 33.3054 127.365 33.404 127.187 33.4632C126.434 33.6975 125.64 33.7754 124.855 33.6921C123.996 33.6395 123.173 33.3282 122.494 32.7992C121.853 32.2313 121.434 31.4543 121.311 30.6064C121.21 29.8789 121.177 29.1438 121.21 28.4101C121.21 25.4107 121.21 22.4104 121.21 19.4093C121.173 19.0083 121.211 18.6038 121.322 18.2169V18.2169Z" fill="white"/>
<path d="M112.03 21.1677C113.508 20.8651 115.045 21.0917 116.372 21.8079C117.281 22.3666 118.026 23.1567 118.529 24.0975C119.033 25.0383 119.277 26.0959 119.238 27.1622C119.212 27.4702 119.071 27.7572 118.842 27.9649C118.613 28.1727 118.314 28.2858 118.005 28.2814C115.234 28.2858 112.462 28.2753 109.69 28.2867C109.818 28.856 110.068 29.3907 110.423 29.8534C111.007 30.55 111.823 31.0122 112.721 31.1549C113.741 31.3521 114.795 31.2496 115.758 30.8599C116.158 30.6838 116.519 30.3588 116.982 30.3879C117.149 30.3906 117.314 30.4273 117.466 30.4957C117.619 30.5641 117.756 30.6628 117.869 30.7857C117.982 30.9087 118.069 31.0534 118.124 31.211C118.18 31.3686 118.203 31.5359 118.192 31.7027C118.165 31.912 118.089 32.1121 117.97 32.2868C117.852 32.4615 117.694 32.6059 117.509 32.7083C116.041 33.5612 114.329 33.8958 112.647 33.6585C111.102 33.5284 109.649 32.869 108.534 31.7916C107.965 31.2103 107.518 30.5216 107.218 29.7657C106.917 29.0097 106.771 28.2017 106.786 27.3885C106.796 25.7772 107.427 24.2318 108.547 23.0734C109.477 22.0874 110.695 21.4207 112.027 21.1686L112.03 21.1677ZM110.883 24.1495C110.227 24.7173 109.8 25.5036 109.68 26.3625H116.731C116.673 25.8178 116.482 25.2956 116.175 24.8418C115.868 24.3881 115.454 24.0167 114.97 23.7603C114.322 23.4325 113.595 23.2948 112.873 23.3631C112.151 23.4313 111.462 23.7028 110.888 24.146L110.883 24.1495Z" fill="white"/>
<path d="M102.844 17.3441C103.05 17.3036 103.262 17.308 103.466 17.3567C103.67 17.4055 103.862 17.4975 104.027 17.6266C104.193 17.7557 104.328 17.9189 104.425 18.105C104.522 18.2911 104.578 18.4959 104.589 18.7055C104.598 23.143 104.589 27.5813 104.589 32.0197C104.6 32.234 104.562 32.4481 104.48 32.6462C104.397 32.8443 104.271 33.0214 104.111 33.1645C103.904 33.3564 103.645 33.4836 103.366 33.5304C103.087 33.5773 102.801 33.5418 102.542 33.4283C102.283 33.3149 102.063 33.1283 101.908 32.8915C101.754 32.6548 101.672 32.3781 101.672 32.0954C101.672 27.6559 101.672 23.2167 101.672 18.7777C101.671 18.44 101.788 18.1124 102.001 17.851C102.215 17.5895 102.513 17.4103 102.844 17.3441V17.3441Z" fill="white"/>
<path d="M97.4134 17.3466C97.7235 17.2822 98.0462 17.3194 98.3336 17.4526C98.6209 17.5858 98.8578 17.808 99.0091 18.0863C99.1335 18.3215 99.1891 18.5871 99.1694 18.8525C99.1694 23.2926 99.1694 27.7336 99.1694 32.1737C99.1604 32.3667 99.1127 32.5559 99.0292 32.7301C98.9457 32.9043 98.828 33.06 98.6832 33.1879C98.5384 33.3158 98.3695 33.4133 98.1863 33.4746C98.0031 33.5359 97.8094 33.5598 97.6168 33.5448C97.2505 33.5176 96.9078 33.3536 96.6569 33.0854C96.406 32.8172 96.2651 32.4644 96.2624 32.0971C96.2509 27.7362 96.2624 23.3789 96.2563 19.0154C96.2381 18.6913 96.3017 18.3679 96.4412 18.0749C96.5415 17.8908 96.6802 17.7305 96.8479 17.6049C97.0157 17.4792 97.2086 17.3911 97.4134 17.3466V17.3466Z" fill="white"/>
<path d="M84.1608 21.7621C85.4788 21.2273 86.895 20.9773 88.3165 21.0285C89.0922 21.0465 89.8556 21.2264 90.5578 21.5567C91.2599 21.887 91.8853 22.3604 92.3938 22.9465C93.1493 23.8208 93.6089 24.9117 93.7068 26.063C93.7517 27.8093 93.713 29.5583 93.7271 31.3063C93.7726 31.7046 93.686 32.1069 93.4805 32.4511C93.3093 32.7003 93.0737 32.8984 92.7989 33.0244C91.0008 33.7403 89.0644 34.0414 87.1338 33.905C86.0522 33.8336 85.0034 33.5038 84.0754 32.9434C83.6828 32.7033 83.3416 32.3879 83.0715 32.0153C82.8014 31.6428 82.6078 31.2204 82.5017 30.7726C82.3694 30.219 82.3769 29.6412 82.5238 29.0913C82.6706 28.5413 82.952 28.0366 83.3427 27.6226C84.0482 26.9799 84.9277 26.5596 85.871 26.4144C87.5056 26.1523 89.1727 26.1669 90.8025 26.4576C90.8811 25.7213 90.6817 24.9822 90.2433 24.3855C89.7636 23.8659 89.1059 23.5461 88.401 23.4899C87.4165 23.384 86.4207 23.4989 85.4862 23.8263C85.0754 24.0665 84.6035 24.1816 84.1282 24.1574C83.9607 24.1214 83.8028 24.0502 83.6651 23.9483C83.5274 23.8464 83.413 23.7163 83.3296 23.5666C83.2463 23.417 83.1958 23.2512 83.1817 23.0805C83.1675 22.9098 83.19 22.738 83.2476 22.5766C83.3253 22.3805 83.4478 22.2052 83.6053 22.0649C83.7628 21.9245 83.9509 21.8229 84.1546 21.7682L84.1608 21.7621ZM86.7851 28.3729C86.4822 28.4161 86.1923 28.5244 85.9353 28.6902C85.6782 28.8561 85.4601 29.0756 85.2959 29.3337C85.1334 29.6588 85.0921 30.0312 85.1794 30.384C85.2667 30.7368 85.477 31.047 85.7724 31.2587C86.3487 31.6119 87.0118 31.7979 87.6877 31.7959C88.7423 31.8159 89.7929 31.6618 90.7972 31.3398C90.8034 30.364 90.7972 29.3892 90.7972 28.4126C89.475 28.1568 88.1176 28.1401 86.7895 28.3632L86.7851 28.3729Z" fill="white"/>
<path d="M63.0917 21.7209C63.2197 21.5541 63.3829 21.4175 63.5695 21.3207C63.7562 21.224 63.9618 21.1695 64.1719 21.1611C64.382 21.1527 64.5914 21.1906 64.7852 21.2721C64.979 21.3536 65.1524 21.4768 65.2933 21.6328C65.5083 21.9243 65.6481 22.2643 65.7002 22.6226C66.3659 25.0805 67.0062 27.5445 67.686 29.997C68.5059 27.4987 69.3592 25.0109 70.1914 22.517C70.2897 22.1969 70.4707 21.9084 70.716 21.6806C70.9613 21.4527 71.2623 21.2935 71.5887 21.2189C71.9151 21.1444 72.2553 21.1571 72.5752 21.2559C72.8952 21.3547 73.1834 21.536 73.4109 21.7817C73.6461 22.0411 73.8145 22.3539 73.9015 22.6931C74.5038 24.5459 75.1079 26.3985 75.7138 28.2507C75.9234 28.8284 76.059 29.4369 76.3135 29.9961C76.9957 27.5409 77.6761 25.0852 78.3548 22.6288C78.4061 22.2355 78.5707 21.8656 78.8285 21.5641C78.9471 21.4414 79.089 21.3436 79.2458 21.2765C79.4027 21.2094 79.5714 21.1742 79.742 21.1732C79.9126 21.1721 80.0817 21.2051 80.2394 21.2703C80.3971 21.3355 80.5402 21.4315 80.6603 21.5527C80.8363 21.7285 80.9583 21.9511 81.0117 22.1941C81.0651 22.4372 81.0476 22.6904 80.9614 22.9238L78.1108 32.1537C78.0188 32.4611 77.8529 32.7413 77.6275 32.9697C77.4021 33.1981 77.1242 33.3679 76.8181 33.464C76.4759 33.5677 76.1118 33.575 75.7657 33.4851C75.4197 33.3951 75.1053 33.2114 74.857 32.9542C74.521 32.5044 74.2828 31.9894 74.1577 31.4421C73.4154 29.3049 72.7152 27.1517 71.95 25.0224C71.1574 27.3877 70.3173 29.7381 69.5124 32.0991C69.3863 32.5277 69.1273 32.9052 68.7727 33.177C68.5239 33.3596 68.2349 33.48 67.93 33.5278C67.625 33.5757 67.3131 33.5497 67.0203 33.4521C66.7275 33.3544 66.4623 33.1879 66.2472 32.9666C66.0321 32.7453 65.8731 32.4756 65.7838 32.1801C64.8398 29.0944 63.8931 26.0092 62.9438 22.9247C62.8697 22.727 62.8444 22.5143 62.8701 22.3047C62.8959 22.095 62.9719 21.8948 63.0917 21.7209V21.7209Z" fill="white"/>
<path d="M54.4493 17.6054C54.742 17.3793 55.1095 17.2723 55.4778 17.306C56.7917 17.306 58.1057 17.306 59.4205 17.306C59.663 17.2935 59.9044 17.3457 60.1201 17.4575C60.3357 17.5692 60.5176 17.7364 60.6471 17.9418C60.8333 18.3243 60.904 18.7527 60.8506 19.1747C60.8506 21.8354 60.8506 24.496 60.8506 27.1567C60.8646 27.8128 60.8285 28.4688 60.7889 29.1231C60.7181 30.4164 60.1663 31.6365 59.2417 32.5435C58.2224 33.3695 56.9427 33.8065 55.6311 33.7764C54.0427 33.8708 52.4742 33.3834 51.2191 32.4052C50.9982 32.2196 50.8439 31.9669 50.7795 31.6856C50.715 31.4043 50.7441 31.1097 50.8621 30.8464C50.9802 30.583 51.1809 30.3654 51.4338 30.2264C51.6867 30.0873 51.978 30.0346 52.2636 30.076C52.6236 30.159 52.9568 30.3317 53.2323 30.5779C53.9332 31.0755 54.7928 31.2974 55.6469 31.2014C56.001 31.1833 56.3452 31.0781 56.6489 30.8952C56.9526 30.7122 57.2064 30.4572 57.3879 30.1526C57.7509 29.3343 57.8954 28.4359 57.8071 27.5451C57.8071 24.9777 57.8071 22.4104 57.8071 19.8431C56.9511 19.8343 56.0943 19.8431 55.2383 19.8369C54.9804 19.8333 54.7297 19.7507 54.5201 19.6001C54.3106 19.4496 54.1523 19.2383 54.0666 18.995C53.9809 18.7516 53.9718 18.4879 54.0408 18.2392C54.1097 17.9906 54.2532 17.7691 54.4519 17.6045L54.4493 17.6054Z" fill="white"/>
<path d="M40.5698 20.3629C40.877 20.1758 41.2401 20.1024 41.5959 20.1555C41.9517 20.2086 42.2776 20.3849 42.5168 20.6535C43.192 21.4438 43.8636 22.2363 44.5317 23.0312C44.8841 23.3493 45.1081 23.7853 45.1613 24.2571C45.1746 24.4999 45.129 24.7424 45.0286 24.9639C44.9282 25.1854 44.7759 25.3794 44.5845 25.5296C40.192 29.2018 35.7973 32.8711 31.4007 36.5374C30.9199 36.9258 30.4619 37.3441 29.9608 37.7086C28.215 38.9966 26.0351 39.5518 23.8858 39.2557C21.7366 38.9595 19.788 37.8356 18.4555 36.1235C16.949 34.3329 15.4414 32.5423 13.9326 30.7517C13.749 30.5449 13.6236 30.2932 13.5691 30.0221C13.5147 29.7511 13.5331 29.4704 13.6226 29.2088C13.7294 28.9204 13.9202 28.6708 14.1705 28.4921C14.4208 28.3134 14.7189 28.214 15.0263 28.2067C15.2576 28.2045 15.4865 28.2533 15.6968 28.3495C15.9071 28.4456 16.0937 28.5869 16.2433 28.7632C17.7985 30.609 19.3543 32.4545 20.9107 34.2997C21.4133 34.9316 22.0509 35.4431 22.7767 35.7968C23.5048 36.1422 24.3027 36.3151 25.1084 36.3023C25.9142 36.2895 26.7061 36.0912 27.4229 35.7228C28.0255 35.3765 28.5868 34.9629 29.0961 34.4899C31.7198 32.2978 34.3443 30.1059 36.9697 27.9143C38.4747 26.6664 39.9639 25.3975 41.4786 24.1637C41.033 23.601 40.5381 23.0761 40.1039 22.5037C39.9905 22.3337 39.9124 22.1425 39.8744 21.9416C39.8365 21.7407 39.8393 21.5343 39.8827 21.3345C39.9262 21.1348 40.0094 20.9458 40.1275 20.7789C40.2455 20.612 40.3959 20.4705 40.5698 20.3629V20.3629Z" fill="white"/>
<path opacity="0.5" d="M30.0551 8.42333C30.2517 8.2382 30.4931 8.10741 30.7556 8.0438C31.018 7.98019 31.2926 7.98595 31.5521 8.06051C31.9532 8.19329 32.2978 8.45729 32.5305 8.80992C33.368 9.80679 34.2116 10.7975 35.0482 11.7944C35.5505 11.4946 36.1119 11.3076 36.6936 11.2463C37.2753 11.185 37.8634 11.2509 38.4171 11.4395C38.9708 11.628 39.4768 11.9347 39.9002 12.3383C40.3237 12.7418 40.6543 13.2326 40.8692 13.7766C41.1574 14.5335 41.2084 15.3602 41.0154 16.1467C40.8224 16.9332 40.3945 17.6424 39.7886 18.1798C37.9798 19.6968 36.1675 21.2106 34.3516 22.7212C33.9402 23.1001 33.4911 23.4358 33.0113 23.7233C32.4602 24.0133 31.8495 24.1721 31.2269 24.1874C30.6043 24.2026 29.9866 24.074 29.4219 23.8114C28.8222 23.5312 28.302 23.1056 27.9086 22.5733C27.5151 22.041 27.2608 21.4189 27.1688 20.7634C27.0768 20.1079 27.1499 19.4398 27.3816 18.8198C27.6133 18.1997 27.9962 17.6474 28.4955 17.2129C29.6711 16.216 30.8626 15.2358 32.0444 14.2443C32.2496 14.0743 32.4468 13.892 32.667 13.7458C32.1386 13.0184 31.509 12.3668 30.948 11.6631C24.8374 16.7294 18.7566 21.8335 12.6574 26.9138C12.4351 27.0926 12.1675 27.206 11.8845 27.2415C11.6015 27.2769 11.3142 27.233 11.0547 27.1146C10.7129 26.9207 10.4186 26.6529 10.1934 26.3309C9.7214 25.7567 9.22473 25.2054 8.7668 24.6198C8.33675 24.0292 8.07658 23.3322 8.01448 22.6043C7.95239 21.8764 8.09075 21.1454 8.41455 20.4905C8.67623 19.9721 9.04586 19.5157 9.4986 19.152C12.7381 16.4467 15.9788 13.7417 19.2207 11.037C19.6823 10.5986 20.2028 10.2266 20.7671 9.93184C21.4308 9.63127 22.1632 9.51524 22.8873 9.59599C23.6113 9.67673 24.3002 9.95125 24.8814 10.3906C25.3412 10.7871 25.7591 11.2297 26.1284 11.7116C27.4343 10.6117 28.7482 9.52059 30.0568 8.42509L30.0551 8.42333ZM21.8168 12.8414C18.3489 15.7316 14.8825 18.6242 11.4175 21.5191C11.2378 21.663 11.116 21.8668 11.0743 22.0932C11.0325 22.3196 11.0737 22.5535 11.1903 22.752C11.3999 23.0488 11.6509 23.3147 11.886 23.5912C15.7883 20.3347 19.6904 17.0764 23.5921 13.8163C23.6579 13.7573 23.7202 13.6947 23.7788 13.6287C23.534 13.3892 23.3385 13.1056 23.099 12.8608C22.9253 12.7011 22.6993 12.6103 22.4633 12.6054C22.2274 12.6006 21.9978 12.682 21.8177 12.8344L21.8168 12.8414ZM36.7883 14.32C36.6508 14.3824 36.5237 14.4656 36.4114 14.5666C34.5662 16.1047 32.721 17.6432 30.8758 19.1819C30.6852 19.3239 30.5109 19.4867 30.3562 19.6672C30.2462 19.8271 30.1884 20.0172 30.1907 20.2113C30.1931 20.4054 30.2555 20.594 30.3694 20.7512C30.4471 20.8565 30.5456 20.9447 30.6588 21.0103C30.772 21.0758 30.8975 21.1173 31.0275 21.1322C31.1575 21.1471 31.2892 21.135 31.4143 21.0967C31.5394 21.0584 31.6553 20.9948 31.7547 20.9097C33.7549 19.2448 35.7533 17.5777 37.75 15.9087C37.9021 15.7764 38.0071 15.5984 38.0494 15.4013C38.0916 15.2042 38.0688 14.9988 37.9842 14.8158C37.8826 14.5973 37.7022 14.4253 37.4791 14.3344C37.256 14.2434 37.0067 14.2401 36.7813 14.3253L36.7883 14.32Z" fill="white"/>
</svg>
