<?xml version="1.0" standalone="no"?>
<!DOCTYPE svg PUBLIC "-//W3C//DTD SVG 20010904//EN"
 "http://www.w3.org/TR/2001/REC-SVG-20010904/DTD/svg10.dtd">
<svg xmlns="http://www.w3.org/2000/svg" viewBox="0 0 424 424">
    <path d="M258.5 35.1c-2.6.7-5.2 2.6-15 10.7-1.1.9-4.5 3.7-7.5 6.2s-6.8 5.7-8.5 7.2c-6.6 5.8-20 16.8-20.6 16.8-.3 0-2.8-2.6-5.5-5.9-11.7-14-28.1-20.3-44.9-17.2-11.5 2.1-16.9 5.8-51.7 35.2-3.9 3.3-19.4 16.2-47.7 39.7-2.5 2-5.8 4.9-7.5 6.4-1.7 1.4-10.3 8.7-19.2 16C13.2 164.5 9.8 167.9 5.7 175c-7.5 13-7.1 33.1.9 45.3 3.2 4.9 13.8 17.9 20.7 25.3 7.1 7.7 13.7 9.7 21.7 6.6 1.9-.8 39.9-31.7 57-46.5 1.4-1.2 10.6-8.9 20.5-17.2 9.9-8.2 18.9-15.7 20-16.7 1.1-.9 12.4-10.2 25-20.8 12.7-10.5 23.9-19.9 25-20.8 1.1-1 7.2-6 13.5-11.2 6.3-5.2 12.9-10.7 14.5-12.1 1.7-1.5 6.4-5.4 10.5-8.8 4.1-3.5 8.4-7 9.5-7.9 1.1-.9 4.5-3.7 7.5-6.2s6.3-5.3 7.5-6.3c2-1.8 2.1-1.7 6.3 3 2.3 2.6 6.8 7.9 9.9 11.7 5.6 6.7 5.7 6.9 3.7 8.5-47.8 39.4-51.9 43.2-56.4 52.6-11.7 24.6-.3 52.6 25.5 62.5 4.7 1.8 8 2.3 15.5 2.3 10.4 0 17.2-2 24.8-7.1 4.4-2.9 71.7-58.8 75.7-62.8 7.8-7.8 12.6-19 13.1-30.5.9-20.9-11.3-38-31.9-44.9-9-3-21.1-2.5-30.7 1.3-5.1 2.1-6.7 2.4-7.6 1.4-1.1-1-6.7-7.7-24.4-28.7-7.3-8.6-9.9-10.9-13.8-12-4.3-1.2-6.6-1.2-10.7.1zm-85.1 56.1c7.7 7.9 8.5 6-9.5 20.9-8.9 7.4-16.7 13.9-17.3 14.4-.6.6-8.3 7.1-17.1 14.4-8.8 7.3-18 15-20.5 17.1-2.5 2.1-14.4 12-26.5 22.1C70.4 190.2 60.3 198.6 60 199c-.3.3-3.9 3.3-8.1 6.7l-7.6 6.2-4.7-5.7c-4.3-5.2-4.7-6.1-4.3-9.9.3-2.4 1-5 1.7-5.9 1.4-1.6 8.4-7.5 75.5-63.5 24.8-20.7 45.9-38.1 47-38.7 1.1-.6 3.7-1.2 5.9-1.2 3.2 0 4.5.7 8 4.2zm165.2 16.4c3.1 2.1 4.8 6.7 4 10.9-.6 2.8-2.5 5-10.9 12.1-5.6 4.7-11.3 9.6-12.7 10.8-1.4 1.2-9.2 7.8-17.5 14.6-19.3 16.1-18 15-25 20.9-3.3 2.8-7.7 5.7-9.9 6.3-9.8 3-17.5-8.9-10.8-16.7.9-1.1 15.2-13.3 31.7-27s30.9-25.8 32-26.8c1.1-1 3.9-3.1 6.3-4.7 4.6-3 8.5-3.2 12.8-.4z"/>
    <path d="M375.5 173.1c-6.8 1.9-13 11.2-12.1 18.3.7 4.9 2.4 7.8 11 18.1l7.5 9-2.3 2c-1.3 1.1-6.8 5.6-12.2 10-5.3 4.4-13.4 11.1-17.8 14.8-4.5 3.8-10.1 8.5-12.6 10.6-43.5 36.3-54.6 45.5-55 46-.3.3-2.7 2.4-5.5 4.6-2.7 2.1-5.2 4.2-5.5 4.5-2.9 3.2-42.3 34.9-46.6 37.5-22.1 13.3-51.1 10.4-70-7.1-2.8-2.6-23.3-26.3-40.4-46.8-3.6-4.3-7-8.3-7.6-9-.5-.6-3.7-4.4-7.1-8.4-7.5-9-9.9-10.9-15.2-12.1-9.7-2.2-19.3 4.6-20.5 14.5-1 7.9 0 9.5 24.4 38.4 2.1 2.5 10.2 12.1 18.1 21.5 17.2 20.4 27.5 30.9 35.5 36 17.2 11.1 33.5 15.9 53.6 15.7 20.5-.1 38.8-6.2 55.5-18.4 2.9-2.1 16.4-13.2 30-24.6 28.3-23.6 24.7-20.6 42.3-35.4 7.4-6.2 21.6-18.1 31.5-26.3 9.9-8.3 18.5-15.5 19.1-16 .6-.6 11.3-9.5 23.8-19.9 15.6-12.9 23.3-20 24.5-22.5 2.4-5 2.5-10.3.2-14.8-3-5.9-30.7-37.9-33.9-39.1-3.9-1.6-9.2-2-12.7-1.1z"/>
</svg>