<?xml version="1.0" standalone="no"?>
<!DOCTYPE svg PUBLIC "-//W3C//DTD SVG 20010904//EN"
 "http://www.w3.org/TR/2001/REC-SVG-20010904/DTD/svg10.dtd">
<svg version="1.0" xmlns="http://www.w3.org/2000/svg"
 width="270.000000pt" height="270.000000pt" viewBox="0 0 270.000000 270.000000"
 preserveAspectRatio="xMidYMid meet">
<metadata>
Created by potrace 1.11, written by Peter Selinger 2001-2013
</metadata>
<g transform="translate(0.000000,270.000000) scale(0.100000,-0.100000)"
fill="#000000" stroke="none">
<path d="M245 2133 c-38 -20 -63 -46 -75 -79 -16 -42 -13 -1045 4 -1114 31
-134 125 -259 246 -327 99 -57 153 -63 532 -63 293 0 345 2 374 16 106 51 108
210 3 262 -38 19 -61 20 -379 21 -321 0 -340 1 -379 20 -43 22 -83 68 -101
115 -9 24 -15 189 -11 309 l1 27 575 0 c325 0 575 -4 575 -9 0 -13 61 -71 92
-87 78 -41 185 -18 247 52 72 82 71 187 -1 269 -66 74 -42 72 -811 71 l-677
-1 -1 35 c0 19 -1 70 -2 114 -1 52 2 80 10 83 6 2 265 5 575 6 l565 2 37 28
c86 66 79 193 -13 245 -39 22 -39 22 -697 22 -583 -1 -662 -3 -689 -17z"/>
<path d="M1975 2136 c-69 -31 -104 -110 -80 -180 28 -82 75 -103 227 -105 61
0 113 -3 116 -6 11 -10 4 -830 -7 -859 -20 -50 -69 -103 -113 -121 -34 -13
-75 -16 -222 -15 -169 0 -184 -1 -226 -22 -107 -54 -107 -206 0 -261 31 -16
58 -18 255 -14 202 3 225 5 280 27 124 48 222 136 279 247 53 107 56 134 56
691 0 568 1 559 -64 605 -30 21 -41 22 -251 24 -168 2 -227 0 -250 -11z"/>
</g>
</svg>
