<svg width="32" height="32" viewBox="0 0 32 32" fill="none" xmlns="http://www.w3.org/2000/svg">
<circle cx="16" cy="16" r="16" fill="black"/>
<path d="M13.3248 18.1741C14.1948 19.9374 15.034 21.6376 15.898 23.3927C16.348 22.065 16.7785 20.7875 17.2203 19.4876C15.934 19.052 14.6635 18.6239 13.3248 18.1741ZM8.61776 15.9085L12.5177 17.2302C12.9565 15.9333 13.39 14.6581 13.84 13.3319C12.0745 14.2008 10.3705 15.0396 8.61776 15.9063V15.9085ZM13.5512 17.5646C13.5887 17.588 13.6276 17.6093 13.6675 17.6283C14.9238 18.0564 16.18 18.4837 17.4385 18.9028C17.5561 18.9295 17.6793 18.9138 17.7865 18.8585C19.2275 18.1548 20.6658 17.4474 22.1013 16.7362C22.51 16.5345 22.9187 16.3306 23.3627 16.1072C23.266 16.0682 23.2128 16.0465 23.161 16.0322C21.9438 15.6214 20.7288 15.2076 19.5055 14.8013C19.377 14.7622 19.2387 14.771 19.1162 14.826C17.584 15.5712 16.06 16.3254 14.5307 17.0803C14.2165 17.231 13.9 17.3907 13.5512 17.5616V17.5646ZM18.8688 14.239C17.944 12.3648 17.0297 10.5138 16.0938 8.61633C15.1383 11.4397 14.2053 14.1933 13.2505 17.0128C15.1525 16.075 16.9998 15.1611 18.8688 14.2367V14.239ZM7 16C7.89475 15.5554 8.73925 15.1364 9.58675 14.7195C11.0253 14.0103 12.4645 13.3021 13.9045 12.5949C13.9765 12.564 14.0408 12.5175 14.0926 12.4588C14.1445 12.4001 14.1827 12.3306 14.2045 12.2553C14.7675 10.5775 15.3353 8.90072 15.9078 7.22492C15.9295 7.1642 15.955 7.10346 15.9932 7C16.051 7.1102 16.0922 7.19041 16.1312 7.27063C17.2312 9.5032 18.3345 11.7348 19.441 13.9654C19.515 14.0804 19.6274 14.1654 19.7582 14.2052C21.4232 14.7795 23.0935 15.3425 24.7607 15.9108L25 16C24.8455 16.075 24.7323 16.1379 24.616 16.1934C22.4658 17.2535 20.3177 18.318 18.166 19.3698C18.0691 19.4124 17.9828 19.4758 17.9132 19.5555C17.8436 19.6352 17.7924 19.7292 17.7633 19.8309C17.2083 21.4952 16.6382 23.1535 16.0735 24.8148C16.057 24.8591 16.0375 24.9033 15.9985 25C15.8485 24.7099 15.7278 24.4617 15.6063 24.2136C14.6063 22.1824 13.6063 20.1513 12.6063 18.1201C12.5725 18.0413 12.5219 17.9708 12.458 17.9136C12.3942 17.8563 12.3186 17.8137 12.2365 17.7887C10.566 17.2285 8.89751 16.6627 7.23101 16.0915C7.16876 16.069 7.108 16.0442 7 16Z" fill="white"/>
</svg>
