<svg width="32" height="32" viewBox="0 0 32 32" fill="none" xmlns="http://www.w3.org/2000/svg">
<circle cx="16" cy="16" r="16" fill="#2C9AD9"/>
<path d="M24.4357 18.0249C24.2925 17.9619 24.1125 18.0544 24.0348 18.2328C24.0083 18.288 23.996 18.3489 23.999 18.41C24.002 18.4712 24.0202 18.5306 24.052 18.5829L22.211 21.8361C22.1437 21.8279 22.0754 21.8375 22.013 21.8639L20.7939 20.6219C20.8172 20.5173 20.8035 20.4079 20.7552 20.3122C20.7069 20.2166 20.6268 20.1407 20.5288 20.0974V12.084C20.6042 12.0505 20.6692 11.9974 20.717 11.9302L23.719 13.5387L23.7288 13.5788C23.7836 13.7654 23.9497 13.8775 24.0994 13.8292C24.2483 13.7817 24.3253 13.5911 24.2696 13.4037C24.2189 13.2327 24.0765 13.1255 23.9374 13.1444L22.4786 10.2954L22.4851 10.2872C22.5915 10.1326 22.5244 9.89856 22.3378 9.76438C22.285 9.72407 22.2235 9.69646 22.1582 9.68369C22.093 9.67092 22.0257 9.67333 21.9615 9.69074L20.9665 9.02145C20.9568 8.94912 20.9306 8.87997 20.89 8.81929C20.8495 8.7586 20.7956 8.70797 20.7325 8.67126C20.6753 8.63589 20.611 8.61334 20.5442 8.60515C20.4774 8.59696 20.4096 8.60332 20.3455 8.6238L18.0333 7.30486C18.0006 7.1625 17.8656 7.03895 17.6864 7.00786C17.4884 6.97267 17.3051 7.05859 17.2404 7.20668L12.2339 8.11652C12.1782 8.0789 12.1146 8.05467 12.0481 8.04573C11.9815 8.03679 11.9137 8.04337 11.8501 8.06497C11.6456 8.12961 11.5147 8.31125 11.5441 8.48389L8.06514 12.1298C7.90968 12.12 7.75177 12.2411 7.68713 12.4317C7.66058 12.5012 7.65183 12.5762 7.66169 12.65C7.67155 12.7237 7.6997 12.7938 7.74359 12.8539L7.54804 17.507C7.44413 17.5921 7.38849 17.7525 7.41631 17.921C7.44903 18.1092 7.5734 18.2516 7.7174 18.2802L9.04289 21.3542C8.98971 21.4949 9.04044 21.6807 9.18198 21.8083C9.23117 21.8558 9.29094 21.891 9.35638 21.9109C9.42181 21.9308 9.49103 21.9349 9.55836 21.9228L12.7804 24.2482C12.7723 24.4175 12.9146 24.582 13.1208 24.627C13.1842 24.6425 13.2502 24.6437 13.314 24.6304C13.3779 24.6171 13.4379 24.5896 13.4898 24.5501L17.661 24.8422C17.7412 24.9608 17.9081 25.0246 18.084 24.9911C18.1584 24.98 18.2286 24.9495 18.2875 24.9027C18.3463 24.8558 18.3919 24.7943 18.4195 24.7244L21.9688 22.5987C22.0339 22.603 22.0991 22.593 22.1599 22.5694C22.2207 22.5458 22.2756 22.5092 22.3207 22.462C22.4418 22.3418 22.4884 22.1781 22.4516 22.0456L24.2729 18.6885C24.3356 18.6786 24.3947 18.6525 24.4442 18.6127C24.4937 18.573 24.532 18.521 24.5552 18.4619C24.6329 18.2835 24.5797 18.0879 24.4365 18.0249H24.4357ZM24.439 18.4136C24.4071 18.4848 24.3351 18.5224 24.2786 18.497C24.2205 18.4709 24.1992 18.3931 24.2303 18.3219C24.2614 18.2508 24.3334 18.2139 24.3907 18.2385C24.448 18.263 24.4701 18.3416 24.439 18.4136ZM22.2585 22.3344C22.193 22.3999 22.0973 22.408 22.0457 22.3549C21.9942 22.3009 22.0065 22.2035 22.0711 22.138C22.1374 22.0726 22.2323 22.0644 22.2838 22.1184C22.3354 22.1724 22.3239 22.2698 22.2585 22.3344ZM21.7438 22.1299L18.4923 23.2541C18.449 23.2065 18.396 23.1688 18.3368 23.1436L18.1847 20.9287C18.2667 20.8816 18.3324 20.8105 18.3728 20.725H19.9421C20.0158 20.8805 20.1704 20.9868 20.3504 20.9868C20.4328 20.9869 20.5136 20.964 20.5836 20.9206L21.7536 22.1102L21.7438 22.1299ZM18.3336 24.4094C18.3085 24.3867 18.2804 24.3677 18.2501 24.3529L18.3287 23.8914C18.3908 23.8671 18.4464 23.8286 18.4909 23.7788C18.5354 23.7291 18.5675 23.6695 18.5848 23.6051L21.1703 22.7108L18.3336 24.4094ZM18.0676 24.8496C17.9776 24.8659 17.8934 24.8201 17.8795 24.7456C17.8664 24.6712 17.9286 24.5967 18.0186 24.5812C18.1086 24.5632 18.1928 24.6098 18.2059 24.6843C18.219 24.7587 18.1568 24.8332 18.0668 24.8496H18.0676ZM17.6553 24.5239L14.5396 24.3071L17.7944 23.7818C17.841 23.8325 17.9007 23.8718 17.9686 23.898L17.8942 24.3357C17.7944 24.3676 17.7096 24.4344 17.6553 24.5239ZM14.6107 20.9762C14.661 20.9645 14.7089 20.9443 14.7523 20.9165L17.6561 23.4365L13.552 24.0993L14.6107 20.9762ZM13.2484 23.8849L12.22 20.7913C12.2342 20.7703 12.2471 20.7485 12.2584 20.7258H14.1043C14.1386 20.7995 14.1918 20.8616 14.2581 20.9075L13.2484 23.8849ZM13.1233 24.4863C13.0333 24.4666 12.9735 24.3914 12.9891 24.3169C13.0046 24.2433 13.0905 24.1991 13.1797 24.2187C13.2697 24.2384 13.3286 24.3136 13.3131 24.3881C13.2984 24.4617 13.2124 24.5059 13.1233 24.4863ZM9.77927 21.6946C9.78502 21.6636 9.78667 21.6319 9.78418 21.6005L11.5212 20.8436C11.57 20.8959 11.6306 20.9358 11.6979 20.96C11.7652 20.9842 11.8373 20.992 11.9082 20.9827L12.8925 23.9413L9.77927 21.6946ZM9.48799 21.2053L8.71643 17.4023L11.4787 20.2578C11.429 20.3304 11.4007 20.4154 11.3969 20.5033L9.61072 21.2814C9.57356 21.2504 9.53225 21.2248 9.48799 21.2053ZM9.46917 21.7036C9.42008 21.7608 9.32435 21.7559 9.25644 21.6946C9.18689 21.6332 9.17135 21.5367 9.22044 21.4794C9.26953 21.4221 9.36526 21.4278 9.43317 21.4892C9.50272 21.5514 9.51745 21.6479 9.46917 21.7036ZM8.00459 18.1583C8.04439 18.1003 8.07064 18.034 8.0814 17.9645C8.09217 17.895 8.08717 17.8239 8.06678 17.7566L8.31796 17.2215L8.95534 20.3617L8.00459 18.1583ZM7.98168 14.6073L8.1126 16.4098C8.0696 16.4777 8.0453 16.5558 8.04214 16.6361C8.03898 16.7164 8.05707 16.7961 8.0946 16.8672L7.86714 17.3499L7.98168 14.6073ZM7.81804 12.4383C7.84832 12.3499 7.9285 12.2992 7.99805 12.3237C8.06923 12.3483 8.10114 12.4407 8.07169 12.5283C8.04059 12.6174 7.96041 12.6682 7.89004 12.6436C7.8205 12.6191 7.78777 12.5266 7.81804 12.4383ZM8.50861 16.6544C8.50861 16.7485 8.44069 16.8238 8.35887 16.8238C8.27624 16.8238 8.20833 16.7485 8.20833 16.6544C8.20833 16.5612 8.27624 16.4859 8.35887 16.4859C8.44069 16.4859 8.50861 16.5612 8.50861 16.6544ZM8.32042 12.6567C8.33108 12.625 8.33875 12.5925 8.34333 12.5594L9.90118 11.5014L8.4456 16.1079L8.20833 12.8433C8.25918 12.7903 8.29748 12.7265 8.32042 12.6567ZM10.7963 9.72347L10.1884 10.7135C10.0918 10.7369 10.0052 10.7905 9.94128 10.8665C9.87914 10.9373 9.83879 11.0245 9.82509 11.1177L8.80479 11.8099L10.7963 9.72347ZM11.8223 8.7359C11.8919 8.74817 11.9696 8.74408 12.0457 8.72035C12.1482 8.68984 12.2371 8.62516 12.2977 8.53708L14.9716 9.12945C14.9835 9.20647 15.0144 9.27931 15.0616 9.34137L14.1861 11.2028C14.117 11.2175 14.0523 11.2481 13.9971 11.2921C13.9418 11.3361 13.8976 11.3924 13.8678 11.4564H12.2584C12.222 11.3785 12.1642 11.3126 12.0918 11.2662C12.0194 11.2199 11.9353 11.195 11.8493 11.1946C11.7885 11.1945 11.7283 11.2069 11.6724 11.231C11.6166 11.255 11.5662 11.2903 11.5245 11.3345L10.5631 11.04C10.5689 10.9737 10.5553 10.9071 10.5238 10.8485L11.8223 8.7359ZM11.8698 8.20161C11.9581 8.17379 12.0457 8.21061 12.067 8.28343C12.0891 8.35543 12.0351 8.43644 11.9475 8.46344C11.8608 8.49044 11.7724 8.45444 11.7503 8.38162C11.729 8.30962 11.783 8.22861 11.8698 8.20161ZM16.9819 7.57651L15.5689 8.62053C15.4782 8.58776 15.3793 8.58545 15.2871 8.61394C15.195 8.64244 15.1147 8.70019 15.0583 8.77844L12.9465 8.31125L16.9819 7.57651ZM17.4769 7.65587C17.5073 7.66804 17.5388 7.67708 17.571 7.68287C17.7052 7.7066 17.8328 7.67469 17.9212 7.60514L20.1091 8.85208L20.1001 8.88317L15.9722 8.76863L17.4769 7.65587ZM17.6716 7.14941C17.7616 7.16577 17.8246 7.23941 17.8116 7.31305C17.7985 7.38832 17.715 7.43578 17.625 7.41941C17.535 7.40305 17.4728 7.32941 17.4851 7.25577C17.4974 7.1805 17.5808 7.13304 17.6716 7.14941ZM20.3169 9.379L20.1598 11.2371C20.0643 11.2827 19.9874 11.3599 19.9421 11.4556H18.0963C18.0524 11.3626 17.9782 11.2873 17.8859 11.242C17.7936 11.1966 17.6886 11.184 17.5882 11.206L15.8503 9.20145C15.8581 9.17748 15.8636 9.15282 15.8667 9.12782L20.1737 9.24646C20.2124 9.29949 20.261 9.3445 20.3169 9.379ZM20.3496 11.472C20.4503 11.472 20.5321 11.5554 20.5321 11.6577C20.5321 11.76 20.4503 11.8426 20.3504 11.8426C20.2506 11.8426 20.1688 11.76 20.1688 11.6577C20.1688 11.5554 20.2498 11.472 20.3496 11.472ZM20.4306 8.85372C20.4756 8.77517 20.582 8.75308 20.6687 8.80463C20.7554 8.85617 20.789 8.96172 20.744 9.04027C20.699 9.11963 20.5918 9.14173 20.5067 9.08936C20.4192 9.03863 20.3856 8.93227 20.4306 8.85372ZM23.6339 13.2049L20.8029 11.6192C20.7962 11.5337 20.7659 11.4516 20.7154 11.3823C20.6648 11.3129 20.596 11.259 20.5165 11.2265L20.6663 9.45182L23.6339 13.2049ZM21.7577 9.93456C21.7414 10.0712 21.8134 10.2267 21.9533 10.3257C22.0241 10.3775 22.108 10.4086 22.1955 10.4157L23.2411 12.2853L21.0917 9.48701L21.7577 9.93456ZM22.0687 9.88793C22.1112 9.82574 22.2061 9.8192 22.2814 9.87238C22.3567 9.92556 22.3828 10.0197 22.3403 10.0818C22.2977 10.144 22.202 10.1506 22.1276 10.0974C22.0523 10.0434 22.0253 9.95011 22.0687 9.88793ZM17.5113 11.6577C17.5113 11.5571 17.589 11.4761 17.688 11.4761C17.7862 11.4761 17.8656 11.5579 17.8656 11.6577C17.8658 11.7052 17.8472 11.7508 17.814 11.7846C17.7807 11.8185 17.7355 11.8379 17.688 11.8385C17.6644 11.8384 17.6411 11.8336 17.6194 11.8245C17.5977 11.8153 17.578 11.8019 17.5615 11.7851C17.545 11.7683 17.532 11.7484 17.5232 11.7265C17.5145 11.7046 17.5109 11.6813 17.5113 11.6577ZM17.6086 15.563C17.7093 15.563 17.7895 15.6456 17.7895 15.7479C17.7898 15.772 17.7854 15.7958 17.7765 15.8182C17.7675 15.8406 17.7543 15.861 17.7375 15.8782C17.7207 15.8954 17.7007 15.9092 17.6786 15.9187C17.6565 15.9282 17.6327 15.9333 17.6086 15.9336C17.5845 15.9334 17.5606 15.9284 17.5384 15.919C17.5162 15.9095 17.4961 15.8957 17.4792 15.8785C17.4623 15.8612 17.449 15.8408 17.4401 15.8184C17.4311 15.796 17.4267 15.772 17.427 15.7479C17.427 15.6456 17.5088 15.563 17.6086 15.563ZM15.2383 8.99772C15.2383 8.89545 15.3193 8.81199 15.4191 8.81199C15.5198 8.81199 15.6008 8.89545 15.6008 8.99772C15.6008 9.1 15.519 9.18264 15.4191 9.18264C15.3707 9.18199 15.3244 9.16217 15.2905 9.12751C15.2567 9.09286 15.2379 9.04619 15.2383 8.99772ZM15.3709 9.51892C15.4548 9.52783 15.5395 9.51309 15.6155 9.47637L17.3002 11.418C17.2657 11.4744 17.2437 11.5377 17.2357 11.6034C17.2277 11.6691 17.2338 11.7357 17.2538 11.7988C17.2737 11.8619 17.3069 11.92 17.3512 11.9692C17.3955 12.0184 17.4498 12.0576 17.5105 12.084V15.2962C17.4836 15.302 17.4573 15.3103 17.4319 15.3208L14.6664 11.8925C14.7236 11.793 14.7424 11.6761 14.7193 11.5636C14.6963 11.4512 14.6329 11.3511 14.5412 11.2821L15.3709 9.51892ZM14.0945 11.6577C14.0945 11.5554 14.1763 11.472 14.2761 11.472C14.3751 11.472 14.4569 11.5554 14.4569 11.6577C14.4569 11.76 14.3751 11.8426 14.2761 11.8426C14.252 11.8424 14.2282 11.8374 14.2061 11.828C14.1839 11.8186 14.1639 11.8049 14.147 11.7878C14.1301 11.7706 14.1168 11.7503 14.1078 11.728C14.0988 11.7056 14.0942 11.6818 14.0945 11.6577ZM11.6726 11.6577C11.6726 11.5571 11.7511 11.4761 11.8493 11.4761C11.9475 11.4761 12.0269 11.5579 12.0269 11.6577C12.0269 11.7575 11.9475 11.8385 11.8493 11.8385C11.7511 11.8385 11.6726 11.7575 11.6726 11.6577ZM11.8493 20.3388C11.95 20.3388 12.031 20.4206 12.031 20.5237C12.0313 20.5478 12.0268 20.5717 12.0179 20.5941C12.0089 20.6165 11.9956 20.6368 11.9787 20.654C11.9618 20.6712 11.9417 20.6849 11.9195 20.6943C11.8973 20.7037 11.8734 20.7085 11.8493 20.7086C11.8254 20.7083 11.8017 20.7033 11.7797 20.6938C11.7577 20.6843 11.7377 20.6706 11.721 20.6535C11.7043 20.6363 11.6911 20.616 11.6823 20.5937C11.6734 20.5715 11.669 20.5477 11.6693 20.5237C11.6693 20.4214 11.7495 20.3388 11.8493 20.3388ZM10.0526 10.9622C10.1139 10.8919 10.208 10.8755 10.2628 10.9262C10.3185 10.9753 10.3144 11.0735 10.2546 11.143C10.1933 11.2142 10.0992 11.2298 10.0436 11.1799C9.98791 11.13 9.99282 11.0326 10.0517 10.9622H10.0526ZM8.72297 16.4106L10.2939 11.4384C10.3313 11.4194 10.366 11.3954 10.397 11.3672L11.3969 11.6741C11.3993 11.7615 11.4266 11.8464 11.4754 11.9189C11.5242 11.9915 11.5926 12.0487 11.6726 12.084V19.9412L8.72543 16.8958C8.77006 16.8233 8.79332 16.7396 8.79252 16.6544C8.79296 16.5682 8.76884 16.4836 8.72297 16.4106ZM17.9637 20.0598C17.9242 20.0604 17.8849 20.0659 17.8467 20.0762L14.9961 16.5334C15.0231 16.464 15.0328 16.3892 15.0243 16.3153C15.0159 16.2414 14.9896 16.1707 14.9477 16.1092C14.9058 16.0478 14.8496 15.9974 14.7839 15.9625C14.7182 15.9277 14.645 15.9093 14.5707 15.9091C14.5104 15.9097 14.4509 15.9222 14.3955 15.9459C14.3401 15.9696 14.2899 16.0039 14.2478 16.047C14.2057 16.0901 14.1725 16.1411 14.1501 16.197C14.1277 16.2529 14.1166 16.3127 14.1174 16.373C14.1173 16.4519 14.1372 16.5295 14.1752 16.5987C14.2133 16.6678 14.2683 16.7261 14.335 16.7682V20.0974C14.2779 20.1226 14.2266 20.1591 14.184 20.2046C14.1413 20.2502 14.1084 20.3039 14.0871 20.3625H12.2748C12.2534 20.304 12.2204 20.2503 12.1778 20.2047C12.1352 20.1592 12.0839 20.1227 12.0269 20.0974V12.084C12.0839 12.0588 12.1353 12.0223 12.1779 11.9768C12.2205 11.9312 12.2535 11.8775 12.2748 11.8189H13.8506C13.8881 11.9236 13.9627 12.011 14.0603 12.0643C14.1578 12.1177 14.2716 12.1335 14.38 12.1085L17.1848 15.5842C17.1651 15.6365 17.1551 15.692 17.1554 15.7479C17.1546 15.8081 17.1657 15.8679 17.1881 15.9239C17.2105 15.9798 17.2437 16.0308 17.2858 16.0738C17.3279 16.1169 17.3781 16.1513 17.4335 16.175C17.4889 16.1986 17.5484 16.2112 17.6086 16.2118C17.6689 16.2112 17.7285 16.1987 17.7839 16.175C17.8394 16.1513 17.8896 16.117 17.9318 16.0739C17.9739 16.0308 18.0072 15.9799 18.0297 15.9239C18.0522 15.868 18.0634 15.8082 18.0627 15.7479C18.063 15.6731 18.0453 15.5994 18.0112 15.5329C17.977 15.4664 17.9273 15.4091 17.8664 15.3658V12.0848C17.9232 12.0593 17.9743 12.0227 18.0167 11.977C18.059 11.9313 18.0916 11.8775 18.1127 11.8189H19.9258C19.9467 11.8776 19.9795 11.9314 20.022 11.9769C20.0644 12.0225 20.1158 12.059 20.1729 12.084V20.0974C20.1158 20.1225 20.0645 20.1589 20.022 20.2045C19.9795 20.2501 19.9468 20.3039 19.9258 20.3625H18.3892C18.3581 20.2744 18.3005 20.1981 18.2243 20.1439C18.1482 20.0897 18.0572 20.0604 17.9637 20.0598ZM18.1601 23.3711C18.2607 23.3711 18.3426 23.4447 18.3426 23.5363C18.3426 23.628 18.2607 23.7008 18.1609 23.7008C18.0619 23.7008 17.9809 23.6272 17.9809 23.5372C17.9809 23.4472 18.0619 23.3711 18.1609 23.3711H18.1601ZM17.7829 20.5237C17.7829 20.4214 17.8639 20.3388 17.9629 20.3388C18.0644 20.3388 18.1454 20.4206 18.1454 20.5237C18.1457 20.5478 18.1412 20.5717 18.1323 20.5941C18.1233 20.6165 18.11 20.6368 18.0931 20.654C18.0762 20.6712 18.0561 20.6849 18.0339 20.6943C18.0117 20.7037 17.9878 20.7085 17.9637 20.7086C17.9397 20.7084 17.916 20.7035 17.8938 20.694C17.8717 20.6846 17.8517 20.6709 17.8349 20.6538C17.8181 20.6366 17.8049 20.6162 17.7959 20.5939C17.787 20.5716 17.7826 20.5478 17.7829 20.5237ZM14.3898 16.373C14.3898 16.2699 14.4717 16.1881 14.5715 16.1881C14.6713 16.1881 14.7523 16.2699 14.7523 16.373C14.7526 16.397 14.7482 16.4209 14.7393 16.4432C14.7304 16.4655 14.7171 16.4858 14.7003 16.503C14.6835 16.5202 14.6635 16.5339 14.6414 16.5433C14.6193 16.5527 14.5955 16.5577 14.5715 16.5579C14.5474 16.5577 14.5236 16.5527 14.5015 16.5433C14.4793 16.5339 14.4592 16.5202 14.4424 16.5031C14.4255 16.4859 14.4122 16.4656 14.4032 16.4433C14.3941 16.4209 14.3896 16.3971 14.3898 16.373ZM14.5126 20.3388C14.6124 20.3388 14.6934 20.4206 14.6934 20.5237C14.6937 20.5478 14.6893 20.5716 14.6804 20.5939C14.6714 20.6162 14.6582 20.6366 14.6414 20.6538C14.6246 20.6709 14.6046 20.6846 14.5825 20.694C14.5603 20.7035 14.5366 20.7084 14.5126 20.7086C14.4885 20.7085 14.4646 20.7037 14.4424 20.6943C14.4202 20.6849 14.4001 20.6712 14.3832 20.654C14.3663 20.6368 14.353 20.6165 14.344 20.5941C14.3351 20.5717 14.3306 20.5478 14.3309 20.5237C14.3309 20.4214 14.4127 20.3388 14.5126 20.3388ZM14.6893 20.0974V16.8197C14.7103 16.8143 14.7308 16.8072 14.7507 16.7985L17.5669 20.3004C17.5296 20.3689 17.5102 20.4457 17.5105 20.5237C17.5105 20.7324 17.6455 20.9083 17.8296 20.9672L17.9801 23.1305C17.9508 23.1405 17.9226 23.1534 17.8958 23.169L14.956 20.6186C14.9784 20.5143 14.9641 20.4055 14.9155 20.3105C14.8669 20.2156 14.787 20.1403 14.6893 20.0974ZM20.5313 20.5229C20.5316 20.547 20.5272 20.5709 20.5182 20.5932C20.5093 20.6156 20.4961 20.636 20.4793 20.6532C20.4625 20.6705 20.4425 20.6842 20.4204 20.6938C20.3983 20.7033 20.3745 20.7083 20.3504 20.7086C20.3263 20.7085 20.3025 20.7037 20.2803 20.6943C20.2581 20.6849 20.238 20.6712 20.2211 20.654C20.2042 20.6368 20.1909 20.6165 20.1819 20.5941C20.1729 20.5717 20.1685 20.5478 20.1688 20.5237C20.1688 20.4214 20.2506 20.3388 20.3504 20.3388C20.4503 20.3388 20.5321 20.4206 20.5321 20.5237L20.5313 20.5229ZM7.67731 18.0511C7.60367 18.065 7.53249 18.0004 7.51776 17.9079C7.5014 17.8155 7.54804 17.7304 7.62168 17.7181C7.69531 17.705 7.76568 17.7697 7.78204 17.8621C7.79759 17.9538 7.75013 18.0388 7.67731 18.0511ZM24.0184 13.3759C24.0782 13.3571 24.1452 13.4013 24.1657 13.4766C24.1886 13.551 24.1575 13.6279 24.0986 13.6467C24.0389 13.6656 23.9726 13.6206 23.9505 13.5461C23.9284 13.4716 23.9587 13.3947 24.0184 13.3759Z" fill="white"/>
</svg>
