<svg width="32" height="32" viewBox="0 0 32 32" fill="none" xmlns="http://www.w3.org/2000/svg">
<circle cx="16" cy="16" r="16" fill="#EC1B2E"/>
<path fill-rule="evenodd" clip-rule="evenodd" d="M19.5999 16.7578L17.2527 16.8784L19.3461 11.5459L12.9705 12.4243L12.3999 18.3031H13.7949L13.5744 25L19.5999 16.7578ZM14.6517 22.606C14.6517 22.723 14.5527 22.8184 14.4303 22.8184C14.3079 22.8184 14.208 22.723 14.208 22.606V21.031C14.208 20.914 14.307 20.8186 14.4303 20.8186C14.5536 20.8186 14.6517 20.9131 14.6517 21.0301V22.606ZM13.0029 17.8486L13.4925 12.6916C13.4985 12.6422 13.5227 12.5968 13.5602 12.5642C13.5978 12.5316 13.6462 12.5142 13.6959 12.5152H13.7319C13.7895 12.5152 13.8435 12.5377 13.8822 12.5782C13.9209 12.6187 13.9398 12.6727 13.9353 12.7267L13.5096 17.4247H14.7786L14.7201 20.2831C14.7173 20.3464 14.6898 20.4062 14.6436 20.4496C14.5974 20.4929 14.536 20.5165 14.4726 20.5153H14.4618C14.3952 20.5153 14.3313 20.4892 14.2845 20.4433C14.2377 20.3974 14.2125 20.3362 14.2134 20.2723L14.271 17.8486H13.0029ZM13.0029 11.9086L19.2192 11.1814L16.1745 9.9088C16.1745 9.9088 16.4913 7.6057 14.3979 7L14.208 7.7272C14.208 7.7272 15.477 8.0305 15.3501 9.97L13.0029 11.9086Z" fill="white"/>
</svg>
