<svg width="32" height="32" viewBox="0 0 32 32" fill="none" xmlns="http://www.w3.org/2000/svg">
<circle cx="16" cy="16" r="16" fill="#FA0183"/>
<path fill-rule="evenodd" clip-rule="evenodd" d="M9.13982 8.48773H21.2408V8.88986C21.2408 12.3609 21.6422 14.3239 22.1987 15.5314C22.7432 16.7127 23.448 17.2011 24.1942 17.6986L24.4998 17.9023L21.453 23.5123L21.0901 23.2838C19.2896 22.1501 17.927 20.8969 16.9334 19.0918C16.1833 19.8954 15.3451 20.5016 14.48 21.0052L14.1219 21.2136L13.9243 20.8495C13.6365 20.3195 13.1358 19.3951 12.6078 18.4165C11.5861 19.4898 10.4606 20.1476 9.85897 20.3947L9.5223 20.533L9.35124 20.2117C8.77269 19.1251 7.4383 16.6228 6.72766 15.303L6.5 14.8803L6.9562 14.7304C7.9499 14.4039 8.55597 13.4497 8.89039 12.2566C9.22148 11.0755 9.25316 9.76542 9.17865 8.9254L9.13982 8.48773ZM13.7083 9.292C13.6988 10.2526 13.5872 11.5521 13.2822 12.7231C13.1077 13.3932 12.8745 14.0026 12.5741 14.4788C12.2738 14.9549 11.9238 15.2712 11.5223 15.4094L11.0765 15.5629L11.2984 15.9789C11.5648 16.4784 11.8808 17.0671 12.2042 17.6678C11.3913 18.5789 10.4773 19.1883 9.88165 19.4967C9.30492 18.4142 8.30991 16.5491 7.64576 15.3123C8.74094 14.7547 9.34471 13.6157 9.66481 12.4737C9.97447 11.369 10.0436 10.1818 10.0076 9.292H13.7083ZM13.1725 17.7693C13.643 18.642 14.1055 19.4965 14.4305 20.0959C15.2474 19.5849 16.0157 18.9694 16.6864 18.1541L16.708 18.1275C18.0979 16.4234 19.1077 13.7947 19.1642 9.292H14.5127C14.5032 10.3034 14.3867 11.6739 14.0606 12.9258C13.8743 13.6413 13.6148 14.3368 13.2545 14.9079C12.9796 15.3437 12.6359 15.7226 12.2079 15.9743C12.4649 16.4546 12.7535 16.9915 13.0436 17.5299L13.1725 17.7693ZM17.4933 18.4314C18.354 20.1137 19.5365 21.2953 21.158 22.3703L23.4436 18.1619C22.7518 17.6835 22.0264 17.0789 21.4683 15.8681C20.8639 14.5568 20.4682 12.565 20.4384 9.292H19.9687C19.9255 12.8109 19.314 15.292 18.3416 17.1125C18.0817 17.599 17.7973 18.0361 17.4933 18.4314Z" fill="white"/>
</svg>
