<svg width="32" height="32" viewBox="0 0 32 32" fill="none" xmlns="http://www.w3.org/2000/svg">
<circle cx="16" cy="16" r="16" fill="#FABF43"/>
<path d="M9.61633 22.3533C7.93551 20.6577 6.99479 18.3654 7.00002 15.9779C7.00525 13.5903 7.956 11.3021 9.64423 9.61389C11.3325 7.92567 13.6207 6.97492 16.0082 6.96969C18.3957 6.96446 20.6881 7.90518 22.3837 9.586C24.0645 11.2816 25.0052 13.574 25 15.9615C24.9947 18.349 24.044 20.6372 22.3558 22.3254C20.6675 24.0137 18.3793 24.9644 15.9918 24.9696C13.6043 24.9749 11.3119 24.0342 9.61633 22.3533ZM10.8134 10.7831C10.122 11.4619 9.57195 12.271 9.19499 13.1636C8.81803 14.0562 8.62165 15.0147 8.6172 15.9836C8.61275 16.9526 8.80031 17.9128 9.16905 18.8088C9.53779 19.7049 10.0804 20.519 10.7656 21.2041C11.4507 21.8893 12.2648 22.4319 13.1608 22.8006C14.0569 23.1694 15.0171 23.3569 15.986 23.3525C16.955 23.348 17.9134 23.1516 18.806 22.7747C19.6987 22.3977 20.5077 21.8476 21.1866 21.1562C21.878 20.4774 22.4281 19.6683 22.805 18.7757C23.182 17.8831 23.3784 16.9246 23.3828 15.9557C23.3873 14.9868 23.1997 14.0266 22.831 13.1305C22.4622 12.2345 21.9196 11.4204 21.2344 10.7352C20.5493 10.0501 19.7352 9.50746 18.8392 9.13871C17.9431 8.76997 16.9829 8.58241 16.014 8.58686C15.045 8.59131 14.0866 8.78769 13.194 9.16465C12.3013 9.54161 11.4923 10.0917 10.8134 10.7831ZM16.5245 17.6913L17.7216 16.4942L20.514 19.2865L19.3169 20.4836L16.5245 17.6913ZM11.486 19.2865L14.2784 16.4933L15.4755 17.6904L12.6831 20.4836L11.486 19.2865ZM14.8507 16.0175L16.0478 14.8204L17.245 16.0175L16.0478 17.2146L14.8507 16.0175ZM16.5236 14.248L19.3169 11.4557L20.514 12.6528L17.7207 15.446L16.5236 14.248ZM11.486 12.6528L12.6831 11.4557L15.4755 14.2489L14.2784 15.446L11.486 12.6528Z" fill="white"/>
</svg>
