<svg width="32" height="32" viewBox="0 0 32 32" fill="none" xmlns="http://www.w3.org/2000/svg">
<circle cx="16" cy="16" r="16" fill="#87B14E"/>
<path fill-rule="evenodd" clip-rule="evenodd" d="M14.5628 19.024L14.5466 23.0668L12.0041 21.7645L12.0626 13.2559L16.3322 18.8566L20.1788 21.0049L21.4001 19.9987V9.5011L16.0253 7L16.0829 13.12L17.3546 14.8057L17.4707 9.2293L19.8719 10.4272V19.3192L17.1548 17.6578L12.2363 11.2102C12.1891 11.1477 12.1296 11.0956 12.0614 11.0571C11.9933 11.0185 11.9179 10.9944 11.8401 10.9861C11.7622 10.9778 11.6835 10.9856 11.6087 11.009C11.534 11.0324 11.4649 11.0708 11.4056 11.122L10.7909 11.6494C10.7312 11.6993 10.6832 11.7616 10.6502 11.8321C10.6173 11.9025 10.6002 11.9793 10.6001 12.0571V22.6033L16.0001 25V20.9176L14.5628 19.024Z" fill="white"/>
</svg>
