<svg xmlns="http://www.w3.org/2000/svg" viewBox="0 0 48 48"><defs><style>.a,.b{fill:none;}.b{stroke:#3d4f6c;stroke-linecap:round;stroke-linejoin:round;stroke-width:1.5px;}</style></defs><g transform="translate(-896 -884)"><g transform="translate(896.005 884.5)"><path class="b" d="M41.765,27.435a9.015,9.015,0,0,0,5.226-8.464A9.847,9.847,0,0,0,36.636,9.283,14.019,14.019,0,0,0,24,1.5,13.806,13.806,0,0,0,10.045,14.27,7.443,7.443,0,0,0,1,21.4a6.66,6.66,0,0,0,5.226,6.86" transform="translate(0)"/><path class="b" d="M13.316,17.5H6v7.316" transform="translate(5.456 17.446)"/><path class="b" d="M29.21,20.079A11.647,11.647,0,0,1,6.6,17.5" transform="translate(6.111 17.445)"/><path class="b" d="M14.5,19.317h7.316V12" transform="translate(14.724 11.45)"/><path class="b" d="M6.583,18.383a11.647,11.647,0,0,1,22.61,2.575" transform="translate(6.092 9.807)"/></g></g></svg>