<svg xmlns="http://www.w3.org/2000/svg" viewBox="0 0 48 48"><defs><style>.a,.b{fill:none;}.b{stroke:#e53935;stroke-linecap:round;stroke-linejoin:round;stroke-width:1.5px;}</style></defs><g transform="translate(-994 -879)"><g transform="translate(994.005 879.5)"><path class="b" d="M41.765,27.433a9.011,9.011,0,0,0,5.226-8.464A9.847,9.847,0,0,0,36.636,9.281,14.017,14.017,0,0,0,24,1.5,13.806,13.806,0,0,0,10.045,14.27,7.443,7.443,0,0,0,1,21.4a6.66,6.66,0,0,0,5.226,6.86" transform="translate(0 0)"/><circle class="b" cx="12.542" cy="12.542" r="12.542" transform="translate(11.456 20.313)"/><line class="b" x1="8.867" y2="8.867" transform="translate(19.564 28.421)"/><line class="b" x1="8.867" y1="8.867" transform="translate(19.564 28.421)"/></g></g></svg>