<svg xmlns="http://www.w3.org/2000/svg" viewBox="0 0 92.007 92.025"><defs><style>.a,.b{fill:none;stroke:#fff;stroke-linecap:round;stroke-linejoin:round;stroke-width:2px;}.b{opacity:0.3;}</style></defs><g transform="translate(0.265 0.273)"><rect class="a" width="35.988" height="30" rx="1.5" transform="translate(54.754 60.752)"/><path class="a" d="M27.746,11.25h0a12,12,0,0,0-12,12v6H39.742v-6A12,12,0,0,0,27.746,11.25Z" transform="translate(45.002 31.502)"/><path class="a" d="M19.875,19.155a1.5,1.5,0,1,0,1.5,1.5,1.5,1.5,0,0,0-1.5-1.5h0" transform="translate(52.874 55.217)"/><path class="b" d="M90.143,36.388A19.464,19.464,0,0,0,60.209,25.212a29.991,29.991,0,1,0-29.447,35.54h12" transform="translate(0 0)"/></g></svg>