<svg width="24" height="24" viewBox="0 0 24 24" fill="none" xmlns="http://www.w3.org/2000/svg">
<path d="M12 16C11.9341 16 11.8696 16.0195 11.8148 16.0562C11.76 16.0928 11.7173 16.1449 11.692 16.2058C11.6668 16.2667 11.6602 16.3337 11.6731 16.3984C11.6859 16.463 11.7177 16.5224 11.7643 16.569C11.8109 16.6157 11.8703 16.6474 11.935 16.6603C11.9996 16.6731 12.0666 16.6665 12.1276 16.6413C12.1885 16.6161 12.2405 16.5733 12.2771 16.5185C12.3138 16.4637 12.3333 16.3993 12.3333 16.3333C12.3333 16.2449 12.2982 16.1601 12.2357 16.0976C12.1732 16.0351 12.0884 16 12 16Z" stroke="white" stroke-width="1.5" stroke-linecap="round" stroke-linejoin="round"/>
<path d="M12 13.3333V6" stroke="white" stroke-width="1.5" stroke-miterlimit="10" stroke-linecap="round"/>
<path d="M12 22C17.5228 22 22 17.5228 22 12C22 6.47715 17.5228 2 12 2C6.47715 2 2 6.47715 2 12C2 17.5228 6.47715 22 12 22Z" stroke="white" stroke-width="1.5" stroke-miterlimit="10"/>
</svg>
