<svg xmlns="http://www.w3.org/2000/svg" viewBox="0 0 24 24"><defs><style>.a,.b{fill:none;}.b{stroke:#003dc6;stroke-linecap:round;stroke-linejoin:round;stroke-width:1.5px;}</style></defs><g transform="translate(-482.5 -187.5)"><rect class="a" width="24" height="24" transform="translate(482.5 187.5)"/><g transform="translate(482.75 186.25)"><rect class="b" width="22" height="17.6" rx="1.5" transform="translate(0.75 3.75)"/><rect class="b" width="14.667" height="11.733" rx="1.5" transform="translate(5.15 6.683)"/><line class="b" y2="1.467" transform="translate(3.683 21.35)"/><line class="b" y2="1.467" transform="translate(19.817 21.35)"/><line class="b" x2="2.933" transform="translate(3.683 11.083)"/><line class="b" x2="2.933" transform="translate(3.683 15.483)"/><path class="b" d="M13.867,14.25a.367.367,0,1,1-.367.367.367.367,0,0,1,.367-.367" transform="translate(-0.283 -0.233)"/><path class="b" d="M16.867,14.25a.367.367,0,1,1-.367.367.367.367,0,0,1,.367-.367" transform="translate(-0.35 -0.233)"/><path class="b" d="M13.867,10.5a.367.367,0,1,1-.367.367.367.367,0,0,1,.367-.367" transform="translate(-0.283 -0.15)"/><path class="b" d="M16.867,10.5a.367.367,0,1,1-.367.367.367.367,0,0,1,.367-.367" transform="translate(-0.35 -0.15)"/></g></g></svg>