<svg xmlns="http://www.w3.org/2000/svg" viewBox="0 0 24 24"><defs><style>.a,.b{fill:none;}.b{stroke:#fff;stroke-linecap:round;stroke-linejoin:round;stroke-width:1.5px;}</style></defs><g transform="translate(-1222 -426.5)"><rect class="a" width="24" height="24" transform="translate(1222 426.5)"/><g transform="translate(1225 429.5)"><path class="b" d="M18.479,21.175a.783.783,0,0,1-.783.783H1.262a.783.783,0,0,1-.783-.783v-4.7H5.957v.783a1.57,1.57,0,0,0,1.565,1.565h3.913A1.57,1.57,0,0,0,13,17.262v-.783h5.478Z" transform="translate(-0.479 -3.957)"/><path class="b" d="M.479,15.175l2.513-4.3a.783.783,0,0,1,.676-.391H5.175" transform="translate(-0.479 -2.653)"/><path class="b" d="M17.479,10.479h1.507a.783.783,0,0,1,.676.391l2.512,4.3" transform="translate(-4.175 -2.653)"/><line class="b" y1="8.609" transform="translate(9 0)"/><path class="b" d="M14.24,7.479l-3.13,3.13-3.13-3.13" transform="translate(-2.109 -2.001)"/></g></g></svg>