<svg xmlns="http://www.w3.org/2000/svg" viewBox="0 0 24 24"><defs><style>.a,.b{fill:none;}.b{stroke:#003dc6;stroke-linecap:round;stroke-linejoin:round;stroke-width:1.5px;}</style></defs><g transform="translate(-289 -427)"><rect class="a" width="24" height="24" transform="translate(289 427)"/><g transform="translate(289.25 427.25)"><path class="b" d="M22.377,14.79l-7.46,7.46-3.667.733.733-3.667,7.46-7.46a2.067,2.067,0,0,1,2.926,0l.008.008a2.067,2.067,0,0,1,0,2.926Z" transform="translate(-0.233 -0.233)"/><line class="b" x2="10.267" transform="translate(3.683 6.617)"/><line class="b" x2="10.267" transform="translate(3.683 11.017)"/><line class="b" x2="5.133" transform="translate(3.683 15.417)"/><path class="b" d="M7.35,19.817H2.217A1.467,1.467,0,0,1,.75,18.35V2.217A1.467,1.467,0,0,1,2.217.75H12.609a1.466,1.466,0,0,1,1.036.429l2.808,2.808a1.467,1.467,0,0,1,.429,1.036V8.083" transform="translate(0 0)"/></g></g></svg>