<svg xmlns="http://www.w3.org/2000/svg" viewBox="0 0 24 24"><defs><style>.a,.b{fill:none;}.b{stroke:#003dc6;stroke-linecap:round;stroke-linejoin:round;stroke-width:1.5px;}</style></defs><g transform="translate(-699 -187)"><rect class="a" width="24" height="24" transform="translate(699 187)"/><g transform="translate(699.25 186.751)"><path class="b" d="M8.468,12.623,7.431,16.771l4.149-1.037L17.8,9.511,14.691,6.4Z" transform="translate(-0.149 -0.092)"/><path class="b" d="M21.7,5.87l1.037,1.037a1.467,1.467,0,0,1,0,2.074L19.5,12.219" transform="translate(-0.417 -0.08)"/><path class="b" d="M17.967,9.419,21.6,5.79a1.467,1.467,0,0,0,0-2.074L20.559,2.678a1.467,1.467,0,0,0-2.074,0L14.856,6.308" transform="translate(-0.314)"/><path class="b" d="M4.417,15.749h-2.2A1.467,1.467,0,0,0,.75,17.216v2.933a1.467,1.467,0,0,0,1.467,1.467H21.283a1.467,1.467,0,0,0,1.467-1.467V17.216a1.467,1.467,0,0,0-1.467-1.467H16.15" transform="translate(0 -0.3)"/></g></g></svg>