<svg xmlns="http://www.w3.org/2000/svg" viewBox="0 0 24 24"><defs><style>.a{fill:none;}.b{fill:#003dc6;}</style></defs><g transform="translate(-326.5 -186.5)"><rect class="a" width="24" height="24" transform="translate(326.5 186.5)"/><g transform="translate(326.864 190.266)"><path class="b" d="M21.959,3.919A8.371,8.371,0,0,0,11.617.654,8.366,8.366,0,0,0,0,8.37a8.589,8.589,0,0,0,.044.866.8.8,0,0,0,.822.726H7.309a.8.8,0,0,0,.8-.8.553.553,0,0,0,0-.063s-.019-.315-.029-.55V8.4A6.72,6.72,0,0,1,9.355,4.45a.817.817,0,1,0-1.319-.965A8.342,8.342,0,0,0,6.458,8.334H1.6A6.788,6.788,0,0,1,8.373,1.6a6.7,6.7,0,0,1,3.1.749,6.822,6.822,0,0,1,2.625,2.4.347.347,0,0,0,.034.048.8.8,0,0,0,.669.364H21.3a.8.8,0,0,0,.662-1.241ZM14.866,1.6a6.732,6.732,0,0,1,4.771,1.969H15.222a8.463,8.463,0,0,0-1.743-1.823A6.887,6.887,0,0,1,14.866,1.6Z" transform="translate(0 0)"/><path class="b" d="M4.98,34.232A8.381,8.381,0,0,0,15.312,37.5a8.371,8.371,0,0,0,11.636-7.716,7.973,7.973,0,0,0-.046-.868.8.8,0,0,0-.819-.715H19.63a.8.8,0,0,0-.8.8v.061c0,.019.022.318.032.55v.148a6.725,6.725,0,0,1-1.273,3.969.81.81,0,0,0,.184,1.127.8.8,0,0,0,.485.153.812.812,0,0,0,.657-.335,8.339,8.339,0,0,0,1.576-4.863h4.849a6.788,6.788,0,0,1-6.773,6.747,6.686,6.686,0,0,1-3.1-.752,6.812,6.812,0,0,1-2.623-2.4.589.589,0,0,0-.034-.048A.8.8,0,0,0,12.137,33H5.642a.8.8,0,0,0-.662,1.234Zm7.091,2.322A6.73,6.73,0,0,1,7.3,34.586h4.415a8.408,8.408,0,0,0,1.743,1.823A6.723,6.723,0,0,1,12.071,36.555Z" transform="translate(-3.676 -21.365)"/></g></g></svg>