<svg xmlns="http://www.w3.org/2000/svg" viewBox="0 0 24 24"><defs><style>.a,.b{fill:none;}.b{stroke:#3d4f6c;stroke-linecap:round;stroke-linejoin:round;stroke-width:1.5px;}</style></defs><g transform="translate(-163 -819)"><rect class="a" width="24" height="24" transform="translate(163 819)"/><g transform="translate(169.864 824.4)"><path class="b" d="M14.081,5.25h7.334a1.467,1.467,0,0,1,1.467,1.467V21.386a1.467,1.467,0,0,1-1.467,1.467H8.214a1.467,1.467,0,0,1-1.467-1.467V15.518" transform="translate(-6.747 -5.25)"/><line class="b" x2="7.337" transform="translate(5.868 4.401)"/><line class="b" x2="9.538" transform="translate(3.667 8.801)"/><line class="b" x2="9.535" transform="translate(3.67 13.202)"/></g><path class="b" d="M8.084,9.551V6.618l4.1-4.1A1.038,1.038,0,0,0,11.448.75H1.788a1.038,1.038,0,0,0-.733,1.771l4.1,4.1v5.868Z" transform="translate(163.25 819.25)"/></g></svg>