<svg xmlns="http://www.w3.org/2000/svg" xmlns:xlink="http://www.w3.org/1999/xlink" viewBox="0 0 24 24"><defs><style>.a{fill:none;}.b{fill:#003dc6;}.c{fill:#ff1200;opacity:0.5;}.d{fill:#f2f8f6;}.e{fill:#e53935;}.f{clip-path:url(#a);}</style><clipPath id="a"><path d="M17.813,1.5a12.012,12.012,0,0,0-11.625,0A12.346,12.346,0,0,0,2.063,5.25,12.119,12.119,0,0,0,.375,9,11.343,11.343,0,0,0,0,12a5.026,5.026,0,0,0,.038.75A11.41,11.41,0,0,0,.9,16.5a12.321,12.321,0,0,0,2.4,3.75H4.35L8.1,16.5l3.75-3.75L15.6,9l3.75-3.75,1.425-1.425A11.765,11.765,0,0,0,17.813,1.5Z"/></clipPath></defs><g transform="translate(-432 -1040)"><rect class="a" width="24" height="24" transform="translate(432 1040)"/><g transform="translate(-10414 -7645)"><path class="b" d="M17.813,1.5a12.012,12.012,0,0,0-11.625,0A12.346,12.346,0,0,0,2.063,5.25,12.119,12.119,0,0,0,.375,9,11.343,11.343,0,0,0,0,12a5.026,5.026,0,0,0,.038.75A11.41,11.41,0,0,0,.9,16.5a12.321,12.321,0,0,0,2.4,3.75H4.35L8.1,16.5l3.75-3.75L15.6,9l3.75-3.75,1.425-1.425A11.765,11.765,0,0,0,17.813,1.5Z" transform="translate(10846 8685)"/><path class="c" d="M8.8,54l.525.525L9.85,54Z" transform="translate(10840.5 8651.25)"/><path class="d" d="M31.6,27.75H43.713c0-.263.037-.487.037-.75a13.143,13.143,0,0,0-.375-3H35.35Z" transform="translate(10826.25 8670)"/><path class="e" d="M21.6,37.75H36.637A12.44,12.44,0,0,0,37.5,34H25.35Z" transform="translate(10832.5 8663.75)"/><path class="d" d="M53.025,10.2,51.6,11.625h2.588A14.755,14.755,0,0,0,53.025,10.2Z" transform="translate(10813.75 8678.625)"/><path class="e" d="M49.625,17.75A12.119,12.119,0,0,0,47.938,14H45.35L41.6,17.75Z" transform="translate(10820 8676.25)"/><path class="d" d="M11.6,47.75H27.95A12.321,12.321,0,0,0,30.35,44h-15Z" transform="translate(10838.75 8657.5)"/><path class="e" d="M27.075,54H10.725l-.525.525a12.007,12.007,0,0,0,8.175,3.225A11.887,11.887,0,0,0,27.075,54Z" transform="translate(10839.625 8651.25)"/><g transform="translate(10846 8685)"><g class="f"><g transform="translate(2.1 15.675)"><path class="d" d="M6.875,43.787l-.787.413.15-.862L5.6,42.7l.9-.112.375-.788.375.788.9.112-.637.638.15.862Z" transform="translate(-5.6 -41.8)"/></g><g transform="translate(5.475 12.3)"><path class="d" d="M15.875,34.787l-.788.413.15-.862L14.6,33.7l.9-.112.375-.788.375.788.9.112-.637.638.15.862Z" transform="translate(-14.6 -32.8)"/></g><g transform="translate(2.1 12.3)"><path class="d" d="M6.875,34.787l-.787.413.15-.862L5.6,33.7l.9-.112.375-.788.375.788.9.112-.637.638.15.862Z" transform="translate(-5.6 -32.8)"/></g><g transform="translate(-1.275 12.3)"><path class="d" d="M-2.125,34.787l-.787.413.15-.862L-3.4,33.7l.9-.112.375-.788.375.788.9.112-.638.638.15.862Z" transform="translate(3.4 -32.8)"/></g><g transform="translate(8.85 8.925)"><path class="d" d="M24.875,25.788l-.788.413.15-.863L23.6,24.7l.9-.113.375-.788.375.788.9.113-.637.637.15.863Z" transform="translate(-23.6 -23.8)"/></g><g transform="translate(5.475 8.925)"><path class="d" d="M15.875,25.788l-.788.413.15-.863L14.6,24.7l.9-.113.375-.788.375.788.9.113-.637.637.15.863Z" transform="translate(-14.6 -23.8)"/></g><g transform="translate(2.1 8.925)"><path class="d" d="M6.875,25.788l-.787.413.15-.863L5.6,24.7l.9-.113.375-.788.375.788.9.113-.637.637.15.863Z" transform="translate(-5.6 -23.8)"/></g><g transform="translate(-1.275 8.925)"><path class="d" d="M-2.125,25.788l-.787.413.15-.863L-3.4,24.7l.9-.113.375-.788.375.788.9.113-.638.637.15.863Z" transform="translate(3.4 -23.8)"/></g><g transform="translate(12.225 5.55)"><path class="d" d="M33.875,16.788l-.787.413.15-.863L32.6,15.7l.9-.113.375-.787.375.787.9.113-.638.637.15.863Z" transform="translate(-32.6 -14.8)"/></g><g transform="translate(8.85 5.55)"><path class="d" d="M24.875,16.788l-.788.413.15-.863L23.6,15.7l.9-.113.375-.787.375.787.9.113-.637.637.15.863Z" transform="translate(-23.6 -14.8)"/></g><g transform="translate(5.475 5.55)"><path class="d" d="M15.875,16.788l-.788.413.15-.863L14.6,15.7l.9-.113.375-.787.375.787.9.113-.637.637.15.863Z" transform="translate(-14.6 -14.8)"/></g><g transform="translate(2.1 5.55)"><path class="d" d="M6.875,16.788l-.787.413.15-.863L5.6,15.7l.9-.113.375-.787.375.787.9.113-.637.637.15.863Z" transform="translate(-5.6 -14.8)"/></g><g transform="translate(15.6 2.175)"><path class="d" d="M42.875,7.788l-.787.412.15-.863L41.6,6.7l.9-.112.375-.787.375.787.9.112-.638.637.15.863Z" transform="translate(-41.6 -5.8)"/></g><g transform="translate(12.225 2.175)"><path class="d" d="M33.875,7.788l-.787.412.15-.863L32.6,6.7l.9-.112.375-.787.375.787.9.112-.638.637.15.863Z" transform="translate(-32.6 -5.8)"/></g><g transform="translate(8.85 2.175)"><path class="d" d="M24.875,7.788l-.788.412.15-.863L23.6,6.7l.9-.112.375-.787.375.787.9.112-.637.637.15.863Z" transform="translate(-23.6 -5.8)"/></g><g transform="translate(5.475 2.175)"><path class="d" d="M15.875,7.788l-.788.412.15-.863L14.6,6.7l.9-.112.375-.787.375.787.9.112-.637.637.15.863Z" transform="translate(-14.6 -5.8)"/></g><g transform="translate(2.1 2.175)"><path class="d" d="M6.875,7.788,6.088,8.2l.15-.863L5.6,6.7l.9-.112L6.875,5.8l.375.787.9.112-.637.637.15.863Z" transform="translate(-5.6 -5.8)"/></g><g transform="translate(12.225 -1.2)"><path class="d" d="M33.875-1.213,33.088-.8l.15-.863L32.6-2.3l.9-.112.375-.788.375.788.9.112-.638.637.15.863Z" transform="translate(-32.6 3.2)"/></g><g transform="translate(8.85 -1.2)"><path class="d" d="M24.875-1.213,24.087-.8l.15-.863L23.6-2.3l.9-.112.375-.788.375.788.9.112-.637.637.15.863Z" transform="translate(-23.6 3.2)"/></g></g></g></g></g></svg>