<svg xmlns="http://www.w3.org/2000/svg" viewBox="0 0 24 24"><defs><style>.a,.b{fill:none;}.b{stroke:#fff;stroke-linecap:round;stroke-linejoin:round;stroke-width:1.5px;}</style></defs><g transform="translate(-258 -674)"><rect class="a" width="24" height="24" transform="translate(258 674)"/><g transform="translate(257.744 674.455)"><path class="b" d="M23,10.5,12.455,15.53a.512.512,0,0,1-.41,0L1.5,10.5" transform="translate(0.006 1.213)"/><path class="b" d="M23,13.5,12.455,18.53a.512.512,0,0,1-.41,0L1.5,13.5" transform="translate(0.006 2.308)"/><path class="b" d="M12.46,12.648a.512.512,0,0,1-.41,0L1.562,8.087a.512.512,0,0,1,0-.938L12.051,2.588a.512.512,0,0,1,.41,0L22.949,7.149a.512.512,0,0,1,0,.938Z"/></g></g></svg>