<svg xmlns="http://www.w3.org/2000/svg" viewBox="0 0 24 24"><defs><style>.a,.b{fill:none;}.b{stroke:#003dc6;stroke-linecap:round;stroke-linejoin:round;stroke-width:1.5px;}</style></defs><g transform="translate(-430.5 -186.5)"><rect class="a" width="24" height="24" transform="translate(430.5 186.5)"/><g transform="translate(431 186.751)"><path class="b" d="M6.75,10.911l2.333,3.4a.985.985,0,0,0,1.626.05l7.47-9.706" transform="translate(-0.25 -0.087)"/><path class="b" d="M2.929.749A1.448,1.448,0,0,0,1.5,2.216v8.8c0,4.706,6.89,9.943,9.231,11.5a1.376,1.376,0,0,0,1.537,0c2.342-1.556,9.231-6.793,9.231-11.5v-8.8A1.448,1.448,0,0,0,20.071.749Z"/></g></g></svg>