<svg xmlns="http://www.w3.org/2000/svg" viewBox="0 0 24 24"><defs><style>.a,.b{fill:none;}.b{stroke:#003dc6;stroke-linecap:round;stroke-linejoin:round;stroke-width:1.5px;}</style></defs><g transform="translate(-651 -186)"><rect class="a" width="24" height="24" transform="translate(651 186)"/><g transform="translate(653 187)"><ellipse class="b" cx="2.501" cy="2.445" rx="2.501" ry="2.445" transform="translate(7.499 8.556)"/><path class="b" d="M12.377,5.3a2.233,2.233,0,0,1,4.249,0l.737,2.369a1.662,1.662,0,0,0,1.958,1.11l2.455-.556A2.251,2.251,0,0,1,24.2,9.261a2.143,2.143,0,0,1-.3,2.575l-1.724,1.808a1.6,1.6,0,0,0,0,2.22l1.718,1.811a2.143,2.143,0,0,1,.3,2.575,2.251,2.251,0,0,1-2.429,1.041l-2.455-.556a1.662,1.662,0,0,0-1.958,1.11l-.73,2.362a2.233,2.233,0,0,1-4.249,0l-.739-2.369a1.66,1.66,0,0,0-1.956-1.11l-2.456.556A2.251,2.251,0,0,1,4.8,20.243a2.143,2.143,0,0,1,.3-2.575l1.719-1.811a1.6,1.6,0,0,0,0-2.22L5.1,11.832a2.143,2.143,0,0,1-.3-2.575A2.251,2.251,0,0,1,7.226,8.217l2.456.556a1.66,1.66,0,0,0,1.956-1.11Z" transform="translate(-4.501 -3.752)"/></g></g></svg>