<svg xmlns="http://www.w3.org/2000/svg" viewBox="0 0 24 24"><defs><style>.a,.b{fill:none;}.a{stroke:#003dc6;stroke-linecap:round;stroke-linejoin:round;stroke-width:1.5px;}</style></defs><g transform="translate(-719.5 -608)"><g transform="translate(724.25 613.252)"><line class="a" y1="10.5" transform="translate(4.15 12.648) rotate(180)"/><path class="a" d="M3.75,18.748l2.4,2.4,2.4-2.4" transform="translate(10.3 21.896) rotate(180)"/><path class="a" d="M15.75,14.248h1.92a.5.5,0,0,1,.4.189.392.392,0,0,1,.048.4l-2.332,3.12a.392.392,0,0,0,.048.4.5.5,0,0,0,.4.189h1.92" transform="translate(-5.6 -13.5)"/><path class="a" d="M18.15,5.049V1.825a1.207,1.207,0,0,0-2.4,0V5.05" transform="translate(-5.6 7.498)"/><line class="a" x2="2.4" transform="translate(10.15 11.447)"/></g><rect class="b" width="24" height="24" transform="translate(719.5 608)"/></g></svg>