<svg xmlns="http://www.w3.org/2000/svg" viewBox="0 0 24 24"><defs><style>.a,.b{fill:none;}.b{stroke:#3d4f6c;stroke-linecap:round;stroke-linejoin:round;stroke-width:1.5px;}</style></defs><g transform="translate(-494 -427)"><rect class="a" width="24" height="24" transform="translate(494 427)"/><g transform="translate(494.253 427.246)"><circle class="b" cx="5.868" cy="5.868" r="5.868" transform="translate(11.019 11.019)"/><line class="b" y2="5.868" transform="translate(16.886 13.953)"/><line class="b" x2="5.868" transform="translate(13.952 16.886)"/><path class="b" d="M22.248,9.906l.272-.269a.787.787,0,0,0-.489-1.344l-6.3-.624L12.465,1.19a.8.8,0,0,0-1.426,0L7.767,7.669l-6.3.624A.787.787,0,0,0,.98,9.637l5.183,5.137L4.25,21.755a.8.8,0,0,0,1.126.914l3.655-1.81"/></g></g></svg>