<svg xmlns="http://www.w3.org/2000/svg" viewBox="0 0 24 24">
  <defs>
    <style>
      .cls-1, .cls-2 {
        fill: none;
      }

      .cls-2 {
        stroke: #00c1ff;
        stroke-linecap: round;
        stroke-linejoin: round;
        stroke-width: 1.5px;
      }
    </style>
  </defs>
  <g id="trash-sky" transform="translate(-13278 13490)">
    <rect id="Rectangle_12682" data-name="Rectangle 12682" class="cls-1" width="24" height="24" transform="translate(13278 -13490)"/>
    <g id="bin" transform="translate(13276.75 -13492)">
      <path id="Path_21681" data-name="Path 21681" class="cls-2" d="M18.788,23.513H6.942A1.723,1.723,0,0,1,5.25,21.762V6H20.481V21.762A1.723,1.723,0,0,1,18.788,23.513Z" transform="translate(0.385 0.487)"/>
      <line id="Line_6639" data-name="Line 6639" class="cls-2" y1="6.974" transform="translate(10.712 11.717)"/>
      <line id="Line_6640" data-name="Line 6640" class="cls-2" y1="6.974" transform="translate(15.788 11.717)"/>
      <line id="Line_6641" data-name="Line 6641" class="cls-2" x2="22" transform="translate(2.25 6.487)"/>
      <path id="Path_21682" data-name="Path 21682" class="cls-2" d="M15.019,3H9.942A1.718,1.718,0,0,0,8.25,4.743V6.487h8.462V4.743A1.718,1.718,0,0,0,15.019,3Z" transform="translate(0.769 0)"/>
    </g>
  </g>
</svg>
