<svg xmlns="http://www.w3.org/2000/svg" viewBox="0 0 24 24"><defs><style>.a,.b{fill:none;}.b{stroke:#003dc6;stroke-linecap:round;stroke-linejoin:round;stroke-width:1.5px;}</style></defs><g transform="translate(-13278 13490)"><rect class="a" width="24" height="24" transform="translate(13278 -13490)"/><g transform="translate(13276.75 -13492)"><path class="b" d="M18.788,23.513H6.942A1.723,1.723,0,0,1,5.25,21.762V6H20.481V21.762A1.723,1.723,0,0,1,18.788,23.513Z" transform="translate(0.385 0.487)"/><line class="b" y1="6.974" transform="translate(10.712 11.717)"/><line class="b" y1="6.974" transform="translate(15.788 11.717)"/><line class="b" x2="22" transform="translate(2.25 6.487)"/><path class="b" d="M15.019,3H9.942A1.718,1.718,0,0,0,8.25,4.743V6.487h8.462V4.743A1.718,1.718,0,0,0,15.019,3Z" transform="translate(0.769 0)"/></g></g></svg>