<svg width="32" height="32" viewBox="0 0 32 32" fill="none" xmlns="http://www.w3.org/2000/svg">
<circle cx="16" cy="16" r="16" fill="#D4523A"/>
<path d="M14.6364 11.4008C14.6364 10.7641 15.1525 10.2479 15.7893 10.2479H19.2603C22.4332 10.2479 25 12.8262 25 16C25 19.1738 22.4332 21.7521 19.2603 21.7521H15.7893C15.1525 21.7521 14.6364 21.2359 14.6364 20.5992C14.6364 19.9625 15.1525 19.4463 15.7893 19.4463H19.2603C21.1539 19.4463 22.6942 17.9063 22.6942 16C22.6942 14.0937 21.1539 12.5537 19.2603 12.5537H15.7893C15.1525 12.5537 14.6364 12.0376 14.6364 11.4008Z" fill="white"/>
<path d="M10.7934 16.0124C10.7934 15.3757 11.3096 14.8595 11.9463 14.8595L18.5909 14.8595C19.2276 14.8595 19.7438 15.3757 19.7438 16.0124C19.7438 16.6491 19.2276 17.1653 18.5909 17.1653L11.9463 17.1653C11.3096 17.1653 10.7934 16.6491 10.7934 16.0124Z" fill="white"/>
<path d="M8.15289 10.2479C7.51617 10.2479 7 10.7641 7 11.4008C7 12.0376 7.51617 12.5537 8.15289 12.5537H11.5248C12.1615 12.5537 12.6777 12.0376 12.6777 11.4008C12.6777 10.7641 12.1615 10.2479 11.5248 10.2479L8.15289 10.2479Z" fill="white"/>
</svg>
