<svg width="32" height="32" viewBox="0 0 32 32" fill="none" xmlns="http://www.w3.org/2000/svg">
<circle cx="16" cy="16" r="16" fill="#199AFF"/>
<path d="M20.3602 11.2537C21.53 11.2537 22.4783 10.3054 22.4783 9.13563C22.4783 7.96583 21.53 7.01752 20.3602 7.01752C19.1904 7.01752 18.2421 7.96583 18.2421 9.13563L18.2421 11.2537L20.3602 11.2537Z" fill="white"/>
<path fill-rule="evenodd" clip-rule="evenodd" d="M22.4783 18.5042C22.4783 22.0821 19.5779 24.9825 16 24.9825C12.4222 24.9825 9.52173 22.0821 9.52173 18.5042C9.52173 14.9263 12.4222 12.0259 16 12.0259H20.4485C21.9422 12.0259 22.4783 10.9845 22.4783 10.9845V18.5042ZM16 16.1855C14.7194 16.1855 13.6813 17.2236 13.6813 18.5042C13.6813 19.7848 14.7194 20.8229 16 20.8229C17.2806 20.8229 18.3187 19.7848 18.3187 18.5042V16.1855H16Z" fill="white"/>
</svg>
