<svg width="32" height="32" viewBox="0 0 32 32" fill="none" xmlns="http://www.w3.org/2000/svg">
<circle cx="16" cy="16" r="16" fill="#FE6001"/>
<path d="M18.2543 7.83184V7.31293C18.2543 7.27085 18.2459 7.2292 18.2295 7.19046C18.2131 7.15173 18.189 7.11671 18.1587 7.08752C18.1284 7.05832 18.0925 7.03555 18.0532 7.02057C18.0139 7.0056 17.972 6.99872 17.9299 7.00036C16.2441 7.08176 14.6498 7.7911 13.4606 8.98881C12.2715 10.1865 11.5736 11.7859 11.5043 13.4722C11.512 13.6915 11.6891 13.7487 11.7933 13.7487H12.3204C12.4006 13.7485 12.4777 13.7175 12.5358 13.6622C12.5938 13.6068 12.6285 13.5313 12.6325 13.4511C12.7062 12.0616 13.2918 10.7485 14.2763 9.7651C15.2609 8.78173 16.5747 8.19774 17.9644 8.12576C18.1841 8.09779 18.2543 7.97779 18.2543 7.83184ZM13.511 13.7507H14.0137C14.0925 13.7503 14.1682 13.72 14.2256 13.666C14.283 13.612 14.3178 13.5383 14.3231 13.4597C14.3933 12.513 14.8027 11.6235 15.4762 10.9545C16.1497 10.2855 17.042 9.88211 17.9891 9.81832C18.0636 9.81341 18.1331 9.7794 18.1826 9.72363C18.2322 9.66787 18.2577 9.59484 18.2539 9.52035V9.00468C18.2538 8.96175 18.2449 8.9193 18.2278 8.87995C18.2106 8.8406 18.1856 8.8052 18.1542 8.77593C18.1228 8.74666 18.0857 8.72415 18.0452 8.70981C18.0048 8.69546 17.9618 8.68957 17.919 8.69251C16.6935 8.77364 15.5391 9.2971 14.6706 10.1655C13.802 11.034 13.2785 12.1883 13.1972 13.4138C13.1944 13.4567 13.2003 13.4997 13.2147 13.5401C13.2291 13.5806 13.2516 13.6176 13.2809 13.649C13.3102 13.6804 13.3457 13.7055 13.385 13.7226C13.4244 13.7398 13.4669 13.7486 13.5098 13.7487L13.511 13.7507ZM18.253 10.6993V11.2162C18.253 11.427 18.0698 11.5032 17.9806 11.5137C17.4822 11.5746 17.0183 11.8003 16.6628 12.1549C16.3072 12.5095 16.0803 12.9727 16.0181 13.471C16.0091 13.5475 15.9725 13.618 15.9152 13.6693C15.8578 13.7206 15.7837 13.7491 15.7067 13.7495H15.2044C15.1609 13.7497 15.1179 13.7408 15.0781 13.7234C15.0382 13.7059 15.0025 13.6804 14.9731 13.6483C14.9438 13.6162 14.9214 13.5784 14.9076 13.5371C14.8937 13.4959 14.8886 13.4523 14.8926 13.409C14.9712 12.6345 15.3147 11.9108 15.8652 11.3603C16.4156 10.8098 17.1392 10.4662 17.9137 10.3875C17.957 10.3835 18.0007 10.3886 18.0419 10.4024C18.0831 10.4163 18.121 10.4386 18.153 10.468C18.1851 10.4973 18.2107 10.5331 18.2281 10.5729C18.2455 10.6127 18.2544 10.6558 18.2543 10.6993H18.253ZM24.1671 18.2398C24.0211 18.2398 23.9011 18.1692 23.8728 17.9499C23.8013 16.5599 23.2176 15.2456 22.2343 14.2606C21.2509 13.2755 19.9377 12.6895 18.5478 12.6156C18.4676 12.6117 18.3921 12.577 18.3368 12.5189C18.2815 12.4608 18.2506 12.3837 18.2506 12.3034V11.7764C18.2506 11.6722 18.3078 11.4951 18.5267 11.4874C20.2132 11.5563 21.8129 12.2539 23.0109 13.4429C24.2089 14.6319 24.9186 16.2263 25.0002 17.9122C25.0018 17.9542 24.995 17.9962 24.98 18.0355C24.965 18.0748 24.9422 18.1107 24.913 18.141C24.8838 18.1713 24.8488 18.1954 24.8101 18.2118C24.7713 18.2282 24.7297 18.2366 24.6876 18.2365L24.1671 18.2398ZM18.2482 13.4966C18.2482 13.4536 18.2571 13.4112 18.2743 13.3718C18.2914 13.3325 18.3165 13.2971 18.3479 13.2678C18.3793 13.2385 18.4163 13.216 18.4568 13.2017C18.4973 13.1873 18.5402 13.1814 18.583 13.1844C19.809 13.2649 20.9639 13.7881 21.8329 14.6565C22.7019 15.5249 23.2258 16.6795 23.3072 17.9053C23.3102 17.9481 23.3043 17.9911 23.2899 18.0316C23.2756 18.072 23.2531 18.1091 23.2238 18.1405C23.1945 18.1719 23.1591 18.1969 23.1198 18.2141C23.0804 18.2312 23.038 18.2401 22.9951 18.2402H22.4814C22.4069 18.2441 22.3339 18.2185 22.2781 18.1689C22.2224 18.1194 22.1883 18.0499 22.1834 17.9755C22.1195 17.0283 21.7158 16.1361 21.0467 15.4626C20.3776 14.7892 19.488 14.3799 18.5413 14.3098C18.4627 14.3046 18.389 14.2697 18.3351 14.2123C18.2811 14.1549 18.251 14.0792 18.2506 14.0005L18.2482 13.4966ZM21.298 18.2398H20.784C20.5728 18.2398 20.497 18.0565 20.486 17.9669C20.425 17.4686 20.1993 17.0048 19.8447 16.6493C19.4901 16.2939 19.0269 16.067 18.5287 16.0048C18.4523 15.996 18.3817 15.9596 18.3304 15.9023C18.279 15.8449 18.2505 15.7708 18.2502 15.6938V15.1891C18.25 15.1457 18.2589 15.1027 18.2763 15.0629C18.2937 15.0231 18.3193 14.9873 18.3513 14.958C18.3833 14.9286 18.4211 14.9063 18.4623 14.8924C18.5035 14.8785 18.5471 14.8734 18.5903 14.8774C19.3648 14.9558 20.0884 15.2993 20.6388 15.8497C21.1893 16.4001 21.5328 17.1236 21.6114 17.898C21.6154 17.9412 21.6104 17.9848 21.5965 18.0259C21.5827 18.0671 21.5605 18.1049 21.5312 18.1369C21.5019 18.1689 21.4663 18.1945 21.4265 18.2119C21.3868 18.2293 21.3439 18.2383 21.3005 18.2382L21.298 18.2398ZM7.83213 13.7475C7.97807 13.7475 8.09807 13.8176 8.12645 14.037C8.19826 15.4269 8.78227 16.741 9.76583 17.7258C10.7494 18.7105 12.0628 19.2961 13.4527 19.3696C13.5327 19.3738 13.6081 19.4085 13.6634 19.4665C13.7187 19.5246 13.7496 19.6016 13.7498 19.6818V20.2088C13.7498 20.3134 13.6927 20.4906 13.4737 20.4979C11.7873 20.429 10.1877 19.7314 8.98968 18.5425C7.79166 17.3535 7.08197 15.7593 7.00024 14.0734C6.9986 14.0314 7.00547 13.9895 7.02045 13.9501C7.03543 13.9108 7.0582 13.875 7.08739 13.8447C7.11659 13.8144 7.15161 13.7903 7.19034 13.7739C7.22908 13.7574 7.27073 13.749 7.3128 13.7491L7.83213 13.7475ZM13.751 18.4907C13.751 18.5336 13.7421 18.5761 13.7249 18.6154C13.7078 18.6548 13.6827 18.6902 13.6513 18.7195C13.6199 18.7487 13.5829 18.7712 13.5424 18.7856C13.502 18.7999 13.459 18.8058 13.4162 18.8029C12.1905 18.7221 11.036 18.1988 10.1672 17.3305C9.29847 16.4622 8.77466 15.3079 8.69321 14.0824C8.6902 14.0395 8.69605 13.9965 8.71037 13.956C8.7247 13.9156 8.7472 13.8785 8.77648 13.8471C8.80576 13.8156 8.84119 13.7906 8.88057 13.7735C8.91995 13.7563 8.96243 13.7475 9.00537 13.7475H9.51901C9.5937 13.7436 9.66691 13.7694 9.7227 13.8192C9.7785 13.869 9.81239 13.9388 9.81699 14.0134C9.88098 14.9606 10.2846 15.8528 10.9537 16.5262C11.6228 17.1997 12.5124 17.609 13.4591 17.6791C13.5378 17.6842 13.6115 17.719 13.6655 17.7765C13.7194 17.8339 13.7496 17.9096 13.7498 17.9884L13.751 18.4907ZM10.7012 13.7475H11.2164C11.4277 13.7475 11.5035 13.9307 11.5144 14.0199C11.5754 14.5184 11.8011 14.9821 12.1557 15.3377C12.5103 15.6932 12.9734 15.9202 13.4717 15.9825C13.5481 15.9912 13.6186 16.0276 13.6699 16.0849C13.7213 16.1421 13.7498 16.2162 13.7502 16.293V16.7969C13.7504 16.8404 13.7415 16.8834 13.7241 16.9232C13.7067 16.963 13.6811 16.9987 13.6491 17.0281C13.6171 17.0574 13.5793 17.0798 13.5381 17.0936C13.497 17.1075 13.4533 17.1127 13.4101 17.1087C12.6356 17.0301 11.912 16.6865 11.3615 16.1361C10.811 15.5857 10.4673 14.8621 10.3886 14.0876C10.3847 14.0444 10.3898 14.0008 10.4036 13.9597C10.4175 13.9186 10.4398 13.8808 10.4691 13.8488C10.4984 13.8167 10.5341 13.7912 10.5738 13.7738C10.6136 13.7563 10.6565 13.7474 10.7 13.7475H10.7012ZM13.7527 24.1664C13.7527 24.0204 13.8228 23.9004 14.0421 23.8725C15.4316 23.8006 16.7453 23.2169 17.7299 22.2339C18.7145 21.2508 19.3003 19.9381 19.3744 18.5487C19.3784 18.4686 19.4131 18.393 19.4711 18.3377C19.5292 18.2823 19.6063 18.2513 19.6866 18.2511H20.2136C20.3178 18.2511 20.4949 18.3083 20.5026 18.5276C20.4334 20.214 19.7356 21.8134 18.5465 23.0112C17.3575 24.2089 15.7632 24.9184 14.0774 24.9999C14.0353 25.0015 13.9934 24.9946 13.9541 24.9797C13.9148 24.9647 13.8789 24.9419 13.8486 24.9127C13.8183 24.8835 13.7942 24.8485 13.7778 24.8098C13.7614 24.771 13.753 24.7294 13.7531 24.6873L13.7527 24.1664ZM18.4959 18.2475C18.5388 18.2475 18.5813 18.2564 18.6206 18.2736C18.66 18.2907 18.6954 18.3158 18.7246 18.3472C18.7539 18.3786 18.7764 18.4156 18.7908 18.4561C18.8051 18.4965 18.811 18.5395 18.808 18.5823C18.7277 19.8085 18.2045 20.9637 17.3359 21.8329C16.4673 22.7021 15.3124 23.2261 14.0863 23.3073C14.0435 23.3103 14.0005 23.3044 13.9601 23.29C13.9196 23.2757 13.8825 23.2532 13.8511 23.2239C13.8197 23.1946 13.7947 23.1592 13.7775 23.1199C13.7604 23.0805 13.7515 23.0381 13.7514 22.9952V22.4815C13.7475 22.407 13.7731 22.334 13.8227 22.2782C13.8722 22.2225 13.9417 22.1885 14.0162 22.1835C14.9633 22.1198 15.8556 21.7163 16.5291 21.0474C17.2026 20.3784 17.612 19.4889 17.6822 18.5422C17.6875 18.4636 17.7223 18.3898 17.7797 18.3358C17.837 18.2818 17.9128 18.2516 17.9916 18.2511L18.4959 18.2475ZM13.7527 21.2969V20.7837C13.7527 20.5729 13.9363 20.4967 14.0255 20.4861C14.5239 20.4252 14.9878 20.1995 15.3433 19.8449C15.6989 19.4903 15.9258 19.0271 15.9881 18.5288C15.997 18.4525 16.0335 18.382 16.0908 18.3307C16.148 18.2794 16.2221 18.2508 16.299 18.2503H16.8029C16.8464 18.2501 16.8894 18.259 16.9293 18.2765C16.9691 18.2939 17.0048 18.3195 17.0342 18.3516C17.0636 18.3836 17.0859 18.4215 17.0997 18.4627C17.1136 18.5039 17.1187 18.5476 17.1147 18.5909C17.0359 19.3653 16.6923 20.0888 16.1418 20.6392C15.5912 21.1895 14.8676 21.533 14.0932 21.6115C14.0499 21.6155 14.0063 21.6103 13.9652 21.5965C13.924 21.5826 13.8862 21.5602 13.8542 21.5309C13.8221 21.5015 13.7966 21.4658 13.7792 21.426C13.7618 21.3862 13.7529 21.3432 13.7531 21.2998L13.7527 21.2969Z" fill="white"/>
</svg>
