<svg width="32" height="32" viewBox="0 0 32 32" fill="none" xmlns="http://www.w3.org/2000/svg">
<circle cx="16" cy="16" r="16" fill="#3C4566"/>
<path d="M13.1537 12.3049H9.17507V7H17.3781C20.0679 7 23.7646 9.46267 24.7124 12.1162H19.9746C19.028 10.9787 17.6754 10.79 16.9437 10.79H13.1537V12.3049Z" fill="white"/>
<path d="M13.1537 19.6951H9.17507V25H17.3781C20.0679 25 23.7646 22.5373 24.7124 19.8838H19.9746C19.028 21.0213 17.6754 21.2111 16.9437 21.2111H13.1537V19.6951Z" fill="white"/>
<path fill-rule="evenodd" clip-rule="evenodd" d="M9.14954 13.5214H11.0639C11.4429 13.5214 11.7249 13.5379 11.91 13.5709C12.0973 13.6017 12.264 13.6677 12.4099 13.7689C12.558 13.8701 12.681 14.0054 12.779 14.1748C12.877 14.342 12.926 14.5301 12.926 14.739C12.926 14.9656 12.8651 15.1735 12.7431 15.3627C12.6233 15.5519 12.46 15.6938 12.2531 15.7884C12.5449 15.8742 12.7692 16.0205 12.926 16.2273C13.0829 16.4341 13.1613 16.6772 13.1613 16.9566C13.1613 17.1766 13.1101 17.391 13.0077 17.6C12.9075 17.8068 12.7692 17.9729 12.5928 18.0983C12.4186 18.2215 12.203 18.2974 11.946 18.326C11.7848 18.3436 11.3961 18.3546 10.7797 18.359H9.14954V13.5214ZM10.1165 14.3266V15.4452H10.7503C11.1271 15.4452 11.3612 15.4397 11.4527 15.4287C11.6182 15.4089 11.7478 15.3517 11.8414 15.2571C11.9373 15.1603 11.9852 15.0338 11.9852 14.8776C11.9852 14.728 11.9438 14.6071 11.861 14.5147C11.7805 14.4201 11.6596 14.3629 11.4984 14.3431C11.4026 14.3321 11.1271 14.3266 10.6719 14.3266H10.1165ZM10.1165 16.2504V17.5439H11.0117C11.3601 17.5439 11.5812 17.534 11.6748 17.5142C11.8186 17.4878 11.9351 17.424 12.0244 17.3229C12.1159 17.2195 12.1616 17.082 12.1616 16.9104C12.1616 16.7652 12.1267 16.642 12.0571 16.5408C11.9874 16.4396 11.8861 16.3659 11.7532 16.3197C11.6226 16.2735 11.3373 16.2504 10.8973 16.2504H10.1165Z" fill="white"/>
<path d="M15.4532 18.359V13.5214H19.0043V14.3398H16.4202V15.4122H18.8246V16.2273H16.4202V17.5439H19.0957V18.359H15.4532Z" fill="white"/>
<path d="M22.4657 14.3398V18.359H23.4327V14.3398H24.8505V13.5214H21.0446V14.3398H22.4657Z" fill="white"/>
</svg>
