<svg width="32" height="32" viewBox="0 0 32 32" fill="none" xmlns="http://www.w3.org/2000/svg">
<circle cx="16" cy="16" r="16" fill="black"/>
<path d="M6.99952 16.0066C6.9985 14.5169 7.36729 13.0501 8.07281 11.738C8.77832 10.4259 9.79851 9.30946 11.0418 8.48879C12.2852 7.66812 13.7128 7.1689 15.1966 7.03593C16.6804 6.90295 18.174 7.14038 19.5435 7.7269C20.9129 8.31342 22.1153 9.2307 23.0429 10.3965C23.9705 11.5622 24.5942 12.94 24.8581 14.4062C25.122 15.8724 25.0178 17.3812 24.5549 18.7972C24.0919 20.2132 23.2848 21.4921 22.2058 22.5193C19.5255 17.7695 17.4412 12.7072 16 7.44719V7.36979C14.5556 12.6511 12.4611 17.7326 9.76446 22.4977C8.88869 21.6589 8.19214 20.6512 7.7169 19.5355C7.24167 18.4198 6.99762 17.2193 6.99952 16.0066ZM15.991 16.0966C15.3622 19.0163 14.2982 21.8249 12.8345 24.4283C14.8655 25.1862 17.1008 25.1907 19.1348 24.4409C17.6712 21.8331 16.6112 19.0185 15.991 16.093V16.0966Z" fill="white"/>
</svg>
