<svg width="32" height="32" viewBox="0 0 32 32" fill="none" xmlns="http://www.w3.org/2000/svg">
<circle cx="16" cy="16" r="16" fill="black"/>
<path d="M13.887 14.5046C13.8968 15.1816 14.244 15.7162 14.8707 16.1591L14.8711 15.7943C14.8712 15.1757 14.871 14.5571 14.8708 13.9385C14.8702 12.3479 14.8696 10.7573 14.8749 9.16694C14.8772 8.47109 15.3629 7.96973 15.9983 7.96973C16.6484 7.97036 17.1322 8.48718 17.1348 9.1918C17.136 9.69276 17.136 10.1937 17.1361 10.6945C17.1361 11.1452 17.1362 11.5959 17.1371 12.0466C17.1372 12.0989 17.1438 12.1512 17.1531 12.2251V12.2251C17.1583 12.2672 17.1645 12.3164 17.1709 12.3765C17.2591 12.2924 17.3436 12.2126 17.425 12.1357L17.4277 12.1332L17.4277 12.1331L17.4278 12.1331C17.6442 11.9286 17.8393 11.7444 18.0274 11.5532C18.0838 11.4972 18.1185 11.3928 18.1185 11.3092C18.1178 11.0924 18.1192 10.8753 18.1207 10.6582V10.658C18.1249 10.0477 18.1291 9.43731 18.0844 8.8304C18.0036 7.73451 17.0412 6.96158 15.8983 7.00148C14.8103 7.0395 13.8947 7.9198 13.883 8.99899C13.8632 10.834 13.8602 12.6698 13.887 14.5046Z" fill="white"/>
<path d="M18.0817 17.2708C18.0119 16.6711 17.6925 16.2125 17.1377 15.8294L17.1362 16.2211C17.1371 18.3973 17.1362 20.5736 17.1337 22.7499C17.1329 23.4863 16.6518 24.0142 15.9977 24.0085C15.3317 24.0029 14.8755 23.4959 14.8722 22.7438C14.869 22.0639 14.8694 21.3838 14.8698 20.7037C14.8699 20.4769 14.8701 20.2502 14.8701 20.0235V19.6985L14.7829 19.6477C14.7062 19.7223 14.629 19.7965 14.5519 19.8708L14.5515 19.8711C14.3411 20.0737 14.1305 20.2764 13.9265 20.4856C13.8811 20.5324 13.8772 20.6327 13.8772 20.7081C13.8766 20.906 13.8751 21.1039 13.8735 21.3018C13.8692 21.8748 13.8648 22.4479 13.8828 23.0202C13.9189 24.1928 15.0811 25.1481 16.2377 24.9809C17.4015 24.8134 18.1162 23.9753 18.1235 22.7428C18.1318 21.326 18.1279 19.909 18.1235 18.4923C18.1235 18.4553 18.1235 18.4183 18.1236 18.3813V18.3813C18.124 18.0109 18.1244 17.6376 18.0817 17.2708Z" fill="white"/>
<path d="M15.2935 15.0738C15.3626 14.2773 15.7113 13.716 16.3338 13.3512C17.8563 12.458 19.3856 11.5764 20.9217 10.7065C21.9639 10.1185 23.2196 10.4742 23.8096 11.491C24.3945 12.5016 24.0627 13.7567 23.0312 14.3803C22.4214 14.7488 21.8024 15.1027 21.1793 15.4484C21.0637 15.5072 20.9316 15.5251 20.8045 15.4991C20.5601 15.4431 20.3192 15.3713 20.0442 15.2893C19.9286 15.2549 19.8069 15.2186 19.6764 15.181C19.8328 15.0902 19.9823 15.0033 20.1267 14.9194L20.1299 14.9175C20.5189 14.6914 20.8713 14.4866 21.2242 14.2827C21.3866 14.1889 21.5495 14.0958 21.7124 14.0027L21.7138 14.0018L21.714 14.0017C21.9533 13.8649 22.1926 13.7281 22.4306 13.589C23.0782 13.2102 23.2821 12.5676 22.9443 11.9785C22.6199 11.4133 21.956 11.2574 21.3211 11.6209C19.4066 12.7172 17.4943 13.818 15.5843 14.9234C15.5348 14.9518 15.4838 14.9775 15.4182 15.0105L15.4181 15.0105L15.418 15.0106C15.3817 15.0289 15.3409 15.0494 15.2935 15.0738Z" fill="white"/>
<path d="M15.5621 18.6951C16.2396 18.3076 16.6246 17.7365 16.7186 16.8842C16.6591 16.9181 16.6045 16.9491 16.5533 16.9782L16.5532 16.9782C16.4477 17.0382 16.3564 17.09 16.2653 17.1424C14.3952 18.2261 12.5221 19.3046 10.6459 20.3776C10.0386 20.725 9.37346 20.5564 9.0505 19.9999C8.7242 19.438 8.90991 18.7954 9.51363 18.4267C9.71645 18.3031 9.92341 18.1857 10.1304 18.0682C10.2384 18.0069 10.3463 17.9457 10.4537 17.8835C10.7659 17.7026 11.0779 17.5219 11.4015 17.3345L11.4021 17.3341C11.6922 17.1661 11.9914 16.9928 12.3083 16.8092C12.1919 16.7713 12.085 16.738 11.9847 16.7067C11.7926 16.6469 11.6244 16.5945 11.4598 16.5315C11.1598 16.4164 10.9037 16.4609 10.6302 16.6335C10.2518 16.8723 9.86208 17.0927 9.47237 17.3131C9.33996 17.388 9.20754 17.4628 9.07557 17.5384C7.9638 18.1752 7.58715 19.4043 8.17896 20.4697C8.76263 21.5205 10.0486 21.8608 11.1491 21.2341C11.9845 20.7592 12.8165 20.2783 13.6486 19.7975C14.2859 19.4291 14.9233 19.0608 15.5621 18.6951Z" fill="white"/>
<path d="M16.4377 14.9211C17.1335 14.5973 17.7955 14.5904 18.4266 14.947C19.9725 15.8209 21.515 16.7032 23.0433 17.6084C24.0805 18.2228 24.3938 19.4869 23.8033 20.5011C23.2163 21.5094 21.9572 21.847 20.9077 21.2665C20.6292 21.1127 20.3546 20.9525 20.0801 20.7924C19.7781 20.6162 19.4763 20.4402 19.1694 20.2727C18.9539 20.1551 18.8177 20.0112 18.7725 19.7678C18.7339 19.5647 18.6864 19.3631 18.6335 19.1383C18.6088 19.0337 18.583 18.924 18.5563 18.8069C18.6068 18.8299 18.6504 18.8487 18.6891 18.8654L18.6891 18.8654C18.7597 18.8959 18.814 18.9194 18.8649 18.9485C19.2142 19.1486 19.563 19.3496 19.9117 19.5507L19.9124 19.551C20.3868 19.8245 20.8613 20.098 21.3372 20.369C21.9639 20.7256 22.6203 20.5685 22.9549 19.9909C23.2743 19.4396 23.0847 18.7747 22.4801 18.4242C21.109 17.6269 19.7354 16.8357 18.362 16.0446L18.36 16.0435C17.8321 15.7394 17.3043 15.4354 16.7767 15.1311C16.7077 15.091 16.6397 15.0481 16.5633 14.9999L16.5632 14.9999L16.5626 14.9995C16.5236 14.9749 16.4824 14.9489 16.4377 14.9211Z" fill="white"/>
<path d="M13.2721 13.1012C13.323 13.1274 13.3817 13.1577 13.4518 13.1943C13.4215 13.0706 13.3935 12.9536 13.3666 12.8418C13.2918 12.5302 13.2266 12.2587 13.1502 11.9909C13.1289 11.9152 13.0457 11.8405 12.9726 11.7987C12.8012 11.699 12.6304 11.5979 12.4595 11.4968C11.9579 11.2 11.456 10.903 10.9371 10.6401C9.95713 10.1429 8.74488 10.534 8.19547 11.4799C7.63436 12.4479 7.88713 13.7168 8.84306 14.2948C10.4397 15.2604 12.0639 16.1816 13.6948 17.0885C14.2772 17.4123 14.9064 17.3579 15.563 17.0655C15.5354 17.0473 15.51 17.0305 15.4862 17.0148C15.4007 16.9582 15.3369 16.9159 15.2705 16.8775C13.3694 15.781 11.4684 14.6844 9.56753 13.5875C8.92412 13.2156 8.71292 12.5555 9.05113 11.979C9.38704 11.4066 10.0704 11.2631 10.7094 11.6318C11.4829 12.0802 12.2569 12.5273 13.0313 12.9729C13.1004 13.0127 13.1711 13.0492 13.2721 13.1012Z" fill="white"/>
</svg>
