<svg width="32" height="32" viewBox="0 0 32 32" fill="none" xmlns="http://www.w3.org/2000/svg">
<circle cx="16" cy="16" r="16" fill="#FEC907"/>
<path fill-rule="evenodd" clip-rule="evenodd" d="M11.6605 22.816H11.3895V9.183H11.7345C12.0305 9.183 12.3155 9.068 12.5255 8.863C12.7355 8.659 12.8535 8.381 12.8535 8.092C12.8535 7.489 12.3525 7 11.7335 7H10.1775C9.86451 7 9.56551 7.12 9.34451 7.336C9.23564 7.44162 9.14902 7.56797 9.08977 7.7076C9.03052 7.84723 8.99983 7.99732 8.99951 8.149V23.822C8.99951 24.134 9.12651 24.434 9.35351 24.655C9.57951 24.875 9.88651 25 10.2075 25H11.6605C12.2785 25 12.7805 24.511 12.7805 23.908C12.7805 23.305 12.2785 22.817 11.6605 22.816ZM23.8305 11.364C23.0647 10.0392 21.9503 8.94965 20.6085 8.214C19.2395 7.453 17.7085 7.072 16.0175 7.072H15.6685C15.3715 7.072 15.0875 7.187 14.8775 7.392C14.6675 7.596 14.5495 7.874 14.5495 8.164C14.5495 8.767 15.0505 9.255 15.6695 9.255H15.9655C17.1925 9.255 18.3085 9.545 19.3125 10.121C20.3023 10.6851 21.1228 11.5041 21.6885 12.493C22.2685 13.497 22.5585 14.626 22.5595 15.881C22.5595 17.119 22.2735 18.241 21.7015 19.243C21.1285 20.247 20.4965 21.178 19.5105 21.746C18.5235 22.315 17.6455 22.816 16.4345 22.816H15.7445C15.1265 22.816 14.6245 23.304 14.6245 23.907C14.6245 24.51 15.1275 25 15.7455 25H16.3125C18.0215 25 19.4005 24.496 20.7195 23.642C22.1565 22.712 23.0315 21.687 23.8185 20.348C24.6055 19.009 25.0005 17.513 25.0005 15.856C25.0005 14.199 24.6105 12.703 23.8315 11.365L23.8305 11.364Z" fill="white"/>
</svg>
