<svg width="32" height="32" viewBox="0 0 32 32" fill="none" xmlns="http://www.w3.org/2000/svg">
<circle cx="16" cy="16" r="16" fill="black"/>
<path fill-rule="evenodd" clip-rule="evenodd" d="M8.47871 10.8016C7.98218 11.0907 7.67676 11.622 7.67676 12.1966V18.9666C7.67676 19.3557 8.09873 19.5983 8.43503 19.4025L14.8449 15.6701C15.3414 15.381 15.6469 14.8498 15.6469 14.2752V7.5052C15.6469 7.11605 15.2249 6.87346 14.8886 7.06927L8.47871 10.8016ZM13.3788 10.6123C12.9599 10.3705 12.9352 9.62886 13.3237 8.95595C13.7122 8.28303 14.3668 7.9336 14.7857 8.17548C15.2046 8.41735 15.2293 9.15893 14.8408 9.83184C14.4523 10.5048 13.7977 10.8542 13.3788 10.6123ZM10.9024 12.7897C10.5139 13.4626 10.5386 14.2042 10.9575 14.4461C11.3764 14.6879 12.031 14.3385 12.4195 13.6656C12.808 12.9927 12.7833 12.2511 12.3644 12.0092C11.9455 11.7673 11.2909 12.1167 10.9024 12.7897ZM8.63708 18.1789C8.21815 17.937 8.19349 17.1954 8.582 16.5225C8.9705 15.8496 9.62507 15.5002 10.044 15.742C10.4629 15.9839 10.4876 16.7255 10.0991 17.3984C9.71059 18.0713 9.05603 18.4208 8.63708 18.1789Z" fill="white"/>
<path fill-rule="evenodd" clip-rule="evenodd" d="M23.5212 10.8016C24.0178 11.0907 24.3232 11.622 24.3232 12.1966V18.9666C24.3232 19.3557 23.9012 19.5983 23.5649 19.4025L17.155 15.6701C16.6585 15.381 16.3531 14.8498 16.3531 14.2752V7.5052C16.3531 7.11605 16.775 6.87346 17.1113 7.06927L23.5212 10.8016ZM17.3003 15.0605C17.7677 15.6812 18.4599 15.9485 18.8463 15.6575C19.2327 15.3665 19.1671 14.6274 18.6997 14.0067C18.2323 13.386 17.5401 13.1187 17.1537 13.4097C16.7672 13.7007 16.8329 14.4397 17.3003 15.0605ZM23.588 13.2362C23.2016 13.5272 22.5094 13.2599 22.042 12.6392C21.5746 12.0184 21.5089 11.2794 21.8954 10.9884C22.2818 10.6974 22.974 10.9647 23.4414 11.5854C23.9088 12.2061 23.9744 12.9452 23.588 13.2362Z" fill="white"/>
<path fill-rule="evenodd" clip-rule="evenodd" d="M8.50099 20.989L15.2037 24.7899C15.6976 25.07 16.3023 25.07 16.7962 24.79L23.499 20.989C23.8398 20.7958 23.8398 20.3047 23.499 20.1114L16.7962 16.3105C16.3023 16.0304 15.6976 16.0304 15.2037 16.3105L8.50099 20.1114C8.16018 20.3047 8.16018 20.7958 8.50099 20.989ZM16 21.66C16.9193 21.66 17.6646 21.1631 17.6646 20.5502C17.6646 19.9373 16.9193 19.4405 16 19.4405C15.0806 19.4405 14.3353 19.9373 14.3353 20.5502C14.3353 21.1631 15.0806 21.66 16 21.66Z" fill="white"/>
</svg>
