<svg width="32" height="32" viewBox="0 0 32 32" fill="none" xmlns="http://www.w3.org/2000/svg">
<circle cx="16" cy="16" r="16" fill="#5683E6"/>
<path d="M15.7956 9.60253C15.8162 9.5574 15.8492 9.51912 15.8909 9.49228C15.9326 9.46543 15.9811 9.45114 16.0307 9.45112C16.1302 9.45112 16.2213 9.51147 16.2636 9.60465L22.9237 24.1053C22.9968 24.2673 23.1149 24.4048 23.2639 24.5017C23.413 24.5985 23.5866 24.6506 23.7644 24.6516H23.8533C23.9858 24.651 24.1143 24.6068 24.2192 24.5259C24.3241 24.4449 24.3994 24.3317 24.4335 24.2038C24.4987 23.969 24.4769 23.7186 24.3721 23.4986L16.6501 7.34934C16.6164 7.27916 16.5676 7.21732 16.5072 7.16829C16.374 7.05808 16.2062 6.99848 16.0334 7.00003C15.8605 7.00158 15.6938 7.06418 15.5627 7.17676C15.423 7.29705 15.3101 7.4453 15.2313 7.61193L7.6183 23.6511C7.52493 23.8487 7.50454 24.073 7.56074 24.2843C7.61695 24.4955 7.74612 24.6801 7.92536 24.8052L7.98466 24.8475C8.13078 24.9471 8.30231 25 8.47807 25H19.8626C20.0432 24.9991 20.2204 24.95 20.3758 24.8579C20.5312 24.7658 20.6592 24.6339 20.7467 24.4759C20.7968 24.386 20.8257 24.2859 20.8314 24.1832C20.8371 24.0805 20.8194 23.9778 20.7795 23.8829L20.7689 23.8565C20.7109 23.7146 20.6122 23.5931 20.4852 23.5074C20.3581 23.4216 20.2086 23.3754 20.0553 23.3747H9.34314L15.7956 9.60253Z" fill="white"/>
</svg>
