<svg width="32" height="32" viewBox="0 0 32 32" fill="none" xmlns="http://www.w3.org/2000/svg">
<circle cx="16" cy="16" r="16" fill="#00DAC6"/>
<path d="M18.9384 7C19.4964 7 20.0004 7.306 20.2704 7.774L24.5724 15.226C24.8604 15.712 24.8604 16.288 24.6084 16.774L20.3064 24.226C20.0364 24.712 19.5324 25 18.9744 25H10.3524C10.0705 25 9.78866 24.9138 9.55741 24.7751C9.55244 24.7781 9.54744 24.7811 9.54241 24.784H9.52441C9.30841 24.658 9.12841 24.46 9.00241 24.244L7.38241 21.436C7.14841 21.04 7.14841 20.536 7.38241 20.14L9.32641 16.792C9.45241 16.558 9.52441 16.288 9.52441 16.018C9.52441 15.748 9.47041 15.478 9.32641 15.244L7.38241 11.878C7.14841 11.482 7.14841 10.978 7.38241 10.582L8.98441 7.792C9.11041 7.558 9.29041 7.378 9.50641 7.252H9.52441C9.72241 7.378 9.90241 7.558 10.0284 7.774L12.1884 11.518L14.3304 15.226C14.6184 15.712 14.6184 16.288 14.3484 16.81L12.2229 20.4894C12.4164 20.575 12.6269 20.626 12.8544 20.626H16.4004C16.9404 20.626 17.4624 20.32 17.7324 19.852L19.5144 16.774C19.7844 16.288 19.7844 15.694 19.5144 15.226L17.7324 12.148C17.4624 11.662 16.9584 11.374 16.4004 11.374H12.8364C12.6204 11.374 12.3864 11.428 12.1884 11.518L10.0284 7.774C9.90241 7.558 9.72241 7.378 9.52441 7.252L9.52441 7.234C9.77641 7.09 10.0464 7 10.3344 7H18.9384Z" fill="white"/>
</svg>
