<svg width="32" height="32" viewBox="0 0 32 32" fill="none" xmlns="http://www.w3.org/2000/svg">
<circle cx="16" cy="16" r="16" fill="#0089D5"/>
<path d="M16.1525 17.8837C16.2645 18.0617 16.3719 18.2361 16.4749 18.407H15.8138C15.9217 18.2362 16.0345 18.0618 16.1525 17.8837Z" fill="white"/>
<path d="M15.4288 19.0349H16.8428C16.9655 19.2505 17.0807 19.4599 17.1888 19.6628H15.0685C15.1807 19.4601 15.3006 19.2508 15.4288 19.0349Z" fill="white"/>
<path d="M14.6293 20.5H17.6132C17.718 20.7183 17.8137 20.9277 17.9009 21.1279H14.3335C14.4227 20.9282 14.521 20.7189 14.6293 20.5Z" fill="white"/>
<path d="M13.9894 21.9651H18.2379C18.3205 22.19 18.3904 22.3993 18.4493 22.593H13.7748C13.834 22.4008 13.9049 22.1915 13.9894 21.9651Z" fill="white"/>
<path d="M15.7344 13.6977C15.8374 13.8685 15.9448 14.043 16.0568 14.2209C16.1748 14.0428 16.2876 13.8684 16.3955 13.6977H15.7344Z" fill="white"/>
<path d="M15.3665 13.0698H16.7805C16.9087 12.8538 17.0286 12.6445 17.1408 12.4419H15.0205C15.1286 12.6448 15.2438 12.8541 15.3665 13.0698Z" fill="white"/>
<path d="M14.5961 11.6047H17.58C17.6883 11.3858 17.7866 11.1765 17.8758 10.9767H14.3084C14.3956 11.177 14.4913 11.3863 14.5961 11.6047Z" fill="white"/>
<path d="M13.9714 10.1395H18.2199C18.3044 9.91318 18.3753 9.70383 18.4345 9.51163H13.76C13.8189 9.70532 13.8888 9.91467 13.9714 10.1395Z" fill="white"/>
<path fill-rule="evenodd" clip-rule="evenodd" d="M16 25C20.9706 25 25 20.9706 25 16C25 11.0294 20.9706 7 16 7C11.0294 7 7 11.0294 7 16C7 20.9706 11.0294 25 16 25ZM20.2157 22.4972C22.3397 21.1163 23.7442 18.7222 23.7442 16C23.7442 13.3113 22.374 10.9427 20.2939 9.55424C20.1109 10.5598 19.6956 11.5477 19.1741 12.5038C18.4683 13.7976 17.5335 15.0931 16.6274 16.3487L16.6138 16.3674C15.6927 17.6438 14.802 18.8797 14.1377 20.0975C13.5461 21.1822 13.1617 22.2047 13.0842 23.1765C13.3206 23.2727 13.5628 23.3575 13.8102 23.4302H18.1898C18.4753 23.3462 18.754 23.2462 19.0248 23.1312C18.9585 22.1417 18.5706 21.0996 17.9669 19.9929C17.5384 19.2073 17.0157 18.4142 16.4514 17.6076L17.2247 16.5249C17.8956 17.47 18.5456 18.4312 19.0694 19.3915C19.6179 20.3971 20.0489 21.4378 20.2157 22.4972ZM13.5519 8.67442H18.5181C18.7219 8.74445 18.9218 8.82273 19.1175 8.90888C19.0249 9.85513 18.6459 10.8495 18.0716 11.9025C17.4073 13.1203 16.5166 14.3562 15.5955 15.6326L15.582 15.6513C14.6759 16.9069 13.741 18.2024 13.0352 19.4962C12.4927 20.4909 12.0651 21.52 11.8944 22.5675C9.70905 21.1985 8.25581 18.769 8.25581 16C8.25581 13.264 9.67467 10.8594 11.8167 9.48178C12.0027 10.4762 12.4147 11.4533 12.9306 12.3991C13.5102 13.4618 14.2444 14.5255 14.9902 15.5673L15.781 14.5129C15.1282 13.5923 14.5198 12.6902 14.0331 11.7978C13.4703 10.766 13.095 9.7904 12.9931 8.86124C13.1746 8.78469 13.3596 8.71487 13.5478 8.65208L13.5519 8.67442Z" fill="white"/>
</svg>
