<svg width="32" height="32" viewBox="0 0 32 32" fill="none" xmlns="http://www.w3.org/2000/svg">
<circle cx="16" cy="16" r="16" fill="#2C398F"/>
<path d="M23.4254 18.5366C22.7487 18.4989 23.1251 17.4222 22.824 16.194C22.4664 14.8342 22.9934 13.8892 23.6888 13.9276C24.0161 13.9784 24.3254 14.1076 24.5913 14.3048C24.4706 13.7135 24.2548 13.1456 23.9523 12.6234C23.3313 11.5843 21.978 10.0731 20.2859 8.88345V20.2744C20.3578 20.4293 20.3941 20.5983 20.3922 20.7691C20.3902 20.9398 20.3501 21.108 20.2747 21.2612C20.1993 21.4144 20.0905 21.5487 19.9564 21.6544C19.8222 21.7601 19.6662 21.8344 19.4996 21.8719C19.333 21.9094 19.1601 21.9091 18.9936 21.8711C18.8272 21.8331 18.6713 21.7582 18.5375 21.6521C18.4038 21.546 18.2954 21.4113 18.2205 21.2578C18.1456 21.1044 18.106 20.9361 18.1046 20.7653C17.2064 21.3249 16.138 21.5458 15.0915 21.3883C14.045 21.2309 13.089 20.7054 12.3952 19.9062C11.6987 19.1048 11.3081 18.0829 11.2926 17.0213C11.277 15.9596 11.6374 14.9267 12.3101 14.1052C12.9799 13.2857 13.9199 12.732 14.9613 12.5434C16.0027 12.3549 17.0772 12.544 17.9917 13.0767V8.6568C17.986 8.31234 18.139 7.98424 18.4057 7.76906C16.2056 6.74876 13.7428 6.54094 11.6368 8.41134C8.10214 11.5655 6.33483 15.9674 8.10214 20.3497C8.13977 20.4446 8.17741 20.5387 8.21505 20.614C8.2666 20.5076 8.33696 20.4127 8.42205 20.3309C9.34334 19.3867 10.3587 21.3127 12.5212 22.4279C13.8933 23.1266 14.6829 24.052 14.984 24.921C16.9951 25.1664 19.0635 24.8457 20.7179 23.8818C22.8804 22.6357 24.1405 20.3685 24.5913 18.0645C24.267 18.3488 23.8561 18.5151 23.4254 18.5366ZM14.9464 18.6118C16.037 19.2353 17.3527 18.9898 17.5973 17.5915C17.7282 16.7799 17.6538 15.5133 16.9395 15.1173C14.57 13.7575 12.5769 17.252 14.9464 18.6118ZM16.0558 9.58219C16.5631 9.56337 17.0328 10.168 17.0516 10.4511C17.0704 10.735 16.6196 10.6213 16.1303 10.7915C15.5854 10.9797 15.1902 10.8103 15.1722 10.5272C15.1534 10.2433 15.5289 9.60101 16.0558 9.58219Z" fill="white"/>
</svg>
