<svg width="32" height="32" viewBox="0 0 32 32" fill="none" xmlns="http://www.w3.org/2000/svg">
<circle cx="16" cy="16" r="16" fill="#0B0D34"/>
<path fill-rule="evenodd" clip-rule="evenodd" d="M8.55993 14.1254C8.60463 14.1422 8.65132 14.146 8.69809 14.1499H8.69811C8.72642 14.1522 8.75475 14.1545 8.78268 14.1597C9.59885 14.3118 10.2098 14.9568 10.31 15.7754C10.4314 16.7661 9.74946 17.6796 8.7649 17.8458C8.74184 17.8496 8.71861 17.8514 8.69545 17.8533H8.69543C8.6539 17.8565 8.61259 17.8598 8.57281 17.8745C8.06392 17.8745 7.55502 17.8745 7.04612 17.8755C7.00747 17.8755 7 17.8678 7 17.8294C7.00129 16.6098 7.00129 15.3901 7 14.1705C7 14.1319 7.00773 14.1243 7.04612 14.1244C7.55077 14.1254 8.05528 14.1254 8.55993 14.1254ZM7.58302 16.1609C7.58304 16.2021 7.58306 16.2433 7.58309 16.2845C7.58328 16.5947 7.58346 16.9051 7.58169 17.2149C7.58169 17.2695 7.59728 17.2815 7.64946 17.281C7.90481 17.2781 8.16016 17.2789 8.41551 17.2802C8.49704 17.2818 8.57855 17.2763 8.65913 17.2638C9.39297 17.1402 9.86116 16.4491 9.70656 15.7217C9.59215 15.1856 9.12152 14.7706 8.57281 14.7297C8.38351 14.7155 8.19387 14.7174 8.00421 14.7193C7.88705 14.7205 7.76989 14.7217 7.65281 14.7191C7.59856 14.7179 7.58053 14.7281 7.58104 14.7879C7.5837 15.0964 7.58343 15.4049 7.58315 15.7134C7.58306 15.8083 7.58298 15.9033 7.58298 15.9982C7.58298 16.0524 7.58299 16.1067 7.58302 16.1609Z" fill="white"/>
<path d="M22.6673 14.1254V16.4176C22.6673 16.8583 23.0152 17.2391 23.4549 17.2808C23.9035 17.3227 24.3088 17.0247 24.3954 16.5902C24.4099 16.5166 24.4172 16.4418 24.4171 16.3668V14.2094C24.4171 14.1897 24.4178 14.1698 24.4185 14.15C24.4187 14.142 24.419 14.134 24.4192 14.1261C24.4659 14.1261 24.5125 14.1262 24.5592 14.1263H24.5592C24.6908 14.1265 24.8224 14.1268 24.9539 14.1249C24.9925 14.1249 25.0001 14.1328 25 14.1712C24.9986 14.9807 24.9983 15.7902 24.999 16.5997C24.984 16.6046 24.9842 16.6159 24.9843 16.6268V16.6268C24.9844 16.6293 24.9844 16.6319 24.9843 16.6343C24.9842 16.6354 24.9841 16.6365 24.9839 16.6376C24.8623 17.253 24.5044 17.6538 23.8999 17.8294C23.8516 17.8434 23.802 17.8527 23.7524 17.862L23.7524 17.862L23.7523 17.862C23.7298 17.8663 23.7073 17.8705 23.6849 17.8752H23.3628C23.333 17.853 23.2983 17.8492 23.2638 17.8454C23.2485 17.8437 23.2332 17.842 23.2183 17.8387C22.557 17.6878 22.0802 17.0942 22.0809 16.4176C22.0815 15.6565 22.0825 14.8953 22.0841 14.1341C22.0841 14.1322 22.0812 14.1305 22.0783 14.1287C22.0769 14.1278 22.0755 14.127 22.0744 14.1261L22.6673 14.1254Z" fill="white"/>
<path d="M17.3918 14.1316C17.3337 14.1313 17.2757 14.1311 17.2176 14.1311C17.2112 14.1592 17.2235 14.182 17.2356 14.2045L17.2357 14.2045C17.2396 14.2119 17.2436 14.2192 17.2469 14.2267C17.7227 15.3284 18.1989 16.4299 18.6754 17.5312C18.7069 17.6042 18.7389 17.6769 18.7723 17.7528L18.7728 17.7539C18.7896 17.7921 18.8068 17.8311 18.8244 17.8714L20.4399 14.1374C20.3156 14.1296 20.1911 14.1307 20.0667 14.1317H20.0666C19.9875 14.1324 19.9084 14.1331 19.8293 14.1315C19.8015 14.1309 19.7945 14.149 19.7876 14.167C19.7864 14.1701 19.7852 14.1732 19.7839 14.1762C19.5348 14.7506 19.2857 15.3251 19.0366 15.8997C18.9669 16.0601 18.8976 16.2201 18.8252 16.3876C18.8232 16.3834 18.8213 16.3796 18.8196 16.376C18.8183 16.3733 18.8171 16.3708 18.8159 16.3684L18.8159 16.3683C18.8114 16.3591 18.8079 16.352 18.8047 16.3447C18.4929 15.6271 18.1823 14.909 17.8731 14.1905C17.8546 14.1475 17.8341 14.1295 17.7845 14.1304C17.6535 14.1327 17.5227 14.1321 17.392 14.1316H17.3918Z" fill="white"/>
<path d="M13.8487 14.1383C14.1246 14.1408 14.3889 14.1954 14.6382 14.3153C14.6915 14.3394 14.7359 14.3796 14.7651 14.4303C14.7944 14.4809 14.8071 14.5394 14.8015 14.5976C14.7901 14.7228 14.7216 14.8073 14.6054 14.8524C14.5194 14.8858 14.4379 14.864 14.3567 14.8299C13.9484 14.6598 13.5516 14.6873 13.177 14.9212C12.64 15.2562 12.4426 15.9242 12.7003 16.512C12.7688 16.669 12.7194 16.8276 12.5779 16.9052C12.5434 16.924 12.5055 16.9355 12.4664 16.9391C12.4273 16.9427 12.3879 16.9383 12.3505 16.9261C12.3132 16.9139 12.2788 16.8941 12.2494 16.8681C12.22 16.8421 12.1962 16.8103 12.1795 16.7748C12.0462 16.4993 11.9859 16.1942 12.0045 15.8888C12.0302 15.4283 12.2003 15.0265 12.5231 14.6953C12.8286 14.3817 13.2017 14.2008 13.6374 14.1505C13.7075 14.1413 13.7781 14.1372 13.8487 14.1383Z" fill="white"/>
<path d="M13.1198 17.6972C13.3577 17.803 13.6152 17.8574 13.8755 17.857C14.4624 17.8462 14.9566 17.6275 15.3178 17.1623C15.777 16.5708 15.8393 15.9183 15.5497 15.231C15.5251 15.172 15.4814 15.123 15.4257 15.0917C15.3699 15.0605 15.3053 15.0489 15.2422 15.0587C15.0412 15.0934 14.9367 15.2883 15.0202 15.4782C15.1592 15.7949 15.1751 16.1155 15.0569 16.4414C14.8082 17.1289 14.0323 17.4564 13.3523 17.1614C13.1808 17.0867 13.0099 17.1472 12.9422 17.3057C12.8759 17.4613 12.9489 17.6217 13.1198 17.6972Z" fill="white"/>
</svg>
