<svg width="32" height="32" viewBox="0 0 32 32" fill="none" xmlns="http://www.w3.org/2000/svg">
<circle cx="16" cy="16" r="16" fill="#3254AD"/>
<path d="M13.0442 7C13.572 7 13.9413 7.42229 13.9413 7.95007V24.0499C13.9413 24.5777 13.519 25 13.0442 25C12.5161 25 12.1467 24.5777 12.1467 24.0499V7.95007C12.1467 7.42229 12.5161 7 13.0442 7ZM16.0002 7C16.528 7 16.8974 7.42229 16.8974 7.95007V24.0499C16.8974 24.5777 16.4751 25 16.0002 25C15.4721 25 15.1027 24.5777 15.1027 24.0499V7.95007C15.0511 7.42229 15.4721 7 16.0002 7ZM18.9562 7C19.484 7 19.8534 7.42229 19.8534 7.95007V24.0499C19.8534 24.5777 19.4311 25 18.9562 25C18.4281 25 18.0587 24.5777 18.0587 24.0499V7.95007C18.0058 7.42229 18.4281 7 18.9562 7ZM21.9122 7C22.44 7 22.8094 7.42229 22.8094 7.95007V13.9676C22.8094 14.4957 22.3871 14.918 21.9122 14.918C21.3841 14.918 21.0147 14.4957 21.0147 13.9676V7.95007C20.9618 7.42229 21.3841 7 21.9122 7ZM10.0882 25C9.55905 25 9.19067 24.5777 9.19067 24.0499V18.0847C9.19067 17.5569 9.61296 17.1346 10.0882 17.1346C10.6159 17.1346 10.9853 17.5569 10.9853 18.0847V24.1025C11.0382 24.5777 10.6169 25 10.0882 25Z" fill="white"/>
</svg>
