<svg width="32" height="32" viewBox="0 0 32 32" fill="none" xmlns="http://www.w3.org/2000/svg">
<circle cx="16" cy="16" r="16" fill="#F19556"/>
<path d="M16.1786 14.0758H16.1255C16.0587 14.0758 16.0189 14.0625 15.9725 14.0758H15.9256C15.3766 14.0992 14.8593 14.3394 14.4873 14.7438V14.7571C14.295 14.9557 14.1495 15.1946 14.0612 15.4565C13.9776 15.6826 13.9327 15.9212 13.9285 16.1622C13.931 16.6282 14.0879 17.0803 14.3747 17.4477C14.6614 17.8151 15.0618 18.0772 15.5132 18.1929L15.6132 18.2128C15.7528 18.2457 15.8959 18.2614 16.0393 18.2597C16.173 18.2596 16.3064 18.2461 16.4374 18.2194C16.6151 18.1808 16.7873 18.1205 16.9502 18.0398L17.0166 18C17.0369 18 17.0502 17.9867 17.0701 17.9734L17.1143 17.9464L17.1541 17.9133H17.1745L17.2276 17.869C17.5834 17.6248 17.8545 17.276 18.0031 16.8709C18.1518 16.4657 18.1707 16.0244 18.0573 15.608C17.9439 15.1916 17.7037 14.8208 17.3701 14.5471C17.0365 14.2733 16.6259 14.1102 16.1954 14.0802L16.1786 14.0758ZM23.7881 20.6478C22.5905 22.7382 20.6996 24.2499 18.377 24.8751C18.318 24.8903 18.2577 24.8993 18.1969 24.902C18.0282 24.9016 17.8653 24.8401 17.7384 24.729C17.6115 24.6178 17.5291 24.4645 17.5064 24.2973C17.4838 24.1301 17.5224 23.9603 17.6152 23.8194C17.7079 23.6785 17.8486 23.5759 18.0111 23.5306L18.0505 23.5186C18.218 23.4614 18.3577 23.343 18.4417 23.1871C18.5257 23.0313 18.5478 22.8495 18.5035 22.678C18.4367 22.3785 18.1571 22.1719 17.8399 22.1719C17.7952 22.1701 17.7506 22.1746 17.7072 22.1852L17.6603 22.1985C17.6035 22.2114 17.5455 22.2182 17.4873 22.2188C17.3329 22.2222 17.1819 22.1735 17.0586 22.0804C16.9354 21.9874 16.8472 21.8555 16.8082 21.7061C16.7632 21.527 16.7868 21.3376 16.8745 21.1752C16.9734 21.015 17.1275 20.8965 17.3077 20.842C18.1962 20.6086 18.9979 20.1226 19.6157 19.4427C20.2146 18.7857 20.6282 17.9814 20.8142 17.1121V17.0187C20.84 16.8453 20.7975 16.6686 20.6957 16.5259C20.5938 16.3831 20.4406 16.2854 20.2683 16.2533L20.1356 16.2401C19.9893 16.2417 19.8473 16.2897 19.7301 16.3772C19.6128 16.4646 19.5263 16.587 19.483 16.7267L19.4631 16.7935V16.8333L19.4498 16.8532C19.4527 16.8834 19.4482 16.9138 19.4365 16.9417C19.4366 16.9562 19.4318 16.9702 19.4228 16.9815V17.0001C19.4226 17.0043 19.4213 17.0084 19.4189 17.0119C19.4166 17.0154 19.4134 17.0182 19.4096 17.02V17.0603L19.3963 17.0736C19.1903 17.807 18.7504 18.453 18.1434 18.9133C17.5365 19.3736 16.7957 19.6231 16.034 19.6236C15.7264 19.6234 15.42 19.5854 15.1217 19.5104L15.0084 19.4838H14.9421C14.7909 19.4834 14.6438 19.5327 14.5235 19.6242C14.4032 19.7156 14.3163 19.8442 14.2762 19.9899C14.2341 20.1584 14.2565 20.3365 14.339 20.4892C14.4216 20.642 14.5582 20.7584 14.7222 20.8155C14.7396 20.8216 14.7575 20.826 14.7757 20.8288C14.9409 20.8717 15.0847 20.9735 15.1801 21.115C15.2755 21.2566 15.316 21.428 15.2939 21.5973C15.2718 21.7665 15.1886 21.9218 15.06 22.0341C14.9315 22.1463 14.7663 22.2078 14.5957 22.2069C14.5351 22.2105 14.4744 22.2037 14.4161 22.187C13.0809 21.8329 11.9022 21.0432 11.067 19.943C10.2551 18.8675 9.80581 17.5618 9.78399 16.2144V16.1547C9.77754 15.9739 9.70031 15.803 9.56897 15.6787C9.43763 15.5544 9.26269 15.4867 9.08188 15.4901C8.90107 15.4936 8.72887 15.568 8.60242 15.6973C8.47596 15.8266 8.40537 16.0004 8.40588 16.1812C8.42269 19.6104 10.7454 22.6254 14.0612 23.5036C14.2386 23.5567 14.3888 23.676 14.4806 23.8367C14.5272 23.916 14.5572 24.004 14.5687 24.0953C14.5802 24.1866 14.573 24.2792 14.5474 24.3676C14.5096 24.5157 14.4237 24.647 14.3032 24.741C14.1827 24.835 14.0344 24.8864 13.8816 24.887C13.8181 24.8923 13.7543 24.8831 13.6949 24.86C12.5482 24.5577 11.4731 24.0301 10.5323 23.3081C9.59152 22.586 8.80385 21.684 8.2152 20.6544C7.0167 18.5636 6.68401 16.1268 7.30958 13.8094C7.34555 13.6608 7.43064 13.5286 7.55108 13.4344C7.67152 13.3401 7.82026 13.2892 7.9732 13.29C8.03614 13.286 8.09931 13.2929 8.1599 13.3104C8.3384 13.3583 8.49087 13.4746 8.58434 13.634C8.6778 13.7935 8.70476 13.9833 8.65938 14.1625L8.64611 14.2089C8.61275 14.381 8.64594 14.5593 8.73898 14.7079C8.83202 14.8565 8.97798 14.9642 9.14736 15.0093C9.20559 15.0277 9.26636 15.0368 9.32742 15.0363C9.47209 15.0381 9.61354 14.9935 9.73099 14.909C9.84844 14.8245 9.93571 14.7046 9.97998 14.5669L9.99326 14.5138C10.0345 14.3687 10.1217 14.2409 10.2417 14.1496C10.3618 14.0583 10.5083 14.0085 10.6591 14.0076C10.7262 14.0044 10.7935 14.0111 10.8586 14.0275C11.0371 14.0791 11.1882 14.1988 11.2793 14.3608C11.3703 14.5228 11.394 14.714 11.3453 14.8934C11.104 15.7794 11.1271 16.7167 11.4116 17.5899C11.6735 18.4403 12.1667 19.2011 12.8362 19.7873V19.8006L12.876 19.8276L12.8893 19.8408C13.0091 19.9349 13.1568 19.9865 13.3091 19.9873C13.4095 19.9869 13.5087 19.9654 13.6002 19.9241C13.6917 19.8828 13.7734 19.8226 13.84 19.7475C13.9435 19.6251 14.0014 19.4706 14.0038 19.3103C14.0063 19.1501 13.9531 18.9939 13.8533 18.8684L13.833 18.8485L13.813 18.8286C13.4351 18.5206 13.126 18.1368 12.9056 17.702C12.6851 17.2672 12.5583 16.7909 12.5333 16.3041C12.5083 15.8172 12.5856 15.3305 12.7603 14.8754C12.935 14.4202 13.2032 14.0068 13.5476 13.6617L13.6542 13.5551C13.7377 13.4212 13.7739 13.2631 13.757 13.1063C13.74 12.9494 13.671 12.8027 13.5609 12.6897C13.4961 12.6254 13.4192 12.5746 13.3345 12.5405C13.2499 12.5064 13.1593 12.4896 13.068 12.4911C12.9042 12.4922 12.7461 12.5513 12.6216 12.6578H12.6017C12.6017 12.6711 12.5818 12.6777 12.5752 12.6844C12.4778 12.7819 12.3537 12.8483 12.2186 12.8751C12.0835 12.902 11.9434 12.8882 11.8162 12.8354C11.6889 12.7827 11.5802 12.6933 11.5037 12.5787C11.4273 12.464 11.3866 12.3293 11.3869 12.1915C11.3852 12.0992 11.4018 12.0075 11.4357 11.9216C11.4697 11.8357 11.5203 11.7574 11.5846 11.6912C12.5497 10.7303 13.8019 10.1103 15.1512 9.92533C16.5005 9.74034 17.8733 10.0004 19.0614 10.6661L19.0879 10.686H19.1012L19.1211 10.6993C19.2169 10.7592 19.328 10.7899 19.441 10.7878C19.563 10.7862 19.6825 10.7527 19.7876 10.6906C19.8927 10.6285 19.9797 10.54 20.04 10.4338C20.0843 10.3553 20.1125 10.2688 20.1231 10.1793C20.1337 10.0898 20.1265 9.99905 20.1018 9.91237C20.0771 9.82568 20.0355 9.74474 19.9793 9.67425C19.9231 9.60375 19.8535 9.5451 19.7746 9.50167C18.6429 8.83805 17.3311 8.5027 16.0061 8.5027C13.9551 8.5027 12.0443 9.28843 10.6126 10.7267C10.4769 10.8575 10.295 10.9293 10.1065 10.9267C10.0152 10.9279 9.92465 10.9109 9.84008 10.8765C9.75551 10.8422 9.67867 10.7912 9.61411 10.7267C9.54943 10.6608 9.49846 10.5827 9.46414 10.497C9.42982 10.4112 9.41282 10.3196 9.41414 10.2272C9.4129 10.136 9.42996 10.0454 9.46431 9.96079C9.49865 9.87622 9.54959 9.79939 9.61411 9.73482C11.3087 8.04506 13.6044 7.09672 15.9975 7.09796C18.3906 7.09921 20.6854 8.04994 22.3781 9.74146C22.4427 9.80741 22.4936 9.88551 22.5279 9.97124C22.5621 10.057 22.579 10.1486 22.5777 10.2409C22.5796 10.3323 22.5629 10.423 22.5286 10.5077C22.4943 10.5923 22.4431 10.6691 22.3781 10.7333C22.2461 10.8615 22.0693 10.9331 21.8853 10.9331C21.7013 10.9331 21.5245 10.8615 21.3925 10.7333L21.3526 10.7002C21.2238 10.587 21.0578 10.5254 20.8863 10.5272C20.7973 10.5272 20.7091 10.5448 20.6268 10.5791C20.5446 10.6133 20.47 10.6635 20.4072 10.7267C20.1418 10.9798 20.1418 11.3925 20.3873 11.6721L20.4072 11.6987C20.5353 11.8308 20.607 12.0075 20.607 12.1915C20.607 12.3755 20.5353 12.5523 20.4072 12.6844C20.3413 12.7493 20.2632 12.8006 20.1774 12.8351C20.0916 12.8697 19.9998 12.8869 19.9073 12.8857C19.816 12.887 19.7253 12.87 19.6407 12.8357C19.556 12.8015 19.4791 12.7506 19.4144 12.6862C18.7733 12.0441 17.9644 11.5957 17.0802 11.3923C16.196 11.1888 15.2724 11.2386 14.4152 11.5359H14.3953L14.3683 11.5492L14.3417 11.5624C14.1793 11.6296 14.0486 11.7562 13.9763 11.9165C13.9041 12.0767 13.8957 12.2585 13.9528 12.4247C14.0031 12.5573 14.0924 12.6715 14.2089 12.7523C14.3254 12.8331 14.4636 12.8766 14.6054 12.8773H14.7187L14.7319 12.864H14.7518C15.1427 12.7129 15.5583 12.6362 15.9773 12.6379C16.7407 12.6388 17.4825 12.8915 18.0876 13.3569C18.6838 13.8152 19.1179 14.4522 19.3264 15.1747L19.3397 15.2013V15.2345L19.3662 15.3013C19.4141 15.4309 19.5002 15.543 19.6132 15.6226C19.7261 15.7023 19.8606 15.7457 19.9989 15.7472C20.06 15.7519 20.1213 15.7429 20.1785 15.7207C20.3474 15.6749 20.4928 15.5671 20.5857 15.4189C20.6786 15.2706 20.7122 15.0927 20.6797 14.9208L20.6665 14.8805C20.6189 14.7005 20.6438 14.5091 20.7359 14.3473C20.828 14.1855 20.9798 14.0662 21.1589 14.0152L21.3389 13.9953C21.6517 13.9953 21.9379 14.1948 22.0048 14.508C22.3711 15.8529 22.2702 17.2377 21.7393 18.5295C21.2241 19.7706 20.3248 20.8139 19.1733 21.5065L19.1397 21.5264H19.1291C19.1291 21.5397 19.1158 21.5397 19.1158 21.5463H19.1025C18.9777 21.628 18.8827 21.7479 18.8319 21.8882C18.7811 22.0284 18.7771 22.1813 18.8207 22.324C18.8642 22.4666 18.9529 22.5913 19.0734 22.6792C19.1938 22.7672 19.3396 22.8136 19.4888 22.8116C19.6064 22.814 19.7222 22.7815 19.8214 22.7183C22.7856 20.9871 24.2363 17.4585 23.3506 14.1558C23.3251 14.0675 23.3179 13.9749 23.3293 13.8836C23.3407 13.7923 23.3705 13.7044 23.4169 13.625C23.5118 13.4639 23.6642 13.3448 23.8434 13.2918C23.9098 13.2918 23.9633 13.2719 24.023 13.2719C24.177 13.2737 24.326 13.3269 24.4463 13.4231C24.5665 13.5193 24.6511 13.653 24.6867 13.8028C24.9975 14.9464 25.0781 16.1404 24.9238 17.3155C24.7695 18.4905 24.3833 19.6232 23.7877 20.6478H23.7881Z" fill="white"/>
</svg>
