<svg width="32" height="32" viewBox="0 0 32 32" fill="none" xmlns="http://www.w3.org/2000/svg">
<circle cx="16" cy="16" r="16" fill="#1248E8"/>
<path fill-rule="evenodd" clip-rule="evenodd" d="M18.9747 19.8826L19.2006 20.1112C19.2591 20.17 19.2933 20.2486 19.2965 20.3315C19.2996 20.4144 19.2715 20.4954 19.2177 20.5585C19.1561 20.6159 19.0745 20.6468 18.9903 20.6446C18.9062 20.6424 18.8262 20.6073 18.7677 20.5468L18.0252 19.7953C17.6903 19.9562 17.3208 20.0316 16.9497 20.0149H15.5268C14.238 20.059 13.0491 19.4173 13.1445 17.3266C13.1464 17.2638 13.1425 16.6835 13.14 16.3168C13.139 16.1636 13.1382 16.0477 13.1382 16.0225V15.1792C13.1346 13.0903 13.6458 12.1462 15.0507 11.8105C15.2082 11.7745 16.0785 11.7538 16.245 11.7538H16.3197C16.6849 11.7532 17.05 11.7722 17.4132 11.8105C18.8181 12.1462 19.3257 13.0939 19.3257 15.1792V16.0225C19.3257 16.067 19.3241 16.3691 19.3226 16.6719C19.321 16.9763 19.3194 17.2815 19.3194 17.3266C19.3751 17.7152 19.3326 18.1116 19.1956 18.4794C19.0587 18.8473 18.8317 19.175 18.5355 19.4326L18.9747 19.8826ZM15.4251 19.3507H17.0262C17.1926 19.3492 17.358 19.3262 17.5185 19.2823L17.0019 18.7594C16.9421 18.7002 16.908 18.6198 16.9068 18.5357C16.9056 18.4515 16.9375 18.3703 16.9956 18.3094C17.0568 18.2517 17.1383 18.2202 17.2224 18.2219C17.3066 18.2236 17.3867 18.2582 17.4456 18.3184L17.6715 18.547L18.0783 18.9601C18.092 18.9482 18.1045 18.9351 18.1175 18.9216C18.124 18.9147 18.1307 18.9077 18.1377 18.9007C18.3431 18.7045 18.498 18.4617 18.5895 18.1929C18.681 17.924 18.7063 17.637 18.6633 17.3563C18.657 17.2996 18.657 17.2969 18.6633 16.2808V15.1819C18.7135 14.469 18.6008 13.7541 18.3339 13.0912C18.2115 12.9166 18.0533 12.7702 17.8699 12.6615C17.6865 12.5529 17.482 12.4846 17.2701 12.4612C17.1297 12.4405 16.5303 12.4198 16.3197 12.4198H16.245C16.0344 12.4198 15.3306 12.4405 15.1938 12.4612C14.9821 12.4852 14.7778 12.5538 14.5945 12.6623C14.4111 12.7709 14.2528 12.9171 14.13 13.0912C13.8631 13.7541 13.7504 14.469 13.8006 15.1819C13.7957 15.2718 13.7957 15.362 13.8006 15.4519V17.3563C13.7566 17.6371 13.7814 17.9243 13.8729 18.1933C13.9645 18.4623 14.12 18.7051 14.3262 18.9007C14.4686 19.0473 14.6396 19.1629 14.8287 19.2403C15.0178 19.3177 15.2208 19.3553 15.4251 19.3507Z" fill="white"/>
<path fill-rule="evenodd" clip-rule="evenodd" d="M9.63603 9.63603C11.3239 7.9482 13.6131 7 16 7C18.3869 7 20.6761 7.9482 22.364 9.63603C24.0518 11.3239 25 13.6131 25 16C25 18.3869 24.0518 20.6761 22.364 22.364C20.6761 24.0518 18.3869 25 16 25C13.6131 25 11.3239 24.0518 9.63603 22.364C7.9482 20.6761 7 18.3869 7 16C7 13.6131 7.9482 11.3239 9.63603 9.63603ZM23.8147 15.6382L24.5428 15.6319V15.3259L23.8147 15.3322V15.6382ZM23.6356 14.1586L24.3556 14.0578L24.3142 13.7545L23.5942 13.8553L23.6356 14.1586ZM23.8597 12.4207L23.7346 12.1417L23.0722 12.4477L23.1973 12.724L23.8597 12.4207ZM23.0245 10.9834L22.8229 10.7548L22.2766 11.2363L22.4782 11.4649L23.0245 10.9834ZM21.9877 9.8161L21.7564 9.61719L21.2812 10.1698L21.5125 10.3687L21.9877 9.8161ZM20.7403 8.7532L20.4847 8.5867L20.0869 9.19869L20.3425 9.36519L20.7403 8.7532ZM19.3291 7.94411L19.0348 7.86671L18.8548 8.5705L19.1491 8.64789L19.3291 7.94411ZM17.746 7.5049L17.4427 7.47791L17.3833 8.206L17.6866 8.233L17.746 7.5049ZM16.1035 7.28441H15.7975V8.0125H16.1035V7.28441ZM14.5069 8.206L14.4475 7.47791L14.1442 7.5049L14.2036 8.233L14.5069 8.206ZM13.0354 8.5705L12.8554 7.86671L12.5611 7.9468L12.7411 8.64789L13.0354 8.5705ZM11.8042 9.19869L11.4091 8.5867L11.1535 8.7532L11.5486 9.36519L11.8042 9.19869ZM10.6099 10.1698L10.1347 9.61719L9.90341 9.8161L10.3786 10.3687L10.6099 10.1698ZM9.6145 11.2363L9.0682 10.7548L8.8666 10.9834L9.4129 11.4649L9.6145 11.2363ZM8.82159 12.445L8.15919 12.1417L8.03409 12.418L8.69651 12.7213L8.82159 12.445ZM8.2996 13.8625L7.57961 13.7617L7.53819 14.0614L8.25821 14.1622L8.2996 13.8625ZM8.0818 15.3367L7.3537 15.3304V15.6364L8.0818 15.6427V15.3367ZM8.1439 16.9666L7.4194 17.0404L7.44909 17.3446L8.17359 17.2699L8.1439 16.9666ZM8.4589 18.4246L7.7488 18.5911L7.81719 18.8881L8.52729 18.7216L8.4589 18.4246ZM8.3932 20.1769L8.5444 20.4415L9.17439 20.0815L9.02319 19.8169L8.3932 20.1769ZM9.35171 21.5287L9.57489 21.7393L10.0771 21.211L9.85389 21.0004L9.35171 21.5287ZM10.4956 22.5961L10.7449 22.7761L11.167 22.1821L10.9177 22.0021L10.4956 22.5961ZM11.8357 23.5429L12.1057 23.6851L12.4441 23.0407L12.1741 22.8985L11.8357 23.5429ZM13.3153 24.2143L13.615 24.2647L13.7338 23.5447L13.4341 23.4943L13.3153 24.2143ZM14.9245 23.7832L14.9308 24.5113H15.2368L15.2305 23.7832H14.9245ZM10.6453 10.6453C9.22498 12.0657 8.42575 13.9913 8.42289 16C8.42575 18.0087 9.22498 19.9343 10.6453 21.3547C12.0657 22.775 13.9913 23.5742 16 23.5771C18.0088 23.5747 19.9347 22.7756 21.3552 21.3552C22.7756 19.9347 23.5747 18.0088 23.5771 16C23.5747 13.9912 22.7756 12.0653 21.3552 10.6448C19.9347 9.22436 18.0088 8.42528 16 8.42289C13.9913 8.42575 12.0657 9.22498 10.6453 10.6453ZM16.585 24.5752H16.594L16.8973 24.5482L16.8316 23.8237H16.8226L16.5193 23.8507L16.585 24.5752ZM18.0907 23.5132L18.2185 24.2332L18.5182 24.1801L18.3904 23.4601L18.0907 23.5132ZM19.5163 23.0128L19.7656 23.6986L20.0536 23.5942L19.8043 22.9084L19.5163 23.0128ZM20.6935 22.282L21.1435 22.8553L21.3838 22.6654L20.9338 22.0921L20.6935 22.282ZM21.7906 21.2065L22.3135 21.7114L22.5241 21.4918L22.0012 20.9869L21.7906 21.2065ZM22.6852 20.0545L23.2729 20.482L23.4529 20.2354L22.8652 19.8079L22.6852 20.0545ZM23.362 18.7747L24.0514 19.015L24.1522 18.727L23.4628 18.4867L23.362 18.7747ZM23.7544 17.3248L24.4825 17.3572L24.4969 17.0512L23.7688 17.0188L23.7544 17.3248Z" fill="white"/>
</svg>
