<svg width="32" height="32" viewBox="0 0 32 32" fill="none" xmlns="http://www.w3.org/2000/svg">
<circle cx="16" cy="16" r="16" fill="black"/>
<path d="M24.8784 10.7046C24.5106 9.90203 23.3484 9.55093 21.7267 9.62617C21.9814 9.67558 22.2222 9.78064 22.4316 9.93382C22.6414 10.087 22.8145 10.2845 22.939 10.5123C23.666 12.1341 20.9409 14.9765 16.836 16.8993C12.7312 18.822 8.8023 18.9892 8.05815 17.3758C7.97488 17.1772 7.93202 16.9641 7.93202 16.7488C7.93202 16.5335 7.97488 16.3204 8.05815 16.1218C7.15522 17.1919 6.78743 18.17 7.12175 18.8973C7.95773 20.6529 12.5642 20.2432 17.463 17.9777C22.3618 15.7122 25.689 12.4602 24.8784 10.7046Z" fill="white"/>
<path d="M10.7 17.6182C11.3009 17.6099 11.8993 17.5484 12.4891 17.4343C12.4091 17.3079 12.3499 17.1696 12.3136 17.0247C12.2565 16.7497 12.2287 16.4695 12.2299 16.1887V14.3913C12.2295 14.2511 12.2361 14.1111 12.2499 13.9717C12.2638 13.832 12.285 13.693 12.3136 13.5553C12.3561 13.3596 12.4479 13.1782 12.581 13.0286C12.7198 12.8853 12.8924 12.779 13.0827 12.7193C13.2116 12.6918 13.3415 12.671 13.4725 12.657C13.6207 12.6412 13.7697 12.634 13.9186 12.6357H17.9231C18.0851 12.634 18.2468 12.6426 18.4076 12.6614C18.5256 12.6752 18.6427 12.6945 18.7591 12.7193C18.9436 12.7649 19.1134 12.857 19.2522 12.9868C19.3852 13.1364 19.4775 13.3178 19.5199 13.5135C19.5444 13.6284 19.5632 13.7443 19.5771 13.8608C19.5934 14.0007 19.6024 14.1415 19.6032 14.2826C20.1339 13.9013 20.629 13.4732 21.0829 13.0035C21.2666 12.8125 21.4397 12.6116 21.6013 12.4016C21.4715 12.0264 21.2568 11.686 20.9743 11.4068C20.6298 11.0953 20.2135 10.8741 19.7624 10.7631C19.182 10.6256 18.5864 10.561 17.99 10.5708H13.8101C13.2243 10.5663 12.6402 10.6337 12.0711 10.7715C11.6225 10.8825 11.2086 11.1037 10.8674 11.4152C10.5396 11.728 10.3028 12.1238 10.1816 12.5605C10.0261 13.1038 9.9526 13.6674 9.96444 14.2325V16.3141C9.96076 16.7405 9.99995 17.1662 10.0816 17.5848C10.1918 17.5981 10.302 17.6076 10.4126 17.613C10.5082 17.6177 10.6041 17.6194 10.7 17.6182Z" fill="white"/>
<path d="M16.7944 19.9673H14.6461C15.7364 19.6276 16.803 19.2171 17.8394 18.7384C19.2579 18.0897 20.6147 17.3147 21.894 16.4227C21.934 17.2756 21.7156 18.1206 21.267 18.8471C21.0225 19.1406 20.7225 19.3826 20.3837 19.5591C20.0449 19.7356 19.6746 19.8432 19.2942 19.8754L20.7486 21.8901C20.7756 21.9287 20.7935 21.9724 20.8025 22.0185C20.8111 22.0646 20.8098 22.112 20.7988 22.1576C20.7907 22.2245 20.7404 22.3833 20.4898 22.3833H18.7676C18.6668 22.387 18.5664 22.367 18.475 22.3248C18.4162 22.2844 18.3627 22.2366 18.3162 22.1827L16.7944 19.9673Z" fill="white"/>
</svg>
