<svg width="32" height="32" viewBox="0 0 32 32" fill="none" xmlns="http://www.w3.org/2000/svg">
<circle cx="16" cy="16" r="16" fill="#1F6FAE"/>
<path fill-rule="evenodd" clip-rule="evenodd" d="M7.85473 9.11108C7.38265 9.11108 7 9.49378 7 9.96586V22.0342C7 22.5062 7.38265 22.8889 7.85473 22.8889C8.18162 22.8889 8.46578 22.7054 8.60955 22.4358L12.9262 16.8728L15.5314 20.1375C15.6344 20.2665 15.7799 20.3416 15.9319 20.3587C15.9943 20.3657 16.0578 20.3629 16.1199 20.3501C16.2534 20.3235 16.3786 20.2522 16.4701 20.1375L19.0748 16.8728L23.3907 22.4358C23.5345 22.7054 23.8186 22.8889 24.1455 22.8889C24.6174 22.8889 25 22.5062 25 22.0342V9.96586C25 9.49378 24.6174 9.11108 24.1455 9.11108C23.8495 9.11108 23.5888 9.26146 23.4354 9.49001L19.0879 14.9392L16.6818 11.8378C16.3061 11.3198 15.6955 11.3681 15.3198 11.8378L12.9131 14.9392L8.56493 9.49001C8.41153 9.26146 8.15068 9.11108 7.85473 9.11108ZM16.3061 13.304C16.1514 13.1046 15.8502 13.1046 15.6955 13.304L13.6805 15.9008L15.6987 18.4301C15.8534 18.624 16.1482 18.624 16.3028 18.4301L18.3207 15.9008L16.3061 13.304ZM8.70956 11.5883L12.1589 15.9111L8.70956 20.3564V11.5883ZM23.2907 11.5883L19.842 15.9111L23.2907 20.3564V11.5883Z" fill="white"/>
</svg>
