<svg width="32" height="32" viewBox="0 0 32 32" fill="none" xmlns="http://www.w3.org/2000/svg">
<circle cx="16" cy="16" r="16" fill="#040000"/>
<path fill-rule="evenodd" clip-rule="evenodd" d="M18.143 7.56593L22.8134 10.4832C23.8399 11.0721 24.0406 12.3909 23.0352 13.015L19.231 15.315C18.9316 15.5005 18.7088 15.7866 18.5355 16.0926L16.4601 19.6095C16.4169 19.6859 16.3541 19.7494 16.2781 19.7936C16.2022 19.8377 16.116 19.8608 16.0281 19.8606C15.9403 19.8604 15.8542 19.8368 15.7785 19.7922C15.7028 19.7477 15.6404 19.6839 15.5975 19.6072L13.8327 16.6026C13.7943 16.534 13.753 16.4551 13.7087 16.3707C13.517 16.0051 13.2715 15.5367 12.9826 15.3561L8.88043 12.8791C8.0018 12.3297 8.02055 11.225 8.90311 10.6816L13.7819 7.63352C14.4355 7.23109 15.1856 7.01241 15.9531 7.00051C16.7207 6.98862 17.4772 7.18395 18.143 7.56593ZM18.2748 14.3269L21.4633 12.3472C22.2015 11.8889 22.1788 10.9722 21.4252 10.5399L17.6014 8.18041C17.1126 7.89999 16.5572 7.75659 15.9937 7.76531C15.4303 7.77404 14.8796 7.93457 14.3997 8.23L10.5373 10.6082C9.88924 11.0071 9.88591 11.9479 10.5309 12.3514L13.8032 14.399C14.0641 14.5622 14.2796 14.7887 14.4298 15.0573L15.7118 17.4371C15.7432 17.4934 15.789 17.5404 15.8446 17.5732C15.9001 17.6059 15.9634 17.6233 16.0279 17.6235C16.0925 17.6236 16.1558 17.6066 16.2116 17.5741C16.2673 17.5417 16.3134 17.4949 16.345 17.4387L17.7467 14.8775C17.8739 14.6527 18.0555 14.4633 18.2748 14.3269Z" fill="white"/>
<path d="M8.13818 20.3616V14.2228C8.1383 14.0877 8.19209 13.958 8.28772 13.8625C8.38335 13.767 8.513 13.7133 8.64818 13.7133C8.78334 13.7133 8.91295 13.767 9.00855 13.8626C9.10415 13.9581 9.15791 14.0877 9.15803 14.2228V19.6825C9.15804 19.7369 9.1723 19.7902 9.19939 19.8373C9.22648 19.8844 9.26545 19.9236 9.31241 19.9509L15.6749 23.6856C15.7778 23.7456 15.8948 23.7772 16.014 23.7772C16.1331 23.7772 16.2501 23.7456 16.3531 23.6856L22.6028 20.0075C22.6496 19.9801 22.6885 19.9409 22.7155 19.8939C22.7425 19.8468 22.7567 19.7935 22.7567 19.7392V14.2658C22.7567 14.1192 22.8149 13.9787 22.9185 13.8751C23.0221 13.7715 23.1627 13.7133 23.3092 13.7133C23.4556 13.7133 23.5961 13.7714 23.6997 13.8749C23.8033 13.9785 23.8616 14.1189 23.8617 14.2653V20.361C23.8617 20.472 23.8024 20.5746 23.7062 20.6584L16.2956 24.9348C16.0865 25.0269 15.8287 25.0255 15.6202 24.9045L8.29241 20.63C8.24547 20.6026 8.20652 20.5635 8.17946 20.5164C8.15239 20.4693 8.13816 20.4159 8.13818 20.3616Z" fill="white"/>
</svg>
