<svg width="32" height="32" viewBox="0 0 32 32" fill="none" xmlns="http://www.w3.org/2000/svg">
<circle cx="16" cy="16" r="16" fill="#192133"/>
<path fill-rule="evenodd" clip-rule="evenodd" d="M24.0943 12.8471C24.0916 12.488 24.0127 12.1335 23.8629 11.8071C23.6306 11.293 23.2732 10.8122 22.7861 10.5232C20.9583 9.44991 19.1286 8.38564 17.3017 7.31326C17.0929 7.19081 16.8569 7.12238 16.6255 7.05755C16.1058 6.95777 15.5694 6.98808 15.0643 7.14579C14.7644 7.24844 14.5024 7.43572 14.2269 7.58879C12.5467 8.57022 10.8684 9.55165 9.18916 10.5295C8.9694 10.6641 8.77472 10.836 8.61381 11.0373C8.21764 11.5145 7.93851 12.1106 7.9043 12.7409V19.2111C7.9043 19.6442 8.04836 20.0602 8.24645 20.4384C8.48956 20.8741 8.8191 21.2793 9.2603 21.5251C11.0665 22.5786 12.8736 23.6348 14.6807 24.6873C14.9463 24.8404 15.2416 24.9295 15.5451 24.9701C16.1267 25.0421 16.7462 24.9944 17.2702 24.7143C18.9864 23.7131 20.698 22.711 22.4151 21.7124C22.6672 21.5621 22.9328 21.4297 23.1453 21.2262C23.5971 20.7992 23.9112 20.2471 24.0475 19.6406C24.1078 19.3795 24.0943 19.1067 24.0943 18.8402V12.8471ZM15.9457 10.6177C15.9744 10.6274 16.0006 10.6431 16.0226 10.6637C16.0447 10.6844 16.0621 10.7095 16.0736 10.7375C16.3995 11.3443 16.8569 11.8684 17.3351 12.3591C17.6448 12.6625 17.8735 13.0578 17.9509 13.49C18.0527 13.9708 17.77 14.5029 17.3153 14.6767C16.9821 14.8064 16.5949 14.7821 16.2753 14.6254C16.215 14.6047 16.1132 14.5336 16.0772 14.6182C16.1375 15.0342 16.35 15.3979 16.5418 15.759C16.5886 15.8373 16.4986 15.8923 16.4545 15.9427C16.2564 16.1264 16.088 16.3452 15.8728 16.5117C15.8089 16.491 15.7648 16.4298 15.7179 16.3857C15.5334 16.1912 15.338 16.0039 15.1534 15.8058C15.1498 15.7923 15.1462 15.7581 15.1435 15.7446C15.3488 15.3763 15.6081 15.0153 15.6747 14.5894C15.6084 14.5797 15.5406 14.589 15.4793 14.6164C15.1399 14.7496 14.7518 14.7803 14.4097 14.6434C14.2402 14.5773 14.0916 14.4667 13.9796 14.3233C13.8676 14.1799 13.7962 14.009 13.7731 13.8285C13.7389 13.5593 13.8199 13.291 13.9406 13.0542C14.0909 12.7211 14.3439 12.4518 14.6069 12.2024C15.109 11.724 15.5579 11.1927 15.9457 10.6177ZM12.6746 16.4793C12.9303 16.3267 13.2184 16.2366 13.5155 16.2163C13.8126 16.1959 14.1103 16.2459 14.3845 16.3623C14.4277 16.3803 14.4385 16.3893 14.4718 16.4109C14.6465 16.4793 14.7977 16.591 14.9391 16.717C15.2587 16.9934 15.5172 17.3338 15.844 17.603C16.1609 17.3032 16.4527 16.9754 16.7732 16.6837C17.2234 16.2677 17.8834 16.1453 18.4678 16.2641C19.3835 16.4442 20.0633 17.3914 19.9984 18.3296C19.9687 18.9221 19.6734 19.5082 19.1881 19.8459C18.8585 20.0746 18.4678 20.2376 18.0635 20.2277C17.5322 20.2484 17.0109 20.0098 16.6345 19.6379C15.9241 18.9266 15.2389 18.1901 14.5249 17.4806C14.316 17.2555 14.0333 17.0916 13.7236 17.0718C13.502 17.0651 13.2824 17.1146 13.0852 17.2158C12.779 17.3788 12.5738 17.7057 12.5233 18.0505C12.4603 18.4152 12.5909 18.8095 12.8628 19.0589C13.2833 19.465 14.0207 19.4614 14.4304 19.0454C14.5348 18.9572 14.6321 18.7798 14.7941 18.851C14.895 18.9122 14.9652 19.0148 15.0535 19.0941C15.121 19.1715 15.2245 19.2363 15.2344 19.3525C15.2344 19.4695 15.1309 19.5362 15.0598 19.6118C14.8707 19.8099 14.6528 19.9765 14.3971 20.0791C13.9018 20.2736 13.331 20.2772 12.8394 20.0656C12.0614 19.7144 11.5608 18.8176 11.6851 17.9587C11.7733 17.3482 12.1326 16.7728 12.6746 16.4793ZM17.2099 17.4265C16.9614 17.6858 16.7057 17.9344 16.4563 18.1937C16.4599 18.2108 16.4635 18.2477 16.4662 18.2684C16.766 18.5475 17.028 18.8645 17.3405 19.1301C17.7609 19.4884 18.4308 19.4407 18.8207 19.0616C19.2016 18.6907 19.2889 18.0433 18.9918 17.594C18.8963 17.4426 18.7651 17.317 18.6096 17.2283C18.4542 17.1396 18.2793 17.0905 18.1004 17.0853C17.7727 17.0583 17.4431 17.1942 17.2099 17.4274V17.4265Z" fill="white"/>
</svg>
