<svg width="32" height="32" viewBox="0 0 32 32" fill="none" xmlns="http://www.w3.org/2000/svg">
<circle cx="16" cy="16" r="16" fill="#234858"/>
<path d="M16.4221 7.17483L18.4451 9.19782C18.5694 9.32215 18.5694 9.52371 18.4451 9.64804L16.2251 11.868C16.1008 11.9923 15.8992 11.9923 15.7749 11.868L13.5549 9.64804C13.4306 9.52371 13.4306 9.32215 13.5549 9.19782L15.5779 7.17483C15.811 6.94172 16.189 6.94172 16.4221 7.17483Z" fill="white"/>
<path d="M12.9366 10.2664L15.1565 12.4864C15.2809 12.6107 15.2809 12.8122 15.1565 12.9366L9.64804 18.4451C9.52371 18.5694 9.32215 18.5694 9.19782 18.4451L7.17483 16.4221C6.94172 16.189 6.94172 15.811 7.17483 15.5779L12.4864 10.2664C12.6107 10.1421 12.8122 10.1421 12.9366 10.2664Z" fill="white"/>
<path d="M24.8252 15.5779L22.8022 13.5549C22.6779 13.4306 22.4763 13.4306 22.352 13.5549L16.8435 19.0634C16.7191 19.1877 16.7191 19.3893 16.8435 19.5136L19.0634 21.7336C19.1878 21.8579 19.3893 21.8579 19.5136 21.7336L24.8252 16.4221C25.0583 16.189 25.0583 15.811 24.8252 15.5779Z" fill="white"/>
<path d="M16.2251 20.1353L18.4451 22.3552C18.5694 22.4795 18.5694 22.6811 18.4451 22.8054L16.4221 24.8284C16.189 25.0615 15.811 25.0615 15.5779 24.8284L13.5549 22.8054C13.4306 22.6811 13.4306 22.4795 13.5549 22.3552L15.7749 20.1353C15.8992 20.0109 16.1008 20.0109 16.2251 20.1353Z" fill="white"/>
<path d="M21.7336 12.4864L19.5136 10.2664C19.3893 10.1421 19.1878 10.1421 19.0634 10.2664L16.8435 12.4864C16.7191 12.6107 16.7191 12.8122 16.8435 12.9366L19.0634 15.1565C19.1878 15.2809 19.3893 15.2809 19.5136 15.1565L21.7336 12.9366C21.8579 12.8122 21.8579 12.6107 21.7336 12.4864Z" fill="white"/>
<path d="M18.4451 15.758C18.5694 15.8823 18.5694 16.0839 18.4451 16.2082L16.2251 18.4282C16.1008 18.5525 15.8992 18.5525 15.7749 18.4282L13.5549 16.2082C13.4306 16.0839 13.4306 15.8823 13.5549 15.758L15.7749 13.538C15.8992 13.4137 16.1008 13.4137 16.2251 13.538L18.4451 15.758Z" fill="white"/>
<path d="M15.1565 19.0634L12.9366 16.8435C12.8122 16.7191 12.6107 16.7191 12.4864 16.8435L10.2664 19.0634C10.1421 19.1877 10.1421 19.3893 10.2664 19.5136L12.4864 21.7336C12.6107 21.8579 12.8122 21.8579 12.9366 21.7336L15.1565 19.5136C15.2809 19.3893 15.2809 19.1877 15.1565 19.0634Z" fill="white"/>
</svg>
