<svg width="32" height="32" viewBox="0 0 32 32" fill="none" xmlns="http://www.w3.org/2000/svg">
<circle cx="16" cy="16" r="16" fill="#365FB4"/>
<path d="M18.2832 8.96807C18.2832 9.97217 17.4692 10.7861 16.4651 10.7861C15.461 10.7861 14.647 9.97217 14.647 8.96807C14.647 7.96398 15.461 7.14999 16.4651 7.14999C17.4692 7.14999 18.2832 7.96398 18.2832 8.96807Z" fill="white"/>
<path d="M25.002 15.9731C25.002 18.0558 23.3135 19.7442 21.2308 19.7442C19.148 19.7442 17.4596 18.0558 17.4596 15.9731C17.4596 13.8903 19.148 12.2019 21.2308 12.2019C23.3135 12.2019 25.002 13.8903 25.002 15.9731Z" fill="white"/>
<path d="M16.4651 24.8043C17.4692 24.8043 18.2832 23.9903 18.2832 22.9862C18.2832 21.9821 17.4692 21.1681 16.4651 21.1681C15.461 21.1681 14.647 21.9821 14.647 22.9862C14.647 23.9903 15.461 24.8043 16.4651 24.8043Z" fill="white"/>
<path d="M15.9727 18.7533C15.8572 18.7536 15.7423 18.7354 15.6325 18.6993C15.6325 18.6993 13.6884 18.0153 12.3843 21.016C12.3333 21.1827 12.2674 21.3445 12.1872 21.4993V21.5083C11.9576 21.9546 11.6092 22.3289 11.1803 22.5897C10.7515 22.8505 10.259 22.9877 9.75705 22.9862C9.33409 22.9873 8.91661 22.8905 8.53725 22.7035C8.15789 22.5165 7.82692 22.2442 7.57024 21.9081C7.31355 21.5719 7.1381 21.1809 7.0576 20.7657C6.97711 20.3505 6.99374 19.9223 7.10621 19.5145C7.21868 19.1068 7.42394 18.7306 7.70593 18.4154C7.98792 18.1001 8.33901 17.8544 8.73174 17.6974C9.12447 17.5403 9.5482 17.4763 9.9698 17.5102C10.3914 17.5441 10.7994 17.6751 11.162 17.8929C11.162 17.8929 13.6794 19.3707 14.9332 17.1584C14.9511 17.1034 14.9785 17.0519 15.0142 17.0063V16.9973C15.1213 16.8319 15.2696 16.6971 15.4444 16.6062C15.6193 16.5153 15.8148 16.4714 16.0117 16.4788C16.2087 16.4862 16.4003 16.5446 16.5679 16.6483C16.7355 16.7521 16.8732 16.8976 16.9677 17.0706C17.0621 17.2436 17.11 17.4381 17.1066 17.6352C17.1032 17.8322 17.0487 18.025 16.9484 18.1947C16.8481 18.3643 16.7054 18.505 16.5344 18.6029C16.3633 18.7009 16.1698 18.7527 15.9727 18.7533Z" fill="white"/>
<path d="M15.1933 14.956C15.1119 14.8734 15.0426 14.7798 14.9872 14.6779V14.6743C14.9872 14.6743 14.1006 12.8112 11.0594 14.011C10.9033 14.091 10.7418 14.1598 10.5761 14.2171H10.5671C10.0447 14.3837 9.48422 14.3894 8.95852 14.2334C8.43282 14.0775 7.96616 13.767 7.61914 13.3425C7.27213 12.9179 7.06078 12.3988 7.01255 11.8525C6.96432 11.3063 7.08144 10.7582 7.34869 10.2794C7.61595 9.8006 8.02099 9.4132 8.51122 9.16752C9.00146 8.92185 9.55423 8.82925 10.0978 8.90174C10.6413 8.97424 11.1505 9.20848 11.5592 9.57405C11.9679 9.93962 12.2572 10.4196 12.3897 10.9518C12.3897 10.9518 13.1241 13.7824 15.5785 13.102C15.6323 13.0759 15.6896 13.0577 15.7486 13.0479H15.7576C15.95 13.0063 16.1499 13.0155 16.3377 13.0746C16.5255 13.1337 16.6947 13.2406 16.8286 13.3849C16.9625 13.5292 17.0566 13.7058 17.1015 13.8975C17.1464 14.0892 17.1407 14.2892 17.0849 14.478C17.029 14.6668 16.925 14.8377 16.7831 14.9741C16.6411 15.1105 16.4661 15.2076 16.2753 15.2558C16.0844 15.3041 15.8843 15.3018 15.6946 15.2492C15.5049 15.1967 15.3321 15.0956 15.1933 14.956Z" fill="white"/>
</svg>
