<svg width="32" height="32" viewBox="0 0 32 32" fill="none" xmlns="http://www.w3.org/2000/svg">
<circle cx="16" cy="16" r="16" fill="#2C0049"/>
<path fill-rule="evenodd" clip-rule="evenodd" d="M23.4866 11.3323C23.4689 11.3223 23.4514 11.3119 23.4342 11.3012L23.4326 11.3004L23.4309 11.2995L21.2488 10.0297L19.862 9.22218L18.4417 8.39582C17.6807 7.954 16.8953 7.49582 16.1205 7.04664L16.0419 7L15.9577 7.03273C15.8828 7.06097 15.8103 7.09517 15.7408 7.135L15.7327 7.13991L12.4845 9.06673L11.0625 9.90945C10.2042 10.4184 9.31648 10.9445 8.44921 11.4624C8.23648 11.5646 8.24221 11.7913 8.24466 11.9009L8.24548 11.9271V11.9762C8.24221 13.966 8.23975 16.0237 8.23484 18.0495L8.2283 20.3012C8.21684 20.4681 8.29375 20.6145 8.42302 20.6775C9.97102 21.5677 11.5419 22.4743 13.0605 23.3505L15.7948 24.928C15.8611 24.9724 15.9385 24.9974 16.0182 25C16.0815 25.0002 16.143 24.9795 16.1933 24.9411L20.1574 22.6273L21.6465 21.7584C22.2634 21.3975 22.9024 21.0236 23.5283 20.6595C23.6019 20.6268 23.6636 20.5722 23.7049 20.503C23.7462 20.4339 23.7651 20.3537 23.759 20.2734L23.7713 11.7504C23.7926 11.4967 23.579 11.3822 23.4858 11.3331L23.4866 11.3323ZM16.3119 24.1532L16.3168 20.518L17.6619 19.7366C18.0342 19.519 18.4147 19.2981 18.7828 19.0845L19.8007 18.4922L19.8015 18.4914L19.8228 18.4775C19.8817 18.4454 19.933 18.401 19.9733 18.3474L20.0101 18.2966V18.2345C20.0036 17.4572 20.0019 16.5932 20.0044 15.514L20.0052 15.0133V14.0609L23.1552 12.2184L23.1503 15.3806L23.1429 20.1662C21.6732 21.0224 20.204 21.8796 18.7354 22.7377L16.3119 24.1532ZM12.8788 13.8809L16.0059 12.0449L19.1011 13.8711L16.0108 15.6776L14.9439 15.0648C14.2561 14.6693 13.5677 14.2747 12.8788 13.8809ZM12.5598 14.4127L15.7057 16.2168L15.7008 19.8005L12.6178 18.0037L12.5598 14.4127ZM8.86157 12.2904L11.9379 14.0576L12.005 18.1142C11.9968 18.2737 12.0754 18.4194 12.2022 18.4791C12.6399 18.7352 13.0858 18.9945 13.517 19.2449L14.3581 19.735L15.6999 20.5164L15.6975 24.1573L8.84602 20.2055L8.86157 12.2904ZM22.8476 11.68L19.7139 13.5111L16.2162 11.4485C16.1566 11.4066 16.0858 11.3834 16.0129 11.382C15.94 11.3805 15.8684 11.4008 15.8071 11.4403L12.2619 13.5209L9.16921 11.7504L11.3178 10.4765C12.7578 9.62145 14.2935 8.71164 16.0108 7.69709C17.5572 8.602 19.0545 9.47255 20.3177 10.2056C20.7596 10.4642 21.2096 10.726 21.6448 10.9788L22.8468 11.6792L22.8476 11.68ZM16.3168 19.8021L16.3193 16.2168L19.4194 14.4054V17.9988C18.3845 18.5987 17.3503 19.1998 16.3168 19.8021ZM20.5117 19.1533C20.5663 19.1403 20.6169 19.1143 20.6594 19.0775C20.7018 19.0408 20.7348 18.9944 20.7555 18.9422C20.7857 18.8746 20.7957 18.7997 20.7844 18.7266C20.773 18.6534 20.7409 18.5851 20.6917 18.5298L20.6908 18.5282C20.6572 18.4895 20.6157 18.4584 20.5692 18.4368C20.5227 18.4152 20.4721 18.4037 20.4208 18.403C20.3346 18.4042 20.2515 18.4356 20.1862 18.4919C20.1208 18.5481 20.0773 18.6255 20.0633 18.7106C20.05 18.776 20.054 18.8437 20.075 18.907C20.0959 18.9703 20.1331 19.027 20.1827 19.0715C20.2133 19.1024 20.2498 19.1268 20.29 19.1432C20.3302 19.1597 20.3733 19.1678 20.4167 19.1672C20.4489 19.1673 20.4809 19.1626 20.5117 19.1533ZM22.2004 20.3053C22.2488 20.348 22.3087 20.3757 22.3726 20.385C22.4365 20.3943 22.5018 20.3848 22.5604 20.3576C22.6209 20.3323 22.6737 20.2914 22.7134 20.2391C22.753 20.1868 22.7782 20.125 22.7862 20.0598C22.7976 19.9882 22.7881 19.9148 22.7588 19.8485C22.7294 19.7821 22.6816 19.7257 22.6209 19.6859C22.5626 19.6451 22.4933 19.6231 22.4221 19.6229C22.3579 19.623 22.2951 19.6418 22.2413 19.6769C22.1879 19.7099 22.1434 19.7555 22.1117 19.8097C22.0801 19.8639 22.0622 19.9251 22.0597 19.9878C22.0552 20.0482 22.0657 20.1088 22.0902 20.1642C22.1148 20.2196 22.1526 20.268 22.2004 20.3053ZM11.4094 18.4071C11.3239 18.4088 11.2417 18.4397 11.1762 18.4946C11.1107 18.5495 11.066 18.6252 11.0494 18.709C11.0372 18.7625 11.037 18.8181 11.0487 18.8717C11.0604 18.9253 11.0839 18.9757 11.1173 19.0192C11.1508 19.0627 11.1934 19.0983 11.2422 19.1235C11.291 19.1486 11.3447 19.1627 11.3996 19.1647C11.4274 19.1647 11.4568 19.1606 11.483 19.1541C11.5399 19.1418 11.5929 19.1159 11.6376 19.0788C11.6823 19.0416 11.7174 18.9942 11.7399 18.9405C11.7699 18.8741 11.7798 18.8003 11.7687 18.7283C11.7575 18.6562 11.7256 18.589 11.6769 18.5347C11.6444 18.4951 11.6036 18.4632 11.5574 18.4411C11.5111 18.4191 11.4606 18.4074 11.4094 18.4071ZM21.1916 19.6965C21.2405 19.7361 21.299 19.7622 21.3611 19.7722C21.4232 19.7823 21.4869 19.7759 21.5458 19.7538C21.6047 19.7326 21.6569 19.6964 21.6974 19.6487C21.7378 19.6011 21.7651 19.5437 21.7766 19.4822C21.7928 19.4164 21.7909 19.3474 21.7708 19.2827C21.7508 19.2179 21.7134 19.1599 21.6628 19.1148C21.5967 19.0516 21.5089 19.0161 21.4174 19.0158C21.3299 19.019 21.2462 19.0526 21.1808 19.1108C21.1153 19.1691 21.0723 19.2483 21.059 19.3349C21.0474 19.4015 21.0535 19.47 21.0768 19.5335C21.1 19.597 21.1396 19.6532 21.1916 19.6965ZM10.6329 19.105C10.5703 19.0477 10.4887 19.0157 10.4038 19.015C10.3605 19.0152 10.3177 19.0241 10.2778 19.0412C10.2118 19.0661 10.1544 19.1095 10.1124 19.1663C10.0705 19.223 10.0458 19.2907 10.0414 19.3611C10.0283 19.5125 10.0987 19.6556 10.2189 19.726C10.2733 19.7604 10.3362 19.7791 10.4006 19.78C10.4544 19.7794 10.5074 19.7671 10.556 19.744C10.6109 19.7196 10.6595 19.6818 10.6958 19.634C10.7321 19.5862 10.7558 19.5301 10.7647 19.4707C10.7776 19.4036 10.7722 19.3341 10.749 19.2698C10.7258 19.2054 10.6857 19.1485 10.6329 19.105ZM15.9593 7.95482C15.939 7.95495 15.9187 7.95687 15.8988 7.96055C15.8368 7.96893 15.778 7.99273 15.7277 8.02975C15.6774 8.06678 15.6372 8.11584 15.6108 8.17245V8.17409C15.5828 8.23109 15.5701 8.29434 15.5738 8.35771C15.5776 8.42107 15.5976 8.48239 15.632 8.53573C15.6729 8.5992 15.7318 8.64896 15.8012 8.67857C15.8707 8.70818 15.9474 8.71628 16.0215 8.70182H16.0231L16.0256 8.701C16.0976 8.69084 16.1648 8.65903 16.2182 8.60978C16.2717 8.56053 16.309 8.49618 16.325 8.42527C16.3413 8.36531 16.3418 8.30215 16.3265 8.24193C16.3112 8.18171 16.2805 8.12649 16.2375 8.08164C16.2027 8.04205 16.1599 8.01028 16.112 7.98842C16.064 7.96657 16.012 7.95511 15.9593 7.95482ZM9.5783 19.6736C9.52497 19.6414 9.46386 19.6244 9.40157 19.6244C9.33928 19.6244 9.27817 19.6414 9.22484 19.6736C9.16635 19.7077 9.118 19.7567 9.08477 19.8157C9.05155 19.8747 9.03466 19.9414 9.03584 20.0091C9.03584 20.1515 9.11111 20.2815 9.22893 20.3429C9.27802 20.3715 9.3353 20.3871 9.39584 20.3871C9.46681 20.3864 9.5361 20.3654 9.59548 20.3265C9.65134 20.2913 9.69678 20.2418 9.72713 20.1831C9.75747 20.1244 9.77162 20.0587 9.76811 19.9927C9.76792 19.9274 9.75021 19.8634 9.71682 19.8072C9.68343 19.7511 9.63559 19.705 9.5783 19.6736ZM16.1565 10.4405C16.0933 10.3996 16.0198 10.3777 15.9446 10.3775C15.8797 10.3772 15.8159 10.3942 15.7597 10.4265C15.7048 10.4557 15.6585 10.4985 15.6251 10.5508C15.5917 10.6031 15.5724 10.6632 15.569 10.7252C15.5631 10.7875 15.5734 10.8504 15.5989 10.9076C15.6244 10.9648 15.6643 11.0144 15.7147 11.0516C15.7801 11.1032 15.8595 11.1302 15.947 11.1302C16.0029 11.1297 16.0581 11.1174 16.109 11.0942C16.1714 11.0682 16.2261 11.0254 16.2654 10.9705C16.3048 10.9155 16.328 10.8507 16.3324 10.7833C16.337 10.7154 16.3231 10.6476 16.2921 10.5871C16.2611 10.5265 16.2142 10.4764 16.1565 10.4405ZM15.6901 9.82027C15.7597 9.88573 15.8472 9.92009 15.9438 9.92009C16.0002 9.91977 16.056 9.90751 16.1074 9.88409C16.1736 9.85627 16.2301 9.80968 16.2701 9.75006C16.3101 9.69044 16.3318 9.62042 16.3324 9.54864C16.3345 9.48043 16.3175 9.41299 16.2834 9.35388C16.2493 9.29478 16.1994 9.24634 16.1393 9.214C16.0806 9.18185 16.0148 9.16497 15.9478 9.16491C15.8769 9.16426 15.8074 9.18477 15.7482 9.22382C15.6981 9.25464 15.6559 9.29672 15.625 9.34672C15.594 9.39672 15.5751 9.45325 15.5698 9.51182V9.51427C15.5644 9.57122 15.5725 9.62865 15.5936 9.68184C15.6146 9.73504 15.648 9.78248 15.6909 9.82027H15.6901Z" fill="white"/>
</svg>
