<svg width="32" height="32" viewBox="0 0 32 32" fill="none" xmlns="http://www.w3.org/2000/svg">
<circle cx="16" cy="16" r="16" fill="#7567CD"/>
<path d="M22.3128 9C19.2908 9 16.2699 9 13.2609 9.006C12.4309 9.088 11.5889 9.126 10.7659 9.303C8.44798 9.79399 7.39499 10.903 7.119 13.1599C7.072 13.5129 7.039 13.8719 7 14.2309V17.8669C7.06 18.3269 7.105 18.7939 7.184 19.2539C7.53399 21.2458 8.56698 22.2538 10.641 22.6638C11.5229 22.8338 12.4179 22.9408 13.3139 22.9598C16.2239 23.0168 19.1338 23.0098 22.0438 22.9598C22.7408 22.9528 23.4458 22.9028 24.1168 22.6948C24.9008 22.4548 25.2498 21.5228 24.8018 20.8548C24.5718 20.5078 24.2018 20.4578 23.8078 20.4578C20.7068 20.4578 17.6129 20.4638 14.5119 20.4448C13.6229 20.4388 12.7339 20.3878 11.8719 20.1549C11.0949 19.9469 10.614 19.4809 10.417 18.7309C10.312 18.3279 10.285 17.9179 10.252 17.5009C10.212 17.0479 10.206 17.0479 10.687 17.0479H23.6768C23.8598 17.0479 24.0508 17.0419 24.2358 17.0099C24.6758 16.9279 24.9338 16.7019 24.9598 16.2919C24.9928 15.7819 25.1378 15.2269 24.5578 14.8739C24.3837 14.7732 24.1858 14.7211 23.9848 14.7229H10.9569C10.213 14.7229 10.213 14.7229 10.272 14.0099C10.404 12.492 10.9959 11.868 12.5699 11.622C13.0399 11.5437 13.5155 11.5036 13.9919 11.502C17.1649 11.489 20.3448 11.483 23.5178 11.477C23.7513 11.4762 23.9845 11.4595 24.2158 11.427C24.6038 11.363 24.8478 11.13 24.9138 10.752C25.0778 9.81899 24.7618 9.35899 23.7938 9.176C23.3068 9.088 22.8058 9.056 22.3128 9Z" fill="white"/>
</svg>
