<svg width="32" height="32" viewBox="0 0 32 32" fill="none" xmlns="http://www.w3.org/2000/svg">
<circle cx="16" cy="16" r="16" fill="#0B0F2B"/>
<path d="M17.6579 7.15238C17.1205 7.05232 16.5664 7 16 7C11.0294 7 7 11.0294 7 16C7 20.9706 11.0294 25 16 25C16.5664 25 17.1205 24.9477 17.6579 24.8476V23.3971C17.1243 23.5161 16.5695 23.5789 16 23.5789C11.8143 23.5789 8.42105 20.1857 8.42105 16C8.42105 11.8143 11.8143 8.42105 16 8.42105C16.5695 8.42105 17.1243 8.48388 17.6579 8.60293V7.15238Z" fill="white"/>
<path d="M25 16C25 19.7544 22.7011 22.9719 19.4342 24.3216V20.3816H14.6974V16.9474H18.8421V14.9342H14.6974V12.0921H19.4342V7.67842C22.7011 9.02811 25 12.2456 25 16Z" fill="white"/>
</svg>
