<svg width="32" height="32" viewBox="0 0 32 32" fill="none" xmlns="http://www.w3.org/2000/svg">
<circle cx="16" cy="16" r="16" fill="#00CFAB"/>
<path fill-rule="evenodd" clip-rule="evenodd" d="M22.8026 8.08344C23.4732 8.58175 24.0206 9.22899 24.4018 9.97073C24.8289 10.8041 25.0352 11.732 24.9951 12.6656C24.9607 13.5993 24.6856 14.51 24.1983 15.309C24.053 15.5474 23.89 15.7733 23.7112 15.9851C24.053 16.3958 24.3346 16.8567 24.5451 17.3538C24.9607 18.3418 25.0782 19.433 24.8804 20.4897C24.6827 21.5436 24.1783 22.5174 23.4302 23.2877C22.6736 24.0696 21.6992 24.6051 20.6359 24.8285C19.5726 25.0519 18.4663 24.9545 17.4574 24.545C16.9338 24.3324 16.4495 24.0419 16.0198 23.6854C15.572 24.069 15.0629 24.3798 14.511 24.6023C13.5022 25.0118 12.393 25.1063 11.3269 24.8801C10.2607 24.6509 9.28911 24.1125 8.53248 23.3278C7.78732 22.5575 7.28576 21.5837 7.09087 20.5298C6.89598 19.4759 7.01636 18.3876 7.43479 17.4025C7.64917 16.8963 7.93801 16.4284 8.289 16.0132C7.93595 15.5914 7.64702 15.1167 7.43471 14.6025C7.022 13.6059 6.91309 12.5061 7.12518 11.4465C7.33726 10.3869 7.85888 9.416 8.62411 8.65134C8.63328 8.64214 8.64252 8.63306 8.65183 8.62408C8.65908 8.6166 8.66641 8.60916 8.6738 8.60177C9.3072 7.96885 10.0868 7.50204 10.9466 7.24143C11.8035 6.98082 12.7092 6.93213 13.589 7.10396C14.466 7.2758 15.2886 7.65956 15.985 8.22374C16.003 8.23839 16.0209 8.25314 16.0387 8.268C16.3585 8.00155 16.7091 7.7712 17.0849 7.58226C17.9905 7.1269 19.0051 6.93216 20.0139 7.02094C21.0228 7.10972 21.9858 7.4763 22.7997 8.08057L22.8026 8.08344ZM14.0985 17.1327C13.7468 17.6598 13.147 18.0067 12.4647 18.0067C12.158 18.0067 11.8599 18.0955 11.6077 18.2674C11.3584 18.4335 11.1664 18.6683 11.0488 18.9432C10.8912 19.3213 10.8884 19.7451 11.0431 20.1232C11.1176 20.3007 11.2237 20.464 11.3584 20.6043C11.5533 20.8076 11.8055 20.9537 12.0806 21.0253C12.3558 21.094 12.6452 21.0883 12.9175 21.0024C13.0579 20.9594 13.1926 20.8935 13.3159 20.8105C13.5652 20.6444 13.7572 20.4095 13.8747 20.1346C13.955 19.9456 13.9951 19.7451 13.9951 19.5389C13.9951 18.9916 14.2181 18.4968 14.5784 18.1406C14.9369 17.7568 15.4472 17.517 16.013 17.517C17.0963 17.517 17.9762 18.3962 17.9762 19.4816C17.9762 19.7852 18.065 20.0859 18.237 20.3379C18.4032 20.5842 18.6383 20.779 18.9134 20.8964C19.1025 20.9766 19.3089 21.0167 19.5153 21.0167C19.7216 21.0167 19.928 20.9737 20.1171 20.8935C20.3005 20.8133 20.4696 20.6988 20.6101 20.5527C20.7448 20.4153 20.8537 20.252 20.9282 20.0716C21.0256 19.8396 21.0629 19.5847 21.0371 19.3327C21.0142 19.0807 20.9253 18.8373 20.7849 18.6282C20.6187 18.3819 20.3837 18.1872 20.1085 18.0698C19.9194 17.9896 19.7187 17.9495 19.5124 17.9495C18.429 17.9495 17.5492 17.0703 17.5492 15.9848C17.5492 15.4766 17.7415 15.0135 18.0576 14.6648C18.4171 14.2538 18.9453 13.9945 19.5353 13.9945C19.6929 13.9945 19.8448 13.9716 19.9939 13.9257C20.1343 13.8828 20.269 13.8169 20.3923 13.7339C20.6416 13.5678 20.8336 13.3329 20.9511 13.058C21.0371 12.8518 21.0772 12.6284 21.0686 12.405C21.06 12.1816 21.0027 11.964 20.9024 11.7635C20.7935 11.5545 20.6387 11.3712 20.4496 11.2308C20.2576 11.0876 20.0311 10.9903 19.7933 10.9502C19.5554 10.9101 19.3118 10.9273 19.0796 10.9989C18.9392 11.0418 18.8045 11.1077 18.6812 11.1907C18.4319 11.3569 18.2399 11.5917 18.1224 11.8666C18.0421 12.0556 18.002 12.2561 18.002 12.4623C18.002 13.3157 17.458 14.0417 16.6989 14.313C16.4903 14.3886 16.2654 14.4298 16.0309 14.4298C14.9475 14.4298 14.0677 13.5506 14.0677 12.4651C14.0705 12.1587 13.9788 11.8609 13.8069 11.6088C13.6406 11.3626 13.4056 11.1678 13.1305 11.0504C12.9413 10.9702 12.7407 10.9301 12.5343 10.9301C12.3308 10.9301 12.1274 10.9702 11.9382 11.0504C11.7576 11.1277 11.5914 11.2394 11.451 11.3797C11.4418 11.3889 11.4326 11.398 11.4232 11.407C11.416 11.4145 11.4087 11.4219 11.4013 11.4293C11.1491 11.6813 10.9914 12.0107 10.9571 12.3658C10.9227 12.7209 11.0115 13.076 11.2121 13.371C11.3784 13.6202 11.6134 13.8121 11.8885 13.9295C12.0777 14.0097 12.2783 14.0498 12.4846 14.0498C13.5709 14.0498 14.4507 14.929 14.4507 16.0086C14.4507 16.4268 14.3206 16.8143 14.0985 17.1327Z" fill="white"/>
</svg>
