<svg width="32" height="32" viewBox="0 0 32 32" fill="none" xmlns="http://www.w3.org/2000/svg">
<circle cx="16" cy="16" r="16" fill="#6FC9EE"/>
<path d="M15.7215 11.9728C16.2891 11.4572 16.9437 10.9412 17.7106 10.9412H18.2894C19.0563 10.9412 19.7109 11.4572 20.2785 11.9728C20.7799 12.4283 21.4457 12.7059 22.1765 12.7059C23.7359 12.7059 25 11.4418 25 9.88237C25 8.32297 23.7359 7.05884 22.1765 7.05884C21.4457 7.05884 20.7799 7.33641 20.2785 7.79189C19.7109 8.30755 19.0563 8.82354 18.2894 8.82354H17.7106C16.9437 8.82354 16.2891 8.30755 15.7215 7.79189C15.2201 7.33641 14.5543 7.05884 13.8235 7.05884C12.2641 7.05884 11 8.32297 11 9.88237C11 11.4418 12.2641 12.7059 13.8235 12.7059C14.5543 12.7059 15.2201 12.4283 15.7215 11.9728Z" fill="white"/>
<path d="M15.7215 24.2081C16.2891 23.6925 16.9437 23.1765 17.7106 23.1765H18.2894C19.0563 23.1765 19.7109 23.6925 20.2785 24.2081C20.7799 24.6636 21.4457 24.9412 22.1765 24.9412C23.7359 24.9412 25 23.6771 25 22.1177C25 20.5583 23.7359 19.2941 22.1765 19.2941C21.4457 19.2941 20.7799 19.5717 20.2785 20.0272C19.7109 20.5428 19.0563 21.0588 18.2894 21.0588H17.7106C16.9437 21.0588 16.2891 20.5428 15.7215 20.0272C15.2201 19.5717 14.5543 19.2941 13.8235 19.2941C12.2641 19.2941 11 20.5583 11 22.1177C11 23.6771 12.2641 24.9412 13.8235 24.9412C14.5543 24.9412 15.2201 24.6636 15.7215 24.2081Z" fill="white"/>
<path d="M20.7647 16C20.7647 17.5594 19.5006 18.8235 17.9412 18.8235C16.3818 18.8235 15.1176 17.5594 15.1176 16C15.1176 14.4406 16.3818 13.1765 17.9412 13.1765C19.5006 13.1765 20.7647 14.4406 20.7647 16Z" fill="white"/>
<path d="M9.82353 18.8235C11.3829 18.8235 12.6471 17.5594 12.6471 16C12.6471 14.4406 11.3829 13.1765 9.82353 13.1765C8.26414 13.1765 7 14.4406 7 16C7 17.5594 8.26414 18.8235 9.82353 18.8235Z" fill="white"/>
</svg>
