<svg width="32" height="32" viewBox="0 0 32 32" fill="none" xmlns="http://www.w3.org/2000/svg">
<circle cx="16" cy="16" r="16" fill="#561EAE"/>
<path d="M16.4738 15.587C16.7937 15.9135 17.1136 16.2399 17.4325 16.5673C17.5712 16.713 17.7114 16.8571 17.8516 17.0011C18.1135 17.27 18.3752 17.5389 18.6263 17.8183C19.6201 18.9154 19.9245 20.1903 19.4183 21.5787C18.9116 22.9771 17.8665 23.8175 16.3743 23.95C14.9239 24.079 13.6937 23.5722 12.9226 22.2788C12.2845 21.208 12.1532 20.0572 12.6516 18.8766C12.6511 18.8682 12.6482 18.8601 12.6432 18.8533C12.6634 18.8475 12.6723 18.8268 12.6812 18.8061C12.685 18.7974 12.6888 18.7887 12.6934 18.7811C13.0088 18.1853 13.4781 17.7128 13.9457 17.242C14.0205 17.1666 14.0953 17.0913 14.1694 17.0156C14.3007 16.8825 14.3849 16.8968 14.5043 17.0281C14.6137 17.149 14.7316 17.2625 14.8494 17.3759C14.902 17.4265 14.9545 17.4771 15.0062 17.5283C15.1996 17.7299 15.3936 17.931 15.5875 18.132C16.0486 18.6098 16.5095 19.0875 16.9616 19.5732C17.3615 20.0017 17.3544 20.6046 16.9861 21.0653C16.8918 21.1829 16.8243 21.2229 16.7127 21.088C16.6312 20.9879 16.5424 20.895 16.4537 20.8023C16.4118 20.7584 16.3699 20.7147 16.3289 20.6702C16.2 20.5308 16.0712 20.3913 15.9425 20.2518C15.4852 19.7563 15.028 19.2609 14.5646 18.771C14.552 18.7577 14.5397 18.7373 14.5264 18.7153C14.4788 18.6369 14.4196 18.5391 14.3001 18.679C13.9647 19.0682 13.6907 19.4926 13.6209 20.0143C13.5538 20.5459 13.6636 21.0848 13.9333 21.5478C14.203 22.0108 14.6176 22.3721 15.1131 22.576C15.6069 22.7711 16.1515 22.7973 16.6617 22.6505C17.172 22.5036 17.6193 22.192 17.9339 21.7643C18.5803 20.9006 18.5815 19.6985 17.879 18.8629C17.3376 18.2177 16.7288 17.6297 16.12 17.0454C15.8306 16.7458 15.5418 16.4455 15.253 16.1453C14.6466 15.5149 14.0402 14.8844 13.4281 14.2598C11.7455 12.5432 12.0899 9.7671 14.1241 8.52978C15.9433 7.42139 19.0751 8.1066 19.5843 11.1053C19.8147 12.462 19.2984 13.5316 18.3613 14.4544C18.2874 14.5278 18.2124 14.5992 18.1375 14.6706C18.0256 14.7771 17.9141 14.8834 17.8068 14.9957C17.6982 15.1073 17.6301 15.1079 17.5191 14.9957C17.3811 14.8565 17.2429 14.7174 17.1046 14.5784C16.4088 13.8785 15.713 13.1788 15.0492 12.4483C14.6547 12.0167 14.6374 11.4957 14.9639 11.002C15.0898 10.8122 15.1793 10.7913 15.3411 10.9704C15.9973 11.6902 16.6584 12.4051 17.3245 13.115C17.5017 13.3038 17.5638 13.3961 17.6197 13.3925C17.6757 13.3889 17.7255 13.2891 17.8784 13.0935C18.6776 12.0693 18.5308 10.6821 17.5436 9.82918C16.5975 9.01146 15.1596 9.07712 14.2739 9.98855C13.3881 10.9 13.3457 12.3367 14.2142 13.2546C14.9583 14.0407 15.716 14.8138 16.4738 15.587Z" fill="white"/>
<path d="M20.0451 12.3098C20.1418 11.6634 20.0761 11.0235 19.9185 10.3765L23.5433 14.3129L22.0285 14.8364C21.8866 14.6743 21.7449 14.512 21.6031 14.3498L21.6028 14.3494C21.1309 13.8093 20.6587 13.2689 20.1823 12.7324C20.0695 12.6053 20.0176 12.4924 20.0451 12.3098Z" fill="white"/>
<path d="M23.5433 14.3129C23.653 14.4352 23.7649 14.5558 23.8744 14.6782L23.8754 14.6793C24.216 15.0601 24.5565 15.4407 24.9018 15.8176C25.0027 15.9275 25.0505 15.9985 24.9233 16.1364C23.2986 17.9103 21.6745 19.6846 20.051 21.4593C20.0112 21.4946 19.9694 21.5275 19.9257 21.5578C20.1125 20.8636 20.1632 20.2065 20.0164 19.5433C19.9918 19.4377 20.0559 19.376 20.118 19.3163C20.1341 19.3008 20.1502 19.2854 20.1644 19.2694C20.2889 19.1283 20.4133 18.9873 20.5377 18.8462C21.3142 17.9658 22.0906 17.0855 22.8772 16.2146C23.0402 16.0343 23.0444 15.9292 22.8725 15.7585C22.6632 15.551 22.4674 15.3299 22.2715 15.1087L22.2714 15.1087C22.1908 15.0176 22.1101 14.9265 22.0285 14.8364L23.5433 14.3129Z" fill="white"/>
<path d="M11.9461 19.7176C11.9661 19.6372 11.9647 19.5529 11.9419 19.4732C11.9192 19.3935 11.876 19.3212 11.8166 19.2634C11.5848 19.0033 11.3534 18.7429 11.1221 18.4825L11.122 18.4824C10.4566 17.7337 9.79136 16.985 9.11689 16.2432C8.95394 16.0641 8.9617 15.9615 9.12226 15.7842C9.88863 14.9355 10.6452 14.0778 11.4016 13.2202L11.4017 13.2201L11.4049 13.2165C11.5411 13.0621 11.6773 12.9077 11.8136 12.7533C11.8283 12.7366 11.8444 12.7205 11.8606 12.7044C11.9268 12.6385 11.9944 12.5713 11.9699 12.4548C11.8345 11.7983 11.8828 11.1417 12.0732 10.4255C12.0376 10.4597 12.0103 10.4851 11.9883 10.5056L11.9883 10.5057C11.9558 10.536 11.9348 10.5555 11.9156 10.5765C10.3073 12.3361 8.69788 14.0949 7.08752 15.8529C6.95859 15.9925 6.98127 16.0737 7.09587 16.1955C7.35791 16.4729 7.61481 16.7556 7.8709 17.0373L7.87098 17.0374L7.87135 17.0378C7.94177 17.1152 8.01212 17.1926 8.0825 17.2698C8.89544 18.1675 9.7078 19.0658 10.5195 19.9647L12.0804 21.6288C12.073 21.5736 12.0679 21.5293 12.0636 21.4923C12.0557 21.4236 12.0506 21.3798 12.0398 21.3375C11.9043 20.8051 11.8434 20.262 11.9461 19.7176Z" fill="white"/>
<path d="M12.5979 18.8462C12.6108 18.852 12.6252 18.8534 12.639 18.8504C12.6325 18.839 12.6193 18.8354 12.5979 18.8462Z" fill="white"/>
</svg>
