<svg width="32" height="32" viewBox="0 0 32 32" fill="none" xmlns="http://www.w3.org/2000/svg">
<circle cx="16" cy="16" r="16" fill="#314FA3"/>
<path fill-rule="evenodd" clip-rule="evenodd" d="M11.158 16.99C11.3749 17.1325 11.6291 17.2077 11.8886 17.2063C12.1482 17.2048 12.4015 17.1267 12.6168 16.9818L13.5283 17.8933L14.4798 16.9425L13.1846 15.6482C13.1295 15.3425 12.9688 15.0658 12.7307 14.8664C12.4925 14.6669 12.1919 14.5573 11.8813 14.5567C11.221 14.5567 10.6728 15.0411 10.5722 15.6735L8.53818 17.7092C8.40977 17.1485 8.345 16.5752 8.34509 16C8.34509 11.7782 11.779 8.34509 16 8.34509C20.221 8.34509 23.6549 11.7782 23.6549 16C23.6549 16.6251 23.5796 17.2322 23.4373 17.8139L20.2676 14.6443C20.2342 14.318 20.0811 14.0156 19.8378 13.7956C19.5946 13.5756 19.2784 13.4535 18.9504 13.453C18.6172 13.4532 18.2964 13.5788 18.0517 13.8049C17.807 14.0309 17.6563 14.3408 17.6298 14.6729L10.7432 21.5595L9.79246 22.5111C10.1181 22.822 10.4675 23.1084 10.8373 23.3677C12.3484 24.4318 14.1518 25.002 16 25C20.9623 25 25 20.9623 25 16C25 11.0377 20.9623 7 16 7C11.0377 7 7 11.0377 7 16C6.99917 17.4405 7.34549 18.8601 8.00964 20.1384L9.016 19.132L11.158 16.99ZM18.2835 15.9215C18.4885 16.0418 18.7222 16.1045 18.9599 16.1028C19.1976 16.101 19.4304 16.035 19.6335 15.9116L22.9431 19.222C21.724 21.8377 19.0706 23.6549 16 23.6549C14.509 23.6565 13.0503 23.2201 11.8052 22.3998L18.2835 15.9215ZM18.9741 14.1902C19.0541 14.1873 19.1339 14.2005 19.2087 14.2292C19.2835 14.2578 19.3517 14.3012 19.4093 14.3568C19.467 14.4124 19.5128 14.4791 19.5441 14.5528C19.5753 14.6265 19.5914 14.7058 19.5914 14.7858C19.5913 14.8659 19.5751 14.9452 19.5437 15.0188C19.5124 15.0925 19.4665 15.1591 19.4088 15.2146C19.3511 15.2701 19.2827 15.3135 19.2079 15.342C19.1331 15.3705 19.0533 15.3837 18.9733 15.3806C18.8192 15.3748 18.6734 15.3095 18.5666 15.1984C18.4597 15.0874 18.4 14.9392 18.4001 14.785C18.4002 14.6309 18.4601 14.4828 18.5671 14.3718C18.6742 14.2609 18.82 14.1958 18.9741 14.1902ZM11.8886 15.2759C11.9669 15.276 12.0443 15.2915 12.1165 15.3216C12.1887 15.3516 12.2543 15.3956 12.3096 15.4509C12.3648 15.5063 12.4086 15.5721 12.4384 15.6444C12.4683 15.7167 12.4836 15.7941 12.4835 15.8724C12.4833 15.9506 12.4678 16.028 12.4378 16.1002C12.4078 16.1725 12.3638 16.2381 12.3084 16.2933C12.253 16.3485 12.1873 16.3923 12.115 16.4222C12.0427 16.452 11.9652 16.4673 11.887 16.4672C11.729 16.4671 11.5776 16.4042 11.4659 16.2924C11.3543 16.1807 11.2917 16.0291 11.2918 15.8711C11.2919 15.7132 11.3547 15.5617 11.4665 15.4501C11.5783 15.3384 11.7298 15.2758 11.8878 15.2759H11.8886Z" fill="white"/>
</svg>
