<svg width="32" height="32" viewBox="0 0 32 32" fill="none" xmlns="http://www.w3.org/2000/svg">
<circle cx="16" cy="16" r="16" fill="#47B8E3"/>
<path fill-rule="evenodd" clip-rule="evenodd" d="M17.6988 7.98077L16 7L14.3013 7.98077V9.48298L11.2455 11.2472L9.88465 10.4615L8.18591 11.4423V13.4038L9.5385 14.1848V17.8152L8.18591 18.5962V20.5577L9.88465 21.5385L11.2105 20.773L14.3013 22.5575V24.0192L16 25L17.6988 24.0192V22.5336L20.7689 20.7611L22.1154 21.5385L23.8142 20.5577V18.5962L22.4616 17.8152V14.1848L23.8142 13.4038V11.4423L22.1154 10.4615L20.8338 11.2015L17.6988 9.39151V7.98077ZM14.5608 21.9079L15.6539 21.2768V19.2617L13.0023 17.7308V14.6049L11.2527 13.5948L10.2308 14.1848V17.8152L11.5834 18.5962V20.1889L14.5608 21.9079ZM13.4039 14.0373L11.5834 12.9863V11.8516L14.5958 10.1124L16 10.9231L17.4835 10.0666L20.4167 11.7601V12.9981L18.6064 14.0433L16 12.5385L13.4039 14.0373ZM17.4186 21.8959L20.4167 20.165V18.5962L21.7693 17.8152V14.1848L20.7576 13.6007L18.9978 14.6167V17.7308L16.3462 19.2617V21.2768L17.4186 21.8959Z" fill="white"/>
</svg>
