<svg width="32" height="32" viewBox="0 0 32 32" fill="none" xmlns="http://www.w3.org/2000/svg">
<circle cx="16" cy="16" r="16" fill="#29384B"/>
<path fill-rule="evenodd" clip-rule="evenodd" d="M16.6014 11.1383C16.5947 11.1383 16.588 11.1383 16.5813 11.1384L14.9388 11.1574C14.8309 11.1523 14.727 11.1523 14.6337 11.1523L14.6108 11.1523V11.1611L8.12049 11.2361C7.49957 11.2432 7 11.7462 7 12.3642V18.7203C7 19.3434 7.50755 19.8485 8.13364 19.8485H8.82488V22.8618H10.7465L12.9651 19.8485H16.5376L19.2097 19.8756L21.5161 22.8618H23.1751V19.8756H23.8664C24.4925 19.8756 25 19.3681 25 18.742V12.3378C25 11.7184 24.5029 11.2137 23.8836 11.2043L16.6359 11.1383C16.6235 11.1381 16.612 11.1381 16.6014 11.1383ZM17.2507 13.8412V12.2666C17.2507 11.9054 16.9538 11.6109 16.5868 11.6152L15.9509 11.6225C16.0415 11.7755 16.0852 11.9613 16.0852 12.1778V13.603L17.2507 13.8412ZM17.2507 17.1782L16.0852 17.3994V18.7146C16.0852 18.9389 16.0257 19.1734 15.8708 19.3717H16.5945C16.9584 19.3717 17.2507 19.0785 17.2507 18.7203V17.1782ZM15.6078 17.4286V18.7146C15.6078 18.8886 15.5528 19.0401 15.4245 19.152C15.2918 19.2676 15.0474 19.37 14.6108 19.37V19.3717H12.7235L12.7145 19.384H11.1621L9.30231 21.7841V19.3717H8.13364C7.76968 19.3717 7.47743 19.0785 7.47743 18.7203V12.3642C7.47743 12.0089 7.76508 11.717 8.12601 11.7128L14.9248 11.6343C15.0882 11.6422 15.2319 11.6616 15.3482 11.7095C15.4329 11.7444 15.4919 11.7907 15.5322 11.8526C15.5731 11.9156 15.6078 12.015 15.6078 12.1778V13.5715H14.1613V17.4286H15.6078ZM9.44064 22.385H10.505L12.364 19.86H11.3973L9.44064 22.385Z" fill="white"/>
</svg>
