<svg width="32" height="32" viewBox="0 0 32 32" fill="none" xmlns="http://www.w3.org/2000/svg">
<circle cx="16" cy="16" r="16" fill="#0063A5"/>
<path d="M9.75807 8.25806C9.75807 7.56325 9.19482 7 8.50001 7C7.8052 7 7.24194 7.56325 7.24194 8.25806L7.24194 18.9005C7.24194 18.9014 7.24194 18.9023 7.24194 18.9032C7.24194 18.9037 7.24194 18.9041 7.24194 18.9046L7.24194 23.6452C7.24194 24.34 7.8052 24.9032 8.50001 24.9032C9.19482 24.9032 9.75807 24.34 9.75807 23.6452V18.9012C9.75917 17.4056 10.9719 16.1935 12.4678 16.1935C13.9643 16.1935 15.1774 17.4067 15.1774 18.9032V23.7419C15.1774 24.4367 15.7407 25 16.4355 25C17.1303 25 17.6936 24.4367 17.6936 23.7419V18.9032C17.6936 16.0171 15.3539 13.6774 12.4678 13.6774C11.4757 13.6774 10.5482 13.9539 9.75807 14.4339V8.25806Z" fill="white"/>
<path d="M19.7258 8.74194C19.7258 9.59709 19.0326 10.2903 18.1774 10.2903C17.3223 10.2903 16.629 9.59709 16.629 8.74194C16.629 7.88678 17.3223 7.19355 18.1774 7.19355C19.0326 7.19355 19.7258 7.88678 19.7258 8.74194Z" fill="white"/>
<path d="M24.7581 8.74194C24.7581 9.59709 24.0648 10.2903 23.2097 10.2903C22.3545 10.2903 21.6613 9.59709 21.6613 8.74194C21.6613 7.88678 22.3545 7.19355 23.2097 7.19355C24.0648 7.19355 24.7581 7.88678 24.7581 8.74194Z" fill="white"/>
</svg>
