<svg width="32" height="32" viewBox="0 0 32 32" fill="none" xmlns="http://www.w3.org/2000/svg">
<circle cx="16" cy="16" r="16" fill="#2BE2B3"/>
<path d="M7 7.52942H8.05882V15.4706H9.11765V7.52942H10.1765V15.4706H23.9412V14.4118H11.2353V7.52942H12.2941V13.3529H23.9412V12.2941H13.3529V7.52942H14.4118V11.2353H17.5882V7.52942H18.6471V11.2353H19.7059V7.52942H20.7647V11.2353H21.8235V7.52942H22.8824V11.2353H23.9412V7.52942H25V24.4706H23.9412V16.5294H22.8824V24.4706H21.8235V16.5294H8.05882V17.5882H20.7647V24.4706H19.7059V18.6471H8.05882V19.7059H18.6471V24.4706H17.5882V20.7647H14.4118V24.4706H13.3529V20.7647H12.2941V24.4706H11.2353V20.7647H10.1765V24.4706H9.11765V20.7647H8.05882V24.4706H7V7.52942Z" fill="white"/>
</svg>
