<svg width="32" height="32" viewBox="0 0 32 32" fill="none" xmlns="http://www.w3.org/2000/svg">
<circle cx="16" cy="16" r="16" fill="#6785C2"/>
<path d="M11.0454 21.4679C10.9616 21.5751 10.9792 21.6902 11.0162 21.8092C11.0162 21.9711 10.9597 22.1349 11.0454 22.2909C11.0454 22.3748 11.0454 22.4626 11.0435 22.5464C10.9792 22.7805 11.0045 23.0145 11.0454 23.2486V23.4826C11.0337 23.7381 10.946 23.9936 11.0473 24.2511C11.0473 24.3213 11.0454 24.3915 11.0454 24.4656C10.987 24.959 10.987 24.959 10.4999 24.9883C10.4887 24.9896 10.4777 24.9916 10.4667 24.9941C9.9329 25.0098 9.39711 24.9259 8.86521 25C8.66453 24.9551 8.67232 24.803 8.67232 24.645C8.67427 21.2572 8.68207 17.8733 8.67232 14.4855C8.66648 12.8375 8.73467 11.1875 8.65674 9.53939C8.68402 8.80605 8.71714 8.07271 8.74052 7.33937C8.74441 7.21844 8.75221 7.10337 8.82624 7H10.305C10.5349 7.05461 10.7648 7.0156 10.9947 7.00975C11.0337 7.11312 11.0727 7.21454 11.1116 7.31791C11.0084 7.39203 11.0532 7.49345 11.0649 7.58706V8.31455C11.0396 8.42182 11.0357 8.52909 11.0766 8.63051C11.0298 8.91137 11.0551 9.19222 11.0668 9.47502C11.0688 9.53354 11.0707 9.59205 11.0707 9.65251C11.0688 9.8573 11.0668 10.066 11.0668 10.2708C11.0279 10.4085 11.0279 10.5543 11.0668 10.6921V11.3259C11.0298 11.4584 11.0278 11.5982 11.061 11.7316L11.0668 12.3538C11.0279 12.4786 11.0181 12.6015 11.0668 12.7263C11.0629 12.7907 11.0512 12.857 11.0532 12.9213C11.0551 12.9935 11.0201 13.0949 11.0922 13.132C11.1876 13.1827 11.2461 13.0852 11.3104 13.0306C12.9236 11.6906 14.7804 11.1426 16.8534 11.3825C20.528 11.8057 23.3004 14.9458 23.3102 18.6554C23.3121 19.1138 23.2673 19.5702 23.3433 20.0265C23.2615 21.5771 23.3043 23.1335 23.2926 24.686C23.2926 24.7972 23.281 24.9044 23.2069 24.9922C22.6536 24.9259 22.1003 24.9317 21.545 24.9863C21.4398 24.9707 21.3365 24.9532 21.2313 24.9356L21.2391 24.9376H20.9507C20.9469 24.8674 20.9176 24.7952 20.9624 24.7289V24.3232C21.0443 24.0794 20.8845 23.8278 20.9819 23.584C20.9722 23.4163 20.9644 23.2505 20.9546 23.0828C21.0618 22.8175 20.8572 22.5406 20.98 22.2734C21.0345 22.1017 20.9449 21.936 20.9605 21.7682C21.0404 21.501 20.8884 21.226 20.9839 20.9588C20.978 20.7033 20.9722 20.4478 20.9663 20.1904C21.0326 19.8783 20.8514 19.5624 20.9858 19.2522C21.0267 18.9909 20.9176 18.7276 20.98 18.4662C20.9391 18.1756 20.9215 17.8792 20.8553 17.5964C20.0331 14.0701 16.0039 12.5371 13.0658 14.6338C12.4112 15.1019 11.8618 15.6694 11.5637 16.4418L11.5481 16.4574C11.5422 16.4827 11.5364 16.512 11.5286 16.5373C11.1409 17.1458 10.9831 17.809 11.0551 18.5267C11.0571 18.6223 11.059 18.7159 11.061 18.8095C11.0259 18.9558 11.0318 19.1021 11.0571 19.2483C11.059 19.3829 11.0629 19.5194 11.0649 19.656C11.0376 19.7788 10.9967 19.9017 11.1039 20.0109C11.0045 20.1787 11.0707 20.362 11.0473 20.5375C11.0279 20.6546 11.0064 20.7696 11.0454 20.8867C10.9889 21.0797 10.9772 21.2728 11.0454 21.4679Z" fill="white"/>
</svg>
