<svg width="32" height="32" viewBox="0 0 32 32" fill="none" xmlns="http://www.w3.org/2000/svg">
<circle cx="16" cy="16" r="16" fill="#38818B"/>
<path d="M7.9 20.5212C7.7938 20.7588 7.7038 20.9712 7.6057 21.2007C7.4419 21.5778 7.27 21.954 7.1062 22.3311C7.0819 22.3797 7.0981 22.3959 7.1395 22.404C7.2124 22.4211 7.2862 22.4292 7.36 22.4373C7.5652 22.4454 7.7776 22.4535 7.99 22.4535C8.1295 22.4625 8.2771 22.4625 8.4247 22.4535C8.6776 22.4292 8.9314 22.404 9.1852 22.3635C9.92312 22.2602 10.6409 22.0447 11.3137 21.7245C11.6751 21.5576 12.0203 21.3579 12.3451 21.1278C12.6151 20.9226 12.8851 20.7183 13.1389 20.4978C13.3027 20.3502 13.4584 20.1945 13.5979 20.0226C13.7941 19.8012 13.9741 19.5636 14.146 19.3269C14.3674 19.0155 14.5474 18.6798 14.695 18.3279C14.875 17.9103 15.0055 17.4765 15.0874 17.0346H16.7407C16.8145 17.0346 16.855 17.0508 16.855 17.1336C16.864 17.1741 16.8721 17.2236 16.8883 17.2641C16.9783 17.6898 17.1088 18.1074 17.2978 18.4998C17.614 19.1664 18.0399 19.7752 18.5578 20.3007C18.673 20.4231 18.8035 20.5464 18.9349 20.6526C19.1392 20.8164 19.3435 20.9802 19.5559 21.1359C19.9663 21.4221 20.3911 21.6597 20.8501 21.8559C21.2318 22.0187 21.6261 22.1502 22.0291 22.2492C22.3639 22.3221 22.7077 22.3797 23.0434 22.4292C23.2891 22.4616 23.5429 22.4859 23.7967 22.4859C24.0757 22.4859 24.3619 22.4697 24.64 22.4535C24.7543 22.4445 24.8605 22.4211 24.9757 22.3959C24.8524 22.1178 24.7381 21.8559 24.6238 21.594C24.4783 21.2683 24.3364 20.9409 24.1981 20.6121C24.1891 20.595 24.1729 20.5869 24.1567 20.5788C24.0757 20.5707 23.9929 20.5707 23.911 20.5626L23.2648 20.5131C22.916 20.4815 22.5724 20.4075 22.2415 20.2926C21.8974 20.179 21.5658 20.031 21.2515 19.8507C20.7694 19.5828 20.3371 19.2339 19.9735 18.8193C19.8337 18.6572 19.7027 18.4878 19.5811 18.3117C19.3765 18.0106 19.2139 17.6829 19.0978 17.3379C19.0654 17.2389 19.0411 17.1408 19.0078 17.0265H20.203C20.3344 17.0265 20.3668 17.0022 20.4163 16.887C20.5801 16.4946 20.752 16.1094 20.9158 15.7251L21.1525 15.1851C21.1444 15.1761 21.1363 15.1761 21.1282 15.168C20.8853 15.0869 20.631 15.0456 20.3749 15.0456C19.9492 15.0366 19.5154 15.0456 19.0897 15.0456H18.9997C19.0087 15.0213 19.0087 14.988 19.0168 14.9637C19.1149 14.628 19.2454 14.3085 19.4092 14.0061C19.6135 13.6371 19.8682 13.3023 20.1625 13.0071C20.2768 12.8847 20.4163 12.7785 20.5387 12.6714C20.842 12.4176 21.1687 12.2052 21.5215 12.0333C22.2749 11.6692 23.0995 11.4762 23.9362 11.4681C23.9848 11.4771 24.0262 11.4771 24.0748 11.4681C24.1324 11.4519 24.2143 11.4852 24.2467 11.4033C24.2962 11.2719 24.3529 11.1495 24.4105 11.0262C24.5662 10.6752 24.7138 10.3305 24.8605 9.98668L25 9.65908C24.9838 9.64288 24.9838 9.63478 24.9757 9.63478C24.7867 9.60238 24.5986 9.56098 24.4105 9.55378C24.2224 9.54478 24.0343 9.55378 23.8381 9.55378C23.7067 9.55378 23.5843 9.56098 23.4529 9.56908C23.2486 9.58618 23.0434 9.60238 22.8472 9.63478C22.6077 9.66595 22.3701 9.70982 22.1353 9.76618C21.8239 9.84718 21.5134 9.94618 21.202 10.0524C20.752 10.2162 20.3263 10.4214 19.9168 10.6743C19.5205 10.9174 19.1477 11.197 18.8035 11.5095C18.6379 11.6604 18.4822 11.8218 18.3373 11.9928C18.1425 12.2151 17.9593 12.4473 17.7883 12.6885C17.6002 12.9495 17.4373 13.2366 17.3059 13.5309C17.1421 13.8828 17.0107 14.2509 16.9126 14.6361C16.8895 14.768 16.8625 14.8991 16.8316 15.0294H15.1693C15.1546 15.0288 15.1404 15.0238 15.1287 15.0149C15.1169 15.0061 15.1082 14.9939 15.1036 14.9799C15.0631 14.7999 15.0298 14.6109 14.9812 14.4309C14.836 13.8822 14.6097 13.3584 14.3098 12.8766C14.0078 12.3922 13.6475 11.9467 13.237 11.55C13.156 11.4771 13.0741 11.4033 12.9922 11.3376C12.8122 11.19 12.6232 11.0424 12.4351 10.9038C12.0084 10.6011 11.55 10.3458 11.068 10.1424C10.7223 9.99508 10.3669 9.87179 10.0042 9.77338C9.43704 9.62466 8.85502 9.53983 8.269 9.52048C7.90258 9.50377 7.5354 9.52004 7.1719 9.56908L7 9.61858C7.0819 9.80758 7.1638 9.97858 7.2376 10.1586C7.3357 10.3719 7.4257 10.5924 7.5238 10.8138C7.6057 11.0019 7.6876 11.1828 7.7695 11.37C7.77286 11.3818 7.77917 11.3925 7.78783 11.4012C7.79649 11.4098 7.80722 11.4161 7.819 11.4195C7.8757 11.4276 7.9333 11.4357 7.99 11.4357C8.2276 11.4519 8.4571 11.46 8.6947 11.4852C8.9971 11.5257 9.2923 11.5914 9.5785 11.6814C9.9223 11.7957 10.258 11.9433 10.5775 12.1233C10.888 12.2952 11.1661 12.4995 11.4199 12.7371C11.6251 12.9333 11.8132 13.1385 11.9851 13.359C12.337 13.809 12.5908 14.3256 12.7384 14.8818C12.7546 14.9394 12.7546 14.988 12.7708 15.0537H12.6646C12.2632 15.0537 11.8708 15.0456 11.4694 15.0537C11.4208 15.0524 11.3737 15.0702 11.338 15.1032C11.3057 15.1506 11.2811 15.2029 11.2651 15.258L10.7656 16.4127C10.7007 16.5749 10.6323 16.7358 10.5604 16.8951C10.5694 16.9041 10.5775 16.9122 10.5937 16.9203C10.618 16.9203 10.6423 16.9284 10.6675 16.9365C10.9285 16.9941 11.1913 17.0265 11.4613 17.0265H12.7465C12.7375 17.0508 12.7375 17.0841 12.7303 17.1075C12.6353 17.4615 12.4978 17.8026 12.3208 18.1236C12.1156 18.4836 11.8618 18.8193 11.5675 19.1136C11.4287 19.2433 11.284 19.3664 11.1337 19.4826C10.6183 19.8835 10.0285 20.1784 9.3985 20.3502C9.07952 20.4355 8.75367 20.4928 8.4247 20.5212C8.2528 20.5302 8.0719 20.5212 7.9 20.5212Z" fill="white"/>
</svg>
