<svg width="32" height="32" viewBox="0 0 32 32" fill="none" xmlns="http://www.w3.org/2000/svg">
<circle cx="16" cy="16" r="16" fill="#575FF4"/>
<path d="M15.8255 16.9959C15.8273 17.0344 15.8296 17.0622 15.8296 17.0886C15.8296 18.0359 15.8296 18.9833 15.8296 19.9307C15.8296 20.1897 15.6971 20.3636 15.471 20.4067C15.4384 20.412 15.4054 20.4143 15.3724 20.4135C12.7317 20.4135 10.0911 20.4135 7.45046 20.4135C7.18098 20.4135 7 20.2312 7 19.9604C7 17.3197 7 14.6791 7 12.0384C7 11.7676 7.18015 11.5858 7.45079 11.5858C10.0914 11.5858 12.7321 11.5858 15.3727 11.5858C15.6523 11.5858 15.8285 11.7681 15.8295 12.061C15.8313 12.5913 15.8295 13.1216 15.8295 13.652C15.8295 14.0719 15.8273 14.4917 15.8313 14.9115C15.8313 14.9894 15.8074 15.0075 15.733 15.0073C14.6117 15.0052 13.4903 15.0073 12.3687 15.0047C12.1459 15.0047 11.9676 15.0834 11.8254 15.2533C11.443 15.7109 11.0597 16.1678 10.6754 16.6239C10.6118 16.6994 10.5801 16.779 10.6269 16.8738C10.6736 16.9686 10.7521 16.9958 10.8519 16.9956C12.4704 16.9946 14.0891 16.9946 15.7078 16.9956L15.8255 16.9959Z" fill="white"/>
<path d="M15.9511 14.9918C16.3174 13.1622 18.1079 11.2757 20.7003 11.4247C23.1531 11.5656 25.0837 13.6455 24.9972 16.1646C24.9143 18.5969 22.9281 20.5265 20.5366 20.5822C18.0378 20.6404 16.2907 18.7772 15.9526 17.0054H16.059C17.5092 17.0054 18.9592 17.0054 20.4093 17.0054C20.5463 17.0061 20.682 16.9789 20.8082 16.9255C20.9344 16.8721 21.0484 16.7936 21.1433 16.6947C21.2381 16.5958 21.3119 16.4787 21.36 16.3504C21.4082 16.2221 21.4297 16.0854 21.4234 15.9485C21.4008 15.4263 20.9489 14.9922 20.423 14.9918C18.9702 14.9908 17.5173 14.9908 16.0643 14.9918H15.9511Z" fill="white"/>
</svg>
