<svg width="32" height="32" viewBox="0 0 32 32" fill="none" xmlns="http://www.w3.org/2000/svg">
<circle cx="16" cy="16" r="16" fill="#2A3069"/>
<path d="M17.8129 12.508C17.8129 9.92046 16.558 7.72547 15.6171 7.01978C15.6171 7.01978 15.5385 6.94112 15.5385 7.0977C15.4606 12.0375 12.9509 13.371 11.6182 15.2528C8.40364 19.4083 11.383 24.0343 14.441 24.8973C16.1662 25.3677 14.0492 24.0343 13.8139 21.2902C13.4214 17.8404 17.8129 15.3308 17.8129 12.508ZM19.4595 14.2333C19.3022 14.8603 18.6751 16.1938 17.8129 17.4478C14.9114 21.6041 16.558 23.6425 17.499 24.74C18.0481 25.3677 17.499 24.74 18.8317 24.1129C18.9103 24.0343 21.4979 22.7016 21.7331 19.6436C22.047 16.6642 20.1652 14.7824 19.4595 14.2333Z" fill="white"/>
</svg>
