<svg width="32" height="32" viewBox="0 0 32 32" fill="none" xmlns="http://www.w3.org/2000/svg">
<circle cx="16" cy="16" r="16" fill="#129BD2"/>
<path d="M11.2153 7H14.1771V25H11.2153V7ZM14.6337 13.7598H15.7726V14.8987H14.6337V13.7598ZM16.3044 12.0891H17.4433V13.228H16.3036L16.3044 12.0891ZM17.9751 12.0891H19.1141V13.228H17.9751V12.0891ZM17.9751 13.7598H19.1141V14.8987H17.9751V13.7598ZM19.6459 13.7598H20.7848V14.8987H19.6459V13.7598ZM17.9751 15.4273H19.1141V16.5727H17.9751V15.4273ZM19.6459 15.4273H20.7848V16.5727H19.6459V15.4273ZM17.9751 17.098H19.1141V18.2369H17.9751V17.098ZM19.6459 17.098H20.7848V18.2369H19.6459V17.098ZM17.9751 18.7687H19.1141V19.9076H17.9751V18.7687ZM19.6459 18.7687H20.7848V19.9076H19.6459V18.7687ZM17.9751 20.4427H19.1141V21.5816H17.9751V20.4427ZM19.6459 20.4427H20.7848V21.5816H19.6459V20.4427ZM17.9751 22.1135H19.1141V23.2524H17.9751V22.1135ZM19.6459 22.1135H20.7848V23.2524H19.6459V22.1135ZM17.9751 23.7842H19.1141V24.9231H17.9751V23.7842ZM19.6459 23.7842H20.7848V24.9231H19.6459V23.7842Z" fill="white"/>
</svg>
