<svg xmlns="http://www.w3.org/2000/svg" viewBox="0 0 13.421 8">
  <defs>
    <style>
      .cls-2 {
        fill: #3d4f6c;
      }
    </style>
  </defs>
  <g id="icon-eye" class="cls-1" transform="translate(0 -98.725)">
    <path id="Path_9946" data-name="Path 9946" class="cls-2" d="M6.71,98.725a8.372,8.372,0,0,0-6.605,3.682.531.531,0,0,0,0,.634,8.368,8.368,0,0,0,6.605,3.684,8.372,8.372,0,0,0,6.605-3.682.531.531,0,0,0,0-.634A8.368,8.368,0,0,0,6.71,98.725Zm.184,6.817a2.823,2.823,0,1,1,2.633-2.633A2.824,2.824,0,0,1,6.894,105.542Zm-.085-1.3a1.52,1.52,0,1,1,1.419-1.419A1.517,1.517,0,0,1,6.809,104.24Z" transform="translate(0)"/>
  </g>
</svg>
