<svg xmlns="http://www.w3.org/2000/svg" viewBox="-687 -6431 12.001 12"><defs><style>.a{fill:#fff;opacity:0;}.b{fill:#0050db;}</style></defs><g transform="translate(-2216 -6755)"><rect class="a" width="12" height="12" transform="translate(1529 324)"/><g transform="translate(34 -10)"><path class="b" d="M18,22a3.945,3.945,0,0,1-2.811-1.19L17,19H12v5l1.764-1.763A5.991,5.991,0,0,0,24,18H22A4,4,0,0,1,18,22Z" transform="translate(1483 322)"/><path class="b" d="M22.24,13.761A5.937,5.937,0,0,0,18,12a6.006,6.006,0,0,0-6,6h2a4,4,0,0,1,4-4,3.952,3.952,0,0,1,2.812,1.189L19,17h5V12Z" transform="translate(1483 322)"/></g></g></svg>