<svg xmlns="http://www.w3.org/2000/svg" viewBox="-5964.001 -709.999 12.002 12.001"><defs><style>.a{fill:#3d4f6c;}</style></defs><path class="a" d="M24,7V5H22.9a4.948,4.948,0,0,0-.732-1.754l.784-.783L21.537,1.048l-.785.784A4.935,4.935,0,0,0,19,1.1V0H17V1.1a4.96,4.96,0,0,0-1.753.731l-.784-.783L13.05,2.465l.783.782A4.923,4.923,0,0,0,13.1,5H12V7h1.1a4.948,4.948,0,0,0,.732,1.754l-.784.785,1.415,1.413.783-.784A4.914,4.914,0,0,0,17,10.9V12h2V10.9a4.954,4.954,0,0,0,1.753-.732l.784.783,1.413-1.415-.783-.782A4.935,4.935,0,0,0,22.9,7ZM18,8a2,2,0,1,1,2-2A2,2,0,0,1,18,8Z" transform="translate(-5976 -709.999)"/></svg>