<svg width="32" height="32" viewBox="0 0 32 32" fill="none" xmlns="http://www.w3.org/2000/svg">
<circle cx="16" cy="16" r="16" fill="#0A223A"/>
<path d="M7 13.75V14.6657H7.9735V13.75H7ZM7.9735 17.3305V16.4973H9.85825V15.5815H7V18.25H10.8062V17.3305H7.9735ZM21.1937 15.5815V16.4965H24.0265V17.3305H22.1417V18.25H25V15.5815H21.1937ZM24.0422 14.71V13.7943H21.1923V14.7093L24.0422 14.71ZM11.734 15.5815V18.25H14.5915V17.3695H15.5402V15.5815H11.734ZM14.5667 17.3305H12.7075V16.4973H14.5675V17.3298L14.5667 17.3305ZM11.734 13.75V14.6657H15.5402V13.75H11.734ZM16.4845 15.5815V18.25H19.342V17.3695H20.2908V15.5815H16.4845ZM19.3135 17.3305H17.4535V16.4973H19.3135V17.3305ZM16.4845 13.75V14.6657H20.2908V13.75H16.4845Z" fill="white"/>
</svg>
