<svg width="32" height="32" viewBox="0 0 32 32" fill="none" xmlns="http://www.w3.org/2000/svg">
<circle cx="16" cy="16" r="16" fill="#774D6E"/>
<path fill-rule="evenodd" clip-rule="evenodd" d="M8.8846 13.9102L7 15.8092H10.7827L8.8846 13.9102ZM10.7836 16.2052H7L8.8846 18.0898L10.7836 16.2052ZM13.3504 13.6375L11.4514 11.7385V15.5221L13.3504 13.6375ZM11.0554 15.5221V11.7394L9.1717 13.6375L11.0554 15.5221ZM13.624 13.3504L15.5221 11.4658H11.7394L13.624 13.3504ZM13.624 9.1717L11.7394 11.0698H15.5221L13.624 9.1717ZM18.0898 8.8981L16.1908 7V10.7827L18.0898 8.8981ZM15.7948 10.7827V7L13.9102 8.899L15.7948 10.7827ZM13.3504 18.376L11.4514 16.4779V20.2606L13.3504 18.376ZM9.1717 18.376L11.0563 20.2606V16.4779L9.1717 18.376ZM18.3625 13.3504L20.2615 11.4658H16.477L18.3625 13.3504ZM16.4779 11.0698H20.2606L18.3625 9.1708L16.4779 11.0698ZM15.523 20.9437H11.7403L13.6249 22.8283L15.523 20.9437ZM13.624 18.6487L11.7403 20.5477H15.523L13.624 18.6487ZM22.8292 13.6375L20.9311 11.7385V15.5221L22.8292 13.6375ZM18.6505 13.6375L20.5351 15.5221V11.7394L18.6505 13.6375ZM13.9111 23.1145L15.7948 25V21.2173L13.9111 23.1145ZM16.1917 21.2173V25L18.0907 23.1154L16.1917 21.2173ZM18.3634 22.8283L20.2624 20.9437H16.477L18.3634 22.8283ZM18.3634 18.6496L16.4788 20.5486H20.2615L18.3634 18.6496ZM20.9311 16.4779V20.2606L22.8301 18.376L20.9311 16.4779ZM18.6505 18.3769L20.5351 20.2606V16.4779L18.6505 18.3769ZM23.1028 18.0889L25 16.2061H21.2173L23.1028 18.0889ZM23.1028 13.9102L21.2182 15.8092H25L23.1028 13.9102Z" fill="white"/>
</svg>
