<svg width="32" height="32" viewBox="0 0 32 32" fill="none" xmlns="http://www.w3.org/2000/svg">
<circle cx="16" cy="16" r="16" fill="#00C7FE"/>
<path fill-rule="evenodd" clip-rule="evenodd" d="M24.1721 11.9302L18.7236 7.50411C18.1539 7.04333 17.1216 6.86513 16.426 7.10992L9.74812 9.45527C9.05334 9.69826 8.37835 10.4758 8.25055 11.1814L7.02658 17.9529C6.89789 18.6584 7.25788 19.6088 7.82756 20.0705L13.2796 24.4957C13.8484 24.9574 14.8816 25.1347 15.5764 24.8899L22.2533 22.5455C22.9481 22.3025 23.6231 21.5249 23.7509 20.8193L24.9749 14.0479C25.1009 13.3468 24.7409 12.3919 24.1721 11.9302ZM18.4923 14.9703L15.9454 14.9667L15.472 17.3625C15.3235 18.105 15.283 18.5235 16.048 18.5235H17.7705L17.4105 20.0444H15.3514C14.1337 20.0444 13.3417 18.9077 13.6585 17.3067C13.7845 16.6776 14.1625 14.973 14.1625 14.973H13.0474L13.2787 13.786C14.2927 13.3943 15.1579 12.6938 15.7519 11.7835H16.5754L16.2154 13.5979L18.7641 13.5943L18.4923 14.9703Z" fill="white"/>
</svg>
