<svg width="32" height="32" viewBox="0 0 32 32" fill="none" xmlns="http://www.w3.org/2000/svg">
<circle cx="16" cy="16" r="16" fill="#5D4DB1"/>
<path d="M24.9919 11.2304C24.9919 10.3574 24.4877 9.85605 23.6116 9.85605H15.993C13.4396 9.85605 10.8861 9.85605 8.33244 9.85605C7.52798 9.85605 7.00212 10.3717 7.00169 11.1741C6.99944 14.384 6.99944 17.5937 7.00169 20.803C7.00169 21.6198 7.52374 22.1342 8.34091 22.1342C13.4272 22.1342 18.5131 22.1253 23.5994 22.1439C24.3551 22.1465 25.0055 21.6215 25 20.7531C24.9788 17.5793 24.9919 14.4046 24.9919 11.2304ZM7.82563 11.6309C7.82563 11.448 7.80996 11.263 7.82944 11.0805C7.85908 10.804 7.99456 10.6774 8.27358 10.6677C8.6123 10.6558 8.95102 10.6677 9.28974 10.663C9.38712 10.663 9.40194 10.6889 9.38289 10.7871C9.26137 11.4154 8.58351 12.0996 7.94333 12.2317C7.84722 12.2521 7.8125 12.2317 7.81335 12.1373C7.81504 11.9692 7.81377 11.7999 7.81377 11.6309H7.82563ZM9.26815 21.3005C9.09244 21.2976 8.9163 21.3005 8.74017 21.3005C8.57081 21.3005 8.40145 21.3005 8.23209 21.3005C8.01573 21.3031 7.88067 21.1883 7.84383 20.9872C7.7727 20.5973 7.82436 20.201 7.8142 19.808C7.81166 19.7234 7.86416 19.7314 7.92894 19.7433C8.55303 19.8589 9.24486 20.5477 9.37823 21.1727C9.40491 21.2908 9.36214 21.3018 9.26815 21.3005ZM24.1536 20.8797C24.1472 21.1578 24.0096 21.2904 23.734 21.2984C23.5723 21.3031 23.4105 21.2984 23.2488 21.2984C23.0727 21.2984 22.8965 21.2942 22.7208 21.3005C22.5997 21.3048 22.5773 21.2637 22.6145 21.1515C22.8457 20.4491 23.2954 19.9698 24.0118 19.7543C24.1333 19.7174 24.1574 19.7543 24.1561 19.866C24.1532 20.2039 24.1612 20.5418 24.1536 20.8797ZM24.002 18.9198C22.8326 19.2 22.0916 19.9287 21.7953 21.0922C21.7487 21.2743 21.6771 21.3039 21.5145 21.3039C19.6728 21.2991 17.8311 21.2981 15.9896 21.3009C14.1482 21.3009 12.306 21.2984 10.4651 21.3052C10.2911 21.3052 10.2352 21.2565 10.1907 21.0854C9.88885 19.9232 9.14706 19.1967 7.97593 18.9193C7.85865 18.8914 7.81123 18.8486 7.81166 18.7246C7.81448 16.9042 7.81448 15.0836 7.81166 13.2627C7.81166 13.1471 7.84129 13.0963 7.96874 13.0663C9.18135 12.7775 9.93754 12.0268 10.2128 10.8057C10.236 10.702 10.2767 10.6571 10.3821 10.6656C10.4245 10.669 10.4668 10.6656 10.5091 10.6656C14.171 10.6656 17.8329 10.6643 21.4951 10.6618C21.6801 10.6618 21.7491 10.7012 21.7991 10.898C22.0933 12.0649 22.8432 12.7868 24.0122 13.0641C24.1489 13.0967 24.1794 13.1488 24.1794 13.2733C24.1769 15.0866 24.1769 16.9 24.1794 18.7136C24.1786 18.8469 24.1286 18.8897 24.002 18.9198ZM24.1811 12.1102C24.1811 12.2169 24.1388 12.2411 24.0388 12.2262C23.4461 12.139 22.6632 11.3447 22.5938 10.7638C22.5811 10.6554 22.6408 10.6664 22.7039 10.666C22.88 10.666 23.0566 10.666 23.2327 10.666C23.3949 10.666 23.5574 10.658 23.7188 10.6681C24.0118 10.6859 24.1629 10.8252 24.1756 11.1165C24.1904 11.4472 24.1777 11.7787 24.1811 12.1102Z" fill="white"/>
<path d="M16.0527 11.968C15.5191 11.9663 14.9904 12.07 14.497 12.2732C14.0036 12.4764 13.5552 12.7751 13.1775 13.152C12.7999 13.529 12.5004 13.9768 12.2962 14.4699C12.0921 14.9629 11.9874 15.4914 11.9881 16.025C11.9834 18.2618 13.7922 20.0871 16.0214 20.096C17.0994 20.1 18.1348 19.6756 18.9 18.9162C19.6651 18.1568 20.0972 17.1246 20.1012 16.0466C20.1053 14.9686 19.6809 13.9331 18.9215 13.168C18.1621 12.4028 17.1299 11.9707 16.0518 11.9667L16.0527 11.968ZM16.0391 19.3774C14.2067 19.3774 12.7112 17.8718 12.7095 16.0288C12.7049 15.5882 12.7876 15.151 12.9531 14.7426C13.1185 14.3342 13.3633 13.9627 13.6733 13.6496C13.9833 13.3365 14.3524 13.088 14.7591 12.9185C15.1658 12.749 15.6021 12.6618 16.0428 12.6621C16.4834 12.6624 16.9196 12.7501 17.3261 12.9201C17.7326 13.0901 18.1013 13.3391 18.4109 13.6526C18.7206 13.9661 18.9649 14.338 19.1298 14.7466C19.2947 15.1552 19.377 15.5924 19.3717 16.033C19.3713 17.8731 17.872 19.3779 16.0391 19.3758V19.3774Z" fill="white"/>
<path d="M17.5401 15.9479C17.1671 15.9441 16.7936 15.9394 16.4206 15.9505C16.2644 15.9547 16.2136 15.9128 16.2178 15.751C16.2288 15.3149 16.2267 14.878 16.2178 14.4415C16.2132 14.1747 16.0641 14.0092 15.8528 14.0087C15.6416 14.0083 15.5018 14.1696 15.4989 14.4444C15.4955 14.7472 15.4989 15.0499 15.4989 15.3526H15.5018C15.5018 15.649 15.5018 15.9454 15.5018 16.2396C15.5018 16.5174 15.6289 16.6596 15.9096 16.663C16.4583 16.6718 17.0075 16.6718 17.557 16.663C17.8089 16.6588 17.9677 16.5 17.9605 16.2938C17.9533 16.0876 17.7941 15.95 17.5401 15.9479Z" fill="white"/>
</svg>
