<svg width="32" height="32" viewBox="0 0 32 32" fill="none" xmlns="http://www.w3.org/2000/svg">
<circle cx="16" cy="16" r="16" fill="#009ADA"/>
<path fill-rule="evenodd" clip-rule="evenodd" d="M7.33636 11.4319C6.70683 10.9897 7.01967 10 7.78895 10H24.211C24.9803 10 25.2932 10.9897 24.6636 11.4319L20.4191 14.413L17.0811 23.5694C16.8876 24.0588 16.4385 24.3045 16 24.3045C15.5615 24.3045 15.1124 24.0588 14.919 23.5694L14.9153 23.5601L11.5808 14.4129L7.33636 11.4319ZM12.6538 15.1665L15.618 23.2977C15.6203 23.3032 15.6226 23.3087 15.625 23.314L15.625 17.2533L12.6538 15.1665ZM16.375 17.2533L16.375 23.314C16.3774 23.3087 16.3797 23.3032 16.382 23.2977L19.3461 15.1666L16.375 17.2533ZM24.2326 10.8181L20.1143 13.7105L17.2481 10.75L24.211 10.75C24.2255 10.75 24.2325 10.7524 24.2332 10.7527C24.2344 10.7536 24.2418 10.7605 24.2468 10.7762C24.2517 10.7918 24.2493 10.8024 24.2488 10.8038C24.2485 10.8043 24.2446 10.8097 24.2326 10.8181ZM16.375 16.3368V10.9265L19.493 14.147L16.375 16.3368ZM15.625 10.9265V16.3368L12.507 14.147L15.625 10.9265ZM14.7519 10.75L11.8857 13.7105L7.76742 10.8181C7.75559 10.8098 7.75128 10.8038 7.75082 10.8032C7.7504 10.8018 7.74829 10.7918 7.75323 10.7762C7.75817 10.7605 7.7663 10.7533 7.76744 10.7524C7.76806 10.7522 7.77433 10.75 7.78895 10.75L14.7519 10.75Z" fill="white"/>
</svg>
