<svg width="32" height="32" viewBox="0 0 32 32" fill="none" xmlns="http://www.w3.org/2000/svg">
<circle cx="16" cy="16" r="16" fill="#EF494D"/>
<path d="M7 11.8467V12.8818C7 13.0744 7.15571 13.2301 7.34742 13.2301H12.1303C12.826 13.2301 13.1743 13.5478 13.1743 14.1824C13.1743 14.6441 12.826 14.9321 12.1303 15.0473H7.34742C7.30165 15.0473 7.25632 15.0564 7.21405 15.0739C7.17179 15.0915 7.13341 15.1172 7.10112 15.1497C7.06884 15.1821 7.04329 15.2207 7.02593 15.263C7.00858 15.3054 6.99977 15.3507 7 15.3965V16.4316C7 16.6233 7.15571 16.779 7.34742 16.779H12.1303C13.1158 16.8366 13.609 17.184 13.609 17.8176C13.609 18.4513 13.1158 18.7699 12.1303 18.7699H7.34742C7.25528 18.7699 7.16691 18.8065 7.10176 18.8716C7.03661 18.9368 7 19.0252 7 19.1173V20.1524C7 20.345 7.15571 20.5007 7.34742 20.5007H12.1303C13.5217 20.5007 15.6089 20.0687 15.6089 17.904C15.6089 16.9815 15.2039 16.2894 14.3921 15.8276C14.9717 15.3083 15.2615 14.7314 15.2615 14.0969C15.2615 12.5758 13.9565 11.5002 11.8701 11.5002H7.34832C7.2561 11.5002 7.16764 11.5368 7.10234 11.6019C7.03705 11.6671 7.00024 11.7554 7 11.8476V11.8467ZM16.392 11.8467V12.8818C16.392 13.0744 16.5477 13.2301 16.7394 13.2301H19.3486C19.5403 13.2301 19.696 13.3858 19.696 13.5784V20.1524C19.696 20.3441 19.8517 20.4998 20.0444 20.4998H21.3485C21.3942 20.4999 21.4395 20.491 21.4817 20.4736C21.524 20.4562 21.5624 20.4306 21.5948 20.3983C21.6271 20.3661 21.6528 20.3277 21.6703 20.2855C21.6878 20.2433 21.6968 20.1981 21.6968 20.1524V11.8467C21.6968 11.801 21.6878 11.7558 21.6703 11.7136C21.6528 11.6714 21.6271 11.633 21.5948 11.6008C21.5624 11.5685 21.524 11.5429 21.4817 11.5255C21.4395 11.5081 21.3942 11.4992 21.3485 11.4993H16.7403C16.6946 11.4992 16.6493 11.5081 16.6071 11.5255C16.5648 11.5429 16.5264 11.5685 16.494 11.6008C16.4617 11.633 16.436 11.6714 16.4185 11.7136C16.401 11.7558 16.392 11.801 16.392 11.8467ZM22.9128 11.4993C22.8207 11.4993 22.7323 11.5359 22.6671 11.6011C22.602 11.6662 22.5654 11.7546 22.5654 11.8467V12.8818C22.5654 13.0744 22.7211 13.2301 22.9128 13.2301H24.6526C24.7447 13.2301 24.8331 13.1935 24.8982 13.1284C24.9634 13.0632 25 12.9748 25 12.8827V11.8476C25.0001 11.8019 24.9912 11.7567 24.9738 11.7144C24.9564 11.6722 24.9308 11.6338 24.8986 11.6014C24.8663 11.569 24.8279 11.5434 24.7857 11.5259C24.7435 11.5083 24.6983 11.4993 24.6526 11.4993H22.9128Z" fill="white"/>
</svg>
