<svg width="32" height="32" viewBox="0 0 32 32" fill="none" xmlns="http://www.w3.org/2000/svg">
<circle cx="16" cy="16" r="16" fill="#FCB31B"/>
<path fill-rule="evenodd" clip-rule="evenodd" d="M15.6711 12.6103L15.7325 12.3182H9.73273L7.95073 19.6818H9.91109L11.2578 13.7205H13.6567L12.2274 19.6818H14.0102L15.4117 13.7205H15.4363L15.649 12.7158L15.6735 12.6103H15.6711ZM19.0592 12.3182L17.2772 19.6237H21.0138C21.4635 19.626 21.9108 19.5589 22.3401 19.4249C23.0495 19.1999 23.9126 18.7278 24.0501 17.7534H24.5844L24.7627 17.0522H24.1082C24.1082 17.0522 24.1679 16 22.8024 15.8249C22.8024 15.8249 23.9904 15.4739 24.1687 14.8308H24.7627L25 14.1296H24.3463C24.3463 14.1296 24.5835 12.4352 22.03 12.3182H19.0592ZM8.90064 13.7205L9.25818 12.3182H7.35673L7 13.7205H8.90064ZM17.0399 18.8636L17.6928 15.883L16.1489 12.4352L15.4944 15.2399L17.0399 18.8636ZM21.5841 15.2399H20.0696L20.4255 13.6624H21.5841C21.7968 13.6624 22.0014 13.7451 22.1511 13.8932C22.3008 14.0413 22.3859 14.2417 22.3859 14.4512C22.3859 14.6606 22.3016 14.8611 22.1511 15.0092C22.0005 15.1573 21.7968 15.2407 21.5841 15.2399ZM21.184 18.2794H19.3627L19.7915 16.4672H21.184C21.7191 16.4672 22.1486 16.873 22.1486 17.3737C22.1486 17.8736 21.7166 18.2794 21.184 18.2794Z" fill="white"/>
</svg>
