<svg width="32" height="32" viewBox="0 0 32 32" fill="none" xmlns="http://www.w3.org/2000/svg">
<circle cx="16" cy="16" r="16" fill="#46CA90"/>
<path d="M18.7536 12.5392C18.9912 12.7285 19.2088 12.9417 19.4029 13.1753L22.9203 10.2456C22.5777 9.83399 22.199 9.45343 21.7892 9.10876L18.7536 12.5392Z" fill="white"/>
<path d="M16 7C11.0294 7 7 11.0294 7 16C7 20.9706 11.0294 25 16 25C18.8084 25 21.3164 23.7137 22.9668 21.6981L19.4102 18.8159C18.599 19.7971 17.3725 20.4224 16 20.4224C13.5576 20.4224 11.5776 18.4424 11.5776 16C11.5776 13.5576 13.5576 11.5776 16 11.5776V7Z" fill="white"/>
<path d="M19.7752 18.3047L23.7252 20.6202C24.017 20.1333 24.2641 19.6166 24.4608 19.0757L20.1679 17.4822C20.065 17.7714 19.933 18.0468 19.7752 18.3047Z" fill="white"/>
<path d="M20.4224 16H25C25 15.426 24.9463 14.8646 24.8436 14.3204L20.3355 15.1232C20.3925 15.4066 20.4224 15.6998 20.4224 16Z" fill="white"/>
</svg>
