<svg width="32" height="32" viewBox="0 0 32 32" fill="none" xmlns="http://www.w3.org/2000/svg">
<circle cx="16" cy="16" r="16" fill="#EC0928"/>
<path d="M24.5189 12.7312C23.7889 12.2209 23.0085 11.6763 22.2452 11.1371C22.2276 11.1236 22.2093 11.1109 22.1904 11.0993C22.1006 11.0268 21.9993 10.9699 21.8906 10.931H21.8825C19.841 10.4378 17.7654 9.93098 15.7617 9.44222L10.299 8.11365L10.1558 8.07585C9.97691 8.01431 9.78735 7.98981 9.59867 8.00384C9.54307 8.01213 9.48994 8.0324 9.44295 8.06325L9.39254 8.10556C9.32873 8.17006 9.27987 8.24781 9.24942 8.33328L9.23682 8.36658V8.56101L9.24492 8.59071C10.3962 11.8176 11.578 15.0913 12.7167 18.2588C13.5943 20.6972 14.5052 23.2239 15.3954 25.7046C15.426 25.7884 15.4809 25.8612 15.553 25.9138C15.6251 25.9664 15.7113 25.9963 15.8004 25.9998H15.8428C15.9274 26.0022 16.0112 25.982 16.0854 25.9412C16.1597 25.9003 16.2216 25.8404 16.2649 25.7676L19.6061 20.8953C20.4204 19.7101 21.2344 18.5235 22.0481 17.3353C22.3812 16.8502 22.7142 16.3605 23.0482 15.8753C23.5963 15.0742 24.1616 14.247 24.7233 13.445L24.753 13.4027V13.3523C24.7738 13.2392 24.7636 13.1226 24.7235 13.0149C24.6834 12.9071 24.6149 12.8122 24.5252 12.7402L24.5189 12.7312ZM20.6106 14.5162C19.8258 14.9257 19.0247 15.347 18.2191 15.7646L19.6277 14.2542C20.2137 13.6241 20.8258 12.968 21.428 12.3262L21.4406 12.3136C21.4959 12.2435 21.5561 12.1773 21.6206 12.1156C21.6674 12.0688 21.7178 12.0256 21.7637 11.9679C22.076 12.1831 22.3938 12.4027 22.6962 12.6178C22.9158 12.7738 23.1394 12.9299 23.3668 13.0859C22.4388 13.5584 21.5108 14.0436 20.6124 14.5162H20.6106ZM18.5962 14.3136C17.9931 14.9671 17.3684 15.6386 16.7483 16.3002C15.5457 14.8402 14.318 13.3604 13.1289 11.9301L11.5087 9.97689C11.3863 9.83737 11.2684 9.68615 11.1487 9.54213C11.0731 9.44492 10.9929 9.35221 10.9128 9.255C11.4025 9.38191 11.8957 9.49983 12.3809 9.61504C12.8067 9.71585 13.2495 9.82207 13.6843 9.93099L21.0283 11.715C20.2182 12.5836 19.3955 13.4657 18.6025 14.3181L18.5962 14.3136ZM16.4809 22.5398C16.5277 22.0969 16.5781 21.6397 16.6204 21.1941C16.6583 20.8341 16.6961 20.4686 16.7348 20.114C16.7942 19.5532 16.8572 18.9708 16.9076 18.4037L16.9202 18.3029C16.9625 17.9429 17.0048 17.5648 17.03 17.1895C17.0791 17.1622 17.1299 17.1381 17.1821 17.1175C17.247 17.0909 17.3104 17.0608 17.372 17.0275C18.3466 16.5168 19.3223 16.0067 20.2992 15.4973C21.274 14.9914 22.2732 14.4676 23.2651 13.9491C22.365 15.257 21.4559 16.5774 20.5782 17.8637C19.8231 18.9645 19.0481 20.0996 18.2749 21.2175C17.9715 21.6676 17.6547 22.1176 17.3549 22.5587C17.0174 23.0483 16.6718 23.5488 16.3342 24.052C16.3765 23.5461 16.4242 23.0357 16.4818 22.538L16.4809 22.5398ZM10.5816 10.2388C10.5267 10.0867 10.4673 9.93099 10.4169 9.78337C11.5555 11.1587 12.7032 12.5422 13.8211 13.8834C14.399 14.5792 14.9768 15.2714 15.5547 15.9716C15.669 16.1022 15.7824 16.2417 15.8923 16.3767C16.0354 16.5495 16.1794 16.7313 16.3351 16.9042C16.2847 17.3389 16.2451 17.7773 16.1956 18.1994C16.1659 18.4947 16.1362 18.7899 16.1056 19.0896C16.093 19.2796 16.0678 19.4695 16.0462 19.6549C16.0165 19.9123 15.949 20.4947 15.949 20.4947V20.5244C15.8734 21.3768 15.7806 22.2346 15.6915 23.0726C15.6537 23.4183 15.6195 23.7729 15.5817 24.1276C15.561 24.0646 15.5349 24.0007 15.5142 23.9421C15.4512 23.7738 15.3873 23.5965 15.3288 23.4237L14.8787 22.1707C13.4488 18.1928 12.0188 14.2149 10.5888 10.237" fill="white"/>
</svg>
