<svg width="32" height="32" viewBox="0 0 32 32" fill="none" xmlns="http://www.w3.org/2000/svg">
<circle cx="16" cy="16" r="16" fill="#57A887"/>
<path d="M12.472 25V24.0146C12.6722 23.7809 12.9024 23.5748 13.1567 23.4016H18.7054C19.0187 23.6142 19.2954 23.8764 19.5246 24.1779V24.9971H12.472V25ZM12.472 21.8117V20.8979C12.6902 20.6158 12.9501 20.3685 13.2426 20.1646H18.6853C19.0021 20.3853 19.2807 20.6562 19.5103 20.9667V21.8088H12.472V21.8117ZM11.5869 12.6823C11.5064 12.77 11.4085 12.84 11.2996 12.8879C11.1906 12.9358 11.0728 12.9605 10.9538 12.9605C10.8348 12.9605 10.717 12.9358 10.608 12.8879C10.4991 12.84 10.4012 12.77 10.3207 12.6823L9.07463 11.3646C8.90526 11.1836 8.81104 10.945 8.81104 10.6971C8.81104 10.4492 8.90526 10.2106 9.07463 10.0297C9.15513 9.94198 9.25297 9.87197 9.36195 9.82407C9.47092 9.77618 9.58866 9.75145 9.7077 9.75145C9.82674 9.75145 9.94448 9.77618 10.0535 9.82407C10.1624 9.87197 10.2603 9.94198 10.3408 10.0297L11.5869 11.3474C11.7562 11.5284 11.8505 11.767 11.8505 12.0148C11.8505 12.2627 11.7562 12.5013 11.5869 12.6823ZM15.9926 10.7544C15.8718 10.7507 15.753 10.7232 15.6428 10.6736C15.5327 10.6239 15.4334 10.553 15.3507 10.465C15.2679 10.3769 15.2033 10.2734 15.1606 10.1604C15.1179 10.0473 15.0979 9.927 15.1017 9.80623V7.94138C15.0948 7.82033 15.1128 7.69915 15.1543 7.58527C15.1959 7.47138 15.2603 7.36718 15.3436 7.27905C15.4269 7.19092 15.5273 7.12071 15.6386 7.07273C15.75 7.02475 15.8699 7 15.9912 7C16.1124 7 16.2324 7.02475 16.3437 7.07273C16.4551 7.12071 16.5555 7.19092 16.6387 7.27905C16.722 7.36718 16.7864 7.47138 16.828 7.58527C16.8696 7.69915 16.8875 7.82033 16.8806 7.94138V9.80623C16.8848 9.92686 16.8652 10.0471 16.8228 10.1601C16.7804 10.2732 16.7161 10.3767 16.6336 10.4648C16.5511 10.5529 16.452 10.6238 16.342 10.6735C16.232 10.7232 16.1133 10.7507 15.9926 10.7544ZM22.9249 10.0125C23.0943 10.1935 23.1885 10.4321 23.1885 10.6799C23.1885 10.9278 23.0943 11.1664 22.9249 11.3474L21.6788 12.6651C21.5983 12.7528 21.5005 12.8228 21.3915 12.8707C21.2825 12.9186 21.1648 12.9433 21.0457 12.9433C20.9267 12.9433 20.809 12.9186 20.7 12.8707C20.591 12.8228 20.4932 12.7528 20.4127 12.6651C20.2433 12.4841 20.1491 12.2455 20.1491 11.9976C20.1491 11.7498 20.2433 11.5112 20.4127 11.3302L21.6588 10.0125C21.7393 9.92479 21.8371 9.85478 21.9461 9.80689C22.0551 9.75899 22.1728 9.73426 22.2918 9.73426C22.4109 9.73426 22.5286 9.75899 22.6376 9.80689C22.7466 9.85478 22.8444 9.92479 22.9249 10.0125ZM19.5246 17.3601V18.3198H12.472V17.3086L13.5004 16.7042H18.5048L19.5246 17.3601ZM15.9926 11.694C18.9431 11.694 21.3351 14.2206 21.3351 17.3372C21.3537 17.6645 21.3537 17.9925 21.3351 18.3198H19.8054C19.8054 18.3198 19.8455 17.406 19.8455 17.3372C19.8455 15.2604 18.0866 13.2294 16.0069 13.2781C13.8184 13.3297 12.1655 15.2604 12.1655 17.3372C12.1655 17.3859 12.2085 18.3198 12.2085 18.3198H10.6788C10.6516 17.993 10.643 17.665 10.653 17.3372C10.653 14.2206 13.0478 11.694 15.9926 11.694Z" fill="white"/>
</svg>
