<svg width="32" height="32" viewBox="0 0 32 32" fill="none" xmlns="http://www.w3.org/2000/svg">
<circle cx="16" cy="16" r="16" fill="#002868"/>
<path d="M16.429 8.323C21.0512 8.323 23.8077 11.049 24.963 13.1062C24.2652 10.8672 21.8673 7 16.429 7C10.1704 7 7.03711 11.5555 7.03711 15.5265C7.03711 19.7284 10.065 22.5416 13.812 22.5416C15.5977 22.5416 17.1706 21.9347 18.2921 20.7181C19.4083 19.5073 20.0054 17.7713 20.0054 15.6428V14.6618H18.5516V15.6428C18.5516 17.5055 18.0319 18.8554 17.2232 19.7327C16.4197 20.6043 15.2594 21.0878 13.812 21.0878C10.8714 21.0878 8.49096 18.9289 8.49096 15.5265C8.49096 12.2725 11.0567 8.323 16.429 8.323Z" fill="white"/>
<path d="M23.1748 17.4677C23.1748 14.5129 20.7795 12.1175 17.8247 12.1175C17.8247 11.5498 17.8247 11.2315 17.8247 10.6637C21.5824 10.6637 24.6287 13.71 24.6287 17.4677C24.6287 19.4052 23.4715 21.8461 21.2848 23.4866C19.0722 25.1466 14.9606 25.7692 11.2387 23.6466C15.9347 24.766 18.9849 23.6949 20.7159 22.3963C22.4727 21.0783 23.1748 19.0339 23.1748 17.4677Z" fill="white"/>
<path d="M17.8247 10.6637H11.3696V16.1302H14.4808V19.9102C15.2837 19.9102 15.9347 18.9103 15.9347 18.1074V14.6763H12.8234V12.1175H17.8247C17.8247 11.5498 17.8247 11.2315 17.8247 10.6637Z" fill="white"/>
</svg>
