<?xml version="1.0" encoding="utf-8"?>
<!-- Generator: Adobe Illustrator 21.1.0, SVG Export Plug-In . SVG Version: 6.00 Build 0)  -->
<svg version="1.1" id="Слой_1" xmlns="http://www.w3.org/2000/svg" xmlns:xlink="http://www.w3.org/1999/xlink" x="0px" y="0px"
	 viewBox="0 0 36 36" style="enable-background:new 0 0 36 36;" xml:space="preserve">
<style type="text/css">
	.st0{fill:#3d4f6c;}
</style>
<g>
	<g>
		<path class="st0" d="M18,13.3L18,13.3c-1.6,0-3,0.6-4.2,1.7l2.3,2.4c0.2-0.1,0.4-0.1,0.5-0.3l1.3,1.3l1.5-1.5
			c0.1,0.1,0.3,0.2,0.5,0.2c0,0,0.1,0,0.1,0l2.1-2.1C21.1,14,19.6,13.3,18,13.3z"/>
	</g>
	<g>
		<path class="st0" d="M14.2,17.1C14.2,17.1,14.2,17.1,14.2,17.1L14.2,17.1c0.2,0.1,0.3,0.2,0.5,0.2c0.3,0.1,0.6,0.1,0.9,0.1
			l-2.4-2.4C13,15.9,13.4,16.7,14.2,17.1z"/>
	</g>
	<g>
		<path class="st0" d="M22.9,15.8c0.1-0.2,0.1-0.4,0.1-0.6l-2.2,2.2C21.7,17.2,22.5,16.6,22.9,15.8z"/>
	</g>
	<g>
		<path class="st0" d="M18,0C8.1,0,0,8.1,0,18c0,9.9,8.1,18,18,18s18-8.1,18-18C36,8.1,27.9,0,18,0z M11.9,23.2
			c-2.5-0.2-6-0.8-8.2-2.8c-1.4-1.2-1.6-2.4-1.7-2.4L2,17.6h9.1L11.1,18c0,0.3-0.1,0.6-0.1,0.9c0,1.4,0.4,2.7,1.2,3.9l0.3,0.5
			L11.9,23.2z M18,22.7L18,22.7c-3.4,0-6.1-2.7-6.1-6.1c0-1.1,0.3-2.2,0.9-3.2l0.1-0.2l0.6,0.6c-0.1,0.2-0.2,0.3-0.3,0.5
			c-0.1,0.2-0.1,0.4-0.1,0.5l0.1-0.1c1.2-1.3,2.9-2,4.8-2h0c1.8,0,3.6,0.8,4.8,2.2l0.2,0.2c0-0.5-0.1-0.9-0.4-1.3l0.5-0.5v0l0.1,0.2
			c0.6,1,0.9,2,0.9,3.2C24.1,20,21.4,22.7,18,22.7z M32.3,20.4c-2.2,2-5.7,2.6-8.2,2.8l-0.6,0l0.3-0.5c0.8-1.1,1.2-2.5,1.2-3.9
			c0-0.3,0-0.6-0.1-0.9l0-0.3H34L33.9,18C33.9,18.1,33.7,19.2,32.3,20.4z"/>
	</g>
</g>
</svg>
