<?xml version="1.0" encoding="utf-8"?>
<!-- Generator: Adobe Illustrator 21.1.0, SVG Export Plug-In . SVG Version: 6.00 Build 0)  -->
<svg version="1.1" id="Слой_1" xmlns="http://www.w3.org/2000/svg" xmlns:xlink="http://www.w3.org/1999/xlink" x="0px" y="0px"
	 viewBox="0 0 36 36" style="enable-background:new 0 0 36 36;" xml:space="preserve">
<style type="text/css">
	.st0{fill:#3d4f6c;}
</style>
<g>
	<g>
		<ellipse class="st0" cx="11.8" cy="24.2" rx="4" ry="4"/>
	</g>
	<g>
		<path class="st0" d="M11.8,15.9c2.2,0,4-1.8,4-4h0c0-2.2-1.8-4-4-4c-2.2,0-4,1.8-4,4S9.6,15.9,11.8,15.9z"/>
	</g>
	<g>
		<path class="st0" d="M18,0C8.1,0,0,8.1,0,18c0,9.9,8.1,18,18,18s18-8.1,18-18C36,8.1,27.9,0,18,0z M6.1,10.7C6.7,7.9,9,6,11.8,6
			h5.8v1.8H16c1.9,2,2.2,5,0.6,7.3c-1.6,2.3-4.5,3.2-7.1,2.1C7,16.1,5.6,13.4,6.1,10.7z M11.8,30C8.6,30,6,27.4,6,24.2
			c0-3.2,2.6-5.8,5.8-5.8h0c3.2,0,5.8,2.6,5.8,5.8C17.6,27.4,15,30,11.8,30z M24.2,17.6c-3.2,0-5.8-2.6-5.8-5.8S21,6,24.2,6
			c3.2,0,5.8,2.6,5.8,5.8C30,15,27.4,17.6,24.2,17.6z"/>
	</g>
	<g>
		<ellipse class="st0" cx="24.2" cy="11.8" rx="4" ry="4"/>
	</g>
</g>
</svg>
