<?xml version="1.0" encoding="utf-8"?>
<!-- Generator: Adobe Illustrator 21.1.0, SVG Export Plug-In . SVG Version: 6.00 Build 0)  -->
<svg version="1.1" id="Слой_1" xmlns="http://www.w3.org/2000/svg" xmlns:xlink="http://www.w3.org/1999/xlink" x="0px" y="0px"
	 viewBox="0 0 36 36" style="enable-background:new 0 0 36 36;" xml:space="preserve">
<style type="text/css">
	.st0{fill:#3d4f6c;}
</style>
<g>
	<g>
		<path class="st0" d="M8.6,13.7c0,0,0.1,0,0.1-0.1c0.4-0.2,0.7-0.5,0.9-0.9c0,0,0.1-0.1,0.1-0.1c0.1-0.2,0.2-0.4,0.2-0.6l0,0H8v1.9
			l0,0C8.2,13.9,8.4,13.8,8.6,13.7z"/>
	</g>
	<g>
		<path class="st0" d="M18,14.6c-1.9,0-3.4,1.5-3.4,3.4c0,1.9,1.5,3.4,3.4,3.4c1.9,0,3.4-1.5,3.4-3.4C21.4,16.1,19.9,14.6,18,14.6z
			 M20,19h-3v-1v-2h1v2h2V19z"/>
	</g>
	<g>
		<path class="st0" d="M27.4,22.3c0,0-0.1,0-0.1,0.1c-0.4,0.2-0.7,0.5-0.9,0.9c0,0-0.1,0.1-0.1,0.1c-0.1,0.2-0.2,0.4-0.2,0.6
			c0,0,0,0,0,0H28v-1.9c0,0,0,0,0,0C27.8,22.1,27.6,22.2,27.4,22.3z"/>
	</g>
	<g>
		<path class="st0" d="M18,0C8.1,0,0,8.1,0,18c0,9.9,8.1,18,18,18s18-8.1,18-18C36,8.1,27.9,0,18,0z M30,14.9v0.9v5.2v1.2V26h-4.9
			h-0.9H10.9H9.8H6v-4.9v-0.9v-5.2v-1.2V10h4.9h0.9h13.2h1.2H30V14.9z"/>
	</g>
	<g>
		<path class="st0" d="M9.7,23.4c0,0,0-0.1-0.1-0.1c-0.2-0.4-0.5-0.7-0.9-0.9c0,0-0.1-0.1-0.1-0.1c-0.2-0.1-0.4-0.2-0.6-0.2
			c0,0,0,0,0,0V24h1.9l0,0C9.9,23.8,9.8,23.6,9.7,23.4z"/>
	</g>
	<g>
		<path class="st0" d="M27.4,15.9c-0.2,0-0.3-0.1-0.5-0.2c-0.1,0-0.2-0.1-0.3-0.1c-0.2-0.1-0.3-0.2-0.5-0.3c-0.1,0-0.2-0.1-0.2-0.1
			c-0.2-0.2-0.4-0.3-0.6-0.5c0,0,0,0,0,0c-0.2-0.2-0.4-0.4-0.5-0.6c0-0.1-0.1-0.1-0.1-0.2c-0.1-0.2-0.2-0.3-0.3-0.5
			c0-0.1-0.1-0.2-0.1-0.3c-0.1-0.2-0.1-0.3-0.2-0.5c0-0.1,0-0.2-0.1-0.3c0-0.1,0-0.2,0-0.2H12c0,0.1,0,0.2,0,0.2
			c0,0.1,0,0.2-0.1,0.3c0,0.2-0.1,0.3-0.2,0.5c0,0.1-0.1,0.2-0.1,0.3c-0.1,0.2-0.2,0.3-0.3,0.5c0,0.1-0.1,0.2-0.1,0.2
			c-0.2,0.2-0.3,0.4-0.5,0.6c0,0,0,0,0,0c-0.2,0.2-0.4,0.4-0.6,0.5c-0.1,0.1-0.2,0.1-0.2,0.1c-0.2,0.1-0.3,0.2-0.5,0.3
			c-0.1,0-0.2,0.1-0.3,0.1c-0.2,0.1-0.3,0.1-0.5,0.2c-0.1,0-0.2,0-0.3,0.1c-0.1,0-0.2,0-0.2,0V20c0.1,0,0.2,0,0.2,0
			c0.1,0,0.2,0,0.3,0.1c0.2,0,0.3,0.1,0.5,0.2c0.1,0,0.2,0.1,0.3,0.1c0.2,0.1,0.3,0.2,0.5,0.3c0.1,0,0.2,0.1,0.2,0.1
			c0.2,0.2,0.4,0.3,0.6,0.5c0,0,0,0,0,0c0.2,0.2,0.4,0.4,0.5,0.6c0.1,0.1,0.1,0.2,0.1,0.2c0.1,0.2,0.2,0.3,0.3,0.5
			c0,0.1,0.1,0.2,0.1,0.3c0.1,0.2,0.1,0.3,0.2,0.5c0,0.1,0,0.2,0.1,0.3c0,0.1,0,0.2,0,0.2H24c0-0.1,0-0.2,0-0.2c0-0.1,0-0.2,0.1-0.3
			c0-0.2,0.1-0.3,0.2-0.5c0-0.1,0.1-0.2,0.1-0.3c0.1-0.2,0.2-0.3,0.3-0.5c0-0.1,0.1-0.2,0.1-0.2c0.3-0.4,0.7-0.8,1.1-1.1
			c0.1,0,0.1-0.1,0.2-0.1c0.2-0.1,0.3-0.2,0.5-0.3c0.1,0,0.2-0.1,0.3-0.1c0.2-0.1,0.3-0.1,0.5-0.2c0.1,0,0.2,0,0.3-0.1
			c0.1,0,0.2,0,0.2,0V16c-0.1,0-0.2,0-0.2,0C27.7,15.9,27.5,15.9,27.4,15.9z M18,23.4c-3,0-5.4-2.4-5.4-5.4c0-3,2.4-5.4,5.4-5.4
			c3,0,5.4,2.4,5.4,5.4C23.4,21,21,23.4,18,23.4z"/>
	</g>
	<g>
		<path class="st0" d="M26.1,12c0,0.2,0.1,0.4,0.2,0.6c0,0,0,0.1,0.1,0.1c0.2,0.4,0.5,0.7,0.9,0.9c0,0,0.1,0.1,0.1,0.1
			c0.2,0.1,0.4,0.2,0.6,0.2l0,0V12L26.1,12C26.1,12,26.1,12,26.1,12z"/>
	</g>
</g>
</svg>
