<svg width="32" height="32" viewBox="0 0 32 32" fill="none" xmlns="http://www.w3.org/2000/svg">
<circle cx="16" cy="16" r="16" fill="#5F7985"/>
<path d="M21.8258 14.9369C23.5881 14.9517 24.9972 13.5286 24.9972 11.7377C25.0733 10.0808 23.566 8.58993 21.8323 8.59892C20.2335 8.60709 18.6707 9.94352 18.6805 11.7712C18.6895 13.4869 20.115 14.9222 21.8258 14.9369Z" fill="white"/>
<path d="M8.27996 8.64038C7.85335 8.64175 7.4267 8.64313 7 8.64469V8.97165C7.16327 9.27122 7.32699 9.5708 7.4908 9.87055C7.95274 10.7158 8.41543 11.5625 8.871 12.4145C11.121 16.6137 13.3702 20.8131 15.6185 25.0129C15.6854 25.1624 15.7848 25.295 15.9095 25.4011H16.073C16.1548 25.3104 16.2289 25.2131 16.2945 25.1101C16.6102 24.5224 16.9245 23.9339 17.2387 23.3455C17.6356 22.6023 18.0324 21.8593 18.432 21.118C18.553 20.8941 18.5006 20.7142 18.3895 20.5083C17.4953 18.843 16.601 17.1774 15.7068 15.5116C14.5336 13.3319 13.362 11.1522 12.192 8.97246C12.0817 8.76648 11.9509 8.62589 11.6926 8.62589C10.5548 8.63303 9.41751 8.6367 8.27996 8.64038Z" fill="white"/>
</svg>
