<svg width="32" height="32" viewBox="0 0 32 32" fill="none" xmlns="http://www.w3.org/2000/svg">
<circle cx="16" cy="16" r="16" fill="#2BAAF4"/>
<path d="M14.7388 24.734L7.03868 9.05138C7.01035 8.99352 6.99721 8.9294 7.0005 8.86506C7.00378 8.80071 7.02339 8.73827 7.05748 8.6836C7.09156 8.62892 7.139 8.58383 7.19532 8.55255C7.25165 8.52127 7.315 8.50484 7.37943 8.50481H10.0471C10.1177 8.50417 10.1871 8.52306 10.2477 8.55938C10.3082 8.5957 10.3575 8.64804 10.3902 8.71063L16.0137 20.0881C16.126 20.3176 16.3005 20.511 16.5173 20.6463C16.7341 20.7816 16.9845 20.8533 17.2401 20.8533C17.4956 20.8533 17.746 20.7816 17.9628 20.6463C18.1796 20.511 18.3541 20.3176 18.4664 20.0881L24.0683 8.71978C24.1009 8.65719 24.1502 8.60485 24.2108 8.56853C24.2713 8.53221 24.3407 8.51332 24.4113 8.51395H24.7429C24.7871 8.51418 24.8304 8.52571 24.8688 8.54745C24.9073 8.56919 24.9395 8.60041 24.9624 8.63814C24.9853 8.67586 24.9982 8.71883 24.9998 8.76295C25.0014 8.80706 24.9917 8.85086 24.9716 8.89015L17.1961 24.734C17.0824 24.9626 16.9071 25.155 16.6901 25.2895C16.473 25.424 16.2227 25.4952 15.9674 25.4952C15.7121 25.4952 15.4618 25.424 15.2447 25.2895C15.0277 25.155 14.8524 24.9626 14.7388 24.734Z" fill="white"/>
</svg>
