<svg width="32" height="32" viewBox="0 0 32 32" fill="none" xmlns="http://www.w3.org/2000/svg">
<circle cx="16" cy="16" r="16" fill="#FF9933"/>
<path d="M7 8.80013V8.80913C8.0575 13.5161 9.115 18.2231 10.1743 22.9283H13.7536L16.9279 8.80013H14.0443L12.3307 17.5301C12.2074 18.1196 12.1147 18.7181 11.9671 19.3031C11.9275 19.157 11.8927 19.0096 11.8627 18.8612L9.98169 8.80013C8.9872 8.80283 7.9927 8.80283 7 8.80013ZM18.0826 13.2389V13.238C17.3689 14.1092 17.17 15.2738 17.0863 16.3736C17.0233 17.5013 17.0314 18.6371 17.1646 19.7594C17.2978 20.7341 17.6335 21.7511 18.403 22.3928C19.231 23.0921 20.3587 23.2334 21.3973 23.1938C22.3531 23.1551 23.3629 22.8365 23.9893 22.0571C24.6139 21.3074 24.7903 20.2994 24.8443 19.3454H22.4467C22.3603 19.9205 22.2775 20.5487 21.8815 20.9969C21.5845 21.3245 21.0949 21.4109 20.6881 21.2786C20.3065 21.1418 20.0671 20.7701 19.9375 20.3948C19.6711 19.6343 19.7215 18.8144 19.7179 18.0206H25C25.0009 16.9451 24.9892 15.8606 24.7633 14.8076C24.577 13.9652 24.1846 13.1192 23.4691 12.6188C22.6609 12.05 21.6331 11.9636 20.6791 12.0302C19.7125 12.0932 18.7099 12.4505 18.0826 13.2389ZM20.1292 14.3594H20.1301C20.5756 13.6916 21.742 13.6934 22.1101 14.4395C22.408 15.0425 22.4035 15.74 22.4458 16.3997H19.717C19.7098 15.7058 19.7206 14.948 20.1292 14.3594Z" fill="white"/>
</svg>
