<svg width="32" height="32" viewBox="0 0 32 32" fill="none" xmlns="http://www.w3.org/2000/svg">
<circle cx="16" cy="16" r="16" fill="#0E0D13"/>
<path d="M21.967 16.9262C21.643 16.8416 21.319 16.7705 20.9806 16.6859C22.3279 14.6636 23.6599 12.662 25 10.6389C24.9594 10.6339 24.9185 10.6315 24.8776 10.6317C24.0208 10.6317 23.1631 10.6317 22.3063 10.6245C22.1767 10.6245 22.1335 10.6875 22.0759 10.773C20.4919 13.1624 18.9071 15.5537 17.3222 17.9477C16.8902 18.6038 16.451 19.259 15.9974 19.943C15.9592 19.8993 15.9255 19.852 15.8966 19.8017C13.9305 16.793 11.9616 13.7861 9.98996 10.7811C9.96416 10.7295 9.9238 10.6867 9.87388 10.6579C9.82397 10.6291 9.76669 10.6156 9.70917 10.6191C8.89558 10.6254 8.08199 10.6191 7.2675 10.6254C7.2171 10.6254 7.1595 10.6326 7.0803 10.6398C8.39878 12.6413 9.68757 14.615 10.9917 16.6094C10.9413 16.6238 10.9125 16.6238 10.8837 16.631C10.278 16.7858 9.67317 16.919 9.07558 17.1035C8.47798 17.288 7.90199 17.5265 7.43309 17.9495C6.8427 18.4778 6.8571 19.0277 7.46909 19.5425C7.49069 19.5632 7.51949 19.5767 7.54109 19.5983C7.95959 19.9295 8.44108 20.1473 8.94598 20.3246C10.5381 20.8952 12.2012 21.1139 13.8869 21.2336C13.9381 21.2344 13.9882 21.2484 14.0323 21.2742C14.0765 21.3001 14.1132 21.3369 14.1389 21.3812C14.7495 22.325 15.3666 23.2646 15.9902 24.1999C16.0289 24.136 16.0712 24.0739 16.1198 24.0163C16.7102 23.1352 17.2934 22.2541 17.8838 21.374C17.9057 21.3397 17.9341 21.3102 17.9675 21.287C18.0008 21.2639 18.0385 21.2475 18.0782 21.239C18.9215 21.1337 19.7711 21.0635 20.6071 20.9366C21.6367 20.7818 22.6447 20.5208 23.5951 20.0627C23.9704 19.8863 24.3232 19.6757 24.5824 19.3436C24.8776 18.9629 24.8992 18.5822 24.5752 18.2231C24.3559 18.012 24.1145 17.8253 23.8552 17.666C23.2711 17.306 22.6231 17.1026 21.9679 16.9262H21.967ZM9.60837 18.6182C9.52265 18.5301 9.47529 18.4116 9.47664 18.2887C9.47799 18.1657 9.52794 18.0483 9.61557 17.9621C9.77127 17.7803 9.95937 17.6273 10.17 17.5112C10.494 17.3555 10.8288 17.2214 11.1717 17.1089C11.204 17.1035 11.2372 17.1058 11.2685 17.1156C11.2997 17.1255 11.3282 17.1426 11.3517 17.1656C11.9348 18.0467 12.5108 18.935 13.0949 19.8161C13.1021 19.8296 13.1021 19.8512 13.1165 19.9007C12.086 19.745 11.0916 19.5695 10.1916 19.0907C9.97287 18.9654 9.77592 18.8064 9.60837 18.6182ZM20.9518 19.3787C20.3255 19.5551 19.6847 19.6964 19.0511 19.8512C18.9937 19.8584 18.9356 19.8584 18.8783 19.8512C19.1015 19.5128 19.3175 19.1816 19.5335 18.8576C19.8791 18.3428 20.2247 17.828 20.563 17.3069C20.6278 17.2079 20.6926 17.1656 20.8006 17.2223C21.1183 17.3771 21.4423 17.5247 21.7519 17.6804C21.8419 17.7344 21.9247 17.801 21.9967 17.8775C22.2847 18.1736 22.2847 18.4985 21.9967 18.7865C21.706 19.0682 21.3451 19.2725 20.9518 19.3787ZM20.959 9.80008H11.0277L16.0262 17.6588L20.959 9.80008Z" fill="white"/>
</svg>
