<svg width="32" height="32" viewBox="0 0 32 32" fill="none" xmlns="http://www.w3.org/2000/svg">
<circle cx="16" cy="16" r="16" fill="#4DD8B9"/>
<path d="M7 9.35C7 8.85294 7.40294 8.45 7.9 8.45C8.39706 8.45 8.8 8.85294 8.8 9.35V12.05C8.8 12.5471 8.39706 12.95 7.9 12.95C7.40294 12.95 7 12.5471 7 12.05V9.35Z" fill="white"/>
<path d="M23.2 9.35C23.2 8.85294 23.6029 8.45 24.1 8.45C24.5971 8.45 25 8.85294 25 9.35V12.05C25 12.5471 24.5971 12.95 24.1 12.95C23.6029 12.95 23.2 12.5471 23.2 12.05V9.35Z" fill="white"/>
<path d="M10.6 8.45C10.1029 8.45 9.7 8.85294 9.7 9.35V16.55C9.7 17.0471 10.1029 17.45 10.6 17.45C11.0971 17.45 11.5 17.0471 11.5 16.55V9.35C11.5 8.85294 11.0971 8.45 10.6 8.45Z" fill="white"/>
<path d="M20.5 9.35C20.5 8.85294 20.9029 8.45 21.4 8.45C21.8971 8.45 22.3 8.85294 22.3 9.35V16.55C22.3 17.0471 21.8971 17.45 21.4 17.45C20.9029 17.45 20.5 17.0471 20.5 16.55V9.35Z" fill="white"/>
<path d="M13.3 12.05C12.8029 12.05 12.4 12.4529 12.4 12.95V20.15C12.4 20.6471 12.8029 21.05 13.3 21.05C13.7971 21.05 14.2 20.6471 14.2 20.15V12.95C14.2 12.4529 13.7971 12.05 13.3 12.05Z" fill="white"/>
<path d="M17.8 12.95C17.8 12.4529 18.2029 12.05 18.7 12.05C19.1971 12.05 19.6 12.4529 19.6 12.95V20.15C19.6 20.6471 19.1971 21.05 18.7 21.05C18.2029 21.05 17.8 20.6471 17.8 20.15V12.95Z" fill="white"/>
<path d="M16 16.55C15.5029 16.55 15.1 16.9529 15.1 17.45V24.65C15.1 25.1471 15.5029 25.55 16 25.55C16.4971 25.55 16.9 25.1471 16.9 24.65V17.45C16.9 16.9529 16.4971 16.55 16 16.55Z" fill="white"/>
</svg>
