<svg width="32" height="32" viewBox="0 0 32 32" fill="none" xmlns="http://www.w3.org/2000/svg">
<circle cx="16" cy="16" r="16" fill="#E60060"/>
<path d="M10.9809 12.0192L16.0001 7L21.0193 12.0192L10.9809 12.0192Z" fill="white"/>
<path d="M10.754 12.9279L16.0001 21.3654L21.2462 12.9279L10.754 12.9279Z" fill="white"/>
<path d="M23.8751 20.5865L16.8655 21.5111L21.7982 13.4904L23.8751 20.5865Z" fill="white"/>
<path d="M10.202 13.4904L8.12511 20.5L15.1669 21.4961L10.202 13.4904Z" fill="white"/>
<path d="M18.1636 8.03846L22.0578 11.9327L23.529 10.8077L18.1636 8.03846Z" fill="white"/>
<path d="M22.577 12.7981L23.9617 11.6731V17.9038L22.577 12.7981Z" fill="white"/>
<path d="M16.4328 25V22.5769L22.1443 21.7981L16.4328 25Z" fill="white"/>
<path d="M9.94242 11.9327L13.8367 8.03846L8.47127 10.8077L9.94242 11.9327Z" fill="white"/>
<path d="M8.03857 11.6731L9.42319 12.7981L8.03857 17.9038V11.6731Z" fill="white"/>
<path d="M15.5674 22.5769V25L9.85588 21.7981L15.5674 22.5769Z" fill="white"/>
</svg>
