<svg width="32" height="32" viewBox="0 0 32 32" fill="none" xmlns="http://www.w3.org/2000/svg">
<circle cx="16" cy="16" r="16" fill="#1AA6C2"/>
<path fill-rule="evenodd" clip-rule="evenodd" d="M23.1808 11.501L22.5278 12.1637C23.0474 12.9909 23.2102 14.0292 22.8551 15.0225C22.2611 16.7079 20.421 17.5965 18.7446 16.9943C18.5073 16.9043 18.2848 16.7979 18.0917 16.6629L15.9996 18.7853L14.175 16.9198C13.7468 17.2101 13.2563 17.3953 12.7431 17.4606C12.2299 17.5258 11.7086 17.4692 11.2214 17.2954C10.3931 16.9894 9.71938 16.3684 9.34697 15.5678C8.97456 14.7672 8.93367 13.8518 9.23321 13.0212C9.32321 12.7504 9.45657 12.509 9.60466 12.284L8.81839 11.4863L8.66948 11.7416C7.84555 13.1091 7.40994 14.6753 7.40948 16.2718C7.3923 21.0737 11.2508 25.001 15.9832 25.001H15.9996C20.7328 25.001 24.5758 21.1032 24.5905 16.3021C24.5905 14.7066 24.1601 13.1415 23.3444 11.7718L23.1808 11.501ZM10.5693 13.2617C10.3376 13.5756 10.2128 13.9557 10.2134 14.3458C10.2134 15.3236 10.9988 16.1213 11.9643 16.1213C12.3644 16.1213 12.735 15.9863 13.032 15.7449L10.5693 13.2617ZM19.1602 15.5944C19.4417 15.7907 19.7681 15.8955 20.1396 15.8955C21.1034 15.8955 21.8905 15.0977 21.8905 14.12C21.8905 13.7584 21.7866 13.4123 21.5935 13.1267L19.1602 15.5944ZM16.029 17.4606L23.0327 10.3875L22.7651 10.0864C21.9095 9.11974 20.859 8.3451 19.6826 7.81334C18.5063 7.28158 17.2308 7.00474 15.9398 7.00101H15.9251C13.3585 7.00101 10.9694 8.05483 9.21848 9.93583L8.93703 10.2369L16.029 17.4606ZM10.0939 10.2361C10.8634 9.47284 11.7758 8.8687 12.7788 8.4582C13.7819 8.04771 14.856 7.83891 15.9398 7.84373H15.9554C18.1808 7.84373 20.3171 8.76173 21.8897 10.3572L16.029 16.2726L10.0939 10.2361Z" fill="white"/>
</svg>
