<svg width="32" height="32" viewBox="0 0 32 32" fill="none" xmlns="http://www.w3.org/2000/svg">
<circle cx="16" cy="16" r="16" fill="#181EA2"/>
<path d="M20.0116 7L18.1386 8.87295C17.503 8.41989 16.7264 8.15229 15.8879 8.15229C13.7442 8.15216 12 9.8963 12 12.0402C12 13.9632 13.4036 15.5636 15.2399 15.8731V17.2791C13.4036 17.5887 12 19.1891 12 21.1121C12 23.2558 13.7441 25 15.8879 25C18.0317 25 19.7758 23.2559 19.7758 21.1121C19.7758 19.1891 18.3722 17.5887 16.5358 17.2791V15.8731C18.3722 15.5636 19.7758 13.9632 19.7758 12.0402C19.7758 11.2017 19.5082 10.4251 19.0551 9.78948L20.9281 7.9164L20.0116 7ZM18.4798 21.1121C18.4798 22.5412 17.3171 23.7041 15.8879 23.7041C14.4588 23.7041 13.2959 22.5412 13.2959 21.1121C13.2959 19.6829 14.4588 18.5201 15.8879 18.5201C17.3171 18.5202 18.4798 19.6829 18.4798 21.1121ZM15.8879 14.6322C14.4588 14.6322 13.2959 13.4694 13.2959 12.0402C13.2959 10.611 14.4588 9.44824 15.8879 9.44824C17.3171 9.44824 18.4798 10.611 18.4798 12.0402C18.4798 13.4694 17.3171 14.6322 15.8879 14.6322Z" fill="white"/>
</svg>
