<svg width="32" height="32" viewBox="0 0 32 32" fill="none" xmlns="http://www.w3.org/2000/svg">
<circle cx="16" cy="16" r="16" fill="#383838"/>
<path d="M23.9968 13.1178H23.1093V14.121L22.1061 14.121V15.0085H23.1093V16.0117H23.9968V15.0085H25V14.121H23.9968V13.1178Z" fill="white"/>
<path d="M18.2862 14.121H17.3987V18.867H18.2862V14.121Z" fill="white"/>
<path d="M19.7524 14.121V18.867H21.6045C22.1046 18.867 22.6709 18.7354 23.1252 18.4235C23.5926 18.1028 23.9356 17.5914 23.9389 16.89L23.9389 16.494H23.09V16.8799C23.09 17.2729 22.9132 17.5395 22.6449 17.7236C22.3613 17.9183 21.9726 18.0181 21.6045 18.0181H20.6399V14.9699L21.5659 14.9699V14.121H19.7524Z" fill="white"/>
<path fill-rule="evenodd" clip-rule="evenodd" d="M12.4984 14.121H14.3119V14.1211C14.6679 14.1243 15.085 14.2176 15.4241 14.4857C15.7852 14.7711 16.0096 15.2172 16.0096 15.8188C16.0096 16.4318 15.7787 16.8808 15.4058 17.1639C15.3333 17.219 15.2574 17.2663 15.1795 17.3066L16.2412 18.867H15.1222L14.2124 17.5165H13.3859V18.867H12.4984V14.121ZM14.254 16.7062C14.5089 16.7062 14.7491 16.6451 14.9158 16.5186C15.0638 16.4062 15.1994 16.2089 15.1994 15.8188C15.1994 15.4364 15.0669 15.2362 14.9216 15.1213C14.7604 14.9939 14.5305 14.9313 14.2926 14.9313H13.3859V16.7062H14.254Z" fill="white"/>
<path d="M9.43087 14.121C8.98694 14.121 8.39472 14.2632 7.90261 14.6221C7.39277 14.994 7 15.5945 7 16.4554C7 17.2962 7.34164 17.9203 7.84611 18.325C8.33712 18.719 8.9568 18.8863 9.50804 18.8863C10.357 18.8863 10.9064 18.5697 11.1172 18.2969L11.2058 18.1823V16.494H10.3569V17.8436C10.3233 17.8642 10.2791 17.8877 10.2227 17.9115C10.0674 17.9768 9.83266 18.0374 9.50804 18.0374C9.11394 18.0374 8.69182 17.9153 8.37736 17.663C8.07636 17.4214 7.84887 17.0422 7.84887 16.4554C7.84887 15.8887 8.09276 15.5342 8.40285 15.308C8.73068 15.0688 9.14168 14.9699 9.43087 14.9699C10.0199 14.9699 10.3866 15.1691 10.5614 15.275L11.0013 14.549C10.7516 14.3977 10.2309 14.121 9.43087 14.121Z" fill="white"/>
</svg>
