<svg width="32" height="32" viewBox="0 0 32 32" fill="none" xmlns="http://www.w3.org/2000/svg">
<circle cx="16" cy="16" r="16" fill="#FFA143"/>
<path d="M16.1998 24.027V7.97297C16.1998 7.43561 15.7641 7 15.2268 7H12.3079C10.5883 7 9.19436 8.39397 9.19436 10.1135V21.7853C9.19436 21.9155 9.16168 22.0437 9.09931 22.158L8.47729 23.2984C8.2102 23.7881 8.29763 24.3952 8.69203 24.7896C8.82677 24.9243 9.00952 25 9.20007 25H15.2268C15.7641 25 16.1998 24.5644 16.1998 24.027Z" fill="white"/>
<path d="M17.5619 13.4216V7.97297C17.5619 7.43561 17.9975 7 18.5349 7H20.4808C21.9854 7 23.2052 8.21972 23.2052 9.72432V13.4216C23.2052 13.959 22.7696 14.3946 22.2322 14.3946H18.5349C17.9975 14.3946 17.5619 13.959 17.5619 13.4216Z" fill="white"/>
<path d="M22.8721 15.6595H18.5349C17.9975 15.6595 17.5619 16.0951 17.5619 16.6324V24.027C17.5619 24.5644 17.9975 25 18.5349 25H20.1994C21.8115 25 23.1184 23.6932 23.1184 22.0811V17.949C23.1184 17.8657 23.1362 17.7833 23.1707 17.7074L23.6238 16.711C23.7234 16.4919 23.6784 16.2342 23.5105 16.0619L23.2902 15.8358C23.1803 15.7231 23.0295 15.6595 22.8721 15.6595Z" fill="white"/>
</svg>
