<svg width="32" height="32" viewBox="0 0 32 32" fill="none" xmlns="http://www.w3.org/2000/svg">
<circle cx="16" cy="16" r="16" fill="#7E27FF"/>
<path d="M15.547 10.7219C14.762 9.3719 14.044 8.4539 13.37 7.9579C12.538 7.3449 11.685 7.3399 11.017 7.9959C10.382 8.6189 10.323 9.4059 10.81 10.1499C10.937 10.3429 11.1 10.5339 11.298 10.7219H8.358C7.568 10.7219 7 11.3889 7 12.0549C7 12.8309 7.68 13.3889 8.358 13.3889H15.376V11.6109H16.508V13.3889H23.642C24.432 13.3889 25 12.7219 25 12.0549C25 11.2799 24.32 10.7219 23.642 10.7219H20.734C20.926 10.5239 21.081 10.3219 21.196 10.1159C21.608 9.3759 21.491 8.6079 20.867 7.9959C20.199 7.3399 19.347 7.3459 18.515 7.9579C17.84 8.4539 17.122 9.3729 16.338 10.7219H15.547ZM14.231 10.7219H13.211C12.495 10.3159 11.998 9.9089 11.761 9.5479C11.555 9.2319 11.571 9.0239 11.817 8.7809C12.058 8.5449 12.282 8.5459 12.69 8.8469C13.133 9.1719 13.652 9.7989 14.231 10.7219ZM17.653 10.7219C18.233 9.7989 18.751 9.1719 19.193 8.8469C19.602 8.5469 19.826 8.5449 20.067 8.7809C20.337 9.0469 20.373 9.2779 20.203 9.5819C20.007 9.9339 19.556 10.3299 18.873 10.7219H17.653ZM15.376 14.5009H8.02V21.7229C8.012 22.4619 8.308 23.1729 8.84 23.6949C9.372 24.2169 10.097 24.5079 10.85 24.5009H15.377L15.376 14.5009ZM16.508 14.5009V24.5009H21.036C21.786 24.5091 22.5086 24.2192 23.045 23.6949C23.3074 23.4384 23.5153 23.1314 23.6562 22.7926C23.7971 22.4537 23.8682 22.0899 23.865 21.7229V14.4999L16.508 14.5009Z" fill="white"/>
</svg>
