<svg width="32" height="32" viewBox="0 0 32 32" fill="none" xmlns="http://www.w3.org/2000/svg">
<circle cx="16" cy="16" r="16" fill="#27DCD9"/>
<path d="M15.991 13.0131L18.511 10.4751C17.7602 9.25751 16.9209 8.09669 16 7.00201C15.0776 8.1014 14.2371 9.26704 13.4854 10.4895L15.991 13.0131ZM21.1372 15.5421C20.4541 14.0337 19.7737 12.6315 18.9862 11.2689L15.991 14.2857L13.012 11.2851C12.2668 12.5793 11.6098 13.9257 10.96 15.3864C10.2526 17.3682 9.08981 19.5058 10.087 21.4084C11.8033 24.688 15.8353 25.957 19.0924 24.2299C20.288 23.5917 21.2639 22.6086 21.8932 21.4084C22.8824 19.5058 21.8446 17.523 21.1372 15.5421Z" fill="white"/>
</svg>
