<svg width="32" height="32" viewBox="0 0 32 32" fill="none" xmlns="http://www.w3.org/2000/svg">
<circle cx="16" cy="16" r="16" fill="#355666"/>
<path fill-rule="evenodd" clip-rule="evenodd" d="M25 14.1242C25 13.7651 24.9784 13.4069 24.9334 13.0505H10.3966C10.3264 13.4041 10.2911 13.7637 10.2913 14.1242C10.2913 17.2085 12.8518 19.7195 15.9973 19.7195C18.4435 19.7168 20.6161 18.1895 21.4036 15.9206H19.672C18.8701 17.501 17.1097 18.3848 15.3322 18.0986C13.5556 17.8115 12.1768 16.4219 11.9329 14.6723H23.3818C23.0965 18.419 19.8961 21.3818 16.0027 21.3818C11.923 21.3818 8.6038 18.1265 8.6038 14.126C8.6038 13.7669 8.6308 13.4078 8.6848 13.0523H7.0666C7.0216 13.4087 7 13.7678 7 14.126C7 18.9914 11.0383 22.9505 16 22.9505C20.9617 22.9505 25 18.9905 25 14.1242Z" fill="white"/>
</svg>
