<?xml version="1.0" encoding="utf-8"?>
<!-- Generator: Adobe Illustrator 21.1.0, SVG Export Plug-In . SVG Version: 6.00 Build 0)  -->
<svg version="1.1" id="Слой_1" xmlns="http://www.w3.org/2000/svg" xmlns:xlink="http://www.w3.org/1999/xlink" x="0px" y="0px"
	 viewBox="0 0 36 36" style="enable-background:new 0 0 36 36;" xml:space="preserve">
<style type="text/css">
	.st0{fill:#0050db;}
</style>
<g>
	<path class="st0" d="M18,0C8.1,0,0,8.1,0,18c0,9.9,8.1,18,18,18s18-8.1,18-18C36,8.1,27.9,0,18,0z M24,14l1,1l-1,1l-1-1L24,14z
		 M23,12l1-1l1,1l-1,1L23,12z M24,19l-1-1l1-1l1,1L24,19z M25,21l-1,1l-1-1l1-1L25,21z M23.5,16.5l-1,1l-1-1l1-1L23.5,16.5z M22,18
		l-1,1l-1-1l1-1L22,18z M22.5,18.5l1,1l-1,1l-1-1L22.5,18.5z M24,23l1,1l-1,1l-1-1L24,23z M24.5,22.5l1-1l1,1l-1,1L24.5,22.5z
		 M25.5,14.5l-1-1l1-1l1,1L25.5,14.5z M24.5,10.5l1-1l1,1l-1,1L24.5,10.5z M24,8l1,1l-1,1l-1-1L24,8z M22.5,9.5l1,1l-1,1l-1-1
		L22.5,9.5z M21,11l1,1l-1,1l-1-1L21,11z M20.5,13.5l-1,1l-1-1l1-1L20.5,13.5z M18,16l-1-1l1-1l1,1L18,16z M19,21l-1,1l-1-1l1-1
		L19,21z M18,11l1,1l-1,1l-1-1L18,11z M17.5,13.5l-1,1l-1-1l1-1L17.5,13.5z M12,17l1,1l-1,1l-1-1L12,17z M11,15l1-1l1,1l-1,1L11,15z
		 M12.5,16.5l1-1l1,1l-1,1L12.5,16.5z M12,13l-1-1l1-1l1,1L12,13z M11.5,13.5l-1,1l-1-1l1-1L11.5,13.5z M10.5,21.5l1,1l-1,1l-1-1
		L10.5,21.5z M12,23l1,1l-1,1l-1-1L12,23z M12,22l-1-1l1-1l1,1L12,22z M12.5,19.5l1-1l1,1l-1,1L12.5,19.5z M14,18l1-1l1,1l-1,1
		L14,18z M16,12l-1,1l-1-1l1-1L16,12z M14.5,10.5l-1,1l-1-1l1-1L14.5,10.5z M12,8l1,1l-1,1l-1-1L12,8z M11.5,10.5l-1,1l-1-1l1-1
		L11.5,10.5z M9,8l1,1l-1,1L8,9L9,8z M9,11l1,1l-1,1l-1-1L9,11z M9,23l1,1l-1,1l-1-1L9,23z M9,28l-1-1l1-1l1,1L9,28z M9.5,25.5l1-1
		l1,1l-1,1L9.5,25.5z M12,28l-1-1l1-1l1,1L12,28z M13.5,26.5l-1-1l1-1l1,1L13.5,26.5z M15,25l-1-1l1-1l1,1L15,25z M15.5,22.5l1-1
		l1,1l-1,1L15.5,22.5z M18,25l-1-1l1-1l1,1L18,25z M18.5,22.5l1-1l1,1l-1,1L18.5,22.5z M20,24l1-1l1,1l-1,1L20,24z M21.5,25.5l1-1
		l1,1l-1,1L21.5,25.5z M24,28l-1-1l1-1l1,1L24,28z M24.5,25.5l1-1l1,1l-1,1L24.5,25.5z M27,28l-1-1l1-1l1,1L27,28z M27,25l-1-1l1-1
		l1,1L27,25z M27,13l-1-1l1-1l1,1L27,13z M27,10l-1-1l1-1l1,1L27,10z"/>
</g>
</svg>
