<svg xmlns="http://www.w3.org/2000/svg" viewBox="5907 -1392.001 36 36.001"><defs><style>.a{fill:#0050db;}</style></defs><path class="a" d="M-5726,1974a18.021,18.021,0,0,1-18-18,18.021,18.021,0,0,1,18-18,18.021,18.021,0,0,1,18,18A18.021,18.021,0,0,1-5726,1974Zm-4-14v5.159a9.93,9.93,0,0,0,4,.84v-6Zm9,2v2h2v-2a3,3,0,0,0,3-3v-1a3,3,0,0,0-3-3h-2a1,1,0,0,1-1-1v-1a1,1,0,0,1,1-1h5v-2h-3v-2h-2v2a3,3,0,0,0-3,3v1a3,3,0,0,0,3,3h2a1,1,0,0,1,1,1v1a1,1,0,0,1-1,1h-5v2Zm-14.159-2a10.055,10.055,0,0,0,3.16,3.98V1960Zm-.639-6a9.962,9.962,0,0,0-.2,2,10.06,10.06,0,0,0,.2,2h3.8v-4Zm5.8,0v4h4v-4Zm-2-5.981a10.041,10.041,0,0,0-3.16,3.98h3.16v-3.98Zm6-2.02a9.907,9.907,0,0,0-4,.84V1952h4v-6Z" transform="translate(11651 -3330)"/></svg>