<svg xmlns="http://www.w3.org/2000/svg" viewBox="11842 609 36 36"><defs><style>.a{fill:#0050db;}</style></defs><g transform="translate(11842 609)"><path class="a" d="M18,0A18,18,0,1,0,36,18,18,18,0,0,0,18,0ZM11.2,16.6v.8c0,1.9-.6,3.1-3.3,3.1v-.8c2.2,0,2.5-.7,2.5-2.3v-.8c-.1-1.1-.2-2.4.7-3.3.7-.7,1.9-1,3.7-1v.8a4.32,4.32,0,0,0-3.1.7,3.858,3.858,0,0,0-.5,2.8ZM15,10.9a.52.52,0,0,0,.4.2c.6,0,1.2-.8,1.8-1.6.7-1,1.4-2,2.5-2a2.385,2.385,0,0,1,1.8.9l-.6.5a1.491,1.491,0,0,0-1.1-.5c-.6,0-1.2.8-1.8,1.6-.7,1-1.4,1.9-2.5,1.9a1.382,1.382,0,0,1-1.1-.6,2.052,2.052,0,0,1-.1-2l.7.3a1.217,1.217,0,0,0,0,1.3Zm8,18.7c-.6.4-1.2.7-1.2,2.4H21c0-2.1.9-2.7,1.6-3.1.4-.3.7-.4.7-1a3.427,3.427,0,0,0-1-1.7,2.926,2.926,0,0,1-.9-1.6,2.1,2.1,0,0,1,1.1-1.7c.1-.1.2-.1.3-.2l.5.6c-.1.1-.2.2-.3.2-.5.4-.8.7-.8,1.1a3.778,3.778,0,0,0,.7,1.1A4.185,4.185,0,0,1,24,27.9,1.635,1.635,0,0,1,23,29.6Zm5.1-11.1a2.049,2.049,0,0,1-1.4.7A3.06,3.06,0,0,1,28,21.5a4.574,4.574,0,0,1-1.5,2.8c-1,1.1-1.6,1.9-1.1,2.8l-.7.4c-.8-1.4.3-2.6,1.2-3.7a3.9,3.9,0,0,0,1.3-2.3c0-.4-.2-1.2-1.6-2.1a3.661,3.661,0,0,1-3.3,1.8,6.051,6.051,0,0,1-2.4-.4,1.464,1.464,0,0,0-.6,1.1,5.419,5.419,0,0,0,.9,1.6,4.172,4.172,0,0,1,1,2c0,.9-1,1.6-1.6,2a.758.758,0,0,1-.4.2s-.3.3-.3,1.8h-.8a3.817,3.817,0,0,1,.5-2.4,2.186,2.186,0,0,1,.5-.3c.5-.3,1.3-.8,1.3-1.3a5.419,5.419,0,0,0-.9-1.6,4.172,4.172,0,0,1-1-2,2.026,2.026,0,0,1,.6-1.4,2.6,2.6,0,0,1-1.3-2.4h.8A1.921,1.921,0,0,0,20,20a5.27,5.27,0,0,0,2.3.4,2.954,2.954,0,0,0,3-2.3h.8a1.087,1.087,0,0,1-.1.5,2.588,2.588,0,0,0,1.4-.4,23.527,23.527,0,0,0-1.8-3.5l-.1-.2.4-.6-.6-2.6c-2.9-.4-5.1-.1-6.4,1.1a3.693,3.693,0,0,0-1.3,2.7h-.8c0-.2,0-.5-.6-.5a.781.781,0,0,0-.6.8,2.747,2.747,0,0,0,1.2,1.9.494.494,0,0,1,.3-.1l.3.7s-1.1.5-1.1,1.3c0,.3.4.8.8,1.2a3.7,3.7,0,0,1,1.2,2.2,1.8,1.8,0,0,1-.9,1.5,2.627,2.627,0,0,0-1.2,2.5h-.8A3.4,3.4,0,0,1,17,23.4c.4-.3.6-.5.6-.9a2.772,2.772,0,0,0-1-1.7c-.5-.6-1-1.1-1-1.7a2.246,2.246,0,0,1,.6-1.4,3.621,3.621,0,0,1-1.3-2.4,1.481,1.481,0,0,1,1.4-1.6,1.884,1.884,0,0,1,.8.2,5.028,5.028,0,0,1,1.4-2.2c1.5-1.3,3.9-1.7,7-1.2A3,3,0,0,0,25.1,7c-1-1.2-3-1.3-4.7-.2l-.4.3-.1-.5a2.392,2.392,0,0,0-1.3-1.4,4.438,4.438,0,0,0-3.7-.1,3.885,3.885,0,0,0-2.7,2.4,3.579,3.579,0,0,0,.5,3l.5.7-.9-.1s-2.2-.2-3.3.9c-.8.8-.3,2.8-.1,3.8a5.073,5.073,0,0,1,.2.9c0,.5-.2,1.5-1.8,1.5a1.816,1.816,0,0,1-1.4-.6,1.191,1.191,0,0,1-.3-1.1l.8.2h0a1.69,1.69,0,0,0,.2.5.908.908,0,0,0,.7.3c1,0,1-.4,1-.7a4.076,4.076,0,0,0-.2-.7c-.3-1.3-.8-3.5.3-4.6a5.319,5.319,0,0,1,3.2-1.2,3.749,3.749,0,0,1-.2-3.1,4.488,4.488,0,0,1,3.2-2.9,4.934,4.934,0,0,1,4.3.2,3.416,3.416,0,0,1,1.5,1.4c1.9-1.1,4.1-.9,5.3.6a3.447,3.447,0,0,1,.2,4.4l.7,3-.3.5c.5.8,1.8,3.1,1.8,3.8v.3Zm-6.5-3.6c-.1.1-.2.1-.3.2l-.4-.7c.1-.1.2-.1.3-.2,1-.6,2.1-1.4,3.8-.4l-.4.7C23.3,13.8,22.5,14.3,21.6,14.9Zm2.6.5a.5.5,0,1,1-.5-.5.472.472,0,0,1,.5.5Z"/></g></svg>