<?xml version="1.0" encoding="utf-8"?>
<!-- Generator: Adobe Illustrator 21.1.0, SVG Export Plug-In . SVG Version: 6.00 Build 0)  -->
<svg version="1.1" id="Слой_1" xmlns="http://www.w3.org/2000/svg" xmlns:xlink="http://www.w3.org/1999/xlink" x="0px" y="0px"
	 viewBox="0 0 36 36" style="enable-background:new 0 0 36 36;" xml:space="preserve">
<style type="text/css">
	.st0{fill:#0050db;}
</style>
<g>
	<path class="st0" d="M18,0C8.1,0,0,8.1,0,18c0,9.9,8.1,18,18,18s18-8.1,18-18C36,8.1,27.9,0,18,0z M11.4,16.1
		c-1.4,0-2.5-1.1-2.5-2.5s1.1-2.5,2.5-2.5s2.5,1.1,2.5,2.5S12.7,16.1,11.4,16.1z M21.9,30c-1.3,0-2.3-0.4-3-0.7
		c-1.9-1-3.1-2.9-3.1-4.8V6h4.6v5.2h6.1v4.6h-6.1v8.6c0,0.1,0.2,0.5,0.7,0.8c0.8,0.4,2,0.1,3.4-0.9l2.6,3.8
		C25.1,29.6,23.3,30,21.9,30z"/>
</g>
</svg>
