<?xml version="1.0" encoding="utf-8"?>
<!-- Generator: Adobe Illustrator 21.1.0, SVG Export Plug-In . SVG Version: 6.00 Build 0)  -->
<svg version="1.1" id="Слой_1" xmlns="http://www.w3.org/2000/svg" xmlns:xlink="http://www.w3.org/1999/xlink" x="0px" y="0px"
	 viewBox="0 0 36 36" style="enable-background:new 0 0 36 36;" xml:space="preserve">
<style type="text/css">
	.st0{fill:#0050db;}
</style>
<g>
	<g>
		<path class="st0" d="M18,8C12.5,8,8,12.5,8,18c0,5.5,4.5,10,10,10c5.5,0,10-4.5,10-10C28,12.5,23.5,8,18,8z M24,17h-4v8h-4v-8
			h-3.8v-4H16h4h4V17z"/>
	</g>
	<g>
		<path class="st0" d="M18,0C8.1,0,0,8.1,0,18c0,9.9,8.1,18,18,18s18-8.1,18-18C36,8.1,27.9,0,18,0z M18,32c-7.7,0-14-6.3-14-14
			S10.3,4,18,4s14,6.3,14,14S25.7,32,18,32z"/>
	</g>
</g>
</svg>
