<?xml version="1.0" encoding="utf-8"?>
<!-- Generator: Adobe Illustrator 21.1.0, SVG Export Plug-In . SVG Version: 6.00 Build 0)  -->
<svg version="1.1" id="Слой_1" xmlns="http://www.w3.org/2000/svg" xmlns:xlink="http://www.w3.org/1999/xlink" x="0px" y="0px"
	 viewBox="0 0 36 36" style="enable-background:new 0 0 36 36;" xml:space="preserve">
<style type="text/css">
	.st0{fill:#0050db;}
</style>
<g>
	<path class="st0" d="M18,0C8.1,0,0,8.1,0,18c0,9.9,8.1,18,18,18s18-8.1,18-18C36,8.1,27.9,0,18,0z M7.7,30l9.4-8.8l-1.3-6.6
		l-9.1-3.1l9.4,0.8l2,8l0.5,2.2l0.4,1.8L7.7,30z M21.8,22.9l-2.1,1.1v0l-0.4-1.7l-0.6-2.5l-1.9-7.5L16.5,11L5,7.4h0l-0.1,0l15.2,0.9
		l0,0l3.4,7l2.6,5.5L21.8,22.9z M27.8,14.8v5l-1.1,0.6l-2.7-5.6l4.4-4.1l1.7,4.9L27.8,14.8z"/>
</g>
</svg>
