<svg xmlns="http://www.w3.org/2000/svg" viewBox="-6105 -7665 200 165"><defs><style>.a,.c,.f{fill:none;}.b,.d{fill:#d0dbf4;}.b,.c{opacity:0.5;}.c,.f{stroke:#0050db;stroke-linecap:round;stroke-linejoin:round;stroke-width:2px;}.e{fill:#fff;}</style></defs><rect class="a" width="200" height="165" transform="translate(-6105 -7665)"/><g transform="translate(-6103 -7665)"><path class="b" d="M191.651,106.671A90.575,90.575,0,1,0,18.562,144.033H183.589a90.235,90.235,0,0,0,8.061-37.362Z" transform="translate(-1.444 -16.103)"/><line class="c" x2="176.621" transform="translate(10.19 128)"/><line class="c" x2="5.661" transform="translate(0 128)"/><line class="c" x2="5.661" transform="translate(191.339 128)"/></g><g transform="translate(-6081.5 -7652.646)"><ellipse class="d" cx="32.603" cy="3.396" rx="32.603" ry="3.396" transform="translate(47.103 145.522)"/></g><g transform="translate(-7058 -7974.724)"><path class="e" d="M124,59.9a14.8,14.8,0,0,0,.474-3.609A15.788,15.788,0,0,0,108.8,40.5a15.4,15.4,0,0,0-9.427,3.225,31.328,31.328,0,0,0-55.236,20.3v.2a14.1,14.1,0,0,0-1.962-.2,15.675,15.675,0,1,0,0,31.351h70.55A19.577,19.577,0,0,0,124,59.811Z" transform="translate(976.5 321.354)"/><path class="f" d="M124,59.9a14.8,14.8,0,0,0,.474-3.609A15.788,15.788,0,0,0,108.8,40.5a15.4,15.4,0,0,0-9.427,3.225,31.328,31.328,0,0,0-55.236,20.3v.2a14.1,14.1,0,0,0-1.962-.2,15.675,15.675,0,1,0,0,31.351h70.55A19.577,19.577,0,0,0,124,59.811Z" transform="translate(976.5 321.354)"/><path class="e" d="M45.974,57.589,35.915,69.882a4.511,4.511,0,1,0,6.766,5.751l2.707-3.27A24.81,24.81,0,0,0,69.746,92.03a4.511,4.511,0,0,0,0-9.022,15.789,15.789,0,0,1-15.5-12.746l4.511,3.815a4.512,4.512,0,1,0,5.864-6.857L52.312,57.071a4.511,4.511,0,0,0-6.338.609Z" transform="translate(986.257 350.732)"/><path class="f" d="M45.974,57.589,35.915,69.882a4.511,4.511,0,1,0,6.766,5.751l2.707-3.27A24.81,24.81,0,0,0,69.746,92.03a4.511,4.511,0,0,0,0-9.022,15.789,15.789,0,0,1-15.5-12.746l4.511,3.815a4.512,4.512,0,1,0,5.864-6.857L52.312,57.071a4.511,4.511,0,0,0-6.338.609Z" transform="translate(986.257 350.732)"/><path class="e" d="M52.511,50a4.511,4.511,0,1,0,0,9.022,15.789,15.789,0,0,1,15.5,12.746l-4.512-3.815a4.511,4.511,0,0,0-5.864,6.857L69.945,84.959a4.511,4.511,0,0,0,6.338-.609l10.059-12.2A4.443,4.443,0,0,0,79.576,66.4l-2.707,3.27A24.81,24.81,0,0,0,52.511,50Z" transform="translate(1003.492 343.142)"/><path class="f" d="M52.511,50a4.511,4.511,0,1,0,0,9.022,15.789,15.789,0,0,1,15.5,12.746l-4.512-3.815a4.511,4.511,0,0,0-5.864,6.857L69.945,84.959a4.511,4.511,0,0,0,6.338-.609l10.059-12.2A4.443,4.443,0,0,0,79.576,66.4l-2.707,3.27A24.81,24.81,0,0,0,52.511,50Z" transform="translate(1003.492 343.142)"/></g></svg>