<svg xmlns="http://www.w3.org/2000/svg" viewBox="-9066 2604 200 165"><defs><style>.a{fill:#fff;opacity:0;}.b{fill:#1a4ec9;}.c,.d,.g{fill:none;stroke-linecap:round;stroke-width:2px;}.c,.d{stroke:#809ee2;}.d,.g{stroke-linejoin:round;}.e{fill:#3363d1;}.f{fill:#0039c2;}.g{stroke:#fff;}.h{fill:#002bb3;}</style></defs><g transform="translate(-10259 2352)"><rect class="a" width="200" height="165" transform="translate(1193 252)"/><g transform="translate(1187.5 235.897)"><g transform="translate(6.5 16.103)"><path class="b" d="M191.651,106.671A90.575,90.575,0,1,0,18.562,144.033H183.589a90.235,90.235,0,0,0,8.061-37.362Z" transform="translate(-1.444 -16.103)"/><path class="c" d="M0,0H177.383" transform="translate(10.19 128)"/><line class="d" x2="5.661" transform="translate(0 128)"/><path class="c" d="M0,0H5.661" transform="translate(192.339 128)"/></g><g transform="translate(25 28.457)"><ellipse class="e" cx="32.603" cy="3.396" rx="32.603" ry="3.396" transform="translate(47.103 145.522)"/></g></g><g transform="translate(1213.5 264.354)"><path class="f" d="M124.378,60.006a14.852,14.852,0,0,0,.475-3.623A15.962,15.962,0,0,0,116.086,42.2a15.433,15.433,0,0,0-16.432,1.572A31.449,31.449,0,0,0,44.205,64.15v.2a14.151,14.151,0,0,0-1.97-.2,15.736,15.736,0,1,0,0,31.471h70.822a19.653,19.653,0,0,0,11.321-35.705Z" transform="translate(0 0)"/><path class="g" d="M124.378,60.006a14.852,14.852,0,0,0,.475-3.623,15.849,15.849,0,0,0-15.736-15.849,15.464,15.464,0,0,0-9.464,3.238A31.449,31.449,0,0,0,44.205,64.15v.2a14.151,14.151,0,0,0-1.97-.2,15.736,15.736,0,1,0,0,31.471h70.822a19.653,19.653,0,0,0,11.321-35.705Z" transform="translate(0 0)"/><path class="h" d="M46.019,57.6l-10.1,12.339a4.528,4.528,0,1,0,6.792,5.774l2.717-3.283A24.905,24.905,0,0,0,69.883,92.169a4.528,4.528,0,0,0,0-9.056,15.85,15.85,0,0,1-15.555-12.8l4.529,3.829a4.529,4.529,0,1,0,5.887-6.883L52.381,57.075a4.528,4.528,0,0,0-6.362.611Z" transform="translate(9.824 29.58)"/><path class="g" d="M46.019,57.6l-10.1,12.339a4.528,4.528,0,1,0,6.792,5.774l2.717-3.283A24.905,24.905,0,0,0,69.883,92.169a4.528,4.528,0,0,0,0-9.056,15.85,15.85,0,0,1-15.555-12.8l4.529,3.829a4.529,4.529,0,1,0,5.887-6.883L52.381,57.075a4.528,4.528,0,0,0-6.362.611Z" transform="translate(9.824 29.58)"/><path class="h" d="M52.528,50a4.528,4.528,0,1,0,0,9.056,15.85,15.85,0,0,1,15.555,12.8l-4.529-3.829a4.528,4.528,0,0,0-5.887,6.883L70.03,85.094a4.528,4.528,0,0,0,6.362-.611l10.1-12.249A4.46,4.46,0,0,0,79.7,66.46l-2.717,3.283A24.905,24.905,0,0,0,52.528,50Z" transform="translate(27.179 21.938)"/><path class="g" d="M52.528,50a4.528,4.528,0,1,0,0,9.056,15.85,15.85,0,0,1,15.555,12.8l-4.529-3.829a4.528,4.528,0,0,0-5.887,6.883L70.03,85.094a4.528,4.528,0,0,0,6.362-.611l10.1-12.249A4.46,4.46,0,0,0,79.7,66.46l-2.717,3.283A24.905,24.905,0,0,0,52.528,50Z" transform="translate(27.179 21.938)"/></g></g></svg>