<svg xmlns="http://www.w3.org/2000/svg" viewBox="-385 -9805 200 165"><defs><style>.a,.c,.f,.h{fill:none;}.b{fill:#1a4ec9;}.c{stroke:#809ee2;}.c,.f,.h,.i{stroke-linecap:round;stroke-width:2px;}.c,.f,.i{stroke-linejoin:round;}.d{fill:#3363d1;}.e,.i{fill:#003ac3;}.f,.h,.i{stroke:#fff;}.g{fill:#002bb3;}</style></defs><g transform="translate(-546 -10066)"><rect class="a" width="200" height="165" transform="translate(161 261)"/><g transform="translate(-539 -11)"><g transform="translate(327 22)"><g transform="translate(367.5 233.897)"><g transform="translate(6.5 16.103)"><path class="b" d="M191.651,106.671A90.575,90.575,0,1,0,18.562,144.033H183.589a90.235,90.235,0,0,0,8.061-37.362Z" transform="translate(-1.444 -16.103)"/><line class="c" x2="176.621" transform="translate(10.19 128)"/><line class="c" x2="5.661" transform="translate(0 128)"/><line class="c" x2="5.661" transform="translate(191.339 128)"/></g><g transform="translate(28 28.457)"><ellipse class="d" cx="32.603" cy="3.396" rx="32.603" ry="3.396" transform="translate(47.103 145.522)"/></g></g></g><g transform="translate(733 279)"><g transform="translate(31.02 25.554)"><path class="e" d="M87.436,50.195a25.338,25.338,0,0,0-50.656,0v27.54H47.792V50.195A14.326,14.326,0,0,1,71.285,39.718a14.161,14.161,0,0,1,5.139,10.477v27.54H87.436Z" transform="translate(-25.749 -25.554)"/><path class="f" d="M87.436,50.195a25.338,25.338,0,0,0-50.656,0v27.54H47.792V50.195a14.326,14.326,0,0,1,28.632,0v27.54H87.436Z" transform="translate(-25.749 -25.554)"/><circle class="g" cx="36.35" cy="36.35" r="36.35" transform="translate(0 36.745)"/><path class="h" d="M36.35,0A36.35,36.35,0,1,1,0,36.35,36.35,36.35,0,0,1,36.35,0Z" transform="translate(0 36.745)"/><path class="i" d="M58.142,65.06a5.516,5.516,0,0,0-11.012,0,5.439,5.439,0,0,0,2.2,4.386v6.607a3.313,3.313,0,1,0,6.607,0V69.446A5.5,5.5,0,0,0,58.142,65.06Z" transform="translate(-16.277 5.851)"/></g></g></g></g></svg>