<svg xmlns="http://www.w3.org/2000/svg" viewBox="-4381 -8549 200 165"><defs><style>.a{fill:#fff;opacity:0;}.b{fill:#1a4ec9;}.c,.d,.g,.i{fill:none;}.c,.d{stroke:#809ee2;}.c,.d,.g,.i,.j{stroke-linecap:round;stroke-width:2px;}.d,.g,.j{stroke-linejoin:round;}.e{fill:#3363d1;}.f,.j{fill:#003ac3;}.g,.i,.j{stroke:#fff;}.h{fill:#002bb3;}</style></defs><g transform="translate(-5556 -8935)"><rect class="a" width="200" height="165" transform="translate(1175 386)"/><g transform="translate(983 77)"><g transform="translate(186.5 292.897)"><g transform="translate(6.5 16.103)"><path class="b" d="M191.651,106.671A90.575,90.575,0,1,0,18.562,144.033H183.589a90.235,90.235,0,0,0,8.061-37.362Z" transform="translate(-1.444 -16.103)"/><path class="c" d="M0,0H177.383" transform="translate(10.19 128)"/><line class="d" x2="5.661" transform="translate(0 128)"/><path class="c" d="M0,0H5.661" transform="translate(192.339 128)"/></g><g transform="translate(25 28.457)"><ellipse class="e" cx="32.603" cy="3.396" rx="32.603" ry="3.396" transform="translate(47.103 145.522)"/></g></g><g transform="translate(255.02 341.554)"><path class="f" d="M87.436,50.195a25.338,25.338,0,0,0-50.656,0v27.54H47.792V50.195A14.326,14.326,0,0,1,71.285,39.718a14.161,14.161,0,0,1,5.139,10.477v27.54H87.436Z" transform="translate(-25.749 -25.554)"/><path class="g" d="M87.436,50.195a25.338,25.338,0,0,0-50.656,0v27.54H47.792V50.195a14.326,14.326,0,0,1,28.632,0v27.54H87.436Z" transform="translate(-25.749 -25.554)"/><circle class="h" cx="36.35" cy="36.35" r="36.35" transform="translate(0 36.745)"/><path class="i" d="M36.35,0A36.35,36.35,0,1,1,0,36.35,36.35,36.35,0,0,1,36.35,0Z" transform="translate(0 36.745)"/><path class="j" d="M58.142,65.06a5.516,5.516,0,0,0-11.012,0,5.439,5.439,0,0,0,2.2,4.386v6.607a3.313,3.313,0,1,0,6.607,0V69.446A5.5,5.5,0,0,0,58.142,65.06Z" transform="translate(-16.277 5.851)"/></g></g></g></svg>