<svg width="112" height="112" viewBox="0 0 112 112" fill="none" xmlns="http://www.w3.org/2000/svg">
<circle cx="56" cy="56" r="56" fill="#003DC6" fill-opacity="0.1"/>
<path fill-rule="evenodd" clip-rule="evenodd" d="M55.9997 112C77.9019 112 96.8673 99.4263 106.071 81.1035H30.4135C29.347 81.1035 28.4824 81.9681 28.4824 83.0346V92.8458C28.4824 93.7379 29.1059 94.4922 29.9192 94.8586C32.7722 96.1441 34.7583 99.0126 34.7583 102.345C34.7583 104.145 34.1789 105.809 33.1964 107.162C40.1618 110.272 47.8789 112 55.9997 112ZM48.5169 88.8277C45.984 88.8277 43.9307 90.881 43.9307 93.4139C43.9307 95.9468 45.984 98.0001 48.5169 98.0001H63.9652C66.4981 98.0001 68.5514 95.9468 68.5514 93.4139C68.5514 90.881 66.4981 88.8277 63.9652 88.8277H48.5169Z" fill="white"/>
<path fill-rule="evenodd" clip-rule="evenodd" d="M112 56.0002C112 63.5187 110.518 70.6912 107.831 77.2415H30.4135C29.347 77.2415 28.4824 76.377 28.4824 75.3105V65.4993C28.4824 64.6072 29.1059 63.8529 29.9192 63.4864C32.7722 62.201 34.7583 59.3325 34.7583 56.0002C34.7583 52.6678 32.7722 49.7994 29.9192 48.5139C29.1059 48.1474 28.4824 47.3931 28.4824 46.5011V36.6898C28.4824 35.6233 29.347 34.7588 30.4135 34.7588H107.831C110.518 41.3091 112 48.4816 112 56.0002ZM48.5169 42.4829C45.984 42.4829 43.9307 44.5362 43.9307 47.0691C43.9307 49.602 45.984 51.6553 48.5169 51.6553H89.5514C92.0843 51.6553 94.1376 49.602 94.1376 47.0691C94.1376 44.5362 92.0843 42.4829 89.5514 42.4829H48.5169Z" fill="white"/>
<path d="M43.966 1.2959C40.2222 2.11569 36.6186 3.31002 33.1964 4.83763C34.1789 6.19052 34.7583 7.85509 34.7583 9.655C34.7583 12.9873 32.7722 15.8558 29.9192 17.1413C29.1059 17.5077 28.4824 18.262 28.4824 19.1541V28.9653C28.4824 30.0318 29.347 30.8964 30.4135 30.8964H106.071C100.427 19.6593 91.1106 10.5846 79.6974 5.24637C79.4481 5.28833 79.1919 5.31017 78.9307 5.31017H48.5169C46.1777 5.31017 44.2475 3.55887 43.966 1.2959Z" fill="white"/>
<path d="M49.9816 111.681C49.3414 111.612 48.7044 111.533 48.0708 111.443C47.8959 111.285 47.6286 111.138 47.2689 111.003C46.8578 110.848 46.5033 110.695 46.2053 110.544C45.9074 110.39 45.6509 110.214 45.4359 110.018C45.2247 109.818 45.0588 109.585 44.9381 109.317C44.8212 109.049 44.7627 108.73 44.7627 108.361C44.7627 107.723 44.9664 107.201 45.3737 106.794C45.781 106.386 46.3222 106.149 46.9973 106.081V104.87H47.9025V106.098C48.5701 106.192 49.0924 106.471 49.4696 106.935C49.8467 107.395 50.0353 107.993 50.0353 108.728H48.4004C48.4004 108.276 48.3061 107.938 48.1175 107.716C47.9327 107.489 47.6838 107.376 47.3707 107.376C47.0615 107.376 46.822 107.465 46.6522 107.642C46.4825 107.816 46.3977 108.057 46.3977 108.366C46.3977 108.653 46.4806 108.883 46.6466 109.057C46.8125 109.23 47.1199 109.407 47.5687 109.588C48.0213 109.769 48.3928 109.941 48.6832 110.103C48.9736 110.262 49.2188 110.443 49.4187 110.646C49.6186 110.846 49.7713 111.076 49.8769 111.336C49.921 111.444 49.9559 111.558 49.9816 111.681Z" fill="#003DC6" fill-opacity="0.2"/>
<path fill-rule="evenodd" clip-rule="evenodd" d="M56.7123 111.996C56.6877 111.607 56.5725 111.264 56.3666 110.969C56.1327 110.629 55.8159 110.363 55.4161 110.171C55.7669 109.986 56.0422 109.739 56.2421 109.43C56.442 109.121 56.5419 108.766 56.5419 108.366C56.5419 107.657 56.3062 107.097 55.8348 106.686C55.3671 106.271 54.7335 106.064 53.9339 106.064C53.1306 106.064 52.4951 106.273 52.0274 106.692C51.5597 107.107 51.3259 107.665 51.3259 108.366C51.3259 108.766 51.4239 109.121 51.6201 109.43C51.8199 109.739 52.0953 109.986 52.446 110.171C52.05 110.36 51.7351 110.624 51.5013 110.963C51.3314 111.21 51.2232 111.487 51.1767 111.795C51.7124 111.841 52.2502 111.879 52.79 111.91C52.8121 111.608 52.9143 111.364 53.0966 111.178C53.3041 110.963 53.5813 110.856 53.9282 110.856C54.279 110.856 54.5581 110.963 54.7655 111.178C54.9642 111.384 55.0677 111.655 55.0761 111.993C55.3835 111.998 55.6915 112 56 112C56.2378 112 56.4752 111.999 56.7123 111.996ZM54.907 108.446C54.907 108.125 54.8221 107.869 54.6524 107.676C54.4827 107.48 54.2432 107.382 53.9339 107.382C53.6284 107.382 53.3908 107.476 53.2211 107.665C53.0514 107.853 52.9665 108.114 52.9665 108.446C52.9665 108.774 53.0514 109.038 53.2211 109.238C53.3908 109.437 53.6303 109.537 53.9396 109.537C54.2488 109.537 54.4864 109.437 54.6524 109.238C54.8221 109.038 54.907 108.774 54.907 108.446Z" fill="#003DC6" fill-opacity="0.2"/>
<path d="M64.4583 111.366C63.7267 111.476 62.9906 111.573 62.2501 111.655L63.3773 110.454C63.7432 110.054 64.0128 109.705 64.1863 109.407C64.3636 109.109 64.4522 108.826 64.4522 108.559C64.4522 108.193 64.3598 107.906 64.175 107.699C63.9902 107.488 63.7262 107.382 63.383 107.382C63.0134 107.382 62.7211 107.51 62.5061 107.767C62.2949 108.019 62.1893 108.353 62.1893 108.768H60.5487C60.5487 108.266 60.6675 107.808 60.9051 107.393C61.1465 106.978 61.4859 106.654 61.9234 106.42C62.3609 106.183 62.8569 106.064 63.4113 106.064C64.2599 106.064 64.918 106.267 65.3857 106.675C65.8571 107.082 66.0929 107.657 66.0929 108.4C66.0929 108.808 65.9873 109.222 65.776 109.645C65.5648 110.067 65.2028 110.56 64.6898 111.121L64.4583 111.366Z" fill="#003DC6" fill-opacity="0.2"/>
<path d="M72.8767 109.412V109.39C72.8729 108.734 72.7541 108.151 72.5203 107.642C72.2864 107.133 71.9583 106.743 71.5359 106.471C71.1135 106.2 70.6307 106.064 70.0876 106.064C69.5596 106.064 69.0844 106.19 68.662 106.443C68.2395 106.692 67.9095 107.043 67.6719 107.495C67.4381 107.944 67.3212 108.438 67.3212 108.977C67.3212 109.694 67.4774 110.288 67.7898 110.757C68.3809 110.63 68.9685 110.494 69.5525 110.349C69.4398 110.28 69.3409 110.187 69.256 110.069C69.0523 109.779 68.9505 109.409 68.9505 108.96C68.9505 108.508 69.0561 108.133 69.2673 107.835C69.4785 107.533 69.7482 107.382 70.0763 107.382C70.4308 107.382 70.7137 107.535 70.9249 107.84C71.1361 108.146 71.2417 108.576 71.2417 109.13V109.803C71.2212 109.843 71.1987 109.882 71.1741 109.92C71.7454 109.76 72.313 109.59 72.8767 109.412Z" fill="#003DC6" fill-opacity="0.2"/>
<path d="M78.8994 107.119C78.709 106.857 78.4819 106.641 78.2179 106.471C77.7955 106.2 77.3127 106.064 76.7696 106.064C76.2416 106.064 75.7664 106.19 75.3439 106.443C74.9215 106.692 74.5915 107.043 74.3539 107.495C74.1201 107.944 74.0032 108.438 74.0032 108.977C74.0032 108.999 74.0033 109.021 74.0036 109.043C74.5684 108.852 75.1292 108.651 75.6858 108.442C75.7369 108.213 75.8247 108.01 75.9493 107.835C76.1605 107.533 76.4302 107.382 76.7583 107.382C77.0624 107.382 77.3138 107.494 77.5125 107.719C77.978 107.525 78.4403 107.325 78.8994 107.119Z" fill="#003DC6" fill-opacity="0.2"/>
<path d="M48.4 65.9025C48.4 65.5933 48.3132 65.3481 48.1397 65.1671C47.97 64.9823 47.6796 64.8126 47.2685 64.6579C46.8574 64.5033 46.5029 64.3506 46.2049 64.1997C45.907 64.0451 45.6505 63.8697 45.4355 63.6736C45.2243 63.4737 45.0584 63.2398 44.9377 62.9721C44.8208 62.7043 44.7623 62.3856 44.7623 62.016C44.7623 61.3786 44.966 60.8562 45.3733 60.4489C45.7806 60.0416 46.3219 59.8039 46.997 59.7361V58.5254H47.9021V59.753C48.5697 59.8473 49.0921 60.1264 49.4692 60.5903C49.8464 61.0504 50.035 61.6482 50.035 62.3837H48.4C48.4 61.9311 48.3057 61.5935 48.1171 61.371C47.9323 61.1447 47.6834 61.0316 47.3704 61.0316C47.0611 61.0316 46.8216 61.1202 46.6519 61.2975C46.4822 61.471 46.3973 61.7124 46.3973 62.0216C46.3973 62.3083 46.4803 62.5383 46.6462 62.7118C46.8122 62.8853 47.1195 63.0626 47.5684 63.2436C48.0209 63.4246 48.3924 63.5962 48.6829 63.7584C48.9733 63.9168 49.2184 64.0979 49.4183 64.3015C49.6182 64.5014 49.7709 64.7315 49.8765 64.9917C49.9822 65.2482 50.035 65.548 50.035 65.8912C50.035 66.5324 49.8351 67.0529 49.4353 67.4527C49.0355 67.8524 48.4848 68.0882 47.7833 68.1598V69.2856H46.8838V68.1655C46.1107 68.0825 45.511 67.8091 45.0848 67.3452C44.6624 66.8775 44.4512 66.2571 44.4512 65.4839H46.0861C46.0861 65.9327 46.1917 66.2778 46.4029 66.5192C46.6179 66.7568 46.9253 66.8756 47.3251 66.8756C47.657 66.8756 47.9191 66.7889 48.1115 66.6154C48.3038 66.4381 48.4 66.2005 48.4 65.9025Z" fill="#003DC6" fill-opacity="0.2"/>
<path d="M55.1442 68.0693H53.5092V61.767L51.5575 62.3724V61.0429L54.9688 59.8209H55.1442V68.0693Z" fill="#003DC6" fill-opacity="0.2"/>
<path d="M61.8262 68.0693H60.1912V61.767L58.2394 62.3724V61.0429L61.6508 59.8209H61.8262V68.0693Z" fill="#003DC6" fill-opacity="0.2"/>
<path d="M66.2 63.2266H67.0712C67.4861 63.2266 67.7935 63.1229 67.9933 62.9155C68.1932 62.708 68.2932 62.4327 68.2932 62.0895C68.2932 61.7576 68.1932 61.4993 67.9933 61.3145C67.7972 61.1296 67.5257 61.0372 67.1787 61.0372C66.8657 61.0372 66.6035 61.124 66.3923 61.2975C66.1811 61.4672 66.0755 61.6897 66.0755 61.965H64.4405C64.4405 61.5351 64.5556 61.1504 64.7856 60.811C65.0195 60.4677 65.3438 60.2 65.7587 60.0076C66.1773 59.8153 66.6375 59.7191 67.1391 59.7191C68.0103 59.7191 68.693 59.9284 69.187 60.3471C69.6811 60.7619 69.9282 61.3352 69.9282 62.0669C69.9282 62.444 69.8131 62.791 69.5831 63.1078C69.353 63.4246 69.0513 63.6679 68.6779 63.8376C69.1418 64.0036 69.4869 64.2525 69.7132 64.5844C69.9432 64.9163 70.0583 65.3085 70.0583 65.7611C70.0583 66.4928 69.7905 67.0793 69.2549 67.5205C68.7231 67.9618 68.0179 68.1824 67.1391 68.1824C66.3169 68.1824 65.6437 67.9656 65.1194 67.5319C64.599 67.0981 64.3387 66.5249 64.3387 65.812H65.9737C65.9737 66.1213 66.0887 66.374 66.3188 66.5701C66.5526 66.7662 66.8393 66.8643 67.1787 66.8643C67.5672 66.8643 67.8708 66.7625 68.0895 66.5588C68.312 66.3514 68.4233 66.0779 68.4233 65.7385C68.4233 64.9163 67.9707 64.5052 67.0655 64.5052H66.2V63.2266Z" fill="#003DC6" fill-opacity="0.2"/>
<path d="M71.3715 67.266C71.3715 67.0057 71.4582 66.7945 71.6317 66.6323C71.809 66.4702 72.0296 66.3891 72.2936 66.3891C72.5614 66.3891 72.782 66.4702 72.9555 66.6323C73.1328 66.7945 73.2214 67.0057 73.2214 67.266C73.2214 67.5224 73.1347 67.7317 72.9612 67.8939C72.7877 68.0523 72.5651 68.1315 72.2936 68.1315C72.0258 68.1315 71.8052 68.0523 71.6317 67.8939C71.4582 67.7317 71.3715 67.5224 71.3715 67.266Z" fill="#003DC6" fill-opacity="0.2"/>
<path d="M80.1636 64.6636C80.1636 65.8026 79.9279 66.6738 79.4565 67.2773C78.985 67.8807 78.2948 68.1824 77.3859 68.1824C76.4882 68.1824 75.8018 67.8864 75.3266 67.2942C74.8514 66.7021 74.6081 65.8535 74.5968 64.7485V63.2323C74.5968 62.082 74.8344 61.2088 75.3096 60.6129C75.7886 60.017 76.4769 59.7191 77.3746 59.7191C78.2722 59.7191 78.9586 60.0152 79.4338 60.6073C79.909 61.1956 80.1523 62.0424 80.1636 63.1474V64.6636ZM78.5287 63.0003C78.5287 62.3177 78.4344 61.8217 78.2458 61.5125C78.061 61.1994 77.7706 61.0429 77.3746 61.0429C76.9899 61.0429 76.7051 61.1919 76.5203 61.4898C76.3393 61.784 76.2431 62.246 76.2318 62.8759V64.8786C76.2318 65.5499 76.3223 66.0496 76.5033 66.3778C76.6881 66.7021 76.9823 66.8643 77.3859 66.8643C77.7857 66.8643 78.0742 66.7078 78.2514 66.3947C78.4287 66.0817 78.5211 65.6027 78.5287 64.9578V63.0003Z" fill="#003DC6" fill-opacity="0.2"/>
<path d="M86.9022 60.7487L83.7171 68.0693H81.9916L85.1824 61.156H81.0864V59.8322H86.9022V60.7487Z" fill="#003DC6" fill-opacity="0.2"/>
<path d="M96.3852 17.2059V18.3189C96.3852 19.4579 96.1495 20.3291 95.6781 20.9325C95.2066 21.536 94.5164 21.8377 93.6075 21.8377C92.7098 21.8377 92.0234 21.5417 91.5482 20.9495C91.073 20.3574 90.8297 19.5088 90.8184 18.4037V16.8876C90.8184 15.7372 91.056 14.8641 91.5312 14.2682C91.7977 13.9367 92.1289 13.6974 92.5249 13.5503C92.9701 13.9337 93.4091 14.3239 93.8419 14.7208C93.7651 14.7057 93.6832 14.6982 93.5962 14.6982C93.2115 14.6982 92.9267 14.8472 92.7419 15.1451C92.5609 15.4393 92.4647 15.9013 92.4534 16.5311V18.5338C92.4534 19.2052 92.5439 19.7049 92.7249 20.033C92.9097 20.3574 93.2039 20.5196 93.6075 20.5196C94.0073 20.5196 94.2958 20.363 94.473 20.05C94.6503 19.737 94.7427 19.258 94.7502 18.613V16.6556C94.7502 16.1316 94.6947 15.7176 94.5836 15.4135C95.1975 15.9974 95.7982 16.595 96.3852 17.2059Z" fill="#003DC6" fill-opacity="0.2"/>
<path d="M48.4 19.5578C48.4 19.2486 48.3132 19.0034 48.1397 18.8224C47.97 18.6376 47.6796 18.4678 47.2685 18.3132C46.8574 18.1586 46.5029 18.0058 46.2049 17.855C45.907 17.7003 45.6505 17.525 45.4355 17.3288C45.2243 17.1289 45.0584 16.8951 44.9377 16.6273C44.8208 16.3595 44.7623 16.0408 44.7623 15.6712C44.7623 15.0338 44.966 14.5115 45.3733 14.1042C45.7806 13.6968 46.3219 13.4592 46.997 13.3913V12.1807H47.9021V13.4083C48.5697 13.5026 49.0921 13.7817 49.4692 14.2456C49.8464 14.7057 50.035 15.3035 50.035 16.039H48.4C48.4 15.5864 48.3057 15.2488 48.1171 15.0263C47.9323 14.8 47.6834 14.6869 47.3704 14.6869C47.0611 14.6869 46.8216 14.7755 46.6519 14.9528C46.4822 15.1262 46.3973 15.3676 46.3973 15.6769C46.3973 15.9635 46.4803 16.1936 46.6462 16.3671C46.8122 16.5406 47.1195 16.7178 47.5684 16.8989C48.0209 17.0799 48.3924 17.2515 48.6829 17.4137C48.9733 17.5721 49.2184 17.7531 49.4183 17.9568C49.6182 18.1567 49.7709 18.3868 49.8765 18.647C49.9822 18.9035 50.035 19.2033 50.035 19.5465C50.035 20.1877 49.8351 20.7081 49.4353 21.1079C49.0355 21.5077 48.4848 21.7434 47.7833 21.8151V22.9409H46.8838V21.8208C46.1107 21.7378 45.511 21.4643 45.0848 21.0004C44.6624 20.5328 44.4512 19.9123 44.4512 19.1392H46.0861C46.0861 19.588 46.1917 19.9331 46.4029 20.1745C46.6179 20.4121 46.9253 20.5309 47.3251 20.5309C47.657 20.5309 47.9191 20.4441 48.1115 20.2706C48.3038 20.0934 48.4 19.8558 48.4 19.5578Z" fill="#003DC6" fill-opacity="0.2"/>
<path d="M55.1442 21.7246H53.5092V15.4223L51.5575 16.0276V14.6982L54.9688 13.4762H55.1442V21.7246Z" fill="#003DC6" fill-opacity="0.2"/>
<path d="M57.4927 23.3426L58.3469 23.7895C58.6713 23.5104 58.9372 23.1578 59.1446 22.7316C59.352 22.3054 59.4577 21.883 59.4614 21.4643L59.4671 20.3329H58.0867V21.6001C58.0791 22.0565 57.949 22.5147 57.6963 22.9748L57.4927 23.3426Z" fill="#003DC6" fill-opacity="0.2"/>
<path d="M66.3584 21.7246H60.7124V20.6044L63.377 17.7644C63.7428 17.3647 64.0125 17.0158 64.186 16.7178C64.3632 16.4199 64.4519 16.137 64.4519 15.8692C64.4519 15.5034 64.3595 15.2168 64.1747 15.0093C63.9898 14.7981 63.7258 14.6925 63.3826 14.6925C63.013 14.6925 62.7207 14.8208 62.5057 15.0772C62.2945 15.3299 62.1889 15.6637 62.1889 16.0786H60.5483C60.5483 15.5769 60.6671 15.1187 60.9047 14.7038C61.1461 14.289 61.4855 13.9646 61.923 13.7308C62.3605 13.4932 62.8565 13.3744 63.4109 13.3744C64.2595 13.3744 64.9176 13.578 65.3853 13.9854C65.8568 14.3927 66.0925 14.9678 66.0925 15.7108C66.0925 16.1182 65.9869 16.533 65.7757 16.9554C65.5645 17.3779 65.2024 17.87 64.6895 18.432L62.8169 20.4064H66.3584V21.7246Z" fill="#003DC6" fill-opacity="0.2"/>
<path fill-rule="evenodd" clip-rule="evenodd" d="M69.7252 19.06C70.2947 19.06 70.7925 18.8507 71.2187 18.432C71.1018 19.703 70.3324 20.3706 68.9105 20.4347L68.5484 20.4404V21.8038L68.9501 21.7981C70.2023 21.7453 71.1697 21.3267 71.8523 20.5422C72.535 19.7577 72.8763 18.679 72.8763 17.3062V16.7009C72.8725 16.0446 72.7537 15.4619 72.5199 14.9528C72.2861 14.4436 71.9579 14.0532 71.5355 13.7817C71.1131 13.5101 70.6303 13.3744 70.0872 13.3744C69.5592 13.3744 69.084 13.5007 68.6616 13.7534C68.2392 14.0023 67.9092 14.3531 67.6716 14.8057C67.4377 15.2545 67.3208 15.7486 67.3208 16.2879C67.3208 17.1365 67.5396 17.8116 67.9771 18.3132C68.4146 18.8111 68.9973 19.06 69.7252 19.06ZM70.8057 17.606C70.6171 17.7418 70.3909 17.8097 70.1268 17.8097C69.7535 17.8097 69.463 17.6664 69.2556 17.3797C69.052 17.0893 68.9501 16.7197 68.9501 16.2709C68.9501 15.8183 69.0557 15.4431 69.2669 15.1451C69.4781 14.8434 69.7478 14.6925 70.0759 14.6925C70.4305 14.6925 70.7133 14.8453 70.9245 15.1508C71.1357 15.4563 71.2413 15.8862 71.2413 16.4406V17.1139C71.1433 17.3062 70.9981 17.4703 70.8057 17.606Z" fill="#003DC6" fill-opacity="0.2"/>
<path fill-rule="evenodd" clip-rule="evenodd" d="M77.9007 18.432C77.4745 18.8507 76.9767 19.06 76.4072 19.06C75.6792 19.06 75.0965 18.8111 74.659 18.3132C74.2215 17.8116 74.0028 17.1365 74.0028 16.2879C74.0028 15.7486 74.1197 15.2545 74.3535 14.8057C74.5912 14.3531 74.9212 14.0023 75.3436 13.7534C75.766 13.5007 76.2412 13.3744 76.7692 13.3744C77.3123 13.3744 77.7951 13.5101 78.2175 13.7817C78.6399 14.0532 78.968 14.4436 79.2019 14.9528C79.4357 15.4619 79.5545 16.0446 79.5583 16.7009V17.3062C79.5583 18.679 79.217 19.7577 78.5343 20.5422C77.8517 21.3267 76.8843 21.7453 75.6321 21.7981L75.2304 21.8038V20.4404L75.5925 20.4347C77.0144 20.3706 77.7838 19.703 77.9007 18.432ZM76.8088 17.8097C77.0728 17.8097 77.2991 17.7418 77.4877 17.606C77.6801 17.4703 77.8253 17.3062 77.9233 17.1139V16.4406C77.9233 15.8862 77.8177 15.4563 77.6065 15.1508C77.3953 14.8453 77.1124 14.6925 76.7579 14.6925C76.4298 14.6925 76.1601 14.8434 75.9489 15.1451C75.7377 15.4431 75.6321 15.8183 75.6321 16.2709C75.6321 16.7197 75.7339 17.0893 75.9376 17.3797C76.145 17.6664 76.4354 17.8097 76.8088 17.8097Z" fill="#003DC6" fill-opacity="0.2"/>
<path d="M81.1713 20.2876C80.9978 20.4498 80.9111 20.661 80.9111 20.9212C80.9111 21.1777 80.9978 21.387 81.1713 21.5492C81.3448 21.7076 81.5654 21.7868 81.8332 21.7868C82.1048 21.7868 82.3273 21.7076 82.5008 21.5492C82.6743 21.387 82.761 21.1777 82.761 20.9212C82.761 20.661 82.6724 20.4498 82.4951 20.2876C82.3216 20.1254 82.101 20.0443 81.8332 20.0443C81.5692 20.0443 81.3486 20.1254 81.1713 20.2876Z" fill="#003DC6" fill-opacity="0.2"/>
<path fill-rule="evenodd" clip-rule="evenodd" d="M89.7032 18.3189C89.7032 19.4579 89.4675 20.3291 88.9961 20.9325C88.5246 21.536 87.8344 21.8377 86.9255 21.8377C86.0279 21.8377 85.3414 21.5417 84.8662 20.9495C84.391 20.3574 84.1477 19.5088 84.1364 18.4037V16.8876C84.1364 15.7372 84.374 14.8641 84.8492 14.2682C85.3282 13.6723 86.0165 13.3744 86.9142 13.3744C87.8118 13.3744 88.4982 13.6704 88.9734 14.2626C89.4487 14.8509 89.6919 15.6976 89.7032 16.8027V18.3189ZM88.0683 16.6556C88.0683 15.973 87.974 15.477 87.7854 15.1677C87.6006 14.8547 87.3102 14.6982 86.9142 14.6982C86.5295 14.6982 86.2447 14.8472 86.0599 15.1451C85.8789 15.4393 85.7827 15.9013 85.7714 16.5311V18.5338C85.7714 19.2052 85.8619 19.7049 86.0429 20.033C86.2277 20.3574 86.5219 20.5196 86.9255 20.5196C87.3253 20.5196 87.6138 20.363 87.7911 20.05C87.9683 19.737 88.0607 19.258 88.0683 18.613V16.6556Z" fill="#003DC6" fill-opacity="0.2"/>
</svg>
