<svg width="112" height="112" viewBox="0 0 112 112" fill="none" xmlns="http://www.w3.org/2000/svg">
<circle cx="56" cy="56" r="56" fill="#003DC6" fill-opacity="0.1"/>
<path d="M55.1231 11.5562C55.4682 10.8081 56.5315 10.8081 56.8766 11.5562L59.3148 16.8422C59.4554 17.1471 59.7444 17.3571 60.0778 17.3966L65.8585 18.082C66.6767 18.179 67.0053 19.1903 66.4004 19.7497L62.1266 23.702C61.88 23.93 61.7697 24.2697 61.8351 24.599L62.9696 30.3086C63.1302 31.1167 62.2699 31.7417 61.551 31.3393L56.4714 28.496C56.1784 28.332 55.8212 28.332 55.5282 28.496L50.4487 31.3393C49.7297 31.7417 48.8695 31.1167 49.03 30.3086L50.1645 24.599C50.23 24.2697 50.1196 23.93 49.8731 23.702L45.5992 19.7497C44.9943 19.1903 45.3229 18.179 46.1411 18.082L51.9218 17.3966C52.2553 17.3571 52.5442 17.1471 52.6849 16.8422L55.1231 11.5562Z" fill="white"/>
<path d="M88.9949 101.253C79.7413 108.011 68.3364 112 55.9999 112C43.6633 112 32.2585 108.011 23.0049 101.253C26.5571 96.35 31.2007 92.2721 36.5847 89.3655C38.333 88.4216 40.4284 88.6327 42.2126 89.5068C46.3741 91.5455 51.0533 92.69 55.9999 92.69C60.9464 92.69 65.6256 91.5455 69.7871 89.5068C71.5713 88.6327 73.6667 88.4216 75.4151 89.3655C80.7991 92.2721 85.4426 96.3501 88.9949 101.253Z" fill="white"/>
<path d="M72.3557 88.7715C71.6492 97.1851 64.5964 103.793 56.0001 103.793C47.4039 103.793 40.3511 97.1851 39.6445 88.7715C40.5237 88.8482 41.4006 89.1087 42.2129 89.5066C46.3744 91.5454 51.0536 92.6899 56.0001 92.6899C60.9467 92.6899 65.6259 91.5454 69.7874 89.5066C70.5997 89.1087 71.4765 88.8482 72.3557 88.7715Z" fill="#003DC6" fill-opacity="0.05"/>
<circle cx="55.9998" cy="61.3103" r="19.3103" fill="white"/>
</svg>
