<svg xmlns="http://www.w3.org/2000/svg" viewBox="-9066 2604 200 165"><defs><style>.a{fill:#fff;opacity:0;}.b{fill:#1a4ec9;}.c,.d,.g{fill:none;}.c,.d{stroke:#809ee2;}.c,.d,.f,.g,.h{stroke-linecap:round;stroke-width:2px;}.d,.f,.g,.h{stroke-linejoin:round;}.e{fill:#3363d1;}.f,.i{fill:#003ac3;}.f,.g,.h{stroke:#fff;}.h,.j{fill:#002bb3;}</style></defs><g transform="translate(-10259 2352)"><rect class="a" width="200" height="165" transform="translate(1193 252)"/><g transform="translate(1187.5 235.897)"><g transform="translate(6.5 16.103)"><path class="b" d="M191.651,106.671A90.575,90.575,0,1,0,18.562,144.033H183.589a90.235,90.235,0,0,0,8.061-37.362Z" transform="translate(-1.444 -16.103)"/><path class="c" d="M0,0H177.383" transform="translate(10.19 128)"/><line class="d" x2="5.661" transform="translate(0 128)"/><path class="c" d="M0,0H5.661" transform="translate(192.339 128)"/></g><g transform="translate(25 28.457)"><ellipse class="e" cx="32.603" cy="3.396" rx="32.603" ry="3.396" transform="translate(47.103 145.522)"/></g></g><g transform="translate(634 0.426)"><rect class="f" width="48.828" height="57.445" rx="3.6" transform="translate(634.155 308.389)"/><path class="f" d="M60.069,43.87A30.159,30.159,0,0,0,29.91,74.029v15.9H41.4v34.738a10.011,10.011,0,0,1,14.569,3.351l1.061-24.5a2.331,2.331,0,0,1,4.641,0l1.166,24.518A10.032,10.032,0,0,1,78.8,125.958V89.93H90.29v-15.9A30.159,30.159,0,0,0,60.069,43.87Z" transform="translate(598.5 278.88)"/><line class="g" y1="11.489" x2="12.925" transform="translate(664.313 324.186)"/><line class="g" y1="22.978" transform="translate(639.899 345.728)"/><line class="g" y1="22.978" transform="translate(677.238 345.728)"/><path class="h" d="M35.92,91.847a2.394,2.394,0,0,1-1.936-1,2.456,2.456,0,0,1-.333-2.081,10.053,10.053,0,0,1,19.107,0,2.331,2.331,0,0,1-.333,2.081,2.394,2.394,0,0,1-1.936,1Z" transform="translate(602.439 319.943)"/><path class="h" d="M47.65,91.847a2.394,2.394,0,0,1-1.936-1,2.456,2.456,0,0,1-.333-2.081,10.053,10.053,0,0,1,19.107,0,2.331,2.331,0,0,1-.333,2.081,2.394,2.394,0,0,1-1.936,1Z" transform="translate(615.123 319.943)"/><circle class="h" cx="2.872" cy="2.872" r="2.872" transform="translate(649.952 354.345)"/><circle class="h" cx="2.872" cy="2.872" r="2.872" transform="translate(661.441 354.345)"/><circle class="h" cx="2.872" cy="2.872" r="2.872" transform="translate(649.952 365.834)"/><circle class="h" cx="2.872" cy="2.872" r="2.872" transform="translate(661.441 365.834)"/><line class="g" x1="12.925" y1="11.489" transform="translate(639.899 324.186)"/><line class="g" x1="11.489" y2="11.489" transform="translate(639.899 347.164)"/><line class="g" x2="11.489" y2="11.489" transform="translate(665.749 347.164)"/><rect class="h" width="20.106" height="17.234" rx="1.2" transform="translate(648.516 331.367)"/><path class="h" d="M53.37,71.64a5.745,5.745,0,1,0,11.489,0V66H53.37Z" transform="translate(623.868 302.81)"/><path class="h" d="M29.91,71.64a5.745,5.745,0,1,0,11.489,0V66H29.91Z" transform="translate(598.5 302.81)"/><path class="i" d="M34.05,47.584a21.542,21.542,0,0,0,43.084,0V44.712a21.542,21.542,0,1,0-43.084,0Z" transform="translate(602.977 256.496)"/><path class="g" d="M34.05,47.584a21.542,21.542,0,0,0,43.084,0V44.712a21.542,21.542,0,1,0-43.084,0Z" transform="translate(602.977 256.496)"/><path class="j" d="M49.943,26.253A17.192,17.192,0,0,0,36.477,39.615a17.462,17.462,0,0,0,1.478,11.323,4.725,4.725,0,0,0,3.226,2.5,60.775,60.775,0,0,0,24.31,0,4.7,4.7,0,0,0,3.226-2.373,16.859,16.859,0,0,0,1.873-7.784A17.275,17.275,0,0,0,49.943,26.253Z" transform="translate(605.212 259.47)"/><path class="i" d="M49.943,26.256A17.192,17.192,0,0,0,36.477,39.618a17.462,17.462,0,0,0,1.478,11.323,4.725,4.725,0,0,0,3.226,2.5h.375L64.8,30.252a17.3,17.3,0,0,0-14.861-4Z" transform="translate(605.212 259.467)"/><path class="g" d="M49.943,26.253A17.192,17.192,0,0,0,36.477,39.615a17.462,17.462,0,0,0,1.478,11.323,4.725,4.725,0,0,0,3.226,2.5,60.775,60.775,0,0,0,24.31,0,4.7,4.7,0,0,0,3.226-2.373,16.859,16.859,0,0,0,1.873-7.784A17.275,17.275,0,0,0,49.943,26.253Z" transform="translate(605.212 259.47)"/></g></g></svg>