<svg width="32" height="15" viewBox="0 0 32 15" fill="none" xmlns="http://www.w3.org/2000/svg">
<rect width="32" height="15" rx="2" fill="#003DC6"/>
<path d="M8.00751 11L6.29726 5.53065H6.25353C6.31508 6.64328 6.34585 7.38556 6.34585 7.75749V11H5V4.02861H7.05035L8.73145 9.35967H8.7606L10.5437 4.02861H12.5941V11H11.1899V7.70027C11.1899 7.5445 11.1915 7.3649 11.1948 7.16144C11.2013 6.95799 11.2239 6.41757 11.2628 5.54019H11.2191L9.38737 11H8.00751Z" fill="white"/>
<path d="M18.7354 11L18.2204 9.3406H15.6307L15.1157 11H13.4929L16 4H17.8414L20.3582 11H18.7354ZM17.8609 8.10082C17.3847 6.59718 17.1159 5.74682 17.0543 5.54973C16.996 5.35263 16.9539 5.19687 16.928 5.08242C16.8211 5.48933 16.515 6.49546 16.0097 8.10082H17.8609Z" fill="white"/>
<path d="M27 11H25.28L23.6281 8.36308L21.9761 11H20.3631L22.7195 7.40463L20.5137 4.02861H22.1754L23.7058 6.53678L25.2072 4.02861H26.8299L24.5998 7.48569L27 11Z" fill="white"/>
</svg>
