<svg xmlns="http://www.w3.org/2000/svg" viewBox="7948 2325 72 72"><defs><style>.a{fill:#fff;}.b{fill:#cce7ff;}.c,.d{fill:none;}.c{stroke:#005be6;stroke-linecap:round;stroke-linejoin:round;stroke-width:2px;}</style></defs><g transform="translate(7948 2325)"><g transform="translate(1 1)"><path class="a" d="M27.5.52v18H.5v51h33v-36h9v9l9-9h18V.52Z" transform="translate(-0.5 -0.46)"/><path class="b" d="M28.5,10l-6-7.5L16.5,7V22Z" transform="translate(31.5 3.5)"/><path class="b" d="M27.5,16.772V8.864L.5,40.772h33v-24Z" transform="translate(-0.5 16.228)"/><line class="c" x2="33" transform="translate(0 57)"/><path class="c" d="M33.5,21.5v36H.5V6.5h27" transform="translate(-0.5 11.5)"/><line class="c" x2="3" transform="translate(15 63)"/><path class="c" d="M51.5,33.5h-18l-9,9v-9H9.5V.5h42Z" transform="translate(17.5 -0.5)"/><path class="c" d="M24.5,22l12-12-6-7.5L24.5,7l-6-4.5-6,7.5Z" transform="translate(23.5 3.5)"/></g><rect class="d" width="72" height="72"/></g></svg>