<svg xmlns="http://www.w3.org/2000/svg" viewBox="9301 10142 64 64"><defs><style>.a{fill:#fff;}.b{fill:#cce7ff;}.c,.d{fill:none;}.c{stroke:#005be6;stroke-linecap:round;stroke-linejoin:round;stroke-width:2px;}</style></defs><g transform="translate(9301 10142)"><g transform="translate(1.333 1.333)"><path class="a" d="M24.5.52v16H.5V61.853H29.833v-32h8v8l8-8h16V.52Z" transform="translate(-0.5 -0.467)"/><path class="b" d="M27.167,9.167,21.833,2.5,16.5,6.5V19.833Z" transform="translate(26.167 2.833)"/><path class="b" d="M24.5,15.893V8.864L.5,37.227H29.833V15.893Z" transform="translate(-0.5 13.44)"/><line class="c" x2="29.333" transform="translate(0 50.667)"/><path class="c" d="M29.833,19.833v32H.5V6.5h24" transform="translate(-0.5 9.5)"/><line class="c" x2="2.667" transform="translate(13.333 56)"/><path class="c" d="M46.833,29.833h-16l-8,8v-8H9.5V.5H46.833Z" transform="translate(14.5 -0.5)"/><path class="c" d="M23.167,19.833,33.833,9.167,28.5,2.5l-5.333,4-5.333-4L12.5,9.167Z" transform="translate(19.5 2.833)"/></g><rect class="d" width="64" height="64"/></g></svg>