<svg xmlns="http://www.w3.org/2000/svg" viewBox="8086 2386 64 64"><defs><style>.a{fill:#fff;}.b{fill:#cce7ff;}.c,.d{fill:none;}.c{stroke:#005be6;stroke-linecap:round;stroke-linejoin:round;stroke-miterlimit:10;stroke-width:2px;}</style></defs><g transform="translate(8086 2386)"><g transform="translate(1.333 1.333)"><path class="a" d="M59.167,7.5H21.833v24L19.7,28.833H7.967L.5,39.5,7.967,50.167h12l4-5.333H28.5l4,4,4-4,4,4L47.167,39.5l-2.133-2.667H59.167ZM13.833,44.833H11.167l-4-5.333,4-5.333h2.667Z" transform="translate(-0.5 11.167)"/><path class="b" d="M15.5,7.5v8l4,4-4,4V34.167h2.667L20.3,36.833H34.167V7.5Z" transform="translate(24.5 11.167)"/><path class="b" d="M13.833,19.5v5.333H11.167l-4-5.333H.5L7.967,30.167h12l4-5.333H28.5l4,4,4-4,4,4L47.167,19.5Z" transform="translate(-0.5 31.167)"/><path class="c" d="M8.5,23.5V7.5H45.833V36.833H40.5" transform="translate(12.833 11.167)"/><path class="c" d="M11.5,19.167V5.833L22.167.5,32.833,5.833V19.167" transform="translate(17.833 -0.5)"/><line class="c" y1="5.333" transform="translate(40 34.667)"/><line class="c" x1="22.667" transform="translate(24 50.667)"/><path class="c" d="M47.167,26.167l-4-5.333h-19.2L19.7,15.5H7.7L.5,26.167,7.7,36.833h12L23.967,31.5H28.5l4,4,4-4,4,4Z" transform="translate(-0.5 24.5)"/><rect class="c" width="5.6" height="5.6" transform="matrix(0.707, -0.707, 0.707, 0.707, 35.854, 30.666)"/><path class="c" d="M7,28.167,3,22.833,7,17.5H9.667V28.167Z" transform="translate(3.667 27.833)"/></g><rect class="d" width="64" height="64"/></g></svg>