<svg xmlns="http://www.w3.org/2000/svg" viewBox="8358 2325 72 72"><defs><style>.a{fill:#fff;}.b{fill:#cce7ff;}.c,.d{fill:none;}.c{stroke:#005be6;stroke-linecap:round;stroke-linejoin:round;stroke-miterlimit:10;stroke-width:2px;}</style></defs><g transform="translate(8358 2325)"><g transform="translate(1 1)"><path class="a" d="M66.5,7.5h-42v27l-2.4-3H8.9L.5,43.5l8.4,12H22.4l4.5-6H32L36.5,54,41,49.5,45.5,54,53,43.5l-2.4-3H66.5Zm-51,42h-3L8,43.5l4.5-6h3Z" transform="translate(-0.5 13.5)"/><path class="b" d="M15.5,7.5v9L20,21l-4.5,4.5v12h3l2.4,3H36.5V7.5Z" transform="translate(29.5 13.5)"/><path class="b" d="M15.5,19.5v6h-3L8,19.5H.5l8.4,12H22.4l4.5-6H32L36.5,30,41,25.5,45.5,30,53,19.5Z" transform="translate(-0.5 37.5)"/><path class="c" d="M8.5,25.5V7.5h42v33h-6" transform="translate(15.5 13.5)"/><path class="c" d="M11.5,21.5V6.5l12-6,12,6v15" transform="translate(21.5 -0.5)"/><line class="c" y1="6" transform="translate(45 39)"/><line class="c" x1="25.5" transform="translate(27 57)"/><path class="c" d="M53,27.5l-4.5-6H26.9l-4.8-6H8.6L.5,27.5l8.1,12H22.1l4.8-6H32L36.5,38,41,33.5,45.5,38Z" transform="translate(-0.5 29.5)"/><rect class="c" width="6.3" height="6.3" transform="translate(40.336 34.499) rotate(-45)"/><path class="c" d="M7.5,29.5,3,23.5l4.5-6h3v12Z" transform="translate(4.5 33.5)"/></g><rect class="d" width="72" height="72"/></g></svg>