<svg xmlns="http://www.w3.org/2000/svg" viewBox="9296 10061 64 64"><defs><style>.a{fill:#fff;}.b{fill:#cce7ff;}.c,.d{fill:none;}.c{stroke:#005be6;stroke-linecap:round;stroke-linejoin:round;stroke-width:2px;}</style></defs><g transform="translate(9296 10061)"><g transform="translate(1.333 1.333)"><path class="a" d="M51.167,25.853V12.52L29.833.52,8.5,12.52V25.853L.5,48.52h8l10.667,6.667v2.667l10.667,4,10.667-4V55.187L51.167,48.52h8Z" transform="translate(-0.5 -0.467)"/><path class="b" d="M38.167,10l-9.291,8.688-4.043-2.021L19.5,11.333,7.265,22,3.5,32.667l10.667,6.667V32.667l10.667-8,10.667,8v6.667l10.667-6.667-2.859-8.1L42.4,22Z" transform="translate(4.5 15.333)"/><path class="b" d="M18.167,15.5,7.5,23.5v5.333l10.667-8,10.667,8V23.5Z" transform="translate(11.167 24.5)"/><line class="c" y2="6.667" transform="translate(24 44)"/><line class="c" y2="10.667" transform="translate(29.333 40)"/><line class="c" y2="6.667" transform="translate(34.667 44)"/><path class="c" d="M40.048,17.833h-6.9L22.48,12.5l-9.96,5.333H4.912" transform="translate(6.853 19.5)"/><line class="c" y1="23.667" transform="translate(24 3)"/><line class="c" y1="23.667" transform="translate(34.667 3)"/><path class="c" d="M46.167,32.667,38.167,10l-8,1.333-5.333,5.333L19.5,11.333,11.5,10l-8,22.667" transform="translate(4.5 15.333)"/><path class="c" d="M40.5,55.167,51.167,48.5h8l-8-22.667V12.5L29.833.5,8.5,12.5V25.833L.5,48.5h8l10.667,6.667" transform="translate(-0.5 -0.5)"/><path class="c" d="M28.833,32.833l-10.667,4-10.667-4V23.5l10.667-8,10.667,8Z" transform="translate(11.167 24.5)"/></g><rect class="d" width="64" height="64"/></g></svg>