<svg xmlns="http://www.w3.org/2000/svg" viewBox="-9483 6341 48 48"><defs><style>.a,.c{fill:#fff;}.a{opacity:0;}.b{fill:#0050db;}.d{fill:none;}</style></defs><g transform="translate(-10259 6312)"><rect class="a" width="48" height="48" transform="translate(776 29)"/><g transform="translate(765 -76)"><g transform="translate(-5399.85 1019.456)"><path class="b" d="M32.2,200.161l-11.79,6.553a7.873,7.873,0,0,0-4.11,6.844v13.085a7.83,7.83,0,0,0,4.11,6.844l11.79,6.553a8.451,8.451,0,0,0,8.2,0l11.79-6.553a7.874,7.874,0,0,0,4.11-6.844V213.558a7.83,7.83,0,0,0-4.11-6.844L40.4,200.161A8.451,8.451,0,0,0,32.2,200.161Z" transform="translate(5398.549 -1110.556)"/><path class="c" d="M31.405,200.11l-11.2,6.241a7.5,7.5,0,0,0-3.9,6.518v12.462a7.46,7.46,0,0,0,3.9,6.518l11.2,6.241a8.011,8.011,0,0,0,7.789,0l11.2-6.241a7.5,7.5,0,0,0,3.9-6.518V212.869a7.46,7.46,0,0,0-3.9-6.518l-11.2-6.241A8.011,8.011,0,0,0,31.405,200.11Z" transform="translate(5399.549 -1109.556)"/></g><g transform="translate(23.15 116.456)"><rect class="d" width="24" height="24" transform="translate(24 24) rotate(180)"/><rect class="b" width="8" height="1" transform="translate(5 18)"/><rect class="b" width="1" height="8" transform="translate(5 11)"/><rect class="b" width="17.7" height="1" transform="translate(5.674 17.69) rotate(-45)"/></g></g><g transform="translate(577 -599)"><circle class="c" cx="7" cy="7" r="7" transform="translate(233 636)"/><path class="b" d="M18,0a6,6,0,1,0,6,6A6.007,6.007,0,0,0,18,0Zm3,7H17V2h1V6h3Z" transform="translate(222 637)"/></g></g></svg>