<?xml version="1.0" encoding="utf-8"?>
<!-- Generator: Adobe Illustrator 21.1.0, SVG Export Plug-In . SVG Version: 6.00 Build 0)  -->
<svg version="1.1" id="Layer_1" xmlns="http://www.w3.org/2000/svg" xmlns:xlink="http://www.w3.org/1999/xlink" x="0px" y="0px"
	 viewBox="0 0 117 27.1" style="enable-background:new 0 0 117 27.1;" xml:space="preserve">
<style>.st0{fill:#FFFFFF;}.st1{fill:#1C6AF3;}</style>
<g>
	<g>
		<path class="st0" d="M45.5,21.5c0.3-0.2,0.6-0.5,0.7-0.9c0.1-0.4,0.2-0.8,0.2-1.2V9.2c0.2,0,0.4-0.1,0.7-0.1
			c0.3-0.1,0.6-0.1,1-0.1c0.3,0,0.6,0,0.9,0.1c0.3,0,0.5,0.1,0.7,0.3c0.2,0.1,0.3,0.3,0.4,0.5c0.1,0.2,0.1,0.5,0.1,0.9v8.9
			c0,0.6-0.1,1.2-0.2,1.7c-0.1,0.5-0.4,0.9-0.6,1.3c-0.3,0.4-0.6,0.6-1,0.8c-0.4,0.2-0.8,0.3-1.3,0.3c-0.7,0-1.2-0.2-1.5-0.6
			c-0.4-0.4-0.6-0.9-0.6-1.5L45.5,21.5z M46.2,6.1c0-0.6,0.2-1,0.6-1.4C47.2,4.2,47.7,4,48.3,4c0.6,0,1.1,0.2,1.5,0.6
			c0.4,0.4,0.6,0.9,0.6,1.4s-0.2,1-0.6,1.4c-0.4,0.4-0.9,0.6-1.5,0.6c-0.6,0-1.1-0.2-1.5-0.6C46.4,7.1,46.2,6.6,46.2,6.1z"/>
		<path class="st0" d="M59.2,9.7c0.2-0.1,0.4-0.2,0.8-0.3c0.4-0.1,0.7-0.1,1.1-0.1c0.6,0,1.1,0.1,1.6,0.3c0.4,0.2,0.7,0.5,0.8,0.8
			c0.2,0.6,0.3,1.2,0.5,1.7c0.1,0.5,0.3,1,0.4,1.5c0.1,0.5,0.3,1,0.4,1.4c0.1,0.5,0.2,1,0.4,1.5h0.1c0.1-0.9,0.3-1.8,0.4-2.6
			c0.1-0.8,0.2-1.6,0.3-2.4c0.1-0.8,0.2-1.6,0.3-2.4c0.1-0.8,0.2-1.6,0.3-2.4c0.6-0.3,1.1-0.5,1.8-0.5c0.6,0,1,0.1,1.4,0.4
			c0.4,0.2,0.6,0.6,0.6,1.2c0,0.3,0,0.8-0.1,1.4c-0.1,0.6-0.2,1.3-0.3,2c-0.1,0.7-0.2,1.5-0.4,2.3c-0.1,0.8-0.3,1.6-0.5,2.3
			c-0.2,0.7-0.3,1.4-0.5,2c-0.2,0.6-0.3,1.1-0.5,1.4c-0.2,0.2-0.6,0.4-1.1,0.5c-0.5,0.1-1,0.2-1.6,0.2c-0.7,0-1.3-0.1-1.8-0.3
			c-0.5-0.2-0.8-0.4-0.9-0.8c-0.2-0.6-0.4-1.3-0.6-2.1c-0.2-0.8-0.5-1.7-0.7-2.7c-0.2,1-0.4,1.9-0.6,2.8c-0.2,0.9-0.4,1.7-0.6,2.3
			c-0.2,0.2-0.6,0.4-1,0.5c-0.4,0.1-0.9,0.2-1.5,0.2c-0.7,0-1.3-0.1-1.8-0.3c-0.5-0.2-0.9-0.4-1.1-0.8c-0.1-0.3-0.3-0.7-0.4-1.2
			c-0.2-0.5-0.3-1.1-0.5-1.8c-0.2-0.7-0.3-1.4-0.5-2.2c-0.2-0.8-0.3-1.6-0.5-2.4c-0.1-0.8-0.3-1.6-0.4-2.3c-0.1-0.8-0.2-1.4-0.3-2.1
			c0.2-0.2,0.5-0.4,0.9-0.5c0.4-0.2,0.8-0.2,1.2-0.2c0.6,0,1,0.1,1.4,0.4c0.4,0.2,0.6,0.7,0.7,1.2c0.2,1.5,0.4,2.8,0.6,3.8
			c0.2,1,0.3,1.8,0.4,2.5c0.1,0.6,0.2,1.2,0.2,1.5c0,0.4,0.1,0.6,0.1,0.9h0.1c0.1-0.6,0.3-1.1,0.4-1.7c0.1-0.5,0.2-1,0.4-1.5
			c0.1-0.5,0.3-1.1,0.4-1.7S59,10.5,59.2,9.7z"/>
		<path class="st0" d="M76.4,8.7c0.8,0,1.5,0.1,2.2,0.2c0.7,0.2,1.2,0.4,1.7,0.7c0.5,0.3,0.8,0.8,1.1,1.3c0.3,0.5,0.4,1.1,0.4,1.8v5
			c0,0.4-0.1,0.7-0.3,0.9c-0.2,0.2-0.5,0.5-0.8,0.6c-1,0.6-2.3,0.9-4.1,0.9c-0.8,0-1.5-0.1-2.1-0.2c-0.6-0.1-1.2-0.4-1.6-0.7
			c-0.5-0.3-0.8-0.7-1.1-1.1c-0.2-0.5-0.4-1-0.4-1.6c0-1,0.3-1.8,0.9-2.4c0.6-0.6,1.6-0.9,2.8-1l2.9-0.3v-0.2c0-0.4-0.2-0.7-0.6-0.9
			c-0.4-0.2-0.9-0.3-1.6-0.3c-0.6,0-1.1,0.1-1.7,0.2c-0.5,0.1-1,0.3-1.5,0.4c-0.2-0.1-0.4-0.3-0.5-0.6s-0.2-0.6-0.2-0.9
			c0-0.4,0.1-0.7,0.3-0.9s0.5-0.4,0.9-0.6c0.4-0.2,0.9-0.3,1.5-0.4C75.3,8.8,75.9,8.7,76.4,8.7z M76.6,17.5c0.3,0,0.5,0,0.8-0.1
			c0.3-0.1,0.5-0.1,0.7-0.2v-1.8l-1.6,0.1c-0.4,0-0.8,0.1-1,0.3c-0.3,0.1-0.4,0.4-0.4,0.7c0,0.3,0.1,0.5,0.3,0.7
			C75.6,17.4,76,17.5,76.6,17.5z"/>
		<path class="st0" d="M88,19.9c-0.2,0-0.4,0.1-0.7,0.1c-0.3,0.1-0.6,0.1-1,0.1c-0.3,0-0.6,0-0.9-0.1c-0.3,0-0.5-0.1-0.7-0.3
			c-0.2-0.1-0.3-0.3-0.4-0.5c-0.1-0.2-0.1-0.5-0.1-0.9v-13c0.2,0,0.4-0.1,0.7-0.1c0.3-0.1,0.6-0.1,1-0.1c0.3,0,0.6,0,0.9,0.1
			c0.3,0,0.5,0.1,0.7,0.3c0.2,0.1,0.3,0.3,0.4,0.5C87.9,6.3,88,6.6,88,6.9V19.9z"/>
		<path class="st0" d="M94.2,19.9c-0.2,0-0.4,0.1-0.7,0.1c-0.3,0.1-0.6,0.1-1,0.1c-0.3,0-0.6,0-0.9-0.1c-0.3,0-0.5-0.1-0.7-0.3
			c-0.2-0.1-0.3-0.3-0.4-0.5c-0.1-0.2-0.1-0.5-0.1-0.9v-13c0.2,0,0.4-0.1,0.7-0.1s0.6-0.1,1-0.1c0.3,0,0.6,0,0.9,0.1
			c0.3,0,0.5,0.1,0.7,0.3C93.8,5.6,94,5.8,94.1,6c0.1,0.2,0.1,0.5,0.1,0.9V19.9z"/>
		<path class="st0" d="M102.4,20.3c-0.9,0-1.7-0.1-2.4-0.4c-0.8-0.2-1.4-0.6-2-1.1c-0.6-0.5-1-1.1-1.3-1.9c-0.3-0.7-0.5-1.6-0.5-2.6
			c0-1,0.2-1.8,0.5-2.5c0.3-0.7,0.7-1.3,1.3-1.7c0.5-0.5,1.1-0.8,1.8-1c0.7-0.2,1.4-0.3,2.1-0.3c0.8,0,1.5,0.1,2.2,0.4
			s1.2,0.6,1.7,1c0.5,0.4,0.8,0.9,1.1,1.5c0.3,0.6,0.4,1.2,0.4,1.9c0,0.5-0.1,0.9-0.4,1.2c-0.3,0.3-0.7,0.4-1.2,0.5L99.9,16
			c0.2,0.5,0.5,0.9,1,1.1c0.5,0.2,1.1,0.4,1.7,0.4c0.6,0,1.2-0.1,1.7-0.2c0.5-0.2,1-0.3,1.3-0.5c0.2,0.1,0.4,0.4,0.6,0.6
			c0.2,0.3,0.2,0.6,0.2,0.8c0,0.7-0.3,1.2-0.9,1.5c-0.5,0.3-1,0.4-1.6,0.5C103.4,20.3,102.9,20.3,102.4,20.3z M101.7,11.5
			c-0.4,0-0.7,0.1-0.9,0.2c-0.3,0.1-0.5,0.3-0.6,0.5c-0.2,0.2-0.3,0.4-0.4,0.6c-0.1,0.2-0.1,0.5-0.1,0.7l3.8-0.6
			c0-0.3-0.2-0.6-0.5-0.9C102.7,11.7,102.3,11.5,101.7,11.5z"/>
		<path class="st0" d="M112.7,16.2c0,0.4,0.1,0.7,0.4,0.8c0.2,0.2,0.6,0.2,1,0.2c0.2,0,0.5,0,0.7-0.1c0.2,0,0.4-0.1,0.6-0.1
			c0.1,0.2,0.2,0.3,0.3,0.5c0.1,0.2,0.1,0.4,0.1,0.7c0,0.6-0.2,1-0.6,1.4c-0.4,0.4-1.2,0.5-2.2,0.5c-1.3,0-2.3-0.3-3-0.9
			c-0.7-0.6-1.1-1.6-1.1-2.9V6.9c0.2,0,0.4-0.1,0.7-0.1c0.3-0.1,0.6-0.1,1-0.1c0.7,0,1.2,0.1,1.5,0.3c0.4,0.2,0.5,0.7,0.5,1.5v1.4
			h2.9c0.1,0.2,0.2,0.4,0.3,0.6c0.1,0.2,0.1,0.5,0.1,0.8c0,0.5-0.1,0.9-0.3,1.1c-0.2,0.2-0.5,0.3-0.9,0.3h-2V16.2z"/>
	</g>
</g>
<g>
	<g>
		<path class="st0" d="M19.5,27.1h-10c-4.7,0-8.5-3.8-8.5-8.5v-16c0-1.4,1.1-2.5,2.5-2.5h21c1.4,0,2.5,1.1,2.5,2.5s-1.1,2.5-2.5,2.5
			H6v13.5c0,1.9,1.6,3.5,3.5,3.5h10c1.4,0,2.5,1.1,2.5,2.5S20.9,27.1,19.5,27.1z"/>
	</g>
</g>
<g>
	<g>
		<path class="st1" d="M32.5,27.1h-5c-1.4,0-2.5-1.1-2.5-2.5s1.1-2.5,2.5-2.5h5c1.9,0,3.5-1.6,3.5-3.5V5.1h-3.5
			c-1.4,0-2.5-1.1-2.5-2.5s1.1-2.5,2.5-2.5h6c1.4,0,2.5,1.1,2.5,2.5v16C41,23.2,37.2,27.1,32.5,27.1z"/>
	</g>
</g>
<path class="st0" d="M28.5,9.1h-25v5h21.8c0.6,1.2,1.8,2,3.2,2c1.9,0,3.5-1.6,3.5-3.5S30.4,9.1,28.5,9.1z"/>
</svg>
