<svg xmlns="http://www.w3.org/2000/svg" viewBox="5877 -1900 137 36"><defs><style>.a,.c{fill:#2d2c3e;}.b{fill:#1c6af3;}.c{font-size:13px;font-family:OpenSans, Open Sans;opacity:0.5;}</style></defs><g transform="translate(5744 -1938)"><g transform="translate(132 46.9)"><path class="a" d="M45.5,21.5a1.6,1.6,0,0,0,.7-.9,5.019,5.019,0,0,0,.2-1.2V9.2c.2,0,.4-.1.7-.1a3.083,3.083,0,0,1,1-.1,2.769,2.769,0,0,1,.9.1.908.908,0,0,1,.7.3,1,1,0,0,1,.4.5,2.22,2.22,0,0,1,.1.9v8.9a8.807,8.807,0,0,1-.2,1.7,5.171,5.171,0,0,1-.6,1.3,2.539,2.539,0,0,1-1,.8,2.768,2.768,0,0,1-1.3.3,1.755,1.755,0,0,1-1.5-.6,2.035,2.035,0,0,1-.6-1.5Zm.7-15.4a1.816,1.816,0,0,1,.6-1.4A1.8,1.8,0,0,1,48.3,4a2.035,2.035,0,0,1,1.5.6,1.933,1.933,0,0,1,0,2.8,2.175,2.175,0,0,1-3,0A1.612,1.612,0,0,1,46.2,6.1Z"/><path class="a" d="M59.2,9.7a3.385,3.385,0,0,1,.8-.3,4.1,4.1,0,0,1,1.1-.1,4.146,4.146,0,0,1,1.6.3,1.549,1.549,0,0,1,.8.8c.2.6.3,1.2.5,1.7.1.5.3,1,.4,1.5s.3,1,.4,1.4a8.33,8.33,0,0,0,.4,1.5h.1c.1-.9.3-1.8.4-2.6l.3-2.4.3-2.4.3-2.4a3.743,3.743,0,0,1,1.8-.5,2.116,2.116,0,0,1,1.4.4,1.209,1.209,0,0,1,.6,1.2,8.17,8.17,0,0,1-.1,1.4c-.1.6-.2,1.3-.3,2a22.3,22.3,0,0,1-.4,2.3,15.537,15.537,0,0,1-.5,2.3c-.2.7-.3,1.4-.5,2a7.172,7.172,0,0,1-.5,1.4,2.257,2.257,0,0,1-1.1.5,7.772,7.772,0,0,1-1.6.2,4.844,4.844,0,0,1-1.8-.3c-.5-.2-.8-.4-.9-.8q-.3-.9-.6-2.1c-.2-.8-.5-1.7-.7-2.7-.2,1-.4,1.9-.6,2.8s-.4,1.7-.6,2.3a2.344,2.344,0,0,1-1,.5,6.052,6.052,0,0,1-1.5.2,4.844,4.844,0,0,1-1.8-.3,1.879,1.879,0,0,1-1.1-.8,8.339,8.339,0,0,1-.4-1.2c-.2-.5-.3-1.1-.5-1.8s-.3-1.4-.5-2.2-.3-1.6-.5-2.4c-.1-.8-.3-1.6-.4-2.3-.1-.8-.2-1.4-.3-2.1a1.934,1.934,0,0,1,.9-.5A2.537,2.537,0,0,1,54.3,6a2.116,2.116,0,0,1,1.4.4,1.64,1.64,0,0,1,.7,1.2c.2,1.5.4,2.8.6,3.8s.3,1.8.4,2.5a12.543,12.543,0,0,1,.2,1.5c0,.4.1.6.1.9h.1c.1-.6.3-1.1.4-1.7a8.331,8.331,0,0,1,.4-1.5c.1-.5.3-1.1.4-1.7A12.765,12.765,0,0,1,59.2,9.7Z"/><path class="a" d="M76.4,8.7a14.979,14.979,0,0,1,2.2.2,6.69,6.69,0,0,1,1.7.7,3.482,3.482,0,0,1,1.1,1.3,3.425,3.425,0,0,1,.4,1.8v5a1.222,1.222,0,0,1-.3.9,2.407,2.407,0,0,1-.8.6,7.793,7.793,0,0,1-4.1.9,12.482,12.482,0,0,1-2.1-.2,3.9,3.9,0,0,1-1.6-.7,3.838,3.838,0,0,1-1.1-1.1,4.193,4.193,0,0,1-.4-1.6,3.244,3.244,0,0,1,.9-2.4,4.465,4.465,0,0,1,2.8-1l2.9-.3v-.2a.961.961,0,0,0-.6-.9,3.506,3.506,0,0,0-1.6-.3,9.852,9.852,0,0,0-1.7.2c-.5.1-1,.3-1.5.4a1.024,1.024,0,0,1-.5-.6,2.92,2.92,0,0,1-.2-.9,1.222,1.222,0,0,1,.3-.9,3.49,3.49,0,0,1,.9-.6,5.415,5.415,0,0,1,1.5-.4A5.736,5.736,0,0,0,76.4,8.7Zm.2,8.8a2.2,2.2,0,0,0,.8-.1,6.372,6.372,0,0,0,.7-.2V15.4l-1.6.1a1.493,1.493,0,0,0-1,.3.67.67,0,0,0-.4.7.908.908,0,0,0,.3.7A1.737,1.737,0,0,0,76.6,17.5Z"/><path class="a" d="M88,19.9c-.2,0-.4.1-.7.1a3.083,3.083,0,0,1-1,.1,2.769,2.769,0,0,1-.9-.1.908.908,0,0,1-.7-.3,1,1,0,0,1-.4-.5,2.22,2.22,0,0,1-.1-.9V5.3c.2,0,.4-.1.7-.1a3.083,3.083,0,0,1,1-.1,2.769,2.769,0,0,1,.9.1.908.908,0,0,1,.7.3,1,1,0,0,1,.4.5c0,.3.1.6.1.9Z"/><path class="a" d="M94.2,19.9c-.2,0-.4.1-.7.1a3.083,3.083,0,0,1-1,.1,2.769,2.769,0,0,1-.9-.1.908.908,0,0,1-.7-.3,1,1,0,0,1-.4-.5,2.22,2.22,0,0,1-.1-.9V5.3c.2,0,.4-.1.7-.1s.6-.1,1-.1a2.769,2.769,0,0,1,.9.1.908.908,0,0,1,.7.3,2.181,2.181,0,0,1,.4.5,2.22,2.22,0,0,1,.1.9Z"/><path class="a" d="M102.4,20.3a6.051,6.051,0,0,1-2.4-.4,4.9,4.9,0,0,1-2-1.1,4.312,4.312,0,0,1-1.3-1.9,6.688,6.688,0,0,1-.5-2.6,6.175,6.175,0,0,1,.5-2.5A3.708,3.708,0,0,1,98,10.1a4,4,0,0,1,1.8-1,7.613,7.613,0,0,1,2.1-.3,5.381,5.381,0,0,1,2.2.4,6.933,6.933,0,0,1,1.7,1,4.177,4.177,0,0,1,1.1,1.5,4.058,4.058,0,0,1,.4,1.9,1.594,1.594,0,0,1-.4,1.2,2.2,2.2,0,0,1-1.2.5l-5.8.7a1.818,1.818,0,0,0,1,1.1,4.711,4.711,0,0,0,1.7.4,8.807,8.807,0,0,0,1.7-.2,8.93,8.93,0,0,0,1.3-.5c.2.1.4.4.6.6a1.345,1.345,0,0,1,.2.8,1.551,1.551,0,0,1-.9,1.5,4.284,4.284,0,0,1-1.6.5A7.569,7.569,0,0,1,102.4,20.3Zm-.7-8.8a2,2,0,0,0-.9.2,1.024,1.024,0,0,0-.6.5,2.092,2.092,0,0,0-.4.6,1.7,1.7,0,0,0-.1.7l3.8-.6a1.382,1.382,0,0,0-.5-.9A1.728,1.728,0,0,0,101.7,11.5Z"/><path class="a" d="M112.7,16.2c0,.4.1.7.4.8a1.5,1.5,0,0,0,1,.2,1.7,1.7,0,0,0,.7-.1c.2,0,.4-.1.6-.1.1.2.2.3.3.5a1.483,1.483,0,0,1,.1.7,1.816,1.816,0,0,1-.6,1.4,3.259,3.259,0,0,1-2.2.5,4.479,4.479,0,0,1-3-.9,3.69,3.69,0,0,1-1.1-2.9V6.9c.2,0,.4-.1.7-.1a3.083,3.083,0,0,1,1-.1,2.81,2.81,0,0,1,1.5.3c.4.2.5.7.5,1.5V9.9h2.9l.3.6a1.949,1.949,0,0,1,.1.8,1.609,1.609,0,0,1-.3,1.1,1.222,1.222,0,0,1-.9.3h-2Z"/><path class="a" d="M19.5,27.1H9.5A8.493,8.493,0,0,1,1,18.6V2.6A2.476,2.476,0,0,1,3.5.1h21A2.476,2.476,0,0,1,27,2.6a2.476,2.476,0,0,1-2.5,2.5H6V18.6a3.543,3.543,0,0,0,3.5,3.5h10a2.5,2.5,0,0,1,0,5Z"/><path class="b" d="M32.5,27.1h-5a2.5,2.5,0,0,1,0-5h5A3.543,3.543,0,0,0,36,18.6V5.1H32.5A2.476,2.476,0,0,1,30,2.6,2.476,2.476,0,0,1,32.5.1h6A2.476,2.476,0,0,1,41,2.6v16A8.557,8.557,0,0,1,32.5,27.1Z"/><path class="a" d="M28.5,9.1H3.5v5H25.3a3.515,3.515,0,1,0,3.2-5Z"/></g><text class="c" transform="translate(270 52)"><tspan x="-22.153" y="0">alfa</tspan></text></g></svg>