<svg xmlns="http://www.w3.org/2000/svg" viewBox="7940.125 -1631.829 197.771 128.829"><defs><style>.a{fill:#fff;stroke:#d9d9e0;stroke-width:2px;}.b{fill:#474667;opacity:0.2;}.c{stroke:none;}.d{fill:none;}</style></defs><g transform="translate(7180 -1938)"><g class="a" transform="translate(767 425)"><rect class="c" width="180" height="10" rx="4"/><rect class="d" x="1" y="1" width="178" height="8" rx="3"/></g><g class="a" transform="translate(796 332)"><path class="c" d="M5,0H118a5,5,0,0,1,5,5V95a0,0,0,0,1,0,0H0a0,0,0,0,1,0,0V5A5,5,0,0,1,5,0Z"/><path class="d" d="M5,1H118a4,4,0,0,1,4,4V93a1,1,0,0,1-1,1H2a1,1,0,0,1-1-1V5A4,4,0,0,1,5,1Z"/></g><path class="b" d="M84.84,90c-2.283,1.9,1.116,5.5,3.144,3.242C90.051,91.314,86.839,87.975,84.84,90Zm17.309-7.973a3.75,3.75,0,1,0,4.754,4.724A3.771,3.771,0,0,0,102.149,82.03ZM75.212,71.646A3.745,3.745,0,1,0,80.678,74.9,3.775,3.775,0,0,0,75.212,71.646Zm31.414-1.752c-.644,1.123.442,2.021,1.205,2.658,2,1.655,3.841,3.511,5.952,5.031,1.385.389,2.665-1.595,1.452-2.508-1.8-1.752-3.766-3.324-5.637-4.986C108.857,69.168,107.36,68.674,106.626,69.894Zm-30.7-9.7A1.511,1.511,0,0,0,77.2,62.647c2.74.157,5.48.329,8.228.374,1.565.067,1.879-2.328.5-2.852-2.186-.3-4.395-.254-6.581-.419C78.237,59.87,76.74,59.2,75.931,60.192Z" transform="translate(744.375 336.918) rotate(-20)"/><path class="b" d="M12.9,114.8a3.744,3.744,0,1,0,5.009,4.245A3.77,3.77,0,0,0,12.9,114.8Zm.764,2.021c1.8-.674,3.009,2.134,1.19,2.912A1.574,1.574,0,0,1,13.665,116.821ZM.66,80.054c-1.108,1.175-.083,2.538.868,3.384-.868.883-2.006,2.328-.853,3.5,1.176,1.145,2.538.06,3.444-.824.943.846,2.231,1.954,3.458.853,1.176-1.19.053-2.583-.831-3.511.929-.831,1.992-2.306.816-3.421-1.168-1.228-2.463.15-3.512.719C3.115,79.971,1.775,78.893.66,80.054Z" transform="translate(759.946 277.975)"/><path class="b" d="M151.382,113.3a3.752,3.752,0,1,0,5.046,4.222A3.782,3.782,0,0,0,151.382,113.3Zm.771,2.044c1.8-.734,3.047,2.141,1.175,2.89A1.561,1.561,0,0,1,152.153,115.346ZM143.281,93.9c-4.739,1.213-6.4,7.921-2.785,11.2,3.339,3.646,10.115,1.879,11.26-2.927C153.373,97.3,148.11,92.13,143.281,93.9Zm.614,2.164c3.242-1.228,6.865,2.328,5.637,5.593A4.478,4.478,0,1,1,143.9,96.06Zm9.538-33.87c1.3.988-.022,2.051-.539,3.025-.12,1.28.913,1.9,2.014,2.134.659-.479,1.333-.951,2.014-1.408,1.19,1.729,3.931,1.617,4.028-.794-.479-.584-.958-1.168-1.422-1.752.433-.719.935-1.385,1.414-2.074-.232-2.515-2.89-2.231-4.193-.726-.606-.464-1.2-.936-1.789-1.4C153.486,59.248,152.115,61,153.433,62.191Z" transform="translate(796.946 246.975)"/></g></svg>