<svg xmlns="http://www.w3.org/2000/svg" viewBox="6080 6541 96 96"><defs><style>.a{fill:#fff;}.b{fill:#cce7ff;}.c,.d,.e{fill:none;}.c,.d{stroke:#15c;stroke-linecap:round;stroke-linejoin:round;stroke-width:2px;}.d{stroke-miterlimit:10;}</style></defs><g transform="translate(6080 6541)"><g transform="translate(2 4)"><path class="a" d="M72.5,1l-16,9v5H.5V71h28V81l-16,6v4h48V87l-16-6V71h28V37l16-9V10Z" transform="translate(-0.5 -1)"/><path class="b" d="M54.1,8.968.5,41.168h72l-.1-21.4-14.9-9.2Z" transform="translate(-0.5 16.832)"/><g transform="translate(0 14)"><path class="c" d="M72.5,36.5v24H.5V4.5h48" transform="translate(-0.5 -4.5)"/><path class="c" d="M51.5,34.5v4H3.5v-4l16-6v-10h16v10Z" transform="translate(8.5 37.5)"/><line class="c" x2="72" transform="translate(0 44)"/></g><g transform="translate(54.5 2)"><g transform="translate(0.75 0.75)"><g transform="translate(16.75 10.25)"><line class="d" y2="9"/><line class="d" y2="1.5" transform="translate(0 12)"/></g><path class="d" d="M29.5,21.75,16,28.5,2.5,21.75V10.5" transform="translate(0.25 3.75)"/><path class="d" d="M.5,13.5l3-3,3,3" transform="translate(-0.75 3.75)"/><path class="d" d="M2.5,7.25,16,.5,29.5,7.25V18.5" transform="translate(0.25 -1.25)"/><path class="d" d="M24.5,10.5l-3,3-3-3" transform="translate(8.25 3.75)"/></g><rect class="e" width="36" height="36"/></g></g><rect class="e" width="96" height="96"/></g></svg>