<svg xmlns="http://www.w3.org/2000/svg" viewBox="8768 2325 72 72"><defs><style>.a{fill:#fff;}.b{fill:#cce7ff;}.c,.d{fill:none;}.c{stroke:#005be6;stroke-linecap:round;stroke-linejoin:round;stroke-width:2px;}</style></defs><g transform="translate(8768 2325)"><g transform="translate(1 1)"><path class="a" d="M57.5,29.02v-15L33.5.52l-24,13.5v15l-9,25.5h9l12,7.5v3l12,4.5,12-4.5v-3l12-7.5h9Z" transform="translate(-0.5 -0.46)"/><path class="b" d="M42.5,10,32.048,19.774,27.5,17.5l-6-6L7.736,23.5,3.5,35.5l12,7.5V35.5l12-9,12,9V43l12-7.5-3.216-9.112L47.263,23.5Z" transform="translate(5.5 18.5)"/><path class="b" d="M19.5,15.5l-12,9v6l12-9,12,9v-6Z" transform="translate(13.5 29.5)"/><line class="c" y2="7.5" transform="translate(27 49.5)"/><line class="c" y2="12" transform="translate(33 45)"/><line class="c" y2="7.5" transform="translate(39 49.5)"/><path class="c" d="M44.44,18.5H36.678l-12-6-11.2,6H4.912" transform="translate(8.324 23.5)"/><line class="c" y1="26.625" transform="translate(27 3.375)"/><line class="c" y1="26.625" transform="translate(39 3.375)"/><path class="c" d="M51.5,35.5,42.5,10l-9,1.5-6,6-6-6-9-1.5-9,25.5" transform="translate(5.5 18.5)"/><path class="c" d="M45.5,62l12-7.5h9L57.5,29V14L33.5.5,9.5,14V29L.5,54.5h9l12,7.5" transform="translate(-0.5 -0.5)"/><path class="c" d="M31.5,35l-12,4.5L7.5,35V24.5l12-9,12,9Z" transform="translate(13.5 29.5)"/></g><rect class="d" width="72" height="72"/></g></svg>