<svg width="32" height="32" viewBox="0 0 32 32" fill="none" xmlns="http://www.w3.org/2000/svg">
<circle cx="16" cy="16" r="16" fill="#245634"/>
<path d="M10.1188 7.9802H13.3267V10.1472L16 12.7091L18.6733 10.1472V7.9802H21.8812V11.5161L17.2024 16L21.8812 20.4839V24.0198H18.6733V21.8528L16 19.2909L13.3267 21.8528L13.3267 24.0198H10.1188V20.4839L14.7976 16L10.1188 11.5161V7.9802Z" fill="white"/>
<path fill-rule="evenodd" clip-rule="evenodd" d="M14.3069 7H9.13861V11.9344L13.381 16L9.13861 20.0656V25H14.3069L14.3069 22.2711L16 20.6485L17.6931 22.2711V25H22.8614V20.0656L18.619 16L22.8614 11.9344V7H17.6931V9.72894L16 11.3515L14.3069 9.72894V7ZM9.67326 20.2937L14.1537 16L9.67326 11.7063V7.53465H13.7723V9.9571L16 12.092L18.2277 9.9571V7.53465H22.3267V11.7063L17.8463 16L22.3267 20.2937V24.4653H18.2277V22.0429L16 19.908L13.7723 22.0429V24.4653H9.67326V20.2937Z" fill="white"/>
</svg>
