<svg width="32" height="32" viewBox="0 0 32 32" fill="none" xmlns="http://www.w3.org/2000/svg">
<circle cx="16" cy="16" r="16" fill="#285CBC"/>
<path d="M16.4588 7.73504C16.3332 7.77587 16.1983 7.70711 16.1574 7.58147C16.1166 7.45582 16.1854 7.32088 16.311 7.28005C16.4366 7.23923 16.5716 7.30799 16.6124 7.43364C16.6532 7.55927 16.5845 7.69422 16.4588 7.73504Z" fill="white"/>
<path d="M15.7105 8.56507C15.7599 8.71704 15.9231 8.80021 16.0751 8.75083C16.227 8.70145 16.3102 8.53823 16.2608 8.38625C16.2115 8.23428 16.0482 8.15111 15.8963 8.20049C15.7443 8.24987 15.6611 8.41309 15.7105 8.56507Z" fill="white"/>
<path d="M15.3204 9.64996C15.3757 9.82017 15.5586 9.91333 15.7288 9.85802C15.899 9.80271 15.9922 9.61988 15.9368 9.44967C15.8815 9.27945 15.6987 9.18629 15.5285 9.2416C15.3583 9.29691 15.2651 9.47974 15.3204 9.64996Z" fill="white"/>
<path d="M15.0428 10.854C15.1106 11.0627 15.3347 11.1769 15.5433 11.1091C15.752 11.0413 15.8662 10.8172 15.7984 10.6085C15.7306 10.3999 15.5065 10.2857 15.2978 10.3535C15.0892 10.4213 14.975 10.6454 15.0428 10.854Z" fill="white"/>
<path d="M14.8122 12.1715C14.8967 12.4318 15.1762 12.5742 15.4365 12.4897C15.6967 12.4051 15.8392 12.1256 15.7546 11.8653C15.6701 11.6051 15.3905 11.4626 15.1303 11.5472C14.87 11.6318 14.7276 11.9113 14.8122 12.1715Z" fill="white"/>
<path d="M14.7869 13.6411C14.8811 13.9312 15.1927 14.0899 15.4828 13.9957C15.7729 13.9014 15.9317 13.5898 15.8374 13.2997C15.7432 13.0096 15.4316 12.8509 15.1415 12.9451C14.8514 13.0394 14.6926 13.351 14.7869 13.6411Z" fill="white"/>
<path d="M15.5827 15.6239C15.2578 15.7295 14.9087 15.5516 14.8031 15.2267C14.6975 14.9017 14.8754 14.5526 15.2004 14.447C15.5253 14.3415 15.8744 14.5193 15.98 14.8443C16.0856 15.1693 15.9077 15.5183 15.5827 15.6239Z" fill="white"/>
<path d="M7.47841 13.3304C7.47841 13.4625 7.37131 13.5696 7.23921 13.5696C7.10709 13.5696 7 13.4625 7 13.3304C7 13.1983 7.10709 13.0912 7.23921 13.0912C7.37131 13.0912 7.47841 13.1983 7.47841 13.3304Z" fill="white"/>
<path d="M8.03655 14.2986C8.19635 14.2986 8.32588 14.1691 8.32588 14.0093C8.32588 13.8495 8.19635 13.7199 8.03655 13.7199C7.87676 13.7199 7.74722 13.8495 7.74722 14.0093C7.74722 14.1691 7.87676 14.2986 8.03655 14.2986Z" fill="white"/>
<path d="M8.9478 15.0048C9.12678 15.0048 9.27188 14.8597 9.27188 14.6808C9.27188 14.5018 9.12678 14.3567 8.9478 14.3567C8.76883 14.3567 8.62374 14.5018 8.62374 14.6808C8.62374 14.8597 8.76883 15.0048 8.9478 15.0048Z" fill="white"/>
<path d="M10.0071 15.641C10.2265 15.641 10.4044 15.4631 10.4044 15.2437C10.4044 15.0243 10.2265 14.8465 10.0071 14.8465C9.78775 14.8465 9.60989 15.0243 9.60989 15.2437C9.60989 15.4631 9.78775 15.641 10.0071 15.641Z" fill="white"/>
<path d="M11.1889 16.2674C11.4626 16.2674 11.6844 16.0456 11.6844 15.772C11.6844 15.4983 11.4626 15.2765 11.1889 15.2765C10.9153 15.2765 10.6934 15.4983 10.6934 15.772C10.6934 16.0456 10.9153 16.2674 11.1889 16.2674Z" fill="white"/>
<path d="M12.5787 16.7456C12.8837 16.7456 13.131 16.4983 13.131 16.1933C13.131 15.8883 12.8837 15.641 12.5787 15.641C12.2737 15.641 12.0264 15.8883 12.0264 16.1933C12.0264 16.4983 12.2737 16.7456 12.5787 16.7456Z" fill="white"/>
<path d="M14.7104 16.6014C14.7104 16.9431 14.4334 17.2201 14.0917 17.2201C13.75 17.2201 13.473 16.9431 13.473 16.6014C13.473 16.2597 13.75 15.9827 14.0917 15.9827C14.4334 15.9827 14.7104 16.2597 14.7104 16.6014Z" fill="white"/>
<path d="M15.7656 18.5476C15.8712 18.2226 15.6933 17.8735 15.3684 17.7679C15.0434 17.6624 14.6943 17.8402 14.5888 18.1652C14.4832 18.4902 14.661 18.8392 14.986 18.9448C15.311 19.0504 15.66 18.8725 15.7656 18.5476Z" fill="white"/>
<path d="M14.4922 19.1439C14.7823 19.2382 14.9411 19.5498 14.8468 19.8399C14.7525 20.13 14.4409 20.2887 14.1508 20.1945C13.8607 20.1002 13.702 19.7886 13.7962 19.4985C13.8905 19.2084 14.2021 19.0497 14.4922 19.1439Z" fill="white"/>
<path d="M13.6444 20.3896C13.9047 20.4741 14.0471 20.7536 13.9626 21.0139C13.878 21.2742 13.5985 21.4166 13.3382 21.332C13.078 21.2475 12.9355 20.9679 13.0201 20.7077C13.1047 20.4474 13.3842 20.305 13.6444 20.3896Z" fill="white"/>
<path d="M12.7465 21.4437C12.9552 21.5115 13.0694 21.7356 13.0016 21.9442C12.9338 22.1529 12.7097 22.2671 12.501 22.1993C12.2924 22.1315 12.1782 21.9074 12.246 21.6987C12.3138 21.4901 12.5379 21.3759 12.7465 21.4437Z" fill="white"/>
<path d="M11.8611 22.3468C12.0313 22.4021 12.1245 22.5849 12.0692 22.7551C12.0139 22.9254 11.8311 23.0185 11.6608 22.9632C11.4906 22.9079 11.3975 22.7251 11.4528 22.5549C11.5081 22.3846 11.6909 22.2915 11.8611 22.3468Z" fill="white"/>
<path d="M10.9302 23.039C11.0822 23.0884 11.1653 23.2516 11.1159 23.4036C11.0666 23.5555 10.9033 23.6387 10.7514 23.5893C10.5994 23.5399 10.5162 23.3767 10.5656 23.2247C10.615 23.0728 10.7782 22.9896 10.9302 23.039Z" fill="white"/>
<path d="M10.1762 23.9366C10.2171 23.811 10.1483 23.676 10.0226 23.6352C9.897 23.5944 9.76206 23.6631 9.72123 23.7888C9.68041 23.9144 9.74917 24.0494 9.87482 24.0902C10.0005 24.131 10.1354 24.0623 10.1762 23.9366Z" fill="white"/>
<path d="M16.6501 17.4677C16.8501 17.1907 17.2368 17.1282 17.5139 17.3281C17.791 17.5281 17.8535 17.9148 17.6535 18.1919C17.4535 18.469 17.0668 18.5315 16.7897 18.3315C16.5127 18.1315 16.4502 17.7448 16.6501 17.4677Z" fill="white"/>
<path d="M18.463 18.5983C18.2157 18.4198 17.8705 18.4756 17.692 18.723C17.5134 18.9703 17.5692 19.3155 17.8166 19.4941C18.0639 19.6726 18.4091 19.6168 18.5877 19.3694C18.7662 19.1221 18.7104 18.7769 18.463 18.5983Z" fill="white"/>
<path d="M19.3101 19.7994C19.0882 19.6393 18.7785 19.6893 18.6184 19.9112C18.4582 20.1331 18.5083 20.4428 18.7302 20.603C18.9521 20.7631 19.2618 20.7131 19.4219 20.4912C19.5821 20.2693 19.532 19.9596 19.3101 19.7994Z" fill="white"/>
<path d="M19.9018 20.999C19.7239 20.8706 19.4756 20.9108 19.3472 21.0887C19.2188 21.2666 19.2589 21.5149 19.4368 21.6433C19.6147 21.7717 19.863 21.7315 19.9914 21.5536C20.1198 21.3757 20.0797 21.1274 19.9018 20.999Z" fill="white"/>
<path d="M20.3884 22.1348C20.2433 22.0301 20.0407 22.0628 19.936 22.2079C19.8313 22.3531 19.864 22.5556 20.0091 22.6604C20.1542 22.7651 20.3568 22.7324 20.4615 22.5873C20.5663 22.4421 20.5336 22.2396 20.3884 22.1348Z" fill="white"/>
<path d="M20.714 23.2408C20.5845 23.1473 20.4036 23.1765 20.3101 23.3061C20.2166 23.4356 20.2458 23.6165 20.3754 23.71C20.5049 23.8035 20.6858 23.7743 20.7793 23.6447C20.8728 23.5151 20.8436 23.3343 20.714 23.2408Z" fill="white"/>
<path d="M20.6 24.3525C20.6773 24.2454 20.8268 24.2212 20.9339 24.2985C21.041 24.3759 21.0652 24.5254 20.9879 24.6325C20.9106 24.7396 20.7611 24.7638 20.6539 24.6865C20.5468 24.6091 20.5227 24.4596 20.6 24.3525Z" fill="white"/>
<path d="M22.3229 14.4765C22.2173 14.3321 22.2487 14.1293 22.3932 14.0236C22.5377 13.918 22.7404 13.9494 22.8461 14.0939C22.9517 14.2384 22.9203 14.4411 22.7758 14.5468C22.6313 14.6524 22.4286 14.621 22.3229 14.4765Z" fill="white"/>
<path d="M23.4829 14.4601C23.3886 14.3311 23.4167 14.1501 23.5456 14.0557C23.6746 13.9614 23.8556 13.9895 23.95 14.1185C24.0443 14.2475 24.0162 14.4285 23.8872 14.5228C23.7583 14.6171 23.5772 14.5891 23.4829 14.4601Z" fill="white"/>
<path d="M24.6196 14.1735C24.5129 14.2515 24.4897 14.4011 24.5677 14.5077C24.6457 14.6144 24.7954 14.6376 24.902 14.5596C25.0086 14.4816 25.0318 14.332 24.9539 14.2253C24.8759 14.1187 24.7262 14.0955 24.6196 14.1735Z" fill="white"/>
<path d="M21.0765 14.6907C20.947 14.5136 20.9855 14.265 21.1626 14.1355C21.3397 14.006 21.5882 14.0446 21.7178 14.2216C21.8473 14.3987 21.8087 14.6473 21.6316 14.7768C21.4545 14.9063 21.206 14.8677 21.0765 14.6907Z" fill="white"/>
<path d="M19.7315 15.0199C19.5699 14.799 19.618 14.489 19.8389 14.3275C20.0598 14.1659 20.3698 14.214 20.5313 14.4349C20.6929 14.6558 20.6448 14.9658 20.4239 15.1274C20.203 15.2889 19.893 15.2408 19.7315 15.0199Z" fill="white"/>
<path d="M18.3151 15.5338C18.135 15.2876 18.1886 14.942 18.4348 14.762C18.681 14.5819 19.0266 14.6355 19.2067 14.8817C19.3868 15.1279 19.3331 15.4735 19.0869 15.6536C18.8407 15.8336 18.4951 15.78 18.3151 15.5338Z" fill="white"/>
<path d="M16.9335 15.2721C16.6577 15.4738 16.5976 15.861 16.7993 16.1368C17.001 16.4126 17.3881 16.4726 17.664 16.2709C17.9398 16.0692 17.9998 15.6821 17.7981 15.4063C17.5964 15.1305 17.2093 15.0704 16.9335 15.2721Z" fill="white"/>
</svg>
