<svg width="32" height="32" viewBox="0 0 32 32" fill="none" xmlns="http://www.w3.org/2000/svg">
<circle cx="16" cy="16" r="16" fill="#ECB514"/>
<path fill-rule="evenodd" clip-rule="evenodd" d="M10.7324 19.0863H11.9458V10.5126C11.9458 8.34895 13.8758 7.09016 16.3832 7.09016C18.8906 7.09016 20.6204 8.42984 20.6204 10.5126C20.6204 12.5226 19.2269 13.1829 18.457 13.5477C18.4292 13.5609 18.4021 13.5737 18.3759 13.5862C19.3398 13.6131 21.2675 14.4601 21.2675 16.5559V17.926C21.2675 19.8155 19.6917 21.2701 17.9729 21.2701H14.534V24.9098H11.9458V21.2701H10.7324V19.0863ZM14.5542 19.0862V11.0586C14.5542 10.0475 15.181 9.21845 16.3336 9.21845C17.4862 9.21845 18.0928 10.0071 18.0928 10.9777C18.0928 11.9483 17.3447 12.7975 16.091 12.7975V14.7994H16.6223C17.0671 14.7994 18.6995 14.8398 18.6995 16.963C18.6995 19.0862 16.9869 19.0862 16.5623 19.0862H14.5542Z" fill="white"/>
</svg>
