<svg width="32" height="32" viewBox="0 0 32 32" fill="none" xmlns="http://www.w3.org/2000/svg">
<circle cx="16" cy="16" r="16" fill="black"/>
<path fill-rule="evenodd" clip-rule="evenodd" d="M16.8469 23.7193L22.4611 20.5306C22.633 20.7187 22.8823 20.8366 23.1595 20.8366C23.6788 20.8366 24.1 20.4226 24.1 19.9114C24.1 19.4731 23.7904 19.1059 23.3755 19.0105L23.3917 12.6916C23.7985 12.5899 24.1 12.2263 24.1 11.7943C24.1 11.2831 23.6788 10.8691 23.1595 10.8691C23.0095 10.8687 22.8616 10.904 22.7279 10.9721C22.5943 11.0401 22.4787 11.139 22.3909 11.2606L16.8937 8.13851C16.9246 8.00154 16.9241 7.85937 16.8924 7.72259C16.8607 7.58581 16.7986 7.45795 16.7106 7.34852C16.6226 7.23909 16.5111 7.15093 16.3843 7.09058C16.2576 7.03024 16.1188 6.99928 15.9784 7.00001C15.8375 6.99934 15.6982 7.03058 15.5711 7.0914C15.444 7.15222 15.3323 7.24103 15.2444 7.35118C15.1565 7.46133 15.0947 7.58996 15.0636 7.72741C15.0325 7.86485 15.033 8.00756 15.0649 8.14481L9.60009 11.248C9.51194 11.1298 9.39732 11.0338 9.26541 10.9679C9.1335 10.9019 8.98797 10.8678 8.84049 10.8682C8.59318 10.867 8.35544 10.9637 8.17922 11.1373C8.00299 11.3108 7.90261 11.547 7.89999 11.7943C7.89999 12.2263 8.19969 12.5881 8.60559 12.6907V19.015C8.40503 19.0647 8.22675 19.1798 8.09896 19.3421C7.97116 19.5045 7.90115 19.7048 7.89999 19.9114C7.89999 20.4226 8.32119 20.8366 8.84049 20.8366C9.10599 20.8366 9.34539 20.7286 9.51639 20.554L15.1063 23.7283C15.0611 23.8382 15.0378 23.9559 15.0379 24.0748C15.0379 24.586 15.4591 25 15.9784 25C16.4977 25 16.9189 24.586 16.9189 24.0748C16.9189 23.9488 16.8937 23.8291 16.8469 23.7193ZM16.5958 23.3773C16.4239 23.2299 16.2048 23.1491 15.9784 23.1496C15.739 23.1496 15.5194 23.2378 15.3538 23.3836L9.73599 20.1931C9.79477 20.0132 9.79603 19.8194 9.73959 19.6387L15.1189 16.0144C15.2184 16.1409 15.3439 16.2446 15.487 16.3183C15.6301 16.392 15.7874 16.434 15.9481 16.4415C16.1089 16.449 16.2694 16.4219 16.4187 16.3618C16.5681 16.3018 16.7027 16.2103 16.8136 16.0936L22.273 19.6036C22.2085 19.7834 22.2022 19.9789 22.255 20.1625L16.5958 23.3773ZM16.7029 8.51561L22.2298 11.6548C22.1958 11.8897 22.253 12.1287 22.3895 12.3228C22.526 12.5169 22.7317 12.6514 22.9642 12.6988L22.948 19.0096C22.777 19.0483 22.624 19.1329 22.5034 19.249L17.0395 15.7363C17.0863 15.6157 17.1115 15.4843 17.1115 15.3484C17.11 15.09 17.0174 14.8403 16.85 14.6434C16.6826 14.4465 16.451 14.315 16.1962 14.272L16.2106 8.82251C16.4059 8.77301 16.5778 8.66321 16.7029 8.51561ZM15.2584 8.52011C15.3907 8.67491 15.5734 8.78741 15.7831 8.83061L15.7687 14.2783C15.6223 14.3083 15.4836 14.3678 15.361 14.4532C15.2384 14.5386 15.1345 14.6482 15.0557 14.7752C14.9769 14.9021 14.9249 15.0438 14.9028 15.1916C14.8807 15.3394 14.889 15.4901 14.9272 15.6346L9.52269 19.2742C9.39041 19.1371 9.21972 19.0433 9.03309 19.0051V12.7006C9.26922 12.6532 9.47774 12.516 9.61473 12.3179C9.75171 12.1198 9.80648 11.8763 9.76749 11.6386L15.2584 8.52011Z" fill="white"/>
</svg>
