<svg width="32" height="32" viewBox="0 0 32 32" fill="none" xmlns="http://www.w3.org/2000/svg">
<circle cx="16" cy="16" r="16" fill="#49A9F8"/>
<path d="M11.9091 13.5455V11.9091H20.0909V13.5455H11.9091Z" fill="white"/>
<path d="M11.9091 20.0909V18.4545H20.0909V20.0909H11.9091Z" fill="white"/>
<path d="M11.9091 15.1818V16.8182H20.0909V15.1818H11.9091Z" fill="white"/>
<path fill-rule="evenodd" clip-rule="evenodd" d="M16 7C11.0294 7 7 11.0295 7 16C7 20.9705 11.0294 25 16 25C20.9706 25 25 20.9705 25 16C25 11.0295 20.9706 7 16 7ZM15.1818 8.68131C11.5001 9.0883 8.63636 12.2097 8.63636 16C8.63636 19.7903 11.5001 22.9117 15.1818 23.3187V21.7273H16.8182V23.3187C20.5 22.9117 23.3636 19.7903 23.3636 16C23.3636 12.2097 20.5 9.0883 16.8182 8.68131V10.2727H15.1818V8.68131Z" fill="white"/>
</svg>
