<svg width="32" height="32" viewBox="0 0 32 32" fill="none" xmlns="http://www.w3.org/2000/svg">
<circle cx="16" cy="16" r="16" fill="#667EEA"/>
<path d="M14.2267 16C14.2269 16.3657 14.1551 16.7278 14.0153 17.0657C13.8755 17.4036 13.6705 17.7106 13.412 17.9692C13.1534 18.2277 12.8464 18.4328 12.5086 18.5727C12.1707 18.7125 11.8086 18.7844 11.4429 18.7842C8.77125 18.785 7 15.9417 7 15.9417C7 15.9417 8.46208 13.3362 11.4429 13.2167C12.9237 13.1575 14.2267 14.4633 14.2267 16ZM16 17.7733C16.3657 17.7731 16.7278 17.8449 17.0657 17.9847C17.4036 18.1245 17.7106 18.3295 17.9692 18.588C18.2277 18.8466 18.4328 19.1536 18.5727 19.4914C18.7125 19.8293 18.7844 20.1914 18.7842 20.5571C18.785 23.2288 15.9417 25 15.9417 25C15.9417 25 13.3362 23.5379 13.2167 20.5571C13.1575 19.0763 14.4633 17.7733 16 17.7733ZM17.7733 16C17.7731 15.6343 17.8449 15.2722 17.9847 14.9343C18.1245 14.5964 18.3295 14.2894 18.588 14.0308C18.8466 13.7723 19.1536 13.5672 19.4914 13.4273C19.8293 13.2875 20.1914 13.2156 20.5571 13.2158C23.2288 13.215 25 16.0583 25 16.0583C25 16.0583 23.5379 18.6637 20.5571 18.7833C19.0763 18.8425 17.7733 17.5367 17.7733 16ZM15.9383 14.2267C15.5727 14.2269 15.2106 14.155 14.8728 14.0152C14.5349 13.8754 14.228 13.6704 13.9694 13.4118C13.7109 13.1533 13.5059 12.8463 13.366 12.5085C13.2262 12.1706 13.1544 11.8085 13.1546 11.4429C13.1546 8.77125 16 7 16 7C16 7 18.6054 8.46208 18.7246 11.4429C18.7817 12.9237 17.4763 14.2267 15.9383 14.2267Z" fill="white"/>
</svg>
