<svg width="32" height="32" viewBox="0 0 32 32" fill="none" xmlns="http://www.w3.org/2000/svg">
<circle cx="16" cy="16" r="16" fill="#F3BC61"/>
<path fill-rule="evenodd" clip-rule="evenodd" d="M12.0697 19.9024C11.9294 19.7581 11.7616 19.6433 11.5762 19.5649C11.3908 19.4865 11.1916 19.4459 10.9903 19.4457C10.789 19.4454 10.5897 19.4855 10.4041 19.5634C10.2185 19.6414 10.0504 19.7557 9.90971 19.8997C9.62171 20.1913 9.45971 20.5882 9.45971 21.0022C9.45971 21.4162 9.62171 21.8122 9.90971 22.1047C10.5073 22.7113 11.4739 22.7104 12.0697 22.102C12.6655 21.4936 12.6655 20.509 12.0697 19.9024ZM22.0264 9.4534C21.747 9.33589 21.4387 9.30533 21.1417 9.36569C20.8447 9.42606 20.5728 9.57455 20.3614 9.7918C20.0736 10.0858 19.9127 10.4811 19.9132 10.8925C19.9132 11.3056 20.0743 11.7016 20.3614 11.9932C20.7979 12.4378 21.4558 12.571 22.0264 12.3307C22.597 12.0904 22.9696 11.5216 22.9696 10.8925C22.9696 10.2625 22.597 9.6955 22.0264 9.4543V9.4534ZM11.869 18.7027L13.4818 20.3452L14.9578 18.8404C14.5914 18.6892 14.2593 18.4655 13.9817 18.1826C13.7041 17.8997 13.4866 17.5635 13.3423 17.1943L11.869 18.7027ZM20.5963 13.1794L18.9844 11.5369L17.5075 13.0417C17.872 13.1902 18.2023 13.4134 18.4804 13.696C18.7576 13.9768 18.9754 14.3134 19.1194 14.6842L20.5963 13.1794ZM19.978 20.3272C19.8622 20.6115 19.8318 20.9235 19.8906 21.2248C19.9494 21.5262 20.0949 21.8038 20.3092 22.0237C20.5963 22.3162 20.9842 22.4809 21.3901 22.4809C21.7951 22.4809 22.1839 22.3162 22.4701 22.0237C22.6845 21.8039 22.83 21.5263 22.889 21.2249C22.948 20.9236 22.9178 20.6116 22.8022 20.3272C22.6892 20.0448 22.4944 19.8025 22.2428 19.6314C21.9912 19.4603 21.6943 19.3682 21.3901 19.3669C20.7718 19.3669 20.2147 19.7458 19.978 20.3272ZM9.73151 10.159C9.61565 10.4433 9.58528 10.7553 9.64411 11.0566C9.70294 11.358 9.84842 11.6356 10.0627 11.8555C10.3498 12.1471 10.7377 12.3118 11.1436 12.3118C11.5486 12.3118 11.9374 12.1471 12.2236 11.8555C12.4379 11.6356 12.5834 11.358 12.6424 11.0567C12.7013 10.7554 12.6712 10.4435 12.5557 10.159C12.4428 9.87639 12.2481 9.63393 11.9965 9.46268C11.7449 9.29143 11.4479 9.1992 11.1436 9.1978C10.5253 9.1978 9.96821 9.5767 9.73151 10.159ZM18.862 20.2786L20.4748 18.6361L18.9979 17.1313C18.8537 17.5008 18.6361 17.8372 18.3583 18.1202C18.0805 18.4033 17.7482 18.6271 17.3815 18.7783L18.862 20.2786ZM13.6051 11.4496L11.9923 13.093L13.4692 14.5978C13.6159 14.2261 13.8346 13.8886 14.1118 13.606C14.3881 13.3234 14.7184 13.102 15.082 12.9553L13.6051 11.4496ZM16.2529 10.1167C17.0971 10.1167 17.7829 9.4192 17.7829 8.5579C17.7829 8.1448 17.6209 7.7479 17.3347 7.4563C17.1937 7.31197 17.0253 7.19725 16.8394 7.1189C16.6535 7.04054 16.4538 7.00011 16.252 7C15.4069 7 14.722 7.6975 14.722 8.5579C14.722 9.4183 15.4078 10.1167 16.2529 10.1167ZM17.7829 23.4421C17.7829 23.0281 17.6209 22.6321 17.3347 22.3396C17.1938 22.1954 17.0256 22.0807 16.8398 22.0024C16.6541 21.924 16.4545 21.8835 16.2529 21.8833C15.4078 21.8833 14.7229 22.5808 14.7229 23.4421C14.7229 24.3034 15.4078 25 16.2529 25C17.098 25 17.7829 24.3025 17.7829 23.4421ZM16.8082 10.9321H15.8452V12.8617C16.1637 12.8054 16.4897 12.8054 16.8082 12.8617V10.9321ZM16.8082 19.2229C16.4897 19.2792 16.1637 19.2792 15.8452 19.2229V21.1534H16.8082V19.2229ZM21.607 16.1701C21.6993 16.4059 21.8492 16.6148 22.043 16.7777C22.2369 16.9406 22.4685 17.0524 22.7166 17.1027C22.9648 17.153 23.2216 17.1403 23.4636 17.0657C23.7056 16.9912 23.925 16.8571 24.1018 16.6759C24.3898 16.3834 24.55 15.9865 24.55 15.5734C24.55 14.9434 24.1774 14.3746 23.605 14.1334C23.3255 14.0159 23.017 13.9854 22.7199 14.0458C22.4227 14.1061 22.1507 14.2546 21.9391 14.4718C21.7245 14.6919 21.5788 14.9698 21.5198 15.2714C21.4608 15.5731 21.4911 15.8854 21.607 16.1701ZM7.45001 15.838C7.45001 16.6984 8.13491 17.3959 8.98001 17.3959C9.38501 17.3959 9.77471 17.2321 10.0618 16.9396C10.3489 16.648 10.5091 16.2511 10.5091 15.838C10.5091 14.9767 9.82421 14.2792 8.97911 14.2801C8.13491 14.2801 7.44911 14.9776 7.45001 15.838ZM21.0247 16.3285V15.3466H19.132C19.1869 15.6706 19.1869 16.0027 19.132 16.3267L21.0247 16.3285ZM13.246 16.3285C13.1908 16.0038 13.1908 15.6722 13.246 15.3475H11.3515V16.3285H13.246ZM16.207 18.1618C17.404 18.1618 18.376 17.1727 18.376 15.9532C18.3751 14.7328 17.404 13.7446 16.207 13.7437C15.0091 13.7437 14.038 14.7328 14.038 15.9532C14.038 17.1736 15.0091 18.1618 16.207 18.1618Z" fill="white"/>
</svg>
