<svg width="32" height="32" viewBox="0 0 32 32" fill="none" xmlns="http://www.w3.org/2000/svg">
<circle cx="16" cy="16" r="16" fill="black"/>
<path d="M16.0008 7C11.0324 7 7 11.0324 7 16.0008C7 20.9692 11.0324 25 16.0008 25C20.9692 25 25 20.9688 25 16.0008C25 11.0328 20.9688 7 16.0008 7ZM15.2804 23.2012C13.3708 23.2012 11.5395 22.4427 10.1892 21.0924C8.83898 19.7421 8.08041 17.9108 8.08041 16.0012C8.08041 14.0917 8.83898 12.2603 10.1892 10.9101C11.5395 9.55981 13.3708 8.80124 15.2804 8.80124C19.2408 8.80124 22.4804 12.0057 22.4804 16.0012C22.4804 19.9968 19.2408 23.2012 15.2804 23.2012Z" fill="white"/>
</svg>
