<svg width="32" height="32" viewBox="0 0 32 32" fill="none" xmlns="http://www.w3.org/2000/svg">
<circle cx="16" cy="16" r="16" fill="#F3BA2F"/>
<path d="M15.9807 24.9806L15.9614 25L10.0437 19.0699L12.1952 16.9129L15.9807 20.7063L19.7661 16.9129L21.9177 19.0699L16 25L15.9807 24.9806ZM20.696 15.9802L22.8476 13.8232L25 15.9802L22.8476 18.1372L20.696 15.9802ZM13.8476 15.9802L15.9991 13.8232L18.1516 15.9802L15.9991 18.1372L13.8476 15.9802ZM7 15.9802L9.15156 13.8232L11.304 15.9802L9.15156 18.1372L7 15.9802ZM15.9807 11.2937L12.1952 15.0871L10.0437 12.9301L15.9648 7L15.9842 7.01938L16.0035 7L21.9213 12.9301L19.7697 15.0871L15.9807 11.2937Z" fill="white"/>
</svg>
