<svg width="32" height="32" viewBox="0 0 32 32" fill="none" xmlns="http://www.w3.org/2000/svg">
<circle cx="16" cy="16" r="16" fill="#3D94F5"/>
<path d="M24.0867 19.8766C24.1031 19.8439 24.1219 19.8144 24.1383 19.7801C24.6502 18.7018 24.9404 17.5318 24.9916 16.3394C25.0428 15.1469 24.8541 13.9563 24.4365 12.8381C24.0189 11.72 23.3811 10.6971 22.5608 9.83012C21.7405 8.96312 20.7544 8.26969 19.6611 7.79095V7.77785C19.5711 7.73776 19.4794 7.70913 19.3894 7.67149C19.2706 7.62207 19.1506 7.57569 19.0294 7.53239C18.867 7.47193 18.7021 7.41815 18.5352 7.37121C18.1417 7.25212 17.74 7.16188 17.3333 7.1012C16.8645 7.02881 16.3905 6.99515 15.9162 7.00056C15.8147 7.00056 15.7132 7.00056 15.6134 7.00875C15.0207 7.03307 14.4319 7.11695 13.8559 7.25911C13.4392 7.36005 13.0306 7.49187 12.6335 7.65349C12.3728 7.75722 12.1172 7.87354 11.8677 8.00204C11.7065 8.08632 11.5461 8.17632 11.385 8.26959C11.2978 8.32094 11.2118 8.37441 11.1272 8.42996C10.9698 8.53581 10.8132 8.643 10.6576 8.75151C10.4232 8.92364 10.1964 9.10572 9.97765 9.29726C9.76221 9.49055 9.55606 9.69397 9.35991 9.90682C9.16082 10.124 8.97294 10.3512 8.79698 10.5876C8.7183 10.6917 8.64378 10.799 8.57362 10.9091C8.5188 10.9893 8.45743 11.0695 8.40425 11.1464C8.35106 11.2241 8.32406 11.2904 8.28152 11.3608C8.22424 11.4573 8.16779 11.5555 8.12115 11.6553C8.02297 11.8337 7.92969 12.0137 7.8446 12.1953C7.81508 12.2259 7.79297 12.2629 7.77996 12.3033C7.76465 12.3497 7.74718 12.3953 7.72759 12.44C7.52569 12.9065 7.36578 13.39 7.24977 13.8849C7.11629 14.4417 7.03602 15.0099 7.01003 15.5819C7.01003 15.7046 7.00021 15.8273 7.00021 15.9517C7.00021 16.1121 7.00021 16.2732 7.01331 16.4344C7.01331 16.5613 7.02721 16.6881 7.03867 16.8149C7.0534 16.9761 7.07549 17.1373 7.0984 17.2976C7.10985 17.4138 7.13685 17.5431 7.15322 17.6658C7.18349 17.827 7.22195 17.9874 7.26204 18.1486C7.29804 18.268 7.31931 18.3785 7.35122 18.4947C7.3995 18.655 7.45513 18.826 7.51159 18.9897C7.54841 19.0944 7.58523 19.1991 7.62614 19.3022C7.69159 19.4626 7.76523 19.6336 7.84132 19.7956C7.96029 20.0559 8.09359 20.3094 8.24061 20.5549C8.29706 20.6514 8.3527 20.7464 8.41243 20.8396C8.50407 20.9828 8.60225 21.1227 8.70207 21.261C8.77407 21.3625 8.84853 21.4623 8.92544 21.5605C9.00317 21.6586 9.12508 21.8002 9.22818 21.9172C9.41153 22.1292 9.60628 22.331 9.81155 22.5218C10.0191 22.7205 10.2376 22.9074 10.4661 23.0815C10.6134 23.196 10.7607 23.3057 10.9153 23.4039C10.9562 23.4309 10.9906 23.4611 11.0315 23.489C12.022 24.1532 13.1357 24.612 14.3067 24.8382C15.4777 25.0644 16.6822 25.0533 17.8488 24.8057C19.0155 24.558 20.1206 24.0789 21.0987 23.3965C22.0769 22.7141 22.9082 21.8425 23.5434 20.8331H23.5533C23.5835 20.7848 23.6081 20.7333 23.6383 20.6833C23.7038 20.5762 23.7652 20.4633 23.8282 20.3503C23.9214 20.1982 24.0082 20.0386 24.0875 19.8758L24.0867 19.8766ZM12.5861 23.5585C11.7364 23.1754 10.9575 22.6518 10.282 22.0097C10.1909 21.9253 10.1019 21.8385 10.0153 21.7495C9.92856 21.6595 9.83201 21.5515 9.74528 21.4516C9.65855 21.3518 9.55873 21.2365 9.47037 21.1301C9.38118 21.0237 9.33127 20.9468 9.26418 20.8535C9.17254 20.7243 9.0809 20.5958 8.99744 20.4641C8.94262 20.3773 8.89108 20.2906 8.83626 20.2022C8.7528 20.0591 8.67507 19.9142 8.59489 19.7678C8.54989 19.6811 8.5098 19.5919 8.46807 19.5035C8.40507 19.3448 8.33716 19.195 8.27661 19.0404C8.23979 18.9471 8.20706 18.8522 8.17351 18.7589C8.11824 18.6067 8.06776 18.4528 8.02215 18.2975C7.99187 18.1927 7.96651 18.0897 7.94033 17.9866C7.90351 17.836 7.86833 17.6838 7.83887 17.5333C7.81842 17.4146 7.80042 17.3099 7.77914 17.1986C7.75655 17.0492 7.738 16.8991 7.7235 16.7486C7.71205 16.6341 7.7055 16.5195 7.69896 16.4058C7.69896 16.2528 7.68587 16.1006 7.68587 15.9476C7.68587 15.8363 7.68587 15.7259 7.69569 15.6162C7.69569 15.455 7.71369 15.2947 7.73005 15.1335C7.73905 15.0337 7.75378 14.9322 7.76687 14.8324C7.80305 14.5708 7.85192 14.3111 7.91333 14.0543C7.95833 13.8685 8.01151 13.6845 8.07369 13.5012C8.09742 13.4259 8.12279 13.3506 8.14733 13.2762C8.23973 13.0086 8.34569 12.7459 8.46479 12.4891C8.54498 12.3156 8.62598 12.1479 8.72335 11.9818C8.77326 11.8942 8.82153 11.8059 8.87471 11.7175C9.02226 11.4742 9.18117 11.2381 9.35091 11.0098C9.51422 10.7931 9.6876 10.5842 9.87047 10.3838C9.98665 10.2595 10.1045 10.1367 10.2247 10.0156C10.4225 9.82613 10.6292 9.64619 10.8441 9.47644C10.9153 9.41917 10.9881 9.36598 11.0626 9.31607C11.205 9.20807 11.3506 9.10907 11.4987 9.01661C11.7209 8.87587 11.9491 8.74483 12.1827 8.62388C12.4131 8.50719 12.6481 8.39992 12.8872 8.30232C13.363 8.10924 13.8561 7.96212 14.3599 7.86295C14.5134 7.8318 14.6679 7.8056 14.823 7.7844C14.9237 7.77049 15.0251 7.7574 15.1274 7.74594C15.2968 7.72876 15.4661 7.71649 15.6372 7.70913H15.9137C16.0896 7.70913 16.2655 7.71322 16.4431 7.7214L16.718 7.74104C16.9906 7.76424 17.2618 7.80193 17.5305 7.85395C17.8048 7.90561 18.0762 7.97143 18.3438 8.05113C18.61 8.12931 18.8717 8.22218 19.1276 8.32932C20.1762 8.75359 21.1264 9.38888 21.9192 10.1958C22.712 11.0026 23.3304 11.9639 23.7362 13.0198C24.1419 14.0757 24.3263 15.2037 24.2778 16.3339C24.2293 17.464 23.949 18.5721 23.4543 19.5894C23.3806 19.7498 23.2931 19.8921 23.217 20.0394C23.1597 20.1392 23.1049 20.2407 23.0452 20.3389C21.9883 22.0522 20.3449 23.3232 18.4209 23.9151C16.4968 24.5071 14.4232 24.3798 12.5861 23.5569V23.5585ZM15.9833 22.8835C17.809 22.88 19.5589 22.1527 20.8491 20.8609C22.1394 19.5691 22.8647 17.8184 22.866 15.9926C22.8653 14.6303 22.4607 13.2988 21.7033 12.1664C20.9458 11.0341 19.8696 10.1518 18.6107 9.63113C17.3518 9.11047 15.9668 8.97483 14.6308 9.24136C13.2948 9.50788 12.0679 10.1646 11.1052 11.1285C10.1424 12.0924 9.48717 13.3201 9.22223 14.6564C8.95729 15.9927 9.09458 17.3775 9.61673 18.6358C10.1389 19.8941 11.0225 20.9692 12.1557 21.7253C13.2889 22.4814 14.6209 22.8845 15.9833 22.8835ZM15.9833 11.3649V11.3616C17.2101 11.3644 18.3858 11.8534 19.2527 12.7214C20.1197 13.5895 20.6072 14.7658 20.6085 15.9926C20.6092 16.9089 20.338 17.8048 19.8293 18.5669C19.3205 19.3291 18.5972 19.9231 17.7507 20.274C16.9042 20.6248 15.9727 20.7167 15.074 20.5379C14.1753 20.3591 13.3498 19.9177 12.702 19.2696C12.0543 18.6215 11.6133 17.7958 11.435 16.897C11.2567 15.9982 11.3491 15.0667 11.7003 14.2204C12.0516 13.3741 12.6461 12.6511 13.4085 12.1428C14.1709 11.6344 15.0669 11.3637 15.9833 11.3649Z" fill="white"/>
</svg>
