<svg width="32" height="32" viewBox="0 0 32 32" fill="none" xmlns="http://www.w3.org/2000/svg">
<circle cx="16" cy="16" r="16" fill="#FE5C88"/>
<path fill-rule="evenodd" clip-rule="evenodd" d="M7 8.62975V23.3703C7 23.978 7.49975 24.4704 8.11597 24.4704H15.9849C20.9443 24.4704 22.7866 23.671 23.9153 22.5582C24.2821 22.1823 24.5673 21.7348 24.7531 21.2436C24.9389 20.7524 25.0214 20.2282 24.9953 19.7037C24.9953 17.4548 23.5977 16.3367 20.8469 15.856C23.6951 15.2726 24.7507 13.9438 24.7507 11.984C24.7802 11.4771 24.7032 10.9697 24.5244 10.4944C24.3457 10.0191 24.0693 9.58662 23.7131 9.22479C22.5611 8.08871 20.8893 7.52966 16.1501 7.52966H8.11597C7.49975 7.52966 7 8.022 7 8.62975ZM13.0997 14.9423V16.8661C13.0966 16.9661 13.1142 17.0657 13.1514 17.1586C13.1886 17.2515 13.2445 17.3358 13.3157 17.4061C13.4597 17.5501 13.6577 17.6285 13.8621 17.6232H16.382C17.9977 17.6232 19.1994 17.6655 19.767 18.2246C20.0242 18.4998 20.1566 18.8662 20.1333 19.241C20.1455 19.4227 20.1192 19.6049 20.0561 19.7757C19.993 19.9465 19.8944 20.102 19.767 20.232C19.2058 20.7911 18.0041 20.9118 16.382 20.9118H11.6174V11.137H16.4307C17.9247 11.137 19.029 11.227 19.5478 11.7373C19.7807 11.9883 19.8972 12.3249 19.8654 12.6638C19.8877 13.011 19.7638 13.352 19.5234 13.6071C19.011 14.1365 17.9067 14.2085 16.4307 14.2085H13.8441C13.747 14.2078 13.6508 14.2263 13.5608 14.2628C13.4709 14.2993 13.389 14.3531 13.3199 14.4213C13.2508 14.4894 13.1958 14.5705 13.158 14.6599C13.1202 14.7493 13.1004 14.8452 13.0997 14.9423Z" fill="white"/>
</svg>
