<svg width="32" height="32" viewBox="0 0 32 32" fill="none" xmlns="http://www.w3.org/2000/svg">
<circle cx="16" cy="16" r="16" fill="black"/>
<path d="M13.869 17.328L12.111 19.085L18.023 25L23.523 23.526L25 18.023L24.3 17.328L21.992 19.636L21.5 21.5L18.771 22.231L13.869 17.328ZM12.914 12.109L8.108 16.918L7 18.023L8.476 23.523L13.977 25L14.672 24.3L12.364 21.99L10.5 21.5L9.769 18.772L14.669 13.872L12.914 12.109ZM18.023 7L17.328 7.7L19.636 10.009L21.495 10.509L22.228 13.237L17.328 18.137L19.084 19.896L25 13.977L23.526 8.477L18.023 7ZM13.233 9.774L18.133 14.674L19.891 12.914L15.084 8.114L13.977 7L8.477 8.474L7 13.977L7.7 14.672L10.006 12.362L10.5 10.5L13.23 9.769L13.233 9.774Z" fill="white"/>
</svg>
