<svg width="32" height="32" viewBox="0 0 32 32" fill="none" xmlns="http://www.w3.org/2000/svg">
<circle cx="16" cy="16" r="16" fill="black"/>
<path fill-rule="evenodd" clip-rule="evenodd" d="M11.6767 8.20164C12.4482 7.45762 13.4977 7 14.6542 7C17.0233 7 18.9439 8.92057 18.9439 11.2897C18.9439 12.324 18.5779 13.2727 17.9683 14.0135C20.189 14.8868 21.6355 16.8502 21.6355 19.3645C21.6355 22.4769 19.1125 25 16 25C12.8876 25 10.3645 22.4769 10.3645 19.3645L10.3644 11.2056L10.3652 11.2064C10.3877 10.0268 10.8862 8.96395 11.6767 8.20164C11.6767 8.20168 11.6767 8.20161 11.6767 8.20164ZM11.5904 10.7402C11.9605 11.671 12.7762 12.2465 13.813 12.5514C14.9477 12.8851 15.4997 13.06 16.7889 13.5543C17.3907 12.9868 17.7663 12.1821 17.7663 11.2897C17.7663 9.57092 16.373 8.17757 14.6542 8.17757C13.1229 8.17757 11.8499 9.28348 11.5904 10.7402Z" fill="white"/>
</svg>
