<svg width="24" height="24" viewBox="0 0 24 24" fill="none" xmlns="http://www.w3.org/2000/svg">
<path d="M17.8111 15.993C20.1252 15.993 22.0011 14.1171 22.0011 11.803C22.0011 9.48893 20.1252 7.61301 17.8111 7.61301C15.497 7.61301 13.6211 9.48893 13.6211 11.803C13.6211 14.1171 15.497 15.993 17.8111 15.993Z" fill="#cdd2d9"/>
<path d="M12.5161 6.04C13.6317 6.04 14.5361 5.13562 14.5361 4.02C14.5361 2.90438 13.6317 2 12.5161 2C11.4005 2 10.4961 2.90438 10.4961 4.02C10.4961 5.13562 11.4005 6.04 12.5161 6.04Z" fill="#cdd2d9"/>
<path d="M12.5161 21.615C13.6317 21.615 14.5361 20.7106 14.5361 19.595C14.5361 18.4794 13.6317 17.575 12.5161 17.575C11.4005 17.575 10.4961 18.4794 10.4961 19.595C10.4961 20.7106 11.4005 21.615 12.5161 21.615Z" fill="#cdd2d9"/>
<path d="M11.591 14.832C11.713 14.8721 11.8406 14.8924 11.969 14.892C12.188 14.8913 12.4031 14.8337 12.5931 14.7249C12.7831 14.6161 12.9416 14.4598 13.0531 14.2713C13.1645 14.0828 13.2251 13.8686 13.2289 13.6497C13.2326 13.4307 13.1794 13.2146 13.0745 13.0224C12.9696 12.8302 12.8165 12.6685 12.6303 12.5533C12.4442 12.438 12.2312 12.3731 12.0124 12.3649C11.7936 12.3567 11.5764 12.4055 11.3821 12.5065C11.1878 12.6075 11.0231 12.7572 10.904 12.941V12.951C10.8644 13.0017 10.834 13.0589 10.814 13.12C9.42104 15.578 6.62404 13.936 6.62404 13.936C6.2212 13.694 5.76784 13.5485 5.29942 13.5108C4.83099 13.4731 4.3602 13.5443 3.92386 13.7188C3.48751 13.8933 3.09743 14.1663 2.78412 14.5165C2.47081 14.8668 2.24275 15.2848 2.11779 15.7378C1.99283 16.1908 1.97435 16.6666 2.06378 17.1279C2.15322 17.5893 2.34816 18.0237 2.63335 18.3972C2.91855 18.7707 3.28627 19.0731 3.70776 19.2809C4.12926 19.4887 4.59311 19.5962 5.06304 19.595C5.62069 19.5967 6.16795 19.4442 6.64441 19.1544C7.12087 18.8647 7.50799 18.4489 7.76304 17.953V17.943C7.85215 17.771 7.92545 17.5913 7.98204 17.406C9.43104 14.072 11.591 14.832 11.591 14.832ZM10.874 10.364C10.9356 10.4772 11.0127 10.5812 11.103 10.673C11.2573 10.8281 11.4492 10.9404 11.66 10.9988C11.8708 11.0572 12.0931 11.0597 12.3052 11.0061C12.5172 10.9525 12.7117 10.8446 12.8694 10.6931C13.0271 10.5416 13.1427 10.3516 13.2047 10.1419C13.2668 9.93212 13.2731 9.70985 13.2232 9.4969C13.1733 9.28395 13.0688 9.08767 12.92 8.92736C12.7712 8.76705 12.5832 8.64823 12.3746 8.58259C12.166 8.51695 11.9438 8.50675 11.73 8.553H11.72C11.6545 8.56385 11.5908 8.58406 11.531 8.613C8.80404 9.369 7.98804 6.224 7.98804 6.224C7.84092 5.63278 7.51943 5.09946 7.06533 4.69328C6.61123 4.28711 6.0455 4.02685 5.4416 3.9463C4.8377 3.86575 4.22353 3.96864 3.67885 4.2416C3.13417 4.51457 2.68414 4.94499 2.3872 5.47698C2.09027 6.00897 1.96014 6.61795 2.01373 7.22484C2.06731 7.83173 2.30213 8.40848 2.68769 8.88021C3.07325 9.35194 3.59174 9.69685 4.17582 9.87014C4.7599 10.0434 5.3826 10.0371 5.96304 9.852H5.97304C6.1572 9.78838 6.33665 9.71186 6.51004 9.623C9.88904 8.29 10.874 10.36 10.874 10.36V10.364Z" fill="#cdd2d9"/>
</svg>
