<svg width="24" height="24" viewBox="0 0 24 24" fill="none" xmlns="http://www.w3.org/2000/svg">
<path d="M11.7891 21.978L11.7671 22L5.03406 15.267L7.48206 12.818L11.7891 17.125L16.0961 12.818L18.5441 15.267L11.811 22L11.7891 21.978ZM17.1541 11.759L19.6021 9.30999L22.051 11.759L19.6021 14.208L17.1541 11.759ZM9.36206 11.759L11.8101 9.30999L14.259 11.759L11.8101 14.208L9.36206 11.759ZM1.57104 11.759L4.01904 9.30999L6.46802 11.759L4.01904 14.208L1.57104 11.759ZM11.7891 6.43799L7.48206 10.745L5.03406 8.29599L11.771 1.56299L11.7931 1.58499L11.8151 1.56299L18.5481 8.29599L16.1001 10.745L11.7891 6.43799Z" fill="#cdd2d9"/>
</svg>
