<?xml version="1.0" encoding="utf-8"?>
<!-- Generator: Adobe Illustrator 21.1.0, SVG Export Plug-In . SVG Version: 6.00 Build 0)  -->
<svg version="1.1" id="Слой_1" xmlns="http://www.w3.org/2000/svg" xmlns:xlink="http://www.w3.org/1999/xlink" x="0px" y="0px"
	 viewBox="0 0 36 36" style="enable-background:new 0 0 36 36;" xml:space="preserve">
<style type="text/css">
	.st0{fill:#3d4f6c;}
</style>
<g>
	<g>
		<path class="st0" d="M20.5,24.7h-0.7v2.5c0.2,0,0.4,0,0.8,0c0.9,0,1.7-0.3,1.7-1.3C22.3,25.1,21.5,24.7,20.5,24.7z"/>
	</g>
	<g>
		<path class="st0" d="M18,0C8.1,0,0,8.1,0,18c0,9.9,8.1,18,18,18s18-8.1,18-18C36,8.1,27.9,0,18,0z M23.5,28
			c-0.7,0.5-1.7,0.8-3.5,0.8c-1,0-1.7-0.1-2.2-0.1v-8.8c0.5-0.1,1.6-0.2,2.6-0.2c1.2,0,2,0.1,2.6,0.5c0.6,0.3,1.1,0.9,1.1,1.8
			c0,0.8-0.5,1.5-1.5,1.9v0c1,0.3,1.8,1.1,1.8,2.2C24.4,26.9,24,27.5,23.5,28z M20.1,13.7c-4.9,0-8.8,3.9-8.8,8.8c0,0.2,0,0.4,0,0.7
			c-0.3-0.9-0.5-2-0.5-3c0-4.9,3.9-8.8,8.8-8.8c4.6,0,8.4,3.6,8.8,8.1C27.1,16.1,23.9,13.7,20.1,13.7z M19.4,8.7
			C13.2,8.7,8.1,13.7,8.1,20c0,5.3,3.7,9.8,8.7,11C10.2,30.4,5,24.8,5,18c0-7.2,5.8-13,13-13s13,5.8,13,13c0,0.9-0.1,1.8-0.3,2.7
			c0-0.2,0-0.5,0-0.7C30.8,13.7,25.7,8.7,19.4,8.7z"/>
	</g>
	<g>
		<path class="st0" d="M22.1,22.2c0-0.7-0.5-1-1.4-1c-0.4,0-0.7,0-0.9,0.1v2.1h0.7C21.5,23.3,22.1,22.8,22.1,22.2z"/>
	</g>
</g>
</svg>
