<svg width="24" height="24" viewBox="0 0 24 24" fill="none" xmlns="http://www.w3.org/2000/svg">
<path d="M9.869 13.328L8.111 15.085L14.023 21L19.523 19.526L21 14.023L20.3 13.328L17.992 15.636L17.5 17.5L14.771 18.231L9.869 13.328ZM8.914 8.109L4.108 12.918L3 14.023L4.476 19.523L9.977 21L10.672 20.3L8.364 17.99L6.5 17.5L5.769 14.772L10.669 9.872L8.914 8.109ZM14.023 3L13.328 3.7L15.636 6.009L17.495 6.509L18.228 9.237L13.328 14.137L15.084 15.896L21 9.977L19.526 4.477L14.023 3ZM9.233 5.774L14.133 10.674L15.891 8.914L11.084 4.114L9.977 3L4.477 4.474L3 9.977L3.7 10.672L6.006 8.362L6.5 6.5L9.23 5.769L9.233 5.774Z" fill="#cdd2d9"/>
</svg>
