<svg width="24" height="24" viewBox="0 0 24 24" fill="none" xmlns="http://www.w3.org/2000/svg">
<path d="M22 14.3C21.9722 13.5958 21.6713 12.9301 21.161 12.444C20.8375 12.1361 20.4429 11.913 20.0123 11.7944C19.5817 11.6759 19.1285 11.6657 18.693 11.7647C18.2575 11.8636 17.8532 12.0687 17.5162 12.3617C17.1791 12.6547 16.9197 13.0265 16.761 13.444C16.736 13.511 16.709 13.577 16.681 13.644H16.688L16.677 13.654C16.677 13.654 16.6171 14.047 16.1651 16.873C16.1191 17.1631 16.0523 17.4495 15.965 17.73C14.6641 17.8042 13.3615 17.6139 12.1362 17.1704C10.9109 16.727 9.7882 16.0396 8.83604 15.15L7.68803 16.298L8.83104 15.155C8.15627 14.4806 7.69673 13.6213 7.5106 12.6856C7.32448 11.75 7.42014 10.7802 7.78544 9.8989C8.15075 9.01764 8.76929 8.26455 9.56279 7.73499C10.3563 7.20543 11.2891 6.92321 12.243 6.92402C12.6442 6.92367 13.044 6.97305 13.433 7.07102C13.8073 7.16571 14.1687 7.30573 14.509 7.48801C15.1848 7.84994 15.7655 8.36627 16.204 8.995C16.4076 9.28693 16.6666 9.53592 16.9664 9.72773C17.2662 9.91954 17.6008 10.0504 17.9512 10.1129C18.3015 10.1754 18.6607 10.1683 19.0083 10.092C19.3559 10.0156 19.6851 9.87155 19.9771 9.668C20.269 9.46446 20.5179 9.20542 20.7097 8.90564C20.9015 8.60587 21.0324 8.27126 21.0949 7.9209C21.1574 7.57055 21.1503 7.21131 21.074 6.86371C20.9977 6.51611 20.8536 6.18695 20.65 5.89502C19.7076 4.53818 18.4504 3.42987 16.9862 2.66498C15.5219 1.9001 13.8941 1.50141 12.242 1.50303C9.54793 1.50455 6.96291 2.56764 5.04719 4.46192C3.13148 6.3562 2.03939 8.92906 2.00755 11.623C1.97572 14.3169 3.0067 16.9149 4.87712 18.8539C6.74754 20.7929 9.30672 21.9168 12 21.982C14.968 21.837 16.428 20.66 17.175 19.235C18.2379 19.0959 19.2393 18.6576 20.0626 17.9712C20.8859 17.2848 21.4971 16.3785 21.825 15.358C21.9449 15.0183 22.0041 14.6602 22 14.3ZM8.88905 19.683C7.65782 19.1631 6.56438 18.3639 5.69517 17.3486C4.82597 16.3333 4.20483 15.1298 3.88081 13.8332C3.55679 12.5366 3.53879 11.1823 3.82823 9.87754C4.11767 8.57274 4.70662 7.35313 5.54854 6.31513C6.39045 5.27713 7.46227 4.44916 8.67924 3.89667C9.89622 3.34419 11.225 3.08235 12.5606 3.13181C13.8962 3.18127 15.202 3.54067 16.3748 4.18165C17.5476 4.82262 18.5552 5.72759 19.318 6.82502C19.4043 6.94153 19.4662 7.07414 19.5003 7.21503C19.5344 7.35592 19.5399 7.50223 19.5164 7.64527C19.493 7.78831 19.441 7.9252 19.3638 8.04783C19.2865 8.17046 19.1854 8.27635 19.0665 8.35923C18.9475 8.4421 18.8132 8.50026 18.6714 8.53031C18.5296 8.56035 18.3832 8.56168 18.2409 8.53415C18.0985 8.50663 17.9632 8.45084 17.8428 8.37009C17.7224 8.28934 17.6195 8.18524 17.5401 8.064C16.9542 7.22469 16.1789 6.53509 15.2771 6.051C14.8207 5.80734 14.3365 5.61999 13.835 5.49302C12.4654 5.1437 11.019 5.25402 9.71818 5.80701C8.41739 6.36 7.33431 7.32502 6.63551 8.55365C5.93672 9.78229 5.66091 11.2065 5.85054 12.6072C6.04016 14.0078 6.68472 15.3074 7.68504 16.306C9.49816 17.9731 11.786 19.0333 14.23 19.339C14.48 19.375 14.73 19.399 14.963 19.412C14.1328 20.0954 13.0729 20.4359 12 20.364C10.9287 20.3322 9.87277 20.0999 8.88704 19.679L8.88905 19.683ZM18.232 14.141C18.248 14.102 18.263 14.062 18.279 14.023C18.383 13.7574 18.5875 13.5435 18.8482 13.4277C19.1088 13.3118 19.4046 13.3034 19.6715 13.4042C19.9383 13.505 20.1547 13.7068 20.2736 13.9661C20.3926 14.2253 20.4046 14.521 20.307 14.789C20.1345 15.3809 19.8162 15.92 19.3811 16.3568C18.9461 16.7936 18.4082 17.1142 17.817 17.289C18.052 16 18.021 14.781 18.23 14.136L18.232 14.141Z" fill="#cdd2d9"/>
</svg>
