<?xml version="1.0" encoding="utf-8"?>
<!-- Generator: Adobe Illustrator 21.1.0, SVG Export Plug-In . SVG Version: 6.00 Build 0)  -->
<svg version="1.1" id="Слой_1" xmlns="http://www.w3.org/2000/svg" xmlns:xlink="http://www.w3.org/1999/xlink" x="0px" y="0px"
	 viewBox="0 0 36 36" style="enable-background:new 0 0 36 36;" xml:space="preserve">
<style type="text/css">
	.st0{fill:#3d4f6c;}
</style>
<g>
	<path class="st0" d="M18,0C8.1,0,0,8.1,0,18c0,9.9,8.1,18,18,18s18-8.1,18-18C36,8.1,27.9,0,18,0z M15,16c0-1.7,1.3-3,3-3
		s3,1.3,3,3c0,1.1-0.6,2.1-1.5,2.6v4.1h-3v-4.1C15.6,18.1,15,17.1,15,16z M18,9c-5,0-9,4-9,9c0,5,4,9,9,9c3.9,0,7.2-2.5,8.5-6h3.1
		c-1.3,5.2-6,9-11.6,9c-6.6,0-12-5.4-12-12c0-6.6,5.4-12,12-12c5.6,0,10.3,3.8,11.6,9h-3.1C25.2,11.5,21.9,9,18,9z"/>
</g>
</svg>
