<svg width="24" height="24" viewBox="0 0 24 24" fill="none" xmlns="http://www.w3.org/2000/svg">
<path d="M2.00001 11.988C1.99888 10.3328 2.40862 8.70319 3.19249 7.24536C3.97636 5.78753 5.10984 4.54708 6.49126 3.63527C7.87267 2.72346 9.45882 2.1688 11.1074 2.02106C12.756 1.87332 14.4155 2.1371 15.937 2.78876C17.4586 3.44042 18.7945 4.45957 19.8251 5.75479C20.8557 7.05001 21.5487 8.58079 21.8419 10.2098C22.1351 11.8389 22.0193 13.5152 21.505 15.0885C20.9907 16.6617 20.0939 18.0827 18.895 19.224C15.9171 13.9466 13.6013 8.32219 12 2.478V2.392C10.3952 8.25981 8.06811 13.9057 5.07201 19.2C4.09899 18.268 3.32508 17.1484 2.79706 15.9088C2.26905 14.6692 1.9979 13.3354 2.00001 11.988ZM11.99 12.088C11.2914 15.3319 10.1092 18.4525 8.48301 21.345C10.7395 22.187 13.2232 22.192 15.483 21.359C13.8568 18.4615 12.6791 15.3344 11.99 12.084V12.088Z" fill="#cdd2d9"/>
</svg>
