<?xml version="1.0" encoding="utf-8"?>
<!-- Generator: Adobe Illustrator 21.1.0, SVG Export Plug-In . SVG Version: 6.00 Build 0)  -->
<svg version="1.1" id="Слой_1" xmlns="http://www.w3.org/2000/svg" xmlns:xlink="http://www.w3.org/1999/xlink" x="0px" y="0px"
	 viewBox="0 0 36 36" style="enable-background:new 0 0 36 36;" xml:space="preserve">
<style type="text/css">
	.st0{fill:#3d4f6c;}
</style>
<g>
	<g>
		<polygon class="st0" points="16.7,24.8 16.7,24.8 19.2,24.8 21.5,18 18,12.4 14.4,18.1 		"/>
	</g>
	<g>
		<polygon class="st0" points="13,17.9 12.2,15.5 10.6,21.7 13,17.9 		"/>
	</g>
	<g>
		<polygon class="st0" points="17.4,11.1 17.4,7.5 12.8,13.4 13.9,16.5 		"/>
	</g>
	<g>
		<polygon class="st0" points="25.3,21.6 23.7,15.5 22.9,17.8 		"/>
	</g>
	<g>
		<polygon class="st0" points="23.1,13.4 18.6,7.5 18.6,11.1 22.1,16.5 		"/>
	</g>
	<g>
		<polygon class="st0" points="13.6,19.4 10.2,24.8 15.4,24.8 		"/>
	</g>
	<g>
		<polygon class="st0" points="20.6,24.8 25.8,24.8 22.4,19.4 		"/>
	</g>
	<g>
		<polygon class="st0" points="11.5,26 16.9,29 15.8,26 		"/>
	</g>
	<g>
		<path class="st0" d="M18,0C8.1,0,0,8.1,0,18c0,9.9,8.1,18,18,18s18-8.1,18-18C36,8.1,27.9,0,18,0z M27.3,26l-9,5
			c-0.2,0.1-0.4,0.1-0.6,0l-9-5c-0.3-0.1-0.4-0.4-0.3-0.7l3.1-12.1c0-0.1,0.1-0.2,0.1-0.2l5.9-7.7c0,0,0.1-0.1,0.1-0.1
			c0.3-0.2,0.7-0.2,0.9,0.1l5.8,7.7c0.1,0.1,0.1,0.1,0.1,0.2l3.2,12.1C27.7,25.5,27.5,25.8,27.3,26z"/>
	</g>
	<g>
		<polygon class="st0" points="18,28.4 18.8,26 17.2,26 		"/>
	</g>
	<g>
		<polygon class="st0" points="19.1,29 24.5,26 20.1,26 		"/>
	</g>
</g>
</svg>
