<svg width="24" height="24" viewBox="0 0 24 24" fill="none" xmlns="http://www.w3.org/2000/svg">
<path d="M7.75499 21.052C5.9348 20.195 4.41506 18.8095 3.39396 17.0761C2.37285 15.3426 1.89777 13.3417 2.03065 11.3343C2.16354 9.32688 2.89823 7.40607 4.13892 5.82236C5.37961 4.23865 7.06872 3.06553 8.98599 2.45599L11.839 6.24299C10.6453 6.27333 9.4911 6.67729 8.53899 7.39799C7.61856 8.09321 6.92772 9.04843 6.55569 10.1403C6.18367 11.2321 6.14754 12.4104 6.45199 13.523L10.485 10.484L13.038 13.872L8.68199 17.155L12.325 21.99C12.2197 21.9933 12.1143 21.995 12.009 21.995C10.5392 21.9949 9.08717 21.673 7.75499 21.052Z" fill="#cdd2d9"/>
</svg>
