<svg width="24" height="24" viewBox="0 0 24 24" fill="none" xmlns="http://www.w3.org/2000/svg">
<path d="M6.5 1H10.12V23H6.5V1ZM10.678 9.262H12.07V10.654H10.678V9.262ZM12.72 7.22H14.112V8.612H12.719L12.72 7.22ZM14.762 7.22H16.154V8.612H14.762V7.22ZM14.762 9.262H16.154V10.654H14.762V9.262ZM16.804 9.262H18.196V10.654H16.804V9.262ZM14.762 11.3H16.154V12.7H14.762V11.3ZM16.804 11.3H18.196V12.7H16.804V11.3ZM14.762 13.342H16.154V14.734H14.762V13.342ZM16.804 13.342H18.196V14.734H16.804V13.342ZM14.762 15.384H16.154V16.776H14.762V15.384ZM16.804 15.384H18.196V16.776H16.804V15.384ZM14.762 17.43H16.154V18.822H14.762V17.43ZM16.804 17.43H18.196V18.822H16.804V17.43ZM14.762 19.472H16.154V20.864H14.762V19.472ZM16.804 19.472H18.196V20.864H16.804V19.472ZM14.762 21.514H16.154V22.906H14.762V21.514ZM16.804 21.514H18.196V22.906H16.804V21.514Z" fill="#cdd2d9"/>
</svg>
