<svg width="24" height="24" viewBox="0 0 24 24" fill="none" xmlns="http://www.w3.org/2000/svg">
<path d="M11.8039 22.836C11.1739 22.8358 10.555 22.6703 10.0089 22.356L3.93194 18.848C3.38662 18.5318 2.9339 18.0779 2.61907 17.5317C2.30424 16.9856 2.13833 16.3664 2.13794 15.736L2.13794 8.726C2.14012 8.09794 2.30657 7.48139 2.62076 6.93757C2.93494 6.39375 3.38594 5.94159 3.92894 5.626L10.0059 2.117C10.5514 1.8017 11.1704 1.6357 11.8004 1.6357C12.4305 1.6357 13.0494 1.8017 13.5949 2.117L19.6679 5.617C20.2138 5.93214 20.6673 6.38507 20.9832 6.93049C21.2991 7.47591 21.4662 8.09471 21.4679 8.725V15.736C21.4675 16.3651 21.3021 16.9831 20.9884 17.5284C20.6747 18.0738 20.2236 18.5273 19.6799 18.844L13.6029 22.351C13.0562 22.6677 12.4358 22.835 11.8039 22.836ZM8.50394 15.124L7.15594 16.086C7.42888 16.4771 7.79203 16.7968 8.21467 17.0178C8.63731 17.2389 9.10698 17.3549 9.58394 17.356C9.9059 17.3556 10.2258 17.3046 10.5319 17.205C11.1453 17.0168 11.6813 16.6352 12.0598 16.1171C12.4383 15.5991 12.639 14.9725 12.6319 14.331V13.159C12.7743 13.2298 12.9217 13.2899 13.0729 13.339C13.3789 13.4378 13.6984 13.4884 14.0199 13.489C14.4974 13.4885 14.9677 13.3727 15.3909 13.1516C15.8141 12.9306 16.1778 12.6106 16.4509 12.219L15.1009 11.256C14.9336 11.4913 14.6957 11.6672 14.4217 11.7584C14.1477 11.8496 13.8518 11.8513 13.5769 11.7632C13.3019 11.6751 13.062 11.5019 12.892 11.2685C12.7219 11.0352 12.6305 10.7537 12.6309 10.465V7.113H10.9719V14.328C10.9729 14.617 10.8818 14.8989 10.7119 15.1327C10.5421 15.3666 10.3022 15.5404 10.0271 15.6289C9.75194 15.7174 9.45576 15.7161 9.1814 15.6252C8.90704 15.5342 8.66873 15.3583 8.50094 15.123L8.50394 15.124Z" fill="#cdd2d9"/>
</svg>
