<svg width="24" height="24" viewBox="0 0 24 24" fill="none" xmlns="http://www.w3.org/2000/svg">
<path d="M13.448 21.5C13.4193 21.4713 13.392 21.4417 13.366 21.411C13.34 21.3803 13.3097 21.3523 13.275 21.327L6.4 14.526V18.6C6.4 19.0509 6.22089 19.4833 5.90208 19.8021C5.58327 20.1209 5.15087 20.3 4.7 20.3C4.24913 20.3 3.81673 20.1209 3.49792 19.8021C3.17911 19.4833 3 19.0509 3 18.6V5.38901C3 4.93814 3.17911 4.50574 3.49792 4.18693C3.81673 3.86811 4.24913 3.68901 4.7 3.68901C5.15087 3.68901 5.58327 3.86811 5.90208 4.18693C6.22089 4.50574 6.4 4.93814 6.4 5.38901V9.45401L13.275 2.65401C13.3268 2.60186 13.3819 2.55309 13.44 2.50801L13.448 2.50001C13.7658 2.18167 14.1969 2.00229 14.6468 2.00116C15.0966 2.00004 15.5286 2.17726 15.848 2.49401L20.789 7.41201C21.1086 7.73027 21.2887 8.16245 21.2896 8.61347C21.2905 9.0645 21.1123 9.49742 20.794 9.81701C20.4757 10.1366 20.0436 10.3167 19.5925 10.3176C19.1415 10.3185 18.7086 10.1403 18.389 9.82201L14.636 6.08101L8.665 11.989L14.648 17.907L18.396 14.177C18.7156 13.8587 19.1485 13.6805 19.5995 13.6814C20.0506 13.6824 20.4827 13.8624 20.801 14.182C21.1193 14.5016 21.2975 14.9345 21.2966 15.3855C21.2957 15.8366 21.1156 16.2687 20.796 16.587L15.855 21.505C15.5356 21.8218 15.1036 21.999 14.6538 21.9979C14.2039 21.9967 13.7728 21.8173 13.455 21.499L13.448 21.5ZM12.948 12C12.948 11.661 13.0485 11.3296 13.2369 11.0478C13.4252 10.7659 13.6929 10.5462 14.0061 10.4165C14.3193 10.2867 14.6639 10.2528 14.9964 10.3189C15.3289 10.3851 15.6343 10.5483 15.874 10.788C16.1137 11.0277 16.2769 11.3331 16.3431 11.6656C16.4092 11.9981 16.3753 12.3427 16.2455 12.6559C16.1158 12.9691 15.8961 13.2368 15.6142 13.4251C15.3324 13.6135 15.001 13.714 14.662 13.714C14.2076 13.7137 13.7719 13.533 13.4507 13.2116C13.1294 12.8902 12.949 12.4544 12.949 12H12.948Z" fill="#cdd2d9"/>
</svg>
