<?xml version="1.0" encoding="utf-8"?>
<!-- Generator: Adobe Illustrator 21.1.0, SVG Export Plug-In . SVG Version: 6.00 Build 0)  -->
<svg version="1.1" id="Слой_1" xmlns="http://www.w3.org/2000/svg" xmlns:xlink="http://www.w3.org/1999/xlink" x="0px" y="0px"
	 viewBox="0 0 36 36" style="enable-background:new 0 0 36 36;" xml:space="preserve">
<style type="text/css">
	.st0{fill:#3d4f6c;}
</style>
<g>
	<path class="st0" d="M18,0C8.1,0,0,8.1,0,18c0,9.9,8.1,18,18,18s18-8.1,18-18C36,8.1,27.9,0,18,0z M17.5,29c0,0.5-0.6,0.8-1,0.6
		l-8.5-4.9c-0.4-0.3-0.7-0.7-0.7-1.2v-9.9c0-0.5,0.6-0.8,1-0.6l7.8,4.5c0,0.1,0,0.2,0,0.2c0,0.1,0,0.1,0,0.2c0,0,0,0,0,0
		c0,0,0,0,0,0c0,0,0,0.1,0,0.1c0,0,0,0,0,0.1c0,0.1,0,0.1,0,0.2c0,0.1,0,0.1,0,0.2c0,0,0,0.1,0,0.1l-2.3,1.3
		c-0.7-0.7-1.9-0.8-2.7-0.1c-0.6,0.5-0.9,1.4-0.6,2.2c0.4,1.2,1.8,1.7,2.9,1.1c0.8-0.5,1.2-1.4,0.9-2.3l2.3-1.3c0,0,0,0,0.1,0.1
		c0,0,0.1,0.1,0.1,0.1c0.1,0,0.1,0.1,0.2,0.1c0,0,0,0,0,0c0,0,0.1,0,0.1,0c0,0,0,0,0,0c0,0,0,0,0,0c0,0,0.1,0,0.1,0.1
		c0,0,0.1,0,0.1,0c0,0,0,0,0,0c0,0,0,0,0.1,0V29z M16,11.5c0,0.9,0.6,1.7,1.5,1.9v2.6c0,0,0,0-0.1,0c-0.1,0-0.1,0-0.2,0.1
		c-0.1,0-0.1,0.1-0.2,0.1c0,0,0,0-0.1,0c0,0,0,0,0,0c0,0,0,0,0,0c0,0,0,0,0,0c-0.1,0-0.1,0.1-0.2,0.2c0,0-0.1,0-0.1,0.1c0,0,0,0,0,0
		l-7.8-4.5c-0.4-0.3-0.4-0.9,0-1.2L17.3,6c0.4-0.3,1-0.3,1.4,0l8.5,4.9c0.4,0.3,0.4,0.9,0,1.2l-7.8,4.5c0,0,0,0,0,0c0,0,0,0-0.1-0.1
		c-0.1,0-0.1-0.1-0.2-0.2c0,0,0,0,0,0c0,0,0,0,0,0c0,0,0,0,0,0c0,0,0,0-0.1,0c-0.1,0-0.1-0.1-0.2-0.1c-0.1,0-0.1,0-0.2-0.1
		c0,0,0,0-0.1,0v-2.6c1-0.3,1.7-1.3,1.4-2.4c-0.2-0.7-0.8-1.3-1.5-1.4C17.2,9.3,16,10.3,16,11.5z M28.8,23.4c0,0.5-0.3,1-0.7,1.2
		l-8.5,4.9c-0.4,0.3-1-0.1-1-0.6v-9c0,0,0,0,0.1,0c0,0,0,0,0,0c0.1,0,0.1,0,0.1,0c0.1,0,0.1,0,0.2-0.1c0,0,0,0,0,0c0,0,0.1,0,0.1,0
		c0,0,0,0,0,0c0.1,0,0.1-0.1,0.2-0.1c0.1,0,0.1-0.1,0.1-0.1c0,0,0,0,0.1-0.1l2.3,1.3c-0.3,1,0.3,2.2,1.4,2.5c0.7,0.2,1.5-0.1,2-0.6
		c0.8-1,0.5-2.4-0.5-3c-0.8-0.5-1.8-0.3-2.4,0.3l-2.3-1.3c0,0,0,0,0-0.1c0-0.1,0-0.1,0-0.2c0-0.1,0-0.1,0-0.2c0,0,0-0.1,0-0.1
		c0,0,0-0.1,0-0.1c0,0,0,0,0,0c0,0,0-0.1,0-0.2c0-0.1,0-0.2-0.1-0.2l7.8-4.5c0.4-0.3,1,0.1,1,0.6V23.4z"/>
</g>
</svg>
