<?xml version="1.0" encoding="utf-8"?>
<!-- Generator: Adobe Illustrator 21.1.0, SVG Export Plug-In . SVG Version: 6.00 Build 0)  -->
<svg version="1.1" id="Слой_1" xmlns="http://www.w3.org/2000/svg" xmlns:xlink="http://www.w3.org/1999/xlink" x="0px" y="0px"
	 viewBox="0 0 36 36" style="enable-background:new 0 0 36 36;" xml:space="preserve">
<style type="text/css">
	.st0{fill:#3d4f6c;}
</style>
<g>
	<g>
		<polygon class="st0" points="10.9,12.6 18,16.7 25.1,12.6 18,8.5 		"/>
	</g>
	<g>
		<path class="st0" d="M18,0C8.1,0,0,8.1,0,18c0,9.9,8.1,18,18,18s18-8.1,18-18C36,8.1,27.9,0,18,0z M27.6,24.1L26,25.1L21,27.9V26
			l4.9-2.8V14l-7.1,4.1V31L18,31.4L17.2,31V18.1L10,14v9.2L15,26v1.9L10,25.1l-1.6-0.9v-12l1.6-0.9l6.3-3.7L18,6.6l1.6,0.9l6.3,3.7
			l1.6,0.9V24.1z"/>
	</g>
</g>
</svg>
