<svg width="24" height="24" viewBox="0 0 24 24" fill="none" xmlns="http://www.w3.org/2000/svg">
<path d="M4.92904 19.071C3.06725 17.1928 2.02524 14.6536 2.03103 12.0091C2.03682 9.36451 3.08994 6.82991 4.95994 4.95991C6.82994 3.08991 9.36454 2.03679 12.0091 2.031C14.6537 2.02521 17.1929 3.06722 19.071 4.92901C20.9328 6.80718 21.9748 9.34637 21.969 11.9909C21.9633 14.6355 20.9101 17.1701 19.0401 19.0401C17.1701 20.9101 14.6355 21.9632 11.991 21.969C9.3464 21.9748 6.80721 20.9328 4.92904 19.071ZM6.25504 6.25501C5.48918 7.00692 4.87988 7.90312 4.46233 8.89184C4.04478 9.88056 3.82726 10.9422 3.82233 12.0155C3.8174 13.0887 4.02515 14.1523 4.4336 15.1449C4.84204 16.1374 5.44308 17.0391 6.202 17.798C6.96092 18.557 7.86268 19.158 8.85519 19.5665C9.84771 19.9749 10.9113 20.1827 11.9846 20.1777C13.0578 20.1728 14.1195 19.9553 15.1082 19.5377C16.0969 19.1202 16.9931 18.5109 17.745 17.745C18.5109 16.9931 19.1202 16.0969 19.5377 15.1082C19.9553 14.1195 20.1728 13.0578 20.1777 11.9845C20.1827 10.9113 19.9749 9.84768 19.5665 8.85516C19.158 7.86265 18.557 6.96089 17.7981 6.20197C17.0392 5.44305 16.1374 4.84201 15.1449 4.43357C14.1524 4.02512 13.0888 3.81737 12.0155 3.8223C10.9422 3.82723 9.88059 4.04475 8.89187 4.4623C7.90315 4.87985 7.00695 5.48915 6.25504 6.25501ZM12.581 13.907L13.907 12.581L17 15.674L15.674 17L12.581 13.907ZM7.00004 15.674L10.093 12.58L11.419 13.906L8.32604 17L7.00004 15.674ZM10.727 12.053L12.053 10.727L13.379 12.053L12.053 13.379L10.727 12.053ZM12.58 10.093L15.674 7.00001L17 8.32601L13.906 11.42L12.58 10.093ZM7.00004 8.32601L8.32604 7.00001L11.419 10.094L10.093 11.42L7.00004 8.32601Z" fill="#cdd2d9"/>
</svg>
