<svg width="24" height="24" viewBox="0 0 24 24" fill="none" xmlns="http://www.w3.org/2000/svg">
<path d="M2.00004 17.167C2.00084 18.4486 2.51029 19.6774 3.41648 20.5836C4.32267 21.4898 5.5515 21.9992 6.83305 22C8.1146 21.9992 9.34342 21.4898 10.2496 20.5836C11.1558 19.6774 11.6653 18.4486 11.6661 17.167C11.6653 15.8854 11.1558 14.6565 10.2497 13.7501C9.34351 12.8438 8.11469 12.3341 6.83305 12.333C5.55141 12.3341 4.32258 12.8438 3.41642 13.7501C2.51026 14.6565 2.00083 15.8854 2.00004 17.167ZM2.08305 5.917C1.87642 7.00703 2.04369 8.13489 2.55784 9.11799C3.07199 10.1011 3.90292 10.8819 4.91606 11.334C5.95218 11.7742 7.10912 11.8403 8.18864 11.521C9.26816 11.2018 10.203 10.517 10.833 9.58403C11.4699 8.67008 11.7683 7.56277 11.677 6.45259C11.5858 5.3424 11.1106 4.29872 10.333 3.50102H11.6661V2.00001H6.83305C5.70844 1.99527 4.61763 2.3844 3.74998 3.0999C2.88232 3.81539 2.29259 4.81208 2.08305 5.917ZM12.333 6.83403C12.3338 8.11584 12.8434 9.34492 13.7497 10.2513C14.6561 11.1577 15.8852 11.6672 17.167 11.668C18.4488 11.667 19.6778 11.1572 20.584 10.2506C21.4902 9.34403 21.9995 8.11483 22 6.83302C21.999 5.55155 21.4894 4.32286 20.5833 3.41673C19.6772 2.5106 18.4485 2.00107 17.167 2.00001C15.8854 2.00081 14.6565 2.51023 13.7501 3.41639C12.8438 4.32256 12.3341 5.55138 12.333 6.83302V6.83403ZM3.50004 17.168C3.49991 16.7302 3.58602 16.2967 3.75346 15.8922C3.9209 15.4877 4.16636 15.1202 4.47587 14.8106C4.78538 14.501 5.15291 14.2554 5.55735 14.0878C5.9618 13.9202 6.39527 13.834 6.83305 13.834C7.27083 13.834 7.7043 13.9202 8.10874 14.0878C8.51319 14.2554 8.88065 14.501 9.19017 14.8106C9.49968 15.1202 9.7452 15.4877 9.91264 15.8922C10.0801 16.2967 10.1662 16.7302 10.1661 17.168C10.1662 17.6057 10.08 18.0392 9.91258 18.4436C9.74512 18.8481 9.49963 19.2156 9.1901 19.5251C8.88058 19.8346 8.51312 20.0801 8.10868 20.2476C7.70425 20.415 7.27078 20.5012 6.83305 20.501C6.39523 20.5012 5.96167 20.415 5.55717 20.2475C5.15267 20.08 4.78516 19.8344 4.47563 19.5247C4.16609 19.2151 3.92061 18.8475 3.75321 18.4429C3.58582 18.0384 3.49978 17.6048 3.50004 17.167V17.168ZM3.50004 6.917C3.50268 6.03368 3.85483 5.1873 4.47953 4.56279C5.10424 3.93827 5.9507 3.5864 6.83402 3.58403C7.71718 3.58667 8.56342 3.93867 9.18791 4.56315C9.81239 5.18764 10.1644 6.03385 10.167 6.917C10.1647 7.80033 9.81279 8.64682 9.18827 9.27153C8.56376 9.89623 7.71735 10.2484 6.83402 10.251C5.95052 10.2486 5.1039 9.89663 4.47917 9.27189C3.85443 8.64716 3.50242 7.80051 3.50004 6.917ZM13.834 6.83403C13.8343 5.94997 14.1857 5.10218 14.8109 4.47715C15.4361 3.85212 16.284 3.50102 17.1681 3.50102C18.052 3.50102 18.8998 3.85216 19.5248 4.47722C20.1499 5.10227 20.501 5.95006 20.501 6.83403C20.501 7.71809 20.1499 8.56593 19.5249 9.19114C18.8999 9.81636 18.0521 10.1677 17.1681 10.168C16.7301 10.1681 16.2963 10.082 15.8916 9.91441C15.487 9.74686 15.1193 9.50122 14.8095 9.19151C14.4998 8.8818 14.2542 8.5141 14.0866 8.10942C13.9191 7.70474 13.8329 7.27102 13.833 6.83302L13.834 6.83403Z" fill="#cdd2d9"/>
</svg>
