<svg width="24" height="24" viewBox="0 0 24 24" fill="none" xmlns="http://www.w3.org/2000/svg">
<path d="M9.944 23V18.248H9.937V15.784H9.943V9.33899H9.937V6.87499H14.025C14.9394 6.86376 15.821 7.21519 16.477 7.85238C17.1329 8.48957 17.5097 9.36064 17.525 10.275V14.827C17.5134 15.7441 17.1383 16.619 16.482 17.2597C15.8258 17.9004 14.9421 18.2544 14.025 18.244H12.665V23H9.944ZM14.025 15.784C14.1514 15.7866 14.2771 15.7642 14.3948 15.7179C14.5124 15.6716 14.6197 15.6024 14.7104 15.5143C14.8011 15.4262 14.8734 15.3209 14.9231 15.2047C14.9728 15.0884 14.999 14.9634 15 14.837V10.285C14.9984 10.159 14.972 10.0345 14.9223 9.91867C14.8726 9.80285 14.8006 9.69796 14.7103 9.61001C14.62 9.52206 14.5133 9.45277 14.3962 9.40609C14.2792 9.35941 14.154 9.33627 14.028 9.33799H12.665V15.783L14.025 15.784ZM6 18.254V9.52699C6.00923 8.81388 6.30084 8.13353 6.81091 7.63508C7.32097 7.13664 8.00787 6.86079 8.721 6.86799V18.254H6ZM9.11 3.18199C9.1274 2.60002 9.37082 2.04771 9.78862 1.64221C10.2064 1.23671 10.7658 1.0099 11.348 1.0099C11.9302 1.0099 12.4896 1.23671 12.9074 1.64221C13.3252 2.04771 13.5686 2.60002 13.586 3.18199C13.5686 3.76397 13.3252 4.31627 12.9074 4.72178C12.4896 5.12728 11.9302 5.35408 11.348 5.35408C10.7658 5.35408 10.2064 5.12728 9.78862 4.72178C9.37082 4.31627 9.1274 3.76397 9.11 3.18199Z" fill="#cdd2d9"/>
</svg>
