<svg width="24" height="24" viewBox="0 0 24 24" fill="none" xmlns="http://www.w3.org/2000/svg">
<path fill-rule="evenodd" clip-rule="evenodd" d="M16.3699 12.313C16.1292 11.6242 15.7136 11.0098 15.1639 10.53L14.9549 10.356L14.9429 10.344C14.8761 10.2899 14.8063 10.2395 14.7339 10.193L14.7259 10.182C14.6559 10.136 14.5869 10.089 14.5059 10.043C14.4939 10.043 14.4939 10.031 14.4829 10.031C14.412 9.98783 14.3386 9.94909 14.2629 9.91499C14.2509 9.91499 14.2509 9.90299 14.2399 9.90299C14.1699 9.86799 14.0889 9.83399 14.0079 9.80299C13.9959 9.80299 13.9959 9.79099 13.9849 9.79099C13.9149 9.76799 13.8459 9.73299 13.7759 9.70999C13.5879 9.63848 13.3938 9.58425 13.1959 9.54799C13.0424 9.83353 12.8427 10.0917 12.6049 10.312C12.9557 10.3379 13.3001 10.42 13.6249 10.555C13.8095 10.6337 13.9877 10.7266 14.1579 10.833C14.1667 10.8343 14.1748 10.8385 14.1809 10.845C14.2263 10.8721 14.2691 10.9032 14.3089 10.938C14.3309 10.9496 14.3506 10.9652 14.3669 10.984C14.4083 11.0114 14.4472 11.0425 14.4829 11.077C14.5059 11.1 14.5289 11.112 14.5529 11.135C14.5769 11.158 14.6229 11.193 14.6529 11.228L14.7229 11.297L14.8159 11.39L14.8859 11.459C14.91 11.4924 14.9371 11.5236 14.9669 11.552C14.9899 11.575 15.0129 11.61 15.0369 11.633L15.1069 11.733C15.1304 11.7612 15.1499 11.7925 15.1649 11.826L15.2349 11.926C15.2516 11.9586 15.271 11.9897 15.2929 12.019C15.3159 12.054 15.3279 12.088 15.3509 12.119C15.3739 12.15 15.3859 12.188 15.4089 12.219C15.4319 12.25 15.4439 12.288 15.4549 12.319C15.4721 12.3623 15.4914 12.4047 15.5129 12.446C15.6107 12.6835 15.6779 12.9325 15.7129 13.187L15.8129 13.592C16.0177 14.4595 16.5282 15.2242 17.2509 15.746C18.3639 16.325 19.8359 17.046 20.4159 17.321L12.7759 21.9V18.774C12.7759 18.274 13.7609 17.697 14.2139 17.5L14.2369 17.488C14.3299 17.442 14.4219 17.395 14.5149 17.337L14.5499 17.314C14.7471 17.1961 14.9332 17.0606 15.1059 16.909C15.1179 16.897 15.1409 16.886 15.1519 16.863C15.1629 16.84 15.1869 16.828 15.2099 16.817C15.2679 16.771 15.3099 16.717 15.3719 16.666L15.3949 16.643C15.4549 16.5868 15.5092 16.5249 15.5569 16.458C15.5689 16.435 15.5919 16.423 15.6029 16.4C15.6484 16.3483 15.6911 16.2942 15.7309 16.238C15.7429 16.226 15.7539 16.203 15.7659 16.192L15.9049 15.984C15.9049 15.972 15.9169 15.972 15.9169 15.961C15.9749 15.868 16.0329 15.761 16.0909 15.672C15.8768 15.4083 15.6939 15.1207 15.5459 14.815C15.4868 14.9876 15.4132 15.1548 15.3259 15.315C15.2909 15.384 15.2449 15.454 15.2099 15.523C15.1979 15.535 15.1979 15.546 15.1869 15.546C15.151 15.6019 15.1123 15.656 15.0709 15.708C15.0589 15.72 15.0479 15.743 15.0359 15.754C14.9997 15.8094 14.9567 15.8602 14.9079 15.905C14.8959 15.917 14.8959 15.928 14.8849 15.928C14.605 16.2458 14.2652 16.5054 13.8849 16.692L13.8149 16.727C13.6149 16.808 11.9149 17.584 11.9149 18.753V21.879L4.26692 17.326C5.24995 16.7095 6.29502 16.1981 7.38492 15.8C7.84892 15.649 8.83392 16.275 9.39092 16.726L9.42592 16.761C9.49772 16.8338 9.5753 16.9007 9.65792 16.961L9.68092 16.984C9.85627 17.131 10.0467 17.259 10.2489 17.366L10.3879 17.435C10.3967 17.4363 10.4048 17.4405 10.4109 17.447C10.5389 17.5156 10.6704 17.5773 10.8049 17.632C10.8279 17.644 10.8399 17.644 10.8629 17.655C10.8859 17.666 10.8859 17.667 10.9089 17.667C11.1026 17.7356 11.2999 17.7937 11.4999 17.841C11.6568 17.5552 11.8595 17.2971 12.0999 17.077C11.7743 17.0559 11.4536 16.9858 11.1489 16.869C11.1369 16.857 11.1139 16.857 11.1029 16.846C11.0677 16.8352 11.034 16.8197 11.0029 16.8C10.9909 16.788 10.9679 16.788 10.9569 16.777C10.9248 16.764 10.8937 16.7486 10.8639 16.731C10.6365 16.6208 10.4224 16.4849 10.2259 16.326L9.92592 16.048C9.64792 15.803 9.34647 15.5859 9.02592 15.4C8.75654 15.2087 8.4516 15.0733 8.12907 15.0016C7.80654 14.93 7.47294 14.9237 7.14792 14.983C6.15538 15.3357 5.20009 15.7856 4.29592 16.326L11.9259 2.60899V8.61899C11.9259 8.82699 11.6129 9.38299 10.5579 9.85799L10.4879 9.89299C10.3879 9.93899 10.2879 9.99299 10.1879 10.055L10.1649 10.067C9.96569 10.1876 9.77583 10.3229 9.59692 10.472C9.48435 10.563 9.37965 10.6634 9.28392 10.772L9.27192 10.784C9.16991 10.8836 9.07688 10.992 8.99392 11.108L8.98192 11.12C8.93592 11.178 8.90092 11.236 8.85392 11.294C8.85392 11.306 8.84192 11.306 8.84192 11.317C8.80692 11.375 8.77192 11.417 8.74192 11.479C8.74192 11.491 8.72992 11.491 8.72992 11.502L8.62992 11.676C8.61792 11.688 8.61792 11.699 8.60692 11.722C8.57192 11.78 8.54892 11.838 8.52592 11.884C8.52458 11.8928 8.52036 11.9009 8.51392 11.907C8.49092 11.965 8.46792 12.007 8.44392 12.069C8.43192 12.092 8.43192 12.104 8.42092 12.127L8.35092 12.301C8.33892 12.324 8.33892 12.336 8.32792 12.359C8.31773 12.403 8.30228 12.4457 8.28192 12.486C8.26992 12.509 8.26992 12.532 8.25892 12.555C8.24692 12.613 8.22392 12.671 8.21292 12.717C8.20092 12.74 8.20092 12.775 8.18992 12.798C8.17892 12.821 8.17792 12.879 8.16692 12.914C8.15592 12.949 8.15492 12.983 8.14392 13.014C8.13292 13.045 8.13192 13.107 8.12092 13.153C8.10992 13.199 8.10892 13.211 8.10892 13.246C8.10892 13.281 8.09692 13.327 8.09692 13.373C8.09866 13.4157 8.09462 13.4584 8.08492 13.5V13.674C8.0808 13.8834 8.09452 14.0929 8.12592 14.3C8.45513 14.3844 8.77405 14.5048 9.07692 14.659C8.98537 14.3544 8.93459 14.039 8.92592 13.721V13.663C8.92411 13.5855 8.92812 13.5079 8.93792 13.431V13.373C8.93967 13.3058 8.94736 13.2388 8.96092 13.173V13.15C8.97292 13.081 8.98392 13.011 8.99592 12.93C8.99592 12.907 9.00792 12.895 9.00792 12.872C9.01992 12.814 9.04292 12.756 9.05392 12.698C9.05392 12.686 9.06592 12.675 9.06592 12.663L9.13592 12.455C9.14792 12.443 9.14792 12.42 9.15892 12.409C9.18192 12.351 9.20492 12.293 9.22892 12.247C9.24092 12.235 9.24092 12.224 9.25192 12.201C9.27835 12.1358 9.31189 12.0738 9.35192 12.016C9.36392 12.004 9.36392 11.993 9.37492 11.981C9.40992 11.923 9.43292 11.881 9.46792 11.819C9.47992 11.807 9.47992 11.796 9.49092 11.784C9.52976 11.7233 9.57251 11.6651 9.61892 11.61C9.61876 11.6084 9.61897 11.6067 9.61952 11.6052C9.62006 11.6037 9.62094 11.6023 9.62209 11.6012C9.62324 11.6 9.62462 11.5991 9.62615 11.5986C9.62768 11.598 9.6293 11.5978 9.63092 11.598C9.67692 11.54 9.71192 11.498 9.75892 11.436C9.77092 11.424 9.77092 11.413 9.78192 11.401C9.99023 11.1708 10.2279 10.9691 10.4889 10.801L10.8479 10.627C11.0479 10.546 12.7379 9.74699 12.7379 8.57799V2.60899L20.4479 16.434C19.7639 16.098 18.5479 15.496 17.6079 15.01C17.103 14.5949 16.7484 14.0253 16.5989 13.389L16.4989 12.972C16.49 12.7468 16.4469 12.5242 16.3709 12.312L16.3699 12.313ZM21.5869 16.667L13.0889 1.43999C13.016 1.30691 12.9087 1.19588 12.7781 1.11853C12.6476 1.04119 12.4987 1.00038 12.3469 1.00038C12.1952 1.00038 12.0462 1.04119 11.9157 1.11853C11.7851 1.19588 11.6778 1.30691 11.6049 1.43999L3.10692 16.666C2.99932 16.857 2.97047 17.0824 3.02649 17.2944C3.08252 17.5063 3.21899 17.6881 3.40692 17.801L11.9159 22.884C12.0505 22.9595 12.2021 22.9992 12.3564 22.9992C12.5107 22.9992 12.6624 22.9595 12.7969 22.884L21.2969 17.812C21.4835 17.6951 21.6178 17.5107 21.6719 17.2972C21.7259 17.0837 21.6955 16.8576 21.5869 16.666V16.667Z" fill="#cdd2d9"/>
</svg>
