<svg width="24" height="24" viewBox="0 0 24 24" fill="none" xmlns="http://www.w3.org/2000/svg">
<path d="M10.5759 18.899L3.84193 5.18401C3.81715 5.1334 3.80566 5.07733 3.80854 5.02106C3.81141 4.96479 3.82856 4.91018 3.85837 4.86237C3.88818 4.81455 3.92966 4.77511 3.97892 4.74776C4.02818 4.7204 4.08359 4.70604 4.13993 4.70601H6.47293C6.53467 4.70545 6.59536 4.72197 6.6483 4.75373C6.70124 4.7855 6.74437 4.83127 6.77293 4.88601L11.6909 14.836C11.7892 15.0368 11.9417 15.2059 12.1313 15.3242C12.3209 15.4425 12.5399 15.5052 12.7634 15.5052C12.9869 15.5052 13.2059 15.4425 13.3955 15.3242C13.5851 15.2059 13.7377 15.0368 13.8359 14.836L18.7349 4.89401C18.7635 4.83927 18.8066 4.7935 18.8596 4.76173C18.9125 4.72997 18.9732 4.71345 19.0349 4.71401H19.3249C19.3635 4.71421 19.4015 4.72429 19.4351 4.7433C19.4687 4.76231 19.4968 4.78962 19.5169 4.82261C19.5369 4.8556 19.5482 4.89318 19.5496 4.93176C19.551 4.97034 19.5425 5.00864 19.5249 5.04301L12.7249 18.899C12.6255 19.099 12.4723 19.2672 12.2824 19.3848C12.0926 19.5024 11.8737 19.5647 11.6504 19.5647C11.4271 19.5647 11.2082 19.5024 11.0184 19.3848C10.8286 19.2672 10.6754 19.099 10.5759 18.899Z" fill="#cdd2d9"/>
</svg>
