<svg width="24" height="24" viewBox="0 0 24 24" fill="none" xmlns="http://www.w3.org/2000/svg">
<path d="M12 22C10.6861 22.0037 9.38461 21.7467 8.1707 21.2439C6.95678 20.7412 5.85456 20.0026 4.92802 19.071C3.99672 18.1445 3.25849 17.0425 2.7559 15.8287C2.25331 14.615 1.99637 13.3137 2.00004 12C1.99623 10.6862 2.25306 9.38461 2.75566 8.1707C3.25825 6.95678 3.9966 5.85462 4.92802 4.92799C5.85465 3.99657 6.95678 3.2582 8.1707 2.75561C9.38461 2.25302 10.6862 1.99619 12 2C13.3139 1.99619 14.6155 2.25302 15.8294 2.75561C17.0433 3.2582 18.1454 3.99657 19.0721 4.92799C20.0035 5.85462 20.7418 6.95678 21.2444 8.1707C21.747 9.38461 22.0038 10.6862 22 12C22.0037 13.3137 21.7468 14.615 21.2442 15.8287C20.7416 17.0425 20.0034 18.1445 19.0721 19.071C18.1455 20.0026 17.0433 20.7412 15.8294 21.2439C14.6155 21.7467 13.3139 22.0037 12 22ZM7.77812 12.354L8.47807 14.322H9.77812L9.00297 15.273H10.251L12.94 11.997L13.711 12.938H12.7L12.18 13.581H14.2381L14.8379 14.307H16.084L17.1291 13.414L18.1761 14.314H19.652L14.9729 10.281H13.49L16.3799 12.781L15.4651 13.567L13.565 11.249H12.3111L10.0271 14.028L9.78398 14.328L10.898 11.255H9.88603L9.14506 13.333L8.40312 11.255H7.15214L6.41093 13.337L5.66606 11.244H4.65507L5.762 14.314H7.08598L7.78593 12.361L7.77812 12.354ZM18.178 11.262L17.485 11.856L18.1851 12.456L19.585 11.264L18.178 11.262Z" fill="#cdd2d9"/>
</svg>
