<svg xmlns="http://www.w3.org/2000/svg" xmlns:xlink="http://www.w3.org/1999/xlink" viewBox="8086 5629 135 40"><defs><style>.a,.b,.i{fill:#fff;}.a{stroke:#fff;stroke-miterlimit:10;stroke-width:0.2px;}.c{fill:url(#a);}.d{fill:url(#b);}.e{fill:url(#c);}.f{fill:url(#d);}.g{opacity:0.2;}.h{opacity:0.12;}.i{opacity:0.25;}</style><linearGradient id="a" x1="0.915" y1="6.614" x2="-0.383" y2="5.945" gradientUnits="objectBoundingBox"><stop offset="0" stop-color="#00a0ff"/><stop offset="0.007" stop-color="#00a1ff"/><stop offset="0.26" stop-color="#00beff"/><stop offset="0.512" stop-color="#00d2ff"/><stop offset="0.76" stop-color="#00dfff"/><stop offset="1" stop-color="#00e3ff"/></linearGradient><linearGradient id="b" x1="1.076" y1="17.102" x2="-1.305" y2="17.102" gradientUnits="objectBoundingBox"><stop offset="0" stop-color="#ffe000"/><stop offset="0.409" stop-color="#ffbd00"/><stop offset="0.775" stop-color="orange"/><stop offset="1" stop-color="#ff9c00"/></linearGradient><linearGradient id="c" x1="0.863" y1="10.863" x2="-0.501" y2="9.093" gradientUnits="objectBoundingBox"><stop offset="0" stop-color="#ff3a44"/><stop offset="1" stop-color="#c31162"/></linearGradient><linearGradient id="d" x1="-0.188" y1="13.582" x2="0.421" y2="12.792" gradientUnits="objectBoundingBox"><stop offset="0" stop-color="#32a071"/><stop offset="0.068" stop-color="#2da771"/><stop offset="0.476" stop-color="#15cf74"/><stop offset="0.801" stop-color="#06e775"/><stop offset="1" stop-color="#00f076"/></linearGradient></defs><g transform="translate(7690 3293)"><g transform="translate(386 2326)"><path d="M140,50H15a5.015,5.015,0,0,1-5-5V15a5.015,5.015,0,0,1,5-5H140a5.015,5.015,0,0,1,5,5V45A5.015,5.015,0,0,1,140,50Z"/></g><g transform="translate(386 2326)"><path class="a" d="M57.418,20.243a2.709,2.709,0,0,1-.745,2,2.908,2.908,0,0,1-2.2.888,3.152,3.152,0,0,1-2.208-5.366,3.017,3.017,0,0,1,2.208-.9,3.1,3.1,0,0,1,1.231.251,2.469,2.469,0,0,1,.938.67l-.527.528a2.024,2.024,0,0,0-1.643-.712,2.319,2.319,0,0,0-2.33,2.4,2.359,2.359,0,0,0,4.006,1.726,1.889,1.889,0,0,0,.5-1.215H54.468V19.79h2.907A2.406,2.406,0,0,1,57.418,20.243Z"/><path class="a" d="M62.028,17.737H59.3v1.9H61.76v.721H59.3v1.9h2.732V23h-3.5V17h3.5Z"/><path class="a" d="M65.279,23h-.771V17.737H62.832V17h4.123v.737H65.279V23Z"/><path class="a" d="M69.938,23V17h.771v6Z"/><path class="a" d="M74.128,23h-.771V17.737H71.681V17H75.8v.737H74.128V23Z"/><path class="a" d="M83.609,22.225a3.116,3.116,0,0,1-4.4,0,3.242,3.242,0,0,1,0-4.45,3.1,3.1,0,0,1,4.395,0,3.232,3.232,0,0,1,0,4.446Zm-3.83-.5a2.308,2.308,0,0,0,3.26,0,2.556,2.556,0,0,0,0-3.444,2.308,2.308,0,0,0-3.26,0,2.559,2.559,0,0,0,0,3.444Z"/><path class="a" d="M85.575,23V17h.938l2.916,4.667h.033l-.033-1.156V17H90.2v6H89.4l-3.051-4.894h-.033l.033,1.156V23Z"/></g><path class="b" d="M78.136,31.751A4.253,4.253,0,1,0,82.406,36,4.193,4.193,0,0,0,78.136,31.751Zm0,6.832a2.585,2.585,0,1,1,2.4-2.578A2.46,2.46,0,0,1,78.136,38.583Zm-9.314-6.832A4.253,4.253,0,1,0,73.092,36,4.193,4.193,0,0,0,68.822,31.751Zm0,6.832a2.585,2.585,0,1,1,2.4-2.578A2.46,2.46,0,0,1,68.822,38.583ZM57.744,33.057v1.8h4.318a3.76,3.76,0,0,1-.983,2.271,4.421,4.421,0,0,1-3.335,1.321,4.8,4.8,0,0,1,0-9.6A4.6,4.6,0,0,1,61,30.14l1.273-1.273a6.3,6.3,0,0,0-4.527-1.82,6.606,6.606,0,1,0,0,13.21A6.038,6.038,0,0,0,62.351,38.4a5.964,5.964,0,0,0,1.563-4.221,5.836,5.836,0,0,0-.1-1.127H57.744Zm45.308,1.4a3.954,3.954,0,0,0-3.641-2.707A4.043,4.043,0,0,0,95.4,36a4.163,4.163,0,0,0,4.221,4.253,4.233,4.233,0,0,0,3.545-1.885l-1.45-.967a2.429,2.429,0,0,1-2.1,1.176,2.164,2.164,0,0,1-2.062-1.289l5.687-2.352Zm-5.8,1.418A2.333,2.333,0,0,1,99.476,33.4a1.649,1.649,0,0,1,1.579.9ZM92.629,40H94.5V27.5H92.629Zm-3.062-7.3H89.5a2.946,2.946,0,0,0-2.239-.951,4.257,4.257,0,0,0,0,8.507,2.9,2.9,0,0,0,2.239-.966h.064V39.9c0,1.627-.87,2.5-2.271,2.5a2.353,2.353,0,0,1-2.143-1.514l-1.627.677a4.053,4.053,0,0,0,3.77,2.513c2.191,0,4.044-1.289,4.044-4.431V32.01H89.568V32.7Zm-2.142,5.881a2.587,2.587,0,0,1,0-5.156A2.4,2.4,0,0,1,89.7,36.021,2.377,2.377,0,0,1,87.425,38.583ZM111.806,27.5h-4.471V40H109.2V35.264h2.605a3.888,3.888,0,1,0,0-7.765Zm.048,6.025H109.2V29.239h2.654a2.143,2.143,0,1,1,0,4.285Zm11.532-1.795a3.5,3.5,0,0,0-3.329,1.914l1.656.691a1.77,1.77,0,0,1,1.705-.917,1.8,1.8,0,0,1,1.962,1.608v.129a4.131,4.131,0,0,0-1.946-.482c-1.785,0-3.6.981-3.6,2.814a2.888,2.888,0,0,0,3.1,2.75,2.631,2.631,0,0,0,2.38-1.223h.064v.965h1.8V35.185C127.182,32.967,125.524,31.729,123.386,31.729Zm-.226,6.851c-.61,0-1.463-.306-1.463-1.062,0-.965,1.062-1.335,1.979-1.335a3.325,3.325,0,0,1,1.7.418A2.262,2.262,0,0,1,123.16,38.58ZM133.743,32l-2.139,5.42h-.064L129.32,32h-2.01l3.329,7.575-1.9,4.214h1.946L135.818,32Zm-16.806,8H118.8V27.5h-1.865Z" transform="translate(386 2326)"/><g transform="translate(386 2326)"><path class="c" d="M20.436,17.538a2,2,0,0,0-.463,1.405V41.059a2,2,0,0,0,.463,1.4l.074.072L32.9,30.147v-.292L20.51,17.465Z"/><path class="d" d="M37.028,34.278,32.9,30.147v-.292l4.13-4.13.093.053,4.893,2.78c1.4.794,1.4,2.093,0,2.888l-4.893,2.78Z"/><path class="e" d="M37.122,34.225,32.9,30,20.436,42.464a1.627,1.627,0,0,0,2.078.062l14.608-8.3"/><path class="f" d="M37.122,25.777l-14.608-8.3a1.626,1.626,0,0,0-2.078.062L32.9,30Z"/><path class="g" d="M37.029,34.132,22.514,42.38a1.668,1.668,0,0,1-2,.011h0l-.074.074h0l.074.072h0a1.665,1.665,0,0,0,2-.011l14.608-8.3Z"/><path class="h" d="M20.436,42.318a2,2,0,0,1-.463-1.4v.146a2,2,0,0,0,.463,1.4l.074-.074Z"/><path class="h" d="M42.015,31.3l-4.986,2.833.093.093,4.893-2.78A1.753,1.753,0,0,0,43.063,30h0A1.866,1.866,0,0,1,42.015,31.3Z"/><path class="i" d="M22.514,17.623l19.5,11.08A1.861,1.861,0,0,1,43.063,30h0a1.755,1.755,0,0,0-1.048-1.444l-19.5-11.08c-1.4-.794-2.541-.134-2.541,1.466v.146C19.973,17.489,21.116,16.829,22.514,17.623Z"/></g></g></svg>