<svg xmlns="http://www.w3.org/2000/svg" viewBox="7922.89 5628.89 139 40"><defs><style>.a{fill:#fff;}</style></defs><g transform="translate(7922 5628)"><path d="M139.89,36.88a4,4,0,0,1-4,4.01H4.9A4.009,4.009,0,0,1,.89,36.88V4.9A4.014,4.014,0,0,1,4.9.89H135.886a4.008,4.008,0,0,1,4,4.015V36.88Z" transform="translate(0 0)"/><g transform="translate(13.316 6.467)"><path class="a" d="M30.891,20.132a6.07,6.07,0,0,1,2.882-5.092,6.193,6.193,0,0,0-4.882-2.647c-2.054-.217-4.045,1.232-5.092,1.232-1.067,0-2.678-1.211-4.414-1.176A6.5,6.5,0,0,0,13.915,15.8c-2.366,4.107-.6,10.142,1.665,13.462,1.134,1.626,2.459,3.441,4.193,3.377,1.7-.07,2.33-1.085,4.377-1.085,2.028,0,2.624,1.085,4.392,1.044,1.821-.029,2.967-1.633,4.061-3.274a13.451,13.451,0,0,0,1.857-3.793A5.864,5.864,0,0,1,30.891,20.132Z" transform="translate(-12.792 -5.928)"/><path class="a" d="M27.1,10.5A5.984,5.984,0,0,0,28.46,6.217a6.062,6.062,0,0,0-3.923,2.035,5.694,5.694,0,0,0-1.4,4.123A5.007,5.007,0,0,0,27.1,10.5Z" transform="translate(-12.338 -6.217)"/></g><g transform="translate(44.237 18.804)"><path class="a" d="M54.139,32.128H51.768l-1.3-4.092H45.955l-1.237,4.092H42.41L46.882,18.2h2.762Zm-4.061-5.809L48.9,22.681q-.186-.557-.7-2.625h-.042q-.205.889-.66,2.625l-1.154,3.638Z" transform="translate(-42.41 -17.992)"/><path class="a" d="M65.069,26.817a5.719,5.719,0,0,1-1.381,4.05,4.033,4.033,0,0,1-3.071,1.323,3.069,3.069,0,0,1-2.845-1.426h-.042v5.292H55.5V25.224q0-1.611-.082-3.307h1.958L57.5,23.51h.042a3.954,3.954,0,0,1,6.338-.394A5.545,5.545,0,0,1,65.069,26.817ZM62.8,26.9a4.144,4.144,0,0,0-.66-2.418,2.277,2.277,0,0,0-1.938-.992,2.311,2.311,0,0,0-1.494.548,2.541,2.541,0,0,0-.876,1.437,2.929,2.929,0,0,0-.1.68v1.675a2.688,2.688,0,0,0,.67,1.851,2.219,2.219,0,0,0,1.741.755,2.277,2.277,0,0,0,1.957-.972A4.285,4.285,0,0,0,62.8,26.9Z" transform="translate(-41.838 -17.827)"/><path class="a" d="M76.106,26.817a5.714,5.714,0,0,1-1.382,4.05,4.03,4.03,0,0,1-3.07,1.323,3.066,3.066,0,0,1-2.844-1.426h-.042v5.292H66.541V25.224q0-1.611-.082-3.307h1.957l.124,1.592h.042a3.955,3.955,0,0,1,6.339-.394A5.561,5.561,0,0,1,76.106,26.817Zm-2.268.082a4.145,4.145,0,0,0-.661-2.418,2.274,2.274,0,0,0-1.937-.992,2.314,2.314,0,0,0-1.5.548,2.539,2.539,0,0,0-.875,1.437,2.988,2.988,0,0,0-.1.68v1.675a2.7,2.7,0,0,0,.668,1.851,2.223,2.223,0,0,0,1.743.755,2.277,2.277,0,0,0,1.958-.972A4.285,4.285,0,0,0,73.838,26.9Z" transform="translate(-41.352 -17.827)"/><path class="a" d="M88.4,28.23a3.718,3.718,0,0,1-1.234,2.894,5.459,5.459,0,0,1-3.784,1.22,6.61,6.61,0,0,1-3.6-.868l.516-1.86a6.089,6.089,0,0,0,3.218.89,3.036,3.036,0,0,0,1.96-.57,1.862,1.862,0,0,0,.7-1.522,1.943,1.943,0,0,0-.577-1.428,5.363,5.363,0,0,0-1.917-1.077q-3.649-1.365-3.648-3.995A3.539,3.539,0,0,1,81.312,19.1a5.033,5.033,0,0,1,3.4-1.1,6.728,6.728,0,0,1,3.153.662l-.556,1.82a5.458,5.458,0,0,0-2.659-.641,2.687,2.687,0,0,0-1.833.579,1.656,1.656,0,0,0-.556,1.262,1.7,1.7,0,0,0,.638,1.364,7.2,7.2,0,0,0,2.021,1.075,6.856,6.856,0,0,1,2.638,1.694A3.545,3.545,0,0,1,88.4,28.23Z" transform="translate(-40.766 -18.001)"/><path class="a" d="M95.345,23.7H92.892v4.878q0,1.861,1.3,1.86a3.948,3.948,0,0,0,.989-.1l.062,1.695a5.03,5.03,0,0,1-1.731.247,2.667,2.667,0,0,1-2.062-.806,3.968,3.968,0,0,1-.742-2.708V23.693H89.244V22.018h1.462V20.179l2.186-.662v2.5h2.453V23.7Z" transform="translate(-40.349 -17.93)"/><path class="a" d="M106.1,26.858a5.52,5.52,0,0,1-1.32,3.8,4.705,4.705,0,0,1-3.671,1.53A4.474,4.474,0,0,1,97.6,30.724a5.351,5.351,0,0,1-1.309-3.7,5.466,5.466,0,0,1,1.35-3.823,4.665,4.665,0,0,1,3.637-1.489,4.569,4.569,0,0,1,3.545,1.468A5.29,5.29,0,0,1,106.1,26.858Zm-2.309.072a4.529,4.529,0,0,0-.6-2.384,2.2,2.2,0,0,0-2-1.2,2.231,2.231,0,0,0-2.041,1.2,4.615,4.615,0,0,0-.6,2.426,4.522,4.522,0,0,0,.6,2.383,2.272,2.272,0,0,0,4.019-.021A4.545,4.545,0,0,0,103.8,26.93Z" transform="translate(-40.039 -17.827)"/><path class="a" d="M112.847,23.88a3.855,3.855,0,0,0-.7-.062,2.1,2.1,0,0,0-1.814.89,3.351,3.351,0,0,0-.556,1.984v5.271H107.55l.021-6.882q0-1.737-.084-3.163h1.939l.081,1.922h.062a3.435,3.435,0,0,1,1.113-1.591,2.686,2.686,0,0,1,1.609-.538,3.564,3.564,0,0,1,.556.041V23.88Z" transform="translate(-39.547 -17.827)"/><path class="a" d="M122.531,26.466a5.249,5.249,0,0,1-.081,1.012h-6.677a2.918,2.918,0,0,0,.969,2.275,3.3,3.3,0,0,0,2.184.7,7.367,7.367,0,0,0,2.7-.475l.349,1.549a8.333,8.333,0,0,1-3.359.621,4.858,4.858,0,0,1-3.66-1.375,5.085,5.085,0,0,1-1.329-3.689,5.766,5.766,0,0,1,1.238-3.782,4.261,4.261,0,0,1,3.5-1.611,3.73,3.73,0,0,1,3.279,1.611A5.444,5.444,0,0,1,122.531,26.466Zm-2.122-.579a3.039,3.039,0,0,0-.432-1.716,1.943,1.943,0,0,0-1.774-.931,2.11,2.11,0,0,0-1.772.91,3.336,3.336,0,0,0-.659,1.736h4.636Z" transform="translate(-39.277 -17.828)"/></g><g transform="translate(45.559 6.822)"><path class="a" d="M49.286,10.157a3.442,3.442,0,0,1-1.1,2.783,4.385,4.385,0,0,1-2.905.863,13.434,13.434,0,0,1-1.6-.082V6.988a11.778,11.778,0,0,1,1.884-.142,4.054,4.054,0,0,1,2.7.782A3.165,3.165,0,0,1,49.286,10.157Zm-1.154.03A2.506,2.506,0,0,0,47.5,8.349a2.49,2.49,0,0,0-1.849-.64,4.618,4.618,0,0,0-.881.071V12.9a5.761,5.761,0,0,0,.739.03,2.584,2.584,0,0,0,1.939-.7A2.81,2.81,0,0,0,48.133,10.188Z" transform="translate(-43.676 -6.542)"/><path class="a" d="M55.112,11.15a2.712,2.712,0,0,1-.648,1.869,2.311,2.311,0,0,1-1.8.752,2.2,2.2,0,0,1-1.727-.721,2.631,2.631,0,0,1-.642-1.817,2.685,2.685,0,0,1,.663-1.878,2.3,2.3,0,0,1,1.787-.731,2.248,2.248,0,0,1,1.742.72A2.61,2.61,0,0,1,55.112,11.15Zm-1.135.036a2.237,2.237,0,0,0-.293-1.171,1.08,1.08,0,0,0-.981-.59,1.1,1.1,0,0,0-1,.59,2.267,2.267,0,0,0-.293,1.191,2.237,2.237,0,0,0,.293,1.171,1.1,1.1,0,0,0,.993.59,1.091,1.091,0,0,0,.981-.6A2.223,2.223,0,0,0,53.977,11.186Z" transform="translate(-43.385 -6.459)"/><path class="a" d="M63.066,8.719l-1.54,4.935h-1l-.638-2.143a16.077,16.077,0,0,1-.4-1.594h-.02a11.7,11.7,0,0,1-.4,1.594L58.4,13.654H57.383L55.935,8.719h1.124l.556,2.346q.2.832.334,1.584h.02q.122-.619.406-1.573l.7-2.356h.892l.669,2.305q.243.843.395,1.625h.03a15.562,15.562,0,0,1,.334-1.625l.6-2.305h1.074Z" transform="translate(-43.137 -6.455)"/><path class="a" d="M68.38,13.659H67.286V10.832q0-1.307-.992-1.307a.986.986,0,0,0-.79.359,1.276,1.276,0,0,0-.3.846v2.927H64.106V10.134q0-.65-.04-1.412h.962l.051.772h.03a1.583,1.583,0,0,1,.567-.6,1.845,1.845,0,0,1,.992-.277,1.568,1.568,0,0,1,1.145.447A2.176,2.176,0,0,1,68.38,10.7Z" transform="translate(-42.779 -6.459)"/><path class="a" d="M71.134,13.756H70.041v-7.2h1.093Z" transform="translate(-42.516 -6.556)"/><path class="a" d="M77.461,11.15a2.711,2.711,0,0,1-.648,1.869,2.312,2.312,0,0,1-1.8.752,2.193,2.193,0,0,1-1.727-.721,2.631,2.631,0,0,1-.642-1.817A2.685,2.685,0,0,1,73.3,9.354a2.3,2.3,0,0,1,1.786-.731,2.25,2.25,0,0,1,1.743.72A2.61,2.61,0,0,1,77.461,11.15Zm-1.136.036a2.237,2.237,0,0,0-.293-1.171,1.079,1.079,0,0,0-.98-.59,1.1,1.1,0,0,0-1,.59,2.267,2.267,0,0,0-.293,1.191,2.237,2.237,0,0,0,.293,1.171,1.1,1.1,0,0,0,.993.59,1.09,1.09,0,0,0,.98-.6A2.213,2.213,0,0,0,76.325,11.186Z" transform="translate(-42.402 -6.459)"/><path class="a" d="M82.5,13.659h-.982l-.081-.568h-.03a1.683,1.683,0,0,1-1.438.68,1.481,1.481,0,0,1-1.123-.447,1.4,1.4,0,0,1-.385-1.005,1.534,1.534,0,0,1,.755-1.381,3.909,3.909,0,0,1,2.122-.467v-.092q0-.975-1.022-.975a2.284,2.284,0,0,0-1.283.365l-.222-.72A3.149,3.149,0,0,1,80.5,8.623q1.929,0,1.931,2.041v1.817A7.729,7.729,0,0,0,82.5,13.659Zm-1.136-1.7V11.2q-1.81-.031-1.81.995a.745.745,0,0,0,.21.579.764.764,0,0,0,.535.193,1.1,1.1,0,0,0,.669-.228.938.938,0,0,0,.4-.777Z" transform="translate(-42.146 -6.459)"/><path class="a" d="M88.483,13.756h-.971l-.051-.793h-.03a1.635,1.635,0,0,1-1.581.9,1.85,1.85,0,0,1-1.478-.7,2.734,2.734,0,0,1-.587-1.817,2.866,2.866,0,0,1,.638-1.94,1.959,1.959,0,0,1,1.519-.691,1.474,1.474,0,0,1,1.386.67h.021V6.556h1.1v5.87Q88.444,13.147,88.483,13.756Zm-1.134-2.081v-.823a1.619,1.619,0,0,0-.03-.345,1.25,1.25,0,0,0-.4-.665,1.074,1.074,0,0,0-.732-.269,1.122,1.122,0,0,0-.963.488,2.1,2.1,0,0,0-.351,1.249,1.953,1.953,0,0,0,.336,1.188,1.125,1.125,0,0,0,.956.487,1.053,1.053,0,0,0,.864-.406A1.355,1.355,0,0,0,87.349,11.674Z" transform="translate(-41.911 -6.556)"/><path class="a" d="M97.451,11.15a2.712,2.712,0,0,1-.648,1.869,2.309,2.309,0,0,1-1.8.752,2.2,2.2,0,0,1-1.727-.721,2.631,2.631,0,0,1-.642-1.817,2.685,2.685,0,0,1,.663-1.878,2.3,2.3,0,0,1,1.788-.731,2.245,2.245,0,0,1,1.741.72A2.61,2.61,0,0,1,97.451,11.15Zm-1.134.036a2.237,2.237,0,0,0-.293-1.171,1.082,1.082,0,0,0-.982-.59,1.1,1.1,0,0,0-1,.59,2.267,2.267,0,0,0-.293,1.191,2.237,2.237,0,0,0,.293,1.171,1.117,1.117,0,0,0,1.975-.01A2.232,2.232,0,0,0,96.317,11.186Z" transform="translate(-41.522 -6.459)"/><path class="a" d="M103.065,13.659h-1.093V10.832q0-1.307-.993-1.307a.983.983,0,0,0-.789.359,1.271,1.271,0,0,0-.3.846v2.927h-1.1V10.134q0-.65-.039-1.412h.96l.051.772h.03a1.6,1.6,0,0,1,.567-.6,1.849,1.849,0,0,1,.993-.277,1.567,1.567,0,0,1,1.144.447,2.172,2.172,0,0,1,.567,1.635Z" transform="translate(-41.253 -6.459)"/><path class="a" d="M110.062,9.6h-1.2v2.4c0,.609.214.914.638.914a1.922,1.922,0,0,0,.488-.051l.028.832a2.452,2.452,0,0,1-.85.122,1.306,1.306,0,0,1-1.012-.4,1.939,1.939,0,0,1-.365-1.331V9.6h-.719V8.774h.719v-.9l1.072-.325V8.773h1.2V9.6Z" transform="translate(-40.887 -6.51)"/><path class="a" d="M115.664,13.756h-1.1V10.95q0-1.327-.991-1.327a1.045,1.045,0,0,0-1.044.769,1.382,1.382,0,0,0-.051.395v2.968H111.39v-7.2h1.093V9.53h.021a1.653,1.653,0,0,1,1.478-.811,1.523,1.523,0,0,1,1.125.447,2.251,2.251,0,0,1,.556,1.655v2.934Z" transform="translate(-40.697 -6.556)"/><path class="a" d="M121.391,10.958a2.657,2.657,0,0,1-.041.5h-3.281a1.441,1.441,0,0,0,.475,1.117,1.627,1.627,0,0,0,1.074.345,3.616,3.616,0,0,0,1.327-.233l.171.762a4.11,4.11,0,0,1-1.652.3,2.382,2.382,0,0,1-1.8-.675,2.492,2.492,0,0,1-.652-1.812,2.83,2.83,0,0,1,.608-1.858,2.09,2.09,0,0,1,1.721-.791,1.829,1.829,0,0,1,1.609.791A2.64,2.64,0,0,1,121.391,10.958Zm-1.044-.284a1.48,1.48,0,0,0-.212-.843.955.955,0,0,0-.871-.457,1.038,1.038,0,0,0-.871.447,1.663,1.663,0,0,0-.325.853h2.278Z" transform="translate(-40.449 -6.459)"/></g></g></svg>