<svg xmlns="http://www.w3.org/2000/svg" viewBox="7844 1345 115 27"><defs><style>.a,.b{fill:#fff;}.b{opacity:0.5;}</style></defs><g transform="translate(7711 1298)"><g transform="translate(177.038 50.9)"><path class="a" d="M45.5,21.5a1.6,1.6,0,0,0,.7-.9,5.015,5.015,0,0,0,.2-1.2V9.2c.2,0,.4-.1.7-.1a3.088,3.088,0,0,1,1-.1,2.773,2.773,0,0,1,.9.1.909.909,0,0,1,.7.3,1,1,0,0,1,.4.5,2.218,2.218,0,0,1,.1.9v8.9a8.8,8.8,0,0,1-.2,1.7,5.169,5.169,0,0,1-.6,1.3,2.541,2.541,0,0,1-1,.8,2.773,2.773,0,0,1-1.3.3,1.757,1.757,0,0,1-1.5-.6,2.034,2.034,0,0,1-.6-1.5Zm.7-15.4a1.815,1.815,0,0,1,.6-1.4A1.8,1.8,0,0,1,48.3,4a2.038,2.038,0,0,1,1.5.6,1.932,1.932,0,0,1,0,2.8,2.178,2.178,0,0,1-3,0A1.612,1.612,0,0,1,46.2,6.1Z" transform="translate(-45 -4)"/><path class="a" d="M59.206,9.7a3.39,3.39,0,0,1,.8-.3,4.109,4.109,0,0,1,1.1-.1,4.152,4.152,0,0,1,1.6.3,1.55,1.55,0,0,1,.8.8c.2.6.3,1.2.5,1.7.1.5.3,1,.4,1.5s.3,1,.4,1.4a8.325,8.325,0,0,0,.4,1.5h.1c.1-.9.3-1.8.4-2.6l.3-2.4.3-2.4.3-2.4a3.748,3.748,0,0,1,1.8-.5,2.119,2.119,0,0,1,1.4.4,1.209,1.209,0,0,1,.6,1.2,8.163,8.163,0,0,1-.1,1.4c-.1.6-.2,1.3-.3,2a22.285,22.285,0,0,1-.4,2.3,15.525,15.525,0,0,1-.5,2.3c-.2.7-.3,1.4-.5,2a7.168,7.168,0,0,1-.5,1.4,2.26,2.26,0,0,1-1.1.5,7.785,7.785,0,0,1-1.6.2,4.852,4.852,0,0,1-1.8-.3c-.5-.2-.8-.4-.9-.8q-.3-.9-.6-2.1c-.2-.8-.5-1.7-.7-2.7-.2,1-.4,1.9-.6,2.8s-.4,1.7-.6,2.3a2.347,2.347,0,0,1-1,.5,6.063,6.063,0,0,1-1.5.2,4.852,4.852,0,0,1-1.8-.3,1.88,1.88,0,0,1-1.1-.8,8.334,8.334,0,0,1-.4-1.2c-.2-.5-.3-1.1-.5-1.8s-.3-1.4-.5-2.2-.3-1.6-.5-2.4c-.1-.8-.3-1.6-.4-2.3-.1-.8-.2-1.4-.3-2.1a1.936,1.936,0,0,1,.9-.5A2.541,2.541,0,0,1,54.3,6a2.119,2.119,0,0,1,1.4.4,1.64,1.64,0,0,1,.7,1.2c.2,1.5.4,2.8.6,3.8s.3,1.8.4,2.5a12.532,12.532,0,0,1,.2,1.5c0,.4.1.6.1.9h.1c.1-.6.3-1.1.4-1.7a8.325,8.325,0,0,1,.4-1.5c.1-.5.3-1.1.4-1.7A12.754,12.754,0,0,1,59.206,9.7Z" transform="translate(-44.994 -4)"/><path class="a" d="M76.4,8.7a15,15,0,0,1,2.2.2,6.7,6.7,0,0,1,1.7.7,3.483,3.483,0,0,1,1.1,1.3,3.422,3.422,0,0,1,.4,1.8v5a1.222,1.222,0,0,1-.3.9,2.408,2.408,0,0,1-.8.6,7.806,7.806,0,0,1-4.1.9,12.5,12.5,0,0,1-2.1-.2,3.907,3.907,0,0,1-1.6-.7,3.84,3.84,0,0,1-1.1-1.1,4.19,4.19,0,0,1-.4-1.6,3.242,3.242,0,0,1,.9-2.4,4.471,4.471,0,0,1,2.8-1l2.9-.3v-.2a.961.961,0,0,0-.6-.9,3.512,3.512,0,0,0-1.6-.3,9.869,9.869,0,0,0-1.7.2c-.5.1-1,.3-1.5.4a1.024,1.024,0,0,1-.5-.6,2.918,2.918,0,0,1-.2-.9,1.222,1.222,0,0,1,.3-.9,3.493,3.493,0,0,1,.9-.6,5.423,5.423,0,0,1,1.5-.4A5.746,5.746,0,0,0,76.4,8.7Zm.2,8.8a2.206,2.206,0,0,0,.8-.1,6.382,6.382,0,0,0,.7-.2V15.4l-1.6.1a1.5,1.5,0,0,0-1,.3.669.669,0,0,0-.4.7.907.907,0,0,0,.3.7A1.74,1.74,0,0,0,76.6,17.5Z" transform="translate(-44.977 -4)"/><path class="a" d="M88,19.9c-.2,0-.4.1-.7.1a3.088,3.088,0,0,1-1,.1,2.773,2.773,0,0,1-.9-.1.909.909,0,0,1-.7-.3,1,1,0,0,1-.4-.5,2.218,2.218,0,0,1-.1-.9V5.3c.2,0,.4-.1.7-.1a3.088,3.088,0,0,1,1-.1,2.773,2.773,0,0,1,.9.1.909.909,0,0,1,.7.3,1,1,0,0,1,.4.5c0,.3.1.6.1.9Z" transform="translate(-44.966 -4)"/><path class="a" d="M94.2,19.9c-.2,0-.4.1-.7.1a3.088,3.088,0,0,1-1,.1,2.773,2.773,0,0,1-.9-.1.909.909,0,0,1-.7-.3,1,1,0,0,1-.4-.5,2.218,2.218,0,0,1-.1-.9V5.3c.2,0,.4-.1.7-.1s.6-.1,1-.1a2.773,2.773,0,0,1,.9.1.909.909,0,0,1,.7.3,2.181,2.181,0,0,1,.4.5,2.218,2.218,0,0,1,.1.9Z" transform="translate(-44.96 -4)"/><path class="a" d="M102.405,20.3a6.061,6.061,0,0,1-2.4-.4,4.907,4.907,0,0,1-2-1.1,4.312,4.312,0,0,1-1.3-1.9,6.683,6.683,0,0,1-.5-2.6,6.17,6.17,0,0,1,.5-2.5A3.708,3.708,0,0,1,98,10.1a4,4,0,0,1,1.8-1,7.625,7.625,0,0,1,2.1-.3,5.39,5.39,0,0,1,2.2.4,6.94,6.94,0,0,1,1.7,1,4.177,4.177,0,0,1,1.1,1.5,4.055,4.055,0,0,1,.4,1.9,1.593,1.593,0,0,1-.4,1.2,2.2,2.2,0,0,1-1.2.5L99.9,16a1.818,1.818,0,0,0,1,1.1,4.719,4.719,0,0,0,1.7.4,8.822,8.822,0,0,0,1.7-.2,8.943,8.943,0,0,0,1.3-.5c.2.1.4.4.6.6a1.344,1.344,0,0,1,.2.8,1.551,1.551,0,0,1-.9,1.5,4.29,4.29,0,0,1-1.6.5A7.582,7.582,0,0,1,102.405,20.3Zm-.7-8.8a2,2,0,0,0-.9.2,1.025,1.025,0,0,0-.6.5,2.092,2.092,0,0,0-.4.6,1.7,1.7,0,0,0-.1.7l3.8-.6a1.382,1.382,0,0,0-.5-.9A1.73,1.73,0,0,0,101.7,11.5Z" transform="translate(-44.955 -4)"/><path class="a" d="M112.7,16.2c0,.4.1.7.4.8a1.5,1.5,0,0,0,1,.2,1.7,1.7,0,0,0,.7-.1c.2,0,.4-.1.6-.1.1.2.2.3.3.5a1.482,1.482,0,0,1,.1.7,1.815,1.815,0,0,1-.6,1.4,3.264,3.264,0,0,1-2.2.5,4.485,4.485,0,0,1-3-.9,3.689,3.689,0,0,1-1.1-2.9V6.9c.2,0,.4-.1.7-.1a3.088,3.088,0,0,1,1-.1,2.815,2.815,0,0,1,1.5.3c.4.2.5.7.5,1.5V9.9h2.9l.3.6a1.948,1.948,0,0,1,.1.8,1.608,1.608,0,0,1-.3,1.1,1.224,1.224,0,0,1-.9.3h-2Z" transform="translate(-44.944 -4)"/></g><g transform="translate(133 47)"><g transform="translate(0)"><path class="a" d="M19.516,27.1H9.507A8.5,8.5,0,0,1,1,18.6V2.6A2.477,2.477,0,0,1,3.5.1H24.52a2.477,2.477,0,0,1,2.5,2.5,2.477,2.477,0,0,1-2.5,2.5H6V18.6a3.545,3.545,0,0,0,3.5,3.5H19.516a2.5,2.5,0,1,1,0,5Z" transform="translate(-1 -0.1)"/></g></g><g transform="translate(157.021 47)"><g transform="translate(0)"><path class="b" d="M32.507,27.1h-5a2.5,2.5,0,1,1,0-5h5a3.545,3.545,0,0,0,3.5-3.5V5.1h-3.5A2.477,2.477,0,0,1,30,2.6a2.477,2.477,0,0,1,2.5-2.5h6.005a2.477,2.477,0,0,1,2.5,2.5v16A8.561,8.561,0,0,1,32.507,27.1Z" transform="translate(-25 -0.1)"/></g></g><path class="a" d="M28.522,9.1H3.5v5H25.319a3.517,3.517,0,1,0,3.2-5Z" transform="translate(132.002 46.9)"/></g></svg>