<svg width="32" height="32" viewBox="0 0 32 32" fill="none" xmlns="http://www.w3.org/2000/svg">
<circle cx="16" cy="16" r="16" fill="#003DC6"/>
<path d="M14.0657 10.6974C13.3915 11.3716 12.8828 12.2585 12.5805 13.3748H19.3682C19.8914 13.3748 20.3156 13.799 20.3156 14.3222C20.3156 14.8454 19.8914 15.2696 19.3682 15.2696H12.2841C12.2701 15.5058 12.263 15.7492 12.263 16C12.263 16.2508 12.2701 16.4942 12.2841 16.7304H16.6843C17.2075 16.7304 17.6317 17.1546 17.6317 17.6778C17.6317 18.201 17.2075 18.6252 16.6843 18.6252H12.5805C12.8828 19.7415 13.3915 20.6284 14.0657 21.3026C15.2021 22.439 16.9431 23.1053 19.3682 23.1053C19.8914 23.1053 20.3156 23.5294 20.3156 24.0526C20.3156 24.5758 19.8914 25 19.3682 25C16.6037 25 14.3184 24.2348 12.7259 22.6423C11.6704 21.5869 10.9784 20.2271 10.6317 18.6252H8.63169C8.10848 18.6252 7.68433 18.201 7.68433 17.6778C7.68433 17.1546 8.10848 16.7304 8.63169 16.7304H10.3867C10.3744 16.4909 10.3682 16.2474 10.3682 16C10.3682 15.7526 10.3744 15.5091 10.3867 15.2696H8.63169C8.10848 15.2696 7.68433 14.8454 7.68433 14.3222C7.68433 13.799 8.10848 13.3748 8.63169 13.3748H10.6317C10.9784 11.7729 11.6704 10.4131 12.7259 9.35766C14.3184 7.76517 16.6037 7 19.3682 7C19.8914 7 20.3156 7.42415 20.3156 7.94737C20.3156 8.47059 19.8914 8.89474 19.3682 8.89474C16.9431 8.89474 15.2021 9.56105 14.0657 10.6974Z" fill="white"/>
</svg>
