<svg width="32" height="32" viewBox="0 0 32 32" fill="none" xmlns="http://www.w3.org/2000/svg">
<circle cx="16" cy="16" r="16" fill="#003DC6"/>
<path d="M17.139 7C16.5529 7 15.9727 7.1167 15.4322 7.34329C14.8917 7.56989 14.4017 7.90184 13.9909 8.31979C13.58 8.73773 13.2564 9.23331 13.0391 9.77761C12.8229 10.3191 12.7161 10.898 12.7249 11.481V16.1717H11.443C10.8926 16.1717 10.4463 16.618 10.4463 17.1685C10.4463 17.719 10.8926 18.1652 11.443 18.1652H12.7249V21.7247C12.7249 21.893 12.6917 22.0597 12.6273 22.2152C12.5629 22.3707 12.4685 22.512 12.3494 22.631C12.2304 22.7501 12.0891 22.8445 11.9336 22.9089C11.7781 22.9733 11.6114 23.0065 11.443 23.0065C10.8926 23.0065 10.4463 23.4527 10.4463 24.0032C10.4463 24.5537 10.8926 25 11.443 25H20.5564C21.1069 25 21.5532 24.5537 21.5532 24.0032C21.5532 23.4527 21.1069 23.0065 20.5564 23.0065H14.4571L14.4691 22.9781C14.6337 22.5807 14.7184 22.1548 14.7184 21.7247V18.1652H18.2778C18.8283 18.1652 19.2746 17.719 19.2746 17.1685C19.2746 16.618 18.8283 16.1717 18.2778 16.1717H14.7184V11.473L14.7182 11.456C14.7128 11.1346 14.7713 10.8153 14.8905 10.5168C15.0097 10.2183 15.1871 9.94654 15.4125 9.71733C15.6378 9.48811 15.9065 9.30606 16.203 9.18179C16.4994 9.05752 16.8176 8.99351 17.139 8.99351C17.4604 8.99351 17.7787 9.05752 18.0751 9.18179C18.3715 9.30606 18.6402 9.48811 18.8656 9.71733C19.0909 9.94654 19.2683 10.2183 19.3875 10.5168C19.5067 10.8154 19.5653 11.1346 19.5598 11.456C19.5504 12.0064 19.989 12.4602 20.5394 12.4696C21.0898 12.479 21.5436 12.0404 21.553 11.49C21.563 10.904 21.4562 10.3219 21.2389 9.77761C21.0216 9.23331 20.6981 8.73773 20.2872 8.31979C19.8763 7.90184 19.3863 7.56989 18.8458 7.34329C18.3053 7.1167 17.7251 7 17.139 7Z" fill="white"/>
</svg>
