<svg width="32" height="32" viewBox="0 0 32 32" fill="none" xmlns="http://www.w3.org/2000/svg">
<circle cx="16" cy="16" r="16" fill="#003DC6"/>
<path fill-rule="evenodd" clip-rule="evenodd" d="M15.9938 8.63309C15.5426 8.58491 15.119 8.88483 15.0225 9.33837L14.1067 13.6447H11.9972L11.0814 9.33837C10.9784 8.85397 10.5022 8.5448 10.0178 8.64782C9.53335 8.75084 9.22418 9.22705 9.3272 9.71145L10.1637 13.6447H7.89682C7.40152 13.6447 7 14.0462 7 14.5415C7 15.0368 7.40152 15.4383 7.89682 15.4383H10.5452L10.9267 17.2319H7.89682C7.40152 17.2319 7 17.6334 7 18.1287C7 18.624 7.40152 19.0256 7.89682 19.0256H11.3081L12.0814 22.6616C12.1778 23.1149 12.601 23.4148 13.052 23.367C13.5029 23.4148 13.9261 23.1149 14.0225 22.6616L14.7958 19.0256H17.1917L17.965 22.6616C18.0615 23.1151 18.4849 23.415 18.936 23.3669C19.3871 23.415 19.8105 23.1151 19.907 22.6616L20.6803 19.0256H24.1032C24.5985 19.0256 25 18.624 25 18.1287C25 17.6334 24.5985 17.2319 24.1032 17.2319H21.0617L21.4432 15.4383H24.1032C24.5985 15.4383 25 15.0368 25 14.5415C25 14.0462 24.5985 13.6447 24.1032 13.6447H21.8247L22.6612 9.71145C22.7642 9.22705 22.455 8.75084 21.9706 8.64782C21.4862 8.5448 21.01 8.85397 20.907 9.33837L19.9912 13.6447H17.8808L16.965 9.33837C16.8685 8.88483 16.4449 8.58491 15.9938 8.63309ZM19.2282 17.2319L19.6097 15.4383H18.2623L18.6438 17.2319H19.2282ZM16.8103 17.2319L16.4288 15.4383H15.5587L15.1773 17.2319H16.8103ZM13.3437 17.2319L13.7252 15.4383H12.3787L12.7602 17.2319H13.3437ZM16.0473 13.6447L15.9938 13.3928L15.9402 13.6447H16.0473Z" fill="white"/>
</svg>
