<svg width="32" height="32" viewBox="0 0 32 32" fill="none" xmlns="http://www.w3.org/2000/svg">
<circle cx="16" cy="16" r="16" fill="#003DC6"/>
<path d="M16.0008 25C15.4659 24.9999 14.9404 24.8593 14.4768 24.5925L9.31713 21.614C8.85413 21.3455 8.46975 20.9601 8.20245 20.4964C7.93514 20.0328 7.79428 19.507 7.79395 18.9718V13.02C7.7958 12.4867 7.93712 11.9633 8.20388 11.5015C8.47064 11.0398 8.85355 10.6559 9.31458 10.3879L14.4742 7.40864C14.9374 7.14095 15.4629 7 15.9978 7C16.5328 7 17.0583 7.14095 17.5215 7.40864L22.6777 10.3803C23.1411 10.6479 23.5262 11.0324 23.7944 11.4955C24.0626 11.9586 24.2045 12.484 24.206 13.0191V18.9718C24.2056 19.5059 24.0652 20.0306 23.7988 20.4936C23.5325 20.9566 23.1494 21.3418 22.6879 21.6106L17.5282 24.5882C17.0641 24.8571 16.5373 24.9992 16.0008 25ZM13.199 18.4522L12.0545 19.2689C12.2862 19.601 12.5945 19.8724 12.9534 20.0601C13.3122 20.2478 13.711 20.3463 14.1159 20.3472C14.3893 20.3469 14.6609 20.3036 14.9208 20.219C15.4416 20.0592 15.8967 19.7352 16.218 19.2954C16.5394 18.8556 16.7098 18.3236 16.7038 17.7789V16.7838C16.8247 16.8439 16.9499 16.895 17.0782 16.9366C17.338 17.0205 17.6093 17.0635 17.8823 17.064C18.2877 17.0635 18.687 16.9653 19.0463 16.7776C19.4057 16.5898 19.7144 16.3182 19.9463 15.9857L18.8001 15.1681C18.658 15.3678 18.456 15.5172 18.2234 15.5946C17.9908 15.6721 17.7396 15.6735 17.5061 15.5987C17.2726 15.5239 17.069 15.3768 16.9246 15.1787C16.7802 14.9806 16.7026 14.7416 16.703 14.4965V11.6505H15.2944V17.7763C15.2952 18.0217 15.2179 18.261 15.0737 18.4596C14.9294 18.6581 14.7258 18.8057 14.4922 18.8808C14.2586 18.956 14.0071 18.9549 13.7742 18.8777C13.5412 18.8005 13.3389 18.6511 13.1964 18.4513L13.199 18.4522Z" fill="white"/>
</svg>
