<svg width="32" height="32" viewBox="0 0 32 32" fill="none" xmlns="http://www.w3.org/2000/svg">
<circle cx="16" cy="16" r="16" fill="#003DC6"/>
<path d="M15.9609 7C16.4127 7 16.779 7.3663 16.779 7.81814V9.86351H19.6817C20.1335 9.86351 20.4998 10.2298 20.4998 10.6816C20.4998 11.1335 20.1335 11.4998 19.6817 11.4998H14.0636C13.2933 11.4998 12.9499 12.4672 13.5477 12.9529L16.526 15.3728L19.3572 17.8264C21.0741 19.3145 20.0218 22.1357 17.7497 22.1357H16.779V24.1819C16.779 24.6337 16.4127 25 15.9609 25C15.509 25 15.1427 24.6337 15.1427 24.1819V22.1357H12.3184C11.8665 22.1357 11.5002 21.7694 11.5002 21.3175C11.5002 20.8657 11.8665 20.4994 12.3184 20.4994H17.7497C18.507 20.4994 18.8578 19.559 18.2855 19.063L15.474 16.6264L12.5159 14.2229C10.7224 12.7657 11.7528 9.86351 14.0636 9.86351H15.1427V7.81814C15.1427 7.3663 15.509 7 15.9609 7Z" fill="white"/>
</svg>
