<svg width="32" height="32" viewBox="0 0 32 32" fill="none" xmlns="http://www.w3.org/2000/svg">
<circle cx="16" cy="16" r="16" fill="#2F4292"/>
<path d="M22.7072 16.0004L23.1209 15.7098C23.1197 15.7083 23.1184 15.7068 23.1172 15.7053L23.6405 15.3396C24.0597 15.0454 24.4019 14.6546 24.6382 14.2003C24.8744 13.7459 24.9977 13.2413 24.9977 12.7292C24.9977 12.2171 24.8744 11.7125 24.6382 11.2581C24.4019 10.8037 24.0597 10.4129 23.6405 10.1188L23.6465 10.1263L20.6723 8.04111L16.993 10.6159L17.9797 11.3104L20.6678 9.42947L22.988 11.0566C23.2582 11.2455 23.4788 11.4968 23.6311 11.7892C23.7834 12.0815 23.8629 12.4063 23.8629 12.7359C23.8629 13.0656 23.7834 13.3904 23.6311 13.6827C23.4788 13.9751 23.2582 14.2264 22.988 14.4153L21.7138 15.3043L11.339 8.02609L8.35724 10.1218C7.93802 10.4159 7.59583 10.8067 7.35958 11.2611C7.12334 11.7155 7 12.2201 7 12.7322C7 13.2443 7.12334 13.7489 7.35958 14.2033C7.59583 14.6576 7.93802 15.0484 8.35724 15.3426L9.28907 15.9966L9.0608 16.1573L9.06456 16.1626L8.35724 16.6566C7.93802 16.9508 7.59583 17.3416 7.35958 17.796C7.12334 18.2503 7 18.7549 7 19.267C7 19.7792 7.12334 20.2838 7.35958 20.7381C7.59583 21.1925 7.93802 21.5833 8.35724 21.8775L11.3284 23.9641L15.0055 21.3894L14.0188 20.6941L11.3262 22.5758L9.00599 20.9486C8.73583 20.7597 8.51524 20.5084 8.36292 20.2161C8.21061 19.9237 8.13108 19.5989 8.13108 19.2693C8.13108 18.9396 8.21061 18.6149 8.36292 18.3225C8.51524 18.0302 8.73583 17.7789 9.00599 17.59L10.2862 16.6964L20.6603 23.9739L23.6428 21.8775C24.062 21.5833 24.4042 21.1925 24.6404 20.7381C24.8767 20.2838 25 19.7792 25 19.267C25 18.7549 24.8767 18.2503 24.6404 17.796C24.4042 17.3416 24.062 16.9508 23.6428 16.6566L22.7072 16.0004ZM21.7115 16.6987L22.9858 17.5922C23.2559 17.7811 23.4765 18.0324 23.6288 18.3248C23.7811 18.6171 23.8607 18.9419 23.8607 19.2715C23.8607 19.6012 23.7811 19.926 23.6288 20.2183C23.4765 20.5107 23.2559 20.762 22.9858 20.9509L20.6625 22.5758L11.2841 16.0004L15.013 13.3978L14.0218 12.701L13.7463 12.8933L13.7387 12.882L10.2847 15.2998L9.0135 14.4085C8.74334 14.2196 8.52274 13.9683 8.37043 13.676C8.21812 13.3836 8.13859 13.0588 8.13859 12.7292C8.13859 12.3995 8.21812 12.0748 8.37043 11.7824C8.52274 11.4901 8.74334 11.2388 9.0135 11.0499L11.3359 9.42497L20.7159 16.0004L16.981 18.6066L17.9684 19.302L20.7542 17.3557L20.7617 17.3647L21.7115 16.6987Z" fill="white"/>
</svg>
