<svg width="32" height="32" viewBox="0 0 32 32" fill="none" xmlns="http://www.w3.org/2000/svg">
<circle cx="16" cy="16" r="16" fill="#307DFB"/>
<path d="M16.0458 7C18.7656 10.7593 21.4602 14.5384 24.18 18.3022C21.4638 20.5282 18.7557 22.7608 16.0557 25C13.3053 22.7689 10.5657 20.5279 7.81982 18.3022C10.5702 14.5432 13.3122 10.7758 16.0458 7ZM11.2173 17.8639C12.4143 18.8314 13.6014 19.8151 14.8029 20.7718C14.8083 18.1618 14.8128 15.541 14.7975 12.9283C13.6212 14.5843 12.4035 16.2142 11.2173 17.8639ZM17.2941 12.9688C17.2893 15.5662 17.2893 18.1639 17.2941 20.7619C18.4551 19.7791 19.6341 18.8314 20.8041 17.854C19.6314 16.2295 18.4551 14.6041 17.2932 12.9697L17.2941 12.9688Z" fill="white"/>
</svg>
