<svg width="32" height="32" viewBox="0 0 32 32" fill="none" xmlns="http://www.w3.org/2000/svg">
<circle cx="16" cy="16" r="16" fill="#F4553B"/>
<path d="M15.8318 7.04453V7.04633L8.43813 11.2129C8.38744 11.2407 8.34516 11.2816 8.3157 11.3313C8.28624 11.381 8.2707 11.4377 8.2707 11.4955C8.2707 11.5533 8.28624 11.61 8.3157 11.6597C8.34516 11.7094 8.38744 11.7503 8.43813 11.7781L14.8779 15.3939C15.1002 15.1411 15.4053 14.971 15.7418 14.9116V12.9336C15.0489 12.813 14.5233 12.2244 14.5233 11.5153C14.5233 10.7189 15.1857 10.0727 16.0037 10.0727C16.8217 10.0727 17.4841 10.7189 17.4841 11.5153C17.4841 12.2289 16.9531 12.8202 16.2548 12.9354V14.9089C16.595 14.9665 16.9054 15.1375 17.1304 15.3948L23.5693 11.7646C23.6197 11.7366 23.6617 11.6956 23.6909 11.6459C23.7202 11.5962 23.7357 11.5397 23.7358 11.482C23.7356 11.4243 23.72 11.3676 23.6905 11.3179C23.6611 11.2683 23.6189 11.2273 23.5684 11.1994L16.1666 7.04363C16.1154 7.01502 16.0578 7 15.9992 7C15.9406 7 15.883 7.01592 15.8318 7.04453ZM23.5909 12.2802L17.3743 15.7845C17.5138 16.113 17.5219 16.481 17.3977 16.8149L19.1525 17.7985C19.3865 17.4655 19.7527 17.2451 20.1613 17.1893C20.9712 17.0777 21.72 17.6275 21.8343 18.4158C21.9485 19.2042 21.3843 19.9349 20.5744 20.0465C19.7644 20.1572 19.0157 19.6082 18.9023 18.819C18.8749 18.6303 18.8863 18.438 18.9356 18.2539L17.1448 17.2505C16.9198 17.515 16.6048 17.6914 16.2566 17.7499L16.2629 24.673C16.2629 24.9249 16.5419 25.0815 16.7641 24.9555L23.9319 20.9149C23.9825 20.887 24.0247 20.8461 24.0541 20.7964C24.0835 20.7467 24.0991 20.6901 24.0993 20.6323L24.0921 12.5628C24.0919 12.505 24.0761 12.4483 24.0465 12.3986C24.0169 12.3489 23.9746 12.308 23.9239 12.2802C23.8729 12.2516 23.8154 12.2366 23.7569 12.2366C23.6985 12.2366 23.6419 12.2516 23.5909 12.2802ZM7.90808 12.5628L7.90088 20.6314C7.90088 20.7484 7.96387 20.8564 8.06826 20.914L15.237 24.9546C15.4593 25.0806 15.7391 24.924 15.7391 24.673L15.7445 17.7481C15.4023 17.6896 15.0913 17.5132 14.8653 17.2496L13.0745 18.253C13.1249 18.4374 13.1357 18.6309 13.1087 18.819C12.9944 19.6073 12.2448 20.1572 11.4357 20.0456C10.6267 19.934 10.0625 19.2042 10.1759 18.4158C10.2911 17.6275 11.0398 17.0777 11.8497 17.1893C12.2583 17.2451 12.6236 17.4664 12.8585 17.7985L14.6124 16.8158C14.4883 16.4828 14.4955 16.1166 14.6331 15.789L8.41023 12.2811C8.3593 12.2518 8.30161 12.2363 8.24285 12.2361C8.15517 12.2352 8.07069 12.269 8.00793 12.3303C7.94517 12.3915 7.90926 12.4751 7.90808 12.5628Z" fill="white"/>
</svg>
