<?xml version="1.0" encoding="utf-8"?>
<!-- Generator: Adobe Illustrator 21.1.0, SVG Export Plug-In . SVG Version: 6.00 Build 0)  -->
<svg version="1.1" id="Слой_1" xmlns="http://www.w3.org/2000/svg" xmlns:xlink="http://www.w3.org/1999/xlink" x="0px" y="0px"
	 viewBox="0 0 36 36" style="enable-background:new 0 0 36 36;" xml:space="preserve">
<style type="text/css">
	.st0{fill:#FFFFFF;}
</style>
<g>
	<g>
		<path class="st0" d="M28.8,11.8L18.5,5.9v11.8l10.3,5.9V11.8z M22.9,17.5c-0.3,0.6-1.3,0.6-2.1,0.1c-0.8-0.5-1.3-1.3-0.9-1.9
			c0.3-0.6,1.3-0.6,2.1-0.1C22.8,16.1,23.2,17,22.9,17.5z M27.8,14.1c-0.3,0.6-1.3,0.6-2.1,0.1s-1.3-1.3-0.9-1.9s1.3-0.6,2.1-0.1
			C27.7,12.7,28.1,13.5,27.8,14.1z"/>
	</g>
	<g>
		<path class="st0" d="M17.5,5.9L7.2,11.8v11.8l10.3-5.9V5.9z M10.2,21.3c-0.8,0.5-1.8,0.4-2.1-0.1c-0.3-0.6,0.1-1.4,0.9-1.9
			c0.8-0.5,1.8-0.4,2.1,0.1S11,20.8,10.2,21.3z M13,15.8c-0.8,0.5-1.8,0.4-2.1-0.1s0.1-1.4,0.9-1.9c0.8-0.5,1.8-0.4,2.1,0.1
			C14.2,14.4,13.8,15.3,13,15.8z M16,10.2c-0.8,0.5-1.8,0.4-2.1-0.1s0.1-1.4,0.9-1.9c0.8-0.5,1.8-0.4,2.1,0.1S16.8,9.7,16,10.2z"/>
	</g>
	<g>
		<path class="st0" d="M7.7,24.5L18,30.4l10.3-5.9L18,18.6L7.7,24.5z M19.8,24.7c0,0.7-0.8,1.2-1.8,1.2s-1.8-0.5-1.8-1.2
			s0.8-1.2,1.8-1.2S19.8,24,19.8,24.7z"/>
	</g>
	<g>
		<path class="st0" d="M18,0C8.1,0,0,8.1,0,18c0,9.9,8.1,18,18,18s18-8.1,18-18C36,8.1,27.9,0,18,0z M29.8,24.8L18,31.6L6.2,24.8
			V11.2L18,4.4l11.8,6.8V24.8z"/>
	</g>
</g>
</svg>
