<?xml version="1.0" encoding="utf-8"?>
<!-- Generator: Adobe Illustrator 21.1.0, SVG Export Plug-In . SVG Version: 6.00 Build 0)  -->
<svg version="1.1" id="Слой_1" xmlns="http://www.w3.org/2000/svg" xmlns:xlink="http://www.w3.org/1999/xlink" x="0px" y="0px"
	 viewBox="0 0 36 36" style="enable-background:new 0 0 36 36;" xml:space="preserve">
<style type="text/css">
	.st0{fill:#FFFFFF;}
</style>
<g>
	<g>
		<path class="st0" d="M19.1,5.5l4.5,5.6l-5.3,4.1l2.2,2.9l5.7-4l0.2,0.6c0.4,1,0.6,2.1,0.6,3.1c0,4.1-2.9,7.7-6.8,8.7l2.4,3
			c4.8-1.9,8-6.5,8-11.7C30.5,11.5,25.5,6.1,19.1,5.5z"/>
	</g>
	<g>
		<path class="st0" d="M18,0C8.1,0,0,8.1,0,18c0,9.9,8.1,18,18,18s18-8.1,18-18C36,8.1,27.9,0,18,0z M18,31.5
			c-7.4,0-13.5-6.1-13.5-13.5c0-5.8,3.7-10.9,9.2-12.8L14,5.1l4,4.9l-0.9,0.1c-4,0.5-7,3.9-7,7.9c0,0.6,0.1,1.1,0.2,1.7l5.4-3.8
			l3.4,4.5l-5.3,4.1l5.5,7L18,31.5z M22.5,30.7l-0.3,0.1L18.2,26l0.9-0.1c3.9-0.5,6.8-3.9,6.8-7.8c0-0.7-0.1-1.5-0.3-2.2l-5.4,3.8
			l-3.4-4.5l5.3-4.1L17,4.5h1c7.4,0,13.5,6.1,13.5,13.5C31.5,23.7,27.9,28.8,22.5,30.7z"/>
	</g>
</g>
</svg>
