<?xml version="1.0" encoding="utf-8"?>
<!-- Generator: Adobe Illustrator 21.1.0, SVG Export Plug-In . SVG Version: 6.00 Build 0)  -->
<svg version="1.1" id="Слой_1" xmlns="http://www.w3.org/2000/svg" xmlns:xlink="http://www.w3.org/1999/xlink" x="0px" y="0px"
	 viewBox="0 0 36 36" style="enable-background:new 0 0 36 36;" xml:space="preserve">
<style type="text/css">
	.st0{fill:#FFFFFF;}
</style>
<g>
	<g>
		<ellipse class="st0" cx="18" cy="11.6" rx="3.9" ry="4"/>
	</g>
	<g>
		<ellipse class="st0" cx="18" cy="25.5" rx="3.9" ry="4"/>
	</g>
	<g>
		<path class="st0" d="M18,0C8.1,0,0,8.1,0,18c0,9.9,8.1,18,18,18s18-8.1,18-18C36,8.1,27.9,0,18,0z M23,11.6c0,2.7-2,4.8-4.5,5.1
			v3.6c2.5,0.3,4.5,2.5,4.5,5.1c0,2.9-2.3,5.2-5.1,5.2s-5.1-2.3-5.1-5.2c0-2.7,2-4.8,4.5-5.1v-3.6c-2.5-0.3-4.5-2.5-4.5-5.1
			c0-2.9,2.3-5.2,5.1-5.2c1.2,0,2.2,0.4,3.1,1.1l2.9-2.9l0.8,0.8l-2.9,2.9C22.6,9.3,23,10.4,23,11.6z"/>
	</g>
</g>
</svg>
