<?xml version="1.0" encoding="utf-8"?>
<!-- Generator: Adobe Illustrator 21.1.0, SVG Export Plug-In . SVG Version: 6.00 Build 0)  -->
<svg version="1.1" id="Слой_1" xmlns="http://www.w3.org/2000/svg" xmlns:xlink="http://www.w3.org/1999/xlink" x="0px" y="0px"
	 viewBox="0 0 36 36" style="enable-background:new 0 0 36 36;" xml:space="preserve">
<style type="text/css">
	.st0{fill:#FFFFFF;}
</style>
<g>
	<path class="st0" d="M18,0C8.1,0,0,8.1,0,18c0,9.9,8.1,18,18,18s18-8.1,18-18C36,8.1,27.9,0,18,0z M25,28.2l-5.7-5.8l1.4-1.4
		l4.3,4.4l5.7-5.7L25,14l-5.6,5.7L11,28.2l-8.5-8.5l8.5-8.5l5.7,5.8l-1.4,1.4L11,14l-5.7,5.7l5.7,5.7l7-7.1l7-7.1l8.5,8.5L25,28.2z"
		/>
</g>
</svg>
