<?xml version="1.0" encoding="utf-8"?>
<!-- Generator: Adobe Illustrator 21.1.0, SVG Export Plug-In . SVG Version: 6.00 Build 0)  -->
<svg version="1.1" id="Слой_1" xmlns="http://www.w3.org/2000/svg" xmlns:xlink="http://www.w3.org/1999/xlink" x="0px" y="0px"
	 viewBox="0 0 36 36" style="enable-background:new 0 0 36 36;" xml:space="preserve">
<style type="text/css">
	.st0{fill:#FFFFFF;}
</style>
<g>
	<path class="st0" d="M11.5,21.2l-1.1-2c0.3-0.2,0.5-0.5,0.5-0.9h1.5c0.1,0.4,0.3,0.8,0.7,1l-0.8,1.9c-0.1,0-0.2,0-0.3,0
		C11.9,21.1,11.7,21.1,11.5,21.2z M18,23.6c0.2,0,0.4,0,0.5,0.1l2.6-4.5c-0.3-0.2-0.5-0.5-0.5-0.9H18h-2.5c-0.1,0.4-0.3,0.7-0.5,0.9
		l2.6,4.5C17.7,23.6,17.8,23.6,18,23.6z M6.4,17.4c0,0.1,0.1,0.2,0.1,0.3H8c0.1-0.7,0.7-1.3,1.5-1.3c0.2,0,0.3,0,0.5,0.1l1.1-2
		c-0.1,0-0.1-0.1-0.2-0.2L6.4,17.4z M10.9,21.6c0.1-0.1,0.1-0.1,0.2-0.2l-1.1-2c-0.2,0.1-0.3,0.1-0.5,0.1c-0.7,0-1.4-0.5-1.5-1.3
		H6.5c0,0.1-0.1,0.2-0.1,0.3L10.9,21.6z M29.6,18.6c0-0.1-0.1-0.2-0.1-0.3H28c-0.1,0.7-0.7,1.3-1.5,1.3c-0.2,0-0.3,0-0.5-0.1l-1.1,2
		c0.1,0,0.1,0.1,0.2,0.2L29.6,18.6z M12,14.9c-0.2,0-0.3,0-0.5-0.1l-1.1,2c0.3,0.2,0.5,0.5,0.5,0.9h1.5c0.1-0.4,0.3-0.8,0.7-1
		l-0.8-1.9C12.3,14.9,12.2,14.9,12,14.9z M24,21.1c0.2,0,0.3,0,0.5,0.1l1.1-2c-0.3-0.2-0.5-0.5-0.5-0.9h-1.5c-0.1,0.4-0.3,0.8-0.7,1
		l0.8,1.9C23.7,21.1,23.8,21.1,24,21.1z M19.3,11.7c-0.1,0.1-0.2,0.3-0.3,0.4l2.6,4.5c0.2-0.1,0.3-0.1,0.5-0.1c0.1,0,0.2,0,0.3,0
		l0.8-1.9c-0.4-0.3-0.7-0.7-0.7-1.3c0-0.1,0-0.2,0-0.3L19.3,11.7z M16.7,24.3c0.1-0.1,0.2-0.3,0.3-0.4l-2.6-4.5
		c-0.2,0.1-0.3,0.1-0.5,0.1c-0.1,0-0.2,0-0.3,0l-0.8,1.9c0.4,0.3,0.7,0.7,0.7,1.3c0,0.1,0,0.2,0,0.3L16.7,24.3z M12.8,14.7l0.8,1.9
		c0.1,0,0.2,0,0.3,0c0.2,0,0.3,0,0.5,0.1l2.6-4.5c-0.1-0.1-0.2-0.2-0.3-0.4l-3.2,1.4c0,0.1,0,0.2,0,0.3
		C13.5,13.9,13.3,14.4,12.8,14.7z M24,11.9c0.4,0,0.8,0.2,1.1,0.5l2.1-1.4c-0.1-0.2-0.1-0.4-0.1-0.6c0-0.2,0.1-0.5,0.2-0.7l-4.1-3
		c-0.1,0.1-0.3,0.2-0.4,0.3l1.2,4.9C23.9,11.9,23.9,11.9,24,11.9z M18,12.4c-0.2,0-0.3,0-0.5-0.1l-2.6,4.5c0.3,0.2,0.5,0.5,0.5,0.9
		H18h2.5c0.1-0.4,0.3-0.7,0.5-0.9l-2.6-4.5C18.3,12.4,18.2,12.4,18,12.4z M25.1,14.4c-0.1,0.1-0.1,0.1-0.2,0.2l1.1,2
		c0.2-0.1,0.3-0.1,0.5-0.1c0.7,0,1.4,0.5,1.5,1.3h1.5c0-0.1,0.1-0.2,0.1-0.3L25.1,14.4z M23.5,17.8H25c0.1-0.4,0.3-0.7,0.5-0.9
		l-1.1-2c-0.2,0.1-0.3,0.1-0.5,0.1c-0.1,0-0.2,0-0.3,0l-0.8,1.9C23.2,17,23.4,17.3,23.5,17.8z M23.2,21.3l-0.8-1.9
		c-0.1,0-0.2,0-0.3,0c-0.2,0-0.3,0-0.5-0.1l-2.6,4.5c0.1,0.1,0.2,0.2,0.3,0.4l3.2-1.4c0-0.1,0-0.2,0-0.3
		C22.5,22.1,22.7,21.6,23.2,21.3z M27.2,25L25,23.6c-0.3,0.3-0.7,0.5-1.1,0.5c0,0-0.1,0-0.1,0L22.6,29c0.2,0.1,0.3,0.2,0.4,0.3
		l4.1-3c-0.1-0.2-0.2-0.4-0.2-0.7C27,25.4,27.1,25.2,27.2,25z M16.5,25.1c0-0.1,0-0.2,0-0.3l-3.2-1.4c-0.2,0.3-0.4,0.5-0.7,0.6
		l1.2,4.9c0,0,0.1,0,0.1,0c0.3,0,0.5,0.1,0.7,0.2l2.2-2.9C16.7,25.8,16.5,25.5,16.5,25.1z M18,26.6c-0.3,0-0.5-0.1-0.7-0.2l-2.2,2.9
		c0.2,0.2,0.3,0.5,0.4,0.8h5.1c0-0.3,0.2-0.6,0.4-0.8l-2.2-2.9C18.5,26.5,18.3,26.6,18,26.6z M22.7,23.4l-3.2,1.4c0,0.1,0,0.2,0,0.3
		c0,0.4-0.2,0.8-0.4,1l2.2,2.9c0.2-0.1,0.4-0.2,0.7-0.2c0,0,0.1,0,0.1,0l1.2-4.9C23.1,23.8,22.9,23.6,22.7,23.4z M36,18
		c0,9.9-8.1,18-18,18C8.1,36,0,27.9,0,18C0,8.1,8.1,0,18,0C27.9,0,36,8.1,36,18z M32.5,18c0-0.8-0.7-1.5-1.5-1.5c-0.1,0-0.1,0-0.2,0
		l-1.6-4.8c0.5-0.3,0.8-0.7,0.8-1.3c0-0.8-0.7-1.5-1.5-1.5c-0.4,0-0.8,0.2-1,0.4l-4.1-3c0.1-0.2,0.2-0.4,0.2-0.7
		c0-0.8-0.7-1.5-1.5-1.5c-0.7,0-1.4,0.5-1.5,1.3h-5.1c-0.1-0.7-0.7-1.3-1.5-1.3c-0.8,0-1.5,0.7-1.5,1.5c0,0.2,0.1,0.5,0.2,0.7
		l-4.1,3C8.3,9,7.9,8.9,7.5,8.9C6.7,8.9,6,9.5,6,10.4c0,0.6,0.3,1.1,0.8,1.3l-1.6,4.8c-0.1,0-0.1,0-0.2,0c-0.8,0-1.5,0.7-1.5,1.5
		s0.7,1.5,1.5,1.5c0.1,0,0.1,0,0.2,0l1.6,4.8C6.3,24.6,6,25.1,6,25.6c0,0.8,0.7,1.5,1.5,1.5c0.4,0,0.8-0.2,1-0.4l4.1,3
		c-0.1,0.2-0.2,0.4-0.2,0.7c0,0.8,0.7,1.5,1.5,1.5c0.7,0,1.4-0.5,1.5-1.2h5.1c0.1,0.7,0.7,1.2,1.5,1.2c0.8,0,1.5-0.7,1.5-1.5
		c0-0.2-0.1-0.5-0.2-0.7l4.1-3c0.3,0.3,0.6,0.4,1,0.4c0.8,0,1.5-0.7,1.5-1.5c0-0.6-0.3-1.1-0.8-1.3l1.6-4.8c0.1,0,0.1,0,0.2,0
		C31.8,19.5,32.5,18.8,32.5,18z M28.5,11.9c-0.4,0-0.8-0.2-1.1-0.5l-2.1,1.4c0.1,0.2,0.1,0.4,0.1,0.6c0,0.2,0,0.4-0.1,0.6l4.6,3
		c0.1-0.1,0.3-0.2,0.4-0.3l-1.6-4.8C28.7,11.8,28.6,11.9,28.5,11.9z M25.3,22c0.1,0.2,0.1,0.4,0.1,0.6c0,0.2,0,0.4-0.1,0.6l2.1,1.4
		c0.3-0.3,0.7-0.5,1.1-0.5c0.1,0,0.1,0,0.2,0l1.6-4.8c-0.2-0.1-0.3-0.2-0.4-0.3L25.3,22z M12,24.1c-0.4,0-0.8-0.2-1.1-0.5L8.8,25
		C8.9,25.2,9,25.4,9,25.6c0,0.2-0.1,0.5-0.2,0.7l4.1,3c0.1-0.1,0.3-0.2,0.4-0.3l-1.2-4.9C12.1,24.1,12.1,24.1,12,24.1z M8.8,11
		l2.1,1.4c0.3-0.3,0.7-0.5,1.1-0.5c0,0,0.1,0,0.1,0L13.4,7c-0.2-0.1-0.3-0.2-0.4-0.3l-4.1,3C8.9,9.9,9,10.1,9,10.4
		C9,10.6,8.9,10.8,8.8,11z M13.3,12.6l3.2-1.4c0-0.1,0-0.2,0-0.3c0-0.4,0.2-0.8,0.4-1L14.7,7c-0.2,0.1-0.4,0.2-0.7,0.2
		c0,0-0.1,0-0.1,0L12.6,12C12.9,12.2,13.1,12.4,13.3,12.6z M18,9.4c0.3,0,0.5,0.1,0.7,0.2l2.2-2.9c-0.2-0.2-0.3-0.5-0.4-0.8h-5.1
		c-0.1,0.3-0.2,0.6-0.4,0.8l2.2,2.9C17.5,9.5,17.7,9.4,18,9.4z M19.5,10.9c0,0.1,0,0.2,0,0.3l3.2,1.4c0.2-0.3,0.4-0.5,0.7-0.6
		l-1.2-4.9c0,0-0.1,0-0.1,0c-0.3,0-0.5-0.1-0.7-0.2l-2.2,2.9C19.3,10.2,19.5,10.5,19.5,10.9z M10.5,22.6c0-0.2,0-0.4,0.1-0.6l-4.6-3
		c-0.1,0.1-0.3,0.2-0.4,0.3l1.6,4.8c0.1,0,0.1,0,0.2,0c0.4,0,0.8,0.2,1.1,0.5l2.1-1.4C10.6,23,10.5,22.8,10.5,22.6z M10.7,14
		c-0.1-0.2-0.1-0.4-0.1-0.6c0-0.2,0-0.4,0.1-0.6l-2.1-1.4c-0.3,0.3-0.7,0.5-1.1,0.5c-0.1,0-0.1,0-0.2,0l-1.6,4.8
		C5.8,16.8,6,16.9,6.1,17L10.7,14z"/>
</g>
</svg>
