<?xml version="1.0" encoding="utf-8"?>
<!-- Generator: Adobe Illustrator 21.1.0, SVG Export Plug-In . SVG Version: 6.00 Build 0)  -->
<svg version="1.1" id="Слой_1" xmlns="http://www.w3.org/2000/svg" xmlns:xlink="http://www.w3.org/1999/xlink" x="0px" y="0px"
	 viewBox="0 0 36 36" style="enable-background:new 0 0 36 36;" xml:space="preserve">
<style type="text/css">
	.st0{fill:#FFFFFF;}
</style>
<g>
	<g>
		<path class="st0" d="M18,0C8.1,0,0,8.1,0,18c0,9.9,8.1,18,18,18s18-8.1,18-18C36,8.1,27.9,0,18,0z M28.3,24.7l-10,6.2
			c-0.2,0.1-0.5,0.1-0.7,0l-10-6.2c-0.3-0.2-0.4-0.6-0.2-0.9L17.4,6c-0.1-0.2-0.1-0.4,0-0.6C17.6,5,18,4.9,18.3,5.1
			c0.3,0.2,0.4,0.6,0.3,0.9l10,17.9C28.7,24.1,28.6,24.5,28.3,24.7z"/>
	</g>
	<g>
		<path class="st0" d="M23.2,22.8c-0.1,0-0.8-0.4-1.2-1.3c-0.2-0.4-0.3-0.9-0.5-1.4c-0.1-0.6-0.3-1.2-0.5-1.5
			C20.6,18,20,17.2,18.7,17c0,0,0.1-0.1,0.1-0.1c0.4-0.4,0.6-0.8,0.8-1.2c1.4,0.5,2.2,1.4,2.7,2.2c0.4,0.6,0.6,1.3,0.7,2
			c0.1,0.4,0.2,0.8,0.3,1c0.2,0.4,0.5,0.6,0.6,0.6l2.4,1.1L18.8,9v5.3c0,0.3,0,1.2-0.6,1.8c-0.2,0.2-0.5,0.3-0.9,0.6
			c-0.6,0.4-1.5,0.9-2,1.5c-0.5,0.6-0.8,1.4-0.8,2.8c-0.5-0.2-1-0.4-1.5-0.5c0.1-1.4,0.4-2.4,1.2-3.3c0.6-0.7,1.6-1.3,2.3-1.8
			c0.2-0.2,0.6-0.3,0.6-0.4c0-0.1,0.1-0.4,0.1-0.6c0,0,0,0,0,0V9L9.7,22.6l1.7-0.8c0.1-0.1,0.7-0.3,1.4-0.3c0.9,0,2,0.7,2.5,1.1
			c1,0.8,1.6,1.1,2.1,1.2c0,0-0.1,0.1-0.1,0.1c-0.4,0.4-0.6,0.8-0.8,1.2c-0.6-0.3-1.3-0.7-2.1-1.3C13.7,23.3,13,23,12.7,23
			c-0.3,0-0.6,0.1-0.7,0.2c0,0,0,0,0,0l-2.5,1.1l7.7,4.8v-2.7c0-0.2,0-1.2,0.6-1.8c0.2-0.2,0.5-0.3,0.8-0.6c0.6-0.4,1.5-0.9,2-1.5
			c0.2-0.2,0.3-0.4,0.4-0.6c0,0,0,0.1,0.1,0.1c0.3,0.5,0.6,0.9,0.9,1.2c-0.1,0.1-0.2,0.2-0.3,0.3c-0.6,0.7-1.6,1.3-2.3,1.8
			c-0.2,0.2-0.6,0.3-0.6,0.4c0,0.1-0.1,0.4-0.1,0.6c0,0,0,0,0,0v2.7l7.7-4.8L23.2,22.8C23.3,22.9,23.2,22.9,23.2,22.8z"/>
	</g>
</g>
</svg>
