<?xml version="1.0" encoding="utf-8"?>
<!-- Generator: Adobe Illustrator 21.1.0, SVG Export Plug-In . SVG Version: 6.00 Build 0)  -->
<svg version="1.1" id="Слой_1" xmlns="http://www.w3.org/2000/svg" xmlns:xlink="http://www.w3.org/1999/xlink" x="0px" y="0px"
	 viewBox="0 0 36 36" style="enable-background:new 0 0 36 36;" xml:space="preserve">
<style type="text/css">
	.st0{fill:#FFFFFF;}
</style>
<g>
	<g>
		<circle class="st0" cx="18" cy="5.8" r="0.6"/>
	</g>
	<g>
		<path class="st0" d="M7.4,23.5c-0.1,0-0.2,0-0.3,0.1C7,23.7,6.9,23.8,6.8,24c0,0.2,0,0.3,0.1,0.4c0.1,0.1,0.2,0.2,0.4,0.3
			c0.2,0,0.3,0,0.4-0.1c0.1-0.1,0.2-0.2,0.3-0.4c0-0.2,0-0.3-0.1-0.4C7.8,23.6,7.6,23.5,7.4,23.5z"/>
	</g>
	<g>
		<path class="st0" d="M28.4,12.4c0.2,0,0.3,0,0.4-0.1c0.1-0.1,0.2-0.2,0.3-0.4c0-0.2,0-0.3-0.1-0.4c-0.1-0.1-0.2-0.2-0.4-0.3
			c-0.1,0-0.1,0-0.2,0c-0.1,0-0.2,0-0.3,0.1c-0.3,0.2-0.4,0.5-0.2,0.8C28.2,12.3,28.3,12.4,28.4,12.4z"/>
	</g>
	<g>
		<path class="st0" d="M7.7,11.4c-0.1-0.1-0.2-0.1-0.3-0.1c-0.1,0-0.1,0-0.2,0c-0.2,0-0.3,0.1-0.4,0.3c-0.1,0.1-0.1,0.3-0.1,0.4
			c0,0.2,0.1,0.3,0.3,0.4c0.1,0.1,0.3,0.1,0.4,0.1c0.2,0,0.3-0.1,0.4-0.3C8.1,11.9,8,11.5,7.7,11.4z"/>
	</g>
	<g>
		<path class="st0" d="M28.3,24.6c0.1,0.1,0.3,0.1,0.4,0.1c0.2,0,0.3-0.1,0.4-0.3c0.1-0.1,0.1-0.3,0.1-0.4c0-0.2-0.1-0.3-0.3-0.4
			c-0.1-0.1-0.2-0.1-0.3-0.1c-0.2,0-0.4,0.1-0.5,0.3C28,24,28,24.1,28,24.3C28.1,24.4,28.2,24.5,28.3,24.6z"/>
	</g>
	<g>
		<circle class="st0" cx="18" cy="30.2" r="0.6"/>
	</g>
	<g>
		<path class="st0" d="M18,0C8.1,0,0,8.1,0,18c0,9.9,8.1,18,18,18s18-8.1,18-18C36,8.1,27.9,0,18,0z M22.8,17c0,0.1,0,0.2,0,0.2
			c1,0.4,1.8,1.4,1.8,2.5c0,0.4-0.1,0.8-0.3,1.2l3.1,1.8c0.6-0.5,1.4-0.6,2-0.2c0.4,0.2,0.7,0.6,0.8,1.1c0.1,0.5,0.1,0.9-0.2,1.3
			c-0.2,0.4-0.6,0.7-1.1,0.8c-0.2,0-0.3,0.1-0.5,0.1c-0.3,0-0.6-0.1-0.9-0.2c-0.4-0.2-0.7-0.6-0.8-1.1c-0.1-0.3-0.1-0.5,0-0.8
			l-3.3-1.9c-0.5,0.4-1,0.6-1.7,0.6c-0.6,0-1.2-0.2-1.6-0.5c-0.5,0.3-1,0.5-1.6,0.5c0,0,0,0-0.1,0v6.1c0.7,0.2,1.2,0.9,1.2,1.7
			c0,1-0.8,1.8-1.8,1.8s-1.8-0.8-1.8-1.8c0-0.8,0.5-1.4,1.2-1.7v-6.4c-0.3-0.2-0.6-0.4-0.8-0.6c-0.5,0.2-1,0.3-1.5,0.3
			c-0.7,0-1.3-0.2-1.8-0.5l-4.2,2.4c0,0.3,0,0.5,0,0.8C9,25,8.7,25.4,8.3,25.6c-0.3,0.2-0.6,0.2-0.9,0.2c-0.2,0-0.3,0-0.5-0.1
			c-0.5-0.1-0.8-0.4-1.1-0.8c-0.2-0.4-0.3-0.9-0.2-1.3c0.1-0.5,0.4-0.8,0.8-1.1c0.7-0.4,1.5-0.3,2,0.2l3.9-2.2
			c-0.5-0.6-0.7-1.3-0.7-2.1c0-1.1,0.5-2,1.3-2.7l-4.4-2.6c-0.2,0.2-0.4,0.3-0.7,0.4c-0.2,0-0.3,0.1-0.5,0.1c-0.3,0-0.6-0.1-0.9-0.2
			c-0.4-0.2-0.7-0.6-0.8-1.1S5.6,11.4,5.9,11c0.2-0.4,0.6-0.7,1.1-0.8c0.5-0.1,0.9-0.1,1.3,0.2c0.7,0.4,1,1.1,0.8,1.8l5.1,2.9
			c0.3-0.1,0.6-0.1,0.9-0.1c0.1,0,0.3,0,0.4,0c0.4-0.7,1.1-1.3,1.8-1.6v-6c-0.7-0.2-1.2-0.9-1.2-1.7C16.2,4.8,17,4,18,4
			s1.8,0.8,1.8,1.8c0,0.8-0.5,1.4-1.2,1.7v5.7c0.1,0,0.2,0,0.4,0c1.4,0,2.6,0.7,3.3,1.8l4.6-2.7c-0.1-0.7,0.2-1.5,0.8-1.8
			c0.4-0.2,0.9-0.3,1.3-0.2c0.5,0.1,0.8,0.4,1.1,0.8c0.2,0.4,0.3,0.9,0.2,1.3s-0.4,0.8-0.8,1.1c-0.3,0.2-0.6,0.2-0.9,0.2
			c-0.2,0-0.3,0-0.5-0.1c-0.3-0.1-0.5-0.2-0.7-0.4L22.7,16C22.8,16.3,22.8,16.6,22.8,17z"/>
	</g>
	<g>
		<path class="st0" d="M21.5,18.2l0.1-0.6c0-0.2,0.1-0.4,0.1-0.6c0-0.1,0-0.3,0-0.4c-0.1-0.4-0.2-0.8-0.4-1.1
			c-0.5-0.7-1.3-1.2-2.3-1.2c-0.1,0-0.2,0-0.4,0c-0.4,0.1-0.8,0.2-1.2,0.5c-0.4,0.3-0.8,0.7-1,1.2l-0.2,0.4l0,0.1l-0.5-0.1
			c-0.2-0.1-0.4-0.1-0.6-0.1c-0.4,0-0.7,0.1-1,0.3c-0.7,0.4-1.2,1.1-1.2,2c0,0.6,0.2,1.1,0.6,1.5c0.3,0.3,0.7,0.6,1.1,0.7
			c0.2,0,0.4,0.1,0.6,0.1c0.5,0,0.9-0.1,1.3-0.4l0.5-0.4l0.3,0.6c0,0.1,0.1,0.1,0.1,0.2c0.3,0.4,0.7,0.6,1.2,0.6c0,0,0,0,0.1,0
			c0.4,0,0.9-0.2,1.2-0.5l0.4-0.5l0.4,0.5c0.3,0.3,0.7,0.5,1.2,0.5c0.2,0,0.4,0,0.5-0.1c0.4-0.1,0.7-0.4,0.9-0.8
			c0.1-0.2,0.1-0.4,0.1-0.6c0-0.8-0.6-1.4-1.3-1.5L21.5,18.2z"/>
	</g>
</g>
</svg>
