<?xml version="1.0" encoding="utf-8"?>
<!-- Generator: Adobe Illustrator 21.1.0, SVG Export Plug-In . SVG Version: 6.00 Build 0)  -->
<svg version="1.1" id="Слой_1" xmlns="http://www.w3.org/2000/svg" xmlns:xlink="http://www.w3.org/1999/xlink" x="0px" y="0px"
	 viewBox="0 0 36 36" style="enable-background:new 0 0 36 36;" xml:space="preserve">
<style type="text/css">
	.st0{fill:#FFFFFF;}
</style>
<g>
	<path class="st0" d="M18,0C8.1,0,0,8.1,0,18c0,9.9,8.1,18,18,18s18-8.1,18-18C36,8.1,27.9,0,18,0z M18,6c2.2,0,4.3,0.6,6.1,1.7
		l-4.1,2.8l-3.3,2.3l-2-1.9c-1.3,0.6-2.4,1.5-3.1,2.6l-2.8-3.4C11.1,7.6,14.3,6,18,6z M6,18c0-2.2,0.6-4.3,1.7-6.1l2.8,4.1l2.3,3.3
		l-1.9,2c0.6,1.3,1.5,2.4,2.6,3.1l-3.4,2.8C7.6,24.9,6,21.7,6,18z M18,30c-2.2,0-4.3-0.6-6.1-1.7l4.1-2.8l3.3-2.3l2,1.9
		c1.3-0.6,2.4-1.5,3.1-2.6l2.8,3.4C24.9,28.4,21.7,30,18,30z M28.3,24.1l-2.8-4.1l-2.3-3.3l1.9-2c-0.6-1.3-1.5-2.4-2.6-3.1l3.4-2.8
		c2.6,2.2,4.2,5.5,4.2,9.1C30,20.2,29.4,22.3,28.3,24.1z"/>
</g>
</svg>
