<svg xmlns="http://www.w3.org/2000/svg" xmlns:xlink="http://www.w3.org/1999/xlink" viewBox="7373 2192 94 94"><defs><style>.a,.b{fill:#fff;}.a{opacity:0;}.c{filter:url(#a);}</style><filter id="a" x="7373" y="2192" width="94" height="94" filterUnits="userSpaceOnUse"><feOffset dy="5" input="SourceAlpha"/><feGaussianBlur stdDeviation="5" result="b"/><feFlood flood-opacity="0.129"/><feComposite operator="in" in2="b"/><feComposite in="SourceGraphic"/></filter></defs><g transform="translate(6812 -4874)"><g class="c" transform="matrix(1, 0, 0, 1, -6812, 4874)"><rect class="a" width="64" height="64" rx="32" transform="translate(7388 2202)"/></g><path class="b" d="M0,31.464a.582.582,0,0,1,.447-.439.959.959,0,0,1,.586.173Q6,33.685,10.971,36.168a.741.741,0,0,1,.328.3c1.169,1.817,2.345,3.628,3.511,5.446.771-1.132,1.5-2.3,2.251-3.44q2.311-3.556,4.622-7.112a.675.675,0,0,1,.38-.328.964.964,0,0,1,.674.18Q27.7,33.7,32.664,36.183a.575.575,0,0,1,.336.46v22.9a.565.565,0,0,1-.442.461,1.053,1.053,0,0,1-.637-.2Q21.627,54.665,11.332,49.52c0,3.327.006,6.655,0,9.983a.542.542,0,0,1-.816.438Q5.42,57.4.329,54.849A.576.576,0,0,1,0,54.393V38.932a.545.545,0,0,1,.579-.5.546.546,0,0,1,.489.579q.006,7.5,0,15.009,4.6,2.3,9.193,4.6,0-10.8,0-21.609-4.6-2.3-9.193-4.6c-.006,1.421.007,2.842-.006,4.263a.534.534,0,0,1-.613.525A.554.554,0,0,1,0,36.714V31.464m22.388.777q-3.464,5.338-6.933,10.673,3.364,5.206,6.722,10.415,3.343-5.75,6.681-11.5c.115-.2.218-.437.452-.515a.535.535,0,0,1,.7.409.976.976,0,0,1-.222.639q-3.418,5.885-6.835,11.771,4.491,2.244,8.98,4.489,0-9.963,0-19.926c-.364.553-.66,1.148-1.016,1.705a.532.532,0,0,1-.806.079.551.551,0,0,1-.064-.69c.555-.963,1.118-1.922,1.672-2.886q-4.665-2.329-9.328-4.661M11.333,38.5c-.007,3.268.006,6.536-.007,9.8,1.274.667,2.573,1.29,3.856,1.941Q17.937,51.623,20.691,53,16.012,45.75,11.333,38.5Z" transform="translate(592 7061.983)"/></g></svg>