<svg xmlns="http://www.w3.org/2000/svg" xmlns:xlink="http://www.w3.org/1999/xlink" viewBox="224 7066 94 94"><defs><style>.a,.b{fill:#fff;}.a{opacity:0;}.c{filter:url(#a);}</style><filter id="a" x="224" y="7066" width="94" height="94" filterUnits="userSpaceOnUse"><feOffset dy="5" input="SourceAlpha"/><feGaussianBlur stdDeviation="5" result="b"/><feFlood flood-opacity="0.129"/><feComposite operator="in" in2="b"/><feComposite in="SourceGraphic"/></filter></defs><g transform="translate(-187)"><g class="c" transform="matrix(1, 0, 0, 1, 187, 0)"><rect class="a" width="64" height="64" rx="32" transform="translate(239 7076)"/></g><g transform="translate(442.074 7095.074)"><path class="b" d="M19.31,4a3.786,3.786,0,0,0-3.792,3.792v3.5A17.054,17.054,0,0,0,7.967,13.4a4.153,4.153,0,0,0-2.917-1.1A4.047,4.047,0,0,0,1.972,13.56v.032l-.032.032a4.464,4.464,0,0,0-.875,3.5,4.609,4.609,0,0,0,2.042,3.111c-.008.117-.032.235-.032.356,0,2.7,1.633,5.068,4.083,6.708a17.009,17.009,0,0,0,9.4,2.625,17.009,17.009,0,0,0,9.4-2.625c2.451-1.641,4.083-4.006,4.083-6.708,0-.122-.024-.239-.032-.356a4.609,4.609,0,0,0,2.042-3.111,4.465,4.465,0,0,0-.875-3.5l-.032-.032a4.077,4.077,0,0,0-3.079-1.3,4.153,4.153,0,0,0-2.917,1.1,17.054,17.054,0,0,0-7.551-2.106v-3.5A1.576,1.576,0,0,1,19.31,6.074a8.011,8.011,0,0,1,2.236.616,12.669,12.669,0,0,0,3.468.745,2.582,2.582,0,1,0,.162-2.074,10.2,10.2,0,0,1-2.949-.616A8.385,8.385,0,0,0,19.31,4Zm-2.755,9.333A15.008,15.008,0,0,1,24.787,15.6c2.046,1.369,3.176,3.127,3.176,4.991s-1.13,3.622-3.176,4.991a15.008,15.008,0,0,1-8.231,2.269,15.008,15.008,0,0,1-8.231-2.269c-2.046-1.369-3.176-3.127-3.176-4.991s1.13-3.622,3.176-4.991A15.008,15.008,0,0,1,16.555,13.333ZM5.051,14.37a2.481,2.481,0,0,1,1.1.259,8.919,8.919,0,0,0-2.528,3.306A2.443,2.443,0,0,1,3.139,16.8a2.506,2.506,0,0,1,.421-1.847c0-.008,0-.024,0-.032A2.092,2.092,0,0,1,5.051,14.37Zm23.009,0a2.092,2.092,0,0,1,1.491.551s0,.028,0,.032a2.506,2.506,0,0,1,.421,1.847,2.443,2.443,0,0,1-.486,1.134,8.921,8.921,0,0,0-2.528-3.306A2.48,2.48,0,0,1,28.06,14.37ZM11.37,16.444a2.074,2.074,0,1,0,2.074,2.074A2.073,2.073,0,0,0,11.37,16.444Zm10.37,0a2.074,2.074,0,1,0,2.074,2.074A2.073,2.073,0,0,0,21.74,16.444ZM22,22.181A8.133,8.133,0,0,1,16.555,24a8.9,8.9,0,0,1-5.444-1.685,5.83,5.83,0,0,0,5.444,3.468A5.726,5.726,0,0,0,22,22.181Z" transform="translate(-1.004 -4)"/></g></g></svg>