<svg xmlns="http://www.w3.org/2000/svg" xmlns:xlink="http://www.w3.org/1999/xlink" viewBox="674 7066 94 94"><defs><style>.a,.b{fill:#fff;}.a{opacity:0;}.c{filter:url(#a);}</style><filter id="a" x="674" y="7066" width="94" height="94" filterUnits="userSpaceOnUse"><feOffset dy="5" input="SourceAlpha"/><feGaussianBlur stdDeviation="5" result="b"/><feFlood flood-opacity="0.129"/><feComposite operator="in" in2="b"/><feComposite in="SourceGraphic"/></filter></defs><g transform="translate(-187)"><g class="c" transform="matrix(1, 0, 0, 1, 187, 0)"><rect class="a" width="64" height="64" rx="32" transform="translate(689 7076)"/></g><g transform="translate(894.48 7096.111)"><path class="b" d="M25.047,4a2.848,2.848,0,0,0-.894.213h0c-.273.108-1.571.655-3.542,1.481L13.538,8.667C8.467,10.8,3.481,12.905,3.481,12.905l.06-.023a3.07,3.07,0,0,0-.7.359,1.943,1.943,0,0,0-.561.542,1.594,1.594,0,0,0-.266,1.062,1.927,1.927,0,0,0,.856,1.335,2.844,2.844,0,0,0,.636.34h.007L8.186,18.1c.209.673,1.425,4.668,1.717,5.588a3.427,3.427,0,0,0,.55,1.156,1.353,1.353,0,0,0,.363.337,1.073,1.073,0,0,0,.176.082.161.161,0,0,0,.06.019L11,25.266a.34.34,0,0,1,.037.019.743.743,0,0,0,.112.022,1.584,1.584,0,0,0,1.335-.236l.034-.026,2.76-2.513,4.627,3.549.1.045A2.457,2.457,0,0,0,22.47,25.9a2.5,2.5,0,0,0,.722-.954l.034-.086L26.8,6.543a2.632,2.632,0,0,0,.015-1.287,1.73,1.73,0,0,0-.748-1A1.792,1.792,0,0,0,25.047,4Zm-.1,1.964a.56.56,0,0,1-.019.168v.011L21.389,24.264a.407.407,0,0,1-.112.138c-.075.06-.135.1-.445-.026l-5.659-4.339-3.418,3.116.718-4.585L21.718,9.95c.381-.355.254-.43.254-.43.026-.434-.576-.127-.576-.127L9.738,16.615l0-.019L4.147,14.715v0l-.015,0a.258.258,0,0,0,.03-.011l.03-.015.03-.011,10.061-4.237c2.54-1.07,5.1-2.147,7.065-2.977s3.422-1.432,3.5-1.466S24.893,5.96,24.95,5.96Z" transform="translate(-2 -3.994)"/></g></g></svg>