<svg xmlns="http://www.w3.org/2000/svg" viewBox="7203 -1832 24 16.201"><defs><style>.a,.b{fill:#fff;}.a{opacity:0.53;}</style></defs><g transform="translate(7202 -1832.1)"><path class="a" d="M-7196.9,1848.3a5.1,5.1,0,0,1-5.1-5.1v-9.6a1.485,1.485,0,0,1,1.5-1.5h12.6a1.485,1.485,0,0,1,1.5,1.5,1.485,1.485,0,0,1-1.5,1.5H-7199v2.4h13.5a2.126,2.126,0,0,1,2.1,2.1,2.127,2.127,0,0,1-2.1,2.1,2.138,2.138,0,0,1-1.92-1.2H-7199v2.7a2.125,2.125,0,0,0,2.1,2.1h6a1.485,1.485,0,0,1,1.5,1.5,1.485,1.485,0,0,1-1.5,1.5Z" transform="translate(7203 -1832)"/><g transform="translate(15.4 0.1)"><path class="b" d="M29.5,16.3h-3a1.5,1.5,0,0,1,0-3h3a2.126,2.126,0,0,0,2.1-2.1V3.1H29.5A1.485,1.485,0,0,1,28,1.6,1.485,1.485,0,0,1,29.5.1h3.6a1.485,1.485,0,0,1,1.5,1.5v9.6A5.134,5.134,0,0,1,29.5,16.3Z" transform="translate(-25 -0.1)"/></g></g></svg>