<svg width="25" height="24" viewBox="0 0 25 24" fill="none" xmlns="http://www.w3.org/2000/svg">
<path d="M18.813 1.50002C17.0337 0.516163 15.0337 6.10352e-05 13.0005 6.10352e-05C10.9673 6.10352e-05 8.96733 0.516163 7.188 1.50002C5.54508 2.41917 4.13411 3.70187 3.063 5.25002C2.29081 6.39473 1.71993 7.66299 1.375 9.00002C1.11669 9.97881 0.990575 10.9878 1 12C0.993947 12.2506 1.00665 12.5013 1.038 12.75C1.11097 14.0398 1.40245 15.3078 1.9 16.5C2.46564 17.8854 3.27892 19.1561 4.3 20.25H5.35L9.1 16.5L12.85 12.75L16.6 9.00002L20.35 5.25002L21.775 3.82502C20.9189 2.89602 19.9188 2.11097 18.813 1.50002Z" fill="#F2F8F6"/>
<path d="M4.29999 20.251C3.27853 19.1574 2.46525 17.8866 1.90002 16.501C1.61927 15.8307 1.40393 15.1348 1.25702 14.423L1.78699 14.701L1.63702 13.8391L2.27399 13.202L1.37402 13.09L1.00201 12.308C1.00201 12.208 1.00201 12.102 1.00201 12.002C1.00201 11.656 1.01601 11.296 1.04401 10.936L1.789 11.327L1.63898 10.465L2.276 9.82703L1.37598 9.71405L1.26202 9.47302C1.29802 9.30602 1.33598 9.15204 1.37598 9.00204C1.71922 7.66442 2.29028 6.39588 3.06403 5.25204C3.22103 5.02804 3.39999 4.79103 3.59399 4.55203V4.58005L4.38202 4.16803L5.16901 4.58005L5.01898 3.71805L5.65601 3.08005L5.06702 3.00604C5.71643 2.42648 6.43003 1.9232 7.19397 1.50604C8.21281 0.949094 9.30535 0.539016 10.439 0.288025L10.493 0.342041L10.344 1.20505L11.132 0.792023L11.919 1.20505L11.769 0.342041L12.069 0.0420227C12.382 0.0170227 12.698 0.00402832 13.008 0.00402832C13.168 0.00402832 13.35 0.00402881 13.546 0.0170288L13.87 0.341034L13.721 1.20404L14.509 0.791046L15.296 1.20404L15.146 0.341034L15.264 0.222046C16.5086 0.464295 17.7083 0.897038 18.821 1.50504C19.9296 2.11217 20.9306 2.89768 21.784 3.83005L20.359 5.25504L16.6 9.00104L12.85 12.751L9.09998 16.501L5.34998 20.25L4.82599 20.774L4.29999 20.251ZM4.375 17.663L5.16199 18.075L5.01202 17.213L5.64899 16.576L4.74902 16.463L4.375 15.676L4 16.463L3.09998 16.576L3.737 17.213L3.58801 18.075L4.375 17.663ZM7.75 14.288L8.53699 14.7L8.38702 13.838L9.02399 13.201L8.12402 13.088L7.75 12.301L7.375 13.088L6.47498 13.201L7.112 13.838L6.96301 14.7L7.75 14.288ZM4.375 14.288L5.16199 14.7L5.01202 13.838L5.64899 13.201L4.74902 13.088L4.375 12.301L4 13.088L3.09998 13.201L3.737 13.838L3.58801 14.7L4.375 14.288ZM11.125 10.913L11.912 11.325L11.762 10.463L12.399 9.82605L11.499 9.71304L11.125 8.92603L10.75 9.71304L9.84998 9.82605L10.487 10.463L10.338 11.325L11.125 10.913ZM7.75 10.913L8.53699 11.325L8.38702 10.463L9.02399 9.82605L8.12402 9.71304L7.75 8.92603L7.375 9.71304L6.47498 9.82605L7.112 10.463L6.96301 11.325L7.75 10.913ZM4.375 10.913L5.16199 11.325L5.01202 10.463L5.64899 9.82605L4.74902 9.71304L4.375 8.92603L4 9.71304L3.09998 9.82605L3.737 10.463L3.58801 11.325L4.375 10.913ZM14.5 7.53802L15.287 7.95004L15.137 7.08804L15.774 6.45105L14.874 6.33804L14.5 5.55103L14.125 6.33804L13.225 6.45105L13.862 7.08804L13.713 7.95004L14.5 7.53802ZM11.125 7.53802L11.912 7.95004L11.762 7.08804L12.399 6.45105L11.499 6.33804L11.125 5.55103L10.75 6.33804L9.84998 6.45105L10.487 7.08804L10.338 7.95004L11.125 7.53802ZM7.75 7.53802L8.53699 7.95004L8.38702 7.08804L9.02399 6.45105L8.12402 6.33804L7.75 5.55103L7.375 6.33804L6.47498 6.45105L7.112 7.08804L6.96301 7.95004L7.75 7.53802ZM4.375 7.53802L5.16199 7.95004L5.01202 7.08804L5.64899 6.45105L4.74902 6.33804L4.375 5.55103L4 6.33804L3.09998 6.45105L3.737 7.08804L3.58801 7.95004L4.375 7.53802ZM17.875 4.16302L18.662 4.57605L18.512 3.71304L19.149 3.07605L18.249 2.96304L17.875 2.17603L17.5 2.96304L16.6 3.07605L17.237 3.71304L17.088 4.57605L17.875 4.16302ZM14.5 4.16302L15.287 4.57504L15.137 3.71304L15.774 3.07605L14.874 2.96304L14.5 2.17603L14.125 2.96304L13.225 3.07605L13.862 3.71304L13.713 4.57504L14.5 4.16302ZM11.125 4.16302L11.912 4.57504L11.762 3.71304L12.399 3.07605L11.499 2.96304L11.125 2.17603L10.75 2.96304L9.84998 3.07605L10.487 3.71304L10.338 4.57504L11.125 4.16302ZM7.75 4.16302L8.53699 4.57504L8.38702 3.71304L9.02399 3.07605L8.12402 2.96304L7.75 2.17603L7.375 2.96304L6.47498 3.07605L7.112 3.71304L6.96301 4.57504L7.75 4.16302Z" fill="#003DC6"/>
<path d="M12.85 12.75H24.963C24.963 12.487 25 12.263 25 12C24.9908 10.9889 24.865 9.98225 24.625 9H16.6L12.85 12.75Z" fill="#081E39" fill-opacity="0.05"/>
<path d="M9.09998 16.5H24.137C24.6174 15.3023 24.9085 14.0372 25 12.75H12.85L9.09998 16.5Z" fill="#E53935"/>
<path d="M21.775 3.82501L20.35 5.25001H22.938C22.5803 4.75129 22.1919 4.27536 21.775 3.82501Z" fill="#081E39" fill-opacity="0.05"/>
<path d="M24.625 9C24.2804 7.66303 23.7098 6.39478 22.938 5.25H20.35L16.6 9H24.625Z" fill="#E53935"/>
<path d="M5.34998 20.25H21.7C22.7211 19.1561 23.5343 17.8854 24.1 16.5H9.09998L5.34998 20.25Z" fill="#081E39" fill-opacity="0.05"/>
<path d="M21.7 20.25H5.35001L4.82501 20.775C7.04456 22.8444 9.96538 23.9967 13 24C14.6298 24.0047 16.2431 23.6743 17.7397 23.0292C19.2364 22.3841 20.5844 21.4381 21.7 20.25Z" fill="#E53935"/>
</svg>
