<svg width="24" height="25" viewBox="0 0 24 25" fill="none" xmlns="http://www.w3.org/2000/svg">
<path d="M12.001 0.00201416C14.3744 0.00201416 16.6944 0.705802 18.6678 2.02438C20.6412 3.34296 22.1793 5.2171 23.0875 7.40981C23.9958 9.60253 24.2334 12.0153 23.7704 14.3431C23.3074 16.6709 22.1645 18.8091 20.4863 20.4873C18.808 22.1655 16.6698 23.3084 14.3421 23.7714C12.0143 24.2345 9.60149 23.9968 7.40878 23.0886C5.21606 22.1803 3.34192 20.6422 2.02334 18.6689C0.704764 16.6955 0.000976563 14.3754 0.000976562 12.002C0.000976563 8.81942 1.26526 5.76717 3.5157 3.51673C5.76613 1.2663 8.81838 0.00201416 12.001 0.00201416V0.00201416Z" fill="#E53935"/>
<path d="M12.001 0.00201416C10.4097 0.00201416 8.88355 0.634155 7.75834 1.75937C6.63312 2.88459 6.00098 4.41072 6.00098 6.00201C6.00098 7.59331 6.63312 9.11944 7.75834 10.2447C8.88355 11.3699 10.4097 12.002 12.001 12.002C13.5923 12.002 15.1184 12.6342 16.2436 13.7594C17.3688 14.8846 18.001 16.4107 18.001 18.002C18.001 19.5933 17.3688 21.1194 16.2436 22.2447C15.1184 23.3699 13.5923 24.002 12.001 24.002C8.81838 24.002 5.76613 22.7377 3.5157 20.4873C1.26526 18.2369 0.000976563 15.1846 0.000976562 12.002C0.000976563 8.81942 1.26526 5.76717 3.5157 3.51673C5.76613 1.2663 8.81838 0.00201416 12.001 0.00201416Z" fill="#003DC6"/>
</svg>
