<svg width="24" height="24" viewBox="0 0 24 24" fill="none" xmlns="http://www.w3.org/2000/svg">
<path d="M12.014 24C14.4804 24.0036 16.8883 23.2488 18.9113 21.838C20.9344 20.4272 22.4749 18.4286 23.324 16.113H0.713989C1.56253 18.427 3.10147 20.4245 5.12256 21.8352C7.14364 23.2458 9.5493 24.0015 12.014 24Z" fill="#E53935"/>
<path d="M12.014 2.04724e-06C9.5493 -0.00149519 7.14364 0.754211 5.12256 2.16486C3.10147 3.5755 1.56253 5.57298 0.713989 7.887H23.286C22.4496 5.57058 20.9176 3.56937 18.8997 2.15747C16.8818 0.745558 14.4768 -0.00800042 12.014 2.04724e-06Z" fill="#081E39" fill-opacity="0.05"/>
<path d="M0 12C0.00166085 13.4076 0.243115 14.8045 0.714 16.131H23.286C23.7748 14.8093 24.0168 13.4091 24 12C23.9983 10.5924 23.7569 9.19546 23.286 7.869H0.714C0.243115 9.19546 0.00166085 10.5924 0 12H0Z" fill="#003DC6"/>
</svg>
