<svg width="24" height="24" viewBox="0 0 24 24" fill="none" xmlns="http://www.w3.org/2000/svg">
<path d="M23.253 7.82865C22.4019 5.53126 20.8672 3.54946 18.8553 2.14986C16.8434 0.750264 14.4509 0 11.9995 0C9.54819 0 7.15565 0.750264 5.14375 2.14986C3.13186 3.54946 1.59714 5.53126 0.746033 7.82865H23.253Z" fill="#D80027"/>
<path d="M7.73241e-06 12C-0.00161125 13.4237 0.251015 14.8363 0.746008 16.1714L12 16.1723H23.254C24.2492 13.4804 24.2492 10.5216 23.254 7.82965L12 7.82865H0.746008C0.251015 9.16368 -0.00161125 10.5763 7.73241e-06 12Z" fill="#FFDA44"/>
<path d="M0.746033 16.1713C1.59714 18.4687 3.13186 20.4505 5.14375 21.8501C7.15565 23.2497 9.54819 24 11.9995 24C14.4509 24 16.8434 23.2497 18.8553 21.8501C20.8672 20.4505 22.4019 18.4687 23.253 16.1713H0.746033Z" fill="#D80027"/>
</svg>
