<svg width="24" height="24" viewBox="0 0 24 24" fill="none" xmlns="http://www.w3.org/2000/svg">
<path d="M12 24C18.6274 24 24 18.6274 24 12C24 5.37258 18.6274 0 12 0C5.37258 0 0 5.37258 0 12C0 18.6274 5.37258 24 12 24Z" fill="#D80027"/>
<path d="M7.857 6.62199L9 10.15H12.71L9.71 12.334L10.857 15.862L7.857 13.683L4.857 15.862L6 12.335L3 10.151H6.71L7.857 6.62199Z" fill="#FFDA44"/>
<path d="M16.337 19.111L15.46 18.032L14.16 18.532L14.912 17.365L14.035 16.281L15.379 16.639L16.137 15.472L16.21 16.863L17.559 17.221L16.259 17.721L16.337 19.111Z" fill="#FFDA44"/>
<path d="M18.078 15.947L18.493 14.619L17.357 13.819L18.748 13.798L19.157 12.465L19.608 13.783L20.999 13.767L19.883 14.597L20.329 15.915L19.193 15.115L18.078 15.947Z" fill="#FFDA44"/>
<path d="M20.429 8.288L19.817 9.53901L20.817 10.509L19.442 10.309L18.83 11.554L18.591 10.184L17.211 9.98399L18.446 9.335L18.207 7.96601L19.207 8.93601L20.429 8.288Z" fill="#FFDA44"/>
<path d="M16.372 4.49999L16.272 5.885L17.564 6.40899L16.21 6.74099L16.11 8.13201L15.378 6.949L14.024 7.281L14.924 6.217L14.187 5.03899L15.479 5.56301L16.372 4.49999Z" fill="#FFDA44"/>
</svg>
