<svg width="32" height="32" viewBox="0 0 32 32" fill="none" xmlns="http://www.w3.org/2000/svg">
<circle cx="16" cy="16" r="16" fill="#FF4456"/>
<path fill-rule="evenodd" clip-rule="evenodd" d="M17.935 17.818L13.3765 12.346L7.61206 19.2625C7.21606 18.25 7 17.152 7 16C7 11.0275 11.0275 7 16 7C20.9725 7 25 11.0275 25 16C25 18.7495 23.767 21.211 21.823 22.8625H10.177C9.6685 22.426 9.205 21.9355 8.8 21.4H19.078V17.503L22.3225 21.4H23.2L19.0735 16.45L17.935 17.818ZM21.3235 12.85C21.3235 11.608 20.3155 10.6 19.0735 10.6C17.8315 10.6 16.8235 11.608 16.8235 12.85C16.8235 14.092 17.8315 15.1 19.0735 15.1C20.3155 15.1 21.3235 14.092 21.3235 12.85ZM14.5015 10.096C14.5015 9.475 13.9975 8.971 13.3765 8.971C12.7555 8.971 12.2515 9.475 12.2515 10.096C12.2515 10.717 12.7555 11.221 13.3765 11.221C13.9975 11.221 14.5015 10.717 14.5015 10.096Z" fill="white"/>
<path d="M16 25C14.1865 25 12.4945 24.46 11.0815 23.5375H20.9185C19.5055 24.46 17.8135 25 16 25Z" fill="white"/>
<path d="M13.3766 13.399L17.4986 18.3445L15.5141 20.725H8.34106C8.05756 20.2615 7.81006 19.7755 7.61206 19.2625H13.3766V13.399Z" fill="white"/>
</svg>
