<svg width="32" height="32" viewBox="0 0 32 32" fill="none" xmlns="http://www.w3.org/2000/svg">
<circle cx="16" cy="16" r="16" fill="black"/>
<path fill-rule="evenodd" clip-rule="evenodd" d="M14.398 15.6299C14.7577 15.6299 15.1027 15.487 15.357 15.2326C15.6114 14.9783 15.7543 14.6333 15.7543 14.2736C15.7543 13.9139 15.6114 13.5689 15.357 13.3145C15.1027 13.0602 14.7577 12.9173 14.398 12.9173C14.0383 12.9173 13.6933 13.0602 13.439 13.3145C13.1846 13.5689 13.0417 13.9139 13.0417 14.2736C13.0417 14.6333 13.1846 14.9783 13.439 15.2326C13.6933 15.487 14.0383 15.6299 14.398 15.6299ZM17.7262 15.6299C18.0859 15.6299 18.4309 15.487 18.6852 15.2326C18.9396 14.9783 19.0825 14.6333 19.0825 14.2736C19.0825 13.9139 18.9396 13.5689 18.6852 13.3145C18.4309 13.0602 18.0859 12.9173 17.7262 12.9173C17.3665 12.9173 17.0215 13.0602 16.7672 13.3145C16.5128 13.5689 16.3699 13.9139 16.3699 14.2736C16.3699 14.6333 16.5128 14.9783 16.7672 15.2326C17.0215 15.487 17.3665 15.6299 17.7262 15.6299ZM14.3971 18.959C14.7568 18.959 15.1018 18.8161 15.3561 18.5617C15.6105 18.3074 15.7534 17.9624 15.7534 17.6027C15.7534 17.243 15.6105 16.898 15.3561 16.6436C15.1018 16.3893 14.7568 16.2464 14.3971 16.2464C14.0374 16.2464 13.6924 16.3893 13.4381 16.6436C13.1837 16.898 13.0408 17.243 13.0408 17.6027C13.0408 17.9624 13.1837 18.3074 13.4381 18.5617C13.6924 18.8161 14.0374 18.959 14.3971 18.959ZM17.7262 18.959C18.0859 18.959 18.4309 18.8161 18.6852 18.5617C18.9396 18.3074 19.0825 17.9624 19.0825 17.6027C19.0825 17.243 18.9396 16.898 18.6852 16.6436C18.4309 16.3893 18.0859 16.2464 17.7262 16.2464C17.3665 16.2464 17.0215 16.3893 16.7672 16.6436C16.5128 16.898 16.3699 17.243 16.3699 17.6027C16.3699 17.9624 16.5128 18.3074 16.7672 18.5617C17.0215 18.8161 17.3665 18.959 17.7262 18.959ZM21.0544 15.26C21.316 15.26 21.5669 15.156 21.7519 14.9711C21.9369 14.7861 22.0408 14.5352 22.0408 14.2736C22.0408 14.012 21.9369 13.7611 21.7519 13.5761C21.5669 13.3911 21.316 13.2872 21.0544 13.2872C20.7928 13.2872 20.5419 13.3911 20.3569 13.5761C20.1719 13.7611 20.068 14.012 20.068 14.2736C20.068 14.5352 20.1719 14.7861 20.3569 14.9711C20.5419 15.156 20.7928 15.26 21.0544 15.26ZM21.0544 18.5891C21.316 18.5891 21.5669 18.4851 21.7519 18.3002C21.9369 18.1152 22.0408 17.8643 22.0408 17.6027C22.0408 17.3411 21.9369 17.0902 21.7519 16.9052C21.5669 16.7202 21.316 16.6163 21.0544 16.6163C20.7928 16.6163 20.5419 16.7202 20.3569 16.9052C20.1719 17.0902 20.068 17.3411 20.068 17.6027C20.068 17.8643 20.1719 18.1152 20.3569 18.3002C20.5419 18.4851 20.7928 18.5891 21.0544 18.5891ZM10.9456 15.26C11.2072 15.26 11.4581 15.156 11.6431 14.9711C11.8281 14.7861 11.932 14.5352 11.932 14.2736C11.932 14.012 11.8281 13.7611 11.6431 13.5761C11.4581 13.3911 11.2072 13.2872 10.9456 13.2872C10.684 13.2872 10.4331 13.3911 10.2481 13.5761C10.0631 13.7611 9.9592 14.012 9.9592 14.2736C9.9592 14.5352 10.0631 14.7861 10.2481 14.9711C10.4331 15.156 10.684 15.26 10.9456 15.26ZM10.9456 18.5891C11.2072 18.5891 11.4581 18.4851 11.6431 18.3002C11.8281 18.1152 11.932 17.8643 11.932 17.6027C11.932 17.3411 11.8281 17.0902 11.6431 16.9052C11.4581 16.7202 11.2072 16.6163 10.9456 16.6163C10.684 16.6163 10.4331 16.7202 10.2481 16.9052C10.0631 17.0902 9.9592 17.3411 9.9592 17.6027C9.9592 17.8643 10.0631 18.1152 10.2481 18.3002C10.4331 18.4851 10.684 18.5891 10.9456 18.5891ZM14.3971 21.9173C14.5291 21.9213 14.6605 21.8987 14.7836 21.8509C14.9067 21.8032 15.019 21.7312 15.1138 21.6393C15.2085 21.5473 15.2839 21.4373 15.3353 21.3157C15.3868 21.1941 15.4133 21.0634 15.4133 20.9313C15.4133 20.7993 15.3868 20.6686 15.3353 20.547C15.2839 20.4254 15.2085 20.3153 15.1138 20.2234C15.019 20.1314 14.9067 20.0594 14.7836 20.0117C14.6605 19.9639 14.5291 19.9414 14.3971 19.9454C14.1408 19.9531 13.8975 20.0604 13.7189 20.2444C13.5404 20.4285 13.4405 20.6749 13.4405 20.9313C13.4405 21.1878 13.5404 21.4341 13.7189 21.6182C13.8975 21.8022 14.1408 21.9095 14.3971 21.9173ZM17.7262 21.9173C17.8582 21.9213 17.9896 21.8987 18.1127 21.8509C18.2358 21.8032 18.3481 21.7312 18.4429 21.6393C18.5376 21.5473 18.613 21.4373 18.6644 21.3157C18.7159 21.1941 18.7424 21.0634 18.7424 20.9313C18.7424 20.7993 18.7159 20.6686 18.6644 20.547C18.613 20.4254 18.5376 20.3153 18.4429 20.2234C18.3481 20.1314 18.2358 20.0594 18.1127 20.0117C17.9896 19.9639 17.8582 19.9414 17.7262 19.9454C17.4699 19.9531 17.2266 20.0604 17.048 20.2444C16.8695 20.4285 16.7696 20.6749 16.7696 20.9313C16.7696 21.1878 16.8695 21.4341 17.048 21.6182C17.2266 21.8022 17.4699 21.9095 17.7262 21.9173ZM14.3971 11.9318C14.5291 11.9358 14.6605 11.9132 14.7836 11.8654C14.9067 11.8177 15.019 11.7457 15.1138 11.6538C15.2085 11.5618 15.2839 11.4518 15.3353 11.3302C15.3868 11.2086 15.4133 11.0779 15.4133 10.9458C15.4133 10.8138 15.3868 10.6831 15.3353 10.5615C15.2839 10.4399 15.2085 10.3298 15.1138 10.2379C15.019 10.1459 14.9067 10.0739 14.7836 10.0262C14.6605 9.97843 14.5291 9.95588 14.3971 9.95986C14.1408 9.96761 13.8975 10.0749 13.7189 10.2589C13.5404 10.443 13.4405 10.6894 13.4405 10.9458C13.4405 11.2023 13.5404 11.4486 13.7189 11.6327C13.8975 11.8167 14.1408 11.924 14.3971 11.9318ZM17.7262 11.9318C17.8582 11.9358 17.9896 11.9132 18.1127 11.8654C18.2358 11.8177 18.3481 11.7457 18.4429 11.6538C18.5376 11.5618 18.613 11.4518 18.6644 11.3302C18.7159 11.2086 18.7424 11.0779 18.7424 10.9458C18.7424 10.8138 18.7159 10.6831 18.6644 10.5615C18.613 10.4399 18.5376 10.3298 18.4429 10.2379C18.3481 10.1459 18.2358 10.0739 18.1127 10.0262C17.9896 9.97843 17.8582 9.95588 17.7262 9.95986C17.4699 9.96761 17.2266 10.0749 17.048 10.2589C16.8695 10.443 16.7696 10.6894 16.7696 10.9458C16.7696 11.2023 16.8695 11.4486 17.048 11.6327C17.2266 11.8167 17.4699 11.924 17.7262 11.9318ZM14.3971 8.23276C14.48 8.23593 14.5627 8.22234 14.6402 8.19281C14.7177 8.16328 14.7884 8.11841 14.8482 8.06089C14.9079 8.00338 14.9555 7.93439 14.9879 7.85807C15.0204 7.78175 15.0372 7.69966 15.0372 7.61671C15.0372 7.53377 15.0204 7.45168 14.9879 7.37536C14.9555 7.29904 14.9079 7.23005 14.8482 7.17253C14.7884 7.11502 14.7177 7.07015 14.6402 7.04062C14.5627 7.01108 14.48 6.9975 14.3971 7.00066C14.2336 7.00066 14.0768 7.06562 13.9612 7.18123C13.8456 7.29685 13.7806 7.45366 13.7806 7.61716C13.7806 7.78067 13.8456 7.93748 13.9612 8.0531C14.0768 8.16871 14.2336 8.23276 14.3971 8.23276ZM17.7262 8.23276C17.8091 8.23593 17.8918 8.22234 17.9693 8.19281C18.0468 8.16328 18.1175 8.11841 18.1773 8.06089C18.237 8.00338 18.2846 7.93439 18.317 7.85807C18.3495 7.78175 18.3663 7.69966 18.3663 7.61671C18.3663 7.53377 18.3495 7.45168 18.317 7.37536C18.2846 7.29904 18.237 7.23005 18.1773 7.17253C18.1175 7.11502 18.0468 7.07015 17.9693 7.04062C17.8918 7.01108 17.8091 6.9975 17.7262 7.00066C17.5627 7.00066 17.4059 7.06562 17.2903 7.18123C17.1747 7.29685 17.1097 7.45366 17.1097 7.61716C17.1097 7.78067 17.1747 7.93748 17.2903 8.0531C17.4059 8.16871 17.5627 8.23276 17.7262 8.23276ZM24.3835 14.891C24.547 14.891 24.7038 14.826 24.8194 14.7104C24.935 14.5948 25 14.438 25 14.2745C25 14.111 24.935 13.9541 24.8194 13.8385C24.7038 13.7229 24.547 13.658 24.3835 13.658C24.22 13.658 24.0632 13.7229 23.9476 13.8385C23.832 13.9541 23.767 14.111 23.767 14.2745C23.767 14.438 23.832 14.5948 23.9476 14.7104C24.0632 14.826 24.22 14.891 24.3835 14.891ZM24.3835 18.2201C24.547 18.2201 24.7038 18.1551 24.8194 18.0395C24.935 17.9239 25 17.7671 25 17.6036C25 17.4401 24.935 17.2832 24.8194 17.1676C24.7038 17.052 24.547 16.9871 24.3835 16.9871C24.22 16.9871 24.0632 17.052 23.9476 17.1676C23.832 17.2832 23.767 17.4401 23.767 17.6036C23.767 17.7671 23.832 17.9239 23.9476 18.0395C24.0632 18.1551 24.22 18.2201 24.3835 18.2201ZM7.6165 14.891C7.78001 14.891 7.93682 14.826 8.05243 14.7104C8.16805 14.5948 8.233 14.438 8.233 14.2745C8.233 14.111 8.16805 13.9541 8.05243 13.8385C7.93682 13.7229 7.78001 13.658 7.6165 13.658C7.45299 13.658 7.29618 13.7229 7.18057 13.8385C7.06495 13.9541 7 14.111 7 14.2745C7 14.438 7.06495 14.5948 7.18057 14.7104C7.29618 14.826 7.45299 14.891 7.6165 14.891ZM7.6165 18.2201C7.78001 18.2201 7.93682 18.1551 8.05243 18.0395C8.16805 17.9239 8.233 17.7671 8.233 17.6036C8.233 17.4401 8.16805 17.2832 8.05243 17.1676C7.93682 17.052 7.78001 16.9871 7.6165 16.9871C7.45299 16.9871 7.29618 17.052 7.18057 17.1676C7.06495 17.2832 7 17.4401 7 17.6036C7 17.7671 7.06495 17.9239 7.18057 18.0395C7.29618 18.1551 7.45299 18.2201 7.6165 18.2201ZM14.3971 24.9998C14.5606 24.9998 14.7174 24.9348 14.833 24.8192C14.9486 24.7036 15.0136 24.5468 15.0136 24.3833C15.0136 24.2198 14.9486 24.063 14.833 23.9473C14.7174 23.8317 14.5606 23.7668 14.3971 23.7668C14.2336 23.7668 14.0768 23.8317 13.9612 23.9473C13.8456 24.063 13.7806 24.2198 13.7806 24.3833C13.7806 24.5468 13.8456 24.7036 13.9612 24.8192C14.0768 24.9348 14.2336 24.9998 14.3971 24.9998ZM17.7262 24.9998C17.8897 24.9998 18.0465 24.9348 18.1621 24.8192C18.2777 24.7036 18.3427 24.5468 18.3427 24.3833C18.3427 24.2198 18.2777 24.063 18.1621 23.9473C18.0465 23.8317 17.8897 23.7668 17.7262 23.7668C17.5627 23.7668 17.4059 23.8317 17.2903 23.9473C17.1747 24.063 17.1097 24.2198 17.1097 24.3833C17.1097 24.5468 17.1747 24.7036 17.2903 24.8192C17.4059 24.9348 17.5627 24.9998 17.7262 24.9998Z" fill="white"/>
</svg>
