<svg width="32" height="32" viewBox="0 0 32 32" fill="none" xmlns="http://www.w3.org/2000/svg">
<circle cx="16" cy="16" r="16" fill="#7E2CBD"/>
<path d="M17.4066 9.73571L13.5064 13.6359H13.5004L15.9755 16.111L18.4506 13.6359L17.2363 12.4216L18.6674 10.9898L21.3135 13.6359L15.9785 18.9708L10.6436 13.6359L15.9785 8.3009L17.4066 9.73571Z" fill="white"/>
<path d="M12.122 16.9368L16.0221 20.8369L19.9223 16.9368L21.3533 18.3678L16.0221 23.6991L10.6909 18.3678L12.122 16.9368Z" fill="white"/>
<path d="M22.2676 14.5914L20.8366 16.0225L23.5712 18.7548L25 17.3238L22.2676 14.5914Z" fill="white"/>
<path d="M7 17.2803L8.43106 18.7121L11.1634 15.979L9.73236 14.5479L7 17.2803Z" fill="white"/>
</svg>
