<svg width="32" height="32" viewBox="0 0 32 32" fill="none" xmlns="http://www.w3.org/2000/svg">
<circle cx="16" cy="16" r="16" fill="black"/>
<path fill-rule="evenodd" clip-rule="evenodd" d="M7 22.6562V23.2188H12.0625V22.6562C11.2188 22.6562 9.90625 21.7188 9.90625 20.9688V11.2188L14.7812 23.2188H15.5312L20.5 10.8438V21.7188C20.5 22.3187 19.1875 22.5938 18.5312 22.6562V23.2188H25V22.6562C24.375 22.5938 23.125 22.3187 23.125 21.7188V10.2812C23.125 9.45625 24.375 9.3125 25 9.34375V8.78125H20.5938L16.1875 19.5625L11.5938 8.78125H7V9.34375C8.125 9.34375 9.15625 9.8125 9.15625 10.5625V20.9688C9.15625 21.7188 7.84375 22.6562 7 22.6562ZM10.75 10.6562C10.1875 9.34375 9.53125 9.25 8.78125 9.25C9.4375 9.53125 9.625 9.71875 10.0938 10.6562C10.3642 11.1971 13.4688 18.75 14.9688 22.4688L15.1562 21.5312C13.875 18.3438 11.2 11.7063 10.75 10.6562ZM21.4375 21.7188V9.4375C21.4111 9.46388 21.3803 9.48938 21.3472 9.51669C21.1846 9.65111 20.9688 9.82956 20.9688 10.375V21.7188C20.9688 22.1875 20.7812 22.4688 20.5 22.6562C21.0625 22.6562 21.4375 22.1688 21.4375 21.7188ZM9.34375 21.625C9.34375 22.075 8.71875 22.5625 8.40625 22.75H10.2812C9.96875 22.5938 9.34375 22.15 9.34375 21.625Z" fill="white"/>
</svg>
