<svg width="32" height="32" viewBox="0 0 32 32" fill="none" xmlns="http://www.w3.org/2000/svg">
<circle cx="16" cy="16" r="16" fill="#354368"/>
<path d="M15.5586 11.378C15.5586 11.6877 15.3075 11.9388 14.9977 11.9388C14.6879 11.9388 14.4368 11.6877 14.4368 11.378C14.4368 11.0682 14.6879 10.8171 14.9977 10.8171C15.3075 10.8171 15.5586 11.0682 15.5586 11.378Z" fill="white"/>
<path d="M12.131 13.5384C12.4407 13.5384 12.6919 13.2873 12.6919 12.9775C12.6919 12.6677 12.4407 12.4166 12.131 12.4166C11.8212 12.4166 11.5701 12.6677 11.5701 12.9775C11.5701 13.2873 11.8212 13.5384 12.131 13.5384Z" fill="white"/>
<path d="M7 20.4766L9.86671 17.0906L10.8846 17.6307L14.8731 13.3826L16.0987 14.8471L17.0646 14.6082L18.7784 16.7582H19.225L21.3543 14.8471L25 19.6353L21.3543 15.5534L20.056 16.9244L20.9492 20.1754L17.0646 15.5534H16.5245V15.7923L14.8731 14.0369L12.401 21.1829L12.1414 18.7317L10.1575 17.8592L7 20.4766Z" fill="white"/>
<path d="M17.8644 13.5384C18.1742 13.5384 18.4253 13.2873 18.4253 12.9775C18.4253 12.6677 18.1742 12.4166 17.8644 12.4166C17.5546 12.4166 17.3035 12.6677 17.3035 12.9775C17.3035 13.2873 17.5546 13.5384 17.8644 13.5384Z" fill="white"/>
</svg>
