<svg width="32" height="32" viewBox="0 0 32 32" fill="none" xmlns="http://www.w3.org/2000/svg">
<circle cx="16" cy="16" r="16" fill="#FE5A60"/>
<path d="M7.32198 9.04078C7.29128 9.01906 7.25519 9.00624 7.21767 9.00374C7.18015 9.00124 7.14266 9.00915 7.10936 9.0266C7.07605 9.04406 7.04821 9.07037 7.02892 9.10265C7.00962 9.13492 6.99962 9.1719 7.00001 9.2095V18.383C6.99984 18.474 7.02158 18.5636 7.06339 18.6444C7.10519 18.7252 7.16584 18.7948 7.2402 18.8472L9.20516 20.2433C9.24944 20.2746 9.30433 20.2871 9.35777 20.278C9.41122 20.2688 9.45888 20.2389 9.49029 20.1947C9.51464 20.1599 9.52775 20.1185 9.52786 20.0761V14.2556C9.52908 14.2434 9.53333 14.2317 9.54022 14.2215C9.54712 14.2114 9.55645 14.2031 9.56735 14.1975C9.57826 14.1918 9.5904 14.189 9.60268 14.1893C9.61495 14.1895 9.62697 14.1928 9.63764 14.1989L14.3846 17.5689C14.4277 17.5996 14.4629 17.6401 14.4871 17.6872C14.5113 17.7342 14.5239 17.7864 14.5239 17.8393V23.7894C14.5233 23.8615 14.5402 23.9326 14.573 23.9967C14.6059 24.0609 14.6537 24.1161 14.7125 24.1578L15.8081 24.9366C15.8637 24.9757 15.9301 24.9968 15.9982 24.9968C16.0662 24.9968 16.1326 24.9757 16.1882 24.9366L17.2875 24.1519C17.3463 24.1102 17.3941 24.055 17.427 23.9908C17.4598 23.9267 17.4767 23.8556 17.4761 23.7835V17.8363C17.4759 17.7834 17.4885 17.7312 17.5127 17.6841C17.537 17.6371 17.5722 17.5965 17.6154 17.5659L22.3624 14.1959C22.3727 14.1885 22.385 14.184 22.3978 14.183C22.4105 14.1821 22.4233 14.1847 22.4347 14.1906C22.4461 14.1965 22.4556 14.2054 22.4622 14.2163C22.4688 14.2273 22.4722 14.2399 22.4721 14.2527V20.0731C22.4722 20.1106 22.4825 20.1474 22.502 20.1794C22.5215 20.2114 22.5494 20.2375 22.5827 20.2547C22.616 20.272 22.6534 20.2798 22.6908 20.2773C22.7282 20.2747 22.7642 20.262 22.7948 20.2404L24.7598 18.845C24.8341 18.7923 24.8947 18.7227 24.9365 18.6418C24.9783 18.5609 25.0001 18.4711 25 18.3801V9.20803C25.0002 9.18089 24.995 9.15398 24.9846 9.1289C24.9742 9.10381 24.959 9.08105 24.9397 9.06196C24.9204 9.04287 24.8975 9.02784 24.8723 9.01775C24.8471 9.00766 24.8201 9.00271 24.793 9.00321C24.7504 9.00288 24.7089 9.01603 24.6743 9.04078L16.256 15.0174C16.1809 15.0714 16.0907 15.1005 15.9982 15.1005C15.9056 15.1005 15.8154 15.0714 15.7403 15.0174L7.32198 9.04078Z" fill="white"/>
</svg>
