<svg width="32" height="32" viewBox="0 0 32 32" fill="none" xmlns="http://www.w3.org/2000/svg">
<circle cx="16" cy="16" r="16" fill="#0072FF"/>
<path d="M25 19.3946V9.05464C22.975 7.92164 20.385 8.59464 19.216 10.5546L15.997 15.9546L12.784 10.5646C11.615 8.60264 9.025 7.93064 7 9.06364V19.3936C7 21.6606 8.896 23.4956 11.234 23.4956V16.1656L12.464 18.2286C12.969 18.9686 13.441 19.3946 13.88 19.5056L14.1 19.6286C14.692 19.9162 15.3418 20.0649 16 20.0636C16.695 20.0675 17.3804 19.9015 17.9967 19.5801C18.6129 19.2588 19.1413 18.7917 19.536 18.2196L20.765 16.1596V23.4956C23.104 23.4956 25 21.6596 25 19.3946Z" fill="white"/>
</svg>
