<svg width="32" height="32" viewBox="0 0 32 32" fill="none" xmlns="http://www.w3.org/2000/svg">
<circle cx="16" cy="16" r="16" fill="#288ED1"/>
<path fill-rule="evenodd" clip-rule="evenodd" d="M9.12932 18.8459L8.90681 19.8765C8.49048 21.8048 10.2051 23.519 12.1333 23.1023L13.1603 22.8803L13.7255 23.7568C14.7946 25.4146 17.2192 25.4144 18.2879 23.7562L18.8509 22.8827L19.8667 23.1023C21.7949 23.519 23.5095 21.8048 23.0932 19.8765L22.8731 18.8571L23.7562 18.2879C25.4144 17.2192 25.4146 14.7946 23.7568 13.7255L22.8707 13.1541L23.0932 12.1235C23.5095 10.1952 21.7949 8.48095 19.8667 8.89774L18.8397 9.11973L18.2745 8.24323C17.2054 6.58535 14.7808 6.58564 13.7121 8.24378L13.1491 9.11732L12.1333 8.89774C10.2051 8.48095 8.49048 10.1952 8.90681 12.1235L9.12691 13.1429L8.24378 13.7121C6.58564 14.7808 6.58535 17.2054 8.24323 18.2745L9.12932 18.8459ZM13.9637 20.941C15.3129 20.6839 16.6986 20.6846 18.0475 20.9431C18.8185 19.8065 19.7979 18.8261 20.9337 18.0539C20.6735 16.7008 20.6727 15.3106 20.9315 13.9573C19.7916 13.1833 18.8091 12.1998 18.0363 11.059C16.6871 11.3161 15.3014 11.3154 13.9525 11.0569C13.1815 12.1935 12.2021 13.1739 11.0663 13.9461C11.3265 15.2992 11.3273 16.6894 11.0685 18.0427C12.2084 18.8167 13.1909 19.8002 13.9637 20.941ZM9.47677 17.0126C9.55218 16.3356 9.55173 15.6523 9.47542 14.9753L9.18048 15.1654C8.57864 15.5533 8.57853 16.4334 9.18028 16.8214L9.47677 17.0126ZM10.6688 12.0918C11.1972 11.6687 11.677 11.1883 12.0994 10.6594L11.768 10.5877C11.0681 10.4365 10.4458 11.0587 10.5969 11.7586L10.6688 12.0918ZM14.9818 9.46545C15.6544 9.54079 16.3334 9.54124 17.0062 9.46679L16.8214 9.18028C16.4334 8.57853 15.5533 8.57864 15.1654 9.18048L14.9818 9.46545ZM19.889 10.6619C20.3137 11.1945 20.7966 11.678 21.3286 12.1034L21.4031 11.7586C21.5542 11.0587 20.9319 10.4365 20.232 10.5877L19.889 10.6619ZM22.5232 14.9874C22.4478 15.6644 22.4483 16.3477 22.5246 17.0247L22.8195 16.8346C23.4214 16.4467 23.4215 15.5666 22.8197 15.1786L22.5232 14.9874ZM21.3312 19.9082C20.8028 20.3313 20.323 20.8117 19.9006 21.3406L20.232 21.4123C20.9319 21.5635 21.5542 20.9413 21.4031 20.2414L21.3312 19.9082ZM17.0182 22.5346C16.3456 22.4592 15.6666 22.4588 14.9938 22.5332L15.1786 22.8197C15.5666 23.4215 16.4467 23.4214 16.8346 22.8195L17.0182 22.5346ZM10.6714 19.8966C11.2034 20.322 11.6863 20.8055 12.111 21.3381L11.768 21.4123C11.0681 21.5635 10.4458 20.9413 10.5969 20.2414L10.6714 19.8966Z" fill="white"/>
</svg>
