<svg width="32" height="32" viewBox="0 0 32 32" fill="none" xmlns="http://www.w3.org/2000/svg">
<circle cx="16" cy="16" r="16" fill="#92386A"/>
<path d="M24.9471 17.3297L19.1103 11.493C19.0408 11.4235 18.9085 11.4235 18.839 11.493L15.9735 14.3485L13.1643 11.5393C13.0882 11.4632 12.9691 11.4632 12.893 11.5393L12.0162 12.3996L8.79338 15.5595L8.0886 16.2511L7.05294 17.2603C7.01324 17.3 7 17.3463 7 17.3992C7 17.4522 7.02316 17.4985 7.05294 17.5382L9.96471 20.45C10.0408 20.5261 10.1665 20.5261 10.236 20.45L13.032 17.6573L15.8643 20.4897C15.9404 20.5658 16.0662 20.5658 16.1357 20.4897L18.9382 17.6871L21.7574 20.5062C21.7971 20.5459 21.8434 20.5591 21.8963 20.5591C21.9493 20.5591 21.9956 20.5426 22.0353 20.5062L24.9471 17.5944C24.9868 17.5547 25 17.5084 25 17.4555C25 17.3992 24.9835 17.3595 24.9471 17.3297ZM24.4243 17.5713L22.75 16.9558L21.9824 15.3014L22.4257 15.3643L24.5301 17.4687L24.4243 17.5713ZM23.4779 18.5176L22.9816 17.4555L24.1232 17.8757L23.4779 18.5176ZM11.9533 14.6893L9.59412 15.3246L11.9533 13.0051V14.6893ZM9.025 15.8772L10.6794 15.4338L10.5702 17.2966L8.55846 16.3404L9.025 15.8772ZM11.0765 15.3279L11.371 15.2518L12.1551 16.4562L10.9276 17.8161L11.0765 15.3279ZM12.4165 16.1485L11.7581 15.1393L12.132 15.04L13.0717 15.4272L12.4165 16.1485ZM12.3404 14.7058V14.0011L14.5772 14.1864L15.1364 15.8639L12.3404 14.7058ZM14.2331 16.8864L15.0338 17.3761L15.1662 19.2455L14.0346 18.1205L14.2331 16.8864ZM15.3217 17.0981L14.3059 16.4694L14.382 15.9797L15.3382 16.3768C15.3614 16.3933 15.3846 16.4066 15.4143 16.4066L16.3772 16.8103L16.7809 18.0047L15.3217 17.0981ZM16.771 16.754L17.8199 16.2114L17.0522 17.5779L16.771 16.754ZM18.2235 15.5761L17.254 16.079L17.4857 14.4345L18.8357 15.2584L18.2235 15.5761ZM19.2393 15.0466L17.4294 13.9448L17.1118 13.7496L17.5882 13.2764L19.6463 13.9448L19.8415 14.7356L19.2393 15.0466ZM20.2254 14.6661L19.7456 12.6709L21.9824 14.9077L20.2254 14.6661ZM20.2419 15.0566L20.6522 15.1095L21.0956 19.2853L19.9143 18.104L20.2419 15.0566ZM21.0426 15.1724L21.5324 15.2419L22.2305 16.7474L21.3768 18.3323L21.0426 15.1724ZM18.968 11.9033L19.2096 12.1448L19.5371 13.5047L17.8993 12.9753L18.968 11.9033ZM16.1059 14.7687L16.8371 14.0375L17.125 14.2161L16.8305 16.2974L16.5294 16.4529L15.5996 16.0724L14.8386 13.7827L15.8313 14.7753C15.9107 14.8382 16.0265 14.8382 16.1059 14.7687ZM13.0221 11.9595L14.2265 13.1606L14.4349 13.7893L12.3404 13.6106V12.6246L13.0221 11.9595ZM8.25735 16.6316L10.5404 17.7103L10.4776 18.736L8.43603 18.3786L7.46654 17.4091L8.25735 16.6316ZM10.0971 20.0463L8.90919 18.8584L10.4445 19.1297L10.4048 19.7286L10.0971 20.0463ZM12.8897 17.2503L10.825 19.315L10.8779 18.4316L10.8846 18.425L13.4456 15.5926L14.0114 15.8242L13.8956 16.5389L13.6938 17.7797L13.1643 17.2503C13.0915 17.1742 12.9691 17.1742 12.8897 17.2503ZM16.0033 20.086L15.5831 19.6658L15.4441 17.6242L16.9794 18.5705L17.1184 18.9742L16.0033 20.086ZM18.9449 17.2272C18.8985 17.2272 18.8456 17.2437 18.8059 17.2801L17.4162 18.6698L17.2143 18.0709L18.4485 15.8805L19.8382 15.1658L19.5603 17.75L19.0871 17.2768C19.0474 17.2437 18.9912 17.2272 18.9449 17.2272ZM21.8963 20.0992L21.5224 19.7253L21.4463 19.0106L22.4324 17.1775L23.1868 18.8088L21.8963 20.0992Z" fill="white"/>
</svg>
