<svg width="32" height="32" viewBox="0 0 32 32" fill="none" xmlns="http://www.w3.org/2000/svg">
<circle cx="16" cy="16" r="16" fill="#4D91FE"/>
<path fill-rule="evenodd" clip-rule="evenodd" d="M21.25 18.25C23.3211 18.25 25 16.5711 25 14.5C25 12.4289 23.3211 10.75 21.25 10.75H15.25C13.4358 10.75 11.9225 12.0383 11.575 13.75H10.75C8.67893 13.75 7 15.4289 7 17.5C7 19.5711 8.67893 21.25 10.75 21.25H16.75C18.5642 21.25 20.0775 19.9617 20.425 18.25L21.25 18.25ZM20.425 16.75H21.25C22.4926 16.75 23.5 15.7426 23.5 14.5C23.5 13.2574 22.4926 12.25 21.25 12.25L15.25 12.25C14.0074 12.25 13 13.2574 13 14.5C13 15.7426 14.0074 16.75 15.25 16.75H16.75C17.1642 16.75 17.5 17.0858 17.5 17.5C17.5 17.9142 17.1642 18.25 16.75 18.25H15.25C13.4358 18.25 11.9225 16.9617 11.575 15.25H10.75C9.50736 15.25 8.5 16.2574 8.5 17.5C8.5 18.7426 9.50736 19.75 10.75 19.75H16.75C17.9926 19.75 19 18.7426 19 17.5C19 16.2574 17.9926 15.25 16.75 15.25H15.25C14.8358 15.25 14.5 14.9142 14.5 14.5C14.5 14.0858 14.8358 13.75 15.25 13.75H16.75C18.5642 13.75 20.0775 15.0383 20.425 16.75Z" fill="white"/>
</svg>
