<svg width="32" height="32" viewBox="0 0 32 32" fill="none" xmlns="http://www.w3.org/2000/svg">
<circle cx="16" cy="16" r="16" fill="#FFC70D"/>
<path d="M23.5649 11.3564L21.126 9.9525C21.0423 9.90285 20.965 9.85957 20.882 9.81204C20.8011 9.76593 20.7224 9.71627 20.6401 9.66874C20.1513 9.38924 19.6611 9.11825 19.178 8.82882L16.8612 7.4909C16.7264 7.40932 16.0297 7 15.9999 7C15.9879 7 15.8999 7.05675 15.8808 7.06881L12.7154 8.89196C12.6693 8.9182 12.6374 8.93878 12.5906 8.96432C12.5504 8.9866 12.5106 9.00978 12.4714 9.03384L12.2288 9.17571C12.1875 9.20064 12.1459 9.225 12.104 9.24878L11.8656 9.38641C11.7819 9.43606 11.7031 9.47863 11.6209 9.52616L11.1307 9.80637C11.0881 9.82836 11.0526 9.85177 11.0115 9.87518L10.3986 10.2299C10.3134 10.2795 10.2347 10.3207 10.1517 10.3682L9.66718 10.6541C9.42386 10.7931 9.17982 10.9414 8.93295 11.0755C8.82442 11.1336 8.25477 11.4812 8.19873 11.4961V20.5154C8.24413 20.5197 8.86698 20.8907 8.93154 20.929L9.90766 21.4937C9.98924 21.5433 10.0708 21.588 10.1517 21.6348L10.6341 21.9129C10.6752 21.9342 10.7121 21.9583 10.7547 21.9817C10.8015 22.0073 10.832 22.0292 10.8795 22.0527C11.0037 22.1165 11.1229 22.1924 11.2413 22.2641L11.8557 22.618C11.8982 22.6415 11.9323 22.662 11.9741 22.6869C12.2139 22.8316 12.4629 22.9614 12.702 23.1054L13.5582 23.602C14.1236 23.9361 14.7003 24.2475 15.2629 24.5852L15.9318 24.9725C16.0383 25.0442 16.0773 24.9633 16.2447 24.8718L17.7103 24.0262C17.7912 23.9794 17.8699 23.934 17.955 23.8864L18.1941 23.7495C18.2345 23.7275 18.2721 23.7041 18.3126 23.6793L19.6569 22.9011C20.0584 22.6606 20.4727 22.4428 20.8742 22.2016L23.5508 20.6509C23.5898 20.6275 23.6288 20.6041 23.6699 20.5814C23.7125 20.5587 23.7529 20.5267 23.8012 20.5161V11.4961C23.7253 11.4451 23.6465 11.4061 23.5649 11.3564ZM18.7481 20.1841H16.4674V20.7814C16.4674 20.7885 16.4646 20.7906 16.4575 20.7906H15.3579V20.1841H13.2518V18.4957C13.2518 18.478 13.273 18.4631 13.2837 18.4532L13.4972 18.2226C13.5035 18.2169 13.5094 18.2107 13.5149 18.2042C13.5199 18.1974 13.5253 18.191 13.5313 18.185L13.6554 18.0531L13.6568 18.051L13.6937 18.0134L13.71 17.9935L13.7497 17.9516L13.754 17.9467L13.8867 17.8034C13.915 17.7743 13.9434 17.7466 13.9704 17.7147L13.9718 17.7133L13.976 17.7076L14.0654 17.6126C14.0782 17.5984 14.0881 17.5906 14.1002 17.575L14.208 17.46L14.2258 17.4423C14.2316 17.436 14.2371 17.4294 14.2421 17.4224L14.423 17.2295L14.4244 17.2281L14.4286 17.2231L14.4563 17.1947C14.4918 17.1493 14.5556 17.0926 14.5932 17.0472L14.5975 17.0415C14.6095 17.0273 14.623 17.0174 14.6344 17.0039L14.7046 16.928C14.7543 16.8783 14.7968 16.8244 14.8465 16.7748L15.0061 16.6031L15.0238 16.5853L15.0933 16.5087C15.1068 16.4953 15.1196 16.4853 15.1302 16.4711C15.1409 16.4569 15.1544 16.447 15.1664 16.4328L15.2366 16.3569C15.2437 16.3498 15.2494 16.3449 15.2558 16.3371L15.309 16.2796C15.3196 16.2654 15.3331 16.2555 15.3452 16.2413C15.3764 16.2065 15.4658 16.115 15.4849 16.0895C15.4963 16.0753 15.5098 16.0668 15.5197 16.0526C15.4916 16.0182 15.4615 15.9855 15.4296 15.9547L15.3601 15.8781L15.3416 15.8603C15.3345 15.8518 15.3324 15.8476 15.3239 15.8391C15.2693 15.7837 15.2189 15.7249 15.1636 15.6688L15.0749 15.573C15.0697 15.5662 15.0641 15.5598 15.0579 15.5539L14.2421 14.6785C14.2366 14.671 14.2307 14.6639 14.2243 14.6572L14.1037 14.5274L14.1023 14.526L13.8349 14.238C13.8292 14.2309 13.8235 14.2266 13.8171 14.2202L13.7462 14.1422C13.698 14.0925 13.6519 14.0386 13.6029 13.9897L13.5873 13.9726L13.5859 13.9712L13.5334 13.9138C13.5093 13.8875 13.4837 13.8634 13.4603 13.8372C13.4525 13.8286 13.4511 13.8244 13.4426 13.8159C13.3943 13.7669 13.3504 13.7137 13.3007 13.6655C13.295 13.6584 13.2894 13.6541 13.2837 13.6477C13.2773 13.6406 13.2518 13.6158 13.2518 13.608V11.9133H15.3572V11.2096C15.7275 11.2096 16.0936 11.2166 16.4639 11.2166V11.8906C16.4639 11.8984 16.466 11.9012 16.4738 11.9012H18.7481V13.6116H15.6105C15.6289 13.6399 15.6573 13.6633 15.6793 13.6889L15.8538 13.8804C15.8645 13.8946 15.8758 13.9045 15.8879 13.9187C15.9177 13.9542 15.951 13.9847 15.9801 14.0202L16.234 14.299C16.2837 14.3472 16.3263 14.4018 16.3738 14.4515L17.0215 15.163L17.0257 15.1687L17.2577 15.4241L17.2754 15.4411C17.3067 15.4723 17.3322 15.5078 17.3634 15.539L17.7805 15.9951C17.7976 16.0136 17.816 16.0306 17.8302 16.0519C17.8238 16.0618 17.8188 16.0647 17.811 16.0732C17.806 16.0799 17.8005 16.0863 17.7947 16.0923L17.7075 16.1867C17.7024 16.1934 17.697 16.1998 17.6911 16.2058L17.4819 16.435C17.4677 16.4484 17.4606 16.4598 17.4464 16.4733C17.418 16.5016 17.3755 16.5548 17.3421 16.5868L17.196 16.7492C17.1669 16.784 17.0889 16.8613 17.0655 16.8911L16.8576 17.1181C16.8129 17.1727 16.7625 17.2195 16.7171 17.2735L16.632 17.3657C16.5895 17.409 16.5526 17.4551 16.5114 17.499C16.5043 17.5061 16.4987 17.5111 16.4923 17.5189C16.444 17.5735 16.3915 17.6253 16.344 17.6821L16.3369 17.6906L16.1546 17.8885L16.1503 17.8935L16.144 17.9006L16.1425 17.9027L16.0588 17.9949C16.0529 18.0006 16.0475 18.0068 16.0425 18.0134C16.037 18.0199 16.0311 18.0261 16.0248 18.0318C15.9886 18.0673 15.9574 18.1098 15.9212 18.1453C15.9154 18.1513 15.9099 18.1577 15.9049 18.1645L15.8354 18.2411C15.8297 18.2482 15.824 18.2524 15.8176 18.2588L15.6105 18.4872H18.6609C18.69 18.4872 18.7481 18.4801 18.7481 18.4965V20.1841Z" fill="white"/>
</svg>
