<svg width="32" height="32" viewBox="0 0 32 32" fill="none" xmlns="http://www.w3.org/2000/svg">
<circle cx="16" cy="16" r="16" fill="#010101"/>
<path d="M25 9.52181L24.6442 11.3867C24.6442 11.3867 23.7547 11.1456 23.3019 12.0137L22.2992 15.5184L22.7197 15.2291H24.7251L24.2722 16.7724H22.0081L20.8822 20.5865C20.7309 21.0916 20.4195 21.5347 19.9945 21.8497C19.5695 22.1648 19.0534 22.335 18.5232 22.335C17.9754 22.335 17.4432 22.1533 17.0109 21.8187C16.5787 21.4841 16.2711 21.0157 16.1368 20.4877L13.6676 11.632C13.6478 11.5571 13.6036 11.4908 13.5418 11.4435C13.4801 11.3962 13.4043 11.3706 13.3264 11.3706C13.2473 11.3708 13.1705 11.3974 13.1084 11.446C13.0463 11.4947 13.0024 11.5627 12.9838 11.6391L10.8814 19.9392C10.6965 20.6697 10.2714 21.318 9.67378 21.7811C9.07611 22.2442 8.34001 22.4957 7.58221 22.4957H7L7.38814 20.6308C7.38814 20.6308 8.35849 20.8238 8.68194 19.827L9.68464 16.3544L9.23181 16.7403H7.25876L7.67925 15.2291H9.87871L11.1421 11.2639C11.2711 10.7611 11.5648 10.3153 11.977 9.99693C12.3891 9.67856 12.8962 9.50573 13.4182 9.50574C13.9412 9.50577 14.4492 9.6793 14.8617 9.99882C15.2743 10.3183 15.5677 10.7656 15.6956 11.2697L18.1425 20.2051C18.1657 20.299 18.2199 20.3825 18.2964 20.4422C18.3729 20.5019 18.4674 20.5343 18.5646 20.5344C18.6612 20.5341 18.7549 20.5019 18.831 20.4429C18.9071 20.3839 18.9614 20.3014 18.9851 20.2083L21.2347 11.714C21.392 11.099 21.7486 10.5525 22.2496 10.1591C22.7506 9.76579 23.368 9.54745 24.0064 9.53789L25 9.52181Z" fill="white"/>
</svg>
