<svg width="32" height="32" viewBox="0 0 32 32" fill="none" xmlns="http://www.w3.org/2000/svg">
<circle cx="16" cy="16" r="16" fill="#AA1E24"/>
<path fill-rule="evenodd" clip-rule="evenodd" d="M16.7639 19.8919C21.3782 19.5337 25 16.093 25 16.093C25 16.093 21.4798 12.7425 16.9597 12.3114L16.6139 11.709L15.9992 10.6845L15.6377 11.2861L15.0394 12.3106C10.5194 12.7515 7 16.0857 7 16.0939C7 16.0939 10.6226 19.5345 15.2361 19.8927L16 21.3155L16.7639 19.8927V19.8919ZM7.76386 16.093C7.76386 16.093 11.0865 13.8244 14.5034 13.2466L13.9608 14.1817L14.3854 15.0112L15.5353 13.1245C15.6927 13.1163 15.85 13.1081 16 13.1081C16.1492 13.1081 16.3065 13.1163 16.4565 13.1245L17.5826 15.0112L18.0154 14.1416L17.4958 13.2384C20.9135 13.808 24.2361 16.0283 24.2361 16.0848C24.2361 16.1504 20.7479 18.4764 17.2441 18.9723L18.9522 15.7677L18.4883 14.9628L17.5982 16.6217L16.377 19.0534C16.2442 19.0616 16.118 19.0616 15.9836 19.0616C15.85 19.0616 15.7164 19.0616 15.582 19.0534L13.9215 15.784L13.9297 15.7758L13.5035 14.9792L13.0396 15.784L14.7477 18.9805C11.2439 18.4764 7.75649 16.093 7.76386 16.093Z" fill="white"/>
</svg>
