<svg width="32" height="32" viewBox="0 0 32 32" fill="none" xmlns="http://www.w3.org/2000/svg">
<circle cx="16" cy="16" r="16" fill="#0B1C26"/>
<path d="M16 25C20.9647 24.9902 25 20.9557 25 16C25 11.0443 20.9647 7.01473 16 7C11.0353 7.01473 7 11.0443 7 16C7 20.9557 11.0353 24.9853 16 25ZM23.9814 17.4318C23.8446 18.1822 23.6037 18.9098 23.2655 19.5935C23.2957 19.4593 23.3145 19.3251 23.3145 19.1819C23.3145 18.691 23.1165 18.2451 22.7991 17.9137C23.0198 18.0052 23.2677 18.006 23.489 17.9159C23.7103 17.8259 23.8872 17.6514 23.9814 17.4318ZM23.3497 12.5906C23.853 13.6582 24.1113 14.8247 24.1057 16.0049C24.1057 16.342 24.0812 16.6693 24.0403 16.9965C24.0216 16.771 23.9189 16.5608 23.7525 16.4074C23.5861 16.2541 23.3682 16.1688 23.1419 16.1685C22.9676 16.1685 22.8089 16.2234 22.6747 16.3027C23.103 15.7976 23.3907 15.1886 23.5092 14.5371C23.6277 13.8855 23.5727 13.2142 23.3497 12.5906ZM22.8883 13.8539C22.8855 14.6827 22.5544 15.4765 21.9675 16.0617C21.3807 16.6469 20.5858 16.9757 19.7571 16.9761C18.9281 16.9765 18.1328 16.648 17.5457 16.0627C16.9587 15.4773 16.6279 14.6829 16.6259 13.8539C16.6279 13.0249 16.9587 12.2305 17.5457 11.6452C18.1328 11.0598 18.9281 10.7313 19.7571 10.7317C20.5861 10.7313 21.3814 11.0598 21.9685 11.6452C22.5555 12.2305 22.8863 13.0249 22.8883 13.8539ZM19.6327 19.1827C19.6327 19.2024 19.6376 19.222 19.6327 19.2523C19.3969 18.5097 18.9388 17.8574 18.3204 17.3835C19.0477 17.6781 19.8479 17.7395 20.6113 17.5619C20.3161 17.7173 20.069 17.9503 19.8966 18.2358C19.7241 18.5212 19.6329 18.8492 19.6327 19.1827ZM19.8119 20.392C19.8114 20.2259 19.7977 20.0601 19.771 19.8962C19.9412 20.2922 20.2431 20.6162 20.6268 20.8125C20.5811 20.8028 20.5345 20.7981 20.4877 20.7986C20.1547 20.7986 19.8512 20.9868 19.7023 21.2838C19.7741 20.992 19.811 20.6926 19.8119 20.392ZM21.4712 20.3372C20.8346 20.3372 20.3135 19.8217 20.3135 19.1827C20.3135 18.5486 20.8305 18.0283 21.4712 18.0283C22.1118 18.0283 22.6346 18.5437 22.6346 19.1819C22.6329 19.4892 22.5095 19.7833 22.2915 19.9998C22.0734 20.2163 21.7785 20.3376 21.4712 20.3372ZM22.2362 17.0767C22.2362 17.2665 22.2975 17.4531 22.4105 17.6069C22.1264 17.4376 21.8018 17.3486 21.4712 17.3492C21.3869 17.3492 21.3075 17.359 21.2274 17.3688C21.6406 17.1919 22.0205 16.9456 22.3507 16.6406C22.2771 16.774 22.2378 16.9237 22.2362 17.0767ZM15.9992 16.5858C15.4927 16.5858 15.0108 16.6897 14.5682 16.8632C15.3314 16.2774 15.8433 15.4233 16 14.4741C16.1554 15.4234 16.6669 16.2778 17.4302 16.8632C16.9755 16.6793 16.4896 16.5857 15.9992 16.5858ZM15.9992 11.5352H16C16.3466 11.536 16.6864 11.4381 16.9794 11.2529C16.4663 11.7994 16.1256 12.4849 16 13.2239C15.8777 12.4836 15.5366 11.7968 15.0206 11.2521C15.3134 11.4372 15.6528 11.5351 15.9992 11.5344V11.5352ZM17.8581 9.682C17.8581 9.66236 17.854 9.64191 17.8581 9.62227C17.9923 9.95936 18.3204 10.1975 18.7033 10.1975C18.718 10.1975 18.7327 10.1925 18.7524 10.1925C18.2852 10.3194 17.8466 10.5347 17.4605 10.8266C17.7178 10.5006 17.8579 10.0974 17.8581 9.682ZM19.2695 8.58727C20.6358 9.196 21.8099 10.1664 22.6633 11.392C22.2286 10.8818 21.6674 10.495 21.0359 10.2705C20.4043 10.0461 19.7249 9.99179 19.0657 10.1132C19.3955 9.96918 19.6082 9.64436 19.6074 9.286C19.6074 9.00291 19.4732 8.75582 19.2695 8.58727ZM16.5613 7.91309C17.3369 7.972 18.0872 8.13073 18.7826 8.38764C18.7532 8.38221 18.7234 8.3792 18.6935 8.37864C18.2165 8.37864 17.8286 8.75009 17.7935 9.21645C17.7153 8.91261 17.5613 8.63359 17.3457 8.40561C17.1302 8.17763 16.8603 8.00815 16.5613 7.91309ZM14.8267 9.682C14.8348 9.3763 14.9619 9.08583 15.181 8.87247C15.4001 8.65911 15.6938 8.53971 15.9996 8.53971C16.3054 8.53971 16.5991 8.65911 16.8182 8.87247C17.0373 9.08583 17.1644 9.3763 17.1725 9.682C17.1611 9.98537 17.0326 10.2725 16.814 10.4832C16.5954 10.6938 16.3036 10.8115 16 10.8115C15.6964 10.8115 15.4046 10.6938 15.186 10.4832C14.9674 10.2725 14.8389 9.98537 14.8275 9.682H14.8267ZM13.2125 8.38845C13.9275 8.12837 14.675 7.96841 15.4338 7.91309C15.1346 8.00784 14.8644 8.17709 14.6486 8.40494C14.4328 8.63278 14.2784 8.91175 14.2 9.21564C14.1842 8.98788 14.0825 8.77463 13.9154 8.61907C13.7483 8.46351 13.5283 8.37727 13.3 8.37782C13.2703 8.3787 13.2408 8.38198 13.2116 8.38764L13.2125 8.38845ZM14.1411 9.682C14.1411 10.0985 14.2826 10.5018 14.5436 10.8275C14.157 10.5361 13.7186 10.3207 13.2517 10.1925C13.2665 10.1925 13.2812 10.1975 13.3008 10.1975C13.6837 10.1975 14.0126 9.96018 14.146 9.62227C14.1419 9.6419 14.1402 9.66196 14.1411 9.682ZM12.8492 9.29009C12.8561 9.1748 12.9068 9.0665 12.9909 8.98732C13.075 8.90813 13.1861 8.86404 13.3016 8.86404C13.4171 8.86404 13.5283 8.90813 13.6124 8.98732C13.6965 9.0665 13.7472 9.1748 13.7541 9.29009C13.7541 9.41009 13.7064 9.52517 13.6216 9.61002C13.5367 9.69488 13.4216 9.74255 13.3016 9.74255C13.1816 9.74255 13.0666 9.69488 12.9817 9.61002C12.8969 9.52517 12.8492 9.41009 12.8492 9.29009ZM9.33591 11.3969C10.1879 10.1677 11.3622 9.19696 12.7297 8.59136C12.6086 8.68815 12.5145 8.81465 12.4567 8.95856C12.3989 9.10248 12.3794 9.2589 12.4 9.41261C12.4206 9.56632 12.4806 9.71208 12.5742 9.83571C12.6679 9.95934 12.7919 10.0566 12.9343 10.1181C12.2751 9.99508 11.5951 10.0486 10.9633 10.2732C10.3315 10.4978 9.76954 10.8855 9.33591 11.3969ZM9.11173 13.8547C9.11173 12.1349 10.519 10.7375 12.2429 10.7325C13.0719 10.7321 13.8672 11.0606 14.4543 11.646C15.0413 12.2313 15.3721 13.0257 15.3741 13.8547C15.3721 14.6837 15.0413 15.4781 14.4543 16.0635C13.8672 16.6488 13.0719 16.9773 12.2429 16.9769C11.4139 16.9773 10.6186 16.6488 10.0315 16.0635C9.44448 15.4781 9.11368 14.6837 9.11173 13.8547ZM12.3673 19.1827C12.3666 18.8478 12.2746 18.5195 12.1011 18.233C11.9277 17.9466 11.6794 17.7128 11.383 17.557C12.1468 17.7347 12.9468 17.6724 13.6739 17.3786C13.0568 17.8536 12.5993 18.5055 12.3624 19.2474C12.3624 19.2277 12.3673 19.2032 12.3673 19.1827ZM9.763 17.0759C9.763 16.9229 9.72209 16.7724 9.64355 16.6398C9.97082 16.9483 10.3521 17.1962 10.7669 17.3688C10.6864 17.3547 10.6048 17.3481 10.5231 17.3492C10.1925 17.3483 9.86792 17.4371 9.58382 17.6061C9.70082 17.4547 9.76382 17.2682 9.763 17.0759ZM9.36536 19.1827C9.36515 19.0307 9.39496 18.8802 9.4531 18.7398C9.51123 18.5994 9.59654 18.4718 9.70412 18.3645C9.8117 18.2571 9.93943 18.1721 10.08 18.1142C10.2205 18.0564 10.3711 18.0269 10.5231 18.0275C11.1596 18.0275 11.6816 18.5429 11.6816 19.1827C11.6816 19.4898 11.5597 19.7842 11.3425 20.0014C11.1254 20.2185 10.831 20.3405 10.5239 20.3405C10.2169 20.3405 9.92239 20.2185 9.70527 20.0014C9.48816 19.7842 9.36618 19.4898 9.36618 19.1827H9.36536ZM11.3683 20.8134C11.7512 20.6154 12.0521 20.289 12.2184 19.8913C12.1964 20.0573 12.1847 20.2245 12.1832 20.392C12.184 20.6923 12.2208 20.9917 12.2928 21.2838C12.2198 21.1379 12.1077 21.0152 11.969 20.9294C11.8303 20.8436 11.6705 20.798 11.5074 20.7978C11.4583 20.7978 11.4133 20.8085 11.3683 20.8134ZM7.954 16.9925C7.76245 15.4881 8.00192 13.9602 8.64455 12.5865C8.42168 13.2102 8.36681 13.8815 8.48543 14.5331C8.60405 15.1846 8.892 15.7935 9.32036 16.2986C9.18014 16.212 9.01881 16.1656 8.854 16.1645C8.38109 16.1645 7.99409 16.5318 7.954 16.9925ZM8.68545 19.1827C8.68545 19.3259 8.70427 19.4601 8.73455 19.5943C8.39472 18.9116 8.15393 18.184 8.01945 17.4335C8.11478 17.652 8.29183 17.8247 8.51277 17.9144C8.7337 18.0042 8.98097 18.0039 9.20173 17.9137C8.87049 18.2527 8.68517 18.7088 8.68545 19.1827ZM11.0107 20.9516C10.7685 21.1153 10.6237 21.3885 10.6229 21.6798C10.6229 21.8934 10.7031 22.0815 10.8275 22.2362C10.2322 21.7423 9.70989 21.1666 9.27618 20.5262C9.50523 20.7388 9.78474 20.8895 10.0883 20.9639C10.3918 21.0384 10.7093 21.0341 11.0107 20.9516ZM11.0803 21.6798C11.0801 21.5953 11.105 21.5127 11.1518 21.4424C11.1986 21.3721 11.2652 21.3172 11.3432 21.2847C11.4211 21.2523 11.507 21.2436 11.5899 21.26C11.6728 21.2763 11.7489 21.3168 11.8088 21.3764C11.8686 21.436 11.9094 21.5121 11.9261 21.5949C11.9427 21.6777 11.9344 21.7636 11.9023 21.8417C11.8701 21.9198 11.8155 21.9866 11.7453 22.0337C11.6752 22.0807 11.5927 22.1059 11.5082 22.1061C11.3951 22.1063 11.2865 22.0616 11.2062 21.9819C11.126 21.9021 11.0807 21.7938 11.0803 21.6806V21.6798ZM14.902 24.0345C13.5322 23.8443 12.2338 23.3069 11.1302 22.4735C11.2646 22.5387 11.4134 22.5688 11.5626 22.5608C11.7119 22.5529 11.8566 22.5071 11.9833 22.4278C12.11 22.3486 12.2145 22.2384 12.2869 22.1077C12.3594 21.977 12.3975 21.8301 12.3975 21.6806C12.3975 21.6504 12.3877 21.6258 12.3877 21.6013C12.583 22.1777 12.913 22.6991 13.3503 23.1223C13.7876 23.5455 14.3195 23.8583 14.902 24.0345ZM19.1263 20.392C19.1263 22.1118 17.7247 23.5093 16 23.5142C15.1718 23.5135 14.3777 23.1845 13.7918 22.5992C13.2059 22.0139 12.8761 21.2202 12.8745 20.392C12.8745 19.5631 13.2038 18.7681 13.79 18.182C14.3761 17.5958 15.1711 17.2665 16 17.2665C16.8289 17.2665 17.6239 17.5958 18.21 18.182C18.7962 18.7681 19.1263 19.5631 19.1263 20.392ZM20.8755 22.4735C19.7709 23.3051 18.473 23.8423 17.1037 24.0345C17.6862 23.8583 18.2182 23.5455 18.6555 23.1223C19.0928 22.6991 19.4228 22.1777 19.618 21.6013C19.6123 21.6274 19.609 21.6539 19.6082 21.6806C19.6065 21.9834 19.7628 22.2673 20.0205 22.4285C20.2783 22.5896 20.6015 22.6068 20.8755 22.4735ZM20.9205 21.6798C20.9209 21.7644 20.8961 21.8471 20.8494 21.9175C20.8026 21.988 20.736 22.043 20.658 22.0756C20.58 22.1081 20.4941 22.1168 20.4111 22.1005C20.3282 22.0842 20.2519 22.0437 20.192 21.984C20.1321 21.9244 20.0913 21.8483 20.0747 21.7654C20.0581 21.6825 20.0664 21.5965 20.0987 21.5184C20.131 21.4403 20.1857 21.3735 20.256 21.3265C20.3263 21.2795 20.4089 21.2544 20.4935 21.2544C20.7291 21.2544 20.9205 21.445 20.9205 21.6798ZM22.7238 20.5262C22.2903 21.1663 21.7683 21.7417 21.1734 22.2354C21.3038 22.0798 21.3761 21.8837 21.3779 21.6806C21.3774 21.5368 21.3418 21.3952 21.274 21.2683C21.2063 21.1414 21.1085 21.0329 20.9893 20.9525C21.2908 21.035 21.6083 21.0392 21.9119 20.9646C22.2155 20.89 22.4949 20.7391 22.7238 20.5262Z" fill="white"/>
</svg>
