<svg width="32" height="32" viewBox="0 0 32 32" fill="none" xmlns="http://www.w3.org/2000/svg">
<circle cx="16" cy="16" r="16" fill="#5B6DEE"/>
<path d="M16 25C13.6139 24.9974 11.3262 24.0483 9.63892 22.3611C7.95166 20.6738 7.00262 18.3861 7 16C7.00262 13.6139 7.95166 11.3262 9.63892 9.63894C11.3262 7.95168 13.6139 7.00262 16 7C18.3861 7.00262 20.6738 7.95168 22.3611 9.63894C24.0483 11.3262 24.9974 13.6139 25 16C24.9974 18.3861 24.0483 20.6738 22.3611 22.3611C20.6738 24.0483 18.3861 24.9974 16 25ZM14.389 16.3069C12.553 16.3069 11.5 17.0899 11.5 18.4543C11.5 19.8187 12.3775 20.6026 13.9075 20.6026C15.0422 20.5978 16.1349 20.1729 16.9747 19.4099C17.8145 18.6468 18.342 17.5997 18.4552 16.4707C18.156 16.5238 17.8527 16.5506 17.5489 16.5508H17.5192C16.9953 16.5471 16.4723 16.5065 15.9541 16.4293C15.4359 16.3517 14.9129 16.3109 14.389 16.3069ZM14.452 15.4492H14.4817C15.0056 15.4532 15.5286 15.494 16.0468 15.5716C16.5647 15.6488 17.0874 15.6894 17.611 15.6931C19.447 15.6931 20.5 14.9101 20.5 13.5457C20.5 12.1813 19.6225 11.3974 18.0925 11.3974C16.9579 11.4024 15.8655 11.8274 15.0258 12.5904C14.1862 13.3535 13.6589 14.4004 13.5457 15.5293C13.8448 15.4761 14.1482 15.4494 14.452 15.4492Z" fill="white"/>
</svg>
