<svg width="32" height="32" viewBox="0 0 32 32" fill="none" xmlns="http://www.w3.org/2000/svg">
<circle cx="16" cy="16" r="16" fill="#1C74BB"/>
<path d="M11.6021 10.7278V10.269C9.95023 9.81016 10.0415 11.1873 10.0415 11.1873C10.0415 11.636 10.3685 11.8681 10.664 11.9855C10.873 12.0638 11.0952 12.1008 11.3183 12.0945C11.3934 12.0938 11.4684 12.0986 11.5427 12.109C11.6571 12.123 11.7656 12.1679 11.8565 12.2387C11.9474 12.3095 12.0174 12.4037 12.0591 12.5112C12.1007 12.6187 12.1125 12.7355 12.093 12.8491C12.0735 12.9627 12.0236 13.0689 11.9485 13.1564C11.8638 13.2549 11.758 13.3331 11.6389 13.3851C11.4313 13.4784 11.097 13.4442 10.9192 13.3019L10.6844 13.1128L10.776 13.6635L10.9886 13.7058C11.2175 13.7535 11.4546 13.7428 11.6783 13.6747C11.9019 13.6066 12.1048 13.4832 12.2681 13.316L12.2765 13.307C12.3811 13.1952 12.4571 13.0598 12.4979 12.9122C12.6609 12.331 12.3892 11.9852 12.1545 11.8054C12.0182 11.7021 11.8522 11.6455 11.6812 11.6441C11.4276 11.6439 11.1743 11.6299 10.9222 11.6022C10.8205 11.5912 10.7235 11.5536 10.641 11.493C10.5585 11.4325 10.4936 11.3512 10.4527 11.2574C10.3125 10.916 10.5925 10.6362 10.5925 10.6362C11.2348 10.1774 11.6021 10.7278 11.6021 10.7278Z" fill="white"/>
<path fill-rule="evenodd" clip-rule="evenodd" d="M19.4932 9.99362H19.6767L20.1369 13.6642L19.5855 13.4794L19.4939 12.1043L18.3928 11.8289L17.566 12.9313L17.1991 12.8381L19.4932 9.99362ZM19.3094 10.6362L18.5756 11.5535L19.4932 11.8289L19.4013 10.6362H19.3094Z" fill="white"/>
<path fill-rule="evenodd" clip-rule="evenodd" d="M22.3374 11.0947L23.3469 11.6454C24.1727 12.1958 23.7138 12.9313 23.7138 12.9313C23.3469 13.5736 22.4293 13.2067 22.4293 13.2067L22.7046 15.317L22.2458 15.0416L21.9705 13.0232L21.787 12.9313L21.0528 14.3065L20.5933 14.0311L22.3374 11.0947ZM21.8789 12.6546C21.8789 12.6546 23.0716 13.4807 23.4385 12.7465C23.4385 12.7465 23.8057 12.1043 22.5212 11.5535L21.8789 12.6546Z" fill="white"/>
<path fill-rule="evenodd" clip-rule="evenodd" d="M13.0701 11.2326C13.0701 10.2442 13.932 9.44324 14.9969 9.44324C16.0611 9.44324 16.9238 10.2445 16.9238 11.2326C16.9238 12.2206 16.0618 13.0219 14.9969 13.0219C13.932 13.0219 13.0701 12.221 13.0701 11.2326ZM13.6218 11.2785C13.6218 12.1398 14.2369 12.8381 14.9969 12.8381C15.7569 12.8381 16.372 12.1401 16.372 11.2785C16.372 10.4169 15.7556 9.7186 14.9969 9.7186C14.2383 9.7186 13.6218 10.4172 13.6218 11.2785Z" fill="white"/>
<path fill-rule="evenodd" clip-rule="evenodd" d="M7.59735 11.021C7.6038 10.9199 7.61052 10.8653 7.61052 10.8653L7.60577 10.8942L7.60511 10.8958C7.55695 10.9978 5.31337 15.817 9.78463 19.6016C10.6068 20.4608 11.3263 20.8203 11.326 20.8198C18.0242 24.6735 22.0617 20.9117 22.0617 20.9117C19.0338 21.4621 17.7489 20.6364 17.7489 20.6364C17.8399 20.622 17.93 20.6063 18.0191 20.5894C24.2179 20.9181 25 14.6734 25 14.6734L24.9537 14.778L24.9484 14.7887C24.9816 14.7132 24.9978 14.672 24.9978 14.672C24.3511 15.7497 23.6491 16.5585 22.98 17.1633C23.4864 16.4443 23.8057 15.7745 23.8057 15.7745C22.4358 17.6011 20.3236 18.5929 19.2171 19.0136C16.5366 19.3515 15.4849 18.2912 15.1404 17.7787C15.0205 16.2947 16.475 16.4596 16.6872 16.4914C16.7213 16.5021 16.7403 16.5087 16.7403 16.5087L16.7078 16.4947L16.7128 16.4956L16.7016 16.4921C16.5817 16.4416 16.4592 16.3976 16.3345 16.3604C16.0379 16.2655 15.7297 16.2115 15.4185 16.1998C11.7786 16.0656 12.9925 18.817 13.3206 19.4528C9.35895 17.1327 8.84912 13.4807 8.84912 13.4807C8.64483 14.2981 8.63964 15.0586 8.67517 15.5721C7.60617 13.6657 7.56309 11.8231 7.59107 11.1419C7.59297 11.1017 7.59506 11.0614 7.59735 11.021ZM7.60511 10.8958L7.60577 10.8942L7.60484 10.8999L7.60511 10.8958Z" fill="white"/>
</svg>
