<svg width="32" height="32" viewBox="0 0 32 32" fill="none" xmlns="http://www.w3.org/2000/svg">
<circle cx="16" cy="16" r="16" fill="#26E44C"/>
<path d="M16 7C11.0297 7 7 11.0297 7 16C7 20.9703 11.0297 25 16 25C20.9703 25 25 20.9703 25 16C25 13.6131 24.0518 11.3239 22.364 9.63604C20.6761 7.94821 18.3869 7 16 7ZM18.0573 23.677C17.0219 23.9529 15.9414 24.0166 14.8808 23.8642C13.8203 23.7118 12.8014 23.3465 11.8856 22.7903C10.9698 22.2341 10.1759 21.4984 9.55174 20.6276C8.92754 19.7567 8.4859 18.7685 8.25337 17.7226C8.02084 16.6766 8.00223 15.5945 8.19865 14.5411C8.39507 13.4878 8.80247 12.4851 9.39635 11.5932C9.99024 10.7014 10.7583 9.93887 11.6545 9.35149C12.5506 8.7641 13.5563 8.36401 14.611 8.17525C16.6273 7.81899 18.7033 8.25464 20.4063 9.39138C22.1093 10.5281 23.3078 12.2783 23.7522 14.277C24.1965 16.2757 23.8524 18.3688 22.7914 20.12C21.7304 21.8712 20.0346 23.1454 18.0573 23.677ZM18.1982 9.4645C18.1982 9.853 18.1982 10.24 18.2118 10.6285C17.6933 10.427 17.1536 10.2854 16.603 10.2062C16.5805 9.8545 16.681 9.46825 16.5782 9.1345C16.1859 9.10653 15.7922 9.10177 15.3993 9.12025C15.3798 9.48175 15.3865 9.84475 15.3993 10.2078C14.8483 10.2902 14.3083 10.4346 13.7898 10.6382C13.8003 10.2467 13.8047 9.856 13.7995 9.46375C12.4304 9.92474 11.2406 10.8038 10.3977 11.977C9.55477 13.1502 9.10136 14.5584 9.10136 16.003C9.10136 17.4476 9.55477 18.8558 10.3977 20.029C11.2406 21.2022 12.4304 22.0813 13.7995 22.5422C13.7995 22.1582 13.7957 21.7758 13.7882 21.3932C14.3029 21.5947 14.8401 21.7329 15.388 21.805C15.388 22.1567 15.388 22.5085 15.367 22.8565C15.787 22.9165 16.213 22.9165 16.633 22.8565C16.6139 22.5101 16.6039 22.1632 16.603 21.8162C17.1513 21.7392 17.6895 21.6024 18.208 21.4083C18.1961 21.7882 18.1961 22.1683 18.208 22.5483C19.5765 22.0862 20.7655 21.2064 21.6075 20.0327C22.4494 18.8591 22.9018 17.4508 22.9009 16.0064C22.9 14.562 22.4458 13.1543 21.6024 11.9817C20.759 10.8091 19.5689 9.93079 18.1998 9.4705L18.1982 9.46525V9.4645ZM19.2242 19.9165C18.319 20.7378 17.032 20.932 15.8492 20.9147C14.8135 20.9147 13.7148 20.6335 12.9655 19.8827C12.568 19.4987 12.343 18.9858 12.1412 18.4765C12.8657 18.289 13.6135 18.226 14.3433 18.07C14.3886 18.2906 14.4914 18.4954 14.6413 18.6636C14.7912 18.8317 14.9828 18.9574 15.1967 19.0278C15.859 19.2348 16.6795 19.264 17.2315 18.7915C17.623 18.4668 17.6342 17.7565 17.149 17.5128C16.0112 16.9255 14.5938 17.125 13.5182 16.381C12.037 15.4472 11.9275 12.9707 13.3773 11.9627C14.4858 11.185 15.9677 11.0882 17.2533 11.4002C18.4157 11.6942 19.2445 12.6797 19.6435 13.771C18.928 13.8948 18.2133 14.0215 17.4977 14.1423C17.3095 13.006 15.7188 12.736 14.9283 13.3983C14.4783 13.7725 14.5938 14.5698 15.1562 14.7692C16.3862 15.2793 17.8637 15.1322 18.9535 15.9858C20.2188 16.8438 20.3507 18.8935 19.2242 19.9165Z" fill="white"/>
</svg>
