<svg width="32" height="32" viewBox="0 0 32 32" fill="none" xmlns="http://www.w3.org/2000/svg">
<circle cx="16" cy="16" r="16" fill="#FB3E83"/>
<path fill-rule="evenodd" clip-rule="evenodd" d="M9.83009 21.0245L10.4724 23.0945L11.6276 22.7467L11.5916 22.6297L12.8181 24.4207L13.8195 23.7547L13.7345 23.632L15.4502 25L16.2111 24.0755L16.0794 23.9707L18.1575 24.7562L18.5904 23.6451L18.4799 23.6042L20.6514 23.7531L20.7356 22.5667L20.5679 22.5545L22.7377 22.0611L22.4653 20.9017L22.2689 20.9467L24.2309 19.8299L23.6271 18.799L23.4389 18.907L25 17.2575L24.1164 16.4459L23.9691 16.6014L24.9755 14.5706L23.8889 14.0486L23.8014 14.227L24.1581 12.0081L22.9644 11.8215L22.9398 11.977L22.588 9.79082L21.3951 9.97736L21.4033 10.0305L20.4673 8.13727L19.3815 8.65927L19.4126 8.72145L17.9514 7.17836L17.0677 7.99L17.1414 8.06691L15.2645 7L14.6606 8.03091L14.7956 8.10782L12.6446 7.61855L12.373 8.77791L12.5767 8.82373L10.3251 8.97918L10.4085 10.1655L10.6605 10.1492L8.50955 10.9625L8.94318 12.0735L9.17227 11.986L7.37227 13.4227L8.13236 14.3473L8.251 14.2524L7 16.0802L8.00145 16.7454L8.08164 16.6275L7.42955 18.7303L8.584 19.0788L8.62164 18.9577V21.1398H9.83091L9.83009 21.0245ZM9.83009 19.6106V17.6225H9.03645L9.628 15.7153L8.86464 15.4845L9.99782 13.8294L9.33427 13.3884L10.9068 12.1341L10.4028 11.5205L12.2756 10.8127L11.9811 10.0575L13.9709 9.92091L13.9136 9.12809L15.8527 9.56909L16.0303 8.80982L17.7525 9.78918L18.142 9.12482L19.5026 10.5624L20.0672 10.0445L20.9459 11.8199L21.6381 11.4877L21.9539 13.4514L22.7222 13.3311L22.4064 15.2955L23.2098 15.4215L22.3237 17.2101L23.0585 17.5635L21.6815 19.0183L22.2787 19.5665L20.536 20.5581L20.9402 21.2486L18.9872 21.6929L19.1664 22.4579L17.1733 22.3205L17.1193 23.0895L15.2571 22.3851L14.9805 23.0945L13.4358 21.8615L12.9375 22.4669L11.8232 20.8387L11.1703 21.2724L10.5845 19.3832L9.83009 19.6106ZM15.7619 17.3811C15.7668 17.5071 15.7403 17.6324 15.6847 17.7457C15.6292 17.859 15.5463 17.9566 15.4436 18.0299C15.2309 18.1821 14.9364 18.2582 14.5584 18.2582C13.5414 18.2582 13.0325 17.8311 13.0325 16.9777H11.437C11.437 17.4768 11.5646 17.9162 11.8191 18.295C12.0768 18.6738 12.4491 18.9741 12.9367 19.1934C13.4484 19.4143 14.001 19.5247 14.5584 19.5174C15.4134 19.5174 16.0933 19.3275 16.5989 18.9487C17.1037 18.5658 17.3565 18.0405 17.3565 17.3705C17.3565 16.7691 17.1504 16.2659 16.7364 15.8617C16.3232 15.4584 15.6645 15.1196 14.7596 14.8472C14.2687 14.6983 13.8965 14.5387 13.642 14.3694C13.3908 14.1992 13.2656 13.9881 13.2656 13.7369C13.2656 13.4677 13.3736 13.2517 13.5888 13.0889C13.804 12.922 14.1067 12.8394 14.4954 12.8394C14.8979 12.8394 15.2105 12.9375 15.433 13.1364C15.6555 13.3311 15.7668 13.606 15.7668 13.9603H17.3565C17.3634 13.5191 17.2381 13.0859 16.9965 12.7166C16.7511 12.3445 16.4033 12.0513 15.9951 11.8723C15.5639 11.6702 15.073 11.5695 14.5215 11.5695C13.9734 11.5695 13.4792 11.6612 13.0374 11.8453C12.5996 12.0294 12.2625 12.2871 12.0253 12.616C11.7924 12.941 11.67 13.3322 11.6759 13.732C11.6759 14.5355 12.1136 15.1753 12.9899 15.6498C13.3115 15.8233 13.7475 16 14.299 16.1808C14.8505 16.3575 15.2317 16.5277 15.4436 16.6905C15.6564 16.8501 15.7619 17.08 15.7619 17.3811ZM20.6137 12.6373L18.7736 12.3755L17.8188 18.1551L19.0813 18.2435L20.6137 12.6373ZM19.2768 18.8276L17.5848 18.4185L17.1995 20.3184L18.8784 20.8085L19.2768 18.8276Z" fill="white"/>
</svg>
