<svg width="32" height="32" viewBox="0 0 32 32" fill="none" xmlns="http://www.w3.org/2000/svg">
<circle cx="16" cy="16" r="16" fill="#00AFF0"/>
<path fill-rule="evenodd" clip-rule="evenodd" d="M16.0559 7L21.5907 8.73997L24.8856 14.1424L24.0447 19.9642L20.4947 23.2238L16.038 25L10.7898 23.2182L7.11475 17.5766L7.95704 11.713L11.5756 8.73267L16.0559 7ZM15.9855 7.49968L12.7734 8.74191L17.0023 8.88619L15.9855 7.49968ZM16.778 9.31945L12.0192 9.15709L13.1114 11.8679L16.778 9.31945ZM12.7313 12.1036L9.3178 13.8868L11.6614 9.44816L12.7313 12.1036ZM10.9807 9.79352L8.40982 11.9109L8.86891 13.7932L10.9807 9.79352ZM8.56016 14.387L8.21902 12.9883L7.77555 16.0756L8.56016 14.387ZM12.2672 23.2544L15.1109 24.2199L14.0577 23.2544H12.2672ZM14.7098 23.2544L16.0788 24.5094L19.2276 23.2544H14.7098ZM21.0053 22.1567L23.5619 19.8093L22.7252 18.2753L21.0053 22.1567ZM22.4349 17.3285L21.9249 12.5767L18.5154 14.6707L22.4349 17.3285ZM18.2873 14.2937L17.7235 9.56832L21.6971 12.1995L18.2873 14.2937ZM21.7859 11.7298L21.2672 9.15471L18.1299 9.30895L21.7859 11.7298ZM17.5559 8.89598L20.2036 8.76581L16.6386 7.64511L17.5559 8.89598ZM21.9086 10.1075L22.3065 12.0828L23.8414 13.2766L21.9086 10.1075ZM24.3733 14.2485L22.8485 17.0522L22.3812 12.6991L24.3733 14.2485ZM24.2624 15.3747L22.9556 17.7775L23.7144 19.1686L24.2624 15.3747ZM17.273 9.51205L13.4462 12.1718L17.8429 14.2888L17.273 9.51205ZM17.6363 14.6784L13.2098 12.5471L12.9093 17.3835L17.6363 14.6784ZM12.4718 17.3184L12.7661 12.5826L9.18079 14.4555L12.4718 17.3184ZM12.2804 17.7359L9.05394 14.9292L9.39495 19.3098L12.2804 17.7359ZM8.93016 19.017L8.63809 15.265L7.60458 17.4893L8.93016 19.017ZM11.0673 22.8138H13.4289L9.79396 20.3365L11.0673 22.8138ZM9.62355 19.6871L13.7673 22.5112L12.5268 18.1035L9.62355 19.6871ZM13.0059 18.1791L14.268 22.6636L17.4635 20.2468L13.0059 18.1791ZM18.124 19.8363L18.3137 15.0664L22.2706 17.7495L18.124 19.8363ZM22.2539 18.2512L18.2425 20.27L20.3137 22.6297L22.2539 18.2512ZM19.889 22.8138L17.8585 20.5006L14.8 22.8138H19.889ZM17.8733 15.0505L13.1434 17.7572L17.6819 19.8624L17.8733 15.0505Z" fill="white"/>
</svg>
