<svg width="32" height="32" viewBox="0 0 32 32" fill="none" xmlns="http://www.w3.org/2000/svg">
<circle cx="16" cy="16" r="16" fill="#3CA391"/>
<path fill-rule="evenodd" clip-rule="evenodd" d="M7 12.3019H14.5753V11.9815H7V12.3019ZM7 11.3704H14.5753V11.05H7V11.3704ZM10.195 20.9464H10.4992V12.9427H10.195V20.9464ZM11.077 20.9464H11.3803V12.9427H11.077V20.9464ZM24.7858 20.2912L25 20.0644L21.5818 16.4536L21.3676 16.6795L24.7858 20.2912ZM16.4671 11.05L16.2529 11.2768L19.6711 14.8876L19.8853 14.6617L16.4671 11.05ZM24.1621 20.95L24.3763 20.7232L20.9581 17.1115L20.7439 17.3383L24.1621 20.95ZM15.8443 11.7088L15.6292 11.9356L19.0474 15.5464L19.2625 15.3196L15.8443 11.7088ZM20.7232 16L20.3146 16.432L20.1004 16.6588L16.2529 20.7232L16.4671 20.95L20.3146 16.8856L20.5297 16.6588L20.9383 16.2268L21.1525 16L25 11.9356L24.7858 11.7088L20.9383 15.7732L20.7232 16ZM20.3146 15.1144L20.1004 15.3412L19.6909 15.7732L19.4767 16L15.6292 20.0644L15.8443 20.2912L19.6909 16.2268L19.906 16L20.3146 15.568L20.5288 15.3412L24.3763 11.2768L24.163 11.05L20.3146 15.1144Z" fill="white"/>
</svg>
