<svg width="32" height="32" viewBox="0 0 32 32" fill="none" xmlns="http://www.w3.org/2000/svg">
<circle cx="16" cy="16" r="16" fill="#2B292C"/>
<path fill-rule="evenodd" clip-rule="evenodd" d="M15.7667 13.8999C15.5671 14.6649 15.1163 14.9717 14.9657 15.0732C14.9657 15.3285 15.3167 16.8086 16.0171 16.8086C16.5178 16.8086 16.9687 16.3496 17.1184 15.074C16.868 14.8695 16.6185 14.4104 16.4679 13.8999C16.2675 13.9506 16.0179 14.0022 15.7667 13.8999ZM15.0156 18.3909C15.1163 18.7992 15.4166 19.8195 16.067 19.8195C16.5178 19.8195 17.0186 19.2582 17.1184 18.4417C16.7682 18.2371 16.6185 17.7789 16.4679 17.0638C16.2675 17.1146 15.9672 17.1661 15.7667 17.0638C15.5164 17.7266 15.3167 18.1357 15.0156 18.3909ZM11.0106 19.9725C11.261 20.3816 11.7617 21.0443 12.3123 20.7891C12.4629 20.7383 12.5128 20.3301 12.4629 19.9725C12.062 19.7172 11.8116 19.2582 11.5113 18.5439C11.4115 18.5947 11.261 18.5947 11.1104 18.5439C11.2111 19.309 11.2111 19.7172 11.0106 19.9725ZM8.90785 18.5947C9.10831 19.7172 9.15822 19.8195 9.10831 19.9725C9.45849 20.6361 9.8095 20.9421 10.2595 20.8913C10.41 20.8913 10.3102 20.4831 10.1098 20.0748C10.1098 20.0748 9.50922 19.5642 9.15822 18.6462C9.0584 18.5947 9.00849 18.5947 8.90785 18.5947ZM7.5562 18.5947C7.5562 18.4417 7.9072 19.4112 8.35803 19.8711C8.55766 20.0241 8.75812 20.1771 8.95858 20.5338C9.00767 20.6361 8.05693 20.7383 7.5562 18.5947ZM13.664 19.9725C13.9144 20.8913 14.6156 20.8913 14.8659 20.7891C15.2161 20.7383 15.3667 20.4323 15.4166 19.8711C14.9666 19.5642 14.816 18.9007 14.7154 18.4417C14.5656 18.4924 14.3145 18.4924 14.1148 18.4417C14.0649 19.156 14.0142 19.7181 13.664 19.9725ZM9.35867 18.3909C9.55913 18.9007 10.1605 19.8711 10.6105 19.8711C10.811 19.8711 10.9108 19.5135 10.811 18.4417C10.5099 18.2371 10.2595 17.8297 10.1098 17.1653C10.01 17.2168 9.8095 17.2168 9.65977 17.1653C9.60904 17.7274 9.55913 18.1357 9.35867 18.3909ZM7.80657 18.3909C7.95711 18.7992 8.3073 19.6673 8.75812 19.8195C8.95858 19.9218 8.95858 19.615 8.70821 18.4417C8.70821 18.4417 8.35721 18.1357 8.10684 17.1653H7.90802C7.86358 17.5729 7.8292 17.9816 7.80657 18.3909ZM11.8116 18.3909C11.8623 18.5955 12.3623 19.6158 12.9636 19.7688C13.664 19.9218 13.7147 19.003 13.7147 18.4417C13.3637 18.2371 13.1134 17.8297 12.9636 17.1653C12.8131 17.2168 12.5627 17.2676 12.3123 17.1653C12.2125 17.8297 12.062 18.1864 11.8116 18.3909ZM11.3616 18.2379C11.6619 18.2379 11.9122 17.7781 12.0121 16.9108C11.7617 16.6556 11.4614 16.1966 11.4115 15.1247C11.261 15.1755 11.1112 15.1755 11.0106 15.1247C10.8609 16.0943 10.7103 16.6556 10.41 16.9616C10.41 17.2676 10.7602 18.2379 11.3616 18.2379ZM8.25739 16.9616C8.50776 17.9827 8.75812 18.2379 8.95858 18.2379C9.40858 18.2379 9.30876 17.4721 9.35949 16.9108C9.20813 16.7063 8.90785 16.1966 8.90785 15.1247H8.65748C8.35721 16.7063 8.35721 16.7578 8.25657 16.9616H8.25739ZM7.25592 15.1755C7.1561 15.1247 6.65537 17.2676 7.40647 18.1864C7.50629 18.2887 7.50629 17.0131 7.50629 17.0131C7.30583 16.5533 7.40647 15.227 7.25592 15.1755ZM13.2639 16.9616C13.3138 17.1146 13.6141 18.2379 14.4151 18.2379C14.9158 18.2379 15.3167 17.6758 15.4166 16.8593C15.0156 16.4518 14.816 15.8897 14.7154 15.1247C14.5656 15.1755 14.3145 15.1755 14.1148 15.1247C13.8145 16.145 13.6141 16.7063 13.2639 16.9616ZM9.15822 14.9717C9.20813 15.8897 9.40858 16.8086 9.8095 16.8086C10.2595 16.8086 10.46 15.7883 10.6105 14.9202C10.46 14.8187 10.2595 14.5119 10.2595 13.8483C10.2045 13.8975 10.1333 13.9247 10.0595 13.9247C9.98566 13.9247 9.91444 13.8975 9.85941 13.8483C9.8095 13.9506 9.55913 14.8187 9.15822 14.9717ZM7.90638 16.8593C8.15757 16.8593 8.40712 14.9717 8.40712 14.9717C8.3073 14.8187 8.20748 14.5119 8.25739 13.8483C8.20748 13.8999 8.10684 13.8483 8.05693 13.8483C7.93911 14.2428 7.77081 14.6204 7.5562 14.9717C7.45638 15.533 7.5562 16.8593 7.9072 16.8593H7.90638ZM11.7118 14.9717C11.7617 15.5837 12.062 16.8086 12.6633 16.8086C13.3138 16.8086 13.6141 15.8897 13.7646 14.9717C13.4136 14.7672 13.2639 14.4104 13.1633 13.8483C12.9129 13.8999 12.7133 13.8999 12.5128 13.7976C12.3123 14.3082 11.9122 14.8695 11.7118 14.9717ZM12.1618 13.5939C12.0121 13.3893 11.8116 13.0318 11.9122 12.2668H11.5612C11.3109 12.7773 11.0106 13.3893 10.6105 13.6953C10.6105 13.7976 10.6604 14.8695 11.1611 14.8695C11.5621 14.8695 11.8623 14.4104 12.1626 13.5931L12.1618 13.5939ZM9.70886 12.3175H9.50922C9.50922 12.3691 8.85794 13.5423 8.55766 13.7469C8.45785 14.2566 8.45785 14.8695 8.75812 14.9202C9.0584 14.9202 9.25885 14.6649 9.65895 13.6438C9.55913 13.3902 9.45849 13.0318 9.70886 12.3183V12.3175ZM8.25739 12.3691C7.50629 12.8788 7.10619 14.7164 7.30583 14.7672C7.35574 14.8187 7.95711 13.9506 7.9072 13.4401C7.85647 13.0833 8.40712 12.3175 8.25739 12.3682V12.3691ZM15.3667 13.5939C15.1662 13.3893 14.9166 13.0318 14.816 12.2668C14.636 12.3175 14.4454 12.3175 14.2654 12.2668C14.1148 12.7258 13.8645 13.3386 13.3637 13.6953C13.4644 14.2059 13.7147 14.8187 14.1655 14.8695C15.0165 14.8695 15.2161 14.1552 15.3667 13.5931V13.5939ZM8.55766 12.2152C8.05693 12.9811 8.05693 13.6446 8.25739 13.6446C8.50776 13.6446 9.20813 12.3682 9.35867 12.1138C9.30876 11.8585 9.85941 11.348 9.65895 11.2972C9.30876 11.2972 8.65748 12.1645 8.55766 12.2152ZM20.8739 18.5439C20.7233 18.5947 20.5728 18.5947 20.473 18.5439C20.2725 19.2067 19.9722 19.7172 19.5214 19.9725C19.4723 20.3301 19.4723 20.7383 19.672 20.7891C20.2226 20.9936 20.7733 20.3808 20.9737 19.9725C20.8232 19.7172 20.8232 19.3098 20.8739 18.5439ZM22.876 18.5439C22.5258 19.4628 21.9253 19.9725 21.9253 19.9725C21.6749 20.4323 21.5743 20.7891 21.7747 20.7891C22.2247 20.7891 22.5757 20.5338 22.9259 19.8711C22.8768 19.7172 22.9259 19.6158 23.1264 18.4924C23.0266 18.5947 22.9259 18.5947 22.876 18.5439ZM23.6778 19.8711C24.1278 19.4112 24.4281 18.4417 24.5288 18.5947C24.028 20.7383 23.0765 20.6361 23.1264 20.5338C23.2769 20.1771 23.4766 20.0748 23.677 19.8711H23.6778ZM17.9194 18.5439C17.7198 18.5947 17.5185 18.5947 17.3189 18.5439C17.219 19.003 17.0186 19.6158 16.6185 19.9725C16.7183 20.4831 16.8181 20.7891 17.1691 20.8913C17.4195 20.9421 18.1199 20.9421 18.3702 20.0748C18.07 19.7172 17.9194 19.156 17.9194 18.5439ZM22.4252 17.1146C22.3565 17.1531 22.279 17.1734 22.2002 17.1734C22.1214 17.1734 22.0439 17.1531 21.9752 17.1146C21.8246 17.6758 21.5743 18.1864 21.274 18.3909C21.1742 19.4628 21.274 19.8195 21.4744 19.8195C21.8754 19.8195 22.5258 18.8499 22.7263 18.3394C22.4759 18.1349 22.4252 17.7274 22.4252 17.1146ZM24.2277 17.2168H24.028C23.7777 18.1357 23.4267 18.4932 23.4267 18.4932C23.1763 19.6158 23.1264 19.9218 23.3776 19.8711C23.7777 19.7172 24.1278 18.8499 24.3283 18.4417C24.2277 18.2887 24.2277 17.6251 24.2277 17.2168ZM19.7718 17.1146C19.5214 17.2168 19.2719 17.1661 19.1213 17.1146C18.9708 17.7274 18.7204 18.1864 18.3702 18.3909C18.3702 18.9007 18.4201 19.8711 19.1213 19.7172C19.672 19.6158 20.2226 18.5947 20.2725 18.3394C19.9722 18.1864 19.8716 17.8297 19.7718 17.1146ZM21.6749 16.9616C21.4245 16.6556 21.274 16.0436 21.0735 15.1247C20.9448 15.1758 20.8014 15.1758 20.6726 15.1247C20.6235 16.1966 20.3233 16.7063 20.0729 16.9108C20.1727 17.7274 20.4231 18.2379 20.7233 18.2379C21.2241 18.2379 21.6242 17.2676 21.6749 16.9616ZM23.4267 15.1247C23.3268 15.1247 23.2769 15.1755 23.1763 15.1247C23.1763 16.1966 22.9259 16.7063 22.7263 16.9108C22.7754 17.4214 22.6756 18.2379 23.1272 18.2379C23.3268 18.2379 23.5772 17.9311 23.8276 16.9616C23.7269 16.757 23.677 16.7063 23.4267 15.1247ZM24.478 16.9616C24.478 16.9616 24.478 18.2379 24.5787 18.1357C25.3289 17.3191 24.8789 15.0732 24.7284 15.1247C24.6286 15.227 24.7284 16.5533 24.478 16.9616ZM18.07 15.1247C17.8196 15.1755 17.5692 15.1755 17.4694 15.1247C17.3688 15.8897 17.1184 16.4518 16.7682 16.8593C16.9188 17.6251 17.2182 18.2887 17.7697 18.2379C18.4709 18.2379 18.871 17.1146 18.9209 16.9616C18.4709 16.7063 18.2205 16.145 18.07 15.1247ZM22.2255 13.8483C22.1605 13.8936 22.0853 13.9219 22.0066 13.9309C21.928 13.9399 21.8483 13.9293 21.7747 13.8999C21.7747 14.5119 21.5743 14.8695 21.4245 15.0225C21.5743 15.9413 21.7747 16.9108 22.2255 16.9108C22.6265 16.9108 22.876 15.9413 22.876 15.0732C22.5258 14.8187 22.2255 13.9506 22.2255 13.8483ZM24.478 14.9717C24.478 14.9717 24.2277 14.5119 24.028 13.8483C24.0005 13.8731 23.9648 13.8868 23.9278 13.8868C23.8908 13.8868 23.8551 13.8731 23.8276 13.8483C23.8775 14.4104 23.7777 14.7672 23.677 14.9202C23.677 14.9202 23.9274 16.8086 24.1778 16.8086C24.4281 16.8593 24.5279 15.5322 24.478 14.9717ZM19.5722 13.8483C19.3717 13.9506 19.1213 13.9506 18.9209 13.8999C18.871 14.4104 18.6705 14.8187 18.3702 15.0225C18.5208 15.992 18.7204 16.9108 19.4715 16.8593C20.0222 16.8593 20.3732 15.6353 20.4231 15.0225C20.1228 14.8695 19.7718 14.3082 19.5722 13.8483ZM20.824 14.8187C21.3239 14.8187 21.3738 13.7976 21.3738 13.6446C21.0236 13.3893 20.7233 12.8281 20.4231 12.2668C20.3233 12.3175 20.2226 12.3175 20.0729 12.2668C20.1727 12.9811 20.0222 13.3893 19.8225 13.5939C20.1727 14.4104 20.4738 14.8694 20.824 14.8187ZM22.4252 13.5939C22.7762 14.6142 22.9766 14.8695 23.227 14.8695C23.5273 14.8187 23.5273 14.2566 23.4267 13.6953C23.1763 13.5423 22.4759 12.3175 22.4759 12.2668H22.2755C22.5757 13.0318 22.4759 13.3893 22.4252 13.5939ZM24.127 13.4401C24.0779 13.8999 24.6286 14.8187 24.6785 14.7672C24.829 14.7164 24.5279 12.8788 23.7269 12.3691C23.6778 12.3175 24.1778 13.0833 24.1278 13.4409L24.127 13.4401ZM17.7697 14.8187C18.2704 14.7672 18.5208 14.2566 18.5707 13.6446C18.1698 13.3386 17.9194 12.7258 17.7689 12.2668C17.5891 12.3175 17.3988 12.3175 17.219 12.2668C17.1691 12.9811 16.9188 13.4401 16.6684 13.5939C16.8181 14.1552 17.0186 14.8694 17.7697 14.8187ZM22.4252 11.2972C22.2255 11.2972 22.7762 11.8585 22.7263 12.1138C22.876 12.3691 23.5273 13.6438 23.8276 13.6438C24.028 13.6438 24.028 13.0318 23.4766 12.2152C23.4275 12.1645 22.6756 11.2972 22.4252 11.2972ZM11.3109 11.4502C11.3109 11.4502 11.4115 11.195 11.2618 11.1442C11.0106 11.1442 10.3102 12.1138 10.01 12.2668C9.95923 12.3691 9.55913 13.5432 10.059 13.6446C10.5099 13.6953 11.0106 12.8281 11.3109 12.2152C11.1611 12.0622 11.2111 11.7571 11.3109 11.4502ZM13.664 11.3995C13.664 11.348 13.664 11.0927 13.4136 11.0927C13.1134 11.0927 12.7133 12.0622 12.2624 12.2152C12.1626 12.7773 12.2624 13.5423 12.7124 13.5939C13.3637 13.6446 13.7646 12.8281 13.9643 12.2152C13.7147 12.0622 13.664 11.7055 13.664 11.3995ZM20.7741 12.2152C21.0735 12.7773 21.5244 13.6962 22.0251 13.6446C22.5258 13.5423 22.1249 12.3682 22.075 12.2668C21.7747 12.1138 21.0735 11.1442 20.8232 11.1442C20.6734 11.1442 20.7741 11.3995 20.7741 11.4502C20.8739 11.7562 20.8739 12.0622 20.7741 12.2152ZM18.1199 12.2152C18.3203 12.7773 18.6705 13.6962 19.3717 13.5939C19.8724 13.5423 19.9722 12.8788 19.8217 12.2152C19.4216 12.0622 18.9217 11.042 18.6705 11.0927C18.4201 11.0927 18.4201 11.348 18.4201 11.3995C18.371 11.7055 18.3203 12.0622 18.1199 12.2152ZM16.0171 11.0927C15.4665 11.0927 15.6669 12.0115 15.0664 12.2668C15.1155 12.7258 15.266 13.6446 15.9672 13.6446C16.769 13.6446 16.9188 12.5221 16.9188 12.2668C16.5178 12.0622 16.5178 11.0927 16.0171 11.0927Z" fill="white"/>
</svg>
