<svg width="32" height="32" viewBox="0 0 32 32" fill="none" xmlns="http://www.w3.org/2000/svg">
<circle cx="16" cy="16" r="16" fill="#D6394D"/>
<path d="M12.7037 14.5499C12.5905 14.3553 12.5328 14.1057 12.5328 13.8095V12.9352C12.5328 12.5491 12.6598 12.3846 12.956 12.3846C13.2522 12.3846 13.3791 12.5491 13.3791 12.9352V13.975L14.0238 13.454C14.113 13.3821 14.1648 13.2735 14.1645 13.1589V12.8892C14.1645 12.0873 13.7805 11.7139 12.9549 11.7139C12.1637 11.7139 11.7453 12.1402 11.7453 12.9468V13.9475C11.7453 14.3738 11.8574 14.651 12.069 15.0127L13.1845 16.9554C13.3426 17.2379 13.4013 17.4515 13.4013 17.743V18.9066C13.4013 19.1842 13.3246 19.5148 12.9544 19.5148C12.6429 19.5148 12.4842 19.3101 12.4842 18.9066V17.7858L11.8204 18.3327C11.7432 18.3964 11.6986 18.4913 11.6988 18.5913V18.9526C11.6944 19.6183 12.2223 20.1657 12.8877 20.1855H12.9549V20.1871C13.3336 20.1871 13.6436 20.0797 13.8588 19.8671C14.0741 19.6544 14.1878 19.3392 14.1878 18.9542V17.6425C14.1881 17.2834 14.092 16.9309 13.9096 16.6217L12.7037 14.5499Z" fill="white"/>
<path d="M19.7098 20.1285L18.6864 15.9654V20.1285H17.9004V11.9182C17.9007 11.8491 17.9566 11.7931 18.0257 11.7929H18.6863V15.3582L19.6061 11.7928H20.3937L19.2967 15.601L20.4968 20.1285H19.7098Z" fill="white"/>
<path d="M16.2949 12.5136V20.1812H15.5068V12.5163H14.4961V12.0402C14.4964 11.9314 14.5845 11.8432 14.6934 11.843H17.5495L17.1412 12.5136H16.2949Z" fill="white"/>
<path fill-rule="evenodd" clip-rule="evenodd" d="M22.7055 10.2055L24.37 13.0875C24.9946 14.1626 25.1632 15.4428 24.8381 16.6429L23.9765 19.8581C23.658 21.0599 22.872 22.0844 21.7937 22.7031L18.9106 24.3676C18.2012 24.7795 17.3957 24.9968 16.5754 24.9975C16.1634 24.9971 15.7532 24.9426 15.3552 24.8357L12.14 23.9778C10.9382 23.6594 9.91372 22.8734 9.29499 21.795L7.63051 18.9119C7.00517 17.8362 6.83659 16.5548 7.16243 15.3539L8.02402 12.1387C8.34245 10.9369 9.12845 9.91243 10.2068 9.29368L13.0899 7.6292V7.63185C13.7993 7.22011 14.6048 7.003 15.4251 7.00245C15.837 7.0019 16.2472 7.05524 16.6452 7.16112L19.8605 8.02272C21.0623 8.34114 22.0868 9.12715 22.7055 10.2055ZM21.2191 22.5312L22.5712 21.3978C23.5042 20.6191 24.0868 19.4993 24.1891 18.2883L24.1975 18.1915C24.0336 18.908 23.7009 19.5824 23.218 20.1548L21.3462 22.3853C21.3048 22.4349 21.2624 22.4835 21.2191 22.5312ZM16.8309 24.4612C16.9668 24.4734 17.1028 24.4792 17.2376 24.4792C18.3121 24.48 19.3522 24.1004 20.1736 23.4076L20.2503 23.3433C19.6268 23.7355 18.9131 23.9779 18.1653 24.0413L15.2643 24.2952C15.2007 24.3007 15.1371 24.3049 15.0736 24.3078L16.8293 24.4612H16.8309ZM9.4683 21.2181L10.6019 22.5704C11.3809 23.5032 12.5005 24.0859 13.7114 24.1888L13.8149 24.1979C13.0938 24.0343 12.417 23.7 11.8443 23.2167L9.61392 21.3449C9.56439 21.3036 9.51588 21.2612 9.4683 21.2181ZM10.7732 9.47561L9.42933 10.6022C8.49651 11.3812 7.91378 12.5007 7.81087 13.7117L7.80246 13.8079C7.96621 13.091 8.29915 12.4161 8.78248 11.8436L10.6543 9.61261C10.6931 9.56608 10.7328 9.52043 10.7732 9.47561ZM15.1701 7.53876C15.0342 7.5266 14.8983 7.52078 14.7634 7.52078C13.6887 7.51986 12.6484 7.89947 11.8269 8.59235L11.7603 8.64818C12.3812 8.25986 13.0911 8.0197 13.8346 7.9566L16.7357 7.70325C16.7942 7.69791 16.8528 7.69385 16.9112 7.69087L15.1701 7.53876ZM22.5202 10.7694L21.3975 9.43014C20.6187 8.49698 19.4991 7.91402 18.288 7.81115L18.1995 7.80342C18.9153 7.9682 19.5871 8.3012 20.1562 8.78117L22.3866 10.6535C22.4319 10.6914 22.4765 10.73 22.5202 10.7694ZM10.7347 9.68032L10.6245 9.81158C11.1868 9.27537 11.8798 8.88332 12.6446 8.68068L15.2473 7.98305C15.3487 7.95584 15.4509 7.93209 15.5537 7.91172L13.8441 8.06133C12.6332 8.16419 11.5134 8.7473 10.7347 9.68032ZM10.9172 22.1081L13.2507 23.4552C13.9441 23.8581 14.7316 24.0699 15.5335 24.0704C15.9363 24.0696 16.3372 24.0163 16.7262 23.9117L19.3284 23.2141C20.5032 22.9029 21.5047 22.1346 22.1094 21.0804L23.4592 18.7485C24.0699 17.6976 24.2347 16.4461 23.9167 15.273L23.217 12.6708C22.9051 11.4968 22.1366 10.4964 21.0828 9.89241L18.7498 8.54527C18.0568 8.14113 17.2692 7.92745 16.467 7.92592C16.0642 7.92664 15.6633 7.97998 15.2743 8.08459L12.6721 8.78222C11.4971 9.09368 10.4956 9.86213 9.89055 10.9164L8.54341 13.2494C7.93316 14.3004 7.76843 15.5517 8.08591 16.7249L8.78354 19.3276C9.0948 20.5022 9.86311 21.5035 10.9172 22.1081ZM18.8021 8.45113L21.1346 9.79827C21.2239 9.8495 21.3112 9.90357 21.3963 9.96022L20.0885 8.86262C19.1596 8.07863 17.9558 7.69869 16.7452 7.80745L16.5676 7.82299C17.353 7.84032 18.1218 8.05609 18.8021 8.45113ZM8.45244 13.1997L9.79957 10.8635C9.851 10.7739 9.9053 10.6863 9.9622 10.6008L8.86287 11.9107C8.07942 12.8398 7.69988 14.0435 7.80875 15.254L7.8239 15.4271C7.84241 14.6506 8.0551 13.8836 8.45244 13.1997ZM8.6841 19.3546L7.98435 16.7545C7.95746 16.6552 7.93402 16.5553 7.91386 16.4551L8.06263 18.155C8.1655 19.3661 8.74845 20.4857 9.68162 21.2645L9.82364 21.3838C9.28298 20.8198 8.88783 20.1235 8.6841 19.3546ZM13.2005 23.5467L10.8669 22.1996C10.7725 22.1454 10.6804 22.0881 10.5906 22.0279L11.9104 23.1363C12.8398 23.9204 14.0443 24.3 15.2553 24.1904L15.4334 24.1748C14.6486 24.1572 13.8803 23.9415 13.2005 23.5467ZM19.358 23.3198L16.7553 24.0175C16.6601 24.0428 16.5642 24.065 16.4678 24.0843L18.1563 23.9366C19.3672 23.834 20.4868 23.2512 21.2653 22.3181L21.3703 22.1929C20.8097 22.7266 20.1196 23.1171 19.358 23.3198ZM23.5465 18.8008L22.2009 21.1333C22.1497 21.2229 22.0956 21.3104 22.0388 21.3959L23.1371 20.0866C23.921 19.1578 24.3006 17.9539 24.1912 16.7434L24.1756 16.5645C24.1584 17.3441 23.9454 18.1144 23.5465 18.8008ZM23.3174 12.6433L24.0151 15.246C24.0428 15.3484 24.0668 15.4514 24.0874 15.5547L23.9379 13.8434C23.8352 12.6324 23.2522 11.5128 22.3189 10.7344L22.1873 10.6241C22.7231 11.1862 23.1149 11.8788 23.3174 12.6433ZM7.70455 15.2624C7.69896 15.2007 7.69468 15.1389 7.69157 15.0772L7.53848 16.8296C7.42892 18.04 7.80833 19.2439 8.59207 20.1728L8.65569 20.2487C8.26357 19.6251 8.02119 18.9114 7.9579 18.1635L7.70455 15.2624ZM24.2959 16.7349C24.3014 16.796 24.3057 16.8571 24.3088 16.9181L24.4615 15.1704C24.5707 13.9601 24.1912 12.7564 23.4074 11.8277L23.3533 11.7632C23.7403 12.3834 23.9797 13.0921 24.0426 13.8344L24.2959 16.7349ZM23.473 11.743L22.6145 10.2563C22.0228 9.22527 21.0518 8.46762 19.9103 8.14333C20.5085 8.42954 21.0446 8.84302 21.4774 9.36244L23.473 11.743ZM18.2544 7.70062L16.6177 7.26373C16.2288 7.15886 15.8278 7.10552 15.4251 7.10505C14.6522 7.10561 13.8928 7.30283 13.2179 7.67738C13.7105 7.50484 14.2323 7.41514 14.7623 7.41605C14.9015 7.41617 15.0405 7.42235 15.1791 7.43456L18.2544 7.70062ZM11.7247 8.53871L10.2597 9.38466C9.2351 9.97247 8.4806 10.9351 8.15342 12.0673C8.43882 11.4771 8.84839 10.948 9.36163 10.5197L11.7247 8.53871ZM7.70139 13.751L7.26398 15.3836C6.95395 16.5274 7.10294 17.7458 7.67672 18.78C7.45823 18.1576 7.37227 17.4899 7.4327 16.8201L7.70139 13.751ZM8.53802 20.2721L9.38597 21.7395C9.97427 22.7646 10.9375 23.5194 12.0704 23.8468C11.4795 23.5613 10.9497 23.1514 10.521 22.6376L8.53802 20.2721ZM15.3827 24.7357C15.7716 24.8406 16.1726 24.8939 16.5754 24.8944C17.3486 24.8937 18.1083 24.696 18.7833 24.3209C18.29 24.4945 17.7671 24.5849 17.236 24.5845C17.0975 24.5845 16.9589 24.5787 16.8193 24.566L13.7504 24.2979L15.3827 24.7357ZM20.2655 23.466L21.7408 22.6143C22.7683 22.0242 23.5242 21.0574 23.8499 19.9206C23.5643 20.5149 23.1529 21.0475 22.6367 21.4782L20.2655 23.466ZM24.2963 18.2574L24.7365 16.6143C25.0475 15.4649 24.8956 14.2405 24.3154 13.2029C24.5383 13.8301 24.6262 14.504 24.5651 15.1799L24.2963 18.2574Z" fill="white"/>
</svg>
