<svg width="32" height="32" viewBox="0 0 32 32" fill="none" xmlns="http://www.w3.org/2000/svg">
<circle cx="16" cy="16" r="16" fill="#2683FF"/>
<path fill-rule="evenodd" clip-rule="evenodd" d="M23.3447 18.4302C23.2851 18.3966 23.223 18.3676 23.1589 18.3435V13.7472C23.2318 13.7227 23.3046 13.6834 23.3774 13.6523C24.1301 13.2391 24.405 12.3024 23.9844 11.5644C23.8731 11.3719 23.7224 11.205 23.5423 11.0746C23.3621 10.9442 23.1566 10.8532 22.9389 10.8076C22.7213 10.7619 22.4965 10.7625 22.2791 10.8095C22.0617 10.8564 21.8567 10.9486 21.6773 11.0801L17.5506 8.73855C17.5588 8.66655 17.567 8.60355 17.567 8.53156C17.567 7.68233 16.8634 7 16.0043 7C15.1469 7 14.4269 7.69869 14.4269 8.53974C14.4269 8.61174 14.4351 8.67473 14.4433 8.74591L10.3469 11.0719C10.1276 10.9044 9.86855 10.7969 9.59514 10.7599C9.32173 10.7228 9.04339 10.7576 8.7875 10.8608C8.53327 10.9618 8.31057 11.1288 8.14232 11.3445C7.97407 11.5602 7.86636 11.8168 7.83028 12.088C7.79625 12.3583 7.83539 12.6327 7.94361 12.8827C8.05183 13.1326 8.22517 13.349 8.44552 13.5091C8.50279 13.5484 8.55924 13.5885 8.62387 13.6278C8.68933 13.6678 8.7605 13.6997 8.83414 13.7235V18.3116C8.03236 18.629 7.64456 19.5184 7.96773 20.3038C8.1271 20.6838 8.42954 20.986 8.80975 21.145C9.18997 21.3041 9.61747 21.3072 9.99999 21.1538C10.0736 21.1301 10.1374 21.0908 10.2029 21.0589C10.2693 21.0194 10.334 20.9771 10.3968 20.9321L14.4515 23.2262C14.3132 24.059 14.8966 24.8453 15.7458 24.9803C16.5958 25.1153 17.3968 24.5434 17.5342 23.7097C17.5506 23.623 17.5506 23.5436 17.5506 23.4561C17.5495 23.3816 17.544 23.3073 17.5342 23.2335L21.5644 20.9558C21.6298 21.0033 21.6945 21.0507 21.7673 21.0908C22.52 21.5032 23.4747 21.2414 23.8953 20.5034C24.0909 20.1542 24.1428 19.7425 24.04 19.3556C23.9372 18.9688 23.6878 18.6363 23.3447 18.4302ZM23.6286 20.3512C23.4642 20.6201 23.2017 20.8144 22.8966 20.8931C22.5915 20.9717 22.2677 20.9285 21.9939 20.7726C21.7747 20.649 21.6016 20.4576 21.5008 20.227C21.4 19.9965 21.377 19.7394 21.4351 19.4946L19.5411 18.4065C19.2458 18.6979 18.8721 18.8973 18.4656 18.9804C18.0591 19.0635 17.6372 19.0267 17.2512 18.8745C16.9681 18.962 16.361 19.0177 16.361 19.0177V22.2878C16.5172 22.3334 16.6628 22.4097 16.7891 22.5122C16.9155 22.6147 17.0202 22.7414 17.0972 22.8848C17.1741 23.0282 17.2217 23.1855 17.2372 23.3475C17.2526 23.5095 17.2357 23.6729 17.1873 23.8283C16.9853 24.4787 16.2808 24.8363 15.6165 24.6383C15.6083 24.6383 15.6002 24.6301 15.592 24.6301C15.5391 24.6137 15.4879 24.5923 15.439 24.5663C15.2926 24.496 15.1618 24.3971 15.0542 24.2755C14.9466 24.154 14.8643 24.0121 14.8123 23.8583C14.7602 23.7045 14.7394 23.5419 14.7511 23.3799C14.7627 23.218 14.8066 23.06 14.8802 22.9153C15.034 22.6134 15.3097 22.3917 15.6329 22.2886V18.9547C15.3956 18.8827 15.1633 18.7952 14.9375 18.6929C14.5764 18.7639 14.2042 18.756 13.8464 18.6695C13.4887 18.5831 13.1539 18.4202 12.8651 18.1922L10.607 19.4701C10.6428 19.6218 10.6481 19.7792 10.6227 19.933C10.5972 20.0868 10.5415 20.2341 10.4587 20.3662C10.3759 20.4983 10.2677 20.6126 10.1403 20.7026C10.013 20.7926 9.86908 20.8564 9.71691 20.8904C9.0714 21.0417 8.42343 20.6515 8.2688 20.0182C8.23289 19.8664 8.22748 19.709 8.2529 19.5551C8.27831 19.4012 8.33404 19.2538 8.41685 19.1216C8.49966 18.9894 8.6079 18.875 8.73529 18.785C8.86268 18.6949 9.00668 18.6311 9.15894 18.5971C9.35182 18.5518 9.55283 18.5543 9.74457 18.6042C9.93631 18.654 10.113 18.7499 10.2593 18.8835L12.3718 17.6841C12.0265 17.208 11.8643 16.6234 11.9148 16.0375C11.9652 15.4516 12.2251 14.9034 12.6467 14.4933L10.243 13.1434C10.0115 13.3572 9.70519 13.4712 9.39028 13.461C9.07537 13.4507 8.77715 13.3169 8.56006 13.0886C8.45281 12.977 8.36903 12.845 8.31368 12.7005C8.25832 12.5559 8.23251 12.4018 8.23777 12.2471C8.24304 12.0924 8.27927 11.9403 8.34432 11.7999C8.40937 11.6594 8.50193 11.5335 8.61651 11.4294C8.84801 11.2156 9.15441 11.1015 9.46938 11.1119C9.78436 11.1223 10.0826 11.2564 10.2994 11.485C10.4335 11.6235 10.5306 11.7936 10.5815 11.9795C10.6324 12.1654 10.6356 12.3612 10.5907 12.5486L13.2537 14.0483C13.6037 13.8642 13.9915 13.7637 14.3869 13.7546C14.7591 13.4535 15.7131 13.1442 15.7131 13.1442V9.57223C15.5738 9.53254 15.4437 9.46549 15.3306 9.37501C15.2175 9.28452 15.1236 9.17241 15.0543 9.04522C14.985 8.91803 14.9417 8.7783 14.927 8.6342C14.9122 8.4901 14.9264 8.34452 14.9685 8.20594C15.1469 7.6267 15.7703 7.30926 16.361 7.48434C16.9517 7.6586 17.2839 8.26975 17.1055 8.84981C17.0518 9.0237 16.9556 9.18146 16.8256 9.30887C16.6956 9.43627 16.5359 9.52931 16.361 9.57959V13.0812C16.361 13.0812 18.1094 13.5091 18.66 14.1522L21.4916 12.5732C21.4566 12.4213 21.4522 12.264 21.4786 12.1104C21.5049 11.9568 21.5616 11.81 21.6451 11.6785C21.7287 11.5469 21.8376 11.4333 21.9654 11.3442C22.0933 11.2551 22.2376 11.1923 22.3899 11.1594C23.0379 11.0171 23.685 11.4057 23.8306 12.0406C23.8655 12.1924 23.8698 12.3496 23.8434 12.5031C23.8169 12.6566 23.7603 12.8033 23.6767 12.9347C23.5932 13.0662 23.4843 13.1797 23.3565 13.2688C23.2288 13.3578 23.0846 13.4206 22.9323 13.4535C22.7401 13.4962 22.5403 13.4918 22.3502 13.4407C22.16 13.3895 21.985 13.2932 21.8401 13.1598L19.0396 14.7159C19.1206 14.882 19.1934 15.0489 19.2417 15.2231C20.1081 15.8032 20.4157 16.9142 19.9535 17.8428L21.8074 18.8982C21.9958 18.7272 22.2338 18.6204 22.4868 18.5934C22.7399 18.5663 22.995 18.6203 23.2154 18.7477C23.7742 19.0733 23.9681 19.7875 23.6286 20.3512ZM9.44201 19.2402C9.37669 19.2395 9.31188 19.2518 9.25128 19.2762C9.19068 19.3006 9.13548 19.3367 9.08883 19.3824C9.04219 19.4281 9.00501 19.4826 8.97941 19.5427C8.95382 19.6028 8.94032 19.6674 8.93968 19.7327C8.93968 20.0043 9.16466 20.2244 9.44201 20.2244C9.71855 20.2244 9.94353 20.0035 9.94353 19.7327C9.942 19.6465 9.91953 19.562 9.87808 19.4864C9.83252 19.4116 9.76848 19.3497 9.69212 19.3067C9.61576 19.2638 9.52964 19.2403 9.44201 19.2402ZM16.5312 8.53238C16.5306 8.46705 16.5171 8.40249 16.4915 8.34239C16.4659 8.28228 16.4287 8.22781 16.382 8.18207C16.3354 8.13634 16.2802 8.10024 16.2196 8.07584C16.159 8.05143 16.0942 8.03921 16.0289 8.03986C15.8971 8.03877 15.7702 8.09002 15.6762 8.18236C15.5822 8.27471 15.5286 8.40059 15.5273 8.53238C15.5273 8.804 15.7523 9.02408 16.0289 9.02408C16.1605 9.02474 16.287 8.97349 16.381 8.88143C16.4751 8.78938 16.529 8.66396 16.5312 8.53238ZM22.6492 12.8031C22.9274 12.8031 23.1516 12.5822 23.1516 12.3105C23.1509 12.2452 23.1374 12.1807 23.1118 12.1206C23.0863 12.0605 23.0491 12.006 23.0024 11.9602C22.9558 11.9145 22.9006 11.8784 22.84 11.854C22.7794 11.8296 22.7146 11.8174 22.6492 11.818C22.5175 11.8169 22.3906 11.8682 22.2966 11.9605C22.2026 12.0529 22.149 12.1788 22.1477 12.3105C22.1503 12.4419 22.2042 12.5671 22.298 12.6591C22.3917 12.7512 22.5178 12.8029 22.6492 12.8031ZM9.676 11.8573C9.56165 11.7919 9.42609 11.7744 9.29889 11.8086C9.17169 11.8428 9.06315 11.9259 8.99695 12.0397C8.96399 12.0954 8.94262 12.1571 8.93414 12.2212C8.92565 12.2853 8.93022 12.3505 8.94757 12.4127C8.96492 12.475 8.99469 12.5332 9.03509 12.5837C9.0755 12.6342 9.12569 12.6759 9.18266 12.7065C9.29702 12.7719 9.43258 12.7894 9.55978 12.7552C9.68698 12.721 9.79551 12.6379 9.86172 12.5241C9.89445 12.4684 9.91562 12.4067 9.92399 12.3426C9.93235 12.2786 9.92773 12.2135 9.9104 12.1513C9.89306 12.089 9.86338 12.0309 9.82311 11.9804C9.78284 11.9299 9.73281 11.8881 9.676 11.8573ZM22.8513 19.3351C22.7748 19.2909 22.6885 19.2662 22.6002 19.2631C22.5119 19.2616 22.4247 19.2833 22.3475 19.3261C22.2702 19.3689 22.2056 19.4313 22.16 19.5069C22.1152 19.582 22.0915 19.6678 22.0915 19.7552C22.0915 19.8426 22.1152 19.9284 22.16 20.0035C22.2056 20.0792 22.2702 20.1415 22.3475 20.1843C22.4247 20.2271 22.5119 20.2488 22.6002 20.2473C22.6878 20.2464 22.7739 20.2234 22.8504 20.1806C22.9269 20.1377 22.9913 20.0762 23.0379 20.0019C23.0707 19.9461 23.0919 19.8843 23.1003 19.8201C23.1087 19.7559 23.104 19.6907 23.0866 19.6284C23.0692 19.5661 23.0394 19.5079 22.9989 19.4574C22.9585 19.4068 22.9083 19.3658 22.8513 19.3351ZM15.5273 23.4381C15.521 23.5058 15.5284 23.5741 15.5492 23.6388C15.5701 23.7036 15.6039 23.7634 15.6486 23.8147C15.6933 23.866 15.7479 23.9076 15.8092 23.9371C15.8705 23.9666 15.9372 23.9833 16.0051 23.9862C16.1268 23.987 16.245 23.9454 16.3394 23.8687C16.4339 23.792 16.4988 23.6849 16.523 23.5657C16.5402 23.4367 16.5055 23.3062 16.4265 23.2028C16.3475 23.0994 16.2306 23.0316 16.1017 23.0143C15.9726 22.9944 15.8409 23.026 15.735 23.1024C15.629 23.1788 15.5574 23.2938 15.5355 23.4225C15.531 23.4269 15.5281 23.4327 15.5273 23.4389V23.4381ZM18.4088 15.8416L18.3843 15.6592C18.3762 15.6162 18.3653 15.5739 18.3516 15.5324C18.3516 15.516 18.3434 15.5005 18.3434 15.4849C18.327 15.4375 18.3106 15.3818 18.2951 15.3336V15.3254C18.1674 14.996 17.9586 14.7042 17.688 14.477L17.6799 14.4688C17.6322 14.427 17.5807 14.3897 17.5261 14.3575L17.5179 14.3493C17.4696 14.3183 17.4131 14.2782 17.3649 14.2544L17.3567 14.2463C17.3043 14.2166 17.2502 14.1901 17.1947 14.1669L17.1783 14.1587C17.1197 14.1336 17.0605 14.1099 17.0008 14.0875L16.9926 14.0794C16.9272 14.0638 16.8707 14.0401 16.8061 14.0319H16.7979C16.734 14.0177 16.6692 14.0073 16.604 14.0008H16.5958C16.2515 13.9527 15.9005 13.9935 15.5764 14.1195L15.5355 14.1514C15.4864 14.1677 15.4063 14.207 15.358 14.2307C15.3324 14.247 15.3049 14.2602 15.2762 14.27C15.2524 14.2782 15.2124 14.3101 15.1878 14.3256L15.0741 14.405L15.0495 14.4213C15.0013 14.4533 14.9612 14.4925 14.9121 14.5326L14.872 14.5719C14.8266 14.6146 14.7835 14.6597 14.7427 14.7069C14.6465 14.6911 14.5491 14.6832 14.4515 14.6832C14.4188 14.6832 14.3942 14.6832 14.3697 14.6913C14.0927 14.7047 13.8238 14.7891 13.5888 14.9364C13.3539 15.0837 13.1607 15.2889 13.0279 15.5324L13.0189 15.5487C12.9944 15.5946 12.9723 15.6428 12.9535 15.6919C12.9453 15.7075 12.9453 15.7156 12.9371 15.7312C12.9201 15.7722 12.9067 15.8147 12.897 15.858C12.8888 15.8744 12.8888 15.8981 12.8807 15.9136L12.8569 16.0404C12.8569 16.0568 12.8487 16.0732 12.8487 16.0961C12.842 16.1566 12.8393 16.2176 12.8406 16.2785C12.8397 16.3292 12.8422 16.38 12.8487 16.4299C12.8487 16.4462 12.8569 16.4618 12.8569 16.4855C12.8651 16.5174 12.8651 16.5485 12.8733 16.5804C12.8815 16.6123 12.8815 16.6205 12.8897 16.6442C12.8989 16.6669 12.9044 16.691 12.906 16.7154C12.906 16.74 12.9216 16.7629 12.9297 16.7866C12.9364 16.8058 12.9446 16.8244 12.9543 16.8422C12.9666 16.8681 12.9775 16.8946 12.987 16.9216C12.9952 16.9379 13.0026 16.9461 13.0026 16.9617C13.1163 17.2235 13.3085 17.4444 13.5532 17.5965C13.6743 17.6677 13.7962 17.7315 13.9254 17.7708C13.9753 17.788 14.0269 17.8011 14.0792 17.8109L14.0956 17.8191L14.2412 17.8428L14.2739 17.851C14.3296 17.8592 14.3869 17.8592 14.4515 17.8592C14.6699 17.8592 14.8802 17.8183 15.0741 17.7315C15.1232 17.7634 15.1641 17.7954 15.2124 17.8264L15.2287 17.8346C15.2688 17.8592 15.3171 17.8821 15.3662 17.9058H15.3743C15.8382 18.1374 16.3707 18.1912 16.8715 18.0572H16.8797C16.952 18.0409 17.0222 18.0168 17.0892 17.9852L17.3076 17.8903C17.5162 18.0498 17.7723 18.1357 18.0358 18.1357C18.093 18.1357 18.1421 18.1275 18.1977 18.1275L18.2387 18.1202C18.3421 18.1058 18.443 18.0766 18.5381 18.0334L18.5626 18.0253C18.6109 18.0007 18.651 17.9778 18.7001 17.9541C18.8307 17.8702 18.9432 17.761 19.0307 17.6328C19.1183 17.5046 19.1792 17.3601 19.2098 17.2079V17.1834C19.218 17.1523 19.218 17.1204 19.2261 17.0885C19.2261 17.0492 19.2343 17.0091 19.2343 16.969C19.2343 16.4454 18.9022 15.993 18.408 15.8425L18.4088 15.8416Z" fill="white"/>
</svg>
