<svg width="32" height="32" viewBox="0 0 32 32" fill="none" xmlns="http://www.w3.org/2000/svg">
<circle cx="16" cy="16" r="16" fill="#7022EB"/>
<path d="M24.9526 13.0402V12.5009C24.0691 12.5028 23.2189 12.8383 22.5722 13.4403C21.9255 14.0422 21.53 14.8662 21.4647 15.7473C21.4023 14.8673 21.0092 14.0435 20.3645 13.4413C19.7198 12.8392 18.8711 12.5032 17.9889 12.5009V13.0402C18.7739 13.0402 19.5268 13.352 20.0818 13.9071C20.6369 14.4622 20.9487 15.215 20.9487 16C20.9487 16.785 20.6369 17.5378 20.0818 18.0929C19.5268 18.648 18.7739 18.9598 17.9889 18.9598V19.4991C18.8725 19.4974 19.7227 19.1619 20.3695 18.5599C21.0162 17.9579 21.4117 17.1339 21.4768 16.2527C21.5399 17.1348 21.9351 17.9602 22.5825 18.5626C23.23 19.165 24.0818 19.4997 24.9661 19.4991V18.9598C24.1811 18.9613 23.4277 18.6509 22.8716 18.0969C22.3154 17.5429 22.0022 16.7906 22.0007 16.0056C21.9992 15.2206 22.3096 14.4672 22.8636 13.9111C23.4176 13.3549 24.1699 13.0417 24.9548 13.0402H24.9526ZM15.9475 19.4984V19.0975L15.9355 16H15.4195V19.4984H15.9475ZM13.4924 12.5009C12.5649 12.5026 11.6759 12.8719 11.0201 13.5277C10.3643 14.1835 9.99504 15.0725 9.99325 16C9.99146 16.7843 9.67916 17.536 9.12463 18.0907C8.57011 18.6453 7.81849 18.9578 7.03418 18.9598V19.4991C7.96159 19.4973 8.85049 19.1281 9.5062 18.4722C10.1619 17.8164 10.531 16.9274 10.5326 16C10.5344 15.2155 10.8468 14.4637 11.4015 13.9091C11.9561 13.3544 12.7079 13.042 13.4924 13.0402H17.9889V12.5009L13.4924 12.5009Z" fill="white"/>
</svg>
