<svg width="32" height="32" viewBox="0 0 32 32" fill="none" xmlns="http://www.w3.org/2000/svg">
<circle cx="16" cy="16" r="16" fill="#E73733"/>
<path d="M12.5271 7.04339L9.17914 9.5554C9.15296 9.5746 9.13166 9.5997 9.11699 9.62866C9.10231 9.65762 9.09466 9.68963 9.09466 9.72209C9.09466 9.75456 9.10231 9.78657 9.11699 9.81553C9.13166 9.84449 9.15296 9.86958 9.17914 9.88878L22.3484 19.7676L21.6033 20.326C21.5813 20.3425 21.5628 20.3631 21.5488 20.3866C21.5347 20.4102 21.5255 20.4364 21.5215 20.4635C21.5176 20.4907 21.519 20.5184 21.5257 20.545C21.5325 20.5716 21.5444 20.5966 21.5608 20.6186C21.5773 20.6406 21.5978 20.6591 21.6214 20.6732C21.645 20.6872 21.6711 20.6965 21.6983 20.7004C21.7255 20.7044 21.7531 20.7029 21.7798 20.6962C21.8064 20.6894 21.8314 20.6775 21.8534 20.6611L22.8218 19.936C22.8481 19.9164 22.8693 19.891 22.884 19.8618C22.8987 19.8326 22.9063 19.8003 22.9063 19.7676C22.9063 19.7349 22.8987 19.7027 22.884 19.6735C22.8693 19.6442 22.8481 19.6188 22.8218 19.5993L9.6542 9.72043L12.6529 7.47262L13.5747 8.16188C13.619 8.19504 13.6745 8.20927 13.7292 8.20146C13.7839 8.19364 13.8333 8.16442 13.8664 8.12021C13.8996 8.076 13.9138 8.02043 13.906 7.96572C13.8982 7.91102 13.869 7.86166 13.8248 7.8285L12.7788 7.04339C12.7427 7.01634 12.6989 7.00172 12.6538 7.00172C12.6083 7.0009 12.5639 7.0156 12.5279 7.04339H12.5271ZM15.8751 7.04339L11.5495 10.2872C11.505 10.3203 11.4756 10.3698 11.4676 10.4246C11.4597 10.4795 11.4738 10.5353 11.507 10.5797C11.5401 10.6241 11.5896 10.6536 11.6444 10.6616C11.6993 10.6695 11.7551 10.6554 11.7995 10.6222L16.0001 7.47178L22.0676 12.0224H19.4189L15.0791 8.76863C15.0347 8.73547 14.9789 8.72132 14.924 8.72929C14.8692 8.73727 14.8197 8.7667 14.7866 8.81113C14.7534 8.85556 14.7393 8.91135 14.7472 8.96621C14.7552 9.02107 14.7847 9.07052 14.8291 9.10367L19.2222 12.3983C19.2589 12.4258 19.3022 12.44 19.3472 12.4408H22.696C22.7398 12.4407 22.7825 12.4268 22.8179 12.4011C22.8534 12.3753 22.8799 12.3391 22.8935 12.2974C22.908 12.2561 22.9088 12.2112 22.8959 12.1694C22.883 12.1276 22.8571 12.0909 22.8218 12.0649L16.1251 7.04172C16.089 7.01452 16.045 6.99995 15.9998 7.00025C15.9546 7.00055 15.9108 7.01571 15.8751 7.04339ZM10.1043 11.3732L9.17914 12.0649C9.15339 12.0846 9.13253 12.1099 9.11817 12.139C9.10381 12.1681 9.09633 12.2 9.09633 12.2324C9.09633 12.2648 9.10381 12.2968 9.11817 12.3259C9.13253 12.3549 9.15339 12.3803 9.17914 12.4L22.3493 22.2788L19.3489 24.5283L18.5071 23.8974C18.4627 23.864 18.4068 23.8496 18.3518 23.8575C18.2968 23.8653 18.2471 23.8946 18.2137 23.939C18.1803 23.9835 18.166 24.0393 18.1738 24.0944C18.1816 24.1494 18.211 24.199 18.2554 24.2324L19.2239 24.9592C19.2601 24.9859 19.3039 25.0002 19.3489 25.0002C19.3939 25.0002 19.4377 24.9859 19.4739 24.9592L22.8227 22.448C22.8489 22.4286 22.8702 22.4034 22.8848 22.3743C22.8995 22.3452 22.9071 22.3131 22.9071 22.2805C22.9071 22.2479 22.8995 22.2158 22.8848 22.1867C22.8702 22.1576 22.8489 22.1323 22.8227 22.113L9.6542 12.2333L10.3551 11.7082C10.3772 11.6918 10.3959 11.6713 10.4099 11.6477C10.424 11.624 10.4333 11.5979 10.4371 11.5706C10.441 11.5434 10.4395 11.5157 10.4325 11.4891C10.4256 11.4625 10.4135 11.4375 10.3968 11.4157C10.3635 11.3717 10.3142 11.3426 10.2597 11.3346C10.2051 11.3267 10.1496 11.3405 10.1051 11.3732H10.1043ZM9.30499 19.5568C9.26072 19.5562 9.21743 19.5698 9.18134 19.5954C9.14524 19.621 9.11821 19.6574 9.10413 19.6994C9.09005 19.7414 9.08964 19.7867 9.10297 19.8289C9.1163 19.8712 9.14268 19.9081 9.17831 19.9343L15.8767 24.9559C15.9128 24.9829 15.9567 24.9975 16.0017 24.9975C16.0468 24.9975 16.0907 24.9829 16.1268 24.9559L20.4457 21.7187C20.4901 21.6853 20.5194 21.6355 20.5272 21.5804C20.5349 21.5253 20.5204 21.4694 20.4869 21.425C20.4535 21.3805 20.4037 21.3512 20.3486 21.3435C20.2935 21.3357 20.2376 21.3502 20.1932 21.3837L16.0017 24.5283L9.93341 19.9768H12.5838L16.8727 23.1939C16.8946 23.2104 16.9195 23.2224 16.946 23.2293C16.9726 23.2361 17.0002 23.2376 17.0273 23.2338C17.0544 23.23 17.0805 23.2208 17.1041 23.2069C17.1277 23.193 17.1483 23.1746 17.1648 23.1527C17.1813 23.1308 17.1933 23.1059 17.2001 23.0793C17.207 23.0528 17.2085 23.0252 17.2047 22.9981C17.2009 22.971 17.1917 22.9448 17.1778 22.9213C17.1639 22.8977 17.1455 22.877 17.1236 22.8606L12.7763 19.601C12.7408 19.5727 12.6966 19.5577 12.6513 19.5584H9.30416V19.5568H9.30499Z" fill="white"/>
</svg>
