<svg width="32" height="32" viewBox="0 0 32 32" fill="none" xmlns="http://www.w3.org/2000/svg">
<circle cx="16" cy="16" r="16" fill="#BA7F17"/>
<path d="M13.1437 20.4415C13.6143 21.0178 14.3304 21.3858 15.1325 21.3858C16.3906 21.3858 17.4372 20.4806 17.6565 19.2859C17.6707 19.2809 17.6848 19.2757 17.6988 19.2704V13.434C17.6988 12.6342 18.1467 11.939 18.8053 11.5856C18.3352 10.994 17.6095 10.6147 16.7952 10.6147C15.5871 10.6147 14.574 11.4495 14.3012 12.5737V18.5666C14.3012 19.3868 13.8301 20.0971 13.1437 20.4415Z" fill="white"/>
<path d="M18.5615 17.8503C19.188 18.8042 20.2674 19.434 21.494 19.434C23.4303 19.434 25 17.8643 25 15.928C25 14.573 24.2314 13.3976 23.1064 12.8139C23.5227 13.3427 23.7711 14.01 23.7711 14.7352C23.7711 15.256 23.643 15.7468 23.4167 16.178C23.506 15.8937 23.5542 15.5912 23.5542 15.2774C23.5542 13.8137 22.506 12.5948 21.1193 12.3305C21.7197 12.7787 22.1084 13.4947 22.1084 14.3015C22.1084 15.1737 21.6542 15.9397 20.9693 16.376C21.402 15.992 21.6747 15.4316 21.6747 14.8075C21.6747 13.6497 20.7361 12.7111 19.5783 12.7111C19.2136 12.7111 18.8706 12.8043 18.5719 12.9681C18.7609 12.8955 18.9661 12.8557 19.1807 12.8557C20.1189 12.8557 20.8795 13.6163 20.8795 14.5545C20.8795 15.4927 20.1189 16.2533 19.1807 16.2533C18.7177 16.2533 18.298 16.0681 17.9916 15.7677C17.9892 15.8208 17.988 15.8743 17.988 15.928C17.988 16.3547 18.0642 16.7636 18.2038 17.1419C18.2964 17.3927 18.4169 17.6301 18.5615 17.8503Z" fill="white"/>
<path d="M10.506 19.434C11.7326 19.434 12.812 18.8059 13.4385 17.8545C13.5831 17.635 13.7036 17.3983 13.7962 17.148C13.9358 16.7708 14.012 16.363 14.012 15.9375C14.012 15.8839 14.0108 15.8306 14.0084 15.7776C13.702 16.0772 13.2823 16.2619 12.8193 16.2619C11.8811 16.2619 11.1205 15.5034 11.1205 14.5677C11.1205 13.632 11.8811 12.8734 12.8193 12.8734C13.0339 12.8734 13.2391 12.9131 13.4281 12.9855C13.1294 12.8222 12.7864 12.7293 12.4217 12.7293C11.2639 12.7293 10.3253 13.6653 10.3253 14.82C10.3253 15.4424 10.598 16.0012 11.0307 16.3842C10.3458 15.9492 9.89157 15.1852 9.89157 14.3153C9.89157 13.5107 10.2803 12.7966 10.8807 12.3497C9.49401 12.6133 8.44578 13.8289 8.44578 15.2886C8.44578 15.6015 8.49396 15.9032 8.5833 16.1868C8.35697 15.7568 8.22892 15.2672 8.22892 14.7479C8.22892 14.0246 8.4773 13.3592 8.89364 12.8318C7.76864 13.4139 7 14.5862 7 15.9375C7 17.8686 8.56971 19.434 10.506 19.434Z" fill="white"/>
</svg>
