<svg width="32" height="32" viewBox="0 0 32 32" fill="none" xmlns="http://www.w3.org/2000/svg">
<circle cx="16" cy="16" r="16" fill="#F3902D"/>
<path fill-rule="evenodd" clip-rule="evenodd" d="M9.92812 10.3722C10.0708 10.2331 10.2987 10.234 10.4403 10.3742L13.773 13.6733L16.4398 11.2061C16.5074 11.1436 16.596 11.1089 16.688 11.1089H24.5606C24.9719 11.1089 25.1569 11.6241 24.8396 11.8858L16.9438 18.3968V23.2927C16.9438 23.6759 16.4868 23.8748 16.2064 23.6136L9.93416 17.7715C9.85995 17.7023 9.8178 17.6055 9.8178 17.5041V13.8497H7.4394C7.04604 13.8497 6.85162 13.3718 7.13327 13.0972L9.92812 10.3722ZM9.8178 13.1188V11.5006L8.15803 13.1188H9.8178ZM10.5487 11.5098V16.6661L13.2365 14.1706L10.5487 11.5098ZM10.7199 17.5045L13.6112 20.1976L23.7466 11.8398H16.8311L10.7199 17.5045ZM14.1507 20.7001L16.2129 22.6209V18.9995L14.1507 20.7001Z" fill="white"/>
</svg>
