<svg width="32" height="32" viewBox="0 0 32 32" fill="none" xmlns="http://www.w3.org/2000/svg">
<circle cx="16" cy="16" r="16" fill="#E8CB77"/>
<path d="M9.18262 7.12091C9.18262 7.01341 9.31259 6.95957 9.3886 7.03558L15.8294 13.4764C15.9237 13.5707 16.0765 13.5707 16.1707 13.4764L22.6116 7.03558C22.6876 6.95957 22.8176 7.01341 22.8176 7.12091V10.7115C22.8176 10.7755 22.7921 10.8369 22.7469 10.8822L18.0617 15.5673C18.0165 15.6126 17.9551 15.638 17.8911 15.638H14.1091C14.0451 15.638 13.9837 15.6126 13.9385 15.5673L9.2533 10.8822C9.20804 10.8369 9.18262 10.7755 9.18262 10.7115V7.12091Z" fill="white"/>
<path d="M22.8176 24.8791C22.8176 24.9866 22.6876 25.0404 22.6116 24.9644L16.1707 18.5236C16.0765 18.4293 15.9237 18.4293 15.8294 18.5236L9.3886 24.9644C9.31259 25.0404 9.18262 24.9866 9.18262 24.8791L9.18262 21.2885C9.18262 21.2245 9.20804 21.1631 9.2533 21.1178L13.9385 16.4327C13.9837 16.3874 14.0451 16.362 14.1091 16.362L17.8911 16.362C17.9551 16.362 18.0165 16.3874 18.0617 16.4327L22.7469 21.1178C22.7921 21.1631 22.8176 21.2245 22.8176 21.2885V24.8791Z" fill="white"/>
</svg>
