<svg width="32" height="32" viewBox="0 0 32 32" fill="none" xmlns="http://www.w3.org/2000/svg">
<circle cx="16" cy="16" r="16" fill="#2A91F1"/>
<path d="M10.4895 21.5551L7.351 23.1256C7.31394 23.144 7.27282 23.1526 7.23149 23.1507C7.19017 23.1487 7.15005 23.1362 7.11489 23.1144C7.07974 23.0926 7.05073 23.0622 7.03063 23.026C7.01052 22.9899 6.99998 22.9492 7 22.9078V9.0922C6.99998 9.05083 7.01052 9.01013 7.03063 8.97398C7.05073 8.93782 7.07974 8.9074 7.11489 8.88559C7.15005 8.86378 7.19017 8.85129 7.23149 8.84933C7.27282 8.84737 7.31394 8.856 7.351 8.87438L10.4904 10.444C10.5574 10.4774 10.6139 10.5287 10.6534 10.5923C10.693 10.6559 10.7141 10.7292 10.7145 10.8041V21.1924C10.7144 21.2677 10.6932 21.3416 10.6535 21.4057C10.6137 21.4697 10.557 21.5215 10.4895 21.5551Z" fill="white"/>
<path d="M19.6366 18.0206V14.1504C19.6366 14.1117 19.6264 14.0736 19.6069 14.04C19.5875 14.0065 19.5595 13.9788 19.5259 13.9596L16.1705 12.0227C16.1372 12.0032 16.0993 11.993 16.0607 11.993C16.0221 11.993 15.9843 12.0032 15.9509 12.0227L12.5956 13.9596C12.562 13.9789 12.5341 14.0067 12.5146 14.0402C12.4952 14.0737 12.4849 14.1117 12.4849 14.1504V18.0206C12.4848 18.0593 12.4949 18.0974 12.5144 18.1309C12.5338 18.1645 12.5619 18.1922 12.5956 18.2114L15.9509 20.1483C15.9843 20.1676 16.0221 20.1778 16.0607 20.1778C16.0993 20.1778 16.1372 20.1676 16.1705 20.1483L19.5259 18.2114C19.5596 18.1922 19.5876 18.1645 19.607 18.1309C19.6265 18.0974 19.6367 18.0593 19.6366 18.0206Z" fill="white"/>
<path d="M24.6487 8.87524L21.5093 10.4449C21.4421 10.4786 21.3856 10.5302 21.346 10.5941C21.3065 10.658 21.2854 10.7316 21.2852 10.8067V21.195C21.2855 21.2699 21.3067 21.3432 21.3462 21.4068C21.3858 21.4703 21.4422 21.5217 21.5093 21.555L24.6487 23.1256C24.6857 23.144 24.7269 23.1526 24.7682 23.1506C24.8095 23.1487 24.8497 23.1362 24.8849 23.1144C24.92 23.0926 24.9489 23.0622 24.969 23.026C24.9891 22.9898 24.9998 22.9492 24.9998 22.9078V9.09305C24.9998 9.05168 24.9891 9.01099 24.969 8.97483C24.9489 8.93868 24.92 8.90826 24.8849 8.88644C24.8497 8.86463 24.8095 8.85215 24.7682 8.85019C24.7269 8.84823 24.6857 8.85685 24.6487 8.87524Z" fill="white"/>
</svg>
