<svg width="32" height="32" viewBox="0 0 32 32" fill="none" xmlns="http://www.w3.org/2000/svg">
<circle cx="16" cy="16" r="16" fill="#3DA38C"/>
<path fill-rule="evenodd" clip-rule="evenodd" d="M25.3055 12.8452L17.3206 10.5205L14.5886 15.2457L11.416 11.5086L12.8531 11.3191L14.3356 13.0887L15.9802 10.1302L8.74178 8.02248C8.6437 7.99439 8.53997 7.99259 8.44098 8.01727C8.34199 8.04194 8.25123 8.09221 8.17781 8.16304C8.10439 8.23387 8.05089 8.32276 8.02268 8.4208C7.99447 8.51884 7.99254 8.62257 8.01709 8.72159L11.2209 21.7982L14.6672 15.9107L17.8397 19.6479L16.4027 19.8373L14.9211 18.0677L11.6623 23.5839L12.1455 25.5543C12.1689 25.6537 12.2183 25.745 12.2885 25.8192C12.3587 25.8933 12.4472 25.9475 12.5451 25.9764C12.6431 26.0053 12.7469 26.0077 12.846 25.9835C12.9452 25.9593 13.0362 25.9093 13.1098 25.8385L25.5461 13.8257C25.6195 13.7547 25.673 13.6657 25.7012 13.5675C25.7295 13.4694 25.7316 13.3656 25.7073 13.2664C25.6829 13.1672 25.633 13.0761 25.5625 13.0022C25.492 12.9283 25.4034 12.8742 25.3055 12.8452Z" fill="white"/>
</svg>
