<svg width="24" height="24" viewBox="0 0 24 24" fill="none" xmlns="http://www.w3.org/2000/svg">
<path fill-rule="evenodd" clip-rule="evenodd" d="M8.5 18C11.5376 18 14 15.3137 14 12C14 8.68629 11.5376 6 8.5 6C5.46243 6 3 8.68629 3 12C3 15.3137 5.46243 18 8.5 18ZM8.5 16C10.433 16 12 14.2091 12 12C12 9.79086 10.433 8 8.5 8C6.567 8 5 9.79086 5 12C5 14.2091 6.567 16 8.5 16Z" fill="#003DC6"/>
<path fill-rule="evenodd" clip-rule="evenodd" d="M15.2931 11.2929C14.9026 11.6834 14.9026 12.3166 15.2931 12.7071L17.0608 14.4748L15.2929 16.2427C14.9024 16.6332 14.9024 17.2664 15.2929 17.6569C15.6834 18.0474 16.3166 18.0474 16.7071 17.6569L18.475 15.889L20.2428 17.6569C20.6334 18.0474 21.2665 18.0474 21.657 17.6569C22.0476 17.2663 22.0476 16.6332 21.657 16.2426L19.8892 14.4748L21.6569 12.7071C22.0474 12.3166 22.0474 11.6834 21.6569 11.2929C21.2663 10.9024 20.6332 10.9024 20.2426 11.2929L18.475 13.0606L16.7073 11.2929C16.3168 10.9024 15.6836 10.9024 15.2931 11.2929Z" fill="#003DC6"/>
</svg>
