<svg xmlns="http://www.w3.org/2000/svg" width="24" height="24" viewBox="0 0 24 24"><g transform="translate(-6.571 0.5)"><ellipse cx="3" cy="2.973" rx="3" ry="2.973" transform="translate(15.571 8.5)" fill="none" stroke="#9da6b5" stroke-linejoin="round" stroke-miterlimit="10" stroke-width="1.5"/><path d="M18.582,15.8l1.989-1.139-2.523-4.33-1.985,1.136a8.256,8.256,0,0,0-2.969-1.692V7.5H8.049V9.776a8.161,8.161,0,0,0-2.972,1.695L3.094,10.335.571,14.665l1.99,1.14a7.984,7.984,0,0,0,0,3.391L.571,20.335l2.523,4.33,1.985-1.136a8.23,8.23,0,0,0,2.969,1.692V27.5h5.045V25.224a8.169,8.169,0,0,0,2.972-1.694l1.983,1.135,2.523-4.33L18.579,19.2A8,8,0,0,0,18.582,15.8Z" transform="translate(8 -6)" fill="none" stroke="#9da6b5" stroke-linejoin="round" stroke-miterlimit="10" stroke-width="1.5"/></g></svg>