<?xml version="1.0" encoding="utf-8"?>
<!-- Generator: Adobe Illustrator 23.0.3, SVG Export Plug-In . SVG Version: 6.00 Build 0)  -->
<svg version="1.1" id="Слой_1" xmlns="http://www.w3.org/2000/svg" xmlns:xlink="http://www.w3.org/1999/xlink" x="0px" y="0px"
	 viewBox="0 0 24 24" style="enable-background:new 0 0 24 24;" xml:space="preserve">
<style type="text/css">
	.st0{fill:#003DC6;}
</style>
<path class="st0" d="M17,3H7C4.8,3,3,4.8,3,7v10c0,2.2,1.8,4,4,4h10c2.2,0,4-1.8,4-4V7C21,4.8,19.2,3,17,3z M16.8,9.6l-5,6
	C11.6,15.9,11.3,16,11,16c-0.2,0-0.4-0.1-0.6-0.2l-3-2c-0.5-0.3-0.6-0.9-0.3-1.4c0.3-0.5,0.9-0.6,1.4-0.3l2.3,1.5l4.4-5.3
	c0.4-0.4,1-0.5,1.4-0.1C17.1,8.6,17.1,9.2,16.8,9.6z"/>
</svg>
