<svg width="24" height="24" viewBox="0 0 24 24" fill="none" xmlns="http://www.w3.org/2000/svg">
<path d="M11 15H13V17H11V15ZM11 7H13V13H11V7ZM11.99 2.00001C10.0126 2.00198 8.0802 2.59015 6.43703 3.69017C4.79385 4.79018 3.51369 6.35266 2.75834 8.18009C2.003 10.0075 1.80639 12.0179 2.19337 13.957C2.58035 15.8962 3.53355 17.6771 4.93247 19.0746C6.33139 20.4721 8.11324 21.4235 10.0528 21.8086C11.9923 22.1936 14.0025 21.995 15.8291 21.2378C17.6558 20.4807 19.217 19.1989 20.3154 17.5547C21.4138 15.9104 22 13.9774 22 12C22 10.6859 21.741 9.38477 21.2378 8.17086C20.7347 6.95695 19.9972 5.85412 19.0675 4.9254C18.1379 3.99668 17.0343 3.2603 15.8199 2.75834C14.6055 2.25638 13.3041 1.99869 11.99 2.00001ZM12 20C10.4178 20 8.87104 19.5308 7.55544 18.6518C6.23985 17.7727 5.21447 16.5233 4.60897 15.0615C4.00347 13.5997 3.84504 11.9911 4.15372 10.4393C4.4624 8.88743 5.22433 7.46197 6.34315 6.34315C7.46197 5.22433 8.88743 4.4624 10.4393 4.15372C11.9911 3.84504 13.5997 4.00347 15.0615 4.60897C16.5233 5.21447 17.7727 6.23985 18.6518 7.55544C19.5308 8.87104 20 10.4178 20 12C20 14.1217 19.1572 16.1566 17.6569 17.6569C16.1566 19.1572 14.1217 20 12 20Z" fill="#DC3632"/>
</svg>
