<svg width="24" height="24" viewBox="0 0 24 24" fill="none" xmlns="http://www.w3.org/2000/svg">
<path d="M18.6872 6.03C18.5947 6.01274 18.5115 5.96682 18.4517 5.90001C18.3919 5.83319 18.3591 5.74957 18.359 5.66325V4.5C18.359 4.10218 18.1861 3.72064 17.8783 3.43934C17.5706 3.15804 17.1532 3 16.7179 3H6.46154C5.8087 3 5.1826 3.23705 4.72097 3.65901C4.25934 4.08097 4 4.65326 4 5.25V18.75C4 19.3467 4.25934 19.919 4.72097 20.341C5.1826 20.7629 5.8087 21 6.46154 21H18.359C18.7942 21 19.2116 20.842 19.5194 20.5607C19.8271 20.2794 20 19.8978 20 19.5V7.5C20.0001 7.1542 19.8694 6.819 19.6302 6.55113C19.391 6.28325 19.0578 6.09916 18.6872 6.03ZM12.1977 13.875C13.2406 13.8733 14.2452 14.2339 15.0081 14.8838C15.771 15.5337 16.2353 16.4243 16.3069 17.3752C16.3092 17.4072 16.3043 17.4392 16.2925 17.4692C16.2806 17.4993 16.262 17.5268 16.238 17.55C16.2139 17.5736 16.1849 17.5925 16.1525 17.6054C16.1202 17.6183 16.0853 17.625 16.0501 17.625H8.51364C8.45567 17.6253 8.39828 17.6144 8.34526 17.593C8.29223 17.5716 8.24477 17.5402 8.20601 17.5008C8.16725 17.4614 8.13806 17.4149 8.12037 17.3644C8.10268 17.314 8.09689 17.2607 8.10338 17.208C8.21801 16.2894 8.69894 15.4417 9.45426 14.8268C10.2096 14.212 11.1863 13.8731 12.1977 13.875ZM9.72718 10.875C9.72523 10.4278 9.86852 9.9902 10.1389 9.61752C10.4093 9.24485 10.7946 8.95391 11.246 8.78155C11.6974 8.60919 12.1946 8.56317 12.6746 8.64931C13.1547 8.73546 13.596 8.9499 13.9426 9.26546C14.2892 9.58103 14.5256 9.98352 14.6217 10.422C14.7179 10.8604 14.6695 11.3151 14.4828 11.7284C14.296 12.1417 13.9792 12.495 13.5726 12.7437C13.166 12.9923 12.6878 13.125 12.1986 13.125C11.5445 13.126 10.9167 12.8896 10.4533 12.4676C9.98988 12.0457 9.7287 11.4729 9.72718 10.875ZM5.64103 5.25C5.64103 5.05109 5.72747 4.86032 5.88135 4.71967C6.03522 4.57902 6.24393 4.5 6.46154 4.5H16.5128C16.5672 4.5 16.6194 4.51975 16.6579 4.55492C16.6963 4.59008 16.7179 4.63777 16.7179 4.6875V5.8125C16.7179 5.86223 16.6963 5.90992 16.6579 5.94508C16.6194 5.98025 16.5672 6 16.5128 6H6.46154C6.24393 6 6.03522 5.92098 5.88135 5.78033C5.72747 5.63968 5.64103 5.44891 5.64103 5.25Z" fill="white"/>
</svg>
