<svg width="24" height="24" viewBox="0 0 24 24" fill="none" xmlns="http://www.w3.org/2000/svg">
<path d="M12 8C12 9.65685 10.6569 11 9 11C7.34315 11 6 9.65685 6 8C6 6.34315 7.34315 5 9 5C10.6569 5 12 6.34315 12 8Z" fill="white"/>
<path d="M20 11C20 12.1046 19.1046 13 18 13C16.8954 13 16 12.1046 16 11C16 9.89543 16.8954 9 18 9C19.1046 9 20 9.89543 20 11Z" fill="white"/>
<path d="M3 17.6667C3 14.75 5.6863 13 9 13C11.741 13 14.0528 14.1974 14.7699 16.262C15.4976 15.4508 16.6734 15 18 15C20.2091 15 22 16.25 22 18.3333V18.5714C22 19.3604 21.403 20 20.6667 20H5C3.89545 20 3.00003 19.1046 3.00001 18L3 17.6667Z" fill="white"/>
</svg>
