<svg width="24" height="24" viewBox="0 0 24 24" fill="none" xmlns="http://www.w3.org/2000/svg">
<path fill-rule="evenodd" clip-rule="evenodd" d="M12 22C17.5228 22 22 17.5228 22 12C22 6.47715 17.5228 2 12 2C6.47715 2 2 6.47715 2 12C2 17.5228 6.47715 22 12 22ZM15 8C15 9.65685 13.6569 11 12 11C10.3431 11 9 9.65685 9 8C9 6.34315 10.3431 5 12 5C13.6569 5 15 6.34315 15 8ZM6.93227 18.1904C6.30199 17.6739 5.99578 16.825 6.30242 16.0699C7.09302 14.1233 9.34517 13 12 13C14.6549 13 16.9071 14.1233 17.6977 16.0699C18.0043 16.825 17.6981 17.6739 17.0678 18.1904C15.688 19.3213 13.9233 20 12 20C10.0768 20 8.31207 19.3213 6.93227 18.1904Z" fill="#081E39" />
</svg>
