<svg width="24" height="24" viewBox="0 0 24 24" fill="none" xmlns="http://www.w3.org/2000/svg">
<path d="M18.4348 5.25H16.2826C16.2307 5.25 16.181 5.23025 16.1443 5.19508C16.1076 5.15992 16.087 5.11223 16.087 5.0625V3.75C16.087 3.55109 16.0045 3.36032 15.8577 3.21967C15.711 3.07902 15.5119 3 15.3043 3C15.0968 3 14.8977 3.07902 14.751 3.21967C14.6042 3.36032 14.5217 3.55109 14.5217 3.75V7.3125C14.5217 7.46168 14.4599 7.60476 14.3498 7.71025C14.2397 7.81574 14.0905 7.875 13.9348 7.875C13.7791 7.875 13.6298 7.81574 13.5197 7.71025C13.4097 7.60476 13.3478 7.46168 13.3478 7.3125V5.625C13.3478 5.52554 13.3066 5.43016 13.2332 5.35984C13.1598 5.28951 13.0603 5.25 12.9565 5.25H10.0652C10.0135 5.25 9.96382 5.23035 9.92715 5.19535C9.89048 5.16035 9.86977 5.11285 9.86957 5.06325V3.75C9.86957 3.55109 9.78711 3.36032 9.64034 3.21967C9.49358 3.07902 9.29452 3 9.08696 3C8.8794 3 8.68034 3.07902 8.53357 3.21967C8.3868 3.36032 8.30435 3.55109 8.30435 3.75V7.3125C8.30435 7.46168 8.24251 7.60476 8.13243 7.71025C8.02236 7.81574 7.87306 7.875 7.71739 7.875C7.56172 7.875 7.41243 7.81574 7.30235 7.71025C7.19227 7.60476 7.13043 7.46168 7.13043 7.3125V5.625C7.13043 5.52554 7.08921 5.43016 7.01582 5.35984C6.94244 5.28951 6.84291 5.25 6.73913 5.25H5.56522C5.1501 5.25 4.75198 5.40804 4.45844 5.68934C4.16491 5.97064 4 6.35218 4 6.75V19.5C4 19.8978 4.16491 20.2794 4.45844 20.5607C4.75198 20.842 5.1501 21 5.56522 21H18.4348C18.8499 21 19.248 20.842 19.5416 20.5607C19.8351 20.2794 20 19.8978 20 19.5V6.75C20 6.35218 19.8351 5.97064 19.5416 5.68934C19.248 5.40804 18.8499 5.25 18.4348 5.25ZM18.0435 19.5H5.95652C5.85274 19.5 5.75321 19.4605 5.67983 19.3902C5.60644 19.3198 5.56522 19.2245 5.56522 19.125V10.125C5.56522 10.0255 5.60644 9.93016 5.67983 9.85983C5.75321 9.78951 5.85274 9.75 5.95652 9.75H18.0435C18.1473 9.75 18.2468 9.78951 18.3202 9.85983C18.3936 9.93016 18.4348 10.0255 18.4348 10.125V19.125C18.4348 19.2245 18.3936 19.3198 18.3202 19.3902C18.2468 19.4605 18.1473 19.5 18.0435 19.5Z" fill="white"/>
</svg>
