<svg width="24" height="24" viewBox="0 0 24 24" fill="none" xmlns="http://www.w3.org/2000/svg">
<path d="M20.7804 11.4697L12.5303 3.21959C12.3896 3.07899 12.1989 3 12 3C11.8011 3 11.6104 3.07899 11.4697 3.21959L3.21959 11.4697C3.11474 11.5746 3.04333 11.7083 3.0144 11.8537C2.98548 11.9992 3.00033 12.15 3.05708 12.287C3.11384 12.424 3.20994 12.5411 3.33325 12.6236C3.45656 12.706 3.60154 12.75 3.74985 12.75H4.8125C4.86223 12.75 4.90992 12.7698 4.94508 12.8049C4.98025 12.8401 5 12.8878 5 12.9375V20.2501C5 20.4491 5.07902 20.6398 5.21967 20.7805C5.36033 20.9211 5.5511 21.0002 5.75001 21.0002H9.93746C9.98719 21.0002 10.0349 20.9804 10.07 20.9452C10.1052 20.9101 10.125 20.8624 10.125 20.8127V17.2501C10.125 16.7528 10.3225 16.2759 10.6742 15.9242C11.0258 15.5726 11.5027 15.3751 12 15.3751C12.4973 15.3751 12.9742 15.5726 13.3258 15.9242C13.6775 16.2759 13.875 16.7528 13.875 17.2501V20.8127C13.875 20.8624 13.8948 20.9101 13.93 20.9452C13.9651 20.9804 14.0128 21.0002 14.0625 21.0002H18.2539C18.4528 21.0002 18.6436 20.9211 18.7842 20.7805C18.9249 20.6398 19.0039 20.4491 19.0039 20.2501V12.9375C19.0039 12.8878 19.0237 12.8401 19.0588 12.8049C19.094 12.7698 19.1417 12.75 19.1914 12.75H20.2501C20.3985 12.75 20.5434 12.706 20.6667 12.6236C20.7901 12.5411 20.8862 12.424 20.9429 12.287C20.9997 12.15 21.0145 11.9992 20.9856 11.8537C20.9567 11.7083 20.8853 11.5746 20.7804 11.4697Z" fill="white"/>
</svg>
