<svg width="24" height="24" viewBox="0 0 24 24" fill="none" xmlns="http://www.w3.org/2000/svg">
<path fill-rule="evenodd" clip-rule="evenodd" d="M5.32158 8.10793C4.49526 8.6657 4 9.59752 4 10.5945V18C4 19.1046 4.89543 20 6 20H18C19.1046 20 20 19.1046 20 18V10.5945C20 9.59752 19.5047 8.6657 18.6784 8.10793L13.1189 4.35529C12.4428 3.89888 11.5572 3.89888 10.8811 4.35529L5.32158 8.10793ZM12 16C13.1046 16 14 15.1046 14 14C14 12.8954 13.1046 12 12 12C10.8954 12 10 12.8954 10 14C10 15.1046 10.8954 16 12 16Z" fill="white"/>
</svg>
