<svg width="24" height="24" viewBox="0 0 24 24" fill="none" xmlns="http://www.w3.org/2000/svg">
<path fill-rule="evenodd" clip-rule="evenodd" d="M12 22C17.5228 22 22 17.5228 22 12C22 6.47715 17.5228 2 12 2C6.47715 2 2 6.47715 2 12C2 17.5228 6.47715 22 12 22ZM8.4855 7.14251C8.95908 6.85836 9.57334 7.01192 9.85749 7.4855L12 11.0563L14.1425 7.4855C14.4267 7.01192 15.0409 6.85836 15.5145 7.14251C15.9881 7.42665 16.1416 8.04091 15.8575 8.51449L13.4662 12.5H14.5C14.7761 12.5 15 12.7239 15 13C15 13.2761 14.7761 13.5 14.5 13.5H13V14.5H14.5C14.7761 14.5 15 14.7239 15 15C15 15.2761 14.7761 15.5 14.5 15.5H13V16.5C13 17.0523 12.5523 17.5 12 17.5C11.4477 17.5 11 17.0523 11 16.5V15.5H9.5C9.22386 15.5 9 15.2761 9 15C9 14.7239 9.22386 14.5 9.5 14.5H11V13.5H9.5C9.22386 13.5 9 13.2761 9 13C9 12.7239 9.22386 12.5 9.5 12.5H10.5338L8.14251 8.51449C7.85836 8.04091 8.01192 7.42665 8.4855 7.14251Z" fill="#003DC6"/>
</svg>
