<svg width="24" height="24" viewBox="0 0 24 24" fill="none" xmlns="http://www.w3.org/2000/svg">
<path fill-rule="evenodd" clip-rule="evenodd" d="M12 22C17.5228 22 22 17.5228 22 12C22 6.47715 17.5228 2 12 2C6.47715 2 2 6.47715 2 12C2 17.5228 6.47715 22 12 22ZM12 7C11.3201 7 10.7142 7.17714 10.2045 7.52271C9.70208 7.86331 9.34939 8.32906 9.10417 8.82338C8.84893 9.3379 8.6939 9.91594 8.60489 10.5H7.5C7.22386 10.5 7 10.7239 7 11C7 11.2761 7.22386 11.5 7.5 11.5H8.51045C8.50319 11.6695 8.5 11.8367 8.5 12C8.5 12.1633 8.50319 12.3305 8.51045 12.5H7.5C7.22386 12.5 7 12.7239 7 13C7 13.2761 7.22386 13.5 7.5 13.5H8.60488C8.69389 14.0841 8.84892 14.6621 9.10418 15.1767C9.3494 15.671 9.70209 16.1367 10.2045 16.4773C10.7142 16.8229 11.3202 17 12 17C13.4153 17 14.1708 16.2439 14.6809 15.7333L14.7071 15.7071C15.0976 15.3166 15.0976 14.6834 14.7071 14.2929C14.3166 13.9024 13.6834 13.9024 13.2929 14.2929C12.8034 14.7824 12.5603 15 12 15C11.6798 15 11.4733 14.9212 11.3268 14.8219C11.1729 14.7176 11.0256 14.5494 10.8958 14.2878C10.7854 14.0653 10.6995 13.7992 10.6364 13.5H12.5C12.7761 13.5 13 13.2761 13 13C13 12.7239 12.7761 12.5 12.5 12.5H10.5128C10.5042 12.3377 10.5 12.1707 10.5 12C10.5 11.8294 10.5042 11.6624 10.5128 11.5H12.5C12.7761 11.5 13 11.2761 13 11C13 10.7239 12.7761 10.5 12.5 10.5H10.6364C10.6996 10.2009 10.7854 9.93472 10.8958 9.71218C11.0256 9.45057 11.1729 9.28244 11.3268 9.17813C11.4733 9.07878 11.6799 9 12 9C12.5603 9 12.8034 9.21761 13.2929 9.70711C13.6834 10.0976 14.3166 10.0976 14.7071 9.70711C15.0976 9.31658 15.0976 8.68342 14.7071 8.29289L14.6809 8.26671C14.1708 7.7561 13.4153 7 12 7Z" fill="#003DC6"/>
</svg>
