<svg width="24" height="24" viewBox="0 0 24 24" fill="none" xmlns="http://www.w3.org/2000/svg">
<path fill-rule="evenodd" clip-rule="evenodd" d="M12 22C17.5228 22 22 17.5228 22 12C22 6.47715 17.5228 2 12 2C6.47715 2 2 6.47715 2 12C2 17.5228 6.47715 22 12 22ZM11.8321 9.33211C11.5975 9.56676 11.5 9.82523 11.5 10C11.5 10.0865 11.522 10.2136 11.5965 10.4191C11.658 10.5889 11.7342 10.7592 11.831 10.9756C11.8572 11.0341 11.8849 11.096 11.9142 11.1622C11.9611 11.2678 12.0103 11.3805 12.0595 11.5H13.5C13.7761 11.5 14 11.7239 14 12C14 12.2761 13.7761 12.5 13.5 12.5H12.3852C12.455 12.8078 12.5 13.1417 12.5 13.5C12.5 13.9766 12.329 14.4219 12.16 14.7597C12.1194 14.841 12.0762 14.9212 12.0313 15H14.5C15.0523 15 15.5 15.4477 15.5 16C15.5 16.5522 15.0523 17 14.5 17H10C9.59553 17 9.2309 16.7563 9.07612 16.3826C8.92147 16.0093 9.00675 15.5796 9.29217 15.2936L9.2929 15.2928L9.30202 15.2836C9.31031 15.2751 9.32358 15.2614 9.34111 15.2431C9.37622 15.2063 9.42809 15.151 9.49109 15.081C9.6181 14.9399 9.78525 14.7446 9.95001 14.525C10.1172 14.3021 10.267 14.0737 10.3712 13.8653C10.4835 13.6406 10.5 13.5234 10.5 13.5C10.5 13.1552 10.4245 12.8364 10.3023 12.5H8.5C8.22386 12.5 8 12.2761 8 12C8 11.7239 8.22386 11.5 8.5 11.5H9.87619C9.81954 11.3683 9.76404 11.2327 9.71603 11.1002C9.60295 10.788 9.5 10.4135 9.5 10C9.5 9.17477 9.90255 8.43324 10.4179 7.91789C10.9332 7.40255 11.6748 7 12.5 7C13.9252 7 14.6017 7.68255 15.1032 8.18851L15.1808 8.26656L15.2071 8.29286C15.5976 8.68337 15.5976 9.31653 15.2071 9.70708C14.8166 10.0976 14.1835 10.0976 13.7929 9.70714C13.3034 9.21763 13.0603 9 12.5 9C12.3252 9 12.0668 9.09745 11.8321 9.33211Z" fill="#003DC6"/>
</svg>
