<svg width="24" height="24" viewBox="0 0 24 24" fill="none" xmlns="http://www.w3.org/2000/svg">
<path d="M12 11.3526L12.6711 13.5H11.3289L12 11.3526Z" fill="#003DC6"/>
<path fill-rule="evenodd" clip-rule="evenodd" d="M12 22C17.5228 22 22 17.5228 22 12C22 6.47715 17.5228 2 12 2C6.47715 2 2 6.47715 2 12C2 17.5228 6.47715 22 12 22ZM7.81571 7.01712C8.35853 6.91534 8.88109 7.27288 8.98287 7.81571L9.743 11.8698L11.0455 7.70172C11.176 7.28425 11.5626 7 12 7C12.4374 7 12.824 7.28425 12.9545 7.70172L14.257 11.8698L15.0171 7.81571C15.1189 7.27288 15.6415 6.91534 16.1843 7.01712C16.7271 7.1189 17.0846 7.64146 16.9829 8.18429L15.9862 13.5H17C17.2761 13.5 17.5 13.7239 17.5 14C17.5 14.2761 17.2761 14.5 17 14.5H15.7987L15.4829 16.1843C15.3982 16.6356 15.0171 16.9713 14.5587 16.9983C14.1003 17.0252 13.6825 16.7366 13.5455 16.2983L12.9836 14.5H11.0164L10.4545 16.2983C10.3175 16.7366 9.89966 17.0252 9.44126 16.9983C8.98287 16.9713 8.60175 16.6356 8.51712 16.1843L8.20132 14.5H7C6.72386 14.5 6.5 14.2761 6.5 14C6.5 13.7239 6.72386 13.5 7 13.5H8.01382L7.01712 8.18429C6.91534 7.64146 7.27288 7.1189 7.81571 7.01712Z" fill="#003DC6"/>
</svg>
