<svg width="24" height="24" viewBox="0 0 24 24" fill="none" xmlns="http://www.w3.org/2000/svg">
<path d="M12 8.83843V11.1616C12.5543 11.2137 13.0282 11.1549 13.3654 11.0144C13.593 10.9196 13.7386 10.7971 13.8305 10.6626C13.9205 10.5308 14 10.3276 14 10C14 9.67241 13.9205 9.46924 13.8305 9.33744C13.7386 9.20293 13.593 9.08046 13.3654 8.98561C13.0282 8.8451 12.5543 8.78629 12 8.83843Z" fill="#003DC6"/>
<path fill-rule="evenodd" clip-rule="evenodd" d="M12 22C17.5228 22 22 17.5228 22 12C22 6.47715 17.5228 2 12 2C6.47715 2 2 6.47715 2 12C2 17.5228 6.47715 22 12 22ZM12 13.1675C12.7431 13.2156 13.4839 13.1317 14.1346 12.8606C14.657 12.6429 15.1364 12.2966 15.482 11.7905C15.8295 11.2817 16 10.6724 16 10C16 9.32764 15.8295 8.71832 15.482 8.20951C15.1364 7.70339 14.657 7.35711 14.1346 7.13946C13.1172 6.71554 11.8799 6.74928 10.7575 7.02986C10.3123 7.14115 10 7.54113 10 8V11L9.49998 11C8.9477 11 8.49999 11.4478 8.5 12C8.50001 12.5523 8.94773 13 9.50002 13L10 13V14H9C8.72386 14 8.5 14.2239 8.5 14.5C8.5 14.7761 8.72386 15 9 15H10V16C10 16.5523 10.4477 17 11 17C11.5523 17 12 16.5523 12 16V15H14.5C14.7761 15 15 14.7761 15 14.5C15 14.2239 14.7761 14 14.5 14H12V13.1675Z" fill="#003DC6"/>
</svg>
