<svg xmlns="http://www.w3.org/2000/svg" viewBox="0 0 24 24"><defs><style>.a,.b{fill:none;}.b{stroke:#003dc6;stroke-linecap:round;stroke-linejoin:round;stroke-width:1.5px;}</style></defs><g transform="translate(-104.5 -186.5)"><g transform="translate(104.75 186.75)"><path class="b" d="M23.05,3.75H17.477A3.227,3.227,0,0,0,14.25,6.977c0,4.84,8.8,4.84,8.8,9.68a3.227,3.227,0,0,1-3.227,3.227H14.25" transform="translate(-0.3 -0.067)"/><line class="b" y1="2.933" transform="translate(18.35 0.75)"/><line class="b" y2="2.933" transform="translate(18.35 19.817)"/><path class="b" d="M11.75,22.75a11,11,0,0,1,0-22"/><line class="b" x2="9.633" transform="translate(1.384 8.083)"/><line class="b" x2="9.629" transform="translate(1.388 15.417)"/><path class="b" d="M11.883,22.75c-2.836,0-5.133-4.925-5.133-11s2.3-11,5.133-11" transform="translate(-0.133 0)"/></g></g></svg>