<svg xmlns="http://www.w3.org/2000/svg" viewBox="0 0 24 24"><defs><style>.a,.b{fill:none;}.b{stroke:#003dc6;stroke-linecap:round;stroke-linejoin:round;stroke-width:1.5px;}</style></defs><g transform="translate(-272.5 -186.5)"><g transform="translate(272.75 186.75)"><path class="b" d="M12.483,12.483H2.217A1.467,1.467,0,0,1,.75,11.017v-8.8A1.467,1.467,0,0,1,2.217.75h17.6a1.467,1.467,0,0,1,1.467,1.467V8.083" transform="translate(0 0)"/><path class="b" d="M5.242,6.375a.366.366,0,1,1-.26.107.367.367,0,0,1,.26-.107" transform="translate(-0.092 -0.125)"/><path class="b" d="M11.242,6.375a.366.366,0,1,1-.26.107.367.367,0,0,1,.26-.107" transform="translate(-0.225 -0.125)"/><path class="b" d="M17.242,6.375a.366.366,0,1,1-.26.107.367.367,0,0,1,.26-.107" transform="translate(-0.358 -0.125)"/><rect class="b" width="8.8" height="7.333" rx="1.5" transform="translate(13.95 15.417)"/><path class="b" d="M18.683,11.25h0a2.933,2.933,0,0,0-2.933,2.933V15.65h5.867V14.183A2.933,2.933,0,0,0,18.683,11.25Z" transform="translate(-0.333 -0.233)"/><path class="b" d="M18.742,19.154a.367.367,0,1,1-.367.367.367.367,0,0,1,.367-.367" transform="translate(-0.392 -0.409)"/></g></g></svg>