<svg xmlns="http://www.w3.org/2000/svg" viewBox="0 0 24 24"><defs><style>.a,.b{fill:none;}.b{stroke:#3d4f6c;stroke-linecap:round;stroke-linejoin:round;stroke-width:1.5px;}</style></defs><g transform="translate(-652 -427)"><g transform="translate(652.25 427.25)"><path class="b" d="M8.054,19.474,3.683,22.75v-4.4H2.217A1.467,1.467,0,0,1,.75,16.883V2.217A1.467,1.467,0,0,1,2.217.75H21.283A1.467,1.467,0,0,1,22.75,2.217V8.083" transform="translate(0 0)"/><path class="b" d="M22.377,14.787l-7.46,7.463-3.667.733.733-3.667,7.46-7.461a2.068,2.068,0,0,1,2.925,0l.009.009a2.068,2.068,0,0,1,0,2.923Z" transform="translate(-0.233 -0.233)"/></g></g></svg>