<svg width="24" height="24" viewBox="0 0 24 24" fill="none" xmlns="http://www.w3.org/2000/svg">
<path d="M12 3C10.22 3 8.47991 3.52784 6.99987 4.51677C5.51983 5.50571 4.36628 6.91131 3.68509 8.55585C3.0039 10.2004 2.82567 12.01 3.17294 13.7558C3.5202 15.5016 4.37737 17.1053 5.63604 18.364C6.89472 19.6226 8.49836 20.4798 10.2442 20.8271C11.99 21.1743 13.7996 20.9961 15.4442 20.3149C17.0887 19.6337 18.4943 18.4802 19.4832 17.0001C20.4722 15.5201 21 13.78 21 12C20.9974 9.61384 20.0484 7.32616 18.3611 5.63889C16.6738 3.95162 14.3862 3.00258 12 3ZM8.74465 14.5H15.2447C15.4436 14.5 15.6343 14.579 15.775 14.7197C15.9156 14.8603 15.9947 15.0511 15.9947 15.25C15.9947 15.4489 15.9156 15.6397 15.775 15.7803C15.6343 15.921 15.4436 16 15.2447 16H8.74465C8.54574 16 8.35498 15.921 8.21432 15.7803C8.07367 15.6397 7.99465 15.4489 7.99465 15.25C7.99465 15.0511 8.07367 14.8603 8.21432 14.7197C8.35498 14.579 8.54574 14.5 8.74465 14.5ZM8 12C8 11.8011 8.07902 11.6103 8.21967 11.4697C8.36032 11.329 8.55109 11.25 8.75 11.25H15.25C15.4489 11.25 15.6397 11.329 15.7803 11.4697C15.921 11.6103 16 11.8011 16 12C16 12.1989 15.921 12.3897 15.7803 12.5303C15.6397 12.671 15.4489 12.75 15.25 12.75H8.75C8.55109 12.75 8.36032 12.671 8.21967 12.5303C8.07902 12.3897 8 12.1989 8 12ZM15.25 9.50689L8.74465 9.5C8.54574 9.5 8.35498 9.42098 8.21432 9.28033C8.07367 9.13968 7.99465 8.94891 7.99465 8.75C7.99465 8.55109 8.07367 8.36032 8.21432 8.21967C8.35498 8.07902 8.54574 8 8.74465 8L15.25 8.00689C15.4489 8.00689 15.6397 8.08591 15.7803 8.22656C15.921 8.36721 16 8.55798 16 8.75689C16 8.9558 15.921 9.14657 15.7803 9.28722C15.6397 9.42787 15.4489 9.50689 15.25 9.50689Z" fill="white"/>
</svg>
