<svg xmlns="http://www.w3.org/2000/svg" viewBox="0 0 24 24"><defs><style>.a,.b{fill:none;}.b{stroke:#003dc6;stroke-linecap:round;stroke-linejoin:round;stroke-width:1.5px;}</style></defs><g transform="translate(-535.5 -187.5)"><g transform="translate(535.749 187.5)"><path class="b" d="M6.743,5.625a.367.367,0,1,0,.367.367.367.367,0,0,0-.367-.367h0" transform="translate(-0.125 -0.058)"/><line class="b" x2="1.467" transform="translate(11.751 5.933)"/><line class="b" x2="1.467" transform="translate(16.151 5.933)"/><path class="b" d="M6.743,11.625a.367.367,0,1,0,.367.367.367.367,0,0,0-.367-.367h0" transform="translate(-0.125 -0.192)"/><line class="b" x2="1.467" transform="translate(11.751 11.8)"/><line class="b" x2="1.467" transform="translate(16.151 11.8)"/><line class="b" y2="5.867" transform="translate(11.751 14.733)"/><line class="b" x2="14.667" transform="translate(4.418 20.6)"/><path class="b" d="M22.868,20.25a.367.367,0,1,0,.367.367.367.367,0,0,0-.367-.367h0" transform="translate(-0.483 -0.383)"/><path class="b" d="M1.118,20.25a.367.367,0,1,0,.367.367.367.367,0,0,0-.367-.367h0" transform="translate(0 -0.383)"/><path class="b" d="M20.6,5.933a2.933,2.933,0,0,1-2.933,2.933H5.933A2.933,2.933,0,0,1,5.933,3H17.667A2.933,2.933,0,0,1,20.6,5.933Z" transform="translate(-0.05)"/><path class="b" d="M20.6,11.933a2.933,2.933,0,0,1-2.933,2.933H5.933A2.933,2.933,0,0,1,5.933,9H17.667A2.933,2.933,0,0,1,20.6,11.933Z" transform="translate(-0.05 -0.133)"/></g></g></svg>