<svg width="24" height="24" viewBox="0 0 24 24" fill="none" xmlns="http://www.w3.org/2000/svg">
<path fill-rule="evenodd" clip-rule="evenodd" d="M3.31736 10.971C2.93734 11.6044 2.93734 12.3956 3.31737 13.029L6.91747 19.029C7.27892 19.6314 7.92993 20 8.63245 20L15.3677 20C16.0702 20 16.7212 19.6314 17.0827 19.029L20.6826 13.029C21.0626 12.3956 21.0626 11.6044 20.6826 10.971L17.0826 4.971C16.7211 4.36859 16.0701 4 15.3676 4H8.63234C7.92981 4 7.2788 4.3686 6.91735 4.97101L3.31736 10.971ZM12 15C13.6568 15 15 13.6569 15 12C15 10.3431 13.6568 9 12 9C10.3431 9 8.99996 10.3431 8.99996 12C8.99996 13.6569 10.3431 15 12 15Z" fill="white"/>
</svg>
