<svg width="24" height="24" viewBox="0 0 24 24" fill="none" xmlns="http://www.w3.org/2000/svg">
<path d="M19.8168 10.3214L18.8672 9.98459C18.7313 9.93625 18.607 9.8599 18.5024 9.76047C18.3978 9.66104 18.3152 9.54076 18.2601 9.40741C18.2049 9.27405 18.1784 9.1306 18.1822 8.98634C18.186 8.84209 18.2201 8.70023 18.2822 8.56998L18.7142 7.66015C18.8718 7.32791 18.9228 6.95505 18.8601 6.5927C18.7974 6.23036 18.6242 5.89627 18.3642 5.63624C18.1042 5.37622 17.7701 5.203 17.4077 5.14034C17.0454 5.07767 16.6725 5.12863 16.3403 5.28622L15.4305 5.719C15.3001 5.78083 15.1583 5.81463 15.014 5.81821C14.8698 5.8218 14.7265 5.79509 14.5932 5.73981C14.46 5.68453 14.3398 5.60192 14.2405 5.4973C14.1412 5.39268 14.0649 5.26839 14.0166 5.13245L13.6791 4.18363C13.5556 3.83726 13.3279 3.53757 13.0274 3.32566C12.7269 3.11375 12.3682 3 12.0004 3C11.6327 3 11.274 3.11375 10.9734 3.32566C10.6729 3.53757 10.4453 3.83726 10.3218 4.18363L9.98427 5.1332C9.9359 5.26907 9.85957 5.39329 9.76021 5.49782C9.66085 5.60236 9.54068 5.68489 9.40744 5.7401C9.2742 5.7953 9.13086 5.82195 8.98669 5.81831C8.84251 5.81468 8.7007 5.78085 8.57041 5.719L7.66059 5.28622C7.32834 5.12863 6.95548 5.07767 6.59313 5.14034C6.23079 5.203 5.8967 5.37622 5.63668 5.63624C5.37666 5.89627 5.20343 6.23036 5.14077 6.5927C5.0781 6.95505 5.12906 7.32791 5.28665 7.66015L5.71868 8.56998C5.78067 8.70025 5.81464 8.84209 5.81839 8.98631C5.82214 9.13054 5.79558 9.27394 5.74045 9.40726C5.68531 9.54059 5.60281 9.66085 5.49829 9.7603C5.39376 9.85975 5.26954 9.93615 5.13364 9.98459L4.18406 10.3221C3.83761 10.4454 3.53781 10.6729 3.32581 10.9734C3.11381 11.2739 3 11.6326 3 12.0004C3 12.3681 3.11381 12.7268 3.32581 13.0273C3.53781 13.3278 3.83761 13.5553 4.18406 13.6786L5.13364 14.0162C5.26951 14.0645 5.39373 14.1408 5.49825 14.2402C5.60277 14.3396 5.68527 14.4598 5.74041 14.5931C5.79555 14.7263 5.82211 14.8697 5.81837 15.0138C5.81463 15.158 5.78067 15.2998 5.71868 15.43L5.28665 16.3398C5.12906 16.6721 5.0781 17.045 5.14077 17.4073C5.20343 17.7696 5.37666 18.1037 5.63668 18.3638C5.8967 18.6238 6.23079 18.797 6.59313 18.8597C6.95548 18.9223 7.32834 18.8714 7.66059 18.7138L8.57041 18.2817C8.70066 18.2197 8.84251 18.1856 8.98675 18.1819C9.13099 18.1781 9.27442 18.2047 9.40772 18.26C9.54102 18.3152 9.66123 18.3978 9.76056 18.5025C9.85988 18.6072 9.9361 18.7315 9.98427 18.8675L10.3218 19.8164C10.4453 20.1627 10.6729 20.4624 10.9734 20.6743C11.274 20.8862 11.6327 21 12.0004 21C12.3682 21 12.7269 20.8862 13.0274 20.6743C13.3279 20.4624 13.5556 20.1627 13.6791 19.8164L14.0166 18.8668C14.0649 18.7309 14.1413 18.6067 14.2406 18.5022C14.34 18.3977 14.4602 18.3152 14.5935 18.26C14.7268 18.2049 14.8701 18.1783 15.0143 18.1821C15.1585 18.1858 15.3002 18.2198 15.4305 18.2817L16.3403 18.7138C16.6725 18.8714 17.0454 18.9223 17.4077 18.8597C17.7701 18.797 18.1042 18.6238 18.3642 18.3638C18.6242 18.1037 18.7974 17.7696 18.8601 17.4073C18.9228 17.045 18.8718 16.6721 18.7142 16.3398L18.2822 15.43C18.2202 15.2998 18.1862 15.158 18.1825 15.0138C18.1788 14.8697 18.2053 14.7263 18.2605 14.5931C18.3156 14.4598 18.3981 14.3396 18.5026 14.2402C18.6071 14.1408 18.7314 14.0645 18.8672 14.0162L19.8168 13.6779C20.1633 13.5546 20.4631 13.3271 20.6751 13.0266C20.8871 12.7261 21.0009 12.3674 21.0009 11.9996C21.0009 11.6319 20.8871 11.2732 20.6751 10.9727C20.4631 10.6722 20.1633 10.4447 19.8168 10.3214ZM12.0004 15.5883C11.292 15.578 10.6014 15.3644 10.0109 14.973C9.42039 14.5815 8.95475 14.0286 8.66942 13.3801C8.30457 12.4966 8.30498 11.5045 8.67056 10.6214C9.03614 9.73823 9.73705 9.0361 10.6196 8.66898C11.5041 8.31526 12.4917 8.32121 13.3719 8.68555C14.2521 9.04989 14.955 9.74377 15.3307 10.6191C15.6955 11.5026 15.6951 12.4947 15.3296 13.3779C14.964 14.261 14.2631 14.9631 13.3805 15.3303C12.9431 15.5102 12.4733 15.598 12.0004 15.5883Z" fill="white" fill-opacity="0.4"/>
</svg>
