<svg width="24" height="24" viewBox="0 0 24 24" fill="none" xmlns="http://www.w3.org/2000/svg">
<path d="M12 4.5C7.9735 4.5 4.09615 6.51687 1.83547 9.59489C0.786125 11.0236 0.786125 12.9764 1.83547 14.4051C4.09615 17.4831 7.9735 19.5 12 19.5C16.0265 19.5 19.9039 17.4831 22.1645 14.4051C23.2139 12.9764 23.2139 11.0236 22.1645 9.59489C19.9039 6.51687 16.0265 4.5 12 4.5ZM12 17C9.24001 17 7.00001 14.76 7.00001 12C7.00001 9.24 9.24001 7 12 7C14.76 7 17 9.24 17 12C17 14.76 14.76 17 12 17ZM12 9C10.34 9 9.00001 10.34 9.00001 12C9.00001 13.66 10.34 15 12 15C13.66 15 15 13.66 15 12C15 10.34 13.66 9 12 9Z" fill="#081E39"/>
</svg>
