<svg width="24" height="24" viewBox="0 0 24 24" xmlns="http://www.w3.org/2000/svg">
<path fill-rule="evenodd" clip-rule="evenodd" d="M3.72821 3.31464C3.34969 2.91246 2.71682 2.89329 2.31464 3.2718C1.91247 3.65032 1.89329 4.28319 2.27181 4.68537L4.45041 7.00013C3.40015 7.76913 2.47794 8.69063 1.7385 9.72898C0.771901 11.0863 0.771901 12.9137 1.7385 14.271C3.98414 17.4244 7.91533 19.5 12 19.5C13.2583 19.5 14.502 19.303 15.6863 18.9383L18.2718 21.6854C18.6503 22.0875 19.2832 22.1067 19.6854 21.7282C20.0875 21.3497 20.1067 20.7168 19.7282 20.3146L3.72821 3.31464ZM13.6119 16.7342L11.9796 14.9999C10.3291 14.989 9.00001 13.6532 9.00001 12C9.00001 11.9458 9.00144 11.892 9.00426 11.8386L7.37222 10.1046C7.13231 10.6892 7.00001 11.3292 7.00001 12C7.00001 14.76 9.24002 17 12 17C12.5639 17 13.1061 16.9065 13.6119 16.7342Z" fill="#081E39"/>
<path d="M11.8038 9.00628L14.9766 12.3774C14.9921 12.2538 15 12.1279 15 12C15 10.34 13.66 9 12 9C11.9341 9 11.8687 9.00211 11.8038 9.00628Z" fill="#081E39"/>
<path d="M17 12C17 12.7333 16.8419 13.4299 16.5579 14.0575L19.4172 17.0955C20.5224 16.3077 21.4912 15.3528 22.2615 14.271C23.2281 12.9137 23.2281 11.0863 22.2615 9.72898C20.0159 6.57558 16.0847 4.5 12 4.5C10.6809 4.5 9.37773 4.71648 8.1422 5.11582L10.2221 7.32572C10.7746 7.11527 11.3739 7 12 7C14.76 7 17 9.24 17 12Z" fill="#081E39"/>
</svg>
