<svg width="24" height="24" viewBox="0 0 24 24" fill="none" xmlns="http://www.w3.org/2000/svg">
<path d="M19.4 21.2651L19.96 19.9251L10.93 19.9251L16.79 22.3551C17.81 22.7651 18.98 22.2751 19.4 21.2651ZM15.7 1.76507L3.73 6.72507C2.98 7.03507 2.52 7.76507 2.5 8.53507C2.5 8.79507 2.54 9.06507 2.65 9.32507L5.7 16.6951C6.01 17.4451 6.73 17.9051 7.5 17.9251C7.77 17.9351 8.04 17.8851 8.3 17.7751L20.27 12.8151C21.03 12.5051 21.49 11.7651 21.5 10.9851C21.5 10.7251 21.45 10.4651 21.35 10.2151L18.3 2.85507C17.88 1.83507 16.71 1.34507 15.7 1.76507ZM19.5 17.9151C20.6 17.9151 21.5 17.0151 21.5 15.9151L21.5 14.4651L13.16 17.9151L19.5 17.9151Z" fill="#003DC6"/>
</svg>
