<svg width="24" height="24" viewBox="0 0 24 24" fill="none" xmlns="http://www.w3.org/2000/svg">
<path d="M4.94404 20.629L5.79204 19.606C7.42454 20.9434 9.46966 21.6744 11.58 21.675C13.0346 21.6804 14.469 21.3342 15.761 20.666L16.374 21.84C14.558 22.7737 12.5088 23.1566 10.4782 22.9414C8.44757 22.7263 6.52405 21.9225 4.94404 20.629ZM18.367 19.029C19.3742 18.1831 20.1842 17.1272 20.7403 15.9353C21.2963 14.7434 21.585 13.4442 21.586 12.129H22.915C22.9147 13.6375 22.5842 15.1276 21.9467 16.4948C21.3092 17.8619 20.3803 19.073 19.225 20.043L18.367 19.029ZM4.78204 11.629C4.77451 10.2851 5.16616 8.96915 5.90734 7.84804C6.64851 6.72694 7.70585 5.85112 8.94533 5.3316C10.1848 4.81207 11.5506 4.67223 12.8697 4.9298C14.1887 5.18738 15.4016 5.83076 16.3546 6.77841C17.3076 7.72606 17.9577 8.9353 18.2227 10.2529C18.4877 11.5705 18.3555 12.937 17.843 14.1794C17.3304 15.4218 16.4605 16.484 15.3436 17.2315C14.2267 17.9789 12.913 18.378 11.569 18.378C9.77513 18.3812 8.05319 17.6728 6.78086 16.4081C5.50854 15.1435 4.78971 13.4259 4.78204 11.632V11.629ZM6.11104 11.629C6.1053 12.7097 6.42051 13.7678 7.01675 14.6692C7.61298 15.5705 8.46338 16.2746 9.46018 16.6922C10.457 17.1097 11.5553 17.2219 12.616 17.0146C13.6766 16.8073 14.6518 16.2898 15.4181 15.5276C16.1843 14.7655 16.707 13.793 16.9199 12.7335C17.1329 11.674 17.0265 10.5751 16.6143 9.57606C16.2021 8.57705 15.5025 7.72291 14.6043 7.12189C13.7062 6.52086 12.6498 6.20001 11.569 6.19999C10.1253 6.1976 8.73954 6.7683 7.7162 7.78677C6.69285 8.80524 6.11554 10.1882 6.11104 11.632V11.629ZM1.00004 11.587C0.996262 10.2085 1.27305 8.84376 1.81356 7.5757C2.35407 6.30763 3.14698 5.16284 4.14404 4.21099L4.91204 5.01099C3.37307 6.48974 2.40113 8.46115 2.16526 10.5823C1.92939 12.7035 2.44451 14.8403 3.62104 16.621L2.69704 17.229C1.58746 15.5568 0.997045 13.5938 1.00004 11.587ZM19.652 5.79199L20.505 5.08499C21.4388 6.19627 22.1235 7.49477 22.513 8.89299L21.448 9.19299C21.1017 7.94305 20.489 6.78285 19.652 5.79199ZM11.7 2.31999C10.1568 2.31844 8.63859 2.70935 7.28804 3.45599L6.64204 2.29999C8.25716 1.40987 10.0787 0.962009 11.9224 1.00169C13.7661 1.04138 15.5667 1.5672 17.142 2.52599L16.45 3.65399C15.0196 2.78074 13.376 2.31913 11.7 2.31999Z" fill="#ffffff"/>
</svg>
