<?xml version="1.0" encoding="utf-8"?>
<!-- Generator: Adobe Illustrator 21.1.0, SVG Export Plug-In . SVG Version: 6.00 Build 0)  -->
<svg version="1.1" id="Слой_1" xmlns="http://www.w3.org/2000/svg" xmlns:xlink="http://www.w3.org/1999/xlink" x="0px" y="0px"
	 viewBox="0 0 36 36" style="enable-background:new 0 0 36 36;" xml:space="preserve">
<style type="text/css">
	.st0{fill:#FFFFFF;}
</style>
<g>
	<path class="st0" d="M18,0C8.1,0,0,8.1,0,18c0,9.9,8.1,18,18,18s18-8.1,18-18C36,8.1,27.9,0,18,0z M17.5,31l-6.7-3.9v-7.6l6.7,3.9
		V31z M17.5,21.9L10.9,18V9.9l6.7,3.9V21.9z M11.5,8.8L18.1,5l6.6,3.8l-6.6,3.8L11.5,8.8z M25.1,10v8.1l-6.3,3.7v-8.1L25.1,10z
		 M27.1,26l-1.6,0.9l-6.7,3.9v-7.6l7.4-4.3l0.9-0.5V26z"/>
</g>
</svg>
