<svg width="24" height="24" viewBox="0 0 24 24" fill="none" xmlns="http://www.w3.org/2000/svg">
<path d="M7.73706 9.37H10.473V10.253H7.73706V9.37ZM14.595 13.43H8.17804V16.696H14.5861C15.0231 16.6932 15.4418 16.5202 15.7533 16.2136C16.0648 15.9069 16.2444 15.491 16.254 15.054C16.2488 14.6189 16.0712 14.2035 15.7602 13.8991C15.4492 13.5947 15.0302 13.426 14.595 13.43Z" fill="#ffffff"/>
<path d="M12 2C10.0222 2 8.08879 2.58649 6.4443 3.6853C4.79981 4.78412 3.51809 6.3459 2.76121 8.17317C2.00433 10.0004 1.8063 12.0111 2.19215 13.9509C2.578 15.8907 3.53041 17.6725 4.92894 19.0711C6.32746 20.4696 8.10929 21.422 10.0491 21.8079C11.9889 22.1937 13.9996 21.9957 15.8268 21.2388C17.6541 20.4819 19.2159 19.2002 20.3147 17.5557C21.4135 15.9112 22 13.9778 22 12C22 9.34784 20.9464 6.8043 19.0711 4.92893C17.1957 3.05357 14.6522 2 12 2V2ZM12.327 6.457H17.093V7.428H13.386V10.252H16.122V9.37H14.18V8.4H17.18V11.223H12.327V6.457ZM6.855 6.545H9.855V7.693H6.855V6.545ZM6.766 8.4H10.566V6.457H11.62V11.223H6.766V8.4ZM14.815 17.932H6.854V12.194H14.815C15.5665 12.208 16.2825 12.5164 16.809 13.0528C17.3355 13.5893 17.6304 14.3109 17.6304 15.0625C17.6304 15.8141 17.3355 16.5357 16.809 17.0722C16.2825 17.6086 15.5665 17.917 14.815 17.931V17.932Z" fill="#ffffff"/>
</svg>
