<?xml version="1.0" encoding="utf-8"?>
<!-- Generator: Adobe Illustrator 21.1.0, SVG Export Plug-In . SVG Version: 6.00 Build 0)  -->
<svg version="1.1" id="Слой_1" xmlns="http://www.w3.org/2000/svg" xmlns:xlink="http://www.w3.org/1999/xlink" x="0px" y="0px"
	 viewBox="0 0 36 36" style="enable-background:new 0 0 36 36;" xml:space="preserve">
<style type="text/css">
	.st0{fill:#FFFFFF;}
</style>
<g>
	<path class="st0" d="M18,0C8.1,0,0,8.1,0,18c0,9.9,8.1,18,18,18s18-8.1,18-18C36,8.1,27.9,0,18,0z M18.6,31
		c-3,0-13.2-1.3-13.2-11.5C5.4,9.3,13.3,5,16.9,5c1.1,0,2.1,0.2,4.2,1v7.6c-0.9-0.6-2.1-1.1-3.4-1.1c-3.2,0-6.7,2.4-6.7,6.3
		c0,3.9,2.9,6.7,6.9,6.7c1.3,0,2.3-0.4,3.1-0.9c0.1,0.8,0.7,1.5,1.6,1.5c0.9,0,1.6-0.7,1.6-1.6V7.5c3.2,1.9,6.2,5.1,6.2,10.5
		C30.6,28.9,21.6,31,18.6,31z M21.1,17.8v1.8c-0.1,0.1-0.1,0.3-0.2,0.4c0,0-0.7,2.3-2.9,2.3c-2.8,0-3.7-1.9-3.7-3.5
		c0-1.8,1.8-3.1,3.5-3.1C19.1,15.8,20.6,17.2,21.1,17.8z"/>
</g>
</svg>
