<svg width="24" height="24" viewBox="0 0 24 24" fill="none" xmlns="http://www.w3.org/2000/svg">
<path d="M11.9519 1C12.5042 1 12.9519 1.44772 12.9519 2V4.5H16.4998C17.052 4.5 17.4998 4.94772 17.4998 5.5C17.4998 6.05228 17.052 6.5 16.4998 6.5H9.63291C8.69143 6.5 8.27162 7.68242 9.00232 8.27611L12.6427 11.2339L16.1031 14.2329C18.2017 16.0517 16.9154 19.5 14.1383 19.5H12.9519V22.001C12.9519 22.5533 12.5042 23.001 11.9519 23.001C11.3996 23.001 10.9519 22.5533 10.9519 22.001V19.5H7.49976C6.94747 19.5 6.49976 19.0523 6.49976 18.5C6.49976 17.9477 6.94747 17.5 7.49976 17.5H14.1383C15.064 17.5 15.4928 16.3506 14.7932 15.7443L11.3568 12.7661L7.74114 9.82834C5.54903 8.04725 6.80845 4.5 9.63291 4.5H10.9519V2C10.9519 1.44772 11.3996 1 11.9519 1Z" fill="#ffffff"/>
</svg>
