<svg width="24" height="24" viewBox="0 0 24 24" fill="none" xmlns="http://www.w3.org/2000/svg">
<path d="M10.8628 11.999L19.0628 16.699C19.1287 16.7386 19.204 16.7599 19.2808 16.7608C19.3577 16.7617 19.4335 16.7421 19.5003 16.704C19.5671 16.6659 19.6225 16.6107 19.6609 16.5441C19.6993 16.4775 19.7193 16.4019 19.7188 16.325V7.66799C19.7197 7.59098 19.7 7.51514 19.6616 7.44838C19.6232 7.38163 19.5675 7.32641 19.5005 7.2885C19.4335 7.25059 19.3575 7.23138 19.2805 7.23287C19.2035 7.23436 19.1283 7.25651 19.0628 7.29699L10.8628 11.999Z" fill="#ffffff"/>
<path d="M18.8922 5.21699L13.2852 1.09199C13.2269 1.04786 13.1587 1.01874 13.0865 1.00717C13.0143 0.99561 12.9404 1.00196 12.8713 1.02566C12.8021 1.04937 12.7399 1.0897 12.69 1.14312C12.6401 1.19653 12.6041 1.26139 12.5852 1.33199L10.5352 10.519L18.8432 5.92499C18.9064 5.89251 18.9601 5.84427 18.9992 5.78493C19.0383 5.7256 19.0614 5.65719 19.0664 5.5863C19.0713 5.51541 19.0579 5.44445 19.0273 5.38028C18.9968 5.31611 18.9503 5.2609 18.8922 5.21999" fill="#ffffff"/>
<path d="M13.2782 22.902L18.8922 18.777C18.9503 18.7355 18.9968 18.6798 19.0274 18.6153C19.058 18.5507 19.0717 18.4795 19.0671 18.4082C19.0625 18.3369 19.0398 18.268 19.0011 18.208C18.9625 18.1479 18.9091 18.0987 18.8462 18.065L10.5352 13.472L12.5832 22.66C12.5998 22.7321 12.6342 22.7989 12.6833 22.8543C12.7324 22.9097 12.7946 22.9519 12.8643 22.9771C12.9339 23.0023 13.0087 23.0096 13.0819 22.9984C13.155 22.9872 13.2243 22.9578 13.2832 22.913" fill="#ffffff"/>
<path d="M8.72899 11.831L10.862 1.85301C10.8784 1.77034 10.8698 1.68465 10.8372 1.60693C10.8046 1.52921 10.7495 1.463 10.679 1.41679C10.6085 1.37059 10.5258 1.34649 10.4415 1.3476C10.3573 1.34871 10.2752 1.37497 10.206 1.42301L4.74299 5.61301C4.60496 5.7189 4.49319 5.85518 4.41636 6.01126C4.33953 6.16735 4.29971 6.33904 4.29999 6.51301V17.147C4.29676 17.3242 4.33515 17.4996 4.4121 17.6592C4.48904 17.8189 4.60238 17.9582 4.74299 18.066L10.18 22.239C10.2492 22.2871 10.3313 22.3133 10.4155 22.3144C10.4998 22.3155 10.5825 22.2914 10.653 22.2452C10.7235 22.199 10.7786 22.1328 10.8112 22.0551C10.8438 21.9774 10.8524 21.8917 10.836 21.809L8.72899 11.831Z" fill="#ffffff"/>
</svg>
