<svg width="24" height="24" viewBox="0 0 24 24" fill="none" xmlns="http://www.w3.org/2000/svg">
<path d="M21.55 12.99L19.85 11.463H18.907L16.907 9.45102C17.1568 8.9992 17.3305 8.50929 17.421 8.00101C17.3638 7.24835 17.0513 6.5378 16.5352 5.98697C16.0191 5.43614 15.3304 5.07807 14.583 4.97202C13.8077 5.06856 13.0857 5.41739 12.5282 5.96475C11.9707 6.51211 11.6088 7.22762 11.498 8.00101C11.505 8.67778 11.7736 9.32559 12.2477 9.80862C12.7218 10.2917 13.3645 10.5724 14.041 10.592C14.3389 10.5609 14.6283 10.4741 14.894 10.336L13.5021 11.736L11.652 11.048L10.302 12.324L7.453 12.479L6.49597 9.56601H5.05908L3.55908 12.324L2.40308 12.004C2.40599 9.45881 3.4183 7.01868 5.21802 5.21896C7.01774 3.41925 9.45787 2.40693 12.0031 2.40402C14.5482 2.40693 16.9884 3.41925 18.7881 5.21896C20.5878 7.01868 21.6001 9.45881 21.603 12.004C21.603 12.304 21.5881 12.611 21.5541 12.992L21.55 12.99ZM8.19702 4.97098C7.37702 4.97098 6.49707 6.16197 6.49707 6.99997C6.49707 7.39779 6.6551 7.77933 6.9364 8.06064C7.21771 8.34194 7.59925 8.49997 7.99707 8.49997C8.86507 8.49997 10.297 7.79997 10.297 6.99997C10.1846 6.49355 9.92602 6.03133 9.55322 5.67062C9.18042 5.30991 8.70992 5.0666 8.20007 4.97098H8.19702Z" fill="#ffffff"/>
<path d="M8.27996 5.30001C7.97933 5.30001 7.68544 5.38915 7.43548 5.55617C7.18552 5.72319 6.99071 5.96059 6.87567 6.23833C6.76062 6.51608 6.7305 6.82169 6.78915 7.11654C6.8478 7.41139 6.99259 7.68224 7.20516 7.89481C7.41774 8.10739 7.68857 8.25215 7.98342 8.3108C8.27827 8.36945 8.58388 8.33935 8.86163 8.22431C9.13937 8.10926 9.37677 7.91443 9.54379 7.66446C9.71081 7.4145 9.79995 7.12064 9.79995 6.82001C9.79995 6.41688 9.63982 6.03025 9.35476 5.7452C9.06971 5.46014 8.68309 5.30001 8.27996 5.30001ZM8.27996 9.14C7.82111 9.14 7.37254 9.00394 6.99102 8.74901C6.6095 8.49409 6.31216 8.13175 6.13656 7.70783C5.96096 7.28391 5.91502 6.81743 6.00454 6.36739C6.09406 5.91735 6.315 5.50398 6.63946 5.17952C6.96392 4.85507 7.37732 4.63409 7.82736 4.54458C8.27739 4.45506 8.74385 4.50101 9.16778 4.67661C9.5917 4.85221 9.95405 5.14956 10.209 5.53109C10.4639 5.91261 10.6 6.36116 10.6 6.82001C10.5994 7.43515 10.3548 8.02494 9.91985 8.4599C9.48488 8.89487 8.8951 9.13947 8.27996 9.14Z" fill="#ffffff"/>
<path d="M20.05 10.99L19.19 11.14L17.95 9.42H17.55C17.881 8.79514 18.0101 8.08302 17.9196 7.38172C17.829 6.68042 17.5233 6.02446 17.0444 5.50417C16.5655 4.98388 15.9371 4.62486 15.2457 4.47658C14.5543 4.32829 13.834 4.39802 13.1838 4.67617C12.5337 4.95432 11.9858 5.42721 11.6157 6.02969C11.2455 6.63217 11.0712 7.3346 11.1169 8.04025C11.1625 8.74589 11.4258 9.42002 11.8705 9.96979C12.3152 10.5196 12.9195 10.9179 13.6 11.11L13.55 11.16L13.06 11.41L12.26 11.12L11.47 10.66L10.36 12.06L9.47 11.57L7.76 12.01L6.9 9.19H4.8L3.27 11.87L2.8 11.88C2.81592 9.44001 3.80046 7.10627 5.53705 5.39219C7.27364 3.67811 9.62001 2.72409 12.06 2.74C14.5 2.75591 16.8337 3.74046 18.5478 5.47704C20.2619 7.21363 21.2159 9.56001 21.2 12V12.29L20.05 10.99ZM15.4 17.03C14.9216 17.2375 14.4002 17.3267 13.88 17.29C13.3598 17.3267 12.8384 17.2375 12.36 17.03C12.4 16.47 13.08 16.01 13.88 16.01C14.68 16.01 15.36 16.47 15.4 17.03ZM17.73 13.62C18.53 13.62 19.21 14.08 19.25 14.64C18.7712 14.8462 18.2501 14.9353 17.73 14.9C17.2099 14.9353 16.6888 14.8462 16.21 14.64C16.25 14.08 16.93 13.62 17.73 13.62ZM17.32 12.64C16.8412 12.8462 16.3201 12.9353 15.8 12.9C15.2799 12.9353 14.7588 12.8462 14.28 12.64C14.32 12.08 15 11.62 15.8 11.62C16.6 11.62 17.28 12.08 17.32 12.64ZM16.71 9.25L16.11 8.44L14.25 10.43C13.7482 10.3763 13.2728 10.1784 12.8811 9.86021C12.4894 9.54203 12.1983 9.11721 12.0429 8.6371C11.8875 8.15698 11.8745 7.64214 12.0055 7.15481C12.1365 6.66748 12.4059 6.22853 12.781 5.89102C13.1562 5.55351 13.6211 5.3319 14.1195 5.25298C14.6179 5.17406 15.1285 5.2412 15.5896 5.4463C16.0507 5.6514 16.4425 5.98566 16.7176 6.40868C16.9927 6.8317 17.1395 7.32537 17.14 7.83C17.1387 8.33521 16.9892 8.82893 16.71 9.25ZM16.28 20.14C15.2851 19.7462 14.2483 19.4677 13.19 19.31C12.77 19.23 12.33 19.14 11.91 19.05C11.52 18.96 11.14 18.89 10.8 18.83C10.3223 18.7632 9.85296 18.6459 9.4 18.48C9.69996 18.1184 10.0624 17.8136 10.47 17.58C10.75 17.39 11.6 16.81 11.37 16.07C11.16 15.38 10.07 14.96 7.85 14.72L7.22 14.66C7.11 14.33 6.95 13.86 6.72 13.18L6.34 12.07L5.96 13.18C5.83 13.55 5.73 13.85 5.64 14.11C5.54 13.79 5.36 13.27 5.05 12.37L4.7 11.24L4.32 12.35C3.8 13.87 3.65 14.32 3.61 14.49H3.15C2.98681 13.898 2.87967 13.292 2.83 12.68L3.75 12.65L5.27 9.99H6.32L7.23 12.98L9.37 12.43L9.86 12.7L8.82 14.01L9.45 14.51L11.67 11.7L11.93 11.85L13.13 12.29L13.65 12.02C13.5466 12.2319 13.4919 12.4642 13.49 12.7C13.49 12.94 13.64 13.45 14.78 13.64C14.9556 13.6689 15.1153 13.7591 15.2306 13.8946C15.346 14.0301 15.4095 14.2021 15.41 14.38V15.68C15.2432 15.5632 15.0616 15.469 14.87 15.4H14.88C14.6649 15.3611 14.4628 15.2695 14.2918 15.1334C14.1207 14.9973 13.9861 14.8209 13.9 14.62C13.8415 14.7862 13.7436 14.9357 13.6147 15.0559C13.4859 15.176 13.3299 15.2632 13.16 15.31C12.7346 15.3893 12.3472 15.6066 12.0579 15.9285C11.7686 16.2503 11.5936 16.6586 11.56 17.09C11.56 17.39 11.79 18.1 13.88 18.1C15.97 18.1 16.2 17.39 16.2 17.09V15.52C16.3592 15.5752 16.5233 15.6154 16.69 15.64C16.8656 15.6689 17.0253 15.7591 17.1406 15.8946C17.256 16.0301 17.3195 16.2021 17.32 16.38V17.28C17.3174 17.3821 17.3528 17.4816 17.4193 17.5592C17.4858 17.6367 17.5787 17.6869 17.68 17.7C17.7356 17.7048 17.7917 17.6981 17.8446 17.6802C17.8975 17.6624 17.9461 17.6338 17.9875 17.5962C18.0288 17.5586 18.0619 17.5129 18.0847 17.462C18.1075 17.411 18.1195 17.3558 18.12 17.3V16.38C18.1205 16.2021 18.1841 16.0301 18.2994 15.8946C18.4148 15.7591 18.5744 15.6689 18.75 15.64C19.89 15.45 20.04 14.95 20.04 14.7C20.0234 14.3613 19.9125 14.034 19.7199 13.7548C19.5274 13.4757 19.2607 13.2558 18.95 13.12H18.96C18.95 13.12 18.94 13.11 18.92 13.11C18.8043 13.053 18.6838 13.0062 18.56 12.97C18.3838 12.8871 18.2296 12.7637 18.11 12.61C18.0632 12.243 17.912 11.8972 17.6745 11.6136C17.437 11.33 17.123 11.1205 16.77 11.01H16.76C16.71 10.99 16.66 10.98 16.61 10.96C16.4261 10.9133 16.256 10.8238 16.1134 10.6986C15.9709 10.5734 15.8601 10.4163 15.79 10.24C15.7154 10.4354 15.5914 10.6081 15.4302 10.7413C15.269 10.8745 15.076 10.9636 14.87 11C14.8351 11.009 14.8015 11.0224 14.77 11.04L16.02 9.71L16.77 10.72L17.37 10.24H17.52L18.82 12.03L19.74 11.87L21.09 13.4C20.8714 14.8214 20.3223 16.1717 19.4869 17.3423C18.6515 18.5129 17.5531 19.4711 16.28 20.14ZM6.09 15.36L6.36 14.55L6.63 15.36C6.45396 15.4133 6.26605 15.4133 6.09 15.36ZM4.44 14.51C4.5 14.33 4.59 14.04 4.7 13.73C4.81 14.05 4.91 14.34 4.96 14.52C4.78 14.52 4.61 14.51 4.44 14.51ZM12 21.2C10.1401 21.1982 8.32417 20.6337 6.79102 19.5807C5.25788 18.5277 4.07923 17.0354 3.41 15.3C3.67 15.3 3.95 15.31 4.23 15.31C4.37976 15.3515 4.53461 15.3717 4.69 15.37C4.81455 15.3726 4.93891 15.3592 5.06 15.33C5.1235 15.3286 5.18701 15.3319 5.25 15.34C5.237 15.3717 5.23021 15.4057 5.23 15.44C5.23 15.88 5.7 16.2 6.35 16.2C6.98 16.2 7.44 15.9 7.46 15.48L7.77 15.51C10.43 15.8 10.61 16.28 10.61 16.3C10.62 16.34 10.56 16.55 10.02 16.91C8.89001 17.69 8.5 18.16 8.6 18.65C8.72 19.24 9.49 19.39 10.66 19.61C10.99 19.67 11.36 19.74 11.74 19.83C12.16 19.92 12.61 20.01 13.04 20.1C13.82 20.26 14.62 20.42 15.26 20.61C14.2177 21.0014 13.1133 21.2012 12 21.2ZM12 2C10.0222 2 8.08879 2.58649 6.4443 3.6853C4.79981 4.78412 3.51809 6.3459 2.76121 8.17317C2.00433 10.0004 1.8063 12.0111 2.19215 13.9509C2.578 15.8907 3.53041 17.6725 4.92894 19.0711C6.32746 20.4696 8.10929 21.422 10.0491 21.8079C11.9889 22.1937 13.9996 21.9957 15.8268 21.2388C17.6541 20.4819 19.2159 19.2002 20.3147 17.5557C21.4135 15.9112 22 13.9778 22 12C21.9958 9.34913 20.9408 6.80805 19.0664 4.93361C17.192 3.05916 14.6509 2.00423 12 2Z" fill="#ffffff"/>
</svg>
