<?xml version="1.0" encoding="utf-8"?>
<!-- Generator: Adobe Illustrator 21.1.0, SVG Export Plug-In . SVG Version: 6.00 Build 0)  -->
<svg version="1.1" id="Слой_1" xmlns="http://www.w3.org/2000/svg" xmlns:xlink="http://www.w3.org/1999/xlink" x="0px" y="0px"
	 viewBox="0 0 36 36" style="enable-background:new 0 0 36 36;" xml:space="preserve">
<style type="text/css">
	.st0{fill:#FFFFFF;}
</style>
<g>
	<g>
		<path class="st0" d="M7.7,12v11.9L18,29.8l10.3-5.9V12L18,6.1L7.7,12z M17.1,23.9l-1.9,1.8h-1.6l-4.1-7l3-2.2l2.6,1.7v3l2,1.9
			V23.9z M15.8,20.7l0.3-2.8l-1-2.5h5.8l-0.9,2.5l0.3,2.8L15.8,20.7z M22.4,25.6h-1.6l-1.9-1.8l0-0.9l2-1.9v-3l2.6-1.7l3,2.2
			L22.4,25.6z M23.5,14.9l-11,0l1-4.5h8.9L23.5,14.9z"/>
	</g>
	<g>
		<path class="st0" d="M18,0C8.1,0,0,8.1,0,18c0,9.9,8.1,18,18,18s18-8.1,18-18C36,8.1,27.9,0,18,0z M29.3,24.5L18,31L6.7,24.5v-13
			L18,5l11.3,6.5V24.5z"/>
	</g>
</g>
</svg>
