<svg width="24" height="24" viewBox="0 0 24 24" fill="none" xmlns="http://www.w3.org/2000/svg">
<path d="M8.6749 8.113L13.8749 2.913L11.9709 1L4.85791 8.113L11.9709 15.226L19.0839 8.113L15.5559 4.585L13.6479 6.494L15.2669 8.113L11.9669 11.413L8.6669 8.113" fill="#ffffff"/>
<path d="M12.029 17.714L6.829 12.514L4.921 14.422L10.121 19.622L12.029 21.53L13.937 19.622L19.137 14.422L17.229 12.514L12.029 17.714ZM18.448 11.295L20.356 9.38702L23.999 13.03L22.094 14.938L18.448 11.295ZM1.908 14.881L0 12.972L3.643 9.32898L5.551 11.237L1.908 14.881Z" fill="#ffffff"/>
</svg>
