<svg width="24" height="24" viewBox="0 0 24 24" fill="none" xmlns="http://www.w3.org/2000/svg">
<path d="M11.3581 6.00901C10.126 6.07644 8.92854 6.44041 7.86737 7.06997C6.80621 7.69953 5.91278 8.57606 5.26307 9.62501H5.23407C5.09983 9.6251 4.96809 9.66131 4.85267 9.72985C4.73725 9.79839 4.6424 9.89673 4.57807 10.0145C4.51374 10.1324 4.4823 10.2653 4.48705 10.3995C4.4918 10.5336 4.53257 10.664 4.60507 10.777C4.22643 11.5606 4.01042 12.4127 3.97007 13.282L2.97007 12.299C2.87581 12.2121 2.80931 12.0993 2.77889 11.9748C2.74847 11.8503 2.75549 11.7196 2.79907 11.599C3.49099 9.43511 4.86039 7.55104 6.70507 6.22501C6.81305 6.27559 6.93156 6.2996 7.05072 6.29501C7.16987 6.29043 7.28619 6.25739 7.38996 6.19865C7.49373 6.13991 7.58193 6.05718 7.64719 5.95739C7.71245 5.85759 7.75287 5.74362 7.76507 5.62501C9.10956 4.99321 10.5759 4.66291 12.0614 4.6572C13.5469 4.6515 15.0158 4.97055 16.3651 5.59201C16.3655 5.72098 16.3993 5.84765 16.4631 5.95975C16.5268 6.07185 16.6185 6.16558 16.7291 6.23186C16.8398 6.29815 16.9657 6.33474 17.0946 6.33809C17.2235 6.34144 17.3511 6.31145 17.4651 6.25101C17.9235 6.57326 18.3492 6.93968 18.7361 7.34501L17.7601 8.32101C16.4132 6.95319 14.6186 6.11643 12.7051 5.96401C12.6398 5.83952 12.5407 5.73596 12.4192 5.66521C12.2977 5.59445 12.1588 5.55935 12.0183 5.56395C11.8778 5.56854 11.7414 5.61263 11.6248 5.69117C11.5082 5.76972 11.4161 5.87952 11.3591 6.00801L11.3581 6.00901ZM18.1581 17.275C18.1145 17.3219 18.0855 17.3805 18.0747 17.4437C18.064 17.5068 18.0718 17.5717 18.0974 17.6304C18.123 17.6892 18.1652 17.7391 18.2188 17.7742C18.2724 17.8093 18.335 17.828 18.3991 17.828H21.1411V18.287C21.1411 18.9333 20.8845 19.5531 20.4277 20.0102C19.9709 20.4674 19.3513 20.7245 18.7051 20.725H5.37907C5.05882 20.725 4.74171 20.6619 4.44586 20.5393C4.15 20.4167 3.88119 20.2371 3.65479 20.0106C3.42839 19.7841 3.24883 19.5152 3.12636 19.2193C3.0039 18.9234 2.94094 18.6063 2.94107 18.286V17.825H5.60507C5.67485 17.8256 5.74325 17.8055 5.80157 17.7672C5.8599 17.7289 5.90551 17.6741 5.93263 17.6098C5.95974 17.5455 5.96713 17.4746 5.95386 17.4061C5.94058 17.3375 5.90724 17.2745 5.85807 17.225L1.51207 12.918C1.28745 12.6959 1.12811 12.4163 1.0514 12.1099C0.9747 11.8034 0.983577 11.4818 1.07707 11.18C1.72616 9.03017 2.98805 7.11626 4.70823 5.67263C6.42841 4.22899 8.53222 3.31828 10.7621 3.05201C10.7621 3.05201 15.7351 2.42501 19.2121 5.51501C21.0873 7.06624 22.4087 9.18387 22.9781 11.55C23.0199 11.7925 23.0056 12.0414 22.9363 12.2775C22.8669 12.5136 22.7444 12.7306 22.5781 12.912L18.1581 17.275ZM3.71307 18.407C3.71307 18.6226 3.75554 18.8362 3.83806 19.0354C3.92058 19.2346 4.04153 19.4156 4.194 19.5681C4.34647 19.7205 4.52749 19.8415 4.7267 19.924C4.92592 20.0065 5.13944 20.049 5.35507 20.049H18.6801C19.1156 20.049 19.5332 19.876 19.8411 19.5681C20.1491 19.2601 20.3221 18.8425 20.3221 18.407H3.71307ZM21.8051 12.673C21.947 12.5322 22.0483 12.3557 22.0983 12.1621C22.1483 11.9684 22.1451 11.7649 22.0891 11.573C21.3987 9.14897 19.9077 7.0302 17.8591 5.56201C17.8554 5.43347 17.8186 5.30807 17.7521 5.19796C17.6857 5.08786 17.592 4.99679 17.48 4.9336C17.368 4.87041 17.2416 4.83725 17.113 4.83732C16.9844 4.83739 16.858 4.87069 16.7461 4.93401C15.3047 4.21613 13.7163 3.84249 12.1061 3.84249C10.4958 3.84249 8.90747 4.21613 7.46607 4.93401C7.35492 4.85128 7.22295 4.8011 7.08491 4.78907C6.94688 4.77704 6.80822 4.80364 6.68443 4.8659C6.56065 4.92815 6.45662 5.02361 6.38397 5.14159C6.31133 5.25958 6.27293 5.39545 6.27307 5.53401C6.27317 5.58031 6.27752 5.6265 6.28607 5.67201L6.27307 5.65501C4.22305 7.08002 2.71812 9.15935 2.00507 11.552C1.94788 11.7206 1.93922 11.9019 1.98006 12.0751C2.0209 12.2484 2.10961 12.4067 2.23607 12.532L7.26507 17.61C7.3007 17.6488 7.34381 17.68 7.39182 17.7017C7.43982 17.7233 7.49172 17.7351 7.54438 17.7361C7.59704 17.7372 7.64937 17.7276 7.69822 17.7079C7.74706 17.6882 7.79141 17.6588 7.82859 17.6215C7.86577 17.5842 7.895 17.5397 7.91453 17.4908C7.93405 17.4419 7.94347 17.3895 7.94221 17.3369C7.94094 17.2842 7.92903 17.2323 7.90718 17.1844C7.88532 17.1365 7.85399 17.0935 7.81507 17.058L7.50507 16.605C7.10471 15.8957 6.87927 15.1011 6.84744 14.2871C6.81562 13.4732 6.97832 12.6635 7.32207 11.925L8.88807 12.868C8.64777 13.4615 8.57848 14.1104 8.68805 14.7412C8.79763 15.372 9.08168 15.9596 9.50804 16.4373C9.9344 16.9149 10.486 17.2636 11.1004 17.4439C11.7148 17.6242 12.3673 17.6288 12.9842 17.4572C13.6011 17.2856 14.1575 16.9446 14.5906 16.473C15.0236 16.0014 15.3159 15.4179 15.4343 14.7887C15.5528 14.1594 15.4926 13.5096 15.2607 12.9128C15.0288 12.316 14.6343 11.7961 14.1221 11.412L15.0051 9.89001C16.117 10.6962 16.8712 11.9038 17.1077 13.2567C17.3442 14.6096 17.0445 16.0014 16.2721 17.137C16.2209 17.2182 16.2018 17.3156 16.2185 17.4101C16.2352 17.5047 16.2866 17.5896 16.3625 17.6483C16.4385 17.707 16.5336 17.7353 16.6293 17.7277C16.725 17.72 16.8144 17.677 16.8801 17.607L21.8051 12.673ZM19.2051 7.84901L17.9921 9.09301C17.9583 9.12799 17.9177 9.15565 17.8729 9.17427C17.828 9.19288 17.7797 9.20206 17.7311 9.20121C17.6825 9.20037 17.6346 9.18952 17.5904 9.16936C17.5462 9.1492 17.5066 9.12014 17.4741 9.08401C16.2104 7.72623 14.4751 6.90333 12.6241 6.78401C12.5536 6.87157 12.4642 6.94212 12.3627 6.9904C12.2612 7.03868 12.15 7.06346 12.0376 7.06288C11.9252 7.0623 11.8144 7.03639 11.7133 6.98707C11.6123 6.93775 11.5237 6.86629 11.4541 6.77801C10.4556 6.85046 9.48257 7.12681 8.59507 7.59001L9.23107 8.79001C9.23543 8.79876 9.24158 8.80651 9.24912 8.81275C9.25667 8.81898 9.26543 8.82357 9.27485 8.8262C9.28428 8.82884 9.29415 8.82948 9.30383 8.82806C9.31351 8.82665 9.32279 8.82323 9.33107 8.81801C10.2662 8.34548 11.3076 8.1225 12.3542 8.17068C13.4008 8.21886 14.4173 8.53656 15.3051 9.09301C16.3584 9.76313 17.1701 10.7523 17.6218 11.9161C18.0735 13.08 18.1416 14.3577 17.8161 15.563L19.3781 14.002C19.4474 13.0055 19.2496 12.0086 18.8051 11.114C18.6411 11.1053 18.4846 11.043 18.3594 10.9367C18.2343 10.8304 18.1475 10.6859 18.1124 10.5256C18.0773 10.3652 18.0957 10.1977 18.1649 10.0488C18.2342 9.89995 18.3503 9.77791 18.4956 9.70142C18.6409 9.62494 18.8073 9.59824 18.9692 9.62542C19.1311 9.6526 19.2796 9.73217 19.392 9.8519C19.5043 9.97163 19.5743 10.1249 19.5911 10.2882C19.6079 10.4516 19.5707 10.6159 19.4851 10.756C19.835 11.535 20.0604 12.3641 20.1531 13.213L21.2081 12.159C21.2688 12.0877 21.3084 12.0008 21.3222 11.9082C21.336 11.8155 21.3235 11.7209 21.2861 11.635C20.8399 10.2502 20.1298 8.96488 19.1951 7.85001L19.2051 7.84901ZM9.35707 9.66001C9.26524 9.70877 9.15803 9.71986 9.05816 9.69093C8.95829 9.66199 8.87361 9.59531 8.82207 9.50501L7.97607 7.95201C7.14433 8.50237 6.44268 9.22756 5.92007 10.077C5.96467 10.1818 5.98474 10.2953 5.97874 10.409C5.97274 10.5227 5.94083 10.6335 5.88544 10.733C5.83006 10.8325 5.75267 10.918 5.65919 10.983C5.56571 11.048 5.45861 11.0907 5.34607 11.108C4.92022 11.9974 4.68357 12.9655 4.65107 13.951L6.20507 15.48C5.98169 14.508 6.00503 13.4956 6.27296 12.535C6.54089 11.5744 7.04489 10.696 7.73907 9.98001C7.74841 9.97017 7.75966 9.96234 7.77212 9.95699C7.78458 9.95164 7.79801 9.94888 7.81157 9.94888C7.82513 9.94888 7.83855 9.95164 7.85102 9.95699C7.86348 9.96234 7.87473 9.97017 7.88407 9.98001L8.31207 10.408C8.32305 10.4174 8.33186 10.429 8.3379 10.4422C8.34395 10.4553 8.34708 10.4696 8.34708 10.484C8.34708 10.4985 8.34395 10.5127 8.3379 10.5258C8.33186 10.539 8.32305 10.5506 8.31207 10.56C8.05839 10.7872 7.8361 11.0471 7.65107 11.333L9.20507 12.272C9.66056 11.5815 10.3504 11.0791 11.1472 10.8572C11.9441 10.6354 12.7943 10.7092 13.5411 11.065L14.4351 9.51601C13.6428 9.11797 12.7641 8.92285 11.8778 8.94816C10.9915 8.97347 10.1254 9.21841 9.35707 9.66101V9.66001ZM5.25707 9.96001C5.17103 9.96001 5.08693 9.98552 5.0154 10.0333C4.94386 10.0811 4.88811 10.1491 4.85518 10.2285C4.82226 10.308 4.81364 10.3955 4.83043 10.4799C4.84721 10.5643 4.88864 10.6418 4.94948 10.7026C5.01031 10.7634 5.08782 10.8049 5.1722 10.8216C5.25659 10.8384 5.34405 10.8298 5.42354 10.7969C5.50302 10.764 5.57096 10.7082 5.61876 10.6367C5.66656 10.5651 5.69207 10.481 5.69207 10.395C5.69233 10.3378 5.68131 10.2811 5.65963 10.2282C5.63795 10.1752 5.60604 10.1271 5.56572 10.0865C5.52541 10.0459 5.47748 10.0136 5.42469 9.9916C5.3719 9.96955 5.31528 9.95814 5.25807 9.95801L5.25707 9.96001ZM7.04407 5.12501C6.95803 5.12501 6.87393 5.15052 6.8024 5.19832C6.73086 5.24611 6.67511 5.31405 6.64218 5.39354C6.60926 5.47302 6.60064 5.56049 6.61743 5.64487C6.63421 5.72925 6.67564 5.80676 6.73648 5.8676C6.79731 5.92843 6.87482 5.96986 6.95921 5.98665C7.04359 6.00343 7.13105 5.99482 7.21054 5.96189C7.29002 5.92897 7.35796 5.87321 7.40576 5.80168C7.45356 5.73014 7.47907 5.64604 7.47907 5.56001C7.47907 5.44464 7.43324 5.33399 7.35166 5.25241C7.27008 5.17084 7.15944 5.12501 7.04407 5.12501ZM12.0651 5.89801C11.979 5.89801 11.8949 5.92352 11.8234 5.97132C11.7519 6.01911 11.6961 6.08705 11.6632 6.16654C11.6303 6.24602 11.6216 6.33349 11.6384 6.41787C11.6552 6.50225 11.6966 6.57976 11.7575 6.6406C11.8183 6.70143 11.8958 6.74286 11.9802 6.75965C12.0646 6.77643 12.1521 6.76782 12.2315 6.73489C12.311 6.70197 12.379 6.64621 12.4268 6.57468C12.4746 6.50314 12.5001 6.41904 12.5001 6.33301C12.499 6.2185 12.4529 6.10903 12.3716 6.02835C12.2904 5.94766 12.1806 5.90226 12.0661 5.90201L12.0651 5.89801ZM17.1351 5.12501C17.049 5.12501 16.9649 5.15052 16.8934 5.19832C16.8219 5.24611 16.7661 5.31405 16.7332 5.39354C16.7003 5.47302 16.6916 5.56049 16.7084 5.64487C16.7252 5.72925 16.7666 5.80676 16.8275 5.8676C16.8883 5.92843 16.9658 5.96986 17.0502 5.98665C17.1346 6.00343 17.2221 5.99482 17.3015 5.96189C17.381 5.92897 17.449 5.87321 17.4968 5.80168C17.5446 5.73014 17.5701 5.64604 17.5701 5.56001C17.5701 5.44464 17.5242 5.33399 17.4427 5.25241C17.3611 5.17084 17.2504 5.12501 17.1351 5.12501ZM18.8731 9.95301C18.787 9.95301 18.7029 9.97852 18.6314 10.0263C18.5599 10.0741 18.5041 10.1421 18.4712 10.2215C18.4383 10.301 18.4296 10.3885 18.4464 10.4729C18.4632 10.5573 18.5046 10.6348 18.5655 10.6956C18.6263 10.7564 18.7038 10.7979 18.7882 10.8146C18.8726 10.8314 18.9601 10.8228 19.0395 10.7899C19.119 10.757 19.187 10.7012 19.2348 10.6297C19.2826 10.5581 19.3081 10.474 19.3081 10.388C19.3068 10.2737 19.2605 10.1645 19.1793 10.084C19.098 10.0035 18.9884 9.95826 18.8741 9.95801L18.8731 9.95301Z" fill="#ffffff"/>
</svg>
