<svg width="24" height="24" viewBox="0 0 24 24" fill="none" xmlns="http://www.w3.org/2000/svg">
<path d="M12 22C9.34873 21.9971 6.80686 20.9426 4.93213 19.0678C3.0574 17.1931 2.00291 14.6513 2 12C2.00291 9.34873 3.0574 6.80689 4.93213 4.93216C6.80686 3.05743 9.34873 2.00291 12 2C14.6513 2.00291 17.1931 3.05743 19.0679 4.93216C20.9426 6.80689 21.9971 9.34873 22 12C21.9971 14.6513 20.9426 17.1931 19.0679 19.0678C17.1931 20.9426 14.6513 21.9971 12 22ZM10.21 12.341C8.16996 12.341 7 13.211 7 14.727C7 16.243 7.97505 17.114 9.67505 17.114C10.9358 17.1087 12.1499 16.6365 13.083 15.7887C14.0161 14.9409 14.6022 13.7775 14.728 12.523C14.3956 12.582 14.0586 12.6118 13.7209 12.612H13.688C13.1059 12.6079 12.5247 12.5628 11.949 12.477C11.3732 12.3908 10.7921 12.3454 10.21 12.341ZM10.28 11.388H10.313C10.8951 11.3924 11.4763 11.4378 12.052 11.524C12.6274 11.6098 13.2083 11.6549 13.79 11.659C15.83 11.659 17 10.789 17 9.27301C17 7.75701 16.025 6.88599 14.325 6.88599C13.0644 6.89156 11.8505 7.36381 10.9176 8.21161C9.98467 9.05941 9.39875 10.2227 9.27295 11.477C9.60537 11.4179 9.94241 11.3882 10.28 11.388Z" fill="#ffffff"/>
</svg>
