<?xml version="1.0" encoding="utf-8"?>
<!-- Generator: Adobe Illustrator 21.1.0, SVG Export Plug-In . SVG Version: 6.00 Build 0)  -->
<svg version="1.1" id="Слой_1" xmlns="http://www.w3.org/2000/svg" xmlns:xlink="http://www.w3.org/1999/xlink" x="0px" y="0px"
	 viewBox="0 0 36 36" style="enable-background:new 0 0 36 36;" xml:space="preserve">
<style type="text/css">
	.st0{fill:#FFFFFF;}
</style>
<g>
	<g>
		<path class="st0" d="M29.5,16.7c-0.2-0.5-0.5-1-0.8-1.4c-0.4-0.4-0.8-0.7-1.3-1c-0.3-0.1-0.5-0.2-0.8-0.3C26.3,14,26,14,25.8,14
			c-0.1,0-0.1,0-0.2,0l-0.2,0c-0.1,0-0.3,0-0.4,0l-0.4,0c-0.1,0-0.3,0-0.4,0.1c-0.6,0.1-1.1,0.3-1.6,0.5c-1.1,0.5-2.1,1.1-3.1,1.9
			c-1,0.7-1.9,1.5-2.9,2.4c-0.2,0.1-0.3,0.3-0.5,0.4c0.7,0.5,1.4,1,2.2,1.4c0.5,0.3,1.1,0.6,1.6,0.8c0.6,0.2,1.1,0.4,1.7,0.6
			c1.2,0.3,2.4,0.4,3.5,0.3c0.1,0,0.3,0,0.4-0.1l0.4-0.1l0.4-0.1l0.2-0.1c0.1,0,0.1,0,0.2-0.1l0.4-0.1l0.4-0.2
			c0.1-0.1,0.2-0.1,0.4-0.2c0.1-0.1,0.2-0.1,0.3-0.2c0.9-0.7,1.4-1.7,1.5-2.8c0-0.1,0-0.3,0-0.4l0-0.2c0-0.1,0-0.1,0-0.2
			C29.7,17.3,29.6,17,29.5,16.7z"/>
	</g>
	<g>
		<path class="st0" d="M18,0C8.1,0,0,8.1,0,18c0,9.9,8.1,18,18,18s18-8.1,18-18C36,8.1,27.9,0,18,0z M10.5,13.9c0.6,0,1,0.5,1,1
			c0,0.6-0.5,1-1,1c-0.6,0-1-0.5-1-1C9.5,14.4,9.9,13.9,10.5,13.9z M30.9,18.5c-0.1,0.7-0.3,1.4-0.6,2c-0.3,0.6-0.8,1.2-1.4,1.6
			c-0.1,0.1-0.3,0.2-0.4,0.3c-0.1,0.1-0.3,0.2-0.5,0.3c-0.2,0.1-0.3,0.2-0.5,0.2L27.1,23c-0.1,0-0.2,0.1-0.2,0.1l-0.2,0.1l-0.5,0.1
			l-0.5,0.1c-0.2,0-0.3,0.1-0.5,0c-1.3,0.1-2.7-0.1-3.9-0.5c-1.3-0.4-2.4-0.9-3.5-1.6c-0.8-0.5-1.6-1.1-2.3-1.7
			c-0.6,0.5-1.2,1-1.9,1.4c-0.5,0.4-1.1,0.7-1.7,1c-0.6,0.3-1.2,0.6-1.9,0.7c-0.7,0.1-1.4,0.1-2.1,0c-0.2,0-0.3-0.1-0.5-0.1
			c-0.2-0.1-0.3-0.1-0.5-0.2c-0.3-0.2-0.6-0.4-0.9-0.6c-0.5-0.5-0.8-1.2-0.9-1.9c0-0.1,0-0.2,0-0.4c0-0.1,0-0.1,0-0.2
			c0-0.2,0-0.3,0-0.5c0-0.2,0.1-0.3,0.1-0.5c0.1-0.2,0.1-0.3,0.2-0.5c0.3-0.6,0.8-1.1,1.3-1.5c0.5-0.3,0.9-0.6,1.4-0.9
			c0.1-0.1,0.3,0,0.3,0.1c0.1,0.1,0,0.3-0.1,0.3c-0.5,0.3-0.9,0.6-1.3,0.9c-0.5,0.4-0.8,0.8-1,1.4c-0.1,0.3-0.2,0.5-0.2,0.8
			c0,0.1,0,0.3,0,0.4c0,0.1,0,0.1,0,0.2c0,0.1,0,0.1,0,0.2c0.1,0.5,0.3,1,0.7,1.4c0.2,0.2,0.4,0.3,0.7,0.4c0.1,0.1,0.2,0.1,0.4,0.2
			c0.1,0,0.3,0.1,0.4,0.1c0.5,0.1,1.1,0.1,1.7-0.1c0.6-0.1,1.1-0.4,1.6-0.6c0.5-0.3,1-0.6,1.5-1c0.6-0.4,1.1-0.9,1.7-1.3
			c-0.8-0.8-1.5-1.6-2.2-2.5c-0.1-0.1-0.1-0.3,0.1-0.4l0,0c0.1-0.1,0.3-0.1,0.4,0c0.7,0.8,1.5,1.6,2.3,2.3c1.2-1,2.3-2,3.6-3
			c1-0.8,2.1-1.5,3.3-2c0.6-0.3,1.3-0.5,2-0.6c0.2,0,0.3-0.1,0.5-0.1l0.5,0c0.2,0,0.3,0,0.5,0l0.3,0c0.1,0,0.2,0,0.3,0
			c0.3,0.1,0.7,0.1,1,0.2c0.3,0.1,0.7,0.2,1,0.4c0.6,0.3,1.2,0.7,1.7,1.3c0.5,0.5,0.8,1.2,1.1,1.8c0.1,0.3,0.2,0.7,0.2,1.1
			c0,0.1,0,0.2,0,0.3l0,0.3C31,18.1,31,18.3,30.9,18.5z"/>
	</g>
</g>
</svg>
