<svg width="24" height="24" viewBox="0 0 24 24" fill="none" xmlns="http://www.w3.org/2000/svg">
<path fill-rule="evenodd" clip-rule="evenodd" d="M22.268 9.11601L13.839 6.66201L10.955 11.65L7.60604 7.70501L9.12304 7.50501L10.688 9.37301L12.424 6.25001L4.78304 4.02501C4.67951 3.99536 4.57 3.99346 4.46551 4.01951C4.36101 4.04555 4.26521 4.09862 4.1877 4.17339C4.1102 4.24816 4.05372 4.342 4.02394 4.44549C3.99416 4.54898 3.99213 4.65848 4.01804 4.76301L7.40004 18.567L11.038 12.352L14.387 16.297L12.87 16.497L11.306 14.629L7.86604 20.452L8.37604 22.532C8.40082 22.6369 8.45291 22.7333 8.527 22.8116C8.6011 22.8898 8.69457 22.9471 8.79794 22.9776C8.90131 23.008 9.0109 23.0106 9.11558 22.985C9.22027 22.9595 9.31634 22.9067 9.39404 22.832L22.522 10.151C22.5995 10.076 22.656 9.98207 22.6858 9.87848C22.7157 9.77489 22.7179 9.66529 22.6922 9.56059C22.6665 9.45589 22.6138 9.35975 22.5394 9.28175C22.465 9.20374 22.3714 9.1466 22.268 9.11601Z" fill="#ffffff"/>
</svg>
