<svg width="32" height="32" viewBox="0 0 32 32" fill="none" xmlns="http://www.w3.org/2000/svg">
<circle cx="16" cy="16" r="16" fill="#333333"/>
<path d="M6.76562 15.8189L11.4945 20.5478C12.0839 21.1371 12.9196 21.4089 13.7429 21.2789C14.3837 21.1777 14.9933 20.9854 15.5578 20.7155C14.8432 20.2674 14.2158 19.6945 13.7057 19.0267C13.604 19.0503 13.501 19.0704 13.3967 19.0868C13.2748 19.1061 13.151 19.0658 13.0638 18.9785L8.33486 14.2496L6.76562 15.8189Z" fill="white"/>
<path d="M16.2702 17.3139C16.6583 16.7724 16.926 16.1379 17.0348 15.4488C17.054 15.3269 17.0138 15.2031 16.9265 15.1158L12.1976 10.3869L13.7668 8.81767L18.4957 13.5466C19.0851 14.1359 19.3568 14.9717 19.2268 15.7949C19.0673 16.8051 18.6814 17.7374 18.1222 18.5386C17.3906 18.3133 16.7511 17.883 16.2702 17.3139Z" fill="white"/>
<path d="M13.5044 13.5464L14.1248 12.926L15.6941 14.4952L15.0736 15.1157C14.9863 15.2029 14.9461 15.3267 14.9653 15.4486C15.2611 17.3218 16.7302 18.7909 18.6034 19.0867C18.7253 19.1059 18.8491 19.0657 18.9364 18.9784L23.6652 14.2495L25.2345 15.8187L20.5056 20.5476C19.9162 21.137 19.0805 21.4087 18.2572 21.2788C15.4337 20.8329 13.2191 18.6183 12.7733 15.7948C12.6433 14.9715 12.915 14.1358 13.5044 13.5464Z" fill="white"/>
<path d="M19.8025 10.3868L17.8713 12.318L16.302 10.7488L18.2333 8.81753L19.8025 10.3868Z" fill="white"/>
</svg>
