<svg width="32" height="32" viewBox="0 0 32 32" fill="none" xmlns="http://www.w3.org/2000/svg">
<circle cx="16" cy="16" r="16" fill="#F46100"/>
<path d="M14.9285 7.28711C15.5915 6.9043 16.4084 6.9043 17.0715 7.28711L23.1452 10.7938C23.8082 11.1766 24.2167 11.884 24.2167 12.6497L24.2166 18.9971C24.2166 19.2789 23.9882 19.5074 23.7064 19.5074C23.4246 19.5074 23.1962 19.2789 23.1962 18.9971L23.1962 12.6497C23.1962 12.2486 22.9822 11.878 22.6349 11.6775L16.5612 8.17088C16.2139 7.97036 15.786 7.97036 15.4387 8.17088L9.36499 11.6775C9.01768 11.8781 8.80373 12.2486 8.80373 12.6497L8.80369 18.9971C8.80369 19.2789 8.57524 19.5074 8.29344 19.5074C8.01164 19.5074 7.7832 19.2789 7.7832 18.9971L7.78324 12.6497C7.78324 11.884 8.1917 11.1766 8.85475 10.7938L14.9285 7.28711Z" fill="white"/>
<path d="M15.6121 17.0798C15.6121 17.3616 15.3837 17.5901 15.1018 17.5901C14.82 17.5901 14.5916 17.3616 14.5916 17.0798V15.2218C14.5916 14.6806 14.7524 14.1754 15.0291 13.7533C15.5072 13.0238 16.3335 12.5402 17.273 12.5402C18.111 12.5402 18.8586 12.9248 19.3498 13.5258L20.3126 12.9781C20.5575 12.8387 20.8691 12.9244 21.0084 13.1693C21.1477 13.4142 21.0621 13.7258 20.8171 13.8651L19.8336 14.4246C19.9121 14.6768 19.9542 14.9446 19.9542 15.2218C19.9542 15.5036 19.7258 15.7321 19.444 15.7321C19.1622 15.7321 18.9337 15.5036 18.9337 15.2218C18.9337 14.9393 18.8637 14.6747 18.7404 14.4429C18.4605 13.9169 17.9079 13.5607 17.273 13.5607C16.6919 13.5607 16.1801 13.8587 15.8826 14.3127C15.7115 14.5736 15.6121 14.8853 15.6121 15.2218V17.0798Z" fill="white"/>
<path d="M12.9103 13.7185C12.9103 13.4367 12.6819 13.2082 12.4 13.2082C12.1183 13.2082 11.8898 13.4367 11.8898 13.7185V16.7472C11.8898 17.0965 11.9569 17.4308 12.0787 17.7375L11.084 18.3137C10.8401 18.4549 10.7569 18.7671 10.8981 19.0109C11.0393 19.2548 11.3515 19.338 11.5954 19.1968L12.6303 18.5973C13.1184 19.109 13.8075 19.4288 14.5715 19.4288C16.0525 19.4288 17.253 18.2282 17.253 16.7472V16.4436C17.253 16.1618 17.0246 15.9334 16.7428 15.9334C16.461 15.9334 16.2325 16.1618 16.2325 16.4436V16.7472C16.2325 17.6646 15.4889 18.4083 14.5715 18.4083C13.9903 18.4083 13.4784 18.1102 13.1808 17.6563C13.0098 17.3953 12.9103 17.0836 12.9103 16.7472V13.7185Z" fill="white"/>
<path d="M18.0201 15.9334C17.7382 15.9334 17.5098 16.1618 17.5098 16.4436C17.5098 16.7254 17.7382 16.9539 18.0201 16.9539H18.8929C18.8618 17.1848 18.7885 17.4325 18.6539 17.6538C18.4387 18.007 18.0393 18.3419 17.2547 18.4102C16.974 18.4346 16.7662 18.682 16.7907 18.9628C16.8151 19.2435 17.0625 19.4513 17.3432 19.4269C18.4355 19.3318 19.1335 18.8283 19.5255 18.1845C19.9009 17.5679 19.9677 16.871 19.9165 16.3897C19.8889 16.1302 19.67 15.9334 19.4091 15.9334H18.0201Z" fill="white"/>
<path d="M16.7428 15.7814C17.0389 15.7814 17.2788 15.5414 17.2788 15.2454C17.2788 14.9494 17.0389 14.7094 16.7428 14.7094C16.4468 14.7094 16.2068 14.9494 16.2068 15.2454C16.2068 15.5414 16.4468 15.7814 16.7428 15.7814Z" fill="white"/>
<path d="M14.9265 24.7138C15.5913 25.0969 16.4102 25.0953 17.0735 24.7097L23.7297 20.8404C23.9733 20.6987 24.056 20.3864 23.9144 20.1428C23.7728 19.8992 23.4605 19.8165 23.2168 19.9581L16.5607 23.8275C16.2132 24.0294 15.7843 24.0303 15.436 23.8296L8.71585 19.9571C8.47169 19.8164 8.1597 19.9003 8.019 20.1445C7.87831 20.3886 7.96218 20.7006 8.20634 20.8413L14.9265 24.7138Z" fill="white"/>
</svg>
