<svg width="32" height="32" viewBox="0 0 32 32" fill="none" xmlns="http://www.w3.org/2000/svg">
<circle cx="16" cy="16" r="16" fill="#FCBE5B"/>
<path d="M18.7229 15.395C18.7196 15.2973 18.6878 15.2027 18.6314 15.1228C18.5459 15.001 18.3727 14.8656 18.0422 14.8656C18.0422 14.8656 17.8448 14.8656 17.8153 14.6206C17.8135 14.6038 17.8158 14.5868 17.822 14.5712C17.8281 14.5555 17.8381 14.5415 17.8509 14.5306L23.0339 10.2521L13.8069 13.8068H7L12.143 17.664C12.143 17.664 13.2018 16.5295 14.7901 16.6808C14.7901 16.6808 14.6388 17.9665 16.2271 18.4203L16.8147 18.9429C16.8765 18.9975 16.9304 19.0604 16.9751 19.1297L17.5884 20.0842H19.8574L19.2463 18.3719C19.1479 18.0968 19.074 17.8136 19.0254 17.5256C18.9211 16.9145 18.7456 15.8375 18.7229 15.395ZM18.1935 16.5295L17.3615 16.1513C17.4515 15.8577 17.4773 15.5482 17.4372 15.2438C17.4372 15.2438 18.3448 15.6219 18.1935 16.5295Z" fill="white"/>
<path d="M21.2184 24.3195L15.7729 20.3866L10.3275 24.3951L12.0602 18.989C12.2021 18.5165 12.493 18.1027 12.8896 17.8093C13.2862 17.516 13.767 17.3588 14.2603 17.3614C14.2603 17.3614 14.7141 18.3446 15.546 18.7984C15.546 18.7984 16.378 19.2522 16.6049 20.0085L17.3612 20.7648H20.0839L21.2184 24.3195ZM18.8738 14.4874L19.6302 13.8067H25L19.7058 17.5126C19.7058 17.5126 19.3276 15.9244 19.3276 15.0924C19.3276 14.2605 19.3276 14.9412 18.8738 14.4874ZM15.7729 7.60489L14.0334 13.0504L17.2856 11.7646L15.7729 7.60489Z" fill="white"/>
</svg>
