<svg width="32" height="32" viewBox="0 0 32 32" fill="none" xmlns="http://www.w3.org/2000/svg">
<circle cx="16" cy="16" r="16" fill="#FF5151"/>
<path fill-rule="evenodd" clip-rule="evenodd" d="M24.0356 11.5918L16 7L7.96436 11.5918V20.7909L16 25L24.0356 20.7909V11.5918ZM10.5211 13.4767L8.69487 12.4331V19.9405L10.5211 18.8969V13.4767ZM9.06581 11.8037L15.6347 8.05008V15.9748L13.8084 17.0184V14.5138L9.06581 11.8037ZM10.8864 19.5295L9.09019 20.5559L16 24.1753L22.9097 20.5559L21.1135 19.5295L16 22.4516L10.8864 19.5295ZM17.8206 17.6478L16 18.6882L14.1794 17.6478L16 16.6075L17.8206 17.6478ZM21.4788 18.8969V12.6354L18.1915 14.5138V17.0184L16.3652 15.9748V8.05008L23.3051 12.0157V19.9405L21.4788 18.8969Z" fill="white"/>
</svg>
